<svg width="814" height="672" xmlns="http://www.w3.org/2000/svg">
  <path fill="#111315" d="M0 0h814v672H0z"/>
  <path fill="#7FED11" d="M0 0h32v152H0zm0 520h32v152H0z"/>
  <text x="17" y="148" dy=".5ex" text-anchor="end" font-family="sans-serif" font-size="19.355" fill="#111315" transform="rotate(90 17 148)">
LUKless dit
</text>
  <text x="17" y="524" dy=".5ex" font-family="sans-serif" font-size="19.355" fill="#111315" transform="rotate(90 17 524)">
LUKless dit
</text>
  <path fill="#F1F3F5" d="M0 152h32v2H0zm0 366h32v2H0zm32-366h2v4h-2zm0 8h2v4h-2zm0 8h2v4h-2zm0 8h2v4h-2zm0 8h2v4h-2zm0 8h2v4h-2zm0 8h2v4h-2zm0 8h2v4h-2zm0 8h2v4h-2zm0 8h2v4h-2zm0 8h2v4h-2zm0 8h2v4h-2zm0 8h2v4h-2zm0 8h2v4h-2zm0 8h2v4h-2zm0 8h2v4h-2zm0 8h2v4h-2zm0 8h2v4h-2zm0 8h2v4h-2zm0 8h2v4h-2zm0 8h2v4h-2zm0 8h2v4h-2zm0 8h2v4h-2zm0 8h2v4h-2zm0 8h2v4h-2zm0 8h2v4h-2zm0 8h2v4h-2zm0 8h2v4h-2zm0 8h2v4h-2zm0 8h2v4h-2zm0 8h2v4h-2zm0 8h2v4h-2zm0 8h2v4h-2zm0 8h2v4h-2zm0 8h2v4h-2zm0 8h2v4h-2zm0 8h2v4h-2zm0 8h2v4h-2zm0 8h2v4h-2zm0 8h2v4h-2zm0 8h2v4h-2zm0 8h2v4h-2zm0 8h2v4h-2zm0 8h2v4h-2zm0 8h2v4h-2zm0 8h2v4h-2z"/>
  <path fill="#A0D904" d="M34 0h32v152H34zm0 520h32v152H34z"/>
  <text x="51" y="148" dy=".5ex" text-anchor="end" font-family="sans-serif" font-size="19.355" fill="#111315" transform="rotate(90 51 148)">
LUKless sin
</text>
  <text x="51" y="524" dy=".5ex" font-family="sans-serif" font-size="19.355" fill="#111315" transform="rotate(90 51 524)">
LUKless sin
</text>
  <path fill="#F1F3F5" d="M34 152h32v2H34zm0 366h32v2H34zm32-366h2v4h-2zm0 8h2v4h-2zm0 8h2v4h-2zm0 8h2v4h-2zm0 8h2v4h-2zm0 8h2v4h-2zm0 8h2v4h-2zm0 8h2v4h-2zm0 8h2v4h-2zm0 8h2v4h-2zm0 8h2v4h-2zm0 8h2v4h-2zm0 8h2v4h-2zm0 8h2v4h-2zm0 8h2v4h-2zm0 8h2v4h-2zm0 8h2v4h-2zm0 8h2v4h-2zm0 8h2v4h-2zm0 8h2v4h-2zm0 8h2v4h-2zm0 8h2v4h-2zm0 8h2v4h-2zm0 8h2v4h-2zm0 8h2v4h-2zm0 8h2v4h-2zm0 8h2v4h-2zm0 8h2v4h-2zm0 8h2v4h-2zm0 8h2v4h-2zm0 8h2v4h-2zm0 8h2v4h-2zm0 8h2v4h-2zm0 8h2v4h-2zm0 8h2v4h-2zm0 8h2v4h-2zm0 8h2v4h-2zm0 8h2v4h-2zm0 8h2v4h-2zm0 8h2v4h-2zm0 8h2v4h-2zm0 8h2v4h-2zm0 8h2v4h-2zm0 8h2v4h-2zm0 8h2v4h-2zm0 8h2v4h-2z"/>
  <path fill="#BFBF00" d="M68 0h32v152H68zm0 520h32v152H68z"/>
  <text x="85" y="148" dy=".5ex" text-anchor="end" font-family="sans-serif" font-size="19.355" fill="#111315" transform="rotate(90 85 148)">
brigand
</text>
  <text x="85" y="524" dy=".5ex" font-family="sans-serif" font-size="19.355" fill="#111315" transform="rotate(90 85 524)">
brigand
</text>
  <path fill="#F1F3F5" d="M68 152h32v2H68zm0 366h32v2H68zm32-366h2v4h-2zm0 8h2v4h-2zm0 8h2v4h-2zm0 8h2v4h-2zm0 8h2v4h-2zm0 8h2v4h-2zm0 8h2v4h-2zm0 8h2v4h-2zm0 8h2v4h-2zm0 8h2v4h-2zm0 8h2v4h-2zm0 8h2v4h-2zm0 8h2v4h-2zm0 8h2v4h-2zm0 8h2v4h-2zm0 8h2v4h-2zm0 8h2v4h-2zm0 8h2v4h-2zm0 8h2v4h-2zm0 8h2v4h-2zm0 8h2v4h-2zm0 8h2v4h-2zm0 8h2v4h-2zm0 8h2v4h-2zm0 8h2v4h-2zm0 8h2v4h-2zm0 8h2v4h-2zm0 8h2v4h-2zm0 8h2v4h-2zm0 8h2v4h-2zm0 8h2v4h-2zm0 8h2v4h-2zm0 8h2v4h-2zm0 8h2v4h-2zm0 8h2v4h-2zm0 8h2v4h-2zm0 8h2v4h-2zm0 8h2v4h-2zm0 8h2v4h-2zm0 8h2v4h-2zm0 8h2v4h-2zm0 8h2v4h-2zm0 8h2v4h-2zm0 8h2v4h-2zm0 8h2v4h-2zm0 8h2v4h-2z"/>
  <path fill="#D9A004" d="M102 0h32v152h-32zm0 520h32v152h-32z"/>
  <text x="119" y="148" dy=".5ex" text-anchor="end" font-family="sans-serif" font-size="19.355" fill="#111315" transform="rotate(90 119 148)">
DEX brawler
</text>
  <text x="119" y="524" dy=".5ex" font-family="sans-serif" font-size="19.355" fill="#111315" transform="rotate(90 119 524)">
DEX brawler
</text>
  <path fill="#F1F3F5" d="M102 152h32v2h-32zm0 366h32v2h-32zm32-366h2v4h-2zm0 8h2v4h-2zm0 8h2v4h-2zm0 8h2v4h-2zm0 8h2v4h-2zm0 8h2v4h-2zm0 8h2v4h-2zm0 8h2v4h-2zm0 8h2v4h-2zm0 8h2v4h-2zm0 8h2v4h-2zm0 8h2v4h-2zm0 8h2v4h-2zm0 8h2v4h-2zm0 8h2v4h-2zm0 8h2v4h-2zm0 8h2v4h-2zm0 8h2v4h-2zm0 8h2v4h-2zm0 8h2v4h-2zm0 8h2v4h-2zm0 8h2v4h-2zm0 8h2v4h-2zm0 8h2v4h-2zm0 8h2v4h-2zm0 8h2v4h-2zm0 8h2v4h-2zm0 8h2v4h-2zm0 8h2v4h-2zm0 8h2v4h-2zm0 8h2v4h-2zm0 8h2v4h-2zm0 8h2v4h-2zm0 8h2v4h-2zm0 8h2v4h-2zm0 8h2v4h-2zm0 8h2v4h-2zm0 8h2v4h-2zm0 8h2v4h-2zm0 8h2v4h-2zm0 8h2v4h-2zm0 8h2v4h-2zm0 8h2v4h-2zm0 8h2v4h-2zm0 8h2v4h-2zm0 8h2v4h-2z"/>
  <path fill="#ED7F11" d="M136 0h32v152h-32zm0 520h32v152h-32z"/>
  <text x="153" y="148" dy=".5ex" text-anchor="end" font-family="sans-serif" font-size="19.355" fill="#111315" transform="rotate(90 153 148)">
magelet
</text>
  <text x="153" y="524" dy=".5ex" font-family="sans-serif" font-size="19.355" fill="#111315" transform="rotate(90 153 524)">
magelet
</text>
  <path fill="#F1F3F5" d="M136 152h32v2h-32zm0 366h32v2h-32zm32-366h2v4h-2zm0 8h2v4h-2zm0 8h2v4h-2zm0 8h2v4h-2zm0 8h2v4h-2zm0 8h2v4h-2zm0 8h2v4h-2zm0 8h2v4h-2zm0 8h2v4h-2zm0 8h2v4h-2zm0 8h2v4h-2zm0 8h2v4h-2zm0 8h2v4h-2zm0 8h2v4h-2zm0 8h2v4h-2zm0 8h2v4h-2zm0 8h2v4h-2zm0 8h2v4h-2zm0 8h2v4h-2zm0 8h2v4h-2zm0 8h2v4h-2zm0 8h2v4h-2zm0 8h2v4h-2zm0 8h2v4h-2zm0 8h2v4h-2zm0 8h2v4h-2zm0 8h2v4h-2zm0 8h2v4h-2zm0 8h2v4h-2zm0 8h2v4h-2zm0 8h2v4h-2zm0 8h2v4h-2zm0 8h2v4h-2zm0 8h2v4h-2zm0 8h2v4h-2zm0 8h2v4h-2zm0 8h2v4h-2zm0 8h2v4h-2zm0 8h2v4h-2zm0 8h2v4h-2zm0 8h2v4h-2zm0 8h2v4h-2zm0 8h2v4h-2zm0 8h2v4h-2zm0 8h2v4h-2zm0 8h2v4h-2z"/>
  <path fill="#FA5E25" d="M170 0h32v152h-32zm0 520h32v152h-32z"/>
  <text x="187" y="148" dy=".5ex" text-anchor="end" font-family="sans-serif" font-size="19.355" fill="#111315" transform="rotate(90 187 148)">
hybridlander
</text>
  <text x="187" y="524" dy=".5ex" font-family="sans-serif" font-size="19.355" fill="#111315" transform="rotate(90 187 524)">
hybridlander
</text>
  <path fill="#F1F3F5" d="M170 152h32v2h-32zm0 366h32v2h-32zm32-366h2v4h-2zm0 8h2v4h-2zm0 8h2v4h-2zm0 8h2v4h-2zm0 8h2v4h-2zm0 8h2v4h-2zm0 8h2v4h-2zm0 8h2v4h-2zm0 8h2v4h-2zm0 8h2v4h-2zm0 8h2v4h-2zm0 8h2v4h-2zm0 8h2v4h-2zm0 8h2v4h-2zm0 8h2v4h-2zm0 8h2v4h-2zm0 8h2v4h-2zm0 8h2v4h-2zm0 8h2v4h-2zm0 8h2v4h-2zm0 8h2v4h-2zm0 8h2v4h-2zm0 8h2v4h-2zm0 8h2v4h-2zm0 8h2v4h-2zm0 8h2v4h-2zm0 8h2v4h-2zm0 8h2v4h-2zm0 8h2v4h-2zm0 8h2v4h-2zm0 8h2v4h-2zm0 8h2v4h-2zm0 8h2v4h-2zm0 8h2v4h-2zm0 8h2v4h-2zm0 8h2v4h-2zm0 8h2v4h-2zm0 8h2v4h-2zm0 8h2v4h-2zm0 8h2v4h-2zm0 8h2v4h-2zm0 8h2v4h-2zm0 8h2v4h-2zm0 8h2v4h-2zm0 8h2v4h-2zm0 8h2v4h-2z"/>
  <path fill="#FF3F3F" d="M204 0h32v152h-32zm0 520h32v152h-32z"/>
  <text x="221" y="148" dy=".5ex" text-anchor="end" font-family="sans-serif" font-size="19.355" fill="#F1F3F5" transform="rotate(90 221 148)">
DEX warrior
</text>
  <text x="221" y="524" dy=".5ex" font-family="sans-serif" font-size="19.355" fill="#F1F3F5" transform="rotate(90 221 524)">
DEX warrior
</text>
  <path fill="#F1F3F5" d="M204 152h32v2h-32zm0 366h32v2h-32zm32-366h2v4h-2zm0 8h2v4h-2zm0 8h2v4h-2zm0 8h2v4h-2zm0 8h2v4h-2zm0 8h2v4h-2zm0 8h2v4h-2zm0 8h2v4h-2zm0 8h2v4h-2zm0 8h2v4h-2zm0 8h2v4h-2zm0 8h2v4h-2zm0 8h2v4h-2zm0 8h2v4h-2zm0 8h2v4h-2zm0 8h2v4h-2zm0 8h2v4h-2zm0 8h2v4h-2zm0 8h2v4h-2zm0 8h2v4h-2zm0 8h2v4h-2zm0 8h2v4h-2zm0 8h2v4h-2zm0 8h2v4h-2zm0 8h2v4h-2zm0 8h2v4h-2zm0 8h2v4h-2zm0 8h2v4h-2zm0 8h2v4h-2zm0 8h2v4h-2zm0 8h2v4h-2zm0 8h2v4h-2zm0 8h2v4h-2zm0 8h2v4h-2zm0 8h2v4h-2zm0 8h2v4h-2zm0 8h2v4h-2zm0 8h2v4h-2zm0 8h2v4h-2zm0 8h2v4h-2zm0 8h2v4h-2zm0 8h2v4h-2zm0 8h2v4h-2zm0 8h2v4h-2zm0 8h2v4h-2zm0 8h2v4h-2z"/>
  <path fill="#FA255E" d="M238 0h32v152h-32zm0 520h32v152h-32z"/>
  <text x="255" y="148" dy=".5ex" text-anchor="end" font-family="sans-serif" font-size="19.355" fill="#F1F3F5" transform="rotate(90 255 148)">
DEXlander
</text>
  <text x="255" y="524" dy=".5ex" font-family="sans-serif" font-size="19.355" fill="#F1F3F5" transform="rotate(90 255 524)">
DEXlander
</text>
  <path fill="#F1F3F5" d="M238 152h32v2h-32zm0 366h32v2h-32zm32-366h2v4h-2zm0 8h2v4h-2zm0 8h2v4h-2zm0 8h2v4h-2zm0 8h2v4h-2zm0 8h2v4h-2zm0 8h2v4h-2zm0 8h2v4h-2zm0 8h2v4h-2zm0 8h2v4h-2zm0 8h2v4h-2zm0 8h2v4h-2zm0 8h2v4h-2zm0 8h2v4h-2zm0 8h2v4h-2zm0 8h2v4h-2zm0 8h2v4h-2zm0 8h2v4h-2zm0 8h2v4h-2zm0 8h2v4h-2zm0 8h2v4h-2zm0 8h2v4h-2zm0 8h2v4h-2zm0 8h2v4h-2zm0 8h2v4h-2zm0 8h2v4h-2zm0 8h2v4h-2zm0 8h2v4h-2zm0 8h2v4h-2zm0 8h2v4h-2zm0 8h2v4h-2zm0 8h2v4h-2zm0 8h2v4h-2zm0 8h2v4h-2zm0 8h2v4h-2zm0 8h2v4h-2zm0 8h2v4h-2zm0 8h2v4h-2zm0 8h2v4h-2zm0 8h2v4h-2zm0 8h2v4h-2zm0 8h2v4h-2zm0 8h2v4h-2zm0 8h2v4h-2zm0 8h2v4h-2zm0 8h2v4h-2z"/>
  <path fill="#ED117F" d="M272 0h32v152h-32zm0 520h32v152h-32z"/>
  <text x="289" y="148" dy=".5ex" text-anchor="end" font-family="sans-serif" font-size="19.355" fill="#F1F3F5" transform="rotate(90 289 148)">
swashbuckler
</text>
  <text x="289" y="524" dy=".5ex" font-family="sans-serif" font-size="19.355" fill="#F1F3F5" transform="rotate(90 289 524)">
swashbuckler
</text>
  <path fill="#F1F3F5" d="M272 152h32v2h-32zm0 366h32v2h-32zm32-366h2v4h-2zm0 8h2v4h-2zm0 8h2v4h-2zm0 8h2v4h-2zm0 8h2v4h-2zm0 8h2v4h-2zm0 8h2v4h-2zm0 8h2v4h-2zm0 8h2v4h-2zm0 8h2v4h-2zm0 8h2v4h-2zm0 8h2v4h-2zm0 8h2v4h-2zm0 8h2v4h-2zm0 8h2v4h-2zm0 8h2v4h-2zm0 8h2v4h-2zm0 8h2v4h-2zm0 8h2v4h-2zm0 8h2v4h-2zm0 8h2v4h-2zm0 8h2v4h-2zm0 8h2v4h-2zm0 8h2v4h-2zm0 8h2v4h-2zm0 8h2v4h-2zm0 8h2v4h-2zm0 8h2v4h-2zm0 8h2v4h-2zm0 8h2v4h-2zm0 8h2v4h-2zm0 8h2v4h-2zm0 8h2v4h-2zm0 8h2v4h-2zm0 8h2v4h-2zm0 8h2v4h-2zm0 8h2v4h-2zm0 8h2v4h-2zm0 8h2v4h-2zm0 8h2v4h-2zm0 8h2v4h-2zm0 8h2v4h-2zm0 8h2v4h-2zm0 8h2v4h-2zm0 8h2v4h-2zm0 8h2v4h-2z"/>
  <path fill="#D904A0" d="M306 0h32v152h-32zm0 520h32v152h-32z"/>
  <text x="323" y="148" dy=".5ex" text-anchor="end" font-family="sans-serif" font-size="19.355" fill="#F1F3F5" transform="rotate(90 323 148)">
woods(wo)man
</text>
  <text x="323" y="524" dy=".5ex" font-family="sans-serif" font-size="19.355" fill="#F1F3F5" transform="rotate(90 323 524)">
woods(wo)man
</text>
  <path fill="#F1F3F5" d="M306 152h32v2h-32zm0 366h32v2h-32zm32-366h2v4h-2zm0 8h2v4h-2zm0 8h2v4h-2zm0 8h2v4h-2zm0 8h2v4h-2zm0 8h2v4h-2zm0 8h2v4h-2zm0 8h2v4h-2zm0 8h2v4h-2zm0 8h2v4h-2zm0 8h2v4h-2zm0 8h2v4h-2zm0 8h2v4h-2zm0 8h2v4h-2zm0 8h2v4h-2zm0 8h2v4h-2zm0 8h2v4h-2zm0 8h2v4h-2zm0 8h2v4h-2zm0 8h2v4h-2zm0 8h2v4h-2zm0 8h2v4h-2zm0 8h2v4h-2zm0 8h2v4h-2zm0 8h2v4h-2zm0 8h2v4h-2zm0 8h2v4h-2zm0 8h2v4h-2zm0 8h2v4h-2zm0 8h2v4h-2zm0 8h2v4h-2zm0 8h2v4h-2zm0 8h2v4h-2zm0 8h2v4h-2zm0 8h2v4h-2zm0 8h2v4h-2zm0 8h2v4h-2zm0 8h2v4h-2zm0 8h2v4h-2zm0 8h2v4h-2zm0 8h2v4h-2zm0 8h2v4h-2zm0 8h2v4h-2zm0 8h2v4h-2zm0 8h2v4h-2zm0 8h2v4h-2z"/>
  <path fill="#BF00BF" d="M340 0h32v152h-32zm0 520h32v152h-32z"/>
  <text x="357" y="148" dy=".5ex" text-anchor="end" font-family="sans-serif" font-size="19.355" fill="#F1F3F5" transform="rotate(90 357 148)">
permapirate
</text>
  <text x="357" y="524" dy=".5ex" font-family="sans-serif" font-size="19.355" fill="#F1F3F5" transform="rotate(90 357 524)">
permapirate
</text>
  <path fill="#F1F3F5" d="M340 152h32v2h-32zm0 366h32v2h-32zm32-366h2v4h-2zm0 8h2v4h-2zm0 8h2v4h-2zm0 8h2v4h-2zm0 8h2v4h-2zm0 8h2v4h-2zm0 8h2v4h-2zm0 8h2v4h-2zm0 8h2v4h-2zm0 8h2v4h-2zm0 8h2v4h-2zm0 8h2v4h-2zm0 8h2v4h-2zm0 8h2v4h-2zm0 8h2v4h-2zm0 8h2v4h-2zm0 8h2v4h-2zm0 8h2v4h-2zm0 8h2v4h-2zm0 8h2v4h-2zm0 8h2v4h-2zm0 8h2v4h-2zm0 8h2v4h-2zm0 8h2v4h-2zm0 8h2v4h-2zm0 8h2v4h-2zm0 8h2v4h-2zm0 8h2v4h-2zm0 8h2v4h-2zm0 8h2v4h-2zm0 8h2v4h-2zm0 8h2v4h-2zm0 8h2v4h-2zm0 8h2v4h-2zm0 8h2v4h-2zm0 8h2v4h-2zm0 8h2v4h-2zm0 8h2v4h-2zm0 8h2v4h-2zm0 8h2v4h-2zm0 8h2v4h-2zm0 8h2v4h-2zm0 8h2v4h-2zm0 8h2v4h-2zm0 8h2v4h-2zm0 8h2v4h-2z"/>
  <path fill="#A004D9" d="M374 0h32v152h-32zm0 520h32v152h-32z"/>
  <text x="391" y="148" dy=".5ex" text-anchor="end" font-family="sans-serif" font-size="19.355" fill="#F1F3F5" transform="rotate(90 391 148)">
permarogue
</text>
  <text x="391" y="524" dy=".5ex" font-family="sans-serif" font-size="19.355" fill="#F1F3F5" transform="rotate(90 391 524)">
permarogue
</text>
  <path fill="#F1F3F5" d="M374 152h32v2h-32zm0 366h32v2h-32zm32-366h2v4h-2zm0 8h2v4h-2zm0 8h2v4h-2zm0 8h2v4h-2zm0 8h2v4h-2zm0 8h2v4h-2zm0 8h2v4h-2zm0 8h2v4h-2zm0 8h2v4h-2zm0 8h2v4h-2zm0 8h2v4h-2zm0 8h2v4h-2zm0 8h2v4h-2zm0 8h2v4h-2zm0 8h2v4h-2zm0 8h2v4h-2zm0 8h2v4h-2zm0 8h2v4h-2zm0 8h2v4h-2zm0 8h2v4h-2zm0 8h2v4h-2zm0 8h2v4h-2zm0 8h2v4h-2zm0 8h2v4h-2zm0 8h2v4h-2zm0 8h2v4h-2zm0 8h2v4h-2zm0 8h2v4h-2zm0 8h2v4h-2zm0 8h2v4h-2zm0 8h2v4h-2zm0 8h2v4h-2zm0 8h2v4h-2zm0 8h2v4h-2zm0 8h2v4h-2zm0 8h2v4h-2zm0 8h2v4h-2zm0 8h2v4h-2zm0 8h2v4h-2zm0 8h2v4h-2zm0 8h2v4h-2zm0 8h2v4h-2zm0 8h2v4h-2zm0 8h2v4h-2zm0 8h2v4h-2zm0 8h2v4h-2z"/>
  <path fill="#7F11ED" d="M408 0h32v152h-32zm0 520h32v152h-32z"/>
  <text x="425" y="148" dy=".5ex" text-anchor="end" font-family="sans-serif" font-size="19.355" fill="#F1F3F5" transform="rotate(90 425 148)">
permarcher
</text>
  <text x="425" y="524" dy=".5ex" font-family="sans-serif" font-size="19.355" fill="#F1F3F5" transform="rotate(90 425 524)">
permarcher
</text>
  <path fill="#F1F3F5" d="M408 152h32v2h-32zm0 366h32v2h-32zm32-366h2v4h-2zm0 8h2v4h-2zm0 8h2v4h-2zm0 8h2v4h-2zm0 8h2v4h-2zm0 8h2v4h-2zm0 8h2v4h-2zm0 8h2v4h-2zm0 8h2v4h-2zm0 8h2v4h-2zm0 8h2v4h-2zm0 8h2v4h-2zm0 8h2v4h-2zm0 8h2v4h-2zm0 8h2v4h-2zm0 8h2v4h-2zm0 8h2v4h-2zm0 8h2v4h-2zm0 8h2v4h-2zm0 8h2v4h-2zm0 8h2v4h-2zm0 8h2v4h-2zm0 8h2v4h-2zm0 8h2v4h-2zm0 8h2v4h-2zm0 8h2v4h-2zm0 8h2v4h-2zm0 8h2v4h-2zm0 8h2v4h-2zm0 8h2v4h-2zm0 8h2v4h-2zm0 8h2v4h-2zm0 8h2v4h-2zm0 8h2v4h-2zm0 8h2v4h-2zm0 8h2v4h-2zm0 8h2v4h-2zm0 8h2v4h-2zm0 8h2v4h-2zm0 8h2v4h-2zm0 8h2v4h-2zm0 8h2v4h-2zm0 8h2v4h-2zm0 8h2v4h-2zm0 8h2v4h-2zm0 8h2v4h-2z"/>
  <path fill="#5E25FA" d="M442 0h32v152h-32zm0 520h32v152h-32z"/>
  <text x="459" y="148" dy=".5ex" text-anchor="end" font-family="sans-serif" font-size="19.355" fill="#F1F3F5" transform="rotate(90 459 148)">
permamagician
</text>
  <text x="459" y="524" dy=".5ex" font-family="sans-serif" font-size="19.355" fill="#F1F3F5" transform="rotate(90 459 524)">
permamagician
</text>
  <path fill="#F1F3F5" d="M442 152h32v2h-32zm0 366h32v2h-32zm32-366h2v4h-2zm0 8h2v4h-2zm0 8h2v4h-2zm0 8h2v4h-2zm0 8h2v4h-2zm0 8h2v4h-2zm0 8h2v4h-2zm0 8h2v4h-2zm0 8h2v4h-2zm0 8h2v4h-2zm0 8h2v4h-2zm0 8h2v4h-2zm0 8h2v4h-2zm0 8h2v4h-2zm0 8h2v4h-2zm0 8h2v4h-2zm0 8h2v4h-2zm0 8h2v4h-2zm0 8h2v4h-2zm0 8h2v4h-2zm0 8h2v4h-2zm0 8h2v4h-2zm0 8h2v4h-2zm0 8h2v4h-2zm0 8h2v4h-2zm0 8h2v4h-2zm0 8h2v4h-2zm0 8h2v4h-2zm0 8h2v4h-2zm0 8h2v4h-2zm0 8h2v4h-2zm0 8h2v4h-2zm0 8h2v4h-2zm0 8h2v4h-2zm0 8h2v4h-2zm0 8h2v4h-2zm0 8h2v4h-2zm0 8h2v4h-2zm0 8h2v4h-2zm0 8h2v4h-2zm0 8h2v4h-2zm0 8h2v4h-2zm0 8h2v4h-2zm0 8h2v4h-2zm0 8h2v4h-2zm0 8h2v4h-2z"/>
  <path fill="#3F3FFF" d="M476 0h32v152h-32zm0 520h32v152h-32z"/>
  <text x="493" y="148" dy=".5ex" text-anchor="end" font-family="sans-serif" font-size="19.355" fill="#F1F3F5" transform="rotate(90 493 148)">
permawarrior
</text>
  <text x="493" y="524" dy=".5ex" font-family="sans-serif" font-size="19.355" fill="#F1F3F5" transform="rotate(90 493 524)">
permawarrior
</text>
  <path fill="#F1F3F5" d="M476 152h32v2h-32zm0 366h32v2h-32zm32-366h2v4h-2zm0 8h2v4h-2zm0 8h2v4h-2zm0 8h2v4h-2zm0 8h2v4h-2zm0 8h2v4h-2zm0 8h2v4h-2zm0 8h2v4h-2zm0 8h2v4h-2zm0 8h2v4h-2zm0 8h2v4h-2zm0 8h2v4h-2zm0 8h2v4h-2zm0 8h2v4h-2zm0 8h2v4h-2zm0 8h2v4h-2zm0 8h2v4h-2zm0 8h2v4h-2zm0 8h2v4h-2zm0 8h2v4h-2zm0 8h2v4h-2zm0 8h2v4h-2zm0 8h2v4h-2zm0 8h2v4h-2zm0 8h2v4h-2zm0 8h2v4h-2zm0 8h2v4h-2zm0 8h2v4h-2zm0 8h2v4h-2zm0 8h2v4h-2zm0 8h2v4h-2zm0 8h2v4h-2zm0 8h2v4h-2zm0 8h2v4h-2zm0 8h2v4h-2zm0 8h2v4h-2zm0 8h2v4h-2zm0 8h2v4h-2zm0 8h2v4h-2zm0 8h2v4h-2zm0 8h2v4h-2zm0 8h2v4h-2zm0 8h2v4h-2zm0 8h2v4h-2zm0 8h2v4h-2zm0 8h2v4h-2z"/>
  <path fill="#255EFA" d="M510 0h32v152h-32zm0 520h32v152h-32z"/>
  <text x="527" y="148" dy=".5ex" text-anchor="end" font-family="sans-serif" font-size="19.355" fill="#F1F3F5" transform="rotate(90 527 148)">
DEX mage
</text>
  <text x="527" y="524" dy=".5ex" font-family="sans-serif" font-size="19.355" fill="#F1F3F5" transform="rotate(90 527 524)">
DEX mage
</text>
  <path fill="#F1F3F5" d="M510 152h32v2h-32zm0 366h32v2h-32zm32-366h2v4h-2zm0 8h2v4h-2zm0 8h2v4h-2zm0 8h2v4h-2zm0 8h2v4h-2zm0 8h2v4h-2zm0 8h2v4h-2zm0 8h2v4h-2zm0 8h2v4h-2zm0 8h2v4h-2zm0 8h2v4h-2zm0 8h2v4h-2zm0 8h2v4h-2zm0 8h2v4h-2zm0 8h2v4h-2zm0 8h2v4h-2zm0 8h2v4h-2zm0 8h2v4h-2zm0 8h2v4h-2zm0 8h2v4h-2zm0 8h2v4h-2zm0 8h2v4h-2zm0 8h2v4h-2zm0 8h2v4h-2zm0 8h2v4h-2zm0 8h2v4h-2zm0 8h2v4h-2zm0 8h2v4h-2zm0 8h2v4h-2zm0 8h2v4h-2zm0 8h2v4h-2zm0 8h2v4h-2zm0 8h2v4h-2zm0 8h2v4h-2zm0 8h2v4h-2zm0 8h2v4h-2zm0 8h2v4h-2zm0 8h2v4h-2zm0 8h2v4h-2zm0 8h2v4h-2zm0 8h2v4h-2zm0 8h2v4h-2zm0 8h2v4h-2zm0 8h2v4h-2zm0 8h2v4h-2zm0 8h2v4h-2z"/>
  <path fill="#117FED" d="M544 0h32v152h-32zm0 520h32v152h-32z"/>
  <text x="561" y="148" dy=".5ex" text-anchor="end" font-family="sans-serif" font-size="19.355" fill="#F1F3F5" transform="rotate(90 561 148)">
DEXginner
</text>
  <text x="561" y="524" dy=".5ex" font-family="sans-serif" font-size="19.355" fill="#F1F3F5" transform="rotate(90 561 524)">
DEXginner
</text>
  <path fill="#F1F3F5" d="M544 152h32v2h-32zm0 366h32v2h-32zm32-366h2v4h-2zm0 8h2v4h-2zm0 8h2v4h-2zm0 8h2v4h-2zm0 8h2v4h-2zm0 8h2v4h-2zm0 8h2v4h-2zm0 8h2v4h-2zm0 8h2v4h-2zm0 8h2v4h-2zm0 8h2v4h-2zm0 8h2v4h-2zm0 8h2v4h-2zm0 8h2v4h-2zm0 8h2v4h-2zm0 8h2v4h-2zm0 8h2v4h-2zm0 8h2v4h-2zm0 8h2v4h-2zm0 8h2v4h-2zm0 8h2v4h-2zm0 8h2v4h-2zm0 8h2v4h-2zm0 8h2v4h-2zm0 8h2v4h-2zm0 8h2v4h-2zm0 8h2v4h-2zm0 8h2v4h-2zm0 8h2v4h-2zm0 8h2v4h-2zm0 8h2v4h-2zm0 8h2v4h-2zm0 8h2v4h-2zm0 8h2v4h-2zm0 8h2v4h-2zm0 8h2v4h-2zm0 8h2v4h-2zm0 8h2v4h-2zm0 8h2v4h-2zm0 8h2v4h-2zm0 8h2v4h-2zm0 8h2v4h-2zm0 8h2v4h-2zm0 8h2v4h-2zm0 8h2v4h-2zm0 8h2v4h-2z"/>
  <path fill="#04A0D9" d="M578 0h32v152h-32zm0 520h32v152h-32z"/>
  <text x="595" y="148" dy=".5ex" text-anchor="end" font-family="sans-serif" font-size="19.355" fill="#F1F3F5" transform="rotate(90 595 148)">
STR mage
</text>
  <text x="595" y="524" dy=".5ex" font-family="sans-serif" font-size="19.355" fill="#F1F3F5" transform="rotate(90 595 524)">
STR mage
</text>
  <path fill="#F1F3F5" d="M578 152h32v2h-32zm0 366h32v2h-32zm32-366h2v4h-2zm0 8h2v4h-2zm0 8h2v4h-2zm0 8h2v4h-2zm0 8h2v4h-2zm0 8h2v4h-2zm0 8h2v4h-2zm0 8h2v4h-2zm0 8h2v4h-2zm0 8h2v4h-2zm0 8h2v4h-2zm0 8h2v4h-2zm0 8h2v4h-2zm0 8h2v4h-2zm0 8h2v4h-2zm0 8h2v4h-2zm0 8h2v4h-2zm0 8h2v4h-2zm0 8h2v4h-2zm0 8h2v4h-2zm0 8h2v4h-2zm0 8h2v4h-2zm0 8h2v4h-2zm0 8h2v4h-2zm0 8h2v4h-2zm0 8h2v4h-2zm0 8h2v4h-2zm0 8h2v4h-2zm0 8h2v4h-2zm0 8h2v4h-2zm0 8h2v4h-2zm0 8h2v4h-2zm0 8h2v4h-2zm0 8h2v4h-2zm0 8h2v4h-2zm0 8h2v4h-2zm0 8h2v4h-2zm0 8h2v4h-2zm0 8h2v4h-2zm0 8h2v4h-2zm0 8h2v4h-2zm0 8h2v4h-2zm0 8h2v4h-2zm0 8h2v4h-2zm0 8h2v4h-2zm0 8h2v4h-2z"/>
  <path fill="#00BFBF" d="M612 0h32v152h-32zm0 520h32v152h-32z"/>
  <text x="629" y="148" dy=".5ex" text-anchor="end" font-family="sans-serif" font-size="19.355" fill="#111315" transform="rotate(90 629 148)">
gish
</text>
  <text x="629" y="524" dy=".5ex" font-family="sans-serif" font-size="19.355" fill="#111315" transform="rotate(90 629 524)">
gish
</text>
  <path fill="#F1F3F5" d="M612 152h32v2h-32zm0 366h32v2h-32zm32-366h2v4h-2zm0 8h2v4h-2zm0 8h2v4h-2zm0 8h2v4h-2zm0 8h2v4h-2zm0 8h2v4h-2zm0 8h2v4h-2zm0 8h2v4h-2zm0 8h2v4h-2zm0 8h2v4h-2zm0 8h2v4h-2zm0 8h2v4h-2zm0 8h2v4h-2zm0 8h2v4h-2zm0 8h2v4h-2zm0 8h2v4h-2zm0 8h2v4h-2zm0 8h2v4h-2zm0 8h2v4h-2zm0 8h2v4h-2zm0 8h2v4h-2zm0 8h2v4h-2zm0 8h2v4h-2zm0 8h2v4h-2zm0 8h2v4h-2zm0 8h2v4h-2zm0 8h2v4h-2zm0 8h2v4h-2zm0 8h2v4h-2zm0 8h2v4h-2zm0 8h2v4h-2zm0 8h2v4h-2zm0 8h2v4h-2zm0 8h2v4h-2zm0 8h2v4h-2zm0 8h2v4h-2zm0 8h2v4h-2zm0 8h2v4h-2zm0 8h2v4h-2zm0 8h2v4h-2zm0 8h2v4h-2zm0 8h2v4h-2zm0 8h2v4h-2zm0 8h2v4h-2zm0 8h2v4h-2zm0 8h2v4h-2z"/>
  <path fill="#04D9A0" d="M646 0h32v152h-32zm0 520h32v152h-32z"/>
  <text x="663" y="148" dy=".5ex" text-anchor="end" font-family="sans-serif" font-size="19.355" fill="#111315" transform="rotate(90 663 148)">
gishlet
</text>
  <text x="663" y="524" dy=".5ex" font-family="sans-serif" font-size="19.355" fill="#111315" transform="rotate(90 663 524)">
gishlet
</text>
  <path fill="#F1F3F5" d="M646 152h32v2h-32zm0 366h32v2h-32zm32-366h2v4h-2zm0 8h2v4h-2zm0 8h2v4h-2zm0 8h2v4h-2zm0 8h2v4h-2zm0 8h2v4h-2zm0 8h2v4h-2zm0 8h2v4h-2zm0 8h2v4h-2zm0 8h2v4h-2zm0 8h2v4h-2zm0 8h2v4h-2zm0 8h2v4h-2zm0 8h2v4h-2zm0 8h2v4h-2zm0 8h2v4h-2zm0 8h2v4h-2zm0 8h2v4h-2zm0 8h2v4h-2zm0 8h2v4h-2zm0 8h2v4h-2zm0 8h2v4h-2zm0 8h2v4h-2zm0 8h2v4h-2zm0 8h2v4h-2zm0 8h2v4h-2zm0 8h2v4h-2zm0 8h2v4h-2zm0 8h2v4h-2zm0 8h2v4h-2zm0 8h2v4h-2zm0 8h2v4h-2zm0 8h2v4h-2zm0 8h2v4h-2zm0 8h2v4h-2zm0 8h2v4h-2zm0 8h2v4h-2zm0 8h2v4h-2zm0 8h2v4h-2zm0 8h2v4h-2zm0 8h2v4h-2zm0 8h2v4h-2zm0 8h2v4h-2zm0 8h2v4h-2zm0 8h2v4h-2zm0 8h2v4h-2z"/>
  <path fill="#11ED7F" d="M680 0h32v152h-32zm0 520h32v152h-32z"/>
  <text x="697" y="148" dy=".5ex" text-anchor="end" font-family="sans-serif" font-size="19.355" fill="#111315" transform="rotate(90 697 148)">
magelander
</text>
  <text x="697" y="524" dy=".5ex" font-family="sans-serif" font-size="19.355" fill="#111315" transform="rotate(90 697 524)">
magelander
</text>
  <path fill="#F1F3F5" d="M680 152h32v2h-32zm0 366h32v2h-32zm32-366h2v4h-2zm0 8h2v4h-2zm0 8h2v4h-2zm0 8h2v4h-2zm0 8h2v4h-2zm0 8h2v4h-2zm0 8h2v4h-2zm0 8h2v4h-2zm0 8h2v4h-2zm0 8h2v4h-2zm0 8h2v4h-2zm0 8h2v4h-2zm0 8h2v4h-2zm0 8h2v4h-2zm0 8h2v4h-2zm0 8h2v4h-2zm0 8h2v4h-2zm0 8h2v4h-2zm0 8h2v4h-2zm0 8h2v4h-2zm0 8h2v4h-2zm0 8h2v4h-2zm0 8h2v4h-2zm0 8h2v4h-2zm0 8h2v4h-2zm0 8h2v4h-2zm0 8h2v4h-2zm0 8h2v4h-2zm0 8h2v4h-2zm0 8h2v4h-2zm0 8h2v4h-2zm0 8h2v4h-2zm0 8h2v4h-2zm0 8h2v4h-2zm0 8h2v4h-2zm0 8h2v4h-2zm0 8h2v4h-2zm0 8h2v4h-2zm0 8h2v4h-2zm0 8h2v4h-2zm0 8h2v4h-2zm0 8h2v4h-2zm0 8h2v4h-2zm0 8h2v4h-2zm0 8h2v4h-2zm0 8h2v4h-2z"/>
  <path fill="#25FA5E" d="M714 0h32v152h-32zm0 520h32v152h-32z"/>
  <text x="731" y="148" dy=".5ex" text-anchor="end" font-family="sans-serif" font-size="19.355" fill="#111315" transform="rotate(90 731 148)">
dagger warrior
</text>
  <text x="731" y="524" dy=".5ex" font-family="sans-serif" font-size="19.355" fill="#111315" transform="rotate(90 731 524)">
dagger warrior
</text>
  <path fill="#F1F3F5" d="M714 152h32v2h-32zm0 366h32v2h-32zm32-366h2v4h-2zm0 8h2v4h-2zm0 8h2v4h-2zm0 8h2v4h-2zm0 8h2v4h-2zm0 8h2v4h-2zm0 8h2v4h-2zm0 8h2v4h-2zm0 8h2v4h-2zm0 8h2v4h-2zm0 8h2v4h-2zm0 8h2v4h-2zm0 8h2v4h-2zm0 8h2v4h-2zm0 8h2v4h-2zm0 8h2v4h-2zm0 8h2v4h-2zm0 8h2v4h-2zm0 8h2v4h-2zm0 8h2v4h-2zm0 8h2v4h-2zm0 8h2v4h-2zm0 8h2v4h-2zm0 8h2v4h-2zm0 8h2v4h-2zm0 8h2v4h-2zm0 8h2v4h-2zm0 8h2v4h-2zm0 8h2v4h-2zm0 8h2v4h-2zm0 8h2v4h-2zm0 8h2v4h-2zm0 8h2v4h-2zm0 8h2v4h-2zm0 8h2v4h-2zm0 8h2v4h-2zm0 8h2v4h-2zm0 8h2v4h-2zm0 8h2v4h-2zm0 8h2v4h-2zm0 8h2v4h-2zm0 8h2v4h-2zm0 8h2v4h-2zm0 8h2v4h-2zm0 8h2v4h-2zm0 8h2v4h-2z"/>
  <path fill="#3FFF3F" d="M748 0h32v152h-32zm0 520h32v152h-32z"/>
  <text x="765" y="148" dy=".5ex" text-anchor="end" font-family="sans-serif" font-size="19.355" fill="#111315" transform="rotate(90 765 148)">
wand warrior
</text>
  <text x="765" y="524" dy=".5ex" font-family="sans-serif" font-size="19.355" fill="#111315" transform="rotate(90 765 524)">
wand warrior
</text>
  <path fill="#F1F3F5" d="M748 152h32v2h-32zm0 366h32v2h-32zm32-366h2v4h-2zm0 8h2v4h-2zm0 8h2v4h-2zm0 8h2v4h-2zm0 8h2v4h-2zm0 8h2v4h-2zm0 8h2v4h-2zm0 8h2v4h-2zm0 8h2v4h-2zm0 8h2v4h-2zm0 8h2v4h-2zm0 8h2v4h-2zm0 8h2v4h-2zm0 8h2v4h-2zm0 8h2v4h-2zm0 8h2v4h-2zm0 8h2v4h-2zm0 8h2v4h-2zm0 8h2v4h-2zm0 8h2v4h-2zm0 8h2v4h-2zm0 8h2v4h-2zm0 8h2v4h-2zm0 8h2v4h-2zm0 8h2v4h-2zm0 8h2v4h-2zm0 8h2v4h-2zm0 8h2v4h-2zm0 8h2v4h-2zm0 8h2v4h-2zm0 8h2v4h-2zm0 8h2v4h-2zm0 8h2v4h-2zm0 8h2v4h-2zm0 8h2v4h-2zm0 8h2v4h-2zm0 8h2v4h-2zm0 8h2v4h-2zm0 8h2v4h-2zm0 8h2v4h-2zm0 8h2v4h-2zm0 8h2v4h-2zm0 8h2v4h-2zm0 8h2v4h-2zm0 8h2v4h-2zm0 8h2v4h-2z"/>
  <path fill="#5EFA25" d="M782 0h32v152h-32zm0 520h32v152h-32z"/>
  <text x="799" y="148" dy=".5ex" text-anchor="end" font-family="sans-serif" font-size="19.355" fill="#111315" transform="rotate(90 799 148)">
wandginner
</text>
  <text x="799" y="524" dy=".5ex" font-family="sans-serif" font-size="19.355" fill="#111315" transform="rotate(90 799 524)">
wandginner
</text>
  <path fill="#F1F3F5" d="M782 152h32v2h-32zm0 366h32v2h-32z"/>
  <path fill="#13ACCF" d="M514 158h24v32h-24z"/>
  <path fill="#13ACCF" d="M515 170h90v8h-90z"/>
  <path fill="#13ACCF" d="M537 164v20l9-10zm46 0v20l-9-10z"/>
  <path fill="#13ACCF" d="M582 158h30v32h-30z"/>
  <path fill="#13ACCF" d="M515 170h124v8H515z"/>
  <path fill="#13ACCF" d="M537 164v20l9-10zm80 0v20l-9-10z"/>
  <path fill="#13ACCF" d="M610 158h36v32h-36z"/>
  <path fill="#13ACCF" d="M515 170h158v8H515z"/>
  <path fill="#13ACCF" d="M537 164v20l9-10zm114 0v20l-9-10z"/>
  <path fill="#13ACCF" d="M644 158h30v32h-30z"/>
  <text x="586" y="169" dy=".5ex" font-family="sans-serif" font-size="9.677" fill="#111315">
melee 
</text>
  <text x="586" y="179" dy=".5ex" font-family="sans-serif" font-size="9.677" fill="#111315">
mage
</text>
  <path fill="#34FD50" d="M718 194h30v32h-30z"/>
  <path fill="#34FD50" d="M746 194h30v32h-30z"/>
  <text x="722" y="205" dy=".5ex" font-family="sans-serif" font-size="9.677" fill="#111315">
weaponed 
</text>
  <text x="722" y="215" dy=".5ex" font-family="sans-serif" font-size="9.677" fill="#111315">
warrior
</text>
  <path fill="#42F755" d="M684 230h24v32h-24z"/>
  <path fill="#42F755" d="M685 242h90v8h-90z"/>
  <path fill="#42F755" d="M707 236v20l9-10zm46 0v20l-9-10z"/>
  <path fill="#42F755" d="M752 230h30v32h-30z"/>
  <path fill="#42F755" d="M685 242h124v8H685z"/>
  <path fill="#42F755" d="M707 236v20l9-10zm80 0v20l-9-10z"/>
  <path fill="#42F755" d="M780 230h30v32h-30z"/>
  <text x="756" y="246" dy=".5ex" font-family="sans-serif" font-size="9.677" fill="#111315">
wanded
</text>
  <path fill="#7F9FB1" d="M140 266h24v32h-24z"/>
  <path fill="#7F9FB1" d="M141 278h328v8H141z"/>
  <path fill="#7F9FB1" d="M163 272v20l9-10zm284 0v20l-9-10z"/>
  <path fill="#7F9FB1" d="M446 266h24v32h-24z"/>
  <path fill="#7F9FB1" d="M447 278h192v8H447z"/>
  <path fill="#7F9FB1" d="M469 272v20l9-10zm148 0v20l-9-10z"/>
  <path fill="#7F9FB1" d="M616 266h30v32h-30z"/>
  <path fill="#7F9FB1" d="M447 278h226v8H447z"/>
  <path fill="#7F9FB1" d="M469 272v20l9-10zm182 0v20l-9-10z"/>
  <path fill="#7F9FB1" d="M644 266h30v32h-30z"/>
  <text x="620" y="277" dy=".5ex" font-family="sans-serif" font-size="9.677" fill="#111315">
spell 
</text>
  <text x="620" y="287" dy=".5ex" font-family="sans-serif" font-size="9.677" fill="#111315">
user
</text>
  <path fill="#959AA4" d="M38 302h30v32H38z"/>
  <path fill="#959AA4" d="M66 302h30v32H66z"/>
  <path fill="#959AA4" d="M73 314h260v8H73z"/>
  <path fill="#959AA4" d="M95 308v20l9-10zm216 0v20l-9-10z"/>
  <path fill="#959AA4" d="M310 302h24v32h-24z"/>
  <path fill="#959AA4" d="M311 314h226v8H311z"/>
  <path fill="#959AA4" d="M333 308v20l9-10zm182 0v20l-9-10z"/>
  <path fill="#959AA4" d="M514 302h24v32h-24z"/>
  <path fill="#959AA4" d="M515 314h90v8h-90z"/>
  <path fill="#959AA4" d="M537 308v20l9-10zm46 0v20l-9-10z"/>
  <path fill="#959AA4" d="M582 302h24v32h-24z"/>
  <text x="42" y="313" dy=".5ex" font-family="sans-serif" font-size="9.677" fill="#111315">
jobbed 
</text>
  <text x="42" y="323" dy=".5ex" font-family="sans-serif" font-size="9.677" fill="#111315">
beginner
</text>
  <path fill="#8722E7" d="M344 338h30v32h-30z"/>
  <path fill="#8722E7" d="M372 338h36v32h-36z"/>
  <path fill="#8722E7" d="M406 338h36v32h-36z"/>
  <path fill="#8722E7" d="M440 338h36v32h-36z"/>
  <path fill="#8722E7" d="M474 338h30v32h-30z"/>
  <text x="348" y="349" dy=".5ex" font-family="sans-serif" font-size="9.677" fill="#F1F3F5">
perma-
</text>
  <text x="348" y="359" dy=".5ex" font-family="sans-serif" font-size="9.677" fill="#F1F3F5">
first
</text>
  <path fill="#BC6AA2" d="M106 374h24v32h-24z"/>
  <path fill="#BC6AA2" d="M107 386h124v8H107z"/>
  <path fill="#BC6AA2" d="M129 380v20l9-10zm80 0v20l-9-10z"/>
  <path fill="#BC6AA2" d="M208 374h30v32h-30z"/>
  <path fill="#BC6AA2" d="M107 386h158v8H107z"/>
  <path fill="#BC6AA2" d="M129 380v20l9-10zm114 0v20l-9-10z"/>
  <path fill="#BC6AA2" d="M236 374h30v32h-30z"/>
  <path fill="#BC6AA2" d="M243 386h294v8H243z"/>
  <path fill="#BC6AA2" d="M265 380v20l9-10zm250 0v20l-9-10z"/>
  <path fill="#BC6AA2" d="M514 374h30v32h-30z"/>
  <path fill="#BC6AA2" d="M243 386h328v8H243z"/>
  <path fill="#BC6AA2" d="M265 380v20l9-10zm284 0v20l-9-10z"/>
  <path fill="#BC6AA2" d="M542 374h30v32h-30z"/>
  <text x="212" y="385" dy=".5ex" font-family="sans-serif" font-size="9.677" fill="#111315">
DEX 
</text>
  <text x="212" y="395" dy=".5ex" font-family="sans-serif" font-size="9.677" fill="#111315">
melee
</text>
  <path fill="#A1D80A" d="M4 410h30v32H4z"/>
  <path fill="#A1D80A" d="M32 410h36v32H32z"/>
  <path fill="#A1D80A" d="M66 410h30v32H66z"/>
  <text x="8" y="421" dy=".5ex" font-family="sans-serif" font-size="9.677" fill="#111315">
LUKless 
</text>
  <text x="8" y="431" dy=".5ex" font-family="sans-serif" font-size="9.677" fill="#111315">
thief
</text>
  <path fill="#CF6C87" d="M38 446h24v32H38z"/>
  <path fill="#CF6C87" d="M39 458h90v8H39z"/>
  <path fill="#CF6C87" d="M61 452v20l9-10zm46 0v20l-9-10z"/>
  <path fill="#CF6C87" d="M106 446h24v32h-24z"/>
  <path fill="#CF6C87" d="M107 458h90v8h-90z"/>
  <path fill="#CF6C87" d="M129 452v20l9-10zm46 0v20l-9-10z"/>
  <path fill="#CF6C87" d="M174 446h24v32h-24z"/>
  <path fill="#CF6C87" d="M175 458h124v8H175z"/>
  <path fill="#CF6C87" d="M197 452v20l9-10zm80 0v20l-9-10z"/>
  <path fill="#CF6C87" d="M276 446h30v32h-30z"/>
  <path fill="#CF6C87" d="M175 458h158v8H175z"/>
  <path fill="#CF6C87" d="M197 452v20l9-10zm114 0v20l-9-10z"/>
  <path fill="#CF6C87" d="M304 446h36v32h-36z"/>
  <path fill="#CF6C87" d="M175 458h192v8H175z"/>
  <path fill="#CF6C87" d="M197 452v20l9-10zm148 0v20l-9-10z"/>
  <path fill="#CF6C87" d="M338 446h36v32h-36z"/>
  <path fill="#CF6C87" d="M175 458h226v8H175z"/>
  <path fill="#CF6C87" d="M197 452v20l9-10zm182 0v20l-9-10z"/>
  <path fill="#CF6C87" d="M372 446h30v32h-30z"/>
  <text x="280" y="454" dy=".5ex" font-family="sans-serif" font-size="9.677" fill="#111315">
hybrid 
</text>
  <text x="280" y="462" dy=".5ex" font-family="sans-serif" font-size="9.677" fill="#111315">
physical 
</text>
  <text x="280" y="470" dy=".5ex" font-family="sans-serif" font-size="9.677" fill="#111315">
attacker
</text>
  <path fill="#D78D51" d="M4 482h24v32H4z"/>
  <path fill="#D78D51" d="M5 494h90v8H5z"/>
  <path fill="#D78D51" d="M27 488v20l9-10zm46 0v20l-9-10z"/>
  <path fill="#D78D51" d="M72 482h30v32H72z"/>
  <path fill="#D78D51" d="M5 494h124v8H5z"/>
  <path fill="#D78D51" d="M27 488v20l9-10zm80 0v20l-9-10z"/>
  <path fill="#D78D51" d="M100 482h36v32h-36z"/>
  <path fill="#D78D51" d="M5 494h158v8H5z"/>
  <path fill="#D78D51" d="M27 488v20l9-10zm114 0v20l-9-10z"/>
  <path fill="#D78D51" d="M134 482h30v32h-30z"/>
  <path fill="#D78D51" d="M141 494h90v8h-90z"/>
  <path fill="#D78D51" d="M163 488v20l9-10zm46 0v20l-9-10z"/>
  <path fill="#D78D51" d="M208 482h24v32h-24z"/>
  <path fill="#D78D51" d="M209 494h90v8h-90z"/>
  <path fill="#D78D51" d="M231 488v20l9-10zm46 0v20l-9-10z"/>
  <path fill="#D78D51" d="M276 482h30v32h-30z"/>
  <path fill="#D78D51" d="M209 494h124v8H209z"/>
  <path fill="#D78D51" d="M231 488v20l9-10zm80 0v20l-9-10z"/>
  <path fill="#D78D51" d="M304 482h30v32h-30z"/>
  <text x="76" y="493" dy=".5ex" font-family="sans-serif" font-size="9.677" fill="#111315">
secondary 
</text>
  <text x="76" y="503" dy=".5ex" font-family="sans-serif" font-size="9.677" fill="#111315">
statted
</text>
</svg>
