<svg width="1562" height="1176" xmlns="http://www.w3.org/2000/svg">
  <path fill="#111315" d="M0 0h1562v1176H0z"/>
  <path fill="#7FED11" d="M0 0h32v152H0zm0 1024h32v152H0z"/>
  <text x="17" y="148" dy=".5ex" text-anchor="end" font-family="sans-serif" font-size="19.355" fill="#111315" transform="rotate(90 17 148)">
LUKless sin
</text>
  <text x="17" y="1028" dy=".5ex" font-family="sans-serif" font-size="19.355" fill="#111315" transform="rotate(90 17 1028)">
LUKless sin
</text>
  <path fill="#F1F3F5" d="M0 152h32v2H0zm0 870h32v2H0zm32-870h2v4h-2zm0 8h2v4h-2zm0 8h2v4h-2zm0 8h2v4h-2zm0 8h2v4h-2zm0 8h2v4h-2zm0 8h2v4h-2zm0 8h2v4h-2zm0 8h2v4h-2zm0 8h2v4h-2zm0 8h2v4h-2zm0 8h2v4h-2zm0 8h2v4h-2zm0 8h2v4h-2zm0 8h2v4h-2zm0 8h2v4h-2zm0 8h2v4h-2zm0 8h2v4h-2zm0 8h2v4h-2zm0 8h2v4h-2zm0 8h2v4h-2zm0 8h2v4h-2zm0 8h2v4h-2zm0 8h2v4h-2zm0 8h2v4h-2zm0 8h2v4h-2zm0 8h2v4h-2zm0 8h2v4h-2zm0 8h2v4h-2zm0 8h2v4h-2zm0 8h2v4h-2zm0 8h2v4h-2zm0 8h2v4h-2zm0 8h2v4h-2zm0 8h2v4h-2zm0 8h2v4h-2zm0 8h2v4h-2zm0 8h2v4h-2zm0 8h2v4h-2zm0 8h2v4h-2zm0 8h2v4h-2zm0 8h2v4h-2zm0 8h2v4h-2zm0 8h2v4h-2zm0 8h2v4h-2zm0 8h2v4h-2zm0 8h2v4h-2zm0 8h2v4h-2zm0 8h2v4h-2zm0 8h2v4h-2zm0 8h2v4h-2zm0 8h2v4h-2zm0 8h2v4h-2zm0 8h2v4h-2zm0 8h2v4h-2zm0 8h2v4h-2zm0 8h2v4h-2zm0 8h2v4h-2zm0 8h2v4h-2zm0 8h2v4h-2zm0 8h2v4h-2zm0 8h2v4h-2zm0 8h2v4h-2zm0 8h2v4h-2zm0 8h2v4h-2zm0 8h2v4h-2zm0 8h2v4h-2zm0 8h2v4h-2zm0 8h2v4h-2zm0 8h2v4h-2zm0 8h2v4h-2zm0 8h2v4h-2zm0 8h2v4h-2zm0 8h2v4h-2zm0 8h2v4h-2zm0 8h2v4h-2zm0 8h2v4h-2zm0 8h2v4h-2zm0 8h2v4h-2zm0 8h2v4h-2zm0 8h2v4h-2zm0 8h2v4h-2zm0 8h2v4h-2zm0 8h2v4h-2zm0 8h2v4h-2zm0 8h2v4h-2zm0 8h2v4h-2zm0 8h2v4h-2zm0 8h2v4h-2zm0 8h2v4h-2zm0 8h2v4h-2zm0 8h2v4h-2zm0 8h2v4h-2zm0 8h2v4h-2zm0 8h2v4h-2zm0 8h2v4h-2zm0 8h2v4h-2zm0 8h2v4h-2zm0 8h2v4h-2zm0 8h2v4h-2zm0 8h2v4h-2zm0 8h2v4h-2zm0 8h2v4h-2zm0 8h2v4h-2zm0 8h2v4h-2zm0 8h2v4h-2zm0 8h2v4h-2zm0 8h2v4h-2zm0 8h2v4h-2z"/>
  <path fill="#90E409" d="M34 0h32v152H34zm0 1024h32v152H34z"/>
  <text x="51" y="148" dy=".5ex" text-anchor="end" font-family="sans-serif" font-size="19.355" fill="#111315" transform="rotate(90 51 148)">
permapirate
</text>
  <text x="51" y="1028" dy=".5ex" font-family="sans-serif" font-size="19.355" fill="#111315" transform="rotate(90 51 1028)">
permapirate
</text>
  <path fill="#F1F3F5" d="M34 152h32v2H34zm0 870h32v2H34zm32-870h2v4h-2zm0 8h2v4h-2zm0 8h2v4h-2zm0 8h2v4h-2zm0 8h2v4h-2zm0 8h2v4h-2zm0 8h2v4h-2zm0 8h2v4h-2zm0 8h2v4h-2zm0 8h2v4h-2zm0 8h2v4h-2zm0 8h2v4h-2zm0 8h2v4h-2zm0 8h2v4h-2zm0 8h2v4h-2zm0 8h2v4h-2zm0 8h2v4h-2zm0 8h2v4h-2zm0 8h2v4h-2zm0 8h2v4h-2zm0 8h2v4h-2zm0 8h2v4h-2zm0 8h2v4h-2zm0 8h2v4h-2zm0 8h2v4h-2zm0 8h2v4h-2zm0 8h2v4h-2zm0 8h2v4h-2zm0 8h2v4h-2zm0 8h2v4h-2zm0 8h2v4h-2zm0 8h2v4h-2zm0 8h2v4h-2zm0 8h2v4h-2zm0 8h2v4h-2zm0 8h2v4h-2zm0 8h2v4h-2zm0 8h2v4h-2zm0 8h2v4h-2zm0 8h2v4h-2zm0 8h2v4h-2zm0 8h2v4h-2zm0 8h2v4h-2zm0 8h2v4h-2zm0 8h2v4h-2zm0 8h2v4h-2zm0 8h2v4h-2zm0 8h2v4h-2zm0 8h2v4h-2zm0 8h2v4h-2zm0 8h2v4h-2zm0 8h2v4h-2zm0 8h2v4h-2zm0 8h2v4h-2zm0 8h2v4h-2zm0 8h2v4h-2zm0 8h2v4h-2zm0 8h2v4h-2zm0 8h2v4h-2zm0 8h2v4h-2zm0 8h2v4h-2zm0 8h2v4h-2zm0 8h2v4h-2zm0 8h2v4h-2zm0 8h2v4h-2zm0 8h2v4h-2zm0 8h2v4h-2zm0 8h2v4h-2zm0 8h2v4h-2zm0 8h2v4h-2zm0 8h2v4h-2zm0 8h2v4h-2zm0 8h2v4h-2zm0 8h2v4h-2zm0 8h2v4h-2zm0 8h2v4h-2zm0 8h2v4h-2zm0 8h2v4h-2zm0 8h2v4h-2zm0 8h2v4h-2zm0 8h2v4h-2zm0 8h2v4h-2zm0 8h2v4h-2zm0 8h2v4h-2zm0 8h2v4h-2zm0 8h2v4h-2zm0 8h2v4h-2zm0 8h2v4h-2zm0 8h2v4h-2zm0 8h2v4h-2zm0 8h2v4h-2zm0 8h2v4h-2zm0 8h2v4h-2zm0 8h2v4h-2zm0 8h2v4h-2zm0 8h2v4h-2zm0 8h2v4h-2zm0 8h2v4h-2zm0 8h2v4h-2zm0 8h2v4h-2zm0 8h2v4h-2zm0 8h2v4h-2zm0 8h2v4h-2zm0 8h2v4h-2zm0 8h2v4h-2zm0 8h2v4h-2zm0 8h2v4h-2zm0 8h2v4h-2zm0 8h2v4h-2z"/>
  <path fill="#A1D803" d="M68 0h32v152H68zm0 1024h32v152H68z"/>
  <text x="85" y="148" dy=".5ex" text-anchor="end" font-family="sans-serif" font-size="19.355" fill="#111315" transform="rotate(90 85 148)">
punch slinger
</text>
  <text x="85" y="1028" dy=".5ex" font-family="sans-serif" font-size="19.355" fill="#111315" transform="rotate(90 85 1028)">
punch slinger
</text>
  <path fill="#F1F3F5" d="M68 152h32v2H68zm0 870h32v2H68zm32-870h2v4h-2zm0 8h2v4h-2zm0 8h2v4h-2zm0 8h2v4h-2zm0 8h2v4h-2zm0 8h2v4h-2zm0 8h2v4h-2zm0 8h2v4h-2zm0 8h2v4h-2zm0 8h2v4h-2zm0 8h2v4h-2zm0 8h2v4h-2zm0 8h2v4h-2zm0 8h2v4h-2zm0 8h2v4h-2zm0 8h2v4h-2zm0 8h2v4h-2zm0 8h2v4h-2zm0 8h2v4h-2zm0 8h2v4h-2zm0 8h2v4h-2zm0 8h2v4h-2zm0 8h2v4h-2zm0 8h2v4h-2zm0 8h2v4h-2zm0 8h2v4h-2zm0 8h2v4h-2zm0 8h2v4h-2zm0 8h2v4h-2zm0 8h2v4h-2zm0 8h2v4h-2zm0 8h2v4h-2zm0 8h2v4h-2zm0 8h2v4h-2zm0 8h2v4h-2zm0 8h2v4h-2zm0 8h2v4h-2zm0 8h2v4h-2zm0 8h2v4h-2zm0 8h2v4h-2zm0 8h2v4h-2zm0 8h2v4h-2zm0 8h2v4h-2zm0 8h2v4h-2zm0 8h2v4h-2zm0 8h2v4h-2zm0 8h2v4h-2zm0 8h2v4h-2zm0 8h2v4h-2zm0 8h2v4h-2zm0 8h2v4h-2zm0 8h2v4h-2zm0 8h2v4h-2zm0 8h2v4h-2zm0 8h2v4h-2zm0 8h2v4h-2zm0 8h2v4h-2zm0 8h2v4h-2zm0 8h2v4h-2zm0 8h2v4h-2zm0 8h2v4h-2zm0 8h2v4h-2zm0 8h2v4h-2zm0 8h2v4h-2zm0 8h2v4h-2zm0 8h2v4h-2zm0 8h2v4h-2zm0 8h2v4h-2zm0 8h2v4h-2zm0 8h2v4h-2zm0 8h2v4h-2zm0 8h2v4h-2zm0 8h2v4h-2zm0 8h2v4h-2zm0 8h2v4h-2zm0 8h2v4h-2zm0 8h2v4h-2zm0 8h2v4h-2zm0 8h2v4h-2zm0 8h2v4h-2zm0 8h2v4h-2zm0 8h2v4h-2zm0 8h2v4h-2zm0 8h2v4h-2zm0 8h2v4h-2zm0 8h2v4h-2zm0 8h2v4h-2zm0 8h2v4h-2zm0 8h2v4h-2zm0 8h2v4h-2zm0 8h2v4h-2zm0 8h2v4h-2zm0 8h2v4h-2zm0 8h2v4h-2zm0 8h2v4h-2zm0 8h2v4h-2zm0 8h2v4h-2zm0 8h2v4h-2zm0 8h2v4h-2zm0 8h2v4h-2zm0 8h2v4h-2zm0 8h2v4h-2zm0 8h2v4h-2zm0 8h2v4h-2zm0 8h2v4h-2zm0 8h2v4h-2zm0 8h2v4h-2zm0 8h2v4h-2zm0 8h2v4h-2z"/>
  <path fill="#B2CB00" d="M102 0h32v152h-32zm0 1024h32v152h-32z"/>
  <text x="119" y="148" dy=".5ex" text-anchor="end" font-family="sans-serif" font-size="19.355" fill="#111315" transform="rotate(90 119 148)">
dagger sin
</text>
  <text x="119" y="1028" dy=".5ex" font-family="sans-serif" font-size="19.355" fill="#111315" transform="rotate(90 119 1028)">
dagger sin
</text>
  <path fill="#F1F3F5" d="M102 152h32v2h-32zm0 870h32v2h-32zm32-870h2v4h-2zm0 8h2v4h-2zm0 8h2v4h-2zm0 8h2v4h-2zm0 8h2v4h-2zm0 8h2v4h-2zm0 8h2v4h-2zm0 8h2v4h-2zm0 8h2v4h-2zm0 8h2v4h-2zm0 8h2v4h-2zm0 8h2v4h-2zm0 8h2v4h-2zm0 8h2v4h-2zm0 8h2v4h-2zm0 8h2v4h-2zm0 8h2v4h-2zm0 8h2v4h-2zm0 8h2v4h-2zm0 8h2v4h-2zm0 8h2v4h-2zm0 8h2v4h-2zm0 8h2v4h-2zm0 8h2v4h-2zm0 8h2v4h-2zm0 8h2v4h-2zm0 8h2v4h-2zm0 8h2v4h-2zm0 8h2v4h-2zm0 8h2v4h-2zm0 8h2v4h-2zm0 8h2v4h-2zm0 8h2v4h-2zm0 8h2v4h-2zm0 8h2v4h-2zm0 8h2v4h-2zm0 8h2v4h-2zm0 8h2v4h-2zm0 8h2v4h-2zm0 8h2v4h-2zm0 8h2v4h-2zm0 8h2v4h-2zm0 8h2v4h-2zm0 8h2v4h-2zm0 8h2v4h-2zm0 8h2v4h-2zm0 8h2v4h-2zm0 8h2v4h-2zm0 8h2v4h-2zm0 8h2v4h-2zm0 8h2v4h-2zm0 8h2v4h-2zm0 8h2v4h-2zm0 8h2v4h-2zm0 8h2v4h-2zm0 8h2v4h-2zm0 8h2v4h-2zm0 8h2v4h-2zm0 8h2v4h-2zm0 8h2v4h-2zm0 8h2v4h-2zm0 8h2v4h-2zm0 8h2v4h-2zm0 8h2v4h-2zm0 8h2v4h-2zm0 8h2v4h-2zm0 8h2v4h-2zm0 8h2v4h-2zm0 8h2v4h-2zm0 8h2v4h-2zm0 8h2v4h-2zm0 8h2v4h-2zm0 8h2v4h-2zm0 8h2v4h-2zm0 8h2v4h-2zm0 8h2v4h-2zm0 8h2v4h-2zm0 8h2v4h-2zm0 8h2v4h-2zm0 8h2v4h-2zm0 8h2v4h-2zm0 8h2v4h-2zm0 8h2v4h-2zm0 8h2v4h-2zm0 8h2v4h-2zm0 8h2v4h-2zm0 8h2v4h-2zm0 8h2v4h-2zm0 8h2v4h-2zm0 8h2v4h-2zm0 8h2v4h-2zm0 8h2v4h-2zm0 8h2v4h-2zm0 8h2v4h-2zm0 8h2v4h-2zm0 8h2v4h-2zm0 8h2v4h-2zm0 8h2v4h-2zm0 8h2v4h-2zm0 8h2v4h-2zm0 8h2v4h-2zm0 8h2v4h-2zm0 8h2v4h-2zm0 8h2v4h-2zm0 8h2v4h-2zm0 8h2v4h-2zm0 8h2v4h-2zm0 8h2v4h-2zm0 8h2v4h-2z"/>
  <path fill="#C1BC00" d="M136 0h32v152h-32zm0 1024h32v152h-32z"/>
  <text x="153" y="148" dy=".5ex" text-anchor="end" font-family="sans-serif" font-size="19.355" fill="#111315" transform="rotate(90 153 148)">
permarogue
</text>
  <text x="153" y="1028" dy=".5ex" font-family="sans-serif" font-size="19.355" fill="#111315" transform="rotate(90 153 1028)">
permarogue
</text>
  <path fill="#F1F3F5" d="M136 152h32v2h-32zm0 870h32v2h-32zm32-870h2v4h-2zm0 8h2v4h-2zm0 8h2v4h-2zm0 8h2v4h-2zm0 8h2v4h-2zm0 8h2v4h-2zm0 8h2v4h-2zm0 8h2v4h-2zm0 8h2v4h-2zm0 8h2v4h-2zm0 8h2v4h-2zm0 8h2v4h-2zm0 8h2v4h-2zm0 8h2v4h-2zm0 8h2v4h-2zm0 8h2v4h-2zm0 8h2v4h-2zm0 8h2v4h-2zm0 8h2v4h-2zm0 8h2v4h-2zm0 8h2v4h-2zm0 8h2v4h-2zm0 8h2v4h-2zm0 8h2v4h-2zm0 8h2v4h-2zm0 8h2v4h-2zm0 8h2v4h-2zm0 8h2v4h-2zm0 8h2v4h-2zm0 8h2v4h-2zm0 8h2v4h-2zm0 8h2v4h-2zm0 8h2v4h-2zm0 8h2v4h-2zm0 8h2v4h-2zm0 8h2v4h-2zm0 8h2v4h-2zm0 8h2v4h-2zm0 8h2v4h-2zm0 8h2v4h-2zm0 8h2v4h-2zm0 8h2v4h-2zm0 8h2v4h-2zm0 8h2v4h-2zm0 8h2v4h-2zm0 8h2v4h-2zm0 8h2v4h-2zm0 8h2v4h-2zm0 8h2v4h-2zm0 8h2v4h-2zm0 8h2v4h-2zm0 8h2v4h-2zm0 8h2v4h-2zm0 8h2v4h-2zm0 8h2v4h-2zm0 8h2v4h-2zm0 8h2v4h-2zm0 8h2v4h-2zm0 8h2v4h-2zm0 8h2v4h-2zm0 8h2v4h-2zm0 8h2v4h-2zm0 8h2v4h-2zm0 8h2v4h-2zm0 8h2v4h-2zm0 8h2v4h-2zm0 8h2v4h-2zm0 8h2v4h-2zm0 8h2v4h-2zm0 8h2v4h-2zm0 8h2v4h-2zm0 8h2v4h-2zm0 8h2v4h-2zm0 8h2v4h-2zm0 8h2v4h-2zm0 8h2v4h-2zm0 8h2v4h-2zm0 8h2v4h-2zm0 8h2v4h-2zm0 8h2v4h-2zm0 8h2v4h-2zm0 8h2v4h-2zm0 8h2v4h-2zm0 8h2v4h-2zm0 8h2v4h-2zm0 8h2v4h-2zm0 8h2v4h-2zm0 8h2v4h-2zm0 8h2v4h-2zm0 8h2v4h-2zm0 8h2v4h-2zm0 8h2v4h-2zm0 8h2v4h-2zm0 8h2v4h-2zm0 8h2v4h-2zm0 8h2v4h-2zm0 8h2v4h-2zm0 8h2v4h-2zm0 8h2v4h-2zm0 8h2v4h-2zm0 8h2v4h-2zm0 8h2v4h-2zm0 8h2v4h-2zm0 8h2v4h-2zm0 8h2v4h-2zm0 8h2v4h-2zm0 8h2v4h-2zm0 8h2v4h-2zm0 8h2v4h-2z"/>
  <path fill="#CFAC01" d="M170 0h32v152h-32zm0 1024h32v152h-32z"/>
  <text x="187" y="148" dy=".5ex" text-anchor="end" font-family="sans-serif" font-size="19.355" fill="#111315" transform="rotate(90 187 148)">
armed brawler
</text>
  <text x="187" y="1028" dy=".5ex" font-family="sans-serif" font-size="19.355" fill="#111315" transform="rotate(90 187 1028)">
armed brawler
</text>
  <path fill="#F1F3F5" d="M170 152h32v2h-32zm0 870h32v2h-32zm32-870h2v4h-2zm0 8h2v4h-2zm0 8h2v4h-2zm0 8h2v4h-2zm0 8h2v4h-2zm0 8h2v4h-2zm0 8h2v4h-2zm0 8h2v4h-2zm0 8h2v4h-2zm0 8h2v4h-2zm0 8h2v4h-2zm0 8h2v4h-2zm0 8h2v4h-2zm0 8h2v4h-2zm0 8h2v4h-2zm0 8h2v4h-2zm0 8h2v4h-2zm0 8h2v4h-2zm0 8h2v4h-2zm0 8h2v4h-2zm0 8h2v4h-2zm0 8h2v4h-2zm0 8h2v4h-2zm0 8h2v4h-2zm0 8h2v4h-2zm0 8h2v4h-2zm0 8h2v4h-2zm0 8h2v4h-2zm0 8h2v4h-2zm0 8h2v4h-2zm0 8h2v4h-2zm0 8h2v4h-2zm0 8h2v4h-2zm0 8h2v4h-2zm0 8h2v4h-2zm0 8h2v4h-2zm0 8h2v4h-2zm0 8h2v4h-2zm0 8h2v4h-2zm0 8h2v4h-2zm0 8h2v4h-2zm0 8h2v4h-2zm0 8h2v4h-2zm0 8h2v4h-2zm0 8h2v4h-2zm0 8h2v4h-2zm0 8h2v4h-2zm0 8h2v4h-2zm0 8h2v4h-2zm0 8h2v4h-2zm0 8h2v4h-2zm0 8h2v4h-2zm0 8h2v4h-2zm0 8h2v4h-2zm0 8h2v4h-2zm0 8h2v4h-2zm0 8h2v4h-2zm0 8h2v4h-2zm0 8h2v4h-2zm0 8h2v4h-2zm0 8h2v4h-2zm0 8h2v4h-2zm0 8h2v4h-2zm0 8h2v4h-2zm0 8h2v4h-2zm0 8h2v4h-2zm0 8h2v4h-2zm0 8h2v4h-2zm0 8h2v4h-2zm0 8h2v4h-2zm0 8h2v4h-2zm0 8h2v4h-2zm0 8h2v4h-2zm0 8h2v4h-2zm0 8h2v4h-2zm0 8h2v4h-2zm0 8h2v4h-2zm0 8h2v4h-2zm0 8h2v4h-2zm0 8h2v4h-2zm0 8h2v4h-2zm0 8h2v4h-2zm0 8h2v4h-2zm0 8h2v4h-2zm0 8h2v4h-2zm0 8h2v4h-2zm0 8h2v4h-2zm0 8h2v4h-2zm0 8h2v4h-2zm0 8h2v4h-2zm0 8h2v4h-2zm0 8h2v4h-2zm0 8h2v4h-2zm0 8h2v4h-2zm0 8h2v4h-2zm0 8h2v4h-2zm0 8h2v4h-2zm0 8h2v4h-2zm0 8h2v4h-2zm0 8h2v4h-2zm0 8h2v4h-2zm0 8h2v4h-2zm0 8h2v4h-2zm0 8h2v4h-2zm0 8h2v4h-2zm0 8h2v4h-2zm0 8h2v4h-2zm0 8h2v4h-2zm0 8h2v4h-2z"/>
  <path fill="#DC9C05" d="M204 0h32v152h-32zm0 1024h32v152h-32z"/>
  <text x="221" y="148" dy=".5ex" text-anchor="end" font-family="sans-serif" font-size="19.355" fill="#111315" transform="rotate(90 221 148)">
swashbuckler
</text>
  <text x="221" y="1028" dy=".5ex" font-family="sans-serif" font-size="19.355" fill="#111315" transform="rotate(90 221 1028)">
swashbuckler
</text>
  <path fill="#F1F3F5" d="M204 152h32v2h-32zm0 870h32v2h-32zm32-870h2v4h-2zm0 8h2v4h-2zm0 8h2v4h-2zm0 8h2v4h-2zm0 8h2v4h-2zm0 8h2v4h-2zm0 8h2v4h-2zm0 8h2v4h-2zm0 8h2v4h-2zm0 8h2v4h-2zm0 8h2v4h-2zm0 8h2v4h-2zm0 8h2v4h-2zm0 8h2v4h-2zm0 8h2v4h-2zm0 8h2v4h-2zm0 8h2v4h-2zm0 8h2v4h-2zm0 8h2v4h-2zm0 8h2v4h-2zm0 8h2v4h-2zm0 8h2v4h-2zm0 8h2v4h-2zm0 8h2v4h-2zm0 8h2v4h-2zm0 8h2v4h-2zm0 8h2v4h-2zm0 8h2v4h-2zm0 8h2v4h-2zm0 8h2v4h-2zm0 8h2v4h-2zm0 8h2v4h-2zm0 8h2v4h-2zm0 8h2v4h-2zm0 8h2v4h-2zm0 8h2v4h-2zm0 8h2v4h-2zm0 8h2v4h-2zm0 8h2v4h-2zm0 8h2v4h-2zm0 8h2v4h-2zm0 8h2v4h-2zm0 8h2v4h-2zm0 8h2v4h-2zm0 8h2v4h-2zm0 8h2v4h-2zm0 8h2v4h-2zm0 8h2v4h-2zm0 8h2v4h-2zm0 8h2v4h-2zm0 8h2v4h-2zm0 8h2v4h-2zm0 8h2v4h-2zm0 8h2v4h-2zm0 8h2v4h-2zm0 8h2v4h-2zm0 8h2v4h-2zm0 8h2v4h-2zm0 8h2v4h-2zm0 8h2v4h-2zm0 8h2v4h-2zm0 8h2v4h-2zm0 8h2v4h-2zm0 8h2v4h-2zm0 8h2v4h-2zm0 8h2v4h-2zm0 8h2v4h-2zm0 8h2v4h-2zm0 8h2v4h-2zm0 8h2v4h-2zm0 8h2v4h-2zm0 8h2v4h-2zm0 8h2v4h-2zm0 8h2v4h-2zm0 8h2v4h-2zm0 8h2v4h-2zm0 8h2v4h-2zm0 8h2v4h-2zm0 8h2v4h-2zm0 8h2v4h-2zm0 8h2v4h-2zm0 8h2v4h-2zm0 8h2v4h-2zm0 8h2v4h-2zm0 8h2v4h-2zm0 8h2v4h-2zm0 8h2v4h-2zm0 8h2v4h-2zm0 8h2v4h-2zm0 8h2v4h-2zm0 8h2v4h-2zm0 8h2v4h-2zm0 8h2v4h-2zm0 8h2v4h-2zm0 8h2v4h-2zm0 8h2v4h-2zm0 8h2v4h-2zm0 8h2v4h-2zm0 8h2v4h-2zm0 8h2v4h-2zm0 8h2v4h-2zm0 8h2v4h-2zm0 8h2v4h-2zm0 8h2v4h-2zm0 8h2v4h-2zm0 8h2v4h-2zm0 8h2v4h-2zm0 8h2v4h-2zm0 8h2v4h-2z"/>
  <path fill="#E78B0B" d="M238 0h32v152h-32zm0 1024h32v152h-32z"/>
  <text x="255" y="148" dy=".5ex" text-anchor="end" font-family="sans-serif" font-size="19.355" fill="#111315" transform="rotate(90 255 148)">
DEX brawler
</text>
  <text x="255" y="1028" dy=".5ex" font-family="sans-serif" font-size="19.355" fill="#111315" transform="rotate(90 255 1028)">
DEX brawler
</text>
  <path fill="#F1F3F5" d="M238 152h32v2h-32zm0 870h32v2h-32zm32-870h2v4h-2zm0 8h2v4h-2zm0 8h2v4h-2zm0 8h2v4h-2zm0 8h2v4h-2zm0 8h2v4h-2zm0 8h2v4h-2zm0 8h2v4h-2zm0 8h2v4h-2zm0 8h2v4h-2zm0 8h2v4h-2zm0 8h2v4h-2zm0 8h2v4h-2zm0 8h2v4h-2zm0 8h2v4h-2zm0 8h2v4h-2zm0 8h2v4h-2zm0 8h2v4h-2zm0 8h2v4h-2zm0 8h2v4h-2zm0 8h2v4h-2zm0 8h2v4h-2zm0 8h2v4h-2zm0 8h2v4h-2zm0 8h2v4h-2zm0 8h2v4h-2zm0 8h2v4h-2zm0 8h2v4h-2zm0 8h2v4h-2zm0 8h2v4h-2zm0 8h2v4h-2zm0 8h2v4h-2zm0 8h2v4h-2zm0 8h2v4h-2zm0 8h2v4h-2zm0 8h2v4h-2zm0 8h2v4h-2zm0 8h2v4h-2zm0 8h2v4h-2zm0 8h2v4h-2zm0 8h2v4h-2zm0 8h2v4h-2zm0 8h2v4h-2zm0 8h2v4h-2zm0 8h2v4h-2zm0 8h2v4h-2zm0 8h2v4h-2zm0 8h2v4h-2zm0 8h2v4h-2zm0 8h2v4h-2zm0 8h2v4h-2zm0 8h2v4h-2zm0 8h2v4h-2zm0 8h2v4h-2zm0 8h2v4h-2zm0 8h2v4h-2zm0 8h2v4h-2zm0 8h2v4h-2zm0 8h2v4h-2zm0 8h2v4h-2zm0 8h2v4h-2zm0 8h2v4h-2zm0 8h2v4h-2zm0 8h2v4h-2zm0 8h2v4h-2zm0 8h2v4h-2zm0 8h2v4h-2zm0 8h2v4h-2zm0 8h2v4h-2zm0 8h2v4h-2zm0 8h2v4h-2zm0 8h2v4h-2zm0 8h2v4h-2zm0 8h2v4h-2zm0 8h2v4h-2zm0 8h2v4h-2zm0 8h2v4h-2zm0 8h2v4h-2zm0 8h2v4h-2zm0 8h2v4h-2zm0 8h2v4h-2zm0 8h2v4h-2zm0 8h2v4h-2zm0 8h2v4h-2zm0 8h2v4h-2zm0 8h2v4h-2zm0 8h2v4h-2zm0 8h2v4h-2zm0 8h2v4h-2zm0 8h2v4h-2zm0 8h2v4h-2zm0 8h2v4h-2zm0 8h2v4h-2zm0 8h2v4h-2zm0 8h2v4h-2zm0 8h2v4h-2zm0 8h2v4h-2zm0 8h2v4h-2zm0 8h2v4h-2zm0 8h2v4h-2zm0 8h2v4h-2zm0 8h2v4h-2zm0 8h2v4h-2zm0 8h2v4h-2zm0 8h2v4h-2zm0 8h2v4h-2zm0 8h2v4h-2zm0 8h2v4h-2zm0 8h2v4h-2z"/>
  <path fill="#F07914" d="M272 0h32v152h-32zm0 1024h32v152h-32z"/>
  <text x="289" y="148" dy=".5ex" text-anchor="end" font-family="sans-serif" font-size="19.355" fill="#111315" transform="rotate(90 289 148)">
DEX warrior
</text>
  <text x="289" y="1028" dy=".5ex" font-family="sans-serif" font-size="19.355" fill="#111315" transform="rotate(90 289 1028)">
DEX warrior
</text>
  <path fill="#F1F3F5" d="M272 152h32v2h-32zm0 870h32v2h-32zm32-870h2v4h-2zm0 8h2v4h-2zm0 8h2v4h-2zm0 8h2v4h-2zm0 8h2v4h-2zm0 8h2v4h-2zm0 8h2v4h-2zm0 8h2v4h-2zm0 8h2v4h-2zm0 8h2v4h-2zm0 8h2v4h-2zm0 8h2v4h-2zm0 8h2v4h-2zm0 8h2v4h-2zm0 8h2v4h-2zm0 8h2v4h-2zm0 8h2v4h-2zm0 8h2v4h-2zm0 8h2v4h-2zm0 8h2v4h-2zm0 8h2v4h-2zm0 8h2v4h-2zm0 8h2v4h-2zm0 8h2v4h-2zm0 8h2v4h-2zm0 8h2v4h-2zm0 8h2v4h-2zm0 8h2v4h-2zm0 8h2v4h-2zm0 8h2v4h-2zm0 8h2v4h-2zm0 8h2v4h-2zm0 8h2v4h-2zm0 8h2v4h-2zm0 8h2v4h-2zm0 8h2v4h-2zm0 8h2v4h-2zm0 8h2v4h-2zm0 8h2v4h-2zm0 8h2v4h-2zm0 8h2v4h-2zm0 8h2v4h-2zm0 8h2v4h-2zm0 8h2v4h-2zm0 8h2v4h-2zm0 8h2v4h-2zm0 8h2v4h-2zm0 8h2v4h-2zm0 8h2v4h-2zm0 8h2v4h-2zm0 8h2v4h-2zm0 8h2v4h-2zm0 8h2v4h-2zm0 8h2v4h-2zm0 8h2v4h-2zm0 8h2v4h-2zm0 8h2v4h-2zm0 8h2v4h-2zm0 8h2v4h-2zm0 8h2v4h-2zm0 8h2v4h-2zm0 8h2v4h-2zm0 8h2v4h-2zm0 8h2v4h-2zm0 8h2v4h-2zm0 8h2v4h-2zm0 8h2v4h-2zm0 8h2v4h-2zm0 8h2v4h-2zm0 8h2v4h-2zm0 8h2v4h-2zm0 8h2v4h-2zm0 8h2v4h-2zm0 8h2v4h-2zm0 8h2v4h-2zm0 8h2v4h-2zm0 8h2v4h-2zm0 8h2v4h-2zm0 8h2v4h-2zm0 8h2v4h-2zm0 8h2v4h-2zm0 8h2v4h-2zm0 8h2v4h-2zm0 8h2v4h-2zm0 8h2v4h-2zm0 8h2v4h-2zm0 8h2v4h-2zm0 8h2v4h-2zm0 8h2v4h-2zm0 8h2v4h-2zm0 8h2v4h-2zm0 8h2v4h-2zm0 8h2v4h-2zm0 8h2v4h-2zm0 8h2v4h-2zm0 8h2v4h-2zm0 8h2v4h-2zm0 8h2v4h-2zm0 8h2v4h-2zm0 8h2v4h-2zm0 8h2v4h-2zm0 8h2v4h-2zm0 8h2v4h-2zm0 8h2v4h-2zm0 8h2v4h-2zm0 8h2v4h-2zm0 8h2v4h-2zm0 8h2v4h-2zm0 8h2v4h-2z"/>
  <path fill="#F7681E" d="M306 0h32v152h-32zm0 1024h32v152h-32z"/>
  <text x="323" y="148" dy=".5ex" text-anchor="end" font-family="sans-serif" font-size="19.355" fill="#111315" transform="rotate(90 323 148)">
LUKginner
</text>
  <text x="323" y="1028" dy=".5ex" font-family="sans-serif" font-size="19.355" fill="#111315" transform="rotate(90 323 1028)">
LUKginner
</text>
  <path fill="#F1F3F5" d="M306 152h32v2h-32zm0 870h32v2h-32zm32-870h2v4h-2zm0 8h2v4h-2zm0 8h2v4h-2zm0 8h2v4h-2zm0 8h2v4h-2zm0 8h2v4h-2zm0 8h2v4h-2zm0 8h2v4h-2zm0 8h2v4h-2zm0 8h2v4h-2zm0 8h2v4h-2zm0 8h2v4h-2zm0 8h2v4h-2zm0 8h2v4h-2zm0 8h2v4h-2zm0 8h2v4h-2zm0 8h2v4h-2zm0 8h2v4h-2zm0 8h2v4h-2zm0 8h2v4h-2zm0 8h2v4h-2zm0 8h2v4h-2zm0 8h2v4h-2zm0 8h2v4h-2zm0 8h2v4h-2zm0 8h2v4h-2zm0 8h2v4h-2zm0 8h2v4h-2zm0 8h2v4h-2zm0 8h2v4h-2zm0 8h2v4h-2zm0 8h2v4h-2zm0 8h2v4h-2zm0 8h2v4h-2zm0 8h2v4h-2zm0 8h2v4h-2zm0 8h2v4h-2zm0 8h2v4h-2zm0 8h2v4h-2zm0 8h2v4h-2zm0 8h2v4h-2zm0 8h2v4h-2zm0 8h2v4h-2zm0 8h2v4h-2zm0 8h2v4h-2zm0 8h2v4h-2zm0 8h2v4h-2zm0 8h2v4h-2zm0 8h2v4h-2zm0 8h2v4h-2zm0 8h2v4h-2zm0 8h2v4h-2zm0 8h2v4h-2zm0 8h2v4h-2zm0 8h2v4h-2zm0 8h2v4h-2zm0 8h2v4h-2zm0 8h2v4h-2zm0 8h2v4h-2zm0 8h2v4h-2zm0 8h2v4h-2zm0 8h2v4h-2zm0 8h2v4h-2zm0 8h2v4h-2zm0 8h2v4h-2zm0 8h2v4h-2zm0 8h2v4h-2zm0 8h2v4h-2zm0 8h2v4h-2zm0 8h2v4h-2zm0 8h2v4h-2zm0 8h2v4h-2zm0 8h2v4h-2zm0 8h2v4h-2zm0 8h2v4h-2zm0 8h2v4h-2zm0 8h2v4h-2zm0 8h2v4h-2zm0 8h2v4h-2zm0 8h2v4h-2zm0 8h2v4h-2zm0 8h2v4h-2zm0 8h2v4h-2zm0 8h2v4h-2zm0 8h2v4h-2zm0 8h2v4h-2zm0 8h2v4h-2zm0 8h2v4h-2zm0 8h2v4h-2zm0 8h2v4h-2zm0 8h2v4h-2zm0 8h2v4h-2zm0 8h2v4h-2zm0 8h2v4h-2zm0 8h2v4h-2zm0 8h2v4h-2zm0 8h2v4h-2zm0 8h2v4h-2zm0 8h2v4h-2zm0 8h2v4h-2zm0 8h2v4h-2zm0 8h2v4h-2zm0 8h2v4h-2zm0 8h2v4h-2zm0 8h2v4h-2zm0 8h2v4h-2zm0 8h2v4h-2zm0 8h2v4h-2zm0 8h2v4h-2z"/>
  <path fill="#FC572A" d="M340 0h32v152h-32zm0 1024h32v152h-32z"/>
  <text x="357" y="148" dy=".5ex" text-anchor="end" font-family="sans-serif" font-size="19.355" fill="#111315" transform="rotate(90 357 148)">
magelet
</text>
  <text x="357" y="1028" dy=".5ex" font-family="sans-serif" font-size="19.355" fill="#111315" transform="rotate(90 357 1028)">
magelet
</text>
  <path fill="#F1F3F5" d="M340 152h32v2h-32zm0 870h32v2h-32zm32-870h2v4h-2zm0 8h2v4h-2zm0 8h2v4h-2zm0 8h2v4h-2zm0 8h2v4h-2zm0 8h2v4h-2zm0 8h2v4h-2zm0 8h2v4h-2zm0 8h2v4h-2zm0 8h2v4h-2zm0 8h2v4h-2zm0 8h2v4h-2zm0 8h2v4h-2zm0 8h2v4h-2zm0 8h2v4h-2zm0 8h2v4h-2zm0 8h2v4h-2zm0 8h2v4h-2zm0 8h2v4h-2zm0 8h2v4h-2zm0 8h2v4h-2zm0 8h2v4h-2zm0 8h2v4h-2zm0 8h2v4h-2zm0 8h2v4h-2zm0 8h2v4h-2zm0 8h2v4h-2zm0 8h2v4h-2zm0 8h2v4h-2zm0 8h2v4h-2zm0 8h2v4h-2zm0 8h2v4h-2zm0 8h2v4h-2zm0 8h2v4h-2zm0 8h2v4h-2zm0 8h2v4h-2zm0 8h2v4h-2zm0 8h2v4h-2zm0 8h2v4h-2zm0 8h2v4h-2zm0 8h2v4h-2zm0 8h2v4h-2zm0 8h2v4h-2zm0 8h2v4h-2zm0 8h2v4h-2zm0 8h2v4h-2zm0 8h2v4h-2zm0 8h2v4h-2zm0 8h2v4h-2zm0 8h2v4h-2zm0 8h2v4h-2zm0 8h2v4h-2zm0 8h2v4h-2zm0 8h2v4h-2zm0 8h2v4h-2zm0 8h2v4h-2zm0 8h2v4h-2zm0 8h2v4h-2zm0 8h2v4h-2zm0 8h2v4h-2zm0 8h2v4h-2zm0 8h2v4h-2zm0 8h2v4h-2zm0 8h2v4h-2zm0 8h2v4h-2zm0 8h2v4h-2zm0 8h2v4h-2zm0 8h2v4h-2zm0 8h2v4h-2zm0 8h2v4h-2zm0 8h2v4h-2zm0 8h2v4h-2zm0 8h2v4h-2zm0 8h2v4h-2zm0 8h2v4h-2zm0 8h2v4h-2zm0 8h2v4h-2zm0 8h2v4h-2zm0 8h2v4h-2zm0 8h2v4h-2zm0 8h2v4h-2zm0 8h2v4h-2zm0 8h2v4h-2zm0 8h2v4h-2zm0 8h2v4h-2zm0 8h2v4h-2zm0 8h2v4h-2zm0 8h2v4h-2zm0 8h2v4h-2zm0 8h2v4h-2zm0 8h2v4h-2zm0 8h2v4h-2zm0 8h2v4h-2zm0 8h2v4h-2zm0 8h2v4h-2zm0 8h2v4h-2zm0 8h2v4h-2zm0 8h2v4h-2zm0 8h2v4h-2zm0 8h2v4h-2zm0 8h2v4h-2zm0 8h2v4h-2zm0 8h2v4h-2zm0 8h2v4h-2zm0 8h2v4h-2zm0 8h2v4h-2zm0 8h2v4h-2zm0 8h2v4h-2zm0 8h2v4h-2z"/>
  <path fill="#FE4738" d="M374 0h32v152h-32zm0 1024h32v152h-32z"/>
  <text x="391" y="148" dy=".5ex" text-anchor="end" font-family="sans-serif" font-size="19.355" fill="#F1F3F5" transform="rotate(90 391 148)">
woods(wo)man
</text>
  <text x="391" y="1028" dy=".5ex" font-family="sans-serif" font-size="19.355" fill="#F1F3F5" transform="rotate(90 391 1028)">
woods(wo)man
</text>
  <path fill="#F1F3F5" d="M374 152h32v2h-32zm0 870h32v2h-32zm32-870h2v4h-2zm0 8h2v4h-2zm0 8h2v4h-2zm0 8h2v4h-2zm0 8h2v4h-2zm0 8h2v4h-2zm0 8h2v4h-2zm0 8h2v4h-2zm0 8h2v4h-2zm0 8h2v4h-2zm0 8h2v4h-2zm0 8h2v4h-2zm0 8h2v4h-2zm0 8h2v4h-2zm0 8h2v4h-2zm0 8h2v4h-2zm0 8h2v4h-2zm0 8h2v4h-2zm0 8h2v4h-2zm0 8h2v4h-2zm0 8h2v4h-2zm0 8h2v4h-2zm0 8h2v4h-2zm0 8h2v4h-2zm0 8h2v4h-2zm0 8h2v4h-2zm0 8h2v4h-2zm0 8h2v4h-2zm0 8h2v4h-2zm0 8h2v4h-2zm0 8h2v4h-2zm0 8h2v4h-2zm0 8h2v4h-2zm0 8h2v4h-2zm0 8h2v4h-2zm0 8h2v4h-2zm0 8h2v4h-2zm0 8h2v4h-2zm0 8h2v4h-2zm0 8h2v4h-2zm0 8h2v4h-2zm0 8h2v4h-2zm0 8h2v4h-2zm0 8h2v4h-2zm0 8h2v4h-2zm0 8h2v4h-2zm0 8h2v4h-2zm0 8h2v4h-2zm0 8h2v4h-2zm0 8h2v4h-2zm0 8h2v4h-2zm0 8h2v4h-2zm0 8h2v4h-2zm0 8h2v4h-2zm0 8h2v4h-2zm0 8h2v4h-2zm0 8h2v4h-2zm0 8h2v4h-2zm0 8h2v4h-2zm0 8h2v4h-2zm0 8h2v4h-2zm0 8h2v4h-2zm0 8h2v4h-2zm0 8h2v4h-2zm0 8h2v4h-2zm0 8h2v4h-2zm0 8h2v4h-2zm0 8h2v4h-2zm0 8h2v4h-2zm0 8h2v4h-2zm0 8h2v4h-2zm0 8h2v4h-2zm0 8h2v4h-2zm0 8h2v4h-2zm0 8h2v4h-2zm0 8h2v4h-2zm0 8h2v4h-2zm0 8h2v4h-2zm0 8h2v4h-2zm0 8h2v4h-2zm0 8h2v4h-2zm0 8h2v4h-2zm0 8h2v4h-2zm0 8h2v4h-2zm0 8h2v4h-2zm0 8h2v4h-2zm0 8h2v4h-2zm0 8h2v4h-2zm0 8h2v4h-2zm0 8h2v4h-2zm0 8h2v4h-2zm0 8h2v4h-2zm0 8h2v4h-2zm0 8h2v4h-2zm0 8h2v4h-2zm0 8h2v4h-2zm0 8h2v4h-2zm0 8h2v4h-2zm0 8h2v4h-2zm0 8h2v4h-2zm0 8h2v4h-2zm0 8h2v4h-2zm0 8h2v4h-2zm0 8h2v4h-2zm0 8h2v4h-2zm0 8h2v4h-2zm0 8h2v4h-2zm0 8h2v4h-2zm0 8h2v4h-2z"/>
  <path fill="#FE3847" d="M408 0h32v152h-32zm0 1024h32v152h-32z"/>
  <text x="425" y="148" dy=".5ex" text-anchor="end" font-family="sans-serif" font-size="19.355" fill="#F1F3F5" transform="rotate(90 425 148)">
gish
</text>
  <text x="425" y="1028" dy=".5ex" font-family="sans-serif" font-size="19.355" fill="#F1F3F5" transform="rotate(90 425 1028)">
gish
</text>
  <path fill="#F1F3F5" d="M408 152h32v2h-32zm0 870h32v2h-32zm32-870h2v4h-2zm0 8h2v4h-2zm0 8h2v4h-2zm0 8h2v4h-2zm0 8h2v4h-2zm0 8h2v4h-2zm0 8h2v4h-2zm0 8h2v4h-2zm0 8h2v4h-2zm0 8h2v4h-2zm0 8h2v4h-2zm0 8h2v4h-2zm0 8h2v4h-2zm0 8h2v4h-2zm0 8h2v4h-2zm0 8h2v4h-2zm0 8h2v4h-2zm0 8h2v4h-2zm0 8h2v4h-2zm0 8h2v4h-2zm0 8h2v4h-2zm0 8h2v4h-2zm0 8h2v4h-2zm0 8h2v4h-2zm0 8h2v4h-2zm0 8h2v4h-2zm0 8h2v4h-2zm0 8h2v4h-2zm0 8h2v4h-2zm0 8h2v4h-2zm0 8h2v4h-2zm0 8h2v4h-2zm0 8h2v4h-2zm0 8h2v4h-2zm0 8h2v4h-2zm0 8h2v4h-2zm0 8h2v4h-2zm0 8h2v4h-2zm0 8h2v4h-2zm0 8h2v4h-2zm0 8h2v4h-2zm0 8h2v4h-2zm0 8h2v4h-2zm0 8h2v4h-2zm0 8h2v4h-2zm0 8h2v4h-2zm0 8h2v4h-2zm0 8h2v4h-2zm0 8h2v4h-2zm0 8h2v4h-2zm0 8h2v4h-2zm0 8h2v4h-2zm0 8h2v4h-2zm0 8h2v4h-2zm0 8h2v4h-2zm0 8h2v4h-2zm0 8h2v4h-2zm0 8h2v4h-2zm0 8h2v4h-2zm0 8h2v4h-2zm0 8h2v4h-2zm0 8h2v4h-2zm0 8h2v4h-2zm0 8h2v4h-2zm0 8h2v4h-2zm0 8h2v4h-2zm0 8h2v4h-2zm0 8h2v4h-2zm0 8h2v4h-2zm0 8h2v4h-2zm0 8h2v4h-2zm0 8h2v4h-2zm0 8h2v4h-2zm0 8h2v4h-2zm0 8h2v4h-2zm0 8h2v4h-2zm0 8h2v4h-2zm0 8h2v4h-2zm0 8h2v4h-2zm0 8h2v4h-2zm0 8h2v4h-2zm0 8h2v4h-2zm0 8h2v4h-2zm0 8h2v4h-2zm0 8h2v4h-2zm0 8h2v4h-2zm0 8h2v4h-2zm0 8h2v4h-2zm0 8h2v4h-2zm0 8h2v4h-2zm0 8h2v4h-2zm0 8h2v4h-2zm0 8h2v4h-2zm0 8h2v4h-2zm0 8h2v4h-2zm0 8h2v4h-2zm0 8h2v4h-2zm0 8h2v4h-2zm0 8h2v4h-2zm0 8h2v4h-2zm0 8h2v4h-2zm0 8h2v4h-2zm0 8h2v4h-2zm0 8h2v4h-2zm0 8h2v4h-2zm0 8h2v4h-2zm0 8h2v4h-2zm0 8h2v4h-2zm0 8h2v4h-2z"/>
  <path fill="#FC2A57" d="M442 0h32v152h-32zm0 1024h32v152h-32z"/>
  <text x="459" y="148" dy=".5ex" text-anchor="end" font-family="sans-serif" font-size="19.355" fill="#F1F3F5" transform="rotate(90 459 148)">
gishlet
</text>
  <text x="459" y="1028" dy=".5ex" font-family="sans-serif" font-size="19.355" fill="#F1F3F5" transform="rotate(90 459 1028)">
gishlet
</text>
  <path fill="#F1F3F5" d="M442 152h32v2h-32zm0 870h32v2h-32zm32-870h2v4h-2zm0 8h2v4h-2zm0 8h2v4h-2zm0 8h2v4h-2zm0 8h2v4h-2zm0 8h2v4h-2zm0 8h2v4h-2zm0 8h2v4h-2zm0 8h2v4h-2zm0 8h2v4h-2zm0 8h2v4h-2zm0 8h2v4h-2zm0 8h2v4h-2zm0 8h2v4h-2zm0 8h2v4h-2zm0 8h2v4h-2zm0 8h2v4h-2zm0 8h2v4h-2zm0 8h2v4h-2zm0 8h2v4h-2zm0 8h2v4h-2zm0 8h2v4h-2zm0 8h2v4h-2zm0 8h2v4h-2zm0 8h2v4h-2zm0 8h2v4h-2zm0 8h2v4h-2zm0 8h2v4h-2zm0 8h2v4h-2zm0 8h2v4h-2zm0 8h2v4h-2zm0 8h2v4h-2zm0 8h2v4h-2zm0 8h2v4h-2zm0 8h2v4h-2zm0 8h2v4h-2zm0 8h2v4h-2zm0 8h2v4h-2zm0 8h2v4h-2zm0 8h2v4h-2zm0 8h2v4h-2zm0 8h2v4h-2zm0 8h2v4h-2zm0 8h2v4h-2zm0 8h2v4h-2zm0 8h2v4h-2zm0 8h2v4h-2zm0 8h2v4h-2zm0 8h2v4h-2zm0 8h2v4h-2zm0 8h2v4h-2zm0 8h2v4h-2zm0 8h2v4h-2zm0 8h2v4h-2zm0 8h2v4h-2zm0 8h2v4h-2zm0 8h2v4h-2zm0 8h2v4h-2zm0 8h2v4h-2zm0 8h2v4h-2zm0 8h2v4h-2zm0 8h2v4h-2zm0 8h2v4h-2zm0 8h2v4h-2zm0 8h2v4h-2zm0 8h2v4h-2zm0 8h2v4h-2zm0 8h2v4h-2zm0 8h2v4h-2zm0 8h2v4h-2zm0 8h2v4h-2zm0 8h2v4h-2zm0 8h2v4h-2zm0 8h2v4h-2zm0 8h2v4h-2zm0 8h2v4h-2zm0 8h2v4h-2zm0 8h2v4h-2zm0 8h2v4h-2zm0 8h2v4h-2zm0 8h2v4h-2zm0 8h2v4h-2zm0 8h2v4h-2zm0 8h2v4h-2zm0 8h2v4h-2zm0 8h2v4h-2zm0 8h2v4h-2zm0 8h2v4h-2zm0 8h2v4h-2zm0 8h2v4h-2zm0 8h2v4h-2zm0 8h2v4h-2zm0 8h2v4h-2zm0 8h2v4h-2zm0 8h2v4h-2zm0 8h2v4h-2zm0 8h2v4h-2zm0 8h2v4h-2zm0 8h2v4h-2zm0 8h2v4h-2zm0 8h2v4h-2zm0 8h2v4h-2zm0 8h2v4h-2zm0 8h2v4h-2zm0 8h2v4h-2zm0 8h2v4h-2zm0 8h2v4h-2zm0 8h2v4h-2zm0 8h2v4h-2z"/>
  <path fill="#F71E68" d="M476 0h32v152h-32zm0 1024h32v152h-32z"/>
  <text x="493" y="148" dy=".5ex" text-anchor="end" font-family="sans-serif" font-size="19.355" fill="#F1F3F5" transform="rotate(90 493 148)">
LUK bucc
</text>
  <text x="493" y="1028" dy=".5ex" font-family="sans-serif" font-size="19.355" fill="#F1F3F5" transform="rotate(90 493 1028)">
LUK bucc
</text>
  <path fill="#F1F3F5" d="M476 152h32v2h-32zm0 870h32v2h-32zm32-870h2v4h-2zm0 8h2v4h-2zm0 8h2v4h-2zm0 8h2v4h-2zm0 8h2v4h-2zm0 8h2v4h-2zm0 8h2v4h-2zm0 8h2v4h-2zm0 8h2v4h-2zm0 8h2v4h-2zm0 8h2v4h-2zm0 8h2v4h-2zm0 8h2v4h-2zm0 8h2v4h-2zm0 8h2v4h-2zm0 8h2v4h-2zm0 8h2v4h-2zm0 8h2v4h-2zm0 8h2v4h-2zm0 8h2v4h-2zm0 8h2v4h-2zm0 8h2v4h-2zm0 8h2v4h-2zm0 8h2v4h-2zm0 8h2v4h-2zm0 8h2v4h-2zm0 8h2v4h-2zm0 8h2v4h-2zm0 8h2v4h-2zm0 8h2v4h-2zm0 8h2v4h-2zm0 8h2v4h-2zm0 8h2v4h-2zm0 8h2v4h-2zm0 8h2v4h-2zm0 8h2v4h-2zm0 8h2v4h-2zm0 8h2v4h-2zm0 8h2v4h-2zm0 8h2v4h-2zm0 8h2v4h-2zm0 8h2v4h-2zm0 8h2v4h-2zm0 8h2v4h-2zm0 8h2v4h-2zm0 8h2v4h-2zm0 8h2v4h-2zm0 8h2v4h-2zm0 8h2v4h-2zm0 8h2v4h-2zm0 8h2v4h-2zm0 8h2v4h-2zm0 8h2v4h-2zm0 8h2v4h-2zm0 8h2v4h-2zm0 8h2v4h-2zm0 8h2v4h-2zm0 8h2v4h-2zm0 8h2v4h-2zm0 8h2v4h-2zm0 8h2v4h-2zm0 8h2v4h-2zm0 8h2v4h-2zm0 8h2v4h-2zm0 8h2v4h-2zm0 8h2v4h-2zm0 8h2v4h-2zm0 8h2v4h-2zm0 8h2v4h-2zm0 8h2v4h-2zm0 8h2v4h-2zm0 8h2v4h-2zm0 8h2v4h-2zm0 8h2v4h-2zm0 8h2v4h-2zm0 8h2v4h-2zm0 8h2v4h-2zm0 8h2v4h-2zm0 8h2v4h-2zm0 8h2v4h-2zm0 8h2v4h-2zm0 8h2v4h-2zm0 8h2v4h-2zm0 8h2v4h-2zm0 8h2v4h-2zm0 8h2v4h-2zm0 8h2v4h-2zm0 8h2v4h-2zm0 8h2v4h-2zm0 8h2v4h-2zm0 8h2v4h-2zm0 8h2v4h-2zm0 8h2v4h-2zm0 8h2v4h-2zm0 8h2v4h-2zm0 8h2v4h-2zm0 8h2v4h-2zm0 8h2v4h-2zm0 8h2v4h-2zm0 8h2v4h-2zm0 8h2v4h-2zm0 8h2v4h-2zm0 8h2v4h-2zm0 8h2v4h-2zm0 8h2v4h-2zm0 8h2v4h-2zm0 8h2v4h-2zm0 8h2v4h-2zm0 8h2v4h-2z"/>
  <path fill="#F01479" d="M510 0h32v152h-32zm0 1024h32v152h-32z"/>
  <text x="527" y="148" dy=".5ex" text-anchor="end" font-family="sans-serif" font-size="19.355" fill="#F1F3F5" transform="rotate(90 527 148)">
LUK warrior
</text>
  <text x="527" y="1028" dy=".5ex" font-family="sans-serif" font-size="19.355" fill="#F1F3F5" transform="rotate(90 527 1028)">
LUK warrior
</text>
  <path fill="#F1F3F5" d="M510 152h32v2h-32zm0 870h32v2h-32zm32-870h2v4h-2zm0 8h2v4h-2zm0 8h2v4h-2zm0 8h2v4h-2zm0 8h2v4h-2zm0 8h2v4h-2zm0 8h2v4h-2zm0 8h2v4h-2zm0 8h2v4h-2zm0 8h2v4h-2zm0 8h2v4h-2zm0 8h2v4h-2zm0 8h2v4h-2zm0 8h2v4h-2zm0 8h2v4h-2zm0 8h2v4h-2zm0 8h2v4h-2zm0 8h2v4h-2zm0 8h2v4h-2zm0 8h2v4h-2zm0 8h2v4h-2zm0 8h2v4h-2zm0 8h2v4h-2zm0 8h2v4h-2zm0 8h2v4h-2zm0 8h2v4h-2zm0 8h2v4h-2zm0 8h2v4h-2zm0 8h2v4h-2zm0 8h2v4h-2zm0 8h2v4h-2zm0 8h2v4h-2zm0 8h2v4h-2zm0 8h2v4h-2zm0 8h2v4h-2zm0 8h2v4h-2zm0 8h2v4h-2zm0 8h2v4h-2zm0 8h2v4h-2zm0 8h2v4h-2zm0 8h2v4h-2zm0 8h2v4h-2zm0 8h2v4h-2zm0 8h2v4h-2zm0 8h2v4h-2zm0 8h2v4h-2zm0 8h2v4h-2zm0 8h2v4h-2zm0 8h2v4h-2zm0 8h2v4h-2zm0 8h2v4h-2zm0 8h2v4h-2zm0 8h2v4h-2zm0 8h2v4h-2zm0 8h2v4h-2zm0 8h2v4h-2zm0 8h2v4h-2zm0 8h2v4h-2zm0 8h2v4h-2zm0 8h2v4h-2zm0 8h2v4h-2zm0 8h2v4h-2zm0 8h2v4h-2zm0 8h2v4h-2zm0 8h2v4h-2zm0 8h2v4h-2zm0 8h2v4h-2zm0 8h2v4h-2zm0 8h2v4h-2zm0 8h2v4h-2zm0 8h2v4h-2zm0 8h2v4h-2zm0 8h2v4h-2zm0 8h2v4h-2zm0 8h2v4h-2zm0 8h2v4h-2zm0 8h2v4h-2zm0 8h2v4h-2zm0 8h2v4h-2zm0 8h2v4h-2zm0 8h2v4h-2zm0 8h2v4h-2zm0 8h2v4h-2zm0 8h2v4h-2zm0 8h2v4h-2zm0 8h2v4h-2zm0 8h2v4h-2zm0 8h2v4h-2zm0 8h2v4h-2zm0 8h2v4h-2zm0 8h2v4h-2zm0 8h2v4h-2zm0 8h2v4h-2zm0 8h2v4h-2zm0 8h2v4h-2zm0 8h2v4h-2zm0 8h2v4h-2zm0 8h2v4h-2zm0 8h2v4h-2zm0 8h2v4h-2zm0 8h2v4h-2zm0 8h2v4h-2zm0 8h2v4h-2zm0 8h2v4h-2zm0 8h2v4h-2zm0 8h2v4h-2zm0 8h2v4h-2zm0 8h2v4h-2zm0 8h2v4h-2z"/>
  <path fill="#E70B8B" d="M544 0h32v152h-32zm0 1024h32v152h-32z"/>
  <text x="561" y="148" dy=".5ex" text-anchor="end" font-family="sans-serif" font-size="19.355" fill="#F1F3F5" transform="rotate(90 561 148)">
LUKlander
</text>
  <text x="561" y="1028" dy=".5ex" font-family="sans-serif" font-size="19.355" fill="#F1F3F5" transform="rotate(90 561 1028)">
LUKlander
</text>
  <path fill="#F1F3F5" d="M544 152h32v2h-32zm0 870h32v2h-32zm32-870h2v4h-2zm0 8h2v4h-2zm0 8h2v4h-2zm0 8h2v4h-2zm0 8h2v4h-2zm0 8h2v4h-2zm0 8h2v4h-2zm0 8h2v4h-2zm0 8h2v4h-2zm0 8h2v4h-2zm0 8h2v4h-2zm0 8h2v4h-2zm0 8h2v4h-2zm0 8h2v4h-2zm0 8h2v4h-2zm0 8h2v4h-2zm0 8h2v4h-2zm0 8h2v4h-2zm0 8h2v4h-2zm0 8h2v4h-2zm0 8h2v4h-2zm0 8h2v4h-2zm0 8h2v4h-2zm0 8h2v4h-2zm0 8h2v4h-2zm0 8h2v4h-2zm0 8h2v4h-2zm0 8h2v4h-2zm0 8h2v4h-2zm0 8h2v4h-2zm0 8h2v4h-2zm0 8h2v4h-2zm0 8h2v4h-2zm0 8h2v4h-2zm0 8h2v4h-2zm0 8h2v4h-2zm0 8h2v4h-2zm0 8h2v4h-2zm0 8h2v4h-2zm0 8h2v4h-2zm0 8h2v4h-2zm0 8h2v4h-2zm0 8h2v4h-2zm0 8h2v4h-2zm0 8h2v4h-2zm0 8h2v4h-2zm0 8h2v4h-2zm0 8h2v4h-2zm0 8h2v4h-2zm0 8h2v4h-2zm0 8h2v4h-2zm0 8h2v4h-2zm0 8h2v4h-2zm0 8h2v4h-2zm0 8h2v4h-2zm0 8h2v4h-2zm0 8h2v4h-2zm0 8h2v4h-2zm0 8h2v4h-2zm0 8h2v4h-2zm0 8h2v4h-2zm0 8h2v4h-2zm0 8h2v4h-2zm0 8h2v4h-2zm0 8h2v4h-2zm0 8h2v4h-2zm0 8h2v4h-2zm0 8h2v4h-2zm0 8h2v4h-2zm0 8h2v4h-2zm0 8h2v4h-2zm0 8h2v4h-2zm0 8h2v4h-2zm0 8h2v4h-2zm0 8h2v4h-2zm0 8h2v4h-2zm0 8h2v4h-2zm0 8h2v4h-2zm0 8h2v4h-2zm0 8h2v4h-2zm0 8h2v4h-2zm0 8h2v4h-2zm0 8h2v4h-2zm0 8h2v4h-2zm0 8h2v4h-2zm0 8h2v4h-2zm0 8h2v4h-2zm0 8h2v4h-2zm0 8h2v4h-2zm0 8h2v4h-2zm0 8h2v4h-2zm0 8h2v4h-2zm0 8h2v4h-2zm0 8h2v4h-2zm0 8h2v4h-2zm0 8h2v4h-2zm0 8h2v4h-2zm0 8h2v4h-2zm0 8h2v4h-2zm0 8h2v4h-2zm0 8h2v4h-2zm0 8h2v4h-2zm0 8h2v4h-2zm0 8h2v4h-2zm0 8h2v4h-2zm0 8h2v4h-2zm0 8h2v4h-2zm0 8h2v4h-2zm0 8h2v4h-2z"/>
  <path fill="#DC059C" d="M578 0h32v152h-32zm0 1024h32v152h-32z"/>
  <text x="595" y="148" dy=".5ex" text-anchor="end" font-family="sans-serif" font-size="19.355" fill="#F1F3F5" transform="rotate(90 595 148)">
hybridlander
</text>
  <text x="595" y="1028" dy=".5ex" font-family="sans-serif" font-size="19.355" fill="#F1F3F5" transform="rotate(90 595 1028)">
hybridlander
</text>
  <path fill="#F1F3F5" d="M578 152h32v2h-32zm0 870h32v2h-32zm32-870h2v4h-2zm0 8h2v4h-2zm0 8h2v4h-2zm0 8h2v4h-2zm0 8h2v4h-2zm0 8h2v4h-2zm0 8h2v4h-2zm0 8h2v4h-2zm0 8h2v4h-2zm0 8h2v4h-2zm0 8h2v4h-2zm0 8h2v4h-2zm0 8h2v4h-2zm0 8h2v4h-2zm0 8h2v4h-2zm0 8h2v4h-2zm0 8h2v4h-2zm0 8h2v4h-2zm0 8h2v4h-2zm0 8h2v4h-2zm0 8h2v4h-2zm0 8h2v4h-2zm0 8h2v4h-2zm0 8h2v4h-2zm0 8h2v4h-2zm0 8h2v4h-2zm0 8h2v4h-2zm0 8h2v4h-2zm0 8h2v4h-2zm0 8h2v4h-2zm0 8h2v4h-2zm0 8h2v4h-2zm0 8h2v4h-2zm0 8h2v4h-2zm0 8h2v4h-2zm0 8h2v4h-2zm0 8h2v4h-2zm0 8h2v4h-2zm0 8h2v4h-2zm0 8h2v4h-2zm0 8h2v4h-2zm0 8h2v4h-2zm0 8h2v4h-2zm0 8h2v4h-2zm0 8h2v4h-2zm0 8h2v4h-2zm0 8h2v4h-2zm0 8h2v4h-2zm0 8h2v4h-2zm0 8h2v4h-2zm0 8h2v4h-2zm0 8h2v4h-2zm0 8h2v4h-2zm0 8h2v4h-2zm0 8h2v4h-2zm0 8h2v4h-2zm0 8h2v4h-2zm0 8h2v4h-2zm0 8h2v4h-2zm0 8h2v4h-2zm0 8h2v4h-2zm0 8h2v4h-2zm0 8h2v4h-2zm0 8h2v4h-2zm0 8h2v4h-2zm0 8h2v4h-2zm0 8h2v4h-2zm0 8h2v4h-2zm0 8h2v4h-2zm0 8h2v4h-2zm0 8h2v4h-2zm0 8h2v4h-2zm0 8h2v4h-2zm0 8h2v4h-2zm0 8h2v4h-2zm0 8h2v4h-2zm0 8h2v4h-2zm0 8h2v4h-2zm0 8h2v4h-2zm0 8h2v4h-2zm0 8h2v4h-2zm0 8h2v4h-2zm0 8h2v4h-2zm0 8h2v4h-2zm0 8h2v4h-2zm0 8h2v4h-2zm0 8h2v4h-2zm0 8h2v4h-2zm0 8h2v4h-2zm0 8h2v4h-2zm0 8h2v4h-2zm0 8h2v4h-2zm0 8h2v4h-2zm0 8h2v4h-2zm0 8h2v4h-2zm0 8h2v4h-2zm0 8h2v4h-2zm0 8h2v4h-2zm0 8h2v4h-2zm0 8h2v4h-2zm0 8h2v4h-2zm0 8h2v4h-2zm0 8h2v4h-2zm0 8h2v4h-2zm0 8h2v4h-2zm0 8h2v4h-2zm0 8h2v4h-2zm0 8h2v4h-2zm0 8h2v4h-2z"/>
  <path fill="#CF01AC" d="M612 0h32v152h-32zm0 1024h32v152h-32z"/>
  <text x="629" y="148" dy=".5ex" text-anchor="end" font-family="sans-serif" font-size="19.355" fill="#F1F3F5" transform="rotate(90 629 148)">
LUKless dit
</text>
  <text x="629" y="1028" dy=".5ex" font-family="sans-serif" font-size="19.355" fill="#F1F3F5" transform="rotate(90 629 1028)">
LUKless dit
</text>
  <path fill="#F1F3F5" d="M612 152h32v2h-32zm0 870h32v2h-32zm32-870h2v4h-2zm0 8h2v4h-2zm0 8h2v4h-2zm0 8h2v4h-2zm0 8h2v4h-2zm0 8h2v4h-2zm0 8h2v4h-2zm0 8h2v4h-2zm0 8h2v4h-2zm0 8h2v4h-2zm0 8h2v4h-2zm0 8h2v4h-2zm0 8h2v4h-2zm0 8h2v4h-2zm0 8h2v4h-2zm0 8h2v4h-2zm0 8h2v4h-2zm0 8h2v4h-2zm0 8h2v4h-2zm0 8h2v4h-2zm0 8h2v4h-2zm0 8h2v4h-2zm0 8h2v4h-2zm0 8h2v4h-2zm0 8h2v4h-2zm0 8h2v4h-2zm0 8h2v4h-2zm0 8h2v4h-2zm0 8h2v4h-2zm0 8h2v4h-2zm0 8h2v4h-2zm0 8h2v4h-2zm0 8h2v4h-2zm0 8h2v4h-2zm0 8h2v4h-2zm0 8h2v4h-2zm0 8h2v4h-2zm0 8h2v4h-2zm0 8h2v4h-2zm0 8h2v4h-2zm0 8h2v4h-2zm0 8h2v4h-2zm0 8h2v4h-2zm0 8h2v4h-2zm0 8h2v4h-2zm0 8h2v4h-2zm0 8h2v4h-2zm0 8h2v4h-2zm0 8h2v4h-2zm0 8h2v4h-2zm0 8h2v4h-2zm0 8h2v4h-2zm0 8h2v4h-2zm0 8h2v4h-2zm0 8h2v4h-2zm0 8h2v4h-2zm0 8h2v4h-2zm0 8h2v4h-2zm0 8h2v4h-2zm0 8h2v4h-2zm0 8h2v4h-2zm0 8h2v4h-2zm0 8h2v4h-2zm0 8h2v4h-2zm0 8h2v4h-2zm0 8h2v4h-2zm0 8h2v4h-2zm0 8h2v4h-2zm0 8h2v4h-2zm0 8h2v4h-2zm0 8h2v4h-2zm0 8h2v4h-2zm0 8h2v4h-2zm0 8h2v4h-2zm0 8h2v4h-2zm0 8h2v4h-2zm0 8h2v4h-2zm0 8h2v4h-2zm0 8h2v4h-2zm0 8h2v4h-2zm0 8h2v4h-2zm0 8h2v4h-2zm0 8h2v4h-2zm0 8h2v4h-2zm0 8h2v4h-2zm0 8h2v4h-2zm0 8h2v4h-2zm0 8h2v4h-2zm0 8h2v4h-2zm0 8h2v4h-2zm0 8h2v4h-2zm0 8h2v4h-2zm0 8h2v4h-2zm0 8h2v4h-2zm0 8h2v4h-2zm0 8h2v4h-2zm0 8h2v4h-2zm0 8h2v4h-2zm0 8h2v4h-2zm0 8h2v4h-2zm0 8h2v4h-2zm0 8h2v4h-2zm0 8h2v4h-2zm0 8h2v4h-2zm0 8h2v4h-2zm0 8h2v4h-2zm0 8h2v4h-2zm0 8h2v4h-2zm0 8h2v4h-2z"/>
  <path fill="#C100BC" d="M646 0h32v152h-32zm0 1024h32v152h-32z"/>
  <text x="663" y="148" dy=".5ex" text-anchor="end" font-family="sans-serif" font-size="19.355" fill="#F1F3F5" transform="rotate(90 663 148)">
brigand
</text>
  <text x="663" y="1028" dy=".5ex" font-family="sans-serif" font-size="19.355" fill="#F1F3F5" transform="rotate(90 663 1028)">
brigand
</text>
  <path fill="#F1F3F5" d="M646 152h32v2h-32zm0 870h32v2h-32zm32-870h2v4h-2zm0 8h2v4h-2zm0 8h2v4h-2zm0 8h2v4h-2zm0 8h2v4h-2zm0 8h2v4h-2zm0 8h2v4h-2zm0 8h2v4h-2zm0 8h2v4h-2zm0 8h2v4h-2zm0 8h2v4h-2zm0 8h2v4h-2zm0 8h2v4h-2zm0 8h2v4h-2zm0 8h2v4h-2zm0 8h2v4h-2zm0 8h2v4h-2zm0 8h2v4h-2zm0 8h2v4h-2zm0 8h2v4h-2zm0 8h2v4h-2zm0 8h2v4h-2zm0 8h2v4h-2zm0 8h2v4h-2zm0 8h2v4h-2zm0 8h2v4h-2zm0 8h2v4h-2zm0 8h2v4h-2zm0 8h2v4h-2zm0 8h2v4h-2zm0 8h2v4h-2zm0 8h2v4h-2zm0 8h2v4h-2zm0 8h2v4h-2zm0 8h2v4h-2zm0 8h2v4h-2zm0 8h2v4h-2zm0 8h2v4h-2zm0 8h2v4h-2zm0 8h2v4h-2zm0 8h2v4h-2zm0 8h2v4h-2zm0 8h2v4h-2zm0 8h2v4h-2zm0 8h2v4h-2zm0 8h2v4h-2zm0 8h2v4h-2zm0 8h2v4h-2zm0 8h2v4h-2zm0 8h2v4h-2zm0 8h2v4h-2zm0 8h2v4h-2zm0 8h2v4h-2zm0 8h2v4h-2zm0 8h2v4h-2zm0 8h2v4h-2zm0 8h2v4h-2zm0 8h2v4h-2zm0 8h2v4h-2zm0 8h2v4h-2zm0 8h2v4h-2zm0 8h2v4h-2zm0 8h2v4h-2zm0 8h2v4h-2zm0 8h2v4h-2zm0 8h2v4h-2zm0 8h2v4h-2zm0 8h2v4h-2zm0 8h2v4h-2zm0 8h2v4h-2zm0 8h2v4h-2zm0 8h2v4h-2zm0 8h2v4h-2zm0 8h2v4h-2zm0 8h2v4h-2zm0 8h2v4h-2zm0 8h2v4h-2zm0 8h2v4h-2zm0 8h2v4h-2zm0 8h2v4h-2zm0 8h2v4h-2zm0 8h2v4h-2zm0 8h2v4h-2zm0 8h2v4h-2zm0 8h2v4h-2zm0 8h2v4h-2zm0 8h2v4h-2zm0 8h2v4h-2zm0 8h2v4h-2zm0 8h2v4h-2zm0 8h2v4h-2zm0 8h2v4h-2zm0 8h2v4h-2zm0 8h2v4h-2zm0 8h2v4h-2zm0 8h2v4h-2zm0 8h2v4h-2zm0 8h2v4h-2zm0 8h2v4h-2zm0 8h2v4h-2zm0 8h2v4h-2zm0 8h2v4h-2zm0 8h2v4h-2zm0 8h2v4h-2zm0 8h2v4h-2zm0 8h2v4h-2zm0 8h2v4h-2zm0 8h2v4h-2zm0 8h2v4h-2z"/>
  <path fill="#B200CB" d="M680 0h32v152h-32zm0 1024h32v152h-32z"/>
  <text x="697" y="148" dy=".5ex" text-anchor="end" font-family="sans-serif" font-size="19.355" fill="#F1F3F5" transform="rotate(90 697 148)">
begunner
</text>
  <text x="697" y="1028" dy=".5ex" font-family="sans-serif" font-size="19.355" fill="#F1F3F5" transform="rotate(90 697 1028)">
begunner
</text>
  <path fill="#F1F3F5" d="M680 152h32v2h-32zm0 870h32v2h-32zm32-870h2v4h-2zm0 8h2v4h-2zm0 8h2v4h-2zm0 8h2v4h-2zm0 8h2v4h-2zm0 8h2v4h-2zm0 8h2v4h-2zm0 8h2v4h-2zm0 8h2v4h-2zm0 8h2v4h-2zm0 8h2v4h-2zm0 8h2v4h-2zm0 8h2v4h-2zm0 8h2v4h-2zm0 8h2v4h-2zm0 8h2v4h-2zm0 8h2v4h-2zm0 8h2v4h-2zm0 8h2v4h-2zm0 8h2v4h-2zm0 8h2v4h-2zm0 8h2v4h-2zm0 8h2v4h-2zm0 8h2v4h-2zm0 8h2v4h-2zm0 8h2v4h-2zm0 8h2v4h-2zm0 8h2v4h-2zm0 8h2v4h-2zm0 8h2v4h-2zm0 8h2v4h-2zm0 8h2v4h-2zm0 8h2v4h-2zm0 8h2v4h-2zm0 8h2v4h-2zm0 8h2v4h-2zm0 8h2v4h-2zm0 8h2v4h-2zm0 8h2v4h-2zm0 8h2v4h-2zm0 8h2v4h-2zm0 8h2v4h-2zm0 8h2v4h-2zm0 8h2v4h-2zm0 8h2v4h-2zm0 8h2v4h-2zm0 8h2v4h-2zm0 8h2v4h-2zm0 8h2v4h-2zm0 8h2v4h-2zm0 8h2v4h-2zm0 8h2v4h-2zm0 8h2v4h-2zm0 8h2v4h-2zm0 8h2v4h-2zm0 8h2v4h-2zm0 8h2v4h-2zm0 8h2v4h-2zm0 8h2v4h-2zm0 8h2v4h-2zm0 8h2v4h-2zm0 8h2v4h-2zm0 8h2v4h-2zm0 8h2v4h-2zm0 8h2v4h-2zm0 8h2v4h-2zm0 8h2v4h-2zm0 8h2v4h-2zm0 8h2v4h-2zm0 8h2v4h-2zm0 8h2v4h-2zm0 8h2v4h-2zm0 8h2v4h-2zm0 8h2v4h-2zm0 8h2v4h-2zm0 8h2v4h-2zm0 8h2v4h-2zm0 8h2v4h-2zm0 8h2v4h-2zm0 8h2v4h-2zm0 8h2v4h-2zm0 8h2v4h-2zm0 8h2v4h-2zm0 8h2v4h-2zm0 8h2v4h-2zm0 8h2v4h-2zm0 8h2v4h-2zm0 8h2v4h-2zm0 8h2v4h-2zm0 8h2v4h-2zm0 8h2v4h-2zm0 8h2v4h-2zm0 8h2v4h-2zm0 8h2v4h-2zm0 8h2v4h-2zm0 8h2v4h-2zm0 8h2v4h-2zm0 8h2v4h-2zm0 8h2v4h-2zm0 8h2v4h-2zm0 8h2v4h-2zm0 8h2v4h-2zm0 8h2v4h-2zm0 8h2v4h-2zm0 8h2v4h-2zm0 8h2v4h-2zm0 8h2v4h-2zm0 8h2v4h-2zm0 8h2v4h-2z"/>
  <path fill="#A103D8" d="M714 0h32v152h-32zm0 1024h32v152h-32z"/>
  <text x="731" y="148" dy=".5ex" text-anchor="end" font-family="sans-serif" font-size="19.355" fill="#F1F3F5" transform="rotate(90 731 148)">
clawginner
</text>
  <text x="731" y="1028" dy=".5ex" font-family="sans-serif" font-size="19.355" fill="#F1F3F5" transform="rotate(90 731 1028)">
clawginner
</text>
  <path fill="#F1F3F5" d="M714 152h32v2h-32zm0 870h32v2h-32zm32-870h2v4h-2zm0 8h2v4h-2zm0 8h2v4h-2zm0 8h2v4h-2zm0 8h2v4h-2zm0 8h2v4h-2zm0 8h2v4h-2zm0 8h2v4h-2zm0 8h2v4h-2zm0 8h2v4h-2zm0 8h2v4h-2zm0 8h2v4h-2zm0 8h2v4h-2zm0 8h2v4h-2zm0 8h2v4h-2zm0 8h2v4h-2zm0 8h2v4h-2zm0 8h2v4h-2zm0 8h2v4h-2zm0 8h2v4h-2zm0 8h2v4h-2zm0 8h2v4h-2zm0 8h2v4h-2zm0 8h2v4h-2zm0 8h2v4h-2zm0 8h2v4h-2zm0 8h2v4h-2zm0 8h2v4h-2zm0 8h2v4h-2zm0 8h2v4h-2zm0 8h2v4h-2zm0 8h2v4h-2zm0 8h2v4h-2zm0 8h2v4h-2zm0 8h2v4h-2zm0 8h2v4h-2zm0 8h2v4h-2zm0 8h2v4h-2zm0 8h2v4h-2zm0 8h2v4h-2zm0 8h2v4h-2zm0 8h2v4h-2zm0 8h2v4h-2zm0 8h2v4h-2zm0 8h2v4h-2zm0 8h2v4h-2zm0 8h2v4h-2zm0 8h2v4h-2zm0 8h2v4h-2zm0 8h2v4h-2zm0 8h2v4h-2zm0 8h2v4h-2zm0 8h2v4h-2zm0 8h2v4h-2zm0 8h2v4h-2zm0 8h2v4h-2zm0 8h2v4h-2zm0 8h2v4h-2zm0 8h2v4h-2zm0 8h2v4h-2zm0 8h2v4h-2zm0 8h2v4h-2zm0 8h2v4h-2zm0 8h2v4h-2zm0 8h2v4h-2zm0 8h2v4h-2zm0 8h2v4h-2zm0 8h2v4h-2zm0 8h2v4h-2zm0 8h2v4h-2zm0 8h2v4h-2zm0 8h2v4h-2zm0 8h2v4h-2zm0 8h2v4h-2zm0 8h2v4h-2zm0 8h2v4h-2zm0 8h2v4h-2zm0 8h2v4h-2zm0 8h2v4h-2zm0 8h2v4h-2zm0 8h2v4h-2zm0 8h2v4h-2zm0 8h2v4h-2zm0 8h2v4h-2zm0 8h2v4h-2zm0 8h2v4h-2zm0 8h2v4h-2zm0 8h2v4h-2zm0 8h2v4h-2zm0 8h2v4h-2zm0 8h2v4h-2zm0 8h2v4h-2zm0 8h2v4h-2zm0 8h2v4h-2zm0 8h2v4h-2zm0 8h2v4h-2zm0 8h2v4h-2zm0 8h2v4h-2zm0 8h2v4h-2zm0 8h2v4h-2zm0 8h2v4h-2zm0 8h2v4h-2zm0 8h2v4h-2zm0 8h2v4h-2zm0 8h2v4h-2zm0 8h2v4h-2zm0 8h2v4h-2zm0 8h2v4h-2zm0 8h2v4h-2z"/>
  <path fill="#9009E4" d="M748 0h32v152h-32zm0 1024h32v152h-32z"/>
  <text x="765" y="148" dy=".5ex" text-anchor="end" font-family="sans-serif" font-size="19.355" fill="#F1F3F5" transform="rotate(90 765 148)">
summoner
</text>
  <text x="765" y="1028" dy=".5ex" font-family="sans-serif" font-size="19.355" fill="#F1F3F5" transform="rotate(90 765 1028)">
summoner
</text>
  <path fill="#F1F3F5" d="M748 152h32v2h-32zm0 870h32v2h-32zm32-870h2v4h-2zm0 8h2v4h-2zm0 8h2v4h-2zm0 8h2v4h-2zm0 8h2v4h-2zm0 8h2v4h-2zm0 8h2v4h-2zm0 8h2v4h-2zm0 8h2v4h-2zm0 8h2v4h-2zm0 8h2v4h-2zm0 8h2v4h-2zm0 8h2v4h-2zm0 8h2v4h-2zm0 8h2v4h-2zm0 8h2v4h-2zm0 8h2v4h-2zm0 8h2v4h-2zm0 8h2v4h-2zm0 8h2v4h-2zm0 8h2v4h-2zm0 8h2v4h-2zm0 8h2v4h-2zm0 8h2v4h-2zm0 8h2v4h-2zm0 8h2v4h-2zm0 8h2v4h-2zm0 8h2v4h-2zm0 8h2v4h-2zm0 8h2v4h-2zm0 8h2v4h-2zm0 8h2v4h-2zm0 8h2v4h-2zm0 8h2v4h-2zm0 8h2v4h-2zm0 8h2v4h-2zm0 8h2v4h-2zm0 8h2v4h-2zm0 8h2v4h-2zm0 8h2v4h-2zm0 8h2v4h-2zm0 8h2v4h-2zm0 8h2v4h-2zm0 8h2v4h-2zm0 8h2v4h-2zm0 8h2v4h-2zm0 8h2v4h-2zm0 8h2v4h-2zm0 8h2v4h-2zm0 8h2v4h-2zm0 8h2v4h-2zm0 8h2v4h-2zm0 8h2v4h-2zm0 8h2v4h-2zm0 8h2v4h-2zm0 8h2v4h-2zm0 8h2v4h-2zm0 8h2v4h-2zm0 8h2v4h-2zm0 8h2v4h-2zm0 8h2v4h-2zm0 8h2v4h-2zm0 8h2v4h-2zm0 8h2v4h-2zm0 8h2v4h-2zm0 8h2v4h-2zm0 8h2v4h-2zm0 8h2v4h-2zm0 8h2v4h-2zm0 8h2v4h-2zm0 8h2v4h-2zm0 8h2v4h-2zm0 8h2v4h-2zm0 8h2v4h-2zm0 8h2v4h-2zm0 8h2v4h-2zm0 8h2v4h-2zm0 8h2v4h-2zm0 8h2v4h-2zm0 8h2v4h-2zm0 8h2v4h-2zm0 8h2v4h-2zm0 8h2v4h-2zm0 8h2v4h-2zm0 8h2v4h-2zm0 8h2v4h-2zm0 8h2v4h-2zm0 8h2v4h-2zm0 8h2v4h-2zm0 8h2v4h-2zm0 8h2v4h-2zm0 8h2v4h-2zm0 8h2v4h-2zm0 8h2v4h-2zm0 8h2v4h-2zm0 8h2v4h-2zm0 8h2v4h-2zm0 8h2v4h-2zm0 8h2v4h-2zm0 8h2v4h-2zm0 8h2v4h-2zm0 8h2v4h-2zm0 8h2v4h-2zm0 8h2v4h-2zm0 8h2v4h-2zm0 8h2v4h-2zm0 8h2v4h-2zm0 8h2v4h-2zm0 8h2v4h-2z"/>
  <path fill="#7F11ED" d="M782 0h32v152h-32zm0 1024h32v152h-32z"/>
  <text x="799" y="148" dy=".5ex" text-anchor="end" font-family="sans-serif" font-size="19.355" fill="#F1F3F5" transform="rotate(90 799 148)">
bombadier
</text>
  <text x="799" y="1028" dy=".5ex" font-family="sans-serif" font-size="19.355" fill="#F1F3F5" transform="rotate(90 799 1028)">
bombadier
</text>
  <path fill="#F1F3F5" d="M782 152h32v2h-32zm0 870h32v2h-32zm32-870h2v4h-2zm0 8h2v4h-2zm0 8h2v4h-2zm0 8h2v4h-2zm0 8h2v4h-2zm0 8h2v4h-2zm0 8h2v4h-2zm0 8h2v4h-2zm0 8h2v4h-2zm0 8h2v4h-2zm0 8h2v4h-2zm0 8h2v4h-2zm0 8h2v4h-2zm0 8h2v4h-2zm0 8h2v4h-2zm0 8h2v4h-2zm0 8h2v4h-2zm0 8h2v4h-2zm0 8h2v4h-2zm0 8h2v4h-2zm0 8h2v4h-2zm0 8h2v4h-2zm0 8h2v4h-2zm0 8h2v4h-2zm0 8h2v4h-2zm0 8h2v4h-2zm0 8h2v4h-2zm0 8h2v4h-2zm0 8h2v4h-2zm0 8h2v4h-2zm0 8h2v4h-2zm0 8h2v4h-2zm0 8h2v4h-2zm0 8h2v4h-2zm0 8h2v4h-2zm0 8h2v4h-2zm0 8h2v4h-2zm0 8h2v4h-2zm0 8h2v4h-2zm0 8h2v4h-2zm0 8h2v4h-2zm0 8h2v4h-2zm0 8h2v4h-2zm0 8h2v4h-2zm0 8h2v4h-2zm0 8h2v4h-2zm0 8h2v4h-2zm0 8h2v4h-2zm0 8h2v4h-2zm0 8h2v4h-2zm0 8h2v4h-2zm0 8h2v4h-2zm0 8h2v4h-2zm0 8h2v4h-2zm0 8h2v4h-2zm0 8h2v4h-2zm0 8h2v4h-2zm0 8h2v4h-2zm0 8h2v4h-2zm0 8h2v4h-2zm0 8h2v4h-2zm0 8h2v4h-2zm0 8h2v4h-2zm0 8h2v4h-2zm0 8h2v4h-2zm0 8h2v4h-2zm0 8h2v4h-2zm0 8h2v4h-2zm0 8h2v4h-2zm0 8h2v4h-2zm0 8h2v4h-2zm0 8h2v4h-2zm0 8h2v4h-2zm0 8h2v4h-2zm0 8h2v4h-2zm0 8h2v4h-2zm0 8h2v4h-2zm0 8h2v4h-2zm0 8h2v4h-2zm0 8h2v4h-2zm0 8h2v4h-2zm0 8h2v4h-2zm0 8h2v4h-2zm0 8h2v4h-2zm0 8h2v4h-2zm0 8h2v4h-2zm0 8h2v4h-2zm0 8h2v4h-2zm0 8h2v4h-2zm0 8h2v4h-2zm0 8h2v4h-2zm0 8h2v4h-2zm0 8h2v4h-2zm0 8h2v4h-2zm0 8h2v4h-2zm0 8h2v4h-2zm0 8h2v4h-2zm0 8h2v4h-2zm0 8h2v4h-2zm0 8h2v4h-2zm0 8h2v4h-2zm0 8h2v4h-2zm0 8h2v4h-2zm0 8h2v4h-2zm0 8h2v4h-2zm0 8h2v4h-2zm0 8h2v4h-2zm0 8h2v4h-2zm0 8h2v4h-2z"/>
  <path fill="#6E1AF5" d="M816 0h32v152h-32zm0 1024h32v152h-32z"/>
  <text x="833" y="148" dy=".5ex" text-anchor="end" font-family="sans-serif" font-size="19.355" fill="#F1F3F5" transform="rotate(90 833 148)">
bowginner
</text>
  <text x="833" y="1028" dy=".5ex" font-family="sans-serif" font-size="19.355" fill="#F1F3F5" transform="rotate(90 833 1028)">
bowginner
</text>
  <path fill="#F1F3F5" d="M816 152h32v2h-32zm0 870h32v2h-32zm32-870h2v4h-2zm0 8h2v4h-2zm0 8h2v4h-2zm0 8h2v4h-2zm0 8h2v4h-2zm0 8h2v4h-2zm0 8h2v4h-2zm0 8h2v4h-2zm0 8h2v4h-2zm0 8h2v4h-2zm0 8h2v4h-2zm0 8h2v4h-2zm0 8h2v4h-2zm0 8h2v4h-2zm0 8h2v4h-2zm0 8h2v4h-2zm0 8h2v4h-2zm0 8h2v4h-2zm0 8h2v4h-2zm0 8h2v4h-2zm0 8h2v4h-2zm0 8h2v4h-2zm0 8h2v4h-2zm0 8h2v4h-2zm0 8h2v4h-2zm0 8h2v4h-2zm0 8h2v4h-2zm0 8h2v4h-2zm0 8h2v4h-2zm0 8h2v4h-2zm0 8h2v4h-2zm0 8h2v4h-2zm0 8h2v4h-2zm0 8h2v4h-2zm0 8h2v4h-2zm0 8h2v4h-2zm0 8h2v4h-2zm0 8h2v4h-2zm0 8h2v4h-2zm0 8h2v4h-2zm0 8h2v4h-2zm0 8h2v4h-2zm0 8h2v4h-2zm0 8h2v4h-2zm0 8h2v4h-2zm0 8h2v4h-2zm0 8h2v4h-2zm0 8h2v4h-2zm0 8h2v4h-2zm0 8h2v4h-2zm0 8h2v4h-2zm0 8h2v4h-2zm0 8h2v4h-2zm0 8h2v4h-2zm0 8h2v4h-2zm0 8h2v4h-2zm0 8h2v4h-2zm0 8h2v4h-2zm0 8h2v4h-2zm0 8h2v4h-2zm0 8h2v4h-2zm0 8h2v4h-2zm0 8h2v4h-2zm0 8h2v4h-2zm0 8h2v4h-2zm0 8h2v4h-2zm0 8h2v4h-2zm0 8h2v4h-2zm0 8h2v4h-2zm0 8h2v4h-2zm0 8h2v4h-2zm0 8h2v4h-2zm0 8h2v4h-2zm0 8h2v4h-2zm0 8h2v4h-2zm0 8h2v4h-2zm0 8h2v4h-2zm0 8h2v4h-2zm0 8h2v4h-2zm0 8h2v4h-2zm0 8h2v4h-2zm0 8h2v4h-2zm0 8h2v4h-2zm0 8h2v4h-2zm0 8h2v4h-2zm0 8h2v4h-2zm0 8h2v4h-2zm0 8h2v4h-2zm0 8h2v4h-2zm0 8h2v4h-2zm0 8h2v4h-2zm0 8h2v4h-2zm0 8h2v4h-2zm0 8h2v4h-2zm0 8h2v4h-2zm0 8h2v4h-2zm0 8h2v4h-2zm0 8h2v4h-2zm0 8h2v4h-2zm0 8h2v4h-2zm0 8h2v4h-2zm0 8h2v4h-2zm0 8h2v4h-2zm0 8h2v4h-2zm0 8h2v4h-2zm0 8h2v4h-2zm0 8h2v4h-2zm0 8h2v4h-2zm0 8h2v4h-2z"/>
  <path fill="#5D26FB" d="M850 0h32v152h-32zm0 1024h32v152h-32z"/>
  <text x="867" y="148" dy=".5ex" text-anchor="end" font-family="sans-serif" font-size="19.355" fill="#F1F3F5" transform="rotate(90 867 148)">
DEX mage
</text>
  <text x="867" y="1028" dy=".5ex" font-family="sans-serif" font-size="19.355" fill="#F1F3F5" transform="rotate(90 867 1028)">
DEX mage
</text>
  <path fill="#F1F3F5" d="M850 152h32v2h-32zm0 870h32v2h-32zm32-870h2v4h-2zm0 8h2v4h-2zm0 8h2v4h-2zm0 8h2v4h-2zm0 8h2v4h-2zm0 8h2v4h-2zm0 8h2v4h-2zm0 8h2v4h-2zm0 8h2v4h-2zm0 8h2v4h-2zm0 8h2v4h-2zm0 8h2v4h-2zm0 8h2v4h-2zm0 8h2v4h-2zm0 8h2v4h-2zm0 8h2v4h-2zm0 8h2v4h-2zm0 8h2v4h-2zm0 8h2v4h-2zm0 8h2v4h-2zm0 8h2v4h-2zm0 8h2v4h-2zm0 8h2v4h-2zm0 8h2v4h-2zm0 8h2v4h-2zm0 8h2v4h-2zm0 8h2v4h-2zm0 8h2v4h-2zm0 8h2v4h-2zm0 8h2v4h-2zm0 8h2v4h-2zm0 8h2v4h-2zm0 8h2v4h-2zm0 8h2v4h-2zm0 8h2v4h-2zm0 8h2v4h-2zm0 8h2v4h-2zm0 8h2v4h-2zm0 8h2v4h-2zm0 8h2v4h-2zm0 8h2v4h-2zm0 8h2v4h-2zm0 8h2v4h-2zm0 8h2v4h-2zm0 8h2v4h-2zm0 8h2v4h-2zm0 8h2v4h-2zm0 8h2v4h-2zm0 8h2v4h-2zm0 8h2v4h-2zm0 8h2v4h-2zm0 8h2v4h-2zm0 8h2v4h-2zm0 8h2v4h-2zm0 8h2v4h-2zm0 8h2v4h-2zm0 8h2v4h-2zm0 8h2v4h-2zm0 8h2v4h-2zm0 8h2v4h-2zm0 8h2v4h-2zm0 8h2v4h-2zm0 8h2v4h-2zm0 8h2v4h-2zm0 8h2v4h-2zm0 8h2v4h-2zm0 8h2v4h-2zm0 8h2v4h-2zm0 8h2v4h-2zm0 8h2v4h-2zm0 8h2v4h-2zm0 8h2v4h-2zm0 8h2v4h-2zm0 8h2v4h-2zm0 8h2v4h-2zm0 8h2v4h-2zm0 8h2v4h-2zm0 8h2v4h-2zm0 8h2v4h-2zm0 8h2v4h-2zm0 8h2v4h-2zm0 8h2v4h-2zm0 8h2v4h-2zm0 8h2v4h-2zm0 8h2v4h-2zm0 8h2v4h-2zm0 8h2v4h-2zm0 8h2v4h-2zm0 8h2v4h-2zm0 8h2v4h-2zm0 8h2v4h-2zm0 8h2v4h-2zm0 8h2v4h-2zm0 8h2v4h-2zm0 8h2v4h-2zm0 8h2v4h-2zm0 8h2v4h-2zm0 8h2v4h-2zm0 8h2v4h-2zm0 8h2v4h-2zm0 8h2v4h-2zm0 8h2v4h-2zm0 8h2v4h-2zm0 8h2v4h-2zm0 8h2v4h-2zm0 8h2v4h-2zm0 8h2v4h-2zm0 8h2v4h-2zm0 8h2v4h-2z"/>
  <path fill="#4C33FE" d="M884 0h32v152h-32zm0 1024h32v152h-32z"/>
  <text x="901" y="148" dy=".5ex" text-anchor="end" font-family="sans-serif" font-size="19.355" fill="#F1F3F5" transform="rotate(90 901 148)">
DEXlander
</text>
  <text x="901" y="1028" dy=".5ex" font-family="sans-serif" font-size="19.355" fill="#F1F3F5" transform="rotate(90 901 1028)">
DEXlander
</text>
  <path fill="#F1F3F5" d="M884 152h32v2h-32zm0 870h32v2h-32zm32-870h2v4h-2zm0 8h2v4h-2zm0 8h2v4h-2zm0 8h2v4h-2zm0 8h2v4h-2zm0 8h2v4h-2zm0 8h2v4h-2zm0 8h2v4h-2zm0 8h2v4h-2zm0 8h2v4h-2zm0 8h2v4h-2zm0 8h2v4h-2zm0 8h2v4h-2zm0 8h2v4h-2zm0 8h2v4h-2zm0 8h2v4h-2zm0 8h2v4h-2zm0 8h2v4h-2zm0 8h2v4h-2zm0 8h2v4h-2zm0 8h2v4h-2zm0 8h2v4h-2zm0 8h2v4h-2zm0 8h2v4h-2zm0 8h2v4h-2zm0 8h2v4h-2zm0 8h2v4h-2zm0 8h2v4h-2zm0 8h2v4h-2zm0 8h2v4h-2zm0 8h2v4h-2zm0 8h2v4h-2zm0 8h2v4h-2zm0 8h2v4h-2zm0 8h2v4h-2zm0 8h2v4h-2zm0 8h2v4h-2zm0 8h2v4h-2zm0 8h2v4h-2zm0 8h2v4h-2zm0 8h2v4h-2zm0 8h2v4h-2zm0 8h2v4h-2zm0 8h2v4h-2zm0 8h2v4h-2zm0 8h2v4h-2zm0 8h2v4h-2zm0 8h2v4h-2zm0 8h2v4h-2zm0 8h2v4h-2zm0 8h2v4h-2zm0 8h2v4h-2zm0 8h2v4h-2zm0 8h2v4h-2zm0 8h2v4h-2zm0 8h2v4h-2zm0 8h2v4h-2zm0 8h2v4h-2zm0 8h2v4h-2zm0 8h2v4h-2zm0 8h2v4h-2zm0 8h2v4h-2zm0 8h2v4h-2zm0 8h2v4h-2zm0 8h2v4h-2zm0 8h2v4h-2zm0 8h2v4h-2zm0 8h2v4h-2zm0 8h2v4h-2zm0 8h2v4h-2zm0 8h2v4h-2zm0 8h2v4h-2zm0 8h2v4h-2zm0 8h2v4h-2zm0 8h2v4h-2zm0 8h2v4h-2zm0 8h2v4h-2zm0 8h2v4h-2zm0 8h2v4h-2zm0 8h2v4h-2zm0 8h2v4h-2zm0 8h2v4h-2zm0 8h2v4h-2zm0 8h2v4h-2zm0 8h2v4h-2zm0 8h2v4h-2zm0 8h2v4h-2zm0 8h2v4h-2zm0 8h2v4h-2zm0 8h2v4h-2zm0 8h2v4h-2zm0 8h2v4h-2zm0 8h2v4h-2zm0 8h2v4h-2zm0 8h2v4h-2zm0 8h2v4h-2zm0 8h2v4h-2zm0 8h2v4h-2zm0 8h2v4h-2zm0 8h2v4h-2zm0 8h2v4h-2zm0 8h2v4h-2zm0 8h2v4h-2zm0 8h2v4h-2zm0 8h2v4h-2zm0 8h2v4h-2zm0 8h2v4h-2zm0 8h2v4h-2zm0 8h2v4h-2z"/>
  <path fill="#3D42FE" d="M918 0h32v152h-32zm0 1024h32v152h-32z"/>
  <text x="935" y="148" dy=".5ex" text-anchor="end" font-family="sans-serif" font-size="19.355" fill="#F1F3F5" transform="rotate(90 935 148)">
DEXginner
</text>
  <text x="935" y="1028" dy=".5ex" font-family="sans-serif" font-size="19.355" fill="#F1F3F5" transform="rotate(90 935 1028)">
DEXginner
</text>
  <path fill="#F1F3F5" d="M918 152h32v2h-32zm0 870h32v2h-32zm32-870h2v4h-2zm0 8h2v4h-2zm0 8h2v4h-2zm0 8h2v4h-2zm0 8h2v4h-2zm0 8h2v4h-2zm0 8h2v4h-2zm0 8h2v4h-2zm0 8h2v4h-2zm0 8h2v4h-2zm0 8h2v4h-2zm0 8h2v4h-2zm0 8h2v4h-2zm0 8h2v4h-2zm0 8h2v4h-2zm0 8h2v4h-2zm0 8h2v4h-2zm0 8h2v4h-2zm0 8h2v4h-2zm0 8h2v4h-2zm0 8h2v4h-2zm0 8h2v4h-2zm0 8h2v4h-2zm0 8h2v4h-2zm0 8h2v4h-2zm0 8h2v4h-2zm0 8h2v4h-2zm0 8h2v4h-2zm0 8h2v4h-2zm0 8h2v4h-2zm0 8h2v4h-2zm0 8h2v4h-2zm0 8h2v4h-2zm0 8h2v4h-2zm0 8h2v4h-2zm0 8h2v4h-2zm0 8h2v4h-2zm0 8h2v4h-2zm0 8h2v4h-2zm0 8h2v4h-2zm0 8h2v4h-2zm0 8h2v4h-2zm0 8h2v4h-2zm0 8h2v4h-2zm0 8h2v4h-2zm0 8h2v4h-2zm0 8h2v4h-2zm0 8h2v4h-2zm0 8h2v4h-2zm0 8h2v4h-2zm0 8h2v4h-2zm0 8h2v4h-2zm0 8h2v4h-2zm0 8h2v4h-2zm0 8h2v4h-2zm0 8h2v4h-2zm0 8h2v4h-2zm0 8h2v4h-2zm0 8h2v4h-2zm0 8h2v4h-2zm0 8h2v4h-2zm0 8h2v4h-2zm0 8h2v4h-2zm0 8h2v4h-2zm0 8h2v4h-2zm0 8h2v4h-2zm0 8h2v4h-2zm0 8h2v4h-2zm0 8h2v4h-2zm0 8h2v4h-2zm0 8h2v4h-2zm0 8h2v4h-2zm0 8h2v4h-2zm0 8h2v4h-2zm0 8h2v4h-2zm0 8h2v4h-2zm0 8h2v4h-2zm0 8h2v4h-2zm0 8h2v4h-2zm0 8h2v4h-2zm0 8h2v4h-2zm0 8h2v4h-2zm0 8h2v4h-2zm0 8h2v4h-2zm0 8h2v4h-2zm0 8h2v4h-2zm0 8h2v4h-2zm0 8h2v4h-2zm0 8h2v4h-2zm0 8h2v4h-2zm0 8h2v4h-2zm0 8h2v4h-2zm0 8h2v4h-2zm0 8h2v4h-2zm0 8h2v4h-2zm0 8h2v4h-2zm0 8h2v4h-2zm0 8h2v4h-2zm0 8h2v4h-2zm0 8h2v4h-2zm0 8h2v4h-2zm0 8h2v4h-2zm0 8h2v4h-2zm0 8h2v4h-2zm0 8h2v4h-2zm0 8h2v4h-2zm0 8h2v4h-2zm0 8h2v4h-2zm0 8h2v4h-2z"/>
  <path fill="#2F52FD" d="M952 0h32v152h-32zm0 1024h32v152h-32z"/>
  <text x="969" y="148" dy=".5ex" text-anchor="end" font-family="sans-serif" font-size="19.355" fill="#F1F3F5" transform="rotate(90 969 148)">
STR mage
</text>
  <text x="969" y="1028" dy=".5ex" font-family="sans-serif" font-size="19.355" fill="#F1F3F5" transform="rotate(90 969 1028)">
STR mage
</text>
  <path fill="#F1F3F5" d="M952 152h32v2h-32zm0 870h32v2h-32zm32-870h2v4h-2zm0 8h2v4h-2zm0 8h2v4h-2zm0 8h2v4h-2zm0 8h2v4h-2zm0 8h2v4h-2zm0 8h2v4h-2zm0 8h2v4h-2zm0 8h2v4h-2zm0 8h2v4h-2zm0 8h2v4h-2zm0 8h2v4h-2zm0 8h2v4h-2zm0 8h2v4h-2zm0 8h2v4h-2zm0 8h2v4h-2zm0 8h2v4h-2zm0 8h2v4h-2zm0 8h2v4h-2zm0 8h2v4h-2zm0 8h2v4h-2zm0 8h2v4h-2zm0 8h2v4h-2zm0 8h2v4h-2zm0 8h2v4h-2zm0 8h2v4h-2zm0 8h2v4h-2zm0 8h2v4h-2zm0 8h2v4h-2zm0 8h2v4h-2zm0 8h2v4h-2zm0 8h2v4h-2zm0 8h2v4h-2zm0 8h2v4h-2zm0 8h2v4h-2zm0 8h2v4h-2zm0 8h2v4h-2zm0 8h2v4h-2zm0 8h2v4h-2zm0 8h2v4h-2zm0 8h2v4h-2zm0 8h2v4h-2zm0 8h2v4h-2zm0 8h2v4h-2zm0 8h2v4h-2zm0 8h2v4h-2zm0 8h2v4h-2zm0 8h2v4h-2zm0 8h2v4h-2zm0 8h2v4h-2zm0 8h2v4h-2zm0 8h2v4h-2zm0 8h2v4h-2zm0 8h2v4h-2zm0 8h2v4h-2zm0 8h2v4h-2zm0 8h2v4h-2zm0 8h2v4h-2zm0 8h2v4h-2zm0 8h2v4h-2zm0 8h2v4h-2zm0 8h2v4h-2zm0 8h2v4h-2zm0 8h2v4h-2zm0 8h2v4h-2zm0 8h2v4h-2zm0 8h2v4h-2zm0 8h2v4h-2zm0 8h2v4h-2zm0 8h2v4h-2zm0 8h2v4h-2zm0 8h2v4h-2zm0 8h2v4h-2zm0 8h2v4h-2zm0 8h2v4h-2zm0 8h2v4h-2zm0 8h2v4h-2zm0 8h2v4h-2zm0 8h2v4h-2zm0 8h2v4h-2zm0 8h2v4h-2zm0 8h2v4h-2zm0 8h2v4h-2zm0 8h2v4h-2zm0 8h2v4h-2zm0 8h2v4h-2zm0 8h2v4h-2zm0 8h2v4h-2zm0 8h2v4h-2zm0 8h2v4h-2zm0 8h2v4h-2zm0 8h2v4h-2zm0 8h2v4h-2zm0 8h2v4h-2zm0 8h2v4h-2zm0 8h2v4h-2zm0 8h2v4h-2zm0 8h2v4h-2zm0 8h2v4h-2zm0 8h2v4h-2zm0 8h2v4h-2zm0 8h2v4h-2zm0 8h2v4h-2zm0 8h2v4h-2zm0 8h2v4h-2zm0 8h2v4h-2zm0 8h2v4h-2zm0 8h2v4h-2zm0 8h2v4h-2z"/>
  <path fill="#2262F9" d="M986 0h32v152h-32zm0 1024h32v152h-32z"/>
  <text x="1003" y="148" dy=".5ex" text-anchor="end" font-family="sans-serif" font-size="19.355" fill="#F1F3F5" transform="rotate(90 1003 148)">
dagger warrior
</text>
  <text x="1003" y="1028" dy=".5ex" font-family="sans-serif" font-size="19.355" fill="#F1F3F5" transform="rotate(90 1003 1028)">
dagger warrior
</text>
  <path fill="#F1F3F5" d="M986 152h32v2h-32zm0 870h32v2h-32zm32-870h2v4h-2zm0 8h2v4h-2zm0 8h2v4h-2zm0 8h2v4h-2zm0 8h2v4h-2zm0 8h2v4h-2zm0 8h2v4h-2zm0 8h2v4h-2zm0 8h2v4h-2zm0 8h2v4h-2zm0 8h2v4h-2zm0 8h2v4h-2zm0 8h2v4h-2zm0 8h2v4h-2zm0 8h2v4h-2zm0 8h2v4h-2zm0 8h2v4h-2zm0 8h2v4h-2zm0 8h2v4h-2zm0 8h2v4h-2zm0 8h2v4h-2zm0 8h2v4h-2zm0 8h2v4h-2zm0 8h2v4h-2zm0 8h2v4h-2zm0 8h2v4h-2zm0 8h2v4h-2zm0 8h2v4h-2zm0 8h2v4h-2zm0 8h2v4h-2zm0 8h2v4h-2zm0 8h2v4h-2zm0 8h2v4h-2zm0 8h2v4h-2zm0 8h2v4h-2zm0 8h2v4h-2zm0 8h2v4h-2zm0 8h2v4h-2zm0 8h2v4h-2zm0 8h2v4h-2zm0 8h2v4h-2zm0 8h2v4h-2zm0 8h2v4h-2zm0 8h2v4h-2zm0 8h2v4h-2zm0 8h2v4h-2zm0 8h2v4h-2zm0 8h2v4h-2zm0 8h2v4h-2zm0 8h2v4h-2zm0 8h2v4h-2zm0 8h2v4h-2zm0 8h2v4h-2zm0 8h2v4h-2zm0 8h2v4h-2zm0 8h2v4h-2zm0 8h2v4h-2zm0 8h2v4h-2zm0 8h2v4h-2zm0 8h2v4h-2zm0 8h2v4h-2zm0 8h2v4h-2zm0 8h2v4h-2zm0 8h2v4h-2zm0 8h2v4h-2zm0 8h2v4h-2zm0 8h2v4h-2zm0 8h2v4h-2zm0 8h2v4h-2zm0 8h2v4h-2zm0 8h2v4h-2zm0 8h2v4h-2zm0 8h2v4h-2zm0 8h2v4h-2zm0 8h2v4h-2zm0 8h2v4h-2zm0 8h2v4h-2zm0 8h2v4h-2zm0 8h2v4h-2zm0 8h2v4h-2zm0 8h2v4h-2zm0 8h2v4h-2zm0 8h2v4h-2zm0 8h2v4h-2zm0 8h2v4h-2zm0 8h2v4h-2zm0 8h2v4h-2zm0 8h2v4h-2zm0 8h2v4h-2zm0 8h2v4h-2zm0 8h2v4h-2zm0 8h2v4h-2zm0 8h2v4h-2zm0 8h2v4h-2zm0 8h2v4h-2zm0 8h2v4h-2zm0 8h2v4h-2zm0 8h2v4h-2zm0 8h2v4h-2zm0 8h2v4h-2zm0 8h2v4h-2zm0 8h2v4h-2zm0 8h2v4h-2zm0 8h2v4h-2zm0 8h2v4h-2zm0 8h2v4h-2zm0 8h2v4h-2zm0 8h2v4h-2zm0 8h2v4h-2z"/>
  <path fill="#1773F3" d="M1020 0h32v152h-32zm0 1024h32v152h-32z"/>
  <text x="1037" y="148" dy=".5ex" text-anchor="end" font-family="sans-serif" font-size="19.355" fill="#F1F3F5" transform="rotate(90 1037 148)">
wand warrior
</text>
  <text x="1037" y="1028" dy=".5ex" font-family="sans-serif" font-size="19.355" fill="#F1F3F5" transform="rotate(90 1037 1028)">
wand warrior
</text>
  <path fill="#F1F3F5" d="M1020 152h32v2h-32zm0 870h32v2h-32zm32-870h2v4h-2zm0 8h2v4h-2zm0 8h2v4h-2zm0 8h2v4h-2zm0 8h2v4h-2zm0 8h2v4h-2zm0 8h2v4h-2zm0 8h2v4h-2zm0 8h2v4h-2zm0 8h2v4h-2zm0 8h2v4h-2zm0 8h2v4h-2zm0 8h2v4h-2zm0 8h2v4h-2zm0 8h2v4h-2zm0 8h2v4h-2zm0 8h2v4h-2zm0 8h2v4h-2zm0 8h2v4h-2zm0 8h2v4h-2zm0 8h2v4h-2zm0 8h2v4h-2zm0 8h2v4h-2zm0 8h2v4h-2zm0 8h2v4h-2zm0 8h2v4h-2zm0 8h2v4h-2zm0 8h2v4h-2zm0 8h2v4h-2zm0 8h2v4h-2zm0 8h2v4h-2zm0 8h2v4h-2zm0 8h2v4h-2zm0 8h2v4h-2zm0 8h2v4h-2zm0 8h2v4h-2zm0 8h2v4h-2zm0 8h2v4h-2zm0 8h2v4h-2zm0 8h2v4h-2zm0 8h2v4h-2zm0 8h2v4h-2zm0 8h2v4h-2zm0 8h2v4h-2zm0 8h2v4h-2zm0 8h2v4h-2zm0 8h2v4h-2zm0 8h2v4h-2zm0 8h2v4h-2zm0 8h2v4h-2zm0 8h2v4h-2zm0 8h2v4h-2zm0 8h2v4h-2zm0 8h2v4h-2zm0 8h2v4h-2zm0 8h2v4h-2zm0 8h2v4h-2zm0 8h2v4h-2zm0 8h2v4h-2zm0 8h2v4h-2zm0 8h2v4h-2zm0 8h2v4h-2zm0 8h2v4h-2zm0 8h2v4h-2zm0 8h2v4h-2zm0 8h2v4h-2zm0 8h2v4h-2zm0 8h2v4h-2zm0 8h2v4h-2zm0 8h2v4h-2zm0 8h2v4h-2zm0 8h2v4h-2zm0 8h2v4h-2zm0 8h2v4h-2zm0 8h2v4h-2zm0 8h2v4h-2zm0 8h2v4h-2zm0 8h2v4h-2zm0 8h2v4h-2zm0 8h2v4h-2zm0 8h2v4h-2zm0 8h2v4h-2zm0 8h2v4h-2zm0 8h2v4h-2zm0 8h2v4h-2zm0 8h2v4h-2zm0 8h2v4h-2zm0 8h2v4h-2zm0 8h2v4h-2zm0 8h2v4h-2zm0 8h2v4h-2zm0 8h2v4h-2zm0 8h2v4h-2zm0 8h2v4h-2zm0 8h2v4h-2zm0 8h2v4h-2zm0 8h2v4h-2zm0 8h2v4h-2zm0 8h2v4h-2zm0 8h2v4h-2zm0 8h2v4h-2zm0 8h2v4h-2zm0 8h2v4h-2zm0 8h2v4h-2zm0 8h2v4h-2zm0 8h2v4h-2zm0 8h2v4h-2zm0 8h2v4h-2zm0 8h2v4h-2z"/>
  <path fill="#0E85EA" d="M1054 0h32v152h-32zm0 1024h32v152h-32z"/>
  <text x="1071" y="148" dy=".5ex" text-anchor="end" font-family="sans-serif" font-size="19.355" fill="#F1F3F5" transform="rotate(90 1071 148)">
permarcher
</text>
  <text x="1071" y="1028" dy=".5ex" font-family="sans-serif" font-size="19.355" fill="#F1F3F5" transform="rotate(90 1071 1028)">
permarcher
</text>
  <path fill="#F1F3F5" d="M1054 152h32v2h-32zm0 870h32v2h-32zm32-870h2v4h-2zm0 8h2v4h-2zm0 8h2v4h-2zm0 8h2v4h-2zm0 8h2v4h-2zm0 8h2v4h-2zm0 8h2v4h-2zm0 8h2v4h-2zm0 8h2v4h-2zm0 8h2v4h-2zm0 8h2v4h-2zm0 8h2v4h-2zm0 8h2v4h-2zm0 8h2v4h-2zm0 8h2v4h-2zm0 8h2v4h-2zm0 8h2v4h-2zm0 8h2v4h-2zm0 8h2v4h-2zm0 8h2v4h-2zm0 8h2v4h-2zm0 8h2v4h-2zm0 8h2v4h-2zm0 8h2v4h-2zm0 8h2v4h-2zm0 8h2v4h-2zm0 8h2v4h-2zm0 8h2v4h-2zm0 8h2v4h-2zm0 8h2v4h-2zm0 8h2v4h-2zm0 8h2v4h-2zm0 8h2v4h-2zm0 8h2v4h-2zm0 8h2v4h-2zm0 8h2v4h-2zm0 8h2v4h-2zm0 8h2v4h-2zm0 8h2v4h-2zm0 8h2v4h-2zm0 8h2v4h-2zm0 8h2v4h-2zm0 8h2v4h-2zm0 8h2v4h-2zm0 8h2v4h-2zm0 8h2v4h-2zm0 8h2v4h-2zm0 8h2v4h-2zm0 8h2v4h-2zm0 8h2v4h-2zm0 8h2v4h-2zm0 8h2v4h-2zm0 8h2v4h-2zm0 8h2v4h-2zm0 8h2v4h-2zm0 8h2v4h-2zm0 8h2v4h-2zm0 8h2v4h-2zm0 8h2v4h-2zm0 8h2v4h-2zm0 8h2v4h-2zm0 8h2v4h-2zm0 8h2v4h-2zm0 8h2v4h-2zm0 8h2v4h-2zm0 8h2v4h-2zm0 8h2v4h-2zm0 8h2v4h-2zm0 8h2v4h-2zm0 8h2v4h-2zm0 8h2v4h-2zm0 8h2v4h-2zm0 8h2v4h-2zm0 8h2v4h-2zm0 8h2v4h-2zm0 8h2v4h-2zm0 8h2v4h-2zm0 8h2v4h-2zm0 8h2v4h-2zm0 8h2v4h-2zm0 8h2v4h-2zm0 8h2v4h-2zm0 8h2v4h-2zm0 8h2v4h-2zm0 8h2v4h-2zm0 8h2v4h-2zm0 8h2v4h-2zm0 8h2v4h-2zm0 8h2v4h-2zm0 8h2v4h-2zm0 8h2v4h-2zm0 8h2v4h-2zm0 8h2v4h-2zm0 8h2v4h-2zm0 8h2v4h-2zm0 8h2v4h-2zm0 8h2v4h-2zm0 8h2v4h-2zm0 8h2v4h-2zm0 8h2v4h-2zm0 8h2v4h-2zm0 8h2v4h-2zm0 8h2v4h-2zm0 8h2v4h-2zm0 8h2v4h-2zm0 8h2v4h-2zm0 8h2v4h-2zm0 8h2v4h-2zm0 8h2v4h-2z"/>
  <path fill="#0796E0" d="M1088 0h32v152h-32zm0 1024h32v152h-32z"/>
  <text x="1105" y="148" dy=".5ex" text-anchor="end" font-family="sans-serif" font-size="19.355" fill="#F1F3F5" transform="rotate(90 1105 148)">
permamagician
</text>
  <text x="1105" y="1028" dy=".5ex" font-family="sans-serif" font-size="19.355" fill="#F1F3F5" transform="rotate(90 1105 1028)">
permamagician
</text>
  <path fill="#F1F3F5" d="M1088 152h32v2h-32zm0 870h32v2h-32zm32-870h2v4h-2zm0 8h2v4h-2zm0 8h2v4h-2zm0 8h2v4h-2zm0 8h2v4h-2zm0 8h2v4h-2zm0 8h2v4h-2zm0 8h2v4h-2zm0 8h2v4h-2zm0 8h2v4h-2zm0 8h2v4h-2zm0 8h2v4h-2zm0 8h2v4h-2zm0 8h2v4h-2zm0 8h2v4h-2zm0 8h2v4h-2zm0 8h2v4h-2zm0 8h2v4h-2zm0 8h2v4h-2zm0 8h2v4h-2zm0 8h2v4h-2zm0 8h2v4h-2zm0 8h2v4h-2zm0 8h2v4h-2zm0 8h2v4h-2zm0 8h2v4h-2zm0 8h2v4h-2zm0 8h2v4h-2zm0 8h2v4h-2zm0 8h2v4h-2zm0 8h2v4h-2zm0 8h2v4h-2zm0 8h2v4h-2zm0 8h2v4h-2zm0 8h2v4h-2zm0 8h2v4h-2zm0 8h2v4h-2zm0 8h2v4h-2zm0 8h2v4h-2zm0 8h2v4h-2zm0 8h2v4h-2zm0 8h2v4h-2zm0 8h2v4h-2zm0 8h2v4h-2zm0 8h2v4h-2zm0 8h2v4h-2zm0 8h2v4h-2zm0 8h2v4h-2zm0 8h2v4h-2zm0 8h2v4h-2zm0 8h2v4h-2zm0 8h2v4h-2zm0 8h2v4h-2zm0 8h2v4h-2zm0 8h2v4h-2zm0 8h2v4h-2zm0 8h2v4h-2zm0 8h2v4h-2zm0 8h2v4h-2zm0 8h2v4h-2zm0 8h2v4h-2zm0 8h2v4h-2zm0 8h2v4h-2zm0 8h2v4h-2zm0 8h2v4h-2zm0 8h2v4h-2zm0 8h2v4h-2zm0 8h2v4h-2zm0 8h2v4h-2zm0 8h2v4h-2zm0 8h2v4h-2zm0 8h2v4h-2zm0 8h2v4h-2zm0 8h2v4h-2zm0 8h2v4h-2zm0 8h2v4h-2zm0 8h2v4h-2zm0 8h2v4h-2zm0 8h2v4h-2zm0 8h2v4h-2zm0 8h2v4h-2zm0 8h2v4h-2zm0 8h2v4h-2zm0 8h2v4h-2zm0 8h2v4h-2zm0 8h2v4h-2zm0 8h2v4h-2zm0 8h2v4h-2zm0 8h2v4h-2zm0 8h2v4h-2zm0 8h2v4h-2zm0 8h2v4h-2zm0 8h2v4h-2zm0 8h2v4h-2zm0 8h2v4h-2zm0 8h2v4h-2zm0 8h2v4h-2zm0 8h2v4h-2zm0 8h2v4h-2zm0 8h2v4h-2zm0 8h2v4h-2zm0 8h2v4h-2zm0 8h2v4h-2zm0 8h2v4h-2zm0 8h2v4h-2zm0 8h2v4h-2zm0 8h2v4h-2zm0 8h2v4h-2zm0 8h2v4h-2z"/>
  <path fill="#02A7D4" d="M1122 0h32v152h-32zm0 1024h32v152h-32z"/>
  <text x="1139" y="148" dy=".5ex" text-anchor="end" font-family="sans-serif" font-size="19.355" fill="#F1F3F5" transform="rotate(90 1139 148)">
permawarrior
</text>
  <text x="1139" y="1028" dy=".5ex" font-family="sans-serif" font-size="19.355" fill="#F1F3F5" transform="rotate(90 1139 1028)">
permawarrior
</text>
  <path fill="#F1F3F5" d="M1122 152h32v2h-32zm0 870h32v2h-32zm32-870h2v4h-2zm0 8h2v4h-2zm0 8h2v4h-2zm0 8h2v4h-2zm0 8h2v4h-2zm0 8h2v4h-2zm0 8h2v4h-2zm0 8h2v4h-2zm0 8h2v4h-2zm0 8h2v4h-2zm0 8h2v4h-2zm0 8h2v4h-2zm0 8h2v4h-2zm0 8h2v4h-2zm0 8h2v4h-2zm0 8h2v4h-2zm0 8h2v4h-2zm0 8h2v4h-2zm0 8h2v4h-2zm0 8h2v4h-2zm0 8h2v4h-2zm0 8h2v4h-2zm0 8h2v4h-2zm0 8h2v4h-2zm0 8h2v4h-2zm0 8h2v4h-2zm0 8h2v4h-2zm0 8h2v4h-2zm0 8h2v4h-2zm0 8h2v4h-2zm0 8h2v4h-2zm0 8h2v4h-2zm0 8h2v4h-2zm0 8h2v4h-2zm0 8h2v4h-2zm0 8h2v4h-2zm0 8h2v4h-2zm0 8h2v4h-2zm0 8h2v4h-2zm0 8h2v4h-2zm0 8h2v4h-2zm0 8h2v4h-2zm0 8h2v4h-2zm0 8h2v4h-2zm0 8h2v4h-2zm0 8h2v4h-2zm0 8h2v4h-2zm0 8h2v4h-2zm0 8h2v4h-2zm0 8h2v4h-2zm0 8h2v4h-2zm0 8h2v4h-2zm0 8h2v4h-2zm0 8h2v4h-2zm0 8h2v4h-2zm0 8h2v4h-2zm0 8h2v4h-2zm0 8h2v4h-2zm0 8h2v4h-2zm0 8h2v4h-2zm0 8h2v4h-2zm0 8h2v4h-2zm0 8h2v4h-2zm0 8h2v4h-2zm0 8h2v4h-2zm0 8h2v4h-2zm0 8h2v4h-2zm0 8h2v4h-2zm0 8h2v4h-2zm0 8h2v4h-2zm0 8h2v4h-2zm0 8h2v4h-2zm0 8h2v4h-2zm0 8h2v4h-2zm0 8h2v4h-2zm0 8h2v4h-2zm0 8h2v4h-2zm0 8h2v4h-2zm0 8h2v4h-2zm0 8h2v4h-2zm0 8h2v4h-2zm0 8h2v4h-2zm0 8h2v4h-2zm0 8h2v4h-2zm0 8h2v4h-2zm0 8h2v4h-2zm0 8h2v4h-2zm0 8h2v4h-2zm0 8h2v4h-2zm0 8h2v4h-2zm0 8h2v4h-2zm0 8h2v4h-2zm0 8h2v4h-2zm0 8h2v4h-2zm0 8h2v4h-2zm0 8h2v4h-2zm0 8h2v4h-2zm0 8h2v4h-2zm0 8h2v4h-2zm0 8h2v4h-2zm0 8h2v4h-2zm0 8h2v4h-2zm0 8h2v4h-2zm0 8h2v4h-2zm0 8h2v4h-2zm0 8h2v4h-2zm0 8h2v4h-2zm0 8h2v4h-2zm0 8h2v4h-2z"/>
  <path fill="#00B7C6" d="M1156 0h32v152h-32zm0 1024h32v152h-32z"/>
  <text x="1173" y="148" dy=".5ex" text-anchor="end" font-family="sans-serif" font-size="19.355" fill="#111315" transform="rotate(90 1173 148)">
camper
</text>
  <text x="1173" y="1028" dy=".5ex" font-family="sans-serif" font-size="19.355" fill="#111315" transform="rotate(90 1173 1028)">
camper
</text>
  <path fill="#F1F3F5" d="M1156 152h32v2h-32zm0 870h32v2h-32zm32-870h2v4h-2zm0 8h2v4h-2zm0 8h2v4h-2zm0 8h2v4h-2zm0 8h2v4h-2zm0 8h2v4h-2zm0 8h2v4h-2zm0 8h2v4h-2zm0 8h2v4h-2zm0 8h2v4h-2zm0 8h2v4h-2zm0 8h2v4h-2zm0 8h2v4h-2zm0 8h2v4h-2zm0 8h2v4h-2zm0 8h2v4h-2zm0 8h2v4h-2zm0 8h2v4h-2zm0 8h2v4h-2zm0 8h2v4h-2zm0 8h2v4h-2zm0 8h2v4h-2zm0 8h2v4h-2zm0 8h2v4h-2zm0 8h2v4h-2zm0 8h2v4h-2zm0 8h2v4h-2zm0 8h2v4h-2zm0 8h2v4h-2zm0 8h2v4h-2zm0 8h2v4h-2zm0 8h2v4h-2zm0 8h2v4h-2zm0 8h2v4h-2zm0 8h2v4h-2zm0 8h2v4h-2zm0 8h2v4h-2zm0 8h2v4h-2zm0 8h2v4h-2zm0 8h2v4h-2zm0 8h2v4h-2zm0 8h2v4h-2zm0 8h2v4h-2zm0 8h2v4h-2zm0 8h2v4h-2zm0 8h2v4h-2zm0 8h2v4h-2zm0 8h2v4h-2zm0 8h2v4h-2zm0 8h2v4h-2zm0 8h2v4h-2zm0 8h2v4h-2zm0 8h2v4h-2zm0 8h2v4h-2zm0 8h2v4h-2zm0 8h2v4h-2zm0 8h2v4h-2zm0 8h2v4h-2zm0 8h2v4h-2zm0 8h2v4h-2zm0 8h2v4h-2zm0 8h2v4h-2zm0 8h2v4h-2zm0 8h2v4h-2zm0 8h2v4h-2zm0 8h2v4h-2zm0 8h2v4h-2zm0 8h2v4h-2zm0 8h2v4h-2zm0 8h2v4h-2zm0 8h2v4h-2zm0 8h2v4h-2zm0 8h2v4h-2zm0 8h2v4h-2zm0 8h2v4h-2zm0 8h2v4h-2zm0 8h2v4h-2zm0 8h2v4h-2zm0 8h2v4h-2zm0 8h2v4h-2zm0 8h2v4h-2zm0 8h2v4h-2zm0 8h2v4h-2zm0 8h2v4h-2zm0 8h2v4h-2zm0 8h2v4h-2zm0 8h2v4h-2zm0 8h2v4h-2zm0 8h2v4h-2zm0 8h2v4h-2zm0 8h2v4h-2zm0 8h2v4h-2zm0 8h2v4h-2zm0 8h2v4h-2zm0 8h2v4h-2zm0 8h2v4h-2zm0 8h2v4h-2zm0 8h2v4h-2zm0 8h2v4h-2zm0 8h2v4h-2zm0 8h2v4h-2zm0 8h2v4h-2zm0 8h2v4h-2zm0 8h2v4h-2zm0 8h2v4h-2zm0 8h2v4h-2zm0 8h2v4h-2zm0 8h2v4h-2zm0 8h2v4h-2z"/>
  <path fill="#00C6B7" d="M1190 0h32v152h-32zm0 1024h32v152h-32z"/>
  <text x="1207" y="148" dy=".5ex" text-anchor="end" font-family="sans-serif" font-size="19.355" fill="#111315" transform="rotate(90 1207 148)">
STRlander
</text>
  <text x="1207" y="1028" dy=".5ex" font-family="sans-serif" font-size="19.355" fill="#111315" transform="rotate(90 1207 1028)">
STRlander
</text>
  <path fill="#F1F3F5" d="M1190 152h32v2h-32zm0 870h32v2h-32zm32-870h2v4h-2zm0 8h2v4h-2zm0 8h2v4h-2zm0 8h2v4h-2zm0 8h2v4h-2zm0 8h2v4h-2zm0 8h2v4h-2zm0 8h2v4h-2zm0 8h2v4h-2zm0 8h2v4h-2zm0 8h2v4h-2zm0 8h2v4h-2zm0 8h2v4h-2zm0 8h2v4h-2zm0 8h2v4h-2zm0 8h2v4h-2zm0 8h2v4h-2zm0 8h2v4h-2zm0 8h2v4h-2zm0 8h2v4h-2zm0 8h2v4h-2zm0 8h2v4h-2zm0 8h2v4h-2zm0 8h2v4h-2zm0 8h2v4h-2zm0 8h2v4h-2zm0 8h2v4h-2zm0 8h2v4h-2zm0 8h2v4h-2zm0 8h2v4h-2zm0 8h2v4h-2zm0 8h2v4h-2zm0 8h2v4h-2zm0 8h2v4h-2zm0 8h2v4h-2zm0 8h2v4h-2zm0 8h2v4h-2zm0 8h2v4h-2zm0 8h2v4h-2zm0 8h2v4h-2zm0 8h2v4h-2zm0 8h2v4h-2zm0 8h2v4h-2zm0 8h2v4h-2zm0 8h2v4h-2zm0 8h2v4h-2zm0 8h2v4h-2zm0 8h2v4h-2zm0 8h2v4h-2zm0 8h2v4h-2zm0 8h2v4h-2zm0 8h2v4h-2zm0 8h2v4h-2zm0 8h2v4h-2zm0 8h2v4h-2zm0 8h2v4h-2zm0 8h2v4h-2zm0 8h2v4h-2zm0 8h2v4h-2zm0 8h2v4h-2zm0 8h2v4h-2zm0 8h2v4h-2zm0 8h2v4h-2zm0 8h2v4h-2zm0 8h2v4h-2zm0 8h2v4h-2zm0 8h2v4h-2zm0 8h2v4h-2zm0 8h2v4h-2zm0 8h2v4h-2zm0 8h2v4h-2zm0 8h2v4h-2zm0 8h2v4h-2zm0 8h2v4h-2zm0 8h2v4h-2zm0 8h2v4h-2zm0 8h2v4h-2zm0 8h2v4h-2zm0 8h2v4h-2zm0 8h2v4h-2zm0 8h2v4h-2zm0 8h2v4h-2zm0 8h2v4h-2zm0 8h2v4h-2zm0 8h2v4h-2zm0 8h2v4h-2zm0 8h2v4h-2zm0 8h2v4h-2zm0 8h2v4h-2zm0 8h2v4h-2zm0 8h2v4h-2zm0 8h2v4h-2zm0 8h2v4h-2zm0 8h2v4h-2zm0 8h2v4h-2zm0 8h2v4h-2zm0 8h2v4h-2zm0 8h2v4h-2zm0 8h2v4h-2zm0 8h2v4h-2zm0 8h2v4h-2zm0 8h2v4h-2zm0 8h2v4h-2zm0 8h2v4h-2zm0 8h2v4h-2zm0 8h2v4h-2zm0 8h2v4h-2zm0 8h2v4h-2zm0 8h2v4h-2z"/>
  <path fill="#02D4A7" d="M1224 0h32v152h-32zm0 1024h32v152h-32z"/>
  <text x="1241" y="148" dy=".5ex" text-anchor="end" font-family="sans-serif" font-size="19.355" fill="#111315" transform="rotate(90 1241 148)">
magelander
</text>
  <text x="1241" y="1028" dy=".5ex" font-family="sans-serif" font-size="19.355" fill="#111315" transform="rotate(90 1241 1028)">
magelander
</text>
  <path fill="#F1F3F5" d="M1224 152h32v2h-32zm0 870h32v2h-32zm32-870h2v4h-2zm0 8h2v4h-2zm0 8h2v4h-2zm0 8h2v4h-2zm0 8h2v4h-2zm0 8h2v4h-2zm0 8h2v4h-2zm0 8h2v4h-2zm0 8h2v4h-2zm0 8h2v4h-2zm0 8h2v4h-2zm0 8h2v4h-2zm0 8h2v4h-2zm0 8h2v4h-2zm0 8h2v4h-2zm0 8h2v4h-2zm0 8h2v4h-2zm0 8h2v4h-2zm0 8h2v4h-2zm0 8h2v4h-2zm0 8h2v4h-2zm0 8h2v4h-2zm0 8h2v4h-2zm0 8h2v4h-2zm0 8h2v4h-2zm0 8h2v4h-2zm0 8h2v4h-2zm0 8h2v4h-2zm0 8h2v4h-2zm0 8h2v4h-2zm0 8h2v4h-2zm0 8h2v4h-2zm0 8h2v4h-2zm0 8h2v4h-2zm0 8h2v4h-2zm0 8h2v4h-2zm0 8h2v4h-2zm0 8h2v4h-2zm0 8h2v4h-2zm0 8h2v4h-2zm0 8h2v4h-2zm0 8h2v4h-2zm0 8h2v4h-2zm0 8h2v4h-2zm0 8h2v4h-2zm0 8h2v4h-2zm0 8h2v4h-2zm0 8h2v4h-2zm0 8h2v4h-2zm0 8h2v4h-2zm0 8h2v4h-2zm0 8h2v4h-2zm0 8h2v4h-2zm0 8h2v4h-2zm0 8h2v4h-2zm0 8h2v4h-2zm0 8h2v4h-2zm0 8h2v4h-2zm0 8h2v4h-2zm0 8h2v4h-2zm0 8h2v4h-2zm0 8h2v4h-2zm0 8h2v4h-2zm0 8h2v4h-2zm0 8h2v4h-2zm0 8h2v4h-2zm0 8h2v4h-2zm0 8h2v4h-2zm0 8h2v4h-2zm0 8h2v4h-2zm0 8h2v4h-2zm0 8h2v4h-2zm0 8h2v4h-2zm0 8h2v4h-2zm0 8h2v4h-2zm0 8h2v4h-2zm0 8h2v4h-2zm0 8h2v4h-2zm0 8h2v4h-2zm0 8h2v4h-2zm0 8h2v4h-2zm0 8h2v4h-2zm0 8h2v4h-2zm0 8h2v4h-2zm0 8h2v4h-2zm0 8h2v4h-2zm0 8h2v4h-2zm0 8h2v4h-2zm0 8h2v4h-2zm0 8h2v4h-2zm0 8h2v4h-2zm0 8h2v4h-2zm0 8h2v4h-2zm0 8h2v4h-2zm0 8h2v4h-2zm0 8h2v4h-2zm0 8h2v4h-2zm0 8h2v4h-2zm0 8h2v4h-2zm0 8h2v4h-2zm0 8h2v4h-2zm0 8h2v4h-2zm0 8h2v4h-2zm0 8h2v4h-2zm0 8h2v4h-2zm0 8h2v4h-2zm0 8h2v4h-2zm0 8h2v4h-2zm0 8h2v4h-2z"/>
  <path fill="#07E096" d="M1258 0h32v152h-32zm0 1024h32v152h-32z"/>
  <text x="1275" y="148" dy=".5ex" text-anchor="end" font-family="sans-serif" font-size="19.355" fill="#111315" transform="rotate(90 1275 148)">
wandginner
</text>
  <text x="1275" y="1028" dy=".5ex" font-family="sans-serif" font-size="19.355" fill="#111315" transform="rotate(90 1275 1028)">
wandginner
</text>
  <path fill="#F1F3F5" d="M1258 152h32v2h-32zm0 870h32v2h-32zm32-870h2v4h-2zm0 8h2v4h-2zm0 8h2v4h-2zm0 8h2v4h-2zm0 8h2v4h-2zm0 8h2v4h-2zm0 8h2v4h-2zm0 8h2v4h-2zm0 8h2v4h-2zm0 8h2v4h-2zm0 8h2v4h-2zm0 8h2v4h-2zm0 8h2v4h-2zm0 8h2v4h-2zm0 8h2v4h-2zm0 8h2v4h-2zm0 8h2v4h-2zm0 8h2v4h-2zm0 8h2v4h-2zm0 8h2v4h-2zm0 8h2v4h-2zm0 8h2v4h-2zm0 8h2v4h-2zm0 8h2v4h-2zm0 8h2v4h-2zm0 8h2v4h-2zm0 8h2v4h-2zm0 8h2v4h-2zm0 8h2v4h-2zm0 8h2v4h-2zm0 8h2v4h-2zm0 8h2v4h-2zm0 8h2v4h-2zm0 8h2v4h-2zm0 8h2v4h-2zm0 8h2v4h-2zm0 8h2v4h-2zm0 8h2v4h-2zm0 8h2v4h-2zm0 8h2v4h-2zm0 8h2v4h-2zm0 8h2v4h-2zm0 8h2v4h-2zm0 8h2v4h-2zm0 8h2v4h-2zm0 8h2v4h-2zm0 8h2v4h-2zm0 8h2v4h-2zm0 8h2v4h-2zm0 8h2v4h-2zm0 8h2v4h-2zm0 8h2v4h-2zm0 8h2v4h-2zm0 8h2v4h-2zm0 8h2v4h-2zm0 8h2v4h-2zm0 8h2v4h-2zm0 8h2v4h-2zm0 8h2v4h-2zm0 8h2v4h-2zm0 8h2v4h-2zm0 8h2v4h-2zm0 8h2v4h-2zm0 8h2v4h-2zm0 8h2v4h-2zm0 8h2v4h-2zm0 8h2v4h-2zm0 8h2v4h-2zm0 8h2v4h-2zm0 8h2v4h-2zm0 8h2v4h-2zm0 8h2v4h-2zm0 8h2v4h-2zm0 8h2v4h-2zm0 8h2v4h-2zm0 8h2v4h-2zm0 8h2v4h-2zm0 8h2v4h-2zm0 8h2v4h-2zm0 8h2v4h-2zm0 8h2v4h-2zm0 8h2v4h-2zm0 8h2v4h-2zm0 8h2v4h-2zm0 8h2v4h-2zm0 8h2v4h-2zm0 8h2v4h-2zm0 8h2v4h-2zm0 8h2v4h-2zm0 8h2v4h-2zm0 8h2v4h-2zm0 8h2v4h-2zm0 8h2v4h-2zm0 8h2v4h-2zm0 8h2v4h-2zm0 8h2v4h-2zm0 8h2v4h-2zm0 8h2v4h-2zm0 8h2v4h-2zm0 8h2v4h-2zm0 8h2v4h-2zm0 8h2v4h-2zm0 8h2v4h-2zm0 8h2v4h-2zm0 8h2v4h-2zm0 8h2v4h-2zm0 8h2v4h-2zm0 8h2v4h-2zm0 8h2v4h-2z"/>
  <path fill="#0EEA85" d="M1292 0h32v152h-32zm0 1024h32v152h-32z"/>
  <text x="1309" y="148" dy=".5ex" text-anchor="end" font-family="sans-serif" font-size="19.355" fill="#111315" transform="rotate(90 1309 148)">
grim reaper
</text>
  <text x="1309" y="1028" dy=".5ex" font-family="sans-serif" font-size="19.355" fill="#111315" transform="rotate(90 1309 1028)">
grim reaper
</text>
  <path fill="#F1F3F5" d="M1292 152h32v2h-32zm0 870h32v2h-32zm32-870h2v4h-2zm0 8h2v4h-2zm0 8h2v4h-2zm0 8h2v4h-2zm0 8h2v4h-2zm0 8h2v4h-2zm0 8h2v4h-2zm0 8h2v4h-2zm0 8h2v4h-2zm0 8h2v4h-2zm0 8h2v4h-2zm0 8h2v4h-2zm0 8h2v4h-2zm0 8h2v4h-2zm0 8h2v4h-2zm0 8h2v4h-2zm0 8h2v4h-2zm0 8h2v4h-2zm0 8h2v4h-2zm0 8h2v4h-2zm0 8h2v4h-2zm0 8h2v4h-2zm0 8h2v4h-2zm0 8h2v4h-2zm0 8h2v4h-2zm0 8h2v4h-2zm0 8h2v4h-2zm0 8h2v4h-2zm0 8h2v4h-2zm0 8h2v4h-2zm0 8h2v4h-2zm0 8h2v4h-2zm0 8h2v4h-2zm0 8h2v4h-2zm0 8h2v4h-2zm0 8h2v4h-2zm0 8h2v4h-2zm0 8h2v4h-2zm0 8h2v4h-2zm0 8h2v4h-2zm0 8h2v4h-2zm0 8h2v4h-2zm0 8h2v4h-2zm0 8h2v4h-2zm0 8h2v4h-2zm0 8h2v4h-2zm0 8h2v4h-2zm0 8h2v4h-2zm0 8h2v4h-2zm0 8h2v4h-2zm0 8h2v4h-2zm0 8h2v4h-2zm0 8h2v4h-2zm0 8h2v4h-2zm0 8h2v4h-2zm0 8h2v4h-2zm0 8h2v4h-2zm0 8h2v4h-2zm0 8h2v4h-2zm0 8h2v4h-2zm0 8h2v4h-2zm0 8h2v4h-2zm0 8h2v4h-2zm0 8h2v4h-2zm0 8h2v4h-2zm0 8h2v4h-2zm0 8h2v4h-2zm0 8h2v4h-2zm0 8h2v4h-2zm0 8h2v4h-2zm0 8h2v4h-2zm0 8h2v4h-2zm0 8h2v4h-2zm0 8h2v4h-2zm0 8h2v4h-2zm0 8h2v4h-2zm0 8h2v4h-2zm0 8h2v4h-2zm0 8h2v4h-2zm0 8h2v4h-2zm0 8h2v4h-2zm0 8h2v4h-2zm0 8h2v4h-2zm0 8h2v4h-2zm0 8h2v4h-2zm0 8h2v4h-2zm0 8h2v4h-2zm0 8h2v4h-2zm0 8h2v4h-2zm0 8h2v4h-2zm0 8h2v4h-2zm0 8h2v4h-2zm0 8h2v4h-2zm0 8h2v4h-2zm0 8h2v4h-2zm0 8h2v4h-2zm0 8h2v4h-2zm0 8h2v4h-2zm0 8h2v4h-2zm0 8h2v4h-2zm0 8h2v4h-2zm0 8h2v4h-2zm0 8h2v4h-2zm0 8h2v4h-2zm0 8h2v4h-2zm0 8h2v4h-2zm0 8h2v4h-2zm0 8h2v4h-2zm0 8h2v4h-2z"/>
  <path fill="#17F373" d="M1326 0h32v152h-32zm0 1024h32v152h-32z"/>
  <text x="1343" y="148" dy=".5ex" text-anchor="end" font-family="sans-serif" font-size="19.355" fill="#111315" transform="rotate(90 1343 148)">
carpenter
</text>
  <text x="1343" y="1028" dy=".5ex" font-family="sans-serif" font-size="19.355" fill="#111315" transform="rotate(90 1343 1028)">
carpenter
</text>
  <path fill="#F1F3F5" d="M1326 152h32v2h-32zm0 870h32v2h-32zm32-870h2v4h-2zm0 8h2v4h-2zm0 8h2v4h-2zm0 8h2v4h-2zm0 8h2v4h-2zm0 8h2v4h-2zm0 8h2v4h-2zm0 8h2v4h-2zm0 8h2v4h-2zm0 8h2v4h-2zm0 8h2v4h-2zm0 8h2v4h-2zm0 8h2v4h-2zm0 8h2v4h-2zm0 8h2v4h-2zm0 8h2v4h-2zm0 8h2v4h-2zm0 8h2v4h-2zm0 8h2v4h-2zm0 8h2v4h-2zm0 8h2v4h-2zm0 8h2v4h-2zm0 8h2v4h-2zm0 8h2v4h-2zm0 8h2v4h-2zm0 8h2v4h-2zm0 8h2v4h-2zm0 8h2v4h-2zm0 8h2v4h-2zm0 8h2v4h-2zm0 8h2v4h-2zm0 8h2v4h-2zm0 8h2v4h-2zm0 8h2v4h-2zm0 8h2v4h-2zm0 8h2v4h-2zm0 8h2v4h-2zm0 8h2v4h-2zm0 8h2v4h-2zm0 8h2v4h-2zm0 8h2v4h-2zm0 8h2v4h-2zm0 8h2v4h-2zm0 8h2v4h-2zm0 8h2v4h-2zm0 8h2v4h-2zm0 8h2v4h-2zm0 8h2v4h-2zm0 8h2v4h-2zm0 8h2v4h-2zm0 8h2v4h-2zm0 8h2v4h-2zm0 8h2v4h-2zm0 8h2v4h-2zm0 8h2v4h-2zm0 8h2v4h-2zm0 8h2v4h-2zm0 8h2v4h-2zm0 8h2v4h-2zm0 8h2v4h-2zm0 8h2v4h-2zm0 8h2v4h-2zm0 8h2v4h-2zm0 8h2v4h-2zm0 8h2v4h-2zm0 8h2v4h-2zm0 8h2v4h-2zm0 8h2v4h-2zm0 8h2v4h-2zm0 8h2v4h-2zm0 8h2v4h-2zm0 8h2v4h-2zm0 8h2v4h-2zm0 8h2v4h-2zm0 8h2v4h-2zm0 8h2v4h-2zm0 8h2v4h-2zm0 8h2v4h-2zm0 8h2v4h-2zm0 8h2v4h-2zm0 8h2v4h-2zm0 8h2v4h-2zm0 8h2v4h-2zm0 8h2v4h-2zm0 8h2v4h-2zm0 8h2v4h-2zm0 8h2v4h-2zm0 8h2v4h-2zm0 8h2v4h-2zm0 8h2v4h-2zm0 8h2v4h-2zm0 8h2v4h-2zm0 8h2v4h-2zm0 8h2v4h-2zm0 8h2v4h-2zm0 8h2v4h-2zm0 8h2v4h-2zm0 8h2v4h-2zm0 8h2v4h-2zm0 8h2v4h-2zm0 8h2v4h-2zm0 8h2v4h-2zm0 8h2v4h-2zm0 8h2v4h-2zm0 8h2v4h-2zm0 8h2v4h-2zm0 8h2v4h-2zm0 8h2v4h-2zm0 8h2v4h-2z"/>
  <path fill="#22F962" d="M1360 0h32v152h-32zm0 1024h32v152h-32z"/>
  <text x="1377" y="148" dy=".5ex" text-anchor="end" font-family="sans-serif" font-size="19.355" fill="#111315" transform="rotate(90 1377 148)">
pugilist
</text>
  <text x="1377" y="1028" dy=".5ex" font-family="sans-serif" font-size="19.355" fill="#111315" transform="rotate(90 1377 1028)">
pugilist
</text>
  <path fill="#F1F3F5" d="M1360 152h32v2h-32zm0 870h32v2h-32zm32-870h2v4h-2zm0 8h2v4h-2zm0 8h2v4h-2zm0 8h2v4h-2zm0 8h2v4h-2zm0 8h2v4h-2zm0 8h2v4h-2zm0 8h2v4h-2zm0 8h2v4h-2zm0 8h2v4h-2zm0 8h2v4h-2zm0 8h2v4h-2zm0 8h2v4h-2zm0 8h2v4h-2zm0 8h2v4h-2zm0 8h2v4h-2zm0 8h2v4h-2zm0 8h2v4h-2zm0 8h2v4h-2zm0 8h2v4h-2zm0 8h2v4h-2zm0 8h2v4h-2zm0 8h2v4h-2zm0 8h2v4h-2zm0 8h2v4h-2zm0 8h2v4h-2zm0 8h2v4h-2zm0 8h2v4h-2zm0 8h2v4h-2zm0 8h2v4h-2zm0 8h2v4h-2zm0 8h2v4h-2zm0 8h2v4h-2zm0 8h2v4h-2zm0 8h2v4h-2zm0 8h2v4h-2zm0 8h2v4h-2zm0 8h2v4h-2zm0 8h2v4h-2zm0 8h2v4h-2zm0 8h2v4h-2zm0 8h2v4h-2zm0 8h2v4h-2zm0 8h2v4h-2zm0 8h2v4h-2zm0 8h2v4h-2zm0 8h2v4h-2zm0 8h2v4h-2zm0 8h2v4h-2zm0 8h2v4h-2zm0 8h2v4h-2zm0 8h2v4h-2zm0 8h2v4h-2zm0 8h2v4h-2zm0 8h2v4h-2zm0 8h2v4h-2zm0 8h2v4h-2zm0 8h2v4h-2zm0 8h2v4h-2zm0 8h2v4h-2zm0 8h2v4h-2zm0 8h2v4h-2zm0 8h2v4h-2zm0 8h2v4h-2zm0 8h2v4h-2zm0 8h2v4h-2zm0 8h2v4h-2zm0 8h2v4h-2zm0 8h2v4h-2zm0 8h2v4h-2zm0 8h2v4h-2zm0 8h2v4h-2zm0 8h2v4h-2zm0 8h2v4h-2zm0 8h2v4h-2zm0 8h2v4h-2zm0 8h2v4h-2zm0 8h2v4h-2zm0 8h2v4h-2zm0 8h2v4h-2zm0 8h2v4h-2zm0 8h2v4h-2zm0 8h2v4h-2zm0 8h2v4h-2zm0 8h2v4h-2zm0 8h2v4h-2zm0 8h2v4h-2zm0 8h2v4h-2zm0 8h2v4h-2zm0 8h2v4h-2zm0 8h2v4h-2zm0 8h2v4h-2zm0 8h2v4h-2zm0 8h2v4h-2zm0 8h2v4h-2zm0 8h2v4h-2zm0 8h2v4h-2zm0 8h2v4h-2zm0 8h2v4h-2zm0 8h2v4h-2zm0 8h2v4h-2zm0 8h2v4h-2zm0 8h2v4h-2zm0 8h2v4h-2zm0 8h2v4h-2zm0 8h2v4h-2zm0 8h2v4h-2zm0 8h2v4h-2zm0 8h2v4h-2z"/>
  <path fill="#2FFD52" d="M1394 0h32v152h-32zm0 1024h32v152h-32z"/>
  <text x="1411" y="148" dy=".5ex" text-anchor="end" font-family="sans-serif" font-size="19.355" fill="#111315" transform="rotate(90 1411 148)">
claw-puncher
</text>
  <text x="1411" y="1028" dy=".5ex" font-family="sans-serif" font-size="19.355" fill="#111315" transform="rotate(90 1411 1028)">
claw-puncher
</text>
  <path fill="#F1F3F5" d="M1394 152h32v2h-32zm0 870h32v2h-32zm32-870h2v4h-2zm0 8h2v4h-2zm0 8h2v4h-2zm0 8h2v4h-2zm0 8h2v4h-2zm0 8h2v4h-2zm0 8h2v4h-2zm0 8h2v4h-2zm0 8h2v4h-2zm0 8h2v4h-2zm0 8h2v4h-2zm0 8h2v4h-2zm0 8h2v4h-2zm0 8h2v4h-2zm0 8h2v4h-2zm0 8h2v4h-2zm0 8h2v4h-2zm0 8h2v4h-2zm0 8h2v4h-2zm0 8h2v4h-2zm0 8h2v4h-2zm0 8h2v4h-2zm0 8h2v4h-2zm0 8h2v4h-2zm0 8h2v4h-2zm0 8h2v4h-2zm0 8h2v4h-2zm0 8h2v4h-2zm0 8h2v4h-2zm0 8h2v4h-2zm0 8h2v4h-2zm0 8h2v4h-2zm0 8h2v4h-2zm0 8h2v4h-2zm0 8h2v4h-2zm0 8h2v4h-2zm0 8h2v4h-2zm0 8h2v4h-2zm0 8h2v4h-2zm0 8h2v4h-2zm0 8h2v4h-2zm0 8h2v4h-2zm0 8h2v4h-2zm0 8h2v4h-2zm0 8h2v4h-2zm0 8h2v4h-2zm0 8h2v4h-2zm0 8h2v4h-2zm0 8h2v4h-2zm0 8h2v4h-2zm0 8h2v4h-2zm0 8h2v4h-2zm0 8h2v4h-2zm0 8h2v4h-2zm0 8h2v4h-2zm0 8h2v4h-2zm0 8h2v4h-2zm0 8h2v4h-2zm0 8h2v4h-2zm0 8h2v4h-2zm0 8h2v4h-2zm0 8h2v4h-2zm0 8h2v4h-2zm0 8h2v4h-2zm0 8h2v4h-2zm0 8h2v4h-2zm0 8h2v4h-2zm0 8h2v4h-2zm0 8h2v4h-2zm0 8h2v4h-2zm0 8h2v4h-2zm0 8h2v4h-2zm0 8h2v4h-2zm0 8h2v4h-2zm0 8h2v4h-2zm0 8h2v4h-2zm0 8h2v4h-2zm0 8h2v4h-2zm0 8h2v4h-2zm0 8h2v4h-2zm0 8h2v4h-2zm0 8h2v4h-2zm0 8h2v4h-2zm0 8h2v4h-2zm0 8h2v4h-2zm0 8h2v4h-2zm0 8h2v4h-2zm0 8h2v4h-2zm0 8h2v4h-2zm0 8h2v4h-2zm0 8h2v4h-2zm0 8h2v4h-2zm0 8h2v4h-2zm0 8h2v4h-2zm0 8h2v4h-2zm0 8h2v4h-2zm0 8h2v4h-2zm0 8h2v4h-2zm0 8h2v4h-2zm0 8h2v4h-2zm0 8h2v4h-2zm0 8h2v4h-2zm0 8h2v4h-2zm0 8h2v4h-2zm0 8h2v4h-2zm0 8h2v4h-2zm0 8h2v4h-2zm0 8h2v4h-2zm0 8h2v4h-2z"/>
  <path fill="#3DFE42" d="M1428 0h32v152h-32zm0 1024h32v152h-32z"/>
  <text x="1445" y="148" dy=".5ex" text-anchor="end" font-family="sans-serif" font-size="19.355" fill="#111315" transform="rotate(90 1445 148)">
bow-whacker
</text>
  <text x="1445" y="1028" dy=".5ex" font-family="sans-serif" font-size="19.355" fill="#111315" transform="rotate(90 1445 1028)">
bow-whacker
</text>
  <path fill="#F1F3F5" d="M1428 152h32v2h-32zm0 870h32v2h-32zm32-870h2v4h-2zm0 8h2v4h-2zm0 8h2v4h-2zm0 8h2v4h-2zm0 8h2v4h-2zm0 8h2v4h-2zm0 8h2v4h-2zm0 8h2v4h-2zm0 8h2v4h-2zm0 8h2v4h-2zm0 8h2v4h-2zm0 8h2v4h-2zm0 8h2v4h-2zm0 8h2v4h-2zm0 8h2v4h-2zm0 8h2v4h-2zm0 8h2v4h-2zm0 8h2v4h-2zm0 8h2v4h-2zm0 8h2v4h-2zm0 8h2v4h-2zm0 8h2v4h-2zm0 8h2v4h-2zm0 8h2v4h-2zm0 8h2v4h-2zm0 8h2v4h-2zm0 8h2v4h-2zm0 8h2v4h-2zm0 8h2v4h-2zm0 8h2v4h-2zm0 8h2v4h-2zm0 8h2v4h-2zm0 8h2v4h-2zm0 8h2v4h-2zm0 8h2v4h-2zm0 8h2v4h-2zm0 8h2v4h-2zm0 8h2v4h-2zm0 8h2v4h-2zm0 8h2v4h-2zm0 8h2v4h-2zm0 8h2v4h-2zm0 8h2v4h-2zm0 8h2v4h-2zm0 8h2v4h-2zm0 8h2v4h-2zm0 8h2v4h-2zm0 8h2v4h-2zm0 8h2v4h-2zm0 8h2v4h-2zm0 8h2v4h-2zm0 8h2v4h-2zm0 8h2v4h-2zm0 8h2v4h-2zm0 8h2v4h-2zm0 8h2v4h-2zm0 8h2v4h-2zm0 8h2v4h-2zm0 8h2v4h-2zm0 8h2v4h-2zm0 8h2v4h-2zm0 8h2v4h-2zm0 8h2v4h-2zm0 8h2v4h-2zm0 8h2v4h-2zm0 8h2v4h-2zm0 8h2v4h-2zm0 8h2v4h-2zm0 8h2v4h-2zm0 8h2v4h-2zm0 8h2v4h-2zm0 8h2v4h-2zm0 8h2v4h-2zm0 8h2v4h-2zm0 8h2v4h-2zm0 8h2v4h-2zm0 8h2v4h-2zm0 8h2v4h-2zm0 8h2v4h-2zm0 8h2v4h-2zm0 8h2v4h-2zm0 8h2v4h-2zm0 8h2v4h-2zm0 8h2v4h-2zm0 8h2v4h-2zm0 8h2v4h-2zm0 8h2v4h-2zm0 8h2v4h-2zm0 8h2v4h-2zm0 8h2v4h-2zm0 8h2v4h-2zm0 8h2v4h-2zm0 8h2v4h-2zm0 8h2v4h-2zm0 8h2v4h-2zm0 8h2v4h-2zm0 8h2v4h-2zm0 8h2v4h-2zm0 8h2v4h-2zm0 8h2v4h-2zm0 8h2v4h-2zm0 8h2v4h-2zm0 8h2v4h-2zm0 8h2v4h-2zm0 8h2v4h-2zm0 8h2v4h-2zm0 8h2v4h-2zm0 8h2v4h-2zm0 8h2v4h-2z"/>
  <path fill="#4CFE33" d="M1462 0h32v152h-32zm0 1024h32v152h-32z"/>
  <text x="1479" y="148" dy=".5ex" text-anchor="end" font-family="sans-serif" font-size="19.355" fill="#111315" transform="rotate(90 1479 148)">
pistol-whipper
</text>
  <text x="1479" y="1028" dy=".5ex" font-family="sans-serif" font-size="19.355" fill="#111315" transform="rotate(90 1479 1028)">
pistol-whipper
</text>
  <path fill="#F1F3F5" d="M1462 152h32v2h-32zm0 870h32v2h-32zm32-870h2v4h-2zm0 8h2v4h-2zm0 8h2v4h-2zm0 8h2v4h-2zm0 8h2v4h-2zm0 8h2v4h-2zm0 8h2v4h-2zm0 8h2v4h-2zm0 8h2v4h-2zm0 8h2v4h-2zm0 8h2v4h-2zm0 8h2v4h-2zm0 8h2v4h-2zm0 8h2v4h-2zm0 8h2v4h-2zm0 8h2v4h-2zm0 8h2v4h-2zm0 8h2v4h-2zm0 8h2v4h-2zm0 8h2v4h-2zm0 8h2v4h-2zm0 8h2v4h-2zm0 8h2v4h-2zm0 8h2v4h-2zm0 8h2v4h-2zm0 8h2v4h-2zm0 8h2v4h-2zm0 8h2v4h-2zm0 8h2v4h-2zm0 8h2v4h-2zm0 8h2v4h-2zm0 8h2v4h-2zm0 8h2v4h-2zm0 8h2v4h-2zm0 8h2v4h-2zm0 8h2v4h-2zm0 8h2v4h-2zm0 8h2v4h-2zm0 8h2v4h-2zm0 8h2v4h-2zm0 8h2v4h-2zm0 8h2v4h-2zm0 8h2v4h-2zm0 8h2v4h-2zm0 8h2v4h-2zm0 8h2v4h-2zm0 8h2v4h-2zm0 8h2v4h-2zm0 8h2v4h-2zm0 8h2v4h-2zm0 8h2v4h-2zm0 8h2v4h-2zm0 8h2v4h-2zm0 8h2v4h-2zm0 8h2v4h-2zm0 8h2v4h-2zm0 8h2v4h-2zm0 8h2v4h-2zm0 8h2v4h-2zm0 8h2v4h-2zm0 8h2v4h-2zm0 8h2v4h-2zm0 8h2v4h-2zm0 8h2v4h-2zm0 8h2v4h-2zm0 8h2v4h-2zm0 8h2v4h-2zm0 8h2v4h-2zm0 8h2v4h-2zm0 8h2v4h-2zm0 8h2v4h-2zm0 8h2v4h-2zm0 8h2v4h-2zm0 8h2v4h-2zm0 8h2v4h-2zm0 8h2v4h-2zm0 8h2v4h-2zm0 8h2v4h-2zm0 8h2v4h-2zm0 8h2v4h-2zm0 8h2v4h-2zm0 8h2v4h-2zm0 8h2v4h-2zm0 8h2v4h-2zm0 8h2v4h-2zm0 8h2v4h-2zm0 8h2v4h-2zm0 8h2v4h-2zm0 8h2v4h-2zm0 8h2v4h-2zm0 8h2v4h-2zm0 8h2v4h-2zm0 8h2v4h-2zm0 8h2v4h-2zm0 8h2v4h-2zm0 8h2v4h-2zm0 8h2v4h-2zm0 8h2v4h-2zm0 8h2v4h-2zm0 8h2v4h-2zm0 8h2v4h-2zm0 8h2v4h-2zm0 8h2v4h-2zm0 8h2v4h-2zm0 8h2v4h-2zm0 8h2v4h-2zm0 8h2v4h-2zm0 8h2v4h-2zm0 8h2v4h-2z"/>
  <path fill="#5DFB26" d="M1496 0h32v152h-32zm0 1024h32v152h-32z"/>
  <text x="1513" y="148" dy=".5ex" text-anchor="end" font-family="sans-serif" font-size="19.355" fill="#111315" transform="rotate(90 1513 148)">
HP warrior
</text>
  <text x="1513" y="1028" dy=".5ex" font-family="sans-serif" font-size="19.355" fill="#111315" transform="rotate(90 1513 1028)">
HP warrior
</text>
  <path fill="#F1F3F5" d="M1496 152h32v2h-32zm0 870h32v2h-32zm32-870h2v4h-2zm0 8h2v4h-2zm0 8h2v4h-2zm0 8h2v4h-2zm0 8h2v4h-2zm0 8h2v4h-2zm0 8h2v4h-2zm0 8h2v4h-2zm0 8h2v4h-2zm0 8h2v4h-2zm0 8h2v4h-2zm0 8h2v4h-2zm0 8h2v4h-2zm0 8h2v4h-2zm0 8h2v4h-2zm0 8h2v4h-2zm0 8h2v4h-2zm0 8h2v4h-2zm0 8h2v4h-2zm0 8h2v4h-2zm0 8h2v4h-2zm0 8h2v4h-2zm0 8h2v4h-2zm0 8h2v4h-2zm0 8h2v4h-2zm0 8h2v4h-2zm0 8h2v4h-2zm0 8h2v4h-2zm0 8h2v4h-2zm0 8h2v4h-2zm0 8h2v4h-2zm0 8h2v4h-2zm0 8h2v4h-2zm0 8h2v4h-2zm0 8h2v4h-2zm0 8h2v4h-2zm0 8h2v4h-2zm0 8h2v4h-2zm0 8h2v4h-2zm0 8h2v4h-2zm0 8h2v4h-2zm0 8h2v4h-2zm0 8h2v4h-2zm0 8h2v4h-2zm0 8h2v4h-2zm0 8h2v4h-2zm0 8h2v4h-2zm0 8h2v4h-2zm0 8h2v4h-2zm0 8h2v4h-2zm0 8h2v4h-2zm0 8h2v4h-2zm0 8h2v4h-2zm0 8h2v4h-2zm0 8h2v4h-2zm0 8h2v4h-2zm0 8h2v4h-2zm0 8h2v4h-2zm0 8h2v4h-2zm0 8h2v4h-2zm0 8h2v4h-2zm0 8h2v4h-2zm0 8h2v4h-2zm0 8h2v4h-2zm0 8h2v4h-2zm0 8h2v4h-2zm0 8h2v4h-2zm0 8h2v4h-2zm0 8h2v4h-2zm0 8h2v4h-2zm0 8h2v4h-2zm0 8h2v4h-2zm0 8h2v4h-2zm0 8h2v4h-2zm0 8h2v4h-2zm0 8h2v4h-2zm0 8h2v4h-2zm0 8h2v4h-2zm0 8h2v4h-2zm0 8h2v4h-2zm0 8h2v4h-2zm0 8h2v4h-2zm0 8h2v4h-2zm0 8h2v4h-2zm0 8h2v4h-2zm0 8h2v4h-2zm0 8h2v4h-2zm0 8h2v4h-2zm0 8h2v4h-2zm0 8h2v4h-2zm0 8h2v4h-2zm0 8h2v4h-2zm0 8h2v4h-2zm0 8h2v4h-2zm0 8h2v4h-2zm0 8h2v4h-2zm0 8h2v4h-2zm0 8h2v4h-2zm0 8h2v4h-2zm0 8h2v4h-2zm0 8h2v4h-2zm0 8h2v4h-2zm0 8h2v4h-2zm0 8h2v4h-2zm0 8h2v4h-2zm0 8h2v4h-2zm0 8h2v4h-2zm0 8h2v4h-2zm0 8h2v4h-2z"/>
  <path fill="#6EF51A" d="M1530 0h32v152h-32zm0 1024h32v152h-32z"/>
  <text x="1547" y="148" dy=".5ex" text-anchor="end" font-family="sans-serif" font-size="19.355" fill="#111315" transform="rotate(90 1547 148)">
blood dit
</text>
  <text x="1547" y="1028" dy=".5ex" font-family="sans-serif" font-size="19.355" fill="#111315" transform="rotate(90 1547 1028)">
blood dit
</text>
  <path fill="#F1F3F5" d="M1530 152h32v2h-32zm0 870h32v2h-32z"/>
  <path fill="#0EBEBF" d="M1024 158h24v32h-24z"/>
  <path fill="#0EBEBF" d="M1025 170h226v8h-226z"/>
  <path fill="#0EBEBF" d="M1047 164v20l9-10zm182 0v20l-9-10z"/>
  <path fill="#0EBEBF" d="M1228 158h30v32h-30z"/>
  <path fill="#0EBEBF" d="M1025 170h260v8h-260z"/>
  <path fill="#0EBEBF" d="M1047 164v20l9-10zm216 0v20l-9-10z"/>
  <path fill="#0EBEBF" d="M1256 158h30v32h-30z"/>
  <text x="1232" y="174" dy=".5ex" font-family="sans-serif" font-size="9.677" fill="#111315">
wanded
</text>
  <path fill="#1882EB" d="M990 194h30v32h-30z"/>
  <path fill="#1882EB" d="M1018 194h30v32h-30z"/>
  <path fill="#1882EB" d="M1025 206h124v8h-124z"/>
  <path fill="#1882EB" d="M1047 200v20l9-10zm80 0v20l-9-10z"/>
  <path fill="#1882EB" d="M1126 194h24v32h-24z"/>
  <text x="994" y="205" dy=".5ex" font-family="sans-serif" font-size="9.677" fill="#F1F3F5">
power 
</text>
  <text x="994" y="215" dy=".5ex" font-family="sans-serif" font-size="9.677" fill="#F1F3F5">
striker
</text>
  <path fill="#19F274" d="M1296 230h30v32h-30z"/>
  <path fill="#19F274" d="M1324 230h36v32h-36z"/>
  <path fill="#19F274" d="M1358 230h30v32h-30z"/>
  <text x="1300" y="241" dy=".5ex" font-family="sans-serif" font-size="9.677" fill="#111315">
uniquely 
</text>
  <text x="1300" y="251" dy=".5ex" font-family="sans-serif" font-size="9.677" fill="#111315">
weaponed
</text>
  <path fill="#1D6BF6" d="M990 266h30v32h-30z"/>
  <path fill="#1D6BF6" d="M1018 266h30v32h-30z"/>
  <text x="994" y="277" dy=".5ex" font-family="sans-serif" font-size="9.677" fill="#F1F3F5">
weaponed 
</text>
  <text x="994" y="287" dy=".5ex" font-family="sans-serif" font-size="9.677" fill="#F1F3F5">
warrior
</text>
  <path fill="#3EFE44" d="M1398 302h30v32h-30z"/>
  <path fill="#3EFE44" d="M1426 302h36v32h-36z"/>
  <path fill="#3EFE44" d="M1460 302h30v32h-30z"/>
  <text x="1402" y="318" dy=".5ex" font-family="sans-serif" font-size="9.677" fill="#111315">
ammoless
</text>
  <path fill="#6CB0AD" d="M38 338h24v32H38z"/>
  <path fill="#6CB0AD" d="M39 350h124v8H39z"/>
  <path fill="#6CB0AD" d="M61 344v20l9-10zm80 0v20l-9-10z"/>
  <path fill="#6CB0AD" d="M140 338h24v32h-24z"/>
  <path fill="#6CB0AD" d="M141 350h940v8H141z"/>
  <path fill="#6CB0AD" d="M163 344v20l9-10zm896 0v20l-9-10z"/>
  <path fill="#6CB0AD" d="M1058 338h30v32h-30z"/>
  <path fill="#6CB0AD" d="M141 350h974v8H141z"/>
  <path fill="#6CB0AD" d="M163 344v20l9-10zm930 0v20l-9-10z"/>
  <path fill="#6CB0AD" d="M1086 338h36v32h-36z"/>
  <path fill="#6CB0AD" d="M141 350h1008v8H141z"/>
  <path fill="#6CB0AD" d="M163 344v20l9-10zm964 0v20l-9-10z"/>
  <path fill="#6CB0AD" d="M1120 338h30v32h-30z"/>
  <text x="1062" y="349" dy=".5ex" font-family="sans-serif" font-size="9.677" fill="#111315">
perma-
</text>
  <text x="1062" y="359" dy=".5ex" font-family="sans-serif" font-size="9.677" fill="#111315">
first
</text>
  <path fill="#868EBB" d="M548 374h30v32h-30z"/>
  <path fill="#868EBB" d="M576 374h30v32h-30z"/>
  <path fill="#868EBB" d="M583 386h328v8H583z"/>
  <path fill="#868EBB" d="M605 380v20l9-10zm284 0v20l-9-10z"/>
  <path fill="#868EBB" d="M888 374h24v32h-24z"/>
  <path fill="#868EBB" d="M889 386h294v8H889z"/>
  <path fill="#868EBB" d="M911 380v20l9-10zm250 0v20l-9-10z"/>
  <path fill="#868EBB" d="M1160 374h30v32h-30z"/>
  <path fill="#868EBB" d="M889 386h328v8H889z"/>
  <path fill="#868EBB" d="M911 380v20l9-10zm284 0v20l-9-10z"/>
  <path fill="#868EBB" d="M1188 374h36v32h-36z"/>
  <path fill="#868EBB" d="M889 386h362v8H889z"/>
  <path fill="#868EBB" d="M911 380v20l9-10zm318 0v20l-9-10z"/>
  <path fill="#868EBB" d="M1222 374h30v32h-30z"/>
  <text x="1164" y="390" dy=".5ex" font-family="sans-serif" font-size="9.677" fill="#111315">
inlander
</text>
  <path fill="#66F821" d="M1500 410h30v32h-30z"/>
  <path fill="#66F821" d="M1528 410h30v32h-30z"/>
  <text x="1504" y="426" dy=".5ex" font-family="sans-serif" font-size="9.677" fill="#111315">
bloody
</text>
  <path fill="#809FB0" d="M106 446h24v32h-24z"/>
  <path fill="#809FB0" d="M107 458h906v8H107z"/>
  <path fill="#809FB0" d="M129 452v20l9-10zm862 0v20l-9-10z"/>
  <path fill="#809FB0" d="M990 446h24v32h-24z"/>
  <text x="110" y="462" dy=".5ex" font-family="sans-serif" font-size="9.677" fill="#111315">
daggered
</text>
  <path fill="#A15CC4" d="M242 482h30v32h-30z"/>
  <path fill="#A15CC4" d="M270 482h30v32h-30z"/>
  <path fill="#A15CC4" d="M277 494h600v8H277z"/>
  <path fill="#A15CC4" d="M299 488v20l9-10zm556 0v20l-9-10z"/>
  <path fill="#A15CC4" d="M854 482h30v32h-30z"/>
  <path fill="#A15CC4" d="M277 494h634v8H277z"/>
  <path fill="#A15CC4" d="M299 488v20l9-10zm590 0v20l-9-10z"/>
  <path fill="#A15CC4" d="M882 482h36v32h-36z"/>
  <path fill="#A15CC4" d="M277 494h668v8H277z"/>
  <path fill="#A15CC4" d="M299 488v20l9-10zm624 0v20l-9-10z"/>
  <path fill="#A15CC4" d="M916 482h30v32h-30z"/>
  <text x="858" y="493" dy=".5ex" font-family="sans-serif" font-size="9.677" fill="#F1F3F5">
DEX 
</text>
  <text x="858" y="503" dy=".5ex" font-family="sans-serif" font-size="9.677" fill="#F1F3F5">
melee
</text>
  <path fill="#A076B6" d="M4 518h24v32H4z"/>
  <path fill="#A076B6" d="M5 530h396v8H5z"/>
  <path fill="#A076B6" d="M27 524v20l9-10zm352 0v20l-9-10z"/>
  <path fill="#A076B6" d="M378 518h24v32h-24z"/>
  <path fill="#A076B6" d="M379 530h294v8H379z"/>
  <path fill="#A076B6" d="M401 524v20l9-10zm250 0v20l-9-10z"/>
  <path fill="#A076B6" d="M650 518h24v32h-24z"/>
  <path fill="#A076B6" d="M651 530h226v8H651z"/>
  <path fill="#A076B6" d="M673 524v20l9-10zm182 0v20l-9-10z"/>
  <path fill="#A076B6" d="M854 518h24v32h-24z"/>
  <path fill="#A076B6" d="M855 530h124v8H855z"/>
  <path fill="#A076B6" d="M877 524v20l9-10zm80 0v20l-9-10z"/>
  <path fill="#A076B6" d="M956 518h24v32h-24z"/>
  <text x="8" y="529" dy=".5ex" font-family="sans-serif" font-size="9.677" fill="#F1F3F5">
jobbed 
</text>
  <text x="8" y="539" dy=".5ex" font-family="sans-serif" font-size="9.677" fill="#F1F3F5">
beginner
</text>
  <path fill="#920FE2" d="M684 554h30v32h-30z"/>
  <path fill="#920FE2" d="M712 554h36v32h-36z"/>
  <path fill="#920FE2" d="M746 554h36v32h-36z"/>
  <path fill="#920FE2" d="M780 554h36v32h-36z"/>
  <path fill="#920FE2" d="M814 554h30v32h-30z"/>
  <text x="688" y="565" dy=".5ex" font-family="sans-serif" font-size="9.677" fill="#F1F3F5">
skill 
</text>
  <text x="688" y="575" dy=".5ex" font-family="sans-serif" font-size="9.677" fill="#F1F3F5">
restricted
</text>
  <path fill="#980FDE" d="M684 590h30v32h-30z"/>
  <path fill="#980FDE" d="M712 590h30v32h-30z"/>
  <path fill="#980FDE" d="M719 602h124v8H719z"/>
  <path fill="#980FDE" d="M741 596v20l9-10zm80 0v20l-9-10z"/>
  <path fill="#980FDE" d="M820 590h24v32h-24z"/>
  <text x="688" y="606" dy=".5ex" font-family="sans-serif" font-size="9.677" fill="#F1F3F5">
rangeginner
</text>
  <path fill="#BA39BB" d="M412 626h30v32h-30z"/>
  <path fill="#BA39BB" d="M440 626h30v32h-30z"/>
  <path fill="#BA39BB" d="M447 638h430v8H447z"/>
  <path fill="#BA39BB" d="M469 632v20l9-10zm386 0v20l-9-10z"/>
  <path fill="#BA39BB" d="M854 626h24v32h-24z"/>
  <path fill="#BA39BB" d="M855 638h124v8H855z"/>
  <path fill="#BA39BB" d="M877 632v20l9-10zm80 0v20l-9-10z"/>
  <path fill="#BA39BB" d="M956 626h24v32h-24z"/>
  <text x="416" y="637" dy=".5ex" font-family="sans-serif" font-size="9.677" fill="#F1F3F5">
melee 
</text>
  <text x="416" y="647" dy=".5ex" font-family="sans-serif" font-size="9.677" fill="#F1F3F5">
mage
</text>
  <path fill="#B38993" d="M4 662h24v32H4z"/>
  <path fill="#B38993" d="M5 674h634v8H5z"/>
  <path fill="#B38993" d="M27 668v20l9-10zm590 0v20l-9-10z"/>
  <path fill="#B38993" d="M616 662h30v32h-30z"/>
  <path fill="#B38993" d="M5 674h668v8H5z"/>
  <path fill="#B38993" d="M27 668v20l9-10zm624 0v20l-9-10z"/>
  <path fill="#B38993" d="M644 662h30v32h-30z"/>
  <text x="620" y="673" dy=".5ex" font-family="sans-serif" font-size="9.677" fill="#111315">
LUKless 
</text>
  <text x="620" y="683" dy=".5ex" font-family="sans-serif" font-size="9.677" fill="#111315">
thief
</text>
  <path fill="#BAC305" d="M38 698h30v32H38z"/>
  <path fill="#BAC305" d="M66 698h30v32H66z"/>
  <path fill="#BAC305" d="M73 710h124v8H73z"/>
  <path fill="#BAC305" d="M95 704v20l9-10zm80 0v20l-9-10z"/>
  <path fill="#BAC305" d="M174 698h30v32h-30z"/>
  <path fill="#BAC305" d="M73 710h158v8H73z"/>
  <path fill="#BAC305" d="M95 704v20l9-10zm114 0v20l-9-10z"/>
  <path fill="#BAC305" d="M202 698h30v32h-30z"/>
  <text x="42" y="714" dy=".5ex" font-family="sans-serif" font-size="9.677" fill="#111315">
kicker
</text>
  <path fill="#BAC400" d="M106 734h30v32h-30z"/>
  <path fill="#BAC400" d="M134 734h30v32h-30z"/>
  <text x="110" y="745" dy=".5ex" font-family="sans-serif" font-size="9.677" fill="#111315">
double 
</text>
  <text x="110" y="755" dy=".5ex" font-family="sans-serif" font-size="9.677" fill="#111315">
stabber
</text>
  <path fill="#DB5E7F" d="M344 770h24v32h-24z"/>
  <path fill="#DB5E7F" d="M345 782h90v8h-90z"/>
  <path fill="#DB5E7F" d="M367 776v20l9-10zm46 0v20l-9-10z"/>
  <path fill="#DB5E7F" d="M412 770h30v32h-30z"/>
  <path fill="#DB5E7F" d="M345 782h124v8H345z"/>
  <path fill="#DB5E7F" d="M367 776v20l9-10zm80 0v20l-9-10z"/>
  <path fill="#DB5E7F" d="M440 770h30v32h-30z"/>
  <path fill="#DB5E7F" d="M447 782h668v8H447z"/>
  <path fill="#DB5E7F" d="M469 776v20l9-10zm624 0v20l-9-10z"/>
  <path fill="#DB5E7F" d="M1092 770h24v32h-24z"/>
  <text x="416" y="781" dy=".5ex" font-family="sans-serif" font-size="9.677" fill="#111315">
spell 
</text>
  <text x="416" y="791" dy=".5ex" font-family="sans-serif" font-size="9.677" fill="#111315">
user
</text>
  <path fill="#CBA63F" d="M4 806h30v32H4z"/>
  <path fill="#CBA63F" d="M32 806h30v32H32z"/>
  <path fill="#CBA63F" d="M39 818h124v8H39z"/>
  <path fill="#CBA63F" d="M61 812v20l9-10zm80 0v20l-9-10z"/>
  <path fill="#CBA63F" d="M140 806h24v32h-24z"/>
  <path fill="#CBA63F" d="M141 818h90v8h-90z"/>
  <path fill="#CBA63F" d="M163 812v20l9-10zm46 0v20l-9-10z"/>
  <path fill="#CBA63F" d="M208 806h30v32h-30z"/>
  <path fill="#CBA63F" d="M141 818h124v8H141z"/>
  <path fill="#CBA63F" d="M163 812v20l9-10zm80 0v20l-9-10z"/>
  <path fill="#CBA63F" d="M236 806h30v32h-30z"/>
  <path fill="#CBA63F" d="M243 818h158v8H243z"/>
  <path fill="#CBA63F" d="M265 812v20l9-10zm114 0v20l-9-10z"/>
  <path fill="#CBA63F" d="M378 806h24v32h-24z"/>
  <path fill="#CBA63F" d="M379 818h226v8H379z"/>
  <path fill="#CBA63F" d="M401 812v20l9-10zm182 0v20l-9-10z"/>
  <path fill="#CBA63F" d="M582 806h24v32h-24z"/>
  <text x="8" y="814" dy=".5ex" font-family="sans-serif" font-size="9.677" fill="#111315">
hybrid 
</text>
  <text x="8" y="822" dy=".5ex" font-family="sans-serif" font-size="9.677" fill="#111315">
physical 
</text>
  <text x="8" y="830" dy=".5ex" font-family="sans-serif" font-size="9.677" fill="#111315">
attacker
</text>
  <path fill="#CFA922" d="M4 842h24v32H4z"/>
  <path fill="#CFA922" d="M5 854h226v8H5z"/>
  <path fill="#CFA922" d="M27 848v20l9-10zm182 0v20l-9-10z"/>
  <path fill="#CFA922" d="M208 842h24v32h-24z"/>
  <path fill="#CFA922" d="M209 854h192v8H209z"/>
  <path fill="#CFA922" d="M231 848v20l9-10zm148 0v20l-9-10z"/>
  <path fill="#CFA922" d="M378 842h24v32h-24z"/>
  <text x="8" y="858" dy=".5ex" font-family="sans-serif" font-size="9.677" fill="#111315">
STRanger
</text>
  <path fill="#E56564" d="M208 878h30v32h-30z"/>
  <path fill="#E56564" d="M236 878h36v32h-36z"/>
  <path fill="#E56564" d="M270 878h30v32h-30z"/>
  <path fill="#E56564" d="M277 890h90v8h-90z"/>
  <path fill="#E56564" d="M299 884v20l9-10zm46 0v20l-9-10z"/>
  <path fill="#E56564" d="M344 878h30v32h-30z"/>
  <path fill="#E56564" d="M277 890h124v8H277z"/>
  <path fill="#E56564" d="M299 884v20l9-10zm80 0v20l-9-10z"/>
  <path fill="#E56564" d="M372 878h30v32h-30z"/>
  <path fill="#E56564" d="M379 890h260v8H379z"/>
  <path fill="#E56564" d="M401 884v20l9-10zm216 0v20l-9-10z"/>
  <path fill="#E56564" d="M616 878h30v32h-30z"/>
  <path fill="#E56564" d="M379 890h294v8H379z"/>
  <path fill="#E56564" d="M401 884v20l9-10zm250 0v20l-9-10z"/>
  <path fill="#E56564" d="M644 878h30v32h-30z"/>
  <text x="212" y="889" dy=".5ex" font-family="sans-serif" font-size="9.677" fill="#111315">
secondary 
</text>
  <text x="212" y="899" dy=".5ex" font-family="sans-serif" font-size="9.677" fill="#111315">
statted
</text>
  <path fill="#F0396D" d="M310 914h30v32h-30z"/>
  <path fill="#F0396D" d="M338 914h30v32h-30z"/>
  <path fill="#F0396D" d="M345 926h158v8H345z"/>
  <path fill="#F0396D" d="M367 920v20l9-10zm114 0v20l-9-10z"/>
  <path fill="#F0396D" d="M480 914h30v32h-30z"/>
  <path fill="#F0396D" d="M345 926h192v8H345z"/>
  <path fill="#F0396D" d="M367 920v20l9-10zm148 0v20l-9-10z"/>
  <path fill="#F0396D" d="M508 914h36v32h-36z"/>
  <path fill="#F0396D" d="M345 926h226v8H345z"/>
  <path fill="#F0396D" d="M367 920v20l9-10zm182 0v20l-9-10z"/>
  <path fill="#F0396D" d="M542 914h36v32h-36z"/>
  <path fill="#F0396D" d="M345 926h260v8H345z"/>
  <path fill="#F0396D" d="M367 920v20l9-10zm216 0v20l-9-10z"/>
  <path fill="#F0396D" d="M576 914h30v32h-30z"/>
  <text x="484" y="922" dy=".5ex" font-family="sans-serif" font-size="9.677" fill="#F1F3F5">
common 
</text>
  <text x="484" y="930" dy=".5ex" font-family="sans-serif" font-size="9.677" fill="#F1F3F5">
claw 
</text>
  <text x="484" y="938" dy=".5ex" font-family="sans-serif" font-size="9.677" fill="#F1F3F5">
user
</text>
  <path fill="#F41971" d="M480 950h30v32h-30z"/>
  <path fill="#F41971" d="M508 950h30v32h-30z"/>
  <text x="484" y="961" dy=".5ex" font-family="sans-serif" font-size="9.677" fill="#F1F3F5">
LUK 
</text>
  <text x="484" y="971" dy=".5ex" font-family="sans-serif" font-size="9.677" fill="#F1F3F5">
melee
</text>
  <path fill="#FD314F" d="M412 986h30v32h-30z"/>
  <path fill="#FD314F" d="M440 986h30v32h-30z"/>
  <text x="416" y="997" dy=".5ex" font-family="sans-serif" font-size="9.677" fill="#F1F3F5">
mixed 
</text>
  <text x="416" y="1007" dy=".5ex" font-family="sans-serif" font-size="9.677" fill="#F1F3F5">
attacker
</text>
</svg>
