<svg class="toyplot-canvas-Canvas" xmlns="http://www.w3.org/2000/svg" width="512" height="1024" style="background-color:transparent;border-color:#292724;border-style:none;border-width:1;fill:#292724;fill-opacity:1;font-family:Helvetica;font-size:12px;opacity:1;stroke:#292724;stroke-opacity:1;stroke-width:1">
  <g class="toyplot-coordinates-Cartesian">
    <clipPath id="a">
      <path d="M30 30h452v964H30z"/>
    </clipPath>
    <g class="toytree-mark-Toytree" clip-path="url(#a)">
      <g class="toytree-Edges" style="fill:none;stroke:#262626;stroke-linecap:round;stroke-opacity:1;stroke-width:2">
        <path d="M60.4 283.5V71.8h98.2"/>
        <path d="M60.4 283.5V110.1h240.1"/>
        <path d="M60.4 283.5V153.2h109.1"/>
        <path d="M60.4 283.5v-49H235m-174.6 49v37.1h109.1"/>
        <path d="M60.4 283.5v149.6h109.1"/>
        <path d="M60.4 283.5V661h21.8m87.3-507.8v14.3h10.9m-10.9 153.1v38.3h10.9m-10.9 74.2v26.3h10.9M82.2 661v-94.8H104M82.2 661v94.8h10.9m87.3-396.9v-19.1h10.9m-10.9 19.1V378h32.8m-32.8 81.4v-4.8h163.7m-163.7 4.8v38.2h10.9M104 566.2v25.5h10.9"/>
        <path d="M93.1 755.8v-81.1h196.4"/>
        <path d="M93.1 755.8v-23.7H104m-10.9 23.7v104.9h32.8m65.4-363.1V512h10.9m-87.3 79.7v-3.1h11m-11 3.1v35.1h76.4M104 732.1v19.1h109.2m-87.3 109.5v-61.6h43.6"/>
        <path d="M125.9 860.7v-4.2h21.8m-21.8 4.2v65.9h54.5m-32.7-70.1v-19.2h10.9"/>
        <path d="M147.7 856.5v19.1h10.9m21.8 51v25.6h21.8M158.6 71.8v-9.5h21.8m-21.8 9.5v9.6h54.6m87.3 28.7v-9.6h21.8m-21.8 9.6v9.6h65.4m-196.4 33.5v-14.4h196.4m-185.5 28.7V158H235m-54.6 9.5v9.6h141.9M235 234.5v-38.3h21.8"/>
        <path d="M235 234.5v-19.1h21.8M235 234.5h21.8m-21.8 0v19.1h21.8"/>
        <path d="M235 234.5v38.3h21.8m-87.3 47.8v-28.7h87.3"/>
        <path d="M169.5 320.6v-9.5h87.3m-65.5 28.7v-9.6h21.9m-21.9 9.6v9.5h65.5M213.2 378v-9.5H235m-21.8 9.5v9.6h130.9m-174.6 45.5v-26.4h141.9"/>
        <path d="M180.4 459.4v-33.5h131m32.7 28.7V445h21.8m-21.8 9.6v9.6h21.8m-174.6 33.4v-14.3h65.5M202.2 512v-9.6h11m-11 9.6v9.6h120.1M104 566.2v-25.5h65.5"/>
        <path d="M114.9 591.7v-31.9h32.8"/>
        <path d="M125.9 588.6V579h10.9m-10.9 9.6v9.5h32.7m32.7 28.7v-9.5h21.9m-21.9 9.5v9.6H235m54.5 38.3v-19.2h21.9m-21.9 19.2h21.9m-21.9 0v19.1h32.8M104 732.1v-19.2h10.9m98.3 38.3v-19.1H235m-21.8 19.1h65.4m-65.4 0v19.2h87.3m-131 28.7v-9.6h21.8m-21.8 9.6v9.5h87.3m-98.2 28.7v-9.5h10.9m-10.9 9.5v9.6h120m-120 28.7V866h21.8m-21.8 9.6v9.6h109.1m-87.3 41.4v-22.3h10.9"/>
        <path d="M180.4 926.6v-3.1h21.8m0 28.7v-9.6h11m-11 9.6v9.5h11"/>
      </g>
      <g class="toytree-Nodes" style="fill:#66c2a5;fill-opacity:1;stroke:None;stroke-width:1">
        <circle r="7" transform="translate(202.247 952.166)"/>
        <circle r="7" transform="translate(158.597 875.615)"/>
        <circle r="7" transform="translate(158.597 837.34)"/>
        <circle r="7" transform="translate(180.422 926.649)"/>
        <circle r="7" transform="translate(147.684 856.477)"/>
        <circle r="7" transform="translate(169.509 799.065)"/>
        <circle r="7" transform="translate(213.16 751.22)"/>
        <circle r="7" transform="translate(191.335 626.826)"/>
        <circle r="7" transform="translate(125.859 588.551)"/>
        <circle r="7" transform="translate(202.247 512)"/>
        <circle r="7" transform="translate(125.859 860.73)"/>
        <circle r="7" transform="translate(104.034 732.083)"/>
        <circle r="7" transform="translate(289.549 674.67)"/>
        <circle r="7" transform="translate(114.946 591.74)"/>
        <circle r="7" transform="translate(191.335 497.647)"/>
        <circle r="7" transform="translate(344.112 454.587)"/>
        <circle r="7" transform="translate(213.16 378.037)"/>
        <circle r="7" transform="translate(191.335 339.761)"/>
        <circle r="7" transform="translate(93.121 755.828)"/>
        <circle r="7" transform="translate(104.034 566.223)"/>
        <circle r="7" transform="translate(180.422 459.371)"/>
        <circle r="7" transform="translate(180.422 358.899)"/>
        <circle r="7" transform="translate(180.422 167.523)"/>
        <circle r="7" transform="translate(82.208 661.026)"/>
        <circle r="7" transform="translate(169.509 433.057)"/>
        <circle r="7" transform="translate(169.509 320.624)"/>
        <circle r="7" transform="translate(234.985 234.504)"/>
        <circle r="7" transform="translate(169.509 153.169)"/>
        <circle r="7" transform="translate(300.461 110.11)"/>
        <circle r="7" transform="translate(158.597 71.834)"/>
        <circle r="7" transform="translate(60.383 283.475)"/>
      </g>
      <g class="toytree-NodeLabels" style="fill:#262626;fill-opacity:1;font-size:9px;stroke:none">
        <text transform="translate(197.24 954.47)">30</text>
        <text transform="translate(153.59 877.91)">29</text>
        <text transform="translate(153.59 839.64)">28</text>
        <text transform="translate(175.42 928.95)">27</text>
        <text transform="translate(142.68 858.78)">26</text>
        <text transform="translate(164.51 801.36)">25</text>
        <text transform="translate(208.16 753.52)">24</text>
        <text transform="translate(186.33 629.13)">23</text>
        <text transform="translate(120.85 590.85)">22</text>
        <text transform="translate(197.24 514.3)">21</text>
        <text transform="translate(120.85 863.03)">20</text>
        <text transform="translate(99.03 734.38)">19</text>
        <text transform="translate(284.54 676.97)">18</text>
        <text transform="translate(109.94 594.04)">17</text>
        <text transform="translate(186.33 499.95)">16</text>
        <text transform="translate(339.11 456.89)">15</text>
        <text transform="translate(208.16 380.34)">14</text>
        <text transform="translate(186.33 342.06)">13</text>
        <text transform="translate(88.12 758.13)">12</text>
        <text transform="translate(99.03 568.52)">11</text>
        <text transform="translate(175.42 461.67)">10</text>
        <text transform="translate(177.92 361.2)">9</text>
        <text transform="translate(177.92 169.82)">8</text>
        <text transform="translate(79.71 663.33)">7</text>
        <text transform="translate(167.01 435.36)">6</text>
        <text transform="translate(167.01 322.92)">5</text>
        <text transform="translate(232.48 236.8)">4</text>
        <text transform="translate(167.01 155.47)">3</text>
        <text transform="translate(297.96 112.41)">2</text>
        <text transform="translate(156.09 74.13)">1</text>
        <text transform="translate(57.88 285.77)">0</text>
      </g>
      <g class="toytree-TipLabels" style="fill:#262626;fill-opacity:1;font-family:helvetica;font-size:11px;font-weight:400;stroke:none;white-space:pre">
        <text x="15" y="2.81" style="fill:#905f0a;fill-opacity:1" transform="translate(213.16 961.73)">carpenter</text>
        <text x="15" y="2.81" style="fill:#905f0a;fill-opacity:1" transform="translate(213.16 942.6)">grim reaper</text>
        <text x="15" y="2.81" style="fill:#905f0a;fill-opacity:1" transform="translate(202.25 923.46)">LUKless sin</text>
        <text x="15" y="2.81" style="fill:#905f0a;fill-opacity:1" transform="translate(191.33 904.32)">brigand</text>
        <text x="15" y="2.81" style="fill:#0d438c;fill-opacity:1" transform="translate(267.72 885.18)">gishlet</text>
        <text x="15" y="2.81" style="fill:#0d438c;fill-opacity:1" transform="translate(180.42 866.05)">gish</text>
        <text x="15" y="2.81" style="fill:#0d438c;fill-opacity:1" transform="translate(278.64 846.91)">DEX mage</text>
        <text x="15" y="2.81" style="fill:#0d438c;fill-opacity:1" transform="translate(169.51 827.77)">STR mage</text>
        <text x="15" y="2.81" style="fill:#9b59b6;fill-opacity:1" transform="translate(256.81 808.63)">swashbuckler</text>
        <text x="15" y="2.81" style="fill:#1f8040;fill-opacity:1" transform="translate(191.33 789.5)">woods(wo)man</text>
        <text x="15" y="2.81" style="fill:#080808;fill-opacity:1" transform="translate(300.46 770.36)">wandginner</text>
        <text x="15" y="2.81" style="fill:#080808;fill-opacity:1" transform="translate(278.64 751.22)">DEXginner</text>
        <text x="15" y="2.81" style="fill:#080808;fill-opacity:1" transform="translate(234.99 732.08)">LUKginner</text>
        <text x="15" y="2.81" style="fill:#080808;fill-opacity:1" transform="translate(114.95 712.95)">STRginner</text>
        <text x="15" y="2.81" style="fill:#9b59b6;fill-opacity:1" transform="translate(322.29 693.81)">begunner</text>
        <text x="15" y="2.81" style="fill:#1f8040;fill-opacity:1" transform="translate(311.37 674.67)">bowginner</text>
        <text x="15" y="2.81" style="fill:#905f0a;fill-opacity:1" transform="translate(311.37 655.53)">clawginner</text>
        <text x="15" y="2.81" style="fill:#383838;fill-opacity:1" transform="translate(234.99 636.39)">LUKlander</text>
        <text x="15" y="2.81" style="fill:#383838;fill-opacity:1" transform="translate(213.16 617.26)">magelander</text>
        <text x="15" y="2.81" style="fill:#383838;fill-opacity:1" transform="translate(158.6 598.12)">DEXlander</text>
        <text x="15" y="2.81" style="fill:#383838;fill-opacity:1" transform="translate(136.77 578.98)">STRlander</text>
        <text x="15" y="2.81" style="fill:#383838;fill-opacity:1" transform="translate(147.68 559.84)">hybridlander</text>
        <text x="15" y="2.81" style="fill:#686868;fill-opacity:1" transform="translate(169.51 540.71)">camper</text>
        <text x="15" y="2.81" style="fill:#905f0a;fill-opacity:1" transform="translate(322.29 521.57)">dagger sin</text>
        <text x="15" y="2.81" style="fill:#a8221d;fill-opacity:1" transform="translate(213.16 502.43)">dagger warrior</text>
        <text x="15" y="2.81" style="fill:#a8221d;fill-opacity:1" transform="translate(256.81 483.29)">wand warrior</text>
        <text x="15" y="2.81" style="fill:#9b59b6;fill-opacity:1" transform="translate(365.94 464.16)">punch slinger</text>
        <text x="15" y="2.81" style="fill:#9b59b6;fill-opacity:1" transform="translate(365.94 445.02)">bullet bucc</text>
        <text x="15" y="2.81" style="fill:#9b59b6;fill-opacity:1" transform="translate(311.37 425.88)">armed brawler</text>
        <text x="15" y="2.81" style="fill:#9b59b6;fill-opacity:1" transform="translate(311.37 406.74)">pugilist</text>
        <text x="15" y="2.81" style="fill:#9b59b6;fill-opacity:1" transform="translate(344.11 387.61)">LUK bucc</text>
        <text x="15" y="2.81" style="fill:#a8221d;fill-opacity:1" transform="translate(234.99 368.47)">LUK warrior</text>
        <text x="15" y="2.81" style="fill:#9b59b6;fill-opacity:1" transform="translate(256.81 349.33)">DEX brawler</text>
        <text x="15" y="2.81" style="fill:#a8221d;fill-opacity:1" transform="translate(213.16 330.19)">DEX warrior</text>
        <text x="15" y="2.81" style="fill:#0d438c;fill-opacity:1" transform="translate(256.81 311.05)">magelet</text>
        <text x="15" y="2.81" style="fill:#905f0a;fill-opacity:1" transform="translate(256.81 291.92)">LUKless dit</text>
        <text x="15" y="2.81" style="fill:#9b59b6;fill-opacity:1" transform="translate(256.81 272.78)">permapirate</text>
        <text x="15" y="2.81" style="fill:#905f0a;fill-opacity:1" transform="translate(256.81 253.64)">permarogue</text>
        <text x="15" y="2.81" style="fill:#1f8040;fill-opacity:1" transform="translate(256.81 234.5)">permarcher</text>
        <text x="15" y="2.81" style="fill:#0d438c;fill-opacity:1" transform="translate(256.81 215.37)">permamagician</text>
        <text x="15" y="2.81" style="fill:#a8221d;fill-opacity:1" transform="translate(256.81 196.23)">permawarrior</text>
        <text x="15" y="2.81" style="fill:#905f0a;fill-opacity:1" transform="translate(322.29 177.09)">claw-puncher</text>
        <text x="15" y="2.81" style="fill:#1f8040;fill-opacity:1" transform="translate(234.99 157.95)">bow-whacker</text>
        <text x="15" y="2.81" style="fill:#9b59b6;fill-opacity:1" transform="translate(365.94 138.82)">pistol-whipper</text>
        <text x="15" y="2.81" style="fill:#9b59b6;fill-opacity:1" transform="translate(365.94 119.68)">bombadier</text>
        <text x="15" y="2.81" style="fill:#9b59b6;fill-opacity:1" transform="translate(322.29 100.54)">summoner</text>
        <text x="15" y="2.81" style="fill:#905f0a;fill-opacity:1" transform="translate(213.16 81.4)">blood dit</text>
        <text x="15" y="2.81" style="fill:#a8221d;fill-opacity:1" transform="translate(180.42 62.27)">HP warrior</text>
      </g>
    </g>
  </g>
</svg>
