<?xml version="1.0" encoding="UTF-8" standalone="no"?>
<!DOCTYPE svg PUBLIC "-//W3C//DTD SVG 1.1//EN"
 "http://www.w3.org/Graphics/SVG/1.1/DTD/svg11.dtd">
<!-- Generated by graphviz version 2.43.0 (0)
 -->
<!-- Title: graphname Pages: 1 -->
<svg width="90pt" height="85pt"
 viewBox="0.00 0.00 89.71 85.41" xmlns="http://www.w3.org/2000/svg" xmlns:xlink="http://www.w3.org/1999/xlink">
<g id="graph0" class="graph" transform="scale(1 1) rotate(0) translate(4 81.41)">
<title>graphname</title>
<polygon fill="transparent" stroke="transparent" points="-4,4 -4,-81.41 85.71,-81.41 85.71,4 -4,4"/>
<!-- ğ‘ -->
<g id="node1" class="node">
<title>ğ‘</title>
<text text-anchor="middle" x="4.5" y="-65.73" font-family="Times,serif" font-size="14.00">ğ‘</text>
</g>
<!-- ğ‘ -->
<g id="node2" class="node">
<title>ğ‘</title>
<text text-anchor="middle" x="76.71" y="-66.21" font-family="Times,serif" font-size="14.00">ğ‘</text>
</g>
<!-- ğ‘&#45;&gt;ğ‘ -->
<g id="edge1" class="edge">
<title>ğ‘&#45;&gt;ğ‘</title>
<path fill="none" stroke="black" d="M9.24,-69.46C19.64,-69.53 44.86,-69.7 61.35,-69.81"/>
<polygon fill="black" stroke="black" points="61.45,-73.31 71.47,-69.87 61.49,-66.31 61.45,-73.31"/>
</g>
<!-- ğ‘ -->
<g id="node3" class="node">
<title>ğ‘</title>
<text text-anchor="middle" x="41.09" y="-3.8" font-family="Times,serif" font-size="14.00">ğ‘</text>
</g>
<!-- ğ‘&#45;&gt;ğ‘ -->
<g id="edge3" class="edge">
<title>ğ‘&#45;&gt;ğ‘</title>
<path fill="none" stroke="black" d="M8.99,-61.84C14.65,-52.26 24.53,-35.53 31.84,-23.16"/>
<polygon fill="black" stroke="black" points="34.95,-24.78 37.02,-14.39 28.92,-21.22 34.95,-24.78"/>
</g>
<!-- ğ‘&#45;&gt;ğ‘ -->
<g id="edge2" class="edge">
<title>ğ‘&#45;&gt;ğ‘</title>
<path fill="none" stroke="black" d="M72.34,-62.26C66.89,-52.7 57.42,-36.11 50.33,-23.68"/>
<polygon fill="black" stroke="black" points="53.27,-21.78 45.27,-14.83 47.19,-25.25 53.27,-21.78"/>
</g>
</g>
</svg>
