<svg class="toyplot-canvas-Canvas" xmlns="http://www.w3.org/2000/svg" width="400" height="400" style="background-color:transparent;border-color:#292724;border-style:none;border-width:1;fill:#292724;fill-opacity:1;font-family:Helvetica;font-size:12px;opacity:1;stroke:#292724;stroke-opacity:1;stroke-width:1">
  <g class="toyplot-coordinates-Cartesian">
    <clipPath id="a">
      <path d="M30 30h340v340H30z"/>
    </clipPath>
    <g class="toytree-mark-Toytree" clip-path="url(#a)">
      <g class="toytree-Edges" style="fill:none;stroke:#262626;stroke-linecap:round;stroke-opacity:1;stroke-width:2">
        <path d="M203.1 210.7 200 200m-8.2-6.4 8.2 6.4m-18.6 63.9 15.8-54.3a10 10 0 0 0 5.9 1.1m-8.3-26.5 2.1 6.3a10 10 0 0 0-5.1 3.1"/>
        <path d="m204.7 178.2-1.5 7.1a15.1 15.1 0 0 0-8.4-1.1m26.5-8-7.9 8.9a20.1 20.1 0 0 0-8.7-6.9m43 4.5-19.4 7a30.1 30.1 0 0 0-7-13.5m-9.1 33.7-4.4-3.6a10 10 0 0 1-4.7 4.4m18.6 63.9-4.9-16.8a60.2 60.2 0 0 1-35.4 6.1"/>
        <path d="m178.3 274.6 4.9-16.8a60.2 60.2 0 0 1-1.8 6.1m-38.2-17.8 10-8.2a60.2 60.2 0 0 0 28.2 26M159.9 200H190a10 10 0 0 1 1.8-6.4m-12.1-10.1 8.6 7a15.1 15.1 0 0 1 6.5-6.3m-4.1-16.2 3.7 12.7a20.1 20.1 0 0 1 10.3-2.5m6.2-15.5-2.5 8.4a30.1 30.1 0 0 1 12.9 5.1m27.4-15.7-9.7 7.9a50.2 50.2 0 0 1 8.7 14.3"/>
        <path d="M270.2 200h-20a50.2 50.2 0 0 0-2.5-17.3"/>
      </g>
      <g class="toytree-TipLabels" style="fill:#262626;fill-opacity:1;font-family:helvetica;font-size:11px;font-weight:400;stroke:none;white-space:pre">
        <text x="15" y="2.81" style="fill:#a06033;fill-opacity:1" transform="translate(270.24 200)">LUKlander</text>
        <text x="15" y="2.81" style="fill:#a06033;fill-opacity:1" transform="rotate(-36 371.34 -302.475)">magelander</text>
        <text x="15" y="2.81" style="fill:#a06033;fill-opacity:1" transform="rotate(-72 217.407 -63.745)">DEXlander</text>
        <text x="-75.52" y="2.81" style="fill:#a06033;fill-opacity:1" transform="rotate(72 -20.294 215.258)">hybridlander</text>
        <text x="-67.57" y="2.81" style="fill:#a06033;fill-opacity:1" transform="rotate(36 -192.584 368.315)">STRlander</text>
        <text x="-51.67" y="2.81" style="fill:#a03333;fill-opacity:1" transform="translate(159.86 200)">camper</text>
        <text x="-71.86" y="2.81" style="fill:#3360a0;fill-opacity:1" transform="rotate(-36 450.263 -97.276)">wandginner</text>
        <text x="-68.19" y="2.81" style="fill:#3360a0;fill-opacity:1" transform="rotate(-72 278.095 14.582)">DEXginner</text>
        <text x="15" y="2.81" style="fill:#3360a0;fill-opacity:1" transform="rotate(72 -78.095 289.859)">LUKginner</text>
        <text x="15" y="2.81" style="fill:#3360a0;fill-opacity:1" transform="rotate(36 -216.867 431.446)">STRginner</text>
      </g>
    </g>
  </g>
</svg>
