<svg class="toyplot-canvas-Canvas" xmlns="http://www.w3.org/2000/svg" width="310" height="275" style="background-color:transparent;border-color:#292724;border-style:none;border-width:1;fill:#292724;fill-opacity:1;font-family:Helvetica;font-size:12px;opacity:1;stroke:#292724;stroke-opacity:1;stroke-width:1">
  <g class="toyplot-coordinates-Cartesian">
    <clipPath id="a">
      <path d="M30 30h250v215H30z"/>
    </clipPath>
    <g class="toytree-mark-Toytree" clip-path="url(#a)">
      <path d="M51.3 112V78h26.9m-26.9 34v34h26.9m0-68v17h26.9m-26.9 51v17h26.9m0 0v17h27m0 0v17H159M78.2 78V61h26.9m0 34V78h27m-27 17h27m-27 0v17h27m-53.9 34v-17h26.9m0 34v-17h27m0 34v-17H159m0 34v-17h26.9M159 197h26.9m-26.9 0v17h26.9" class="toytree-Edges" style="fill:none;stroke:#262626;stroke-linecap:round;stroke-opacity:1;stroke-width:2"/>
      <path d="M185.9 214h0m0-17h0m0-17h0m0-17H159m26.9-17h-53.8m53.8-17h-80.8m80.8-17h-53.8m53.8-17h-53.8m53.8-17h-53.8m53.8-17h-80.8" class="toytree-AlignEdges" style="stroke:#a9a9a9;stroke-dasharray:2,4;stroke-linecap:round;stroke-opacity:1;stroke-width:2"/>
      <g class="toytree-TipLabels" style="fill:#262626;fill-opacity:1;font-family:helvetica;font-size:11px;font-weight:400;stroke:none;white-space:pre">
        <text x="15" y="2.81" transform="translate(185.92 213.99)">hybridlander</text>
        <text x="15" y="2.81" transform="translate(185.92 196.99)">LUKlander</text>
        <text x="15" y="2.81" transform="translate(185.92 179.99)">magelander</text>
        <text x="15" y="2.81" transform="translate(185.92 163)">DEXlander</text>
        <text x="15" y="2.81" transform="translate(185.92 146)">STRlander</text>
        <text x="15" y="2.81" transform="translate(185.92 129)">camper</text>
        <text x="15" y="2.81" transform="translate(185.92 112)">wandginner</text>
        <text x="15" y="2.81" transform="translate(185.92 95.01)">DEXginner</text>
        <text x="15" y="2.81" transform="translate(185.92 78.01)">LUKginner</text>
        <text x="15" y="2.81" transform="translate(185.92 61.01)">STRginner</text>
      </g>
    </g>
  </g>
</svg>
