<svg width="1620" height="839pt" viewBox="0 0 1215.01 838.59" xmlns="http://www.w3.org/2000/svg">
  <g class="graph">
    <path fill="transparent" stroke="transparent" d="M0 838.59V0h1215.01v838.59H0z"/>
    <g class="edge" stroke="orange" stroke-width="1.5">
      <path fill="none" d="M577.49 403.42c39.64-.01 155.71-.05 216.36-.07"/>
      <path fill="orange" d="m804.15 403.35-10.01-4.5 5.01 4.25h-5v.5h5l-5 4.25 10-4.5z"/>
    </g>
    <g class="edge" stroke="orange" stroke-width="1.5">
      <path fill="none" d="M652.66 586.89c36.73 1.33 129.55 4.68 182.92 6.61"/>
      <path fill="orange" d="m845.7 593.86-9.83-4.86 4.84 4.43-4.99-.18-.01.25-.01.25 4.99.18-5.15 4.07 10.16-4.14z"/>
    </g>
    <g class="edge" stroke="orange" stroke-width="1.5">
      <path fill="none" d="M552.55 305.75c20.02-16.58 62.76-51.98 89.62-74.22"/>
      <path fill="orange" d="M649.95 225.08 639.38 228l6.56.08-3.85 3.19.16.19.16.2 3.85-3.19-1.14 6.46 4.83-9.85z"/>
    </g>
    <g class="edge" stroke="orange" stroke-width="1.5">
      <path fill="none" d="M361.14 561.34c22.94 23.48 70.66 72.33 97.82 100.14"/>
      <path fill="orange" d="m466.04 668.72-3.77-10.3.46 6.55-3.5-3.58-.18.18-.17.17 3.49 3.58-6.53-.61 10.2 4.01z"/>
    </g>
    <path fill="none" stroke="green" stroke-width="1.5" d="M732.45 478.66c-11.76-47-51.67-206.63-63.42-253.58" class="edge"/>
    <path fill="none" stroke="purple" stroke-width="1.5" d="M721.56 502.28c-43.73 32.4-176.51 130.8-224.77 166.56" class="edge"/>
    <path fill="none" stroke="red" stroke-width="1.5" d="M543.8 490.39c4.42-19.17 12.61-54.71 17.03-73.88" class="edge"/>
    <path fill="none" stroke="#00f" stroke-width="1.5" d="M548.34 509.98c15.77 13.58 52.5 45.18 73.41 63.19" class="edge"/>
    <path fill="none" stroke="green" stroke-width="1.5" d="M540.83 490.21c.14-34.63.51-127.47.64-162.08" class="edge"/>
    <path fill="none" stroke="purple" stroke-width="1.5" d="M532.99 505.28c-28.16 6.5-125.16 28.92-166.25 38.41" class="edge"/>
    <g class="edge" stroke="orange" stroke-width="1.5">
      <path fill="none" d="M548.67 503c27.31-1.64 118.66-7.12 162.79-9.76"/>
      <path fill="orange" d="m721.59 492.63-10.25-3.89 5.24 3.94-4.99.3.02.25.01.25 4.99-.3-4.73 4.54 9.71-5.09z"/>
    </g>
    <path fill="none" stroke="#00f" stroke-width="1.5" d="M637.05 473.65c-15.16-14.54-42.99-41.24-59.63-57.2" class="edge"/>
    <path fill="none" stroke="red" stroke-width="1.5" d="M646.28 497.24c-2.05 19.75-5.85 56.44-7.88 76.01" class="edge"/>
    <path fill="none" stroke="green" stroke-width="1.5" d="M647.52 470.82c-.45-39.61-1.79-158.39-2.24-198.04" class="edge"/>
    <path fill="none" stroke="purple" stroke-width="1.5" d="M636.95 487.13c-36.18 11.1-154.59 47.44-209.83 64.4" class="edge"/>
    <g class="edge" stroke="orange" stroke-width="1.5">
      <path fill="none" d="M658.49 484.3c37.17 1.61 160.72 6.93 221.88 9.57"/>
      <path fill="orange" d="m890.68 494.32-9.8-4.93 4.82 4.46-5-.21-.01.25-.01.25 4.99.21-5.17 4.03 10.18-4.06z"/>
    </g>
    <path fill="none" stroke="#00f" stroke-width="1.5" d="M626.24 246.59c-14.6-10.14-34.72-24.13-49.31-34.27" class="edge"/>
    <path fill="none" stroke="red" stroke-width="1.5" d="M643.94 272.94c-1.74 19.38-4.98 55.29-6.73 74.67" class="edge"/>
    <path fill="none" stroke="purple" stroke-width="1.5" d="M624.03 263.59c-49.73 9.11-174.33 31.95-230.89 42.32" class="edge"/>
    <g class="edge" stroke="orange" stroke-width="1.5">
      <path fill="none" d="M646.59 246.67c4.36-39.18 17.4-156.18 22.99-206.38"/>
      <path fill="orange" d="m670.72 30.11-5.58 9.44 4.77-4.5-.55 4.97.25.03.25.03.55-4.97 3.67 5.44-3.36-10.44z"/>
    </g>
    <path fill="none" stroke="green" stroke-width="1.5" d="M558.45 212.3c1.04 36.8 3.97 140.9 5.02 177.88" class="edge"/>
    <path fill="none" stroke="red" stroke-width="1.5" d="M556.18 212.49c-3.19 22.31-9.6 67.07-12.78 89.28" class="edge"/>
    <path fill="none" stroke="purple" stroke-width="1.5" d="M533.69 202.84c-48.97 7.28-159.2 23.67-213.55 31.74" class="edge"/>
    <g class="edge" stroke="orange" stroke-width="1.5">
      <path fill="none" d="M560.21 186.15c4.68-28.62 15.87-97.21 21.8-133.54"/>
      <path fill="orange" d="m583.67 42.45-6.05 9.14 5-4.25-.81 4.94.25.04.25.04.8-4.94 3.39 5.62-2.83-10.59z"/>
    </g>
    <path fill="none" stroke="green" stroke-width="1.5" d="m636.08 373.93.9 199.26" class="edge"/>
    <path fill="none" stroke="#00f" stroke-width="1.5" d="M609.95 348.16c-18.79-9.14-43.22-21.02-57.23-27.84" class="edge"/>
    <path fill="none" stroke="purple" stroke-width="1.5" d="M609.83 365.37c-52.58 9.11-170.94 29.63-229.3 39.74" class="edge"/>
    <g class="edge" stroke="orange" stroke-width="1.5">
      <path fill="none" d="M638.5 347.79c7.48-39.25 29.83-156.61 39.35-206.62"/>
      <path fill="orange" d="m679.73 131.31-6.29 8.98 5.11-4.11-.93 4.91.24.05.25.04.93-4.91 3.24 5.71-2.55-10.67z"/>
    </g>
    <path fill="none" stroke="purple" stroke-width="1.5" d="M355.57 465.1c53.08-15.72 157.4-46.61 194.65-57.64" class="edge"/>
    <path fill="none" stroke="red" stroke-width="1.5" d="M328.05 487.68c4.45 13.37 11.3 33.97 15.73 47.3" class="edge"/>
    <path fill="none" stroke="#00f" stroke-width="1.5" d="M335.01 487.58c14.02 16.14 37.76 43.45 51.83 59.64" class="edge"/>
    <path fill="none" stroke="green" stroke-width="1.5" d="M321.7 461.23c-6.17-41.42-24.97-167.57-31.11-208.78" class="edge"/>
    <g class="edge" stroke="orange" stroke-width="1.5">
      <path fill="none" d="M320.85 487.67c-7.48 34.74-27.89 129.42-37.39 173.51"/>
      <path fill="orange" d="m281.29 671.24 6.51-8.83-5.21 3.99 1.05-4.89-.24-.05-.25-.05-1.05 4.89-3.1-5.79 2.29 10.73z"/>
    </g>
    <path fill="none" stroke="purple" stroke-width="1.5" d="M444.34 632.77c49.76-11.99 140.58-33.88 176.99-42.65" class="edge"/>
    <path fill="none" stroke="#00f" stroke-width="1.5" d="M401.48 627.63c-11.84-17.67-32.62-48.68-44.46-66.34" class="edge"/>
    <path fill="none" stroke="red" stroke-width="1.5" d="M408.4 627.65c-2.26-15.02-5.92-39.3-8.16-54.21" class="edge"/>
    <path fill="none" stroke="green" stroke-width="1.5" d="M406.8 627.93c-11.19-40.39-45.22-163.21-56.46-203.79" class="edge"/>
    <g class="edge" stroke="orange" stroke-width="1.5">
      <path fill="none" d="M407.46 654.23c-6.75 30.41-23.4 105.39-31.93 143.82"/>
      <path fill="orange" d="m373.26 808.29 6.56-8.79-5.23 3.96 1.08-4.88-.24-.05-.24-.06-1.09 4.88-3.06-5.8 2.22 10.74z"/>
    </g>
    <path fill="none" stroke="green" stroke-width="1.5" d="M396.5 547.33c-5.84-42.96-24.42-179.73-30.29-222.94" class="edge"/>
    <g class="edge" stroke="orange" stroke-width="1.5">
      <path fill="none" d="M390.22 573.67c-21.57 35.64-80.87 133.57-107.43 177.44"/>
      <path fill="orange" d="m277.5 759.84 9.02-6.22-6.22 2.08 2.59-4.28-.21-.13-.22-.13-2.59 4.28-1.04-6.48-1.33 10.88z"/>
    </g>
    <path fill="none" stroke="purple" stroke-width="1.5" d="M281.34 345.61c53.62-6.33 206.57-24.4 249.09-29.42" class="edge"/>
    <path fill="none" stroke="green" stroke-width="1.5" d="M268.22 360.96c15.49 36.27 58.74 137.53 74.26 173.85" class="edge"/>
    <path fill="none" stroke="red" stroke-width="1.5" d="M265.8 334.51c5.02-20.95 14.71-61.36 19.69-82.16" class="edge"/>
    <path fill="none" stroke="#00f" stroke-width="1.5" d="M280.03 360.91c14.43 10.84 34.84 26.16 49.26 36.99" class="edge"/>
    <g class="edge" stroke="orange" stroke-width="1.5">
      <path fill="none" d="M244.06 341.27c-36.17-12.77-116.93-41.3-166.52-58.82"/>
      <path fill="orange" d="m68.06 279.1 7.93 7.57-3.3-5.67 4.72 1.67.08-.24.09-.24-4.72-1.66 6.13-2.34-10.93.91z"/>
    </g>
    <path fill="none" stroke="#00f" stroke-width="1.5" d="M302.53 252.46c13.67 12.97 34.43 32.66 48.07 45.61" class="edge"/>
    <g class="edge" stroke="orange" stroke-width="1.5">
      <path fill="none" d="M257.59 226.22c-37.54-15.78-100.83-42.38-142.1-59.73"/>
      <path fill="orange" d="m106.26 162.62 7.48 8.02-2.96-5.85 4.61 1.93.09-.23.1-.23-4.61-1.93 6.26-1.99-10.97.28z"/>
    </g>
    <path fill="none" stroke="red" stroke-width="1.5" d="M349.01 397.93c3.4-19.13 9.69-54.58 13.09-73.71" class="edge"/>
    <g class="edge" stroke="orange" stroke-width="1.5">
      <path fill="none" d="M313.1 401.26c-39.24-11.35-104.7-30.28-151.34-43.77"/>
      <path fill="orange" d="m152.11 354.7 8.35 7.1-3.62-5.47 4.8 1.39.07-.24.07-.24-4.8-1.39 5.98-2.7-10.85 1.55z"/>
    </g>
    <g class="edge" stroke="orange" stroke-width="1.5">
      <path fill="none" d="M335.88 299.5c-38.57-15.79-107.61-44.04-151.87-62.15"/>
      <path fill="orange" d="m174.69 233.53 7.56 7.96-3.02-5.83 4.63 1.89.09-.23.09-.23-4.62-1.89 6.23-2.04-10.96.37z"/>
    </g>
    <path fill="none" stroke="red" stroke-width="1.5" d="M817.57 416.39c-18.15 16.72-49.44 45.54-67.62 62.29" class="edge"/>
    <path fill="none" stroke="#00f" stroke-width="1.5" d="M843.71 416.53c15.88 17.49 43.76 48.2 59.63 65.69" class="edge"/>
    <path fill="none" stroke="green" stroke-width="1.5" d="M833.2 390.16c3.67-33.15 13.26-119.69 16.93-152.86" class="edge"/>
    <path fill="none" stroke="purple" stroke-width="1.5" d="M859.25 404.5c39.85 1.67 114.13 4.8 162.37 6.83" class="edge"/>
    <path fill="none" stroke="#00f" stroke-width="1.5" d="M857.34 581.86c-27.95-20.71-81.89-60.66-107.48-79.61" class="edge"/>
    <path fill="none" stroke="red" stroke-width="1.5" d="M880.25 581.91c7.72-19.08 22.04-54.44 29.76-73.52" class="edge"/>
    <path fill="none" stroke="green" stroke-width="1.5" d="m877.36 581.81 26.89-148.08" class="edge"/>
    <path fill="none" stroke="purple" stroke-width="1.5" d="M903.99 596.67c37.01 2.22 101.49 6.11 145.64 8.76" class="edge"/>
    <path fill="none" stroke="green" stroke-width="1.5" d="M916.34 482.1c2.75-34.76 10.16-128.1 12.89-162.56" class="edge"/>
    <path fill="none" stroke="purple" stroke-width="1.5" d="M940.09 497.01c40 2.64 119.22 7.86 168.45 11.1" class="edge"/>
    <path fill="none" stroke="red" stroke-width="1.5" d="M660.01 198.84c-14.74-33.75-53.78-123.09-68.47-156.7" class="edge"/>
    <path fill="none" stroke="#00f" stroke-width="1.5" d="M668.05 198.95c3.13-17.82 8.71-49.6 11.86-67.51" class="edge"/>
    <g class="edge" stroke="orange" stroke-width="1.5">
      <path fill="none" d="M787.85 331.62c-52.55-3.57-175.29-11.91-224.93-15.29"/>
      <path fill="orange" d="m552.72 315.64 9.67 5.17-4.7-4.58 4.99.34.02-.25.01-.25-4.99-.34 5.28-3.9-10.28 3.81z"/>
    </g>
    <path fill="none" stroke="green" stroke-width="1.5" d="M805.96 346.53c-14.46 29.91-49.51 102.39-63.9 132.16" class="edge"/>
    <path fill="none" stroke="red" stroke-width="1.5" d="M817.18 319.9c7.57-21.07 22.17-61.71 29.68-82.64" class="edge"/>
    <path fill="none" stroke="#00f" stroke-width="1.5" d="M826.69 346.53c17.82 16.48 48.07 44.45 65.82 60.86" class="edge"/>
    <path fill="none" stroke="purple" stroke-width="1.5" d="M836.98 335.14c42.63 3.19 130.14 9.75 177.47 13.3" class="edge"/>
    <path fill="none" stroke="red" stroke-width="1.5" d="m446.8 682.38-122.74 1.44" class="edge"/>
    <path fill="none" stroke="#00f" stroke-width="1.5" d="M468.79 695.14c-20.72 26.6-67.44 86.59-88.2 113.25" class="edge"/>
    <path fill="none" stroke="purple" stroke-width="1.5" d="M970.15 516.04c-58.3-6.03-179.22-18.55-220.36-22.8" class="edge"/>
    <path fill="none" stroke="red" stroke-width="1.5" d="M1010.31 506.36c12.52-20.37 36.62-59.55 49.18-79.98" class="edge"/>
    <path fill="none" stroke="#00f" stroke-width="1.5" d="M1016.26 532.49c17.88 16.81 48.71 45.78 66.62 62.62" class="edge"/>
    <path fill="none" stroke="green" stroke-width="1.5" d="M1005.78 506.15c8.26-31.51 29.05-110.7 37.3-142.15" class="edge"/>
    <path fill="none" stroke="#00f" stroke-width="1.5" d="M637.07 21.92c-4.3.6-8.7 1.22-13.04 1.83" class="edge"/>
    <path fill="none" stroke="red" stroke-width="1.5" d="M673.49 30.23c1.93 19.39 5.5 55.34 7.42 74.74" class="edge"/>
    <g class="edge" stroke="orange" stroke-width="1.5">
      <path fill="none" d="M895.01 300.74c-56.15-9.22-165.03-27.09-218.58-35.88"/>
      <path fill="orange" d="m666.48 263.23 9.14 6.06-4.24-5.01 4.93.81.04-.24.04-.25-4.93-.81 5.62-3.38-10.6 2.82z"/>
    </g>
    <path fill="none" stroke="#00f" stroke-width="1.5" d="m917.62 293.28-53.42-55.97" class="edge"/>
    <path fill="none" stroke="red" stroke-width="1.5" d="M927.55 319.59c-4.53 21.87-13.59 65.61-18.15 87.61" class="edge"/>
    <path fill="none" stroke="purple" stroke-width="1.5" d="M965.42 311.46c42.71 6 114.73 16.12 160.54 22.55" class="edge"/>
    <g class="edge" stroke="orange" stroke-width="1.5">
      <path fill="none" d="M813.52 220.88c-57.56-4.88-165.87-14.07-221.12-18.75"/>
      <path fill="orange" d="m582.4 201.28 9.59 5.33-4.63-4.66 4.99.43.02-.25.02-.25-4.98-.42 5.34-3.82-10.35 3.64z"/>
    </g>
    <path fill="none" stroke="purple" stroke-width="1.5" d="M889.85 227.61c41.21 3.77 106.75 9.78 150.71 13.81" class="edge"/>
    <g class="edge" stroke="orange" stroke-width="1.5">
      <path fill="none" d="M867.01 411.73c-52.47-11.56-144.23-31.78-194.87-42.94"/>
      <path fill="orange" d="m662.29 366.62 8.79 6.55-3.96-5.23 4.88 1.08.05-.25.06-.24-4.89-1.08 5.8-3.07-10.73 2.24z"/>
    </g>
    <path fill="none" stroke="purple" stroke-width="1.5" d="M946.32 425.38c40.29 4.98 102.69 12.71 145.48 18" class="edge"/>
    <path fill="none" stroke="#00f" stroke-width="1.5" d="M270.92 759.8c1.67-16.73 4.56-45.57 6.23-62.33" class="edge"/>
    <path fill="none" stroke="red" stroke-width="1.5" d="M296.6 785.92c14.45 6.99 32.19 15.58 46.65 22.58" class="edge"/>
    <path fill="none" stroke="#00f" stroke-width="1.5" d="M1139.98 497.75c-15.97-18.64-45.02-52.52-61.05-71.22" class="edge"/>
    <path fill="none" stroke="red" stroke-width="1.5" d="M1143.94 524.05c-10.38 18.58-29.25 52.36-39.66 71" class="edge"/>
    <path fill="none" stroke="green" stroke-width="1.5" d="M1152.6 497.79c3.2-31.74 11.33-112.37 14.56-144.39m-98.12 46.7c3.53-31.33 12.42-110.11 15.94-141.38m15.35 336.54c7.88-29.83 27.17-102.85 35.09-132.85" class="edge"/>
    <path fill="none" stroke="#00f" stroke-width="1.5" d="M130.31 207.44c-12.03-12.63-30.21-31.72-42.36-44.48" class="edge"/>
    <path fill="none" stroke="red" stroke-width="1.5" d="M138.72 233.87c-6.92 23.41-21.11 71.42-27.97 94.62" class="edge"/>
    <path fill="none" stroke="#00f" stroke-width="1.5" d="M1157.1 326.87c-15.67-18.03-43.7-50.27-59.33-68.24" class="edge"/>
    <path fill="none" stroke="red" stroke-width="1.5" d="M1164.88 353.38c-5.71 21.08-16.73 61.74-22.41 82.67M70.85 162.66c-7.54 22.72-22.94 69.19-30.49 91.95m1041.04 4.34c-7.68 20.24-22.2 58.5-29.85 78.67" class="edge"/>
    <path fill="none" stroke="#00f" stroke-width="1.5" d="M94.2 328.41c-12.9-13.44-32.78-34.15-45.64-47.55m1077.89 155.09c-17.73-18.88-50.04-53.29-67.66-72.05" class="edge"/>
    <text text-anchor="middle" x="559.84" y="-424.97" font-family="Times,serif" font-size="24" transform="translate(4 834.59)" class="node">𝐑ₜ</text>
    <text text-anchor="middle" x="633.04" y="-242.06" font-family="Times,serif" font-size="24" transform="translate(4 834.59)" class="node">𝐑ₚ</text>
    <text text-anchor="middle" x="537.52" y="-513.51" font-family="Times,serif" font-size="24" transform="translate(4 834.59)" class="node">𝐈ₚ</text>
    <text text-anchor="middle" x="344.11" y="-280.39" font-family="Times,serif" font-size="24" transform="translate(4 834.59)" class="node">𝐌₅</text>
    <text text-anchor="middle" x="731.73" y="-336.61" font-family="Times,serif" font-size="24" transform="translate(4 834.59)" class="node">𝐓¹</text>
    <text text-anchor="middle" x="536.78" y="-324.92" font-family="Times,serif" font-size="24" transform="translate(4 834.59)" class="node">𝓘</text>
    <text text-anchor="middle" x="643.66" y="-344.55" font-family="Times,serif" font-size="24" transform="translate(4 834.59)" class="node">𝐑</text>
    <text text-anchor="middle" x="641.13" y="-568.67" font-family="Times,serif" font-size="24" transform="translate(4 834.59)" class="node">𝐑𝐈ₚ</text>
    <text text-anchor="middle" x="554.08" y="-629.17" font-family="Times,serif" font-size="24" transform="translate(4 834.59)" class="node">𝐑ₜ𝐈ₚ</text>
    <text text-anchor="middle" x="632.02" y="-467.56" font-family="Times,serif" font-size="24" transform="translate(4 834.59)" class="node">𝐑ₚ𝐈ₚ</text>
    <text text-anchor="middle" x="319.68" y="-353.84" font-family="Times,serif" font-size="24" transform="translate(4 834.59)" class="node">𝐑ₜ𝐌₅</text>
    <text text-anchor="middle" x="406.41" y="-187.44" font-family="Times,serif" font-size="24" transform="translate(4 834.59)" class="node">𝐑ₚ𝐌₅</text>
    <text text-anchor="middle" x="394.27" y="-268.01" font-family="Times,serif" font-size="24" transform="translate(4 834.59)" class="node">𝐑𝐌₅</text>
    <text text-anchor="middle" x="258.6" y="-480.57" font-family="Times,serif" font-size="24" transform="translate(4 834.59)" class="node">𝐌₇</text>
    <text text-anchor="middle" x="284.63" y="-589.12" font-family="Times,serif" font-size="24" transform="translate(4 834.59)" class="node">𝐑ₜ𝐌₇</text>
    <text text-anchor="middle" x="342.69" y="-417.42" font-family="Times,serif" font-size="24" transform="translate(4 834.59)" class="node">𝐑ₚ𝐌₇</text>
    <text text-anchor="middle" x="360.41" y="-517.22" font-family="Times,serif" font-size="24" transform="translate(4 834.59)" class="node">𝐑𝐌₇</text>
    <text text-anchor="middle" x="827.74" y="-425.05" font-family="Times,serif" font-size="24" transform="translate(4 834.59)" class="node">𝐑ₜ𝐓¹</text>
    <text text-anchor="middle" x="870.98" y="-233.47" font-family="Times,serif" font-size="24" transform="translate(4 834.59)" class="node">𝐑ₚ𝐓¹</text>
    <text text-anchor="middle" x="911.28" y="-333.01" font-family="Times,serif" font-size="24" transform="translate(4 834.59)" class="node">𝐑𝐓¹</text>
    <text text-anchor="middle" x="661.76" y="-616.4" font-family="Times,serif" font-size="24" transform="translate(4 834.59)" class="node">𝐈ₚ𝐓¹</text>
    <text text-anchor="middle" x="808.37" y="-495.1" font-family="Times,serif" font-size="24" transform="translate(4 834.59)" class="node">𝐓¹𝐈ₚ</text>
    <text text-anchor="middle" x="475.02" y="-146.38" font-family="Times,serif" font-size="24" transform="translate(4 834.59)" class="node">𝐌₅𝐓¹</text>
    <text text-anchor="middle" x="998.3" y="-309.02" font-family="Times,serif" font-size="24" transform="translate(4 834.59)" class="node">𝐓¹𝐌₅</text>
    <text text-anchor="middle" x="668.18" y="-811.39" font-family="Times,serif" font-size="24" transform="translate(4 834.59)" class="node">𝐑𝐈ₚ𝐓¹</text>
    <text text-anchor="middle" x="926.26" y="-521.87" font-family="Times,serif" font-size="24" transform="translate(4 834.59)" class="node">𝐑𝐓¹𝐈ₚ</text>
    <text text-anchor="middle" x="581.85" y="-799.29" font-family="Times,serif" font-size="24" transform="translate(4 834.59)" class="node">𝐑ₜ𝐈ₚ𝐓¹</text>
    <text text-anchor="middle" x="847.59" y="-604.29" font-family="Times,serif" font-size="24" transform="translate(4 834.59)" class="node">𝐑ₜ𝐓¹𝐈ₚ</text>
    <text text-anchor="middle" x="678.23" y="-710.19" font-family="Times,serif" font-size="24" transform="translate(4 834.59)" class="node">𝐑ₚ𝐈ₚ𝐓¹</text>
    <text text-anchor="middle" x="902.65" y="-407.92" font-family="Times,serif" font-size="24" transform="translate(4 834.59)" class="node">𝐑ₚ𝐓¹𝐈ₚ</text>
    <text text-anchor="middle" x="265.62" y="-55.53" font-family="Times,serif" font-size="24" transform="translate(4 834.59)" class="node">𝐑𝐌₅𝐓¹</text>
    <text text-anchor="middle" x="1147.27" y="-317.47" font-family="Times,serif" font-size="24" transform="translate(4 834.59)" class="node">𝐑𝐓¹𝐌₅</text>
    <text text-anchor="middle" x="274.46" y="-144.03" font-family="Times,serif" font-size="24" transform="translate(4 834.59)" class="node">𝐑ₜ𝐌₅𝐓¹</text>
    <text text-anchor="middle" x="1063.56" y="-415.13" font-family="Times,serif" font-size="24" transform="translate(4 834.59)" class="node">𝐑ₜ𝐓¹𝐌₅</text>
    <text text-anchor="middle" x="366.31" y="-6.8" font-family="Times,serif" font-size="24" transform="translate(4 834.59)" class="node">𝐑ₚ𝐌₅𝐓¹</text>
    <text text-anchor="middle" x="1092.89" y="-220.11" font-family="Times,serif" font-size="24" transform="translate(4 834.59)" class="node">𝐑ₚ𝐓¹𝐌₅</text>
    <text text-anchor="middle" x="138.69" y="-607.95" font-family="Times,serif" font-size="24" transform="translate(4 834.59)" class="node">𝐑𝐌₇𝐓¹</text>
    <text text-anchor="middle" x="1164.51" y="-488.4" font-family="Times,serif" font-size="24" transform="translate(4 834.59)" class="node">𝐑𝐓¹𝐌₇</text>
    <text text-anchor="middle" x="71.19" y="-678.83" font-family="Times,serif" font-size="24" transform="translate(4 834.59)" class="node">𝐑ₜ𝐌₇𝐓¹</text>
    <text text-anchor="middle" x="1082.46" y="-582.77" font-family="Times,serif" font-size="24" transform="translate(4 834.59)" class="node">𝐑ₜ𝐓¹𝐌₇</text>
    <text text-anchor="middle" x="102.87" y="-486.77" font-family="Times,serif" font-size="24" transform="translate(4 834.59)" class="node">𝐑ₚ𝐌₇𝐓¹</text>
    <text text-anchor="middle" x="1134.91" y="-379.18" font-family="Times,serif" font-size="24" transform="translate(4 834.59)" class="node">𝐑ₚ𝐓¹𝐌₇</text>
    <text text-anchor="middle" x="32" y="-560.62" font-family="Times,serif" font-size="24" transform="translate(4 834.59)" class="node">𝐌₇𝐓¹</text>
    <text text-anchor="middle" x="1042.53" y="-477.55" font-family="Times,serif" font-size="24" transform="translate(4 834.59)" class="node">𝐓¹𝐌₇</text>
  </g>
</svg>
