<svg width="2459.182" height="445.039" version="1.2" xmlns="http://www.w3.org/2000/svg">
  <path class="StaffLines" fill="none" stroke="#000" stroke-width="2.73" stroke-linejoin="bevel" d="M16 217.51h2427.182M16 242.31h2427.182M16 267.11h2427.182M16 291.91h2427.182M16 316.71h2427.182"/>
  <path class="Symbol" d="M1090.142 304.217c0 7.734 3.968 13.981 10.323 18.042l.496-.682c-3.379-2.588-4.572-4.076-5.657-7.254-.992-2.868-1.488-6.045-1.488-10.215 0-7.827 1.085-11.997 7.145-17.065l-.403-.682c-6.541 4.464-10.416 9.517-10.416 17.856m46.724-.109c0 4.17-.496 7.347-1.488 10.215-1.194 3.178-2.387 4.666-5.751 7.254l.589.682c6.355-3.968 10.214-10.416 10.214-18.042 0-8.246-3.859-13.594-10.416-17.856l-.387.682c6.138 4.96 7.239 9.238 7.239 17.066m-533.031-49.492c0 7.734 3.968 13.981 10.323 18.042l.496-.682c-3.379-2.588-4.573-4.076-5.658-7.254-.992-2.868-1.488-6.045-1.488-10.215 0-7.827 1.085-11.997 7.146-17.065l-.403-.682c-6.541 4.464-10.416 9.517-10.416 17.856m46.717-.109c0 4.17-.496 7.347-1.488 10.215-1.194 3.178-2.387 4.666-5.751 7.254l.589.682c6.355-3.968 10.214-10.416 10.214-18.042 0-8.246-3.859-13.594-10.415-17.856l-.388.682c6.138 4.96 7.239 9.238 7.239 17.066m8.525.108c0 7.734 3.968 13.981 10.323 18.042l.496-.682c-3.379-2.588-4.573-4.076-5.658-7.254-.992-2.868-1.488-6.045-1.488-10.215 0-7.827 1.085-11.997 7.146-17.065l-.403-.682c-6.541 4.464-10.416 9.517-10.416 17.856m46.718-.109c0 4.17-.496 7.347-1.488 10.215-1.193 3.178-2.387 4.666-5.75 7.254l.589.682c6.355-3.968 10.214-10.416 10.214-18.042 0-8.246-3.859-13.594-10.416-17.856l-.387.682c6.138 4.96 7.238 9.238 7.238 17.066m255.437.108c0 7.734 3.968 13.981 10.323 18.042l.496-.682c-3.379-2.588-4.573-4.076-5.658-7.254-.992-2.868-1.488-6.045-1.488-10.215 0-7.827 1.085-11.997 7.146-17.065l-.403-.682c-6.541 4.464-10.416 9.517-10.416 17.856m46.724-.109c0 4.17-.496 7.347-1.488 10.215-1.194 3.178-2.387 4.666-5.751 7.254l.589.682c6.355-3.968 10.214-10.416 10.214-18.042 0-8.246-3.859-13.594-10.415-17.856l-.388.682c6.138 4.96 7.239 9.238 7.239 17.066m82.186.108c0 7.734 3.968 13.981 10.323 18.042l.496-.682c-3.379-2.588-4.572-4.076-5.657-7.254-.992-2.868-1.488-6.045-1.488-10.215 0-7.827 1.085-11.997 7.145-17.065l-.403-.682c-6.541 4.464-10.416 9.517-10.416 17.856m46.724-.109c0 4.17-.496 7.347-1.488 10.215-1.194 3.178-2.387 4.666-5.751 7.254l.589.682c6.355-3.968 10.214-10.416 10.214-18.042 0-8.246-3.859-13.594-10.416-17.856l-.387.682c6.138 4.96 7.239 9.238 7.239 17.066m386.346.108c0 7.734 3.968 13.981 10.323 18.042l.496-.682c-3.379-2.588-4.572-4.076-5.657-7.254-.992-2.868-1.488-6.045-1.488-10.215 0-7.827 1.085-11.997 7.145-17.065l-.403-.682c-6.541 4.464-10.416 9.517-10.416 17.856m46.724-.109c0 4.17-.496 7.347-1.488 10.215-1.194 3.178-2.388 4.666-5.751 7.254l.589.682c6.355-3.968 10.214-10.416 10.214-18.042 0-8.246-3.859-13.594-10.416-17.856l-.387.682c6.138 4.96 7.239 9.238 7.239 17.066m8.526.108c0 7.734 3.968 13.981 10.323 18.042l.496-.682c-3.379-2.588-4.572-4.076-5.657-7.254-.992-2.868-1.488-6.045-1.488-10.215 0-7.827 1.085-11.997 7.145-17.065l-.403-.682c-6.541 4.464-10.416 9.517-10.416 17.856m46.714-.109c0 4.17-.496 7.347-1.488 10.215-1.194 3.178-2.388 4.666-5.751 7.254l.589.682c6.355-3.968 10.214-10.416 10.214-18.042 0-8.246-3.859-13.594-10.416-17.856l-.387.682c6.138 4.96 7.239 9.238 7.239 17.066m128.796.108c0 7.734 3.968 13.981 10.323 18.042l.496-.682c-3.379-2.588-4.572-4.076-5.657-7.254-.992-2.868-1.488-6.045-1.488-10.215 0-7.827 1.085-11.997 7.145-17.065l-.403-.682c-6.541 4.464-10.416 9.517-10.416 17.856m46.714-.109c0 4.17-.496 7.347-1.488 10.215-1.194 3.178-2.388 4.666-5.751 7.254l.589.682c6.355-3.968 10.214-10.416 10.214-18.042 0-8.246-3.859-13.594-10.416-17.856l-.387.682c6.138 4.96 7.239 9.238 7.239 17.066m331.976 49.708c0 7.734 3.968 13.981 10.323 18.042l.496-.682c-3.379-2.588-4.573-4.076-5.658-7.254-.991-2.868-1.487-6.045-1.487-10.215 0-7.827 1.085-11.997 7.145-17.065l-.403-.682c-6.541 4.464-10.416 9.517-10.416 17.856m46.723-.109c0 4.17-.496 7.347-1.488 10.215-1.193 3.178-2.386 4.666-5.75 7.254l.589.682c6.355-3.968 10.214-10.416 10.214-18.042 0-8.246-3.859-13.594-10.415-17.856l-.388.682c6.138 4.96 7.239 9.238 7.239 17.066m18.816.108c0 7.734 3.968 13.981 10.323 18.042l.496-.682c-3.379-2.588-4.572-4.076-5.657-7.254-.992-2.868-1.488-6.045-1.488-10.215 0-7.827 1.085-11.997 7.145-17.065l-.403-.682c-6.541 4.464-10.416 9.517-10.416 17.856m46.723-.109c0 4.17-.496 7.347-1.488 10.215-1.193 3.178-2.386 4.666-5.75 7.254l.589.682c6.355-3.968 10.214-10.416 10.214-18.042 0-8.246-3.859-13.594-10.415-17.856l-.388.682c6.138 4.96 7.239 9.238 7.239 17.066m84.366.108c0 7.734 3.968 13.981 10.323 18.042l.496-.682c-3.379-2.588-4.572-4.076-5.657-7.254-.993-2.868-1.489-6.045-1.489-10.215 0-7.827 1.086-11.997 7.146-17.065l-.403-.682c-6.541 4.464-10.416 9.517-10.416 17.856m46.714-.109c0 4.17-.496 7.347-1.488 10.215-1.194 3.178-2.387 4.666-5.751 7.254l.589.682c6.355-3.968 10.214-10.416 10.214-18.042 0-8.246-3.859-13.594-10.415-17.856l-.388.682c6.138 4.96 7.239 9.238 7.239 17.066" style="stroke-width:.992"/>
  <path class="BarLine" fill="none" stroke="#000" stroke-width="4.46" stroke-linejoin="bevel" d="M1237.072 216.146v101.928m1181.93-101.928v101.928"/>
  <path class="BarLine" fill="none" stroke="#000" stroke-width="13.64" stroke-linejoin="bevel" d="M2436.362 216.146v101.928"/>
  <path class="LedgerLine" fill="none" stroke="#000" stroke-width="3.97" stroke-linejoin="bevel" d="M178.952 192.71h49.592"/>
  <path class="Stem" fill="none" stroke="#000" stroke-width="2.73" stroke-linejoin="bevel" d="M188.996 307.643v77.267m145.024-77.267v77.267m64.454-77.267v77.267m317.118-77.267v64.867m322.27-64.867v77.267m64.46-77.267v77.267M218.5 184.298V99.71m64.455 151.826V105.433m40.284 146.103V109.01m50.453 211.688V113.49m54.287 104.02v-99.2m64.455 202.388V124.51m88.625 127.026V124.51m64.455 127.026V124.51m55.238 127.026V124.51m108.8 127.026V143.11m64.45 177.588V155.51m64.46 96.026V167.91m64.45 152.788V143.11m128.91 108.426V143.11m64.46 108.426V143.11m142.17 164.533V409.71m95.04-158.174V143.11m-29.5 194.412v72.188m65.86-102.067V409.71m95.04-158.174V124.51m-29.5 213.012v59.788m84.74-145.774V124.51m44.44 127.026V124.51m36.03 183.133v64.867m95.05-120.974V124.51m65.54 127.026V143.11m65.54 108.426V143.11m65.54 177.588V143.11m10.17 164.533v83.467m106.36-173.6v-74.4m75.71 177.588V143.11m-39.67 164.533v77.267m95.04-133.374V143.11m-29.5 164.533v77.267m95.04-167.4v-74.4m65.55 108.426V143.11m-29.51 164.533v77.267"/>
  <path class="Note" d="M218.88 296.281c-1.783-3.286-5.549-5.068-10.121-5.068-3.364 0-7.038.992-10.618 2.882-6.541 3.472-10.509 9.316-10.509 14.384 0 1.38.294 2.775.992 4.061 1.782 3.271 5.549 4.96 10.121 4.96 3.364 0 7.038-.883 10.618-2.774 6.541-3.472 10.509-9.331 10.509-14.384 0-1.395-.295-2.775-.992-4.061m145.024 0c-1.783-3.286-5.549-5.068-10.121-5.068-3.364 0-7.038.992-10.618 2.882-6.541 3.472-10.509 9.316-10.509 14.384 0 1.38.294 2.775.992 4.062 1.782 3.27 5.549 4.96 10.121 4.96 3.364 0 7.038-.884 10.618-2.775 6.541-3.472 10.509-9.331 10.509-14.384 0-1.395-.295-2.775-.992-4.061m64.454 0c-1.783-3.286-5.549-5.068-10.121-5.068-3.364 0-7.038.992-10.618 2.882-6.541 3.472-10.509 9.316-10.509 14.384 0 1.38.294 2.775.992 4.061 1.783 3.271 5.549 4.96 10.121 4.96 3.364 0 7.038-.883 10.618-2.774 6.541-3.472 10.509-9.331 10.509-14.384 0-1.395-.295-2.775-.992-4.061m317.112 0c-1.783-3.286-5.549-5.068-10.121-5.068-3.364 0-7.038.992-10.618 2.882-6.541 3.472-10.509 9.316-10.509 14.384 0 1.38.294 2.775.992 4.061 1.782 3.271 5.549 4.96 10.121 4.96 3.364 0 7.038-.883 10.618-2.774 6.541-3.472 10.509-9.331 10.509-14.384 0-1.395-.295-2.775-.992-4.061m322.28 0c-1.782-3.286-5.549-5.068-10.121-5.068-3.364 0-7.037.992-10.618 2.882-6.541 3.472-10.509 9.316-10.509 14.384 0 1.38.294 2.775.992 4.062 1.782 3.27 5.549 4.96 10.121 4.96 3.364 0 7.037-.884 10.618-2.775 6.541-3.472 10.509-9.331 10.509-14.384 0-1.395-.294-2.775-.992-4.061m64.45 0c-1.782-3.286-5.549-5.068-10.121-5.068-3.364 0-7.037.992-10.618 2.882-6.541 3.472-10.509 9.316-10.509 14.384 0 1.38.294 2.775.992 4.062 1.782 3.27 5.549 4.96 10.121 4.96 3.364 0 7.037-.884 10.618-2.775 6.541-3.472 10.509-9.331 10.509-14.384 0-1.395-.294-2.775-.992-4.061M207.27 192.71l12.106-9.517c.295-.202.496-.604.496-.992v-.108c0-.388-.201-.698-.387-.884l-1.194-1.194c-.294-.201-.604-.402-.992-.402-.294 0-.698.108-.899.294l-12.601 10.028-12.695-10.028c-.202-.186-.589-.294-.899-.294-.388 0-.589.201-.883.402l-1.287 1.194c-.201.186-.403.589-.403.992 0 .388.202.79.496.992l12.105 9.517-12.105 9.517c-.294.201-.496.604-.496.992 0 .31.202.698.403.899l1.178 1.287c.202.294.605.402.992.402.31 0 .698-.108.899-.294l12.695-10.029 12.601 10.029c.201.186.605.294.899.294.388 0 .79-.108.992-.402l1.194-1.287c.186-.201.387-.589.387-.899 0-.388-.201-.79-.496-.992l-12.105-9.517m76.064 53.971c-1.783-3.286-5.549-5.068-10.121-5.068-3.364 0-7.038.992-10.618 2.882-6.541 3.473-10.509 9.316-10.509 14.385 0 1.379.294 2.774.992 4.06 1.782 3.271 5.549 4.96 10.121 4.96 3.364 0 7.038-.883 10.618-2.774 6.541-3.472 10.509-9.331 10.509-14.384 0-1.395-.295-2.775-.992-4.061m40.284 0c-1.783-3.286-5.549-5.068-10.121-5.068-3.364 0-7.038.992-10.618 2.882-6.541 3.473-10.509 9.316-10.509 14.385 0 1.379.294 2.774.992 4.06 1.782 3.271 5.549 4.96 10.121 4.96 3.364 0 7.038-.883 10.618-2.774 6.541-3.472 10.509-9.331 10.509-14.384 0-1.395-.295-2.775-.992-4.061" style="stroke-width:.992"/>
  <path class="Note" d="m362.463 329.11 12.105-9.517c.295-.202.496-.604.496-.992v-.108c0-.388-.201-.698-.387-.884l-1.194-1.194c-.294-.201-.604-.402-.992-.402-.294 0-.698.108-.899.294l-12.601 10.029-12.695-10.03c-.202-.185-.589-.293-.899-.293-.388 0-.589.201-.883.402l-1.287 1.194c-.202.186-.403.589-.403.992 0 .388.201.79.496.992l12.105 9.517-12.105 9.517c-.295.202-.496.604-.496.992 0 .31.201.698.403.899l1.178 1.287c.202.294.605.402.992.402.31 0 .698-.108.899-.294l12.695-10.028 12.601 10.028c.201.186.605.294.899.294.388 0 .79-.108.992-.402l1.194-1.287c.186-.201.387-.589.387-.899 0-.388-.201-.79-.496-.992l-12.105-9.517m66.391-112.592-14.787-12.695c-.186-.201-.496-.402-.79-.402-.295 0-.698.201-.884.402l-14.787 12.695c-.294.202-.496.589-.496.992s.202.79.496.992l14.787 12.601c.186.202.589.295.884.295.294 0 .604-.093.79-.295l14.787-12.601c.295-.202.496-.589.496-.992s-.201-.79-.496-.992m52.35 112.592 12.105-9.517c.295-.202.496-.604.496-.992v-.108c0-.388-.201-.698-.387-.884l-1.194-1.194c-.294-.201-.604-.402-.992-.402-.294 0-.698.108-.899.294l-12.601 10.029-12.695-10.03c-.202-.185-.589-.293-.899-.293-.388 0-.589.201-.883.402l-1.287 1.194c-.202.186-.403.589-.403.992 0 .388.201.79.496.992l12.105 9.517-12.105 9.517c-.295.202-.496.604-.496.992 0 .31.201.698.403.899l1.178 1.287c.201.294.604.402.992.402.31 0 .698-.108.899-.294l12.695-10.028 12.601 10.028c.201.186.605.294.899.294.388 0 .79-.108.992-.402l1.194-1.287c.186-.201.387-.589.387-.899 0-.388-.201-.79-.496-.992l-12.105-9.517m11.609-82.429c-1.783-3.286-5.549-5.068-10.121-5.068-3.364 0-7.038.992-10.618 2.882-6.541 3.473-10.509 9.316-10.509 14.385 0 1.379.294 2.774.992 4.06 1.782 3.271 5.549 4.96 10.121 4.96 3.364 0 7.038-.883 10.618-2.774 6.541-3.472 10.509-9.331 10.509-14.384 0-1.395-.295-2.775-.992-4.061m88.626 0c-1.783-3.286-5.549-5.068-10.121-5.068-3.364 0-7.038.992-10.618 2.882-6.541 3.473-10.509 9.316-10.509 14.385 0 1.379.294 2.774.992 4.06 1.782 3.271 5.549 4.96 10.121 4.96 3.364 0 7.038-.883 10.618-2.774 6.541-3.472 10.509-9.331 10.509-14.384 0-1.395-.295-2.775-.992-4.061m.496-30.163-14.787-12.695c-.186-.201-.496-.402-.79-.402-.295 0-.698.201-.884.402l-14.787 12.695c-.294.202-.496.589-.496.992s.202.79.496.992l14.787 12.601c.186.202.589.295.884.295.294 0 .604-.093.79-.295l14.787-12.601c.295-.202.496-.589.496-.992s-.201-.79-.496-.992m63.959 30.163c-1.783-3.286-5.549-5.068-10.121-5.068-3.364 0-7.038.992-10.618 2.882-6.541 3.473-10.509 9.316-10.509 14.385 0 1.379.294 2.774.992 4.06 1.782 3.271 5.549 4.96 10.121 4.96 3.364 0 7.038-.883 10.618-2.774 6.541-3.472 10.509-9.331 10.509-14.384 0-1.395-.295-2.775-.992-4.061m55.242 0c-1.783-3.286-5.549-5.068-10.121-5.068-3.364 0-7.038.992-10.618 2.882-6.541 3.473-10.509 9.316-10.509 14.385 0 1.379.294 2.774.992 4.06 1.782 3.271 5.549 4.96 10.121 4.96 3.364 0 7.038-.883 10.618-2.774 6.541-3.472 10.509-9.331 10.509-14.384 0-1.395-.295-2.775-.992-4.061m108.794 0c-1.783-3.286-5.549-5.068-10.121-5.068-3.364 0-7.038.992-10.618 2.882-6.541 3.472-10.509 9.316-10.509 14.385 0 1.379.294 2.774.992 4.06 1.782 3.271 5.549 4.96 10.121 4.96 3.364 0 7.038-.883 10.618-2.774 6.541-3.472 10.509-9.331 10.509-14.384 0-1.395-.295-2.775-.992-4.061m.496-30.163-14.787-12.695c-.186-.201-.496-.402-.79-.402-.295 0-.698.201-.884.402l-14.787 12.695c-.294.202-.496.589-.496.992s.202.79.496.992l14.787 12.601c.186.202.589.295.884.295.294 0 .604-.093.79-.295l14.787-12.601c.295-.202.496-.589.496-.992s-.201-.79-.496-.992M862.77 329.11l12.106-9.517c.295-.202.496-.604.496-.992v-.108c0-.388-.201-.698-.387-.884l-1.194-1.194c-.294-.201-.604-.402-.992-.402-.294 0-.698.108-.899.294l-12.601 10.029-12.695-10.03c-.202-.185-.589-.293-.899-.293-.388 0-.589.201-.883.402l-1.287 1.194c-.202.186-.403.589-.403.992 0 .388.202.79.496.992l12.105 9.517-12.105 9.517c-.295.202-.496.604-.496.992 0 .31.202.698.403.899l1.178 1.287c.202.294.605.402.992.402.31 0 .697-.108.899-.294l12.695-10.029 12.601 10.029c.201.186.605.294.899.294.388 0 .79-.108.992-.402l1.194-1.287c.186-.201.387-.589.387-.899 0-.388-.201-.79-.496-.992l-12.105-9.517m76.069-82.429c-1.783-3.286-5.549-5.068-10.121-5.068-3.364 0-7.038.992-10.618 2.882-6.541 3.472-10.509 9.316-10.509 14.385 0 1.379.294 2.774.992 4.06 1.782 3.271 5.549 4.96 10.121 4.96 3.364 0 7.038-.883 10.618-2.774 6.541-3.472 10.509-9.331 10.509-14.384 0-1.395-.295-2.775-.992-4.061m52.84 82.429 12.106-9.517c.295-.202.496-.604.496-.992v-.108c0-.388-.202-.698-.388-.884l-1.193-1.194c-.294-.201-.605-.402-.992-.402-.294 0-.697.108-.899.294l-12.601 10.029-12.695-10.03c-.202-.185-.589-.293-.899-.293-.388 0-.589.201-.883.402l-1.287 1.194c-.202.186-.403.589-.403.992 0 .388.201.79.496.992l12.105 9.517-12.105 9.517c-.294.202-.496.604-.496.992 0 .31.202.698.403.899l1.178 1.287c.202.294.605.402.992.402.31 0 .698-.108.899-.294l12.695-10.028 12.601 10.028c.202.186.605.294.899.294.388 0 .79-.108.992-.402l1.194-1.287c.186-.201.387-.589.387-.899 0-.388-.202-.79-.496-.992l-12.105-9.517m11.609-82.429c-1.782-3.286-5.549-5.068-10.121-5.068-3.364 0-7.038.992-10.618 2.882-6.541 3.472-10.509 9.316-10.509 14.385 0 1.379.294 2.774.992 4.06 1.782 3.271 5.549 4.96 10.121 4.96 3.364 0 7.038-.883 10.618-2.774 6.541-3.472 10.509-9.331 10.509-14.384 0-1.395-.294-2.775-.992-4.061m.496-30.163-14.787-12.695c-.186-.201-.496-.402-.79-.402-.295 0-.698.201-.884.402l-14.787 12.695c-.294.202-.496.589-.496.992s.202.79.496.992l14.787 12.601c.186.202.589.295.884.295.294 0 .604-.093.79-.295l14.787-12.601c.294-.202.496-.589.496-.992s-.202-.79-.496-.992m128.414 30.163c-1.782-3.286-5.549-5.068-10.121-5.068-3.364 0-7.037.992-10.618 2.882-6.541 3.473-10.509 9.316-10.509 14.385 0 1.379.294 2.774.992 4.06 1.782 3.271 5.549 4.96 10.121 4.96 3.364 0 7.037-.883 10.618-2.774 6.541-3.472 10.509-9.331 10.509-14.384 0-1.395-.294-2.775-.992-4.061m64.46 0c-1.782-3.286-5.549-5.068-10.121-5.068-3.364 0-7.037.992-10.618 2.882-6.541 3.473-10.509 9.316-10.509 14.385 0 1.379.294 2.774.992 4.06 1.782 3.271 5.549 4.96 10.121 4.96 3.364 0 7.037-.883 10.618-2.774 6.541-3.472 10.509-9.331 10.509-14.384 0-1.395-.294-2.775-.992-4.061m.496-30.163-14.787-12.695c-.186-.201-.496-.402-.79-.402-.295 0-.698.201-.884.402l-14.787 12.695c-.294.202-.496.589-.496.992s.201.79.496.992l14.787 12.601c.186.202.589.295.883.295.295 0 .605-.093.791-.295l14.787-12.601c.294-.202.496-.589.496-.992s-.202-.79-.496-.992m171.174 79.763c-1.782-3.286-5.549-5.068-10.121-5.068-3.364 0-7.038.992-10.618 2.882-6.541 3.472-10.509 9.316-10.509 14.384 0 1.38.294 2.775.992 4.062 1.782 3.27 5.549 4.96 10.121 4.96 3.364 0 7.037-.884 10.618-2.775 6.541-3.472 10.509-9.331 10.509-14.384 0-1.395-.294-2.775-.992-4.061m65.54-49.6c-1.782-3.286-5.549-5.068-10.121-5.068-3.364 0-7.038.992-10.618 2.882-6.541 3.473-10.509 9.316-10.509 14.385 0 1.379.294 2.774.992 4.06 1.782 3.271 5.549 4.96 10.121 4.96 3.364 0 7.037-.883 10.618-2.774 6.541-3.472 10.509-9.331 10.509-14.384 0-1.395-.295-2.775-.992-4.061m.496-30.163-14.787-12.695c-.186-.201-.496-.402-.79-.402-.295 0-.698.201-.884.402l-14.787 12.695c-.294.202-.496.589-.496.992s.201.79.496.992l14.787 12.601c.186.202.589.295.883.295.295 0 .605-.093.791-.295l14.787-12.601c.294-.202.496-.589.496-.992s-.202-.79-.496-.992M1422.26 329.11l12.106-9.517c.294-.202.496-.604.496-.992v-.108c0-.388-.202-.698-.388-.884l-1.193-1.194c-.294-.201-.605-.402-.992-.402-.294 0-.698.108-.899.294l-12.601 10.028-12.695-10.028c-.202-.186-.589-.294-.899-.294-.387 0-.589.201-.883.402l-1.287 1.194c-.201.186-.403.589-.403.992 0 .388.202.79.496.992l12.106 9.517-12.106 9.517c-.294.202-.496.604-.496.992 0 .31.202.698.403.899l1.178 1.287c.202.294.605.402.992.402.31 0 .698-.108.899-.294l12.695-10.028 12.601 10.028c.202.186.605.294.899.294.388 0 .79-.108.992-.402l1.194-1.287c.186-.201.387-.589.387-.899 0-.388-.201-.79-.496-.992l-12.105-9.517m77.469-32.829c-1.782-3.286-5.549-5.068-10.121-5.068-3.364 0-7.037.992-10.618 2.882-6.541 3.472-10.509 9.316-10.509 14.384 0 1.38.294 2.775.992 4.062 1.782 3.27 5.549 4.96 10.121 4.96 3.364 0 7.037-.884 10.618-2.775 6.541-3.472 10.509-9.331 10.509-14.384 0-1.395-.294-2.775-.992-4.061m65.54-49.6c-1.782-3.286-5.549-5.068-10.121-5.068-3.364 0-7.037.992-10.618 2.882-6.541 3.473-10.509 9.316-10.509 14.385 0 1.379.294 2.774.992 4.06 1.782 3.271 5.549 4.96 10.121 4.96 3.364 0 7.037-.883 10.618-2.774 6.541-3.472 10.509-9.331 10.509-14.384 0-1.395-.294-2.775-.992-4.061m-11.61 82.429 12.106-9.517c.294-.202.496-.604.496-.992v-.108c0-.388-.202-.698-.388-.884l-1.193-1.194c-.295-.201-.605-.402-.992-.402-.295 0-.698.108-.899.294l-12.601 10.028-12.695-10.028c-.202-.186-.589-.294-.899-.294-.388 0-.589.201-.883.402l-1.287 1.194c-.201.186-.403.589-.403.992 0 .388.202.79.496.992l12.106 9.517-12.106 9.517c-.294.202-.496.604-.496.992 0 .31.202.698.403.899l1.178 1.287c.202.294.605.402.992.402.31 0 .698-.108.899-.294l12.695-10.028 12.601 10.028c.202.186.605.294.899.294.388 0 .79-.108.992-.402l1.194-1.287c.186-.201.387-.589.387-.899 0-.388-.201-.79-.496-.992l-12.105-9.517m66.859-82.429c-1.782-3.286-5.549-5.068-10.121-5.068-3.364 0-7.037.992-10.618 2.882-6.541 3.473-10.509 9.316-10.509 14.385 0 1.379.294 2.774.992 4.06 1.782 3.271 5.549 4.96 10.121 4.96 3.364 0 7.037-.883 10.618-2.774 6.541-3.472 10.509-9.331 10.509-14.384 0-1.395-.294-2.775-.992-4.061m44.43 0c-1.782-3.286-5.549-5.068-10.121-5.068-3.364 0-7.037.992-10.618 2.882-6.541 3.473-10.509 9.316-10.509 14.385 0 1.379.294 2.774.992 4.06 1.782 3.271 5.549 4.96 10.121 4.96 3.364 0 7.037-.883 10.618-2.774 6.541-3.472 10.509-9.331 10.509-14.384 0-1.395-.294-2.775-.992-4.061m.496-30.163-14.787-12.695c-.186-.201-.496-.402-.79-.402-.295 0-.698.201-.884.402l-14.787 12.695c-.295.202-.496.589-.496.992s.201.79.496.992l14.787 12.601c.186.202.589.295.883.295.295 0 .605-.093.791-.295l14.787-12.601c.294-.202.496-.589.496-.992s-.202-.79-.496-.992m65.044 79.763c-1.782-3.286-5.549-5.068-10.121-5.068-3.364 0-7.037.992-10.618 2.882-6.541 3.472-10.509 9.316-10.509 14.384 0 1.38.294 2.775.992 4.062 1.782 3.27 5.549 4.96 10.121 4.96 3.364 0 7.037-.884 10.618-2.775 6.541-3.472 10.509-9.331 10.509-14.384 0-1.395-.294-2.775-.992-4.061m65.54-49.6c-1.782-3.286-5.549-5.068-10.121-5.068-3.364 0-7.038.992-10.618 2.882-6.541 3.473-10.509 9.316-10.509 14.385 0 1.379.294 2.774.992 4.06 1.782 3.271 5.549 4.96 10.121 4.96 3.364 0 7.037-.883 10.618-2.774 6.541-3.472 10.509-9.331 10.509-14.384 0-1.395-.294-2.775-.992-4.061m65.54 0c-1.782-3.286-5.549-5.068-10.121-5.068-3.364 0-7.038.992-10.618 2.882-6.541 3.473-10.509 9.316-10.509 14.385 0 1.379.294 2.774.992 4.06 1.782 3.271 5.549 4.96 10.121 4.96 3.364 0 7.037-.883 10.618-2.774 6.541-3.472 10.509-9.331 10.509-14.384 0-1.395-.294-2.775-.992-4.061m.496-30.163-14.787-12.695c-.186-.201-.496-.402-.79-.402-.295 0-.698.201-.884.402l-14.787 12.695c-.294.202-.496.589-.496.992s.202.79.496.992l14.787 12.601c.186.202.589.295.883.295.295 0 .605-.093.791-.295l14.787-12.601c.294-.202.496-.589.496-.992s-.201-.79-.496-.992m65.044 30.163c-1.782-3.286-5.549-5.068-10.121-5.068-3.364 0-7.038.992-10.618 2.882-6.541 3.473-10.509 9.316-10.509 14.385 0 1.379.294 2.774.992 4.06 1.782 3.271 5.549 4.96 10.121 4.96 3.364 0 7.037-.883 10.618-2.774 6.541-3.472 10.509-9.331 10.509-14.384 0-1.395-.295-2.775-.992-4.061m53.93 82.429 12.106-9.517c.294-.202.496-.604.496-.992v-.108c0-.388-.202-.698-.388-.884l-1.193-1.194c-.294-.201-.605-.402-.992-.402-.294 0-.698.108-.899.294l-12.601 10.028-12.695-10.028c-.202-.186-.589-.294-.899-.294-.387 0-.589.201-.883.402l-1.287 1.194c-.201.186-.403.589-.403.992 0 .388.202.79.496.992l12.106 9.517-12.106 9.517c-.294.202-.496.604-.496.992 0 .31.202.698.403.899l1.178 1.287c.202.294.605.402.992.402.31 0 .698-.108.899-.294l12.695-10.028 12.601 10.028c.202.186.605.294.899.294.388 0 .79-.108.992-.402l1.194-1.287c.186-.201.387-.589.387-.899 0-.388-.201-.79-.496-.992l-12.105-9.517m51.279-32.829c-1.782-3.286-5.549-5.068-10.121-5.068-3.364 0-7.038.992-10.618 2.882-6.541 3.472-10.509 9.316-10.509 14.384 0 1.38.294 2.775.992 4.062 1.782 3.27 5.549 4.96 10.121 4.96 3.364 0 7.037-.884 10.618-2.775 6.541-3.472 10.509-9.331 10.509-14.384 0-1.395-.294-2.775-.992-4.061m77.366-79.763-14.787-12.695c-.186-.201-.496-.402-.79-.402-.295 0-.698.201-.884.402l-14.787 12.695c-.294.202-.496.589-.496.992s.202.79.496.992l14.787 12.601c.186.202.589.295.884.295.294 0 .604-.093.79-.295l14.787-12.601c.294-.202.496-.589.496-.992s-.201-.79-.496-.992m63.594 112.592 12.106-9.517c.294-.202.496-.604.496-.992v-.108c0-.388-.202-.698-.388-.884l-1.193-1.194c-.294-.201-.604-.402-.992-.402-.294 0-.698.108-.899.294l-12.601 10.028-12.695-10.028c-.202-.186-.589-.294-.899-.294-.388 0-.589.201-.883.402l-1.287 1.194c-.202.186-.403.589-.403.992 0 .388.202.79.496.992l12.106 9.517-12.106 9.517c-.294.202-.496.604-.496.992 0 .31.202.698.403.899l1.178 1.287c.202.294.605.402.992.402.31 0 .698-.108.899-.294l12.694-10.028 12.602 10.028c.202.186.605.294.899.294.388 0 .79-.108.992-.402l1.194-1.287c.186-.201.387-.589.387-.899 0-.388-.202-.79-.496-.992l-12.105-9.517m11.609-82.429c-1.782-3.286-5.549-5.068-10.121-5.068-3.364 0-7.038.992-10.618 2.882-6.541 3.473-10.509 9.316-10.509 14.385 0 1.379.294 2.774.992 4.06 1.782 3.271 5.549 4.96 10.121 4.96 3.364 0 7.038-.883 10.618-2.774 6.541-3.472 10.509-9.331 10.509-14.384 0-1.395-.294-2.775-.992-4.061" style="stroke-width:.992"/>
  <path class="Note" d="M2174.73 296.281c-1.782-3.286-5.549-5.068-10.121-5.068-3.364 0-7.038.992-10.618 2.882-6.541 3.472-10.509 9.316-10.509 14.384 0 1.38.294 2.775.992 4.062 1.782 3.27 5.549 4.96 10.121 4.96 3.364 0 7.038-.884 10.618-2.775 6.541-3.472 10.509-9.331 10.509-14.384 0-1.395-.294-2.775-.992-4.061m65.54-49.6c-1.782-3.286-5.549-5.068-10.121-5.068-3.364 0-7.038.992-10.618 2.882-6.541 3.473-10.509 9.316-10.509 14.385 0 1.379.294 2.774.992 4.06 1.782 3.271 5.549 4.96 10.121 4.96 3.364 0 7.038-.883 10.618-2.774 6.541-3.472 10.509-9.331 10.509-14.384 0-1.395-.294-2.775-.992-4.061m0 49.6c-1.782-3.286-5.549-5.068-10.121-5.068-3.364 0-7.038.992-10.618 2.882-6.541 3.472-10.509 9.316-10.509 14.384 0 1.38.294 2.775.992 4.062 1.782 3.27 5.549 4.96 10.121 4.96 3.364 0 7.038-.884 10.618-2.775 6.541-3.472 10.509-9.331 10.509-14.384 0-1.395-.294-2.775-.992-4.061m66.036-79.763-14.787-12.695c-.186-.201-.496-.402-.79-.402-.295 0-.698.201-.884.402l-14.787 12.695c-.294.202-.496.589-.496.992s.202.79.496.992l14.787 12.601c.186.202.589.295.884.295.294 0 .604-.093.79-.295l14.787-12.601c.294-.202.496-.589.496-.992s-.202-.79-.496-.992m65.044 30.163c-1.782-3.286-5.549-5.068-10.121-5.068-3.364 0-7.038.992-10.618 2.882-6.541 3.473-10.509 9.316-10.509 14.385 0 1.379.294 2.774.992 4.06 1.782 3.271 5.549 4.96 10.121 4.96 3.364 0 7.038-.883 10.618-2.774 6.541-3.472 10.509-9.331 10.509-14.384 0-1.395-.294-2.775-.992-4.061m0 49.6c-1.782-3.286-5.549-5.068-10.121-5.068-3.364 0-7.038.992-10.618 2.882-6.541 3.472-10.509 9.316-10.509 14.384 0 1.38.294 2.775.992 4.062 1.782 3.27 5.549 4.96 10.121 4.96 3.364 0 7.038-.884 10.618-2.775 6.541-3.472 10.509-9.331 10.509-14.384 0-1.395-.294-2.775-.992-4.061" style="stroke-width:.992"/>
  <path class="Clef" d="M48.039 242.109H37.127c-.698 0-1.287.604-1.287 1.286v47.43c0 .682.589 1.286 1.287 1.286h10.912c.697 0 1.286-.604 1.286-1.286v-47.43c0-.682-.589-1.286-1.286-1.286m21.436 0H58.563c-.698 0-1.302.604-1.302 1.286v47.43c0 .682.604 1.286 1.302 1.286h10.912c.698 0 1.286-.604 1.286-1.286v-47.43c0-.682-.588-1.286-1.286-1.286" style="stroke-width:.992"/>
  <path class="TimeSig" d="M97.755 254.966h17.034v7.393h-8.152c-.776 0-1.411.62-1.411 1.396v1.89c0 .776.635 1.396 1.41 1.396h30.009a1.39 1.39 0 0 0 1.394-1.396v-1.89a1.39 1.39 0 0 0-1.394-1.396h-8.866v-7.393h8.866a1.39 1.39 0 0 0 1.394-1.395v-1.891a1.39 1.39 0 0 0-1.394-1.395h-8.866v-15.841c0-.527-.31-1.008-.776-1.24l-1.208-.605a1.446 1.446 0 0 0-1.582.233l-8.974 8.246c-.279.279-.45.635-.45 1.038v8.169h-11.423s11.036-11.935 22.785-27.574c.852-1.148.356-2.186.17-2.372l-2.154-2.186a1.41 1.41 0 0 0-.992-.418c-.589 0-14.043.03-14.756 0-.713-.016-1.24.604-1.318 1.209 0 0-.526 7.3-3.115 15.376-2.573 8.044-5.487 12.989-8.122 16.585 0 0-.542.976-.186 1.72.341.744.977 1.814.977 1.814s.248.527 1.1.527m0 49.336h17.034v7.393h-8.152c-.776 0-1.411.62-1.411 1.396v1.89c0 .776.635 1.396 1.41 1.396h30.009a1.39 1.39 0 0 0 1.394-1.396v-1.89a1.39 1.39 0 0 0-1.394-1.396h-8.866v-7.393h8.866a1.39 1.39 0 0 0 1.394-1.395v-1.891a1.39 1.39 0 0 0-1.394-1.395h-8.866V283.78c0-.527-.31-1.008-.776-1.24l-1.208-.605a1.446 1.446 0 0 0-1.582.233l-8.974 8.246c-.279.279-.45.635-.45 1.038v8.169h-11.423s11.036-11.935 22.785-27.574c.852-1.148.356-2.186.17-2.372l-2.154-2.186a1.41 1.41 0 0 0-.992-.418c-.589 0-14.043.03-14.756 0-.713-.016-1.24.604-1.318 1.209 0 0-.526 7.3-3.115 15.376-2.573 8.044-5.487 12.989-8.122 16.585 0 0-.542.976-.186 1.72.341.744.977 1.814.977 1.814s.248.527 1.1.527" style="stroke-width:.992"/>
  <path class="Rest" d="m484.582 407.881-.201-.31c-.093-.093-.295-.294-.589-.682l-11.408-14.09c-.31-.294-.202-1.1 0-1.487l10.106-15.283c.108-.202.202-.496.202-.698v-.884c0-.294-.093-.604-.295-.79l-16.073-21.731s-.791-1.193-1.783-.295c-.992.791-.202 2.078-.202 2.078l7.549 10.322c.388.59.388 1.783 0 2.372l-10.028 15.283c-.093.202-.202.589-.202.79v.9c0 .294.108.589.31.79l11.098 13.795a9.536 9.536 0 0 0-2.48-.31c-1.674 0-3.86.403-5.642 1.984-2.186 1.984-3.379 4.774-3.379 7.254 0 1.38.294 2.774 1.085 3.86 2.092 3.177 9.532 12.601 9.532 12.601s.884 1.1 1.783.403c.899-.698.697-1.596.403-2.092-.31-.496-3.472-6.247-3.472-6.247s-.698-1.395-.698-3.177c0-1.287.388-2.868 1.69-4.17 1.178-1.178 2.573-1.581 3.86-1.581 1.286 0 2.386.403 3.177.899l3.875 2.48s1.178.589 1.782-.31c.496-.79.295-1.178 0-1.674m520.661-49.274c-.744-.264-1.41.093-1.72.712-.295.605-3.1 5.999-7.378 9.378-1.334 1.054-2.884 1.736-4.434 2.124a7.077 7.077 0 0 0 1.628-4.759 7.07 7.07 0 0 0-7.316-6.82c-3.906.14-6.975 3.41-6.836 7.316a7.077 7.077 0 0 0 4.697 6.417c1.55.682 3.441 1.038 5.471.976 2.822-.108 5.875-1.038 8.494-3.1 1.225-.96 2.372-2.185 3.395-3.472v.016l-4.464 15.779s0 .015-.015.015v.016c-.466.945-3.69 7.068-7.673 10.214-1.333 1.07-2.883 1.752-4.433 2.124a7.01 7.01 0 0 0 1.628-4.743c-.14-3.922-3.41-6.975-7.317-6.836-3.906.14-6.975 3.41-6.835 7.332.108 2.976 2.046 5.456 4.696 6.417 1.55.666 3.441 1.038 5.472.961a14.522 14.522 0 0 0 8.494-3.085c1.209-.96 2.356-2.17 3.379-3.472l-10.121 36.178 2.65.744 18.523-65.674.868-3.1c.201-.728-.109-1.41-.853-1.658m-257.82-186c-.744-.264-1.41.093-1.72.712-.295.605-3.1 5.999-7.378 9.378-1.334 1.054-2.884 1.736-4.434 2.123a7.077 7.077 0 0 0 1.628-4.758 7.07 7.07 0 0 0-7.316-6.82c-3.906.14-6.975 3.41-6.836 7.316a7.077 7.077 0 0 0 4.697 6.417c1.55.682 3.441 1.038 5.471.977 2.822-.109 5.875-1.039 8.494-3.1 1.225-.962 2.372-2.186 3.395-3.473v.016l-4.464 15.779s0 .015-.015.015v.016c-.466.946-3.69 7.068-7.673 10.214-1.333 1.07-2.883 1.752-4.433 2.124a7.01 7.01 0 0 0 1.628-4.743c-.14-3.921-3.41-6.975-7.317-6.835-3.906.139-6.975 3.41-6.835 7.331.108 2.976 2.046 5.456 4.696 6.417 1.55.666 3.441 1.038 5.472.961a14.522 14.522 0 0 0 8.494-3.085c1.209-.96 2.356-2.17 3.379-3.472l-10.121 36.178 2.65.744 18.522-65.674.868-3.1c.202-.728-.108-1.41-.852-1.658m550.64 24.8c-.745-.28-1.411.062-1.737.666-.325.604-3.487 6.479-7.874 9.718-1.379 1.008-2.96 1.643-4.51 1.969a7.006 7.006 0 0 0 1.782-4.697c0-3.921-3.177-7.098-7.083-7.098a7.098 7.098 0 0 0-7.099 7.098c0 2.977 1.86 5.55 4.48 6.588 1.518.713 3.41 1.163 5.44 1.163 2.821 0 5.905-.822 8.602-2.806 1.256-.914 2.434-2.108 3.503-3.348L1282.268 242l2.62.853 13.965-43.742c.232-.728-.062-1.41-.79-1.704m6.68 99.2c-.744-.264-1.41.093-1.72.712-.295.605-3.1 5.999-7.378 9.378-1.333 1.054-2.883 1.736-4.433 2.124a7.077 7.077 0 0 0 1.627-4.759 7.07 7.07 0 0 0-7.316-6.82c-3.906.14-6.975 3.41-6.835 7.316a7.077 7.077 0 0 0 4.696 6.417c1.55.682 3.441 1.038 5.472.976 2.82-.108 5.874-1.038 8.494-3.1 1.224-.96 2.371-2.185 3.394-3.472v.016l-4.464 15.779s0 .016-.015.016v.015c-.465.946-3.689 7.068-7.672 10.215-1.333 1.07-2.883 1.751-4.433 2.123a7.01 7.01 0 0 0 1.627-4.743c-.14-3.921-3.41-6.975-7.316-6.835-3.906.139-6.975 3.41-6.835 7.331.108 2.976 2.046 5.456 4.696 6.417 1.55.667 3.441 1.039 5.472.961a14.522 14.522 0 0 0 8.494-3.084c1.209-.961 2.356-2.17 3.379-3.472l-10.122 36.177 2.65.744 18.523-65.674.868-3.1c.202-.728-.108-1.41-.852-1.658m552.098 0c-.744-.28-1.41.062-1.736.666-.325.604-3.487 6.479-7.874 9.718-1.379 1.008-2.96 1.643-4.51 1.969a7.006 7.006 0 0 0 1.782-4.697c0-3.921-3.177-7.098-7.083-7.098a7.098 7.098 0 0 0-7.099 7.098c0 2.976 1.86 5.55 4.48 6.588 1.518.713 3.41 1.162 5.44 1.162 2.821 0 5.905-.821 8.602-2.805 1.256-.915 2.434-2.108 3.503-3.348l-11.299 35.34 2.62.853 13.965-43.742c.232-.728-.062-1.41-.79-1.704" style="stroke-width:.992"/>
  <path class="Beam" fill-rule="evenodd" d="M187.632 378.71h212.206v12.4H187.632v-12.4m145.024-18.6h67.182v12.4h-67.182v-12.4m703.846 18.6h67.18v12.4h-67.18v-12.4m0-18.6h32.24v12.4h-32.24v-12.4M217.136 93.243l212.207 18.843v12.448l-212.207-18.842V93.243m0 18.6 212.207 18.843v12.448l-212.207-18.842v-12.449m64.455 24.324 43.012 3.819v12.448l-43.012-3.819v-12.448M491.07 118.31h211.052v12.4H491.07v-12.4m88.625 18.6h122.427v12.4H579.695v-12.4m64.455 18.6h57.972v12.4H644.15v-12.4m164.032-19.238 131.64 25.324v12.628l-131.64-25.325v-12.627m0 18.6 131.64 25.324v12.628l-131.64-25.325v-12.627m193.37-17.962h196.09v12.4h-196.09v-12.4m128.91 18.6h67.18v12.4h-67.18v-12.4m206.62 248h134.13v12.4h-134.13v-12.4m0-18.6h134.13v12.4h-134.13v-12.4m226.45-266.6h233.48v12.4h-233.48v-12.4m0 18.6h57.97v12.4h-57.97v-12.4m233.48 0h-32.24v12.4h32.24v-12.4m-233.48 18.6h57.97v12.4h-57.97v-12.4m-29.51 235.531 167.95-25.21v12.539l-167.95 25.21v-12.539m325.8-254.131h250.35v12.4h-250.35v-12.4m0 18.6h250.35v12.4h-250.35v-12.4m323.33-18.6h189.18v12.4h-189.18v-12.4m0 18.6h189.18v12.4h-189.18v-12.4m-39.67 223.2h199.34v12.4h-199.34v-12.4m0-18.6h32.24v12.4h-32.24v-12.4m199.34 0h-32.24v12.4h32.24v-12.4"/>
  <path class="Hook" d="M1435.604 146.582c-.093-.294-.992-3.767-.992-3.968-.093-.403-.698-.698-1.194-.698-.697 0-1.286.605-1.286 1.287v22.428c0 .496.403.884.79 1.086 4.17 1.286 12.804 6.758 19.252 17.762 1.782 3.07 4.665 7.239 4.665 15.578 0 7.146-1.1 14.678-2.883 21.622-.294 1.101-.589 2.093.496 2.48 1.085.404 1.488-.387 1.891-1.379 3.565-8.742 4.464-17.871 4.464-24.01v-1.89c-.496-12.803-7.843-22.227-7.843-22.227.295 0-9.13-12.199-11.811-16.368-3.658-5.658-5.456-11.3-5.549-11.703m567.948 244.931c0-.202.899-3.58.992-3.875.093-.403 1.891-6.045 5.549-11.703 2.681-4.169 12.105-16.368 11.811-16.368 0 0 7.347-9.424 7.843-22.226v-2.279c0-6.06-.79-14.585-4.278-23.22-.388-.991-.79-1.983-1.876-1.58-1.1.387-.79 1.581-.496 2.666 1.783 6.96 2.775 14.09 2.775 21.235 0 8.339-2.976 12.508-4.759 15.578-6.556 11.004-15.081 16.368-19.25 17.762-.497.202-.791.59-.791 1.086v22.428c0 .682.589 1.287 1.286 1.287.496 0 1.101-.403 1.194-.791" style="stroke-width:.992"/>
  <path class="Tempo" d="M120.675 16h-3.297v44.968c-1.141-.671-2.516-1.093-4.094-1.265a12.672 12.672 0 0 0-1.344-.063c-2.719 0-5.656.782-8.39 2.266-3.188 1.719-5.75 4.187-7.172 6.922-1.453 2.765-1.594 5.469-.422 7.64 1.375 2.579 4.39 3.907 7.937 3.907 2.641 0 5.594-.735 8.407-2.25 5.14-2.782 8.359-7.375 8.375-11.375V16m22.281 52.328h30.234v-6.906h-30.234v6.906m0-12.36h30.234v-6.906h-30.234v6.906m72.781-24.609h-2.109c-3.782 2.828-8.032 4.031-15.172 4.141v3.359h2.515c5.344 0 5.407.125 5.344 5.047v21.297c0 3.719 0 3.906-.422 4.5-.547.656-1.75.906-4.984.906h-1.922v3.234h23.938v-3.234h-1.922c-3.172 0-4.313-.25-4.86-.906-.406-.594-.406-.844-.406-4.5V31.359m29.391 0c-9 0-15.594 9.188-15.594 21.672 0 12.469 6.594 21.656 15.594 21.656 8.812 0 15.547-9.187 15.547-21.359 0-7.078-1.625-12.297-5.172-16.75-2.813-3.406-6.36-5.219-10.375-5.219m-.063 3.125c1.797 0 3.25 1.078 3.906 3 .782 1.984 1.25 8.281 1.25 15.719 0 6.187-.468 12.656-1.015 14.703-.656 2.391-2.094 3.656-4.141 3.656-1.859 0-3.234-1.015-3.953-3-.781-1.984-1.266-8.344-1.266-15.531 0-6.313.485-12.844 1.016-14.891.672-2.39 2.109-3.656 4.203-3.656m41.453 14.703c1.75-.656 2.594-1.078 3.422-1.687 2.344-1.61 3.672-4.078 3.672-6.891 0-5.531-5.234-9.25-13.031-9.25-9.297 0-15.297 4.984-15.297 12.781 0 4.75 2.219 8.219 6.969 10.75-1.86.594-2.641.828-3.672 1.375-3 1.563-4.61 4.313-4.61 7.797 0 6.485 5.813 10.625 14.938 10.625 9.656 0 16.203-5.531 16.203-13.75 0-5.64-2.766-9.359-8.594-11.75m-3.359-1.265c-2.516-.594-4.375-1.141-5.516-1.563-2.75-1.016-4.562-3.469-4.562-6.109 0-3.313 2.765-5.766 6.484-5.766 4.016 0 6.547 2.641 6.547 6.844 0 2.703-1.031 4.984-2.953 6.594m-7.672 8.578c2.453.672 5.453 1.562 6.953 2.047 3.781 1.312 5.219 2.937 5.219 6 0 4.078-3.359 7.015-8.094 7.015-4.859 0-7.797-2.875-7.797-7.672 0-3.187 1.016-5.218 3.719-7.39"/>
</svg>
