<svg width="2582.932" height="685.445" version="1.2" xmlns="http://www.w3.org/2000/svg">
  <path class="StaffLines" fill="none" stroke="#000" stroke-width="2.73" stroke-linejoin="bevel" d="M300.55 176.443h2266.382m-2266.382 24.8h2266.382m-2266.382 24.8h2266.382m-2266.382 24.8h2266.382m-2266.382 24.8h2266.382M300.55 528.329h2266.382M300.55 553.125h2266.382m-2266.382 24.8h2266.382m-2266.382 24.8h2266.382m-2266.382 24.8h2266.382"/>
  <path class="InstrumentName" d="M45.704 559.475h-1.907l-2 2.95c-3.64-2.65-5.5-3.36-8.953-3.36-4.75 0-8.797 2-12.14 6-3.204 3.82-4.704 8.02-4.704 13.16 0 10.8 7.047 18.45 16.907 18.45 8 0 13.093-4.7 14.25-13.09l-2.36-.41c-1.343 7.46-5.14 11.16-11.297 11.16-7.406 0-10.906-5.11-10.906-15.91 0-5.7.75-9.45 2.453-12.45 1.547-2.8 4.61-4.55 7.86-4.55 3.5 0 6.593 1.85 8.5 5.05.953 1.66 1.64 3.5 2.843 7.45h2.204l-.75-14.45m16.531 12.41c-6.141 0-10.891 5.45-10.891 12.45 0 6.84 4.797 12.34 10.797 12.34 6 0 10.797-5.5 10.797-12.4 0-6.85-4.797-12.39-10.703-12.39m0 2.14c3.5 0 5.453 3.65 5.453 10.25 0 6.65-1.953 10.25-5.547 10.25-3.594 0-5.547-3.6-5.547-10.19 0-6.81 1.891-10.31 5.641-10.31m22.39-1.39-8.656.54v2.16h1.813c1.89.05 2.14.34 2.14 2.5v14.3c-.047.75-.093 1.04-.297 1.29-.343.46-1.296.66-3.453.71h-.203v1.79h12.656v-1.79h-.203c-3.343-.11-3.797-.36-3.797-2.16v-7.39c0-2.45.344-4.7.907-5.86 1.047-2.25 3.297-3.8 5.437-3.8 1.313 0 2.813.71 3.563 1.75.75 1.1 1.093 2.6 1.093 5v10.46c-.046.75-.093 1.04-.296 1.29-.36.46-1.36.66-3.5.71h-.204v1.79h12.657v-1.79h-.203c-3.297-.11-3.75-.36-3.75-2.16v-10.05c0-3.59-.157-4.5-1.047-6.2-1.25-2.39-3.75-3.84-6.75-3.84-3.25 0-5.703 1.5-7.907 4.79v-4.04m30.25 0v-9.91h-2.046c-.5 6.5-2.704 9.8-6.75 10.11v1.94h4.093v12.75c0 3.5.094 4.75.594 5.9.813 2.1 2.813 3.25 5.703 3.25 4.5 0 7.406-3.4 7.406-8.7 0-.3 0-.64-.046-1.14h-2.11c-.14 4.5-1.453 6.8-3.89 6.8-1.157 0-2.157-.61-2.5-1.46-.313-.7-.454-1.95-.454-3.75v-13.65h7.344v-2.14h-7.344m19.641 0-8.859.54v2.16h2.047c1.906.05 2.156.34 2.156 2.5v14.3c-.047.75-.094 1.04-.297 1.29-.359.46-1.359.66-3.5.71h-.203v1.79h13.344v-1.79h-.891c-3.359-.11-3.797-.36-3.797-2.16v-2.7c.047-8.39 3.047-14.8 6.938-15-.688.81-.891 1.31-.891 2.25 0 1.61 1.141 2.75 2.75 2.75 1.844 0 3.047-1.35 3.047-3.35 0-2.45-1.703-4.04-4.344-4.04-3.156 0-5.859 2.5-7.5 6.95v-6.2m34.469 7.2c0-3.16-.547-4.75-2-5.95-1.641-1.36-4.094-2-7.297-2-5.641 0-9.75 2.64-9.75 6.29 0 1.85 1.156 3.05 2.906 3.05 1.594 0 2.703-1.05 2.703-2.55 0-.65-.25-1.34-.75-2.04-.312-.36-.359-.46-.359-.71 0-1 2-1.9 4.406-1.9 1.594 0 3.344.5 4.141 1.25.953.81 1.312 2 1.312 4.25v1.95c-5.203.91-6.859 1.3-9.312 2.25-4.344 1.61-6.391 3.91-6.391 7.11 0 3.59 2.797 5.84 7.25 5.84 3.453 0 6.547-1.4 8.703-3.95.797 2.55 2.047 3.55 4.391 3.55 2.25 0 4.609-1.44 4.609-2.89 0-.36-.203-.61-.5-.61-.203 0-.406.06-.75.2-.703.3-1 .36-1.406.36-1.406 0-1.906-.91-1.906-3.45v-10.05m-4.688 6.09c0 3-.156 3.71-1 5-1.25 1.85-3.5 3.1-5.703 3.1-2.297 0-3.953-1.64-3.953-3.89 0-2.11 1.047-3.61 3.25-4.66 1.547-.7 3.5-1.2 7.406-1.84v2.29m18.891-26.86-8.594.57v2.14h1.75c1.891.04 2.141.36 2.141 2.5v19.45c0 6.95-.297 10.75-.891 12.91h1.891l2.453-3.91c2.047 2.7 4.406 3.95 7.5 3.95 6.203 0 10.75-5.29 10.75-12.54 0-7.21-4.203-12.25-10.203-12.25-3.047 0-4.891 1.04-6.797 3.89v-16.71m5.906 15.36c3.75 0 5.844 3.66 5.844 10.21 0 6.34-2.047 9.89-5.703 9.89-3.953 0-6.297-3.64-6.297-9.8 0-6.7 2.156-10.3 6.156-10.3m35.485 5.41c0-3.16-.547-4.75-2-5.95-1.641-1.36-4.094-2-7.297-2-5.641 0-9.75 2.64-9.75 6.29 0 1.85 1.156 3.05 2.906 3.05 1.594 0 2.703-1.05 2.703-2.55 0-.65-.25-1.34-.75-2.04-.312-.36-.359-.46-.359-.71 0-1 2-1.9 4.406-1.9 1.594 0 3.344.5 4.141 1.25.953.81 1.312 2 1.312 4.25v1.95c-5.203.91-6.859 1.3-9.312 2.25-4.344 1.61-6.391 3.91-6.391 7.11 0 3.59 2.797 5.84 7.25 5.84 3.453 0 6.547-1.4 8.703-3.95.797 2.55 2.047 3.55 4.391 3.55 2.25 0 4.609-1.44 4.609-2.89 0-.36-.203-.61-.5-.61-.203 0-.406.06-.75.2-.703.3-1 .36-1.406.36-1.406 0-1.906-.91-1.906-3.45v-10.05m-4.688 6.09c0 3-.156 3.71-1 5-1.25 1.85-3.5 3.1-5.703 3.1-2.297 0-3.953-1.64-3.953-3.89 0-2.11 1.047-3.61 3.25-4.66 1.547-.7 3.5-1.2 7.406-1.84v2.29m29.438-13.84h-1.75l-1.454 1.8c-1.796-1.41-3.593-2-6.093-2-4.407 0-7.297 2.84-7.297 7.25 0 1.95.64 3.59 1.75 4.59 1.14 1.05 2.297 1.55 5.297 2.25l2.64.61c3.953.94 5.36 1.94 5.36 3.94 0 2.36-2.047 4-4.953 4-4.25 0-7.25-2.69-8.454-7.69h-2v9.44h1.75l1.75-2.05c2.047 1.66 4.297 2.45 6.86 2.45 4.89 0 8.14-3.04 8.14-7.7 0-2.2-.703-3.89-2.093-5.05-1.203-1.04-2.203-1.45-5.25-2.09l-2.5-.56c-2.75-.6-2.75-.6-3.657-1.1-1.093-.5-1.75-1.54-1.75-2.65 0-2.05 1.907-3.44 4.657-3.44 1.89 0 3.453.64 4.843 2 1.11 1.09 1.657 2.09 2.454 4.39h1.75v-8.39m22.937 0h-1.75l-1.453 1.8c-1.797-1.41-3.594-2-6.094-2-4.406 0-7.297 2.84-7.297 7.25 0 1.95.641 3.59 1.75 4.59 1.141 1.05 2.297 1.55 5.297 2.25l2.641.61c3.953.94 5.359 1.94 5.359 3.94 0 2.36-2.047 4-4.953 4-4.25 0-7.25-2.69-8.453-7.69h-2v9.44h1.75l1.75-2.05c2.047 1.66 4.297 2.45 6.859 2.45 4.891 0 8.141-3.04 8.141-7.7 0-2.2-.703-3.89-2.094-5.05-1.203-1.04-2.203-1.45-5.25-2.09l-2.5-.56c-2.75-.6-2.75-.6-3.656-1.1-1.094-.5-1.75-1.54-1.75-2.65 0-2.05 1.906-3.44 4.656-3.44 1.891 0 3.453.64 4.844 2 1.109 1.09 1.656 2.09 2.453 4.39h1.75v-8.39m-97.859-336.292-9.157-23.203c-.25-.656-.406-1.297-.406-1.547 0-.906.86-1.25 3.11-1.25h2v-2.359h-15.61v2.359h1c2.313.047 3.063.594 3.86 2.797l12.64 31.703h2l11.516-29.609c1.5-3.891 2.547-4.797 5.437-4.891h.5v-2.359H177.75v2.359h.954c2.546 0 4.046 1 4.046 2.594 0 .703-.25 1.797-.593 2.797l-7.75 20.609m26.39-15.546-9.39.546v2.157h2.547c1.89.047 2.14.343 2.14 2.5v14.297c-.047.75-.094 1.046-.297 1.296-.343.454-1.297.657-3.453.704H192v1.796h12.954v-1.796h-.36c-3.344-.11-3.797-.36-3.797-2.157v-19.343m-2.343-12.454a2.898 2.898 0 0 0-2.907 2.891c0 1.609 1.297 2.906 2.86 2.906 1.64 0 2.937-1.297 2.937-2.906a2.894 2.894 0 0 0-2.89-2.891m20.375 11.704c-6.141 0-10.891 5.453-10.891 12.453 0 6.843 4.797 12.343 10.797 12.343 6 0 10.797-5.5 10.797-12.406 0-6.844-4.797-12.39-10.703-12.39m0 2.14c3.5 0 5.453 3.656 5.453 10.25 0 6.656-1.953 10.25-5.547 10.25-3.594 0-5.547-3.594-5.547-10.187 0-6.813 1.891-10.313 5.641-10.313m22.593-14.953-9.25.563v2.14h2.453c1.844.047 2.094.36 2.094 2.5v27.86c-.047.75-.094 1.046-.297 1.296-.359.454-1.297.657-3.453.704h-.344v1.796h12.938v-1.796h-.344c-3.344-.11-3.797-.36-3.797-2.157v-32.906m28.125 20.766c0-3.157-.547-4.75-2-5.953-1.64-1.36-4.093-2-7.297-2-5.64 0-9.75 2.64-9.75 6.296 0 1.844 1.157 3.047 2.907 3.047 1.593 0 2.703-1.047 2.703-2.547 0-.656-.25-1.343-.75-2.046-.313-.36-.36-.454-.36-.704 0-1 2-1.906 4.407-1.906 1.593 0 3.343.5 4.14 1.25.953.813 1.313 2 1.313 4.25v1.953c-5.203.907-6.86 1.297-9.313 2.25-4.343 1.61-6.39 3.907-6.39 7.11 0 3.593 2.797 5.843 7.25 5.843 3.453 0 6.547-1.406 8.703-3.953.797 2.547 2.047 3.547 4.39 3.547 2.25 0 4.61-1.437 4.61-2.89 0-.36-.203-.61-.5-.61-.203 0-.406.063-.75.203-.703.297-1 .36-1.406.36-1.407 0-1.907-.907-1.907-3.453V227.45m-4.687 6.093c0 3-.156 3.704-1 5-1.25 1.844-3.5 3.094-5.703 3.094-2.297 0-3.953-1.64-3.953-3.89 0-2.11 1.046-3.61 3.25-4.657 1.546-.703 3.5-1.203 7.406-1.843v2.296"/>
  <path class="TieSegment" stroke="#000" stroke-width="1.74" stroke-linecap="round" stroke-linejoin="round" fill-rule="evenodd" d="M1924.152 633.725c11.5 6.45 46.02 6.45 57.52 0-11.5 13.4-46.02 13.4-57.52 0m418.77 24.8c8.66 6.45 34.64 6.45 43.3 0-8.66 13.4-34.64 13.4-43.3 0m-1019.1-364.282c7.28 6.448 29.1 6.448 36.38 0-7.28 13.392-29.1 13.392-36.38 0m1019.1 0c8.66 6.448 34.64 6.448 43.3 0-8.66 13.392-34.64 13.392-43.3 0"/>
  <path class="BarLine" stroke="#000" stroke-width="4.46" stroke-linejoin="bevel" d="M302.782 526.965v101.93m1237.52-101.93v101.93m1002.45-101.93v101.93"/>
  <path class="BarLine" stroke="#000" stroke-width="13.64" stroke-linejoin="bevel" d="M2560.112 526.965v101.93"/>
  <path class="BarLine" stroke="#000" stroke-width="4.46" stroke-linejoin="bevel" d="M302.782 175.079v353.25m1237.52-353.25v101.928m1002.45-101.928v101.928"/>
  <path class="BarLine" stroke="#000" stroke-width="13.64" stroke-linejoin="bevel" d="M2560.112 175.079v101.928"/>
  <path class="Accidental" d="M2309.122 634.872h5.27c.791 0 1.38-.605 1.38-1.395v-5.859c0-.79-.589-1.38-1.38-1.38h-5.858c-.791 0-1.396.59-1.396 1.38v5.27l-4.851 4.96h-.31l-4.96-4.96v-5.27c0-.79-.496-1.38-1.286-1.38h-5.844c-.806 0-1.395.59-1.395 1.38v5.859c0 .79.589 1.395 1.395 1.395h5.255l4.851 4.851v.295l-4.851 4.96h-5.255c-.806 0-1.395.496-1.395 1.302v5.844c0 .79.589 1.394 1.395 1.394h5.843c.791 0 1.287-.604 1.287-1.394v-5.255l4.96-4.758h.31l4.851 4.758v5.254a1.37 1.37 0 0 0 1.396 1.395h5.858c.791 0 1.38-.604 1.38-1.395v-5.843c0-.806-.589-1.302-1.38-1.302h-5.27l-4.96-4.96v-.186l4.96-4.96M1290.033 270.59h5.269c.791 0 1.38-.605 1.38-1.395v-5.859c0-.79-.589-1.38-1.38-1.38h-5.858c-.791 0-1.395.59-1.395 1.38v5.27l-4.852 4.96h-.31l-4.96-4.96v-5.27c0-.79-.496-1.38-1.286-1.38h-5.844c-.806 0-1.395.59-1.395 1.38v5.859c0 .79.589 1.395 1.395 1.395h5.255l4.851 4.851v.295l-4.851 4.96h-5.255c-.806 0-1.395.496-1.395 1.302v5.844c0 .79.589 1.394 1.395 1.394h5.844c.79 0 1.286-.604 1.286-1.394v-5.255l4.96-4.758h.31l4.852 4.758v5.254a1.37 1.37 0 0 0 1.395 1.395h5.859c.79 0 1.379-.604 1.379-1.395v-5.843c0-.806-.589-1.302-1.38-1.302h-5.27l-4.96-4.96v-.186l4.96-4.96m1019.09 0h5.27c.791 0 1.38-.605 1.38-1.395v-5.859c0-.79-.589-1.38-1.38-1.38h-5.858c-.791 0-1.396.59-1.396 1.38v5.27l-4.851 4.96h-.31l-4.96-4.96v-5.27c0-.79-.496-1.38-1.286-1.38h-5.844c-.806 0-1.395.59-1.395 1.38v5.859c0 .79.589 1.395 1.395 1.395h5.255l4.851 4.851v.295l-4.851 4.96h-5.255c-.806 0-1.395.496-1.395 1.302v5.844c0 .79.589 1.394 1.395 1.394h5.843c.791 0 1.287-.604 1.287-1.394v-5.255l4.96-4.758h.31l4.851 4.758v5.254a1.37 1.37 0 0 0 1.396 1.395h5.858c.791 0 1.38-.604 1.38-1.395v-5.843c0-.806-.589-1.302-1.38-1.302h-5.27l-4.96-4.96v-.186l4.96-4.96" style="stroke-width:.992"/>
  <path class="Stem" stroke="#000" stroke-width="2.73" stroke-linejoin="bevel" d="M1605.642 574.755v-71.226m52.97 120.826v-96.026m137.73 96.026v-83.626m137.72 71.226v-83.626m67.2 83.626v-83.626m52.97 96.026v-89.826m137.73 89.826v-89.826m84.75 77.426v-77.426m76.12 102.226V534.529m52.98 102.226v-83.63M686.671 235.269v-77.426m46.044 102.226V157.843m73.667 77.426v-77.426m46.05 102.226V133.043m73.67 77.426v-77.426m46.04 114.626V133.043m46.05 102.226v-77.426m46.04 102.226V157.843m73.67 77.426v-77.426m46.05 102.226V133.043m73.67 77.426v-77.426m76.12 139.426V133.043m46.05 139.426v-83.626m225.85 46.426v-77.426m52.97 102.226V157.843m84.75 77.426v-77.426m52.98 102.226V133.043m84.75 77.426v-77.426m52.97 114.626V133.043m67.2 102.226v-77.426m52.97 102.226V157.843m84.76 77.426v-77.426m52.97 102.226V133.043m84.75 77.426v-77.426m76.12 139.426V133.043m52.98 139.426v-83.626m-952.35 410.712v-89.826m46.04 77.426v-83.626"/>
  <path class="Note" d="M1606.02 569.896c-1.782-3.286-5.549-5.068-10.121-5.068-3.364 0-7.037.992-10.618 2.882-6.541 3.472-10.509 9.316-10.509 14.384 0 1.38.294 2.775.992 4.061 1.782 3.271 5.549 4.96 10.121 4.96 3.364 0 7.037-.883 10.618-2.774 6.541-3.472 10.509-9.331 10.509-14.384 0-1.395-.294-2.775-.992-4.061m52.97 49.6c-1.782-3.286-5.549-5.068-10.121-5.068-3.364 0-7.037.992-10.618 2.882-6.541 3.473-10.509 9.316-10.509 14.385 0 1.379.294 2.774.992 4.06 1.782 3.271 5.549 4.96 10.121 4.96 3.364 0 7.037-.883 10.618-2.774 6.541-3.472 10.509-9.331 10.509-14.384 0-1.395-.294-2.775-.992-4.061m137.73 0c-1.782-3.286-5.549-5.068-10.121-5.068-3.364 0-7.037.992-10.618 2.882-6.541 3.473-10.509 9.316-10.509 14.385 0 1.379.294 2.774.992 4.06 1.782 3.271 5.549 4.96 10.121 4.96 3.364 0 7.037-.883 10.618-2.774 6.541-3.472 10.509-9.331 10.509-14.384 0-1.395-.294-2.775-.992-4.061m137.72-12.4c-1.782-3.286-5.549-5.068-10.121-5.068-3.364 0-7.037.992-10.618 2.882-6.541 3.473-10.509 9.316-10.509 14.385 0 1.379.294 2.774.992 4.06 1.782 3.271 5.549 4.96 10.121 4.96 3.364 0 7.037-.883 10.618-2.774 6.541-3.472 10.509-9.331 10.509-14.384 0-1.395-.294-2.775-.992-4.061m67.2 0c-1.782-3.286-5.549-5.068-10.121-5.068-3.364 0-7.037.992-10.618 2.882-6.541 3.473-10.509 9.316-10.509 14.385 0 1.379.294 2.774.992 4.06 1.782 3.271 5.549 4.96 10.121 4.96 3.364 0 7.037-.883 10.618-2.774 6.541-3.472 10.509-9.331 10.509-14.384 0-1.395-.294-2.775-.992-4.061m52.97 12.4c-1.782-3.286-5.549-5.068-10.121-5.068-3.364 0-7.037.992-10.618 2.882-6.541 3.473-10.509 9.316-10.509 14.385 0 1.379.294 2.774.992 4.06 1.782 3.271 5.549 4.96 10.121 4.96 3.364 0 7.038-.883 10.618-2.774 6.541-3.472 10.509-9.331 10.509-14.384 0-1.395-.294-2.775-.992-4.061m137.73 0c-1.782-3.286-5.549-5.068-10.121-5.068-3.364 0-7.038.992-10.618 2.882-6.541 3.473-10.509 9.316-10.509 14.385 0 1.379.294 2.774.992 4.06 1.783 3.271 5.549 4.96 10.122 4.96 3.363 0 7.037-.883 10.617-2.774 6.541-3.472 10.509-9.331 10.509-14.384 0-1.395-.294-2.775-.992-4.061m84.76-12.4c-1.782-3.286-5.549-5.068-10.121-5.068-3.364 0-7.038.992-10.618 2.882-6.541 3.473-10.509 9.316-10.509 14.385 0 1.379.294 2.774.992 4.06 1.782 3.271 5.549 4.96 10.121 4.96 3.364 0 7.038-.883 10.618-2.774 6.541-3.472 10.509-9.331 10.509-14.384 0-1.395-.294-2.775-.992-4.061m76.12 24.8c-1.782-3.286-5.549-5.068-10.121-5.068-3.364 0-7.038.992-10.618 2.882-6.541 3.472-10.509 9.316-10.509 14.384 0 1.38.294 2.775.992 4.061 1.782 3.271 5.549 4.96 10.121 4.96 3.364 0 7.038-.883 10.618-2.774 6.541-3.472 10.509-9.331 10.509-14.384 0-1.395-.294-2.775-.992-4.061m52.97 0c-1.782-3.286-5.549-5.068-10.121-5.068-3.364 0-7.038.992-10.618 2.882-6.541 3.472-10.509 9.316-10.509 14.384 0 1.38.294 2.775.992 4.061 1.782 3.271 5.549 4.96 10.121 4.96 3.364 0 7.038-.883 10.618-2.774 6.541-3.472 10.509-9.331 10.509-14.384 0-1.395-.294-2.775-.992-4.061M687.051 230.414c-1.783-3.286-5.549-5.068-10.121-5.068-3.364 0-7.038.992-10.618 2.882-6.541 3.472-10.509 9.316-10.509 14.384 0 1.38.294 2.775.992 4.061 1.782 3.271 5.549 4.96 10.121 4.96 3.364 0 7.038-.883 10.618-2.774 6.541-3.472 10.509-9.331 10.509-14.384 0-1.395-.295-2.775-.992-4.061m46.044 24.8c-1.783-3.286-5.549-5.068-10.121-5.068-3.364 0-7.038.992-10.618 2.882-6.541 3.473-10.509 9.316-10.509 14.385 0 1.379.294 2.774.992 4.06 1.782 3.271 5.549 4.96 10.121 4.96 3.364 0 7.038-.883 10.618-2.774 6.541-3.472 10.509-9.331 10.509-14.384 0-1.395-.295-2.775-.992-4.061m73.671-24.8c-1.783-3.286-5.549-5.068-10.121-5.068-3.364 0-7.038.992-10.618 2.882-6.541 3.472-10.509 9.316-10.509 14.384 0 1.38.294 2.775.992 4.061 1.782 3.271 5.549 4.96 10.121 4.96 3.364 0 7.038-.883 10.618-2.774 6.541-3.472 10.509-9.331 10.509-14.384 0-1.395-.295-2.775-.992-4.061m46.044 24.8c-1.783-3.286-5.549-5.068-10.121-5.068-3.364 0-7.038.992-10.618 2.882-6.541 3.472-10.509 9.316-10.509 14.385 0 1.379.294 2.774.992 4.06 1.782 3.271 5.549 4.96 10.121 4.96 3.364 0 7.038-.883 10.618-2.774 6.541-3.472 10.509-9.331 10.509-14.384 0-1.395-.295-2.775-.992-4.061m73.67-49.6c-1.783-3.286-5.549-5.068-10.121-5.068-3.364 0-7.038.992-10.618 2.882-6.541 3.472-10.509 9.316-10.509 14.385 0 1.379.294 2.774.992 4.06 1.782 3.271 5.549 4.96 10.121 4.96 3.364 0 7.038-.883 10.618-2.774 6.541-3.472 10.509-9.331 10.509-14.384 0-1.395-.295-2.775-.992-4.061m46.05 37.2c-1.783-3.286-5.549-5.068-10.121-5.068-3.364 0-7.038.992-10.618 2.882-6.541 3.473-10.509 9.316-10.509 14.385 0 1.379.294 2.774.992 4.06 1.782 3.271 5.549 4.96 10.121 4.96 3.364 0 7.038-.883 10.618-2.774 6.541-3.472 10.509-9.331 10.509-14.384 0-1.395-.295-2.775-.992-4.061m46.04-12.4c-1.782-3.286-5.549-5.068-10.121-5.068-3.364 0-7.037.992-10.618 2.882-6.541 3.472-10.509 9.316-10.509 14.385 0 1.379.294 2.774.992 4.06 1.782 3.271 5.549 4.96 10.121 4.96 3.364 0 7.038-.883 10.618-2.774 6.541-3.472 10.509-9.331 10.509-14.384 0-1.395-.294-2.774-.992-4.061m46.05 24.8c-1.782-3.286-5.549-5.068-10.121-5.068-3.364 0-7.038.992-10.618 2.882-6.541 3.473-10.509 9.316-10.509 14.385 0 1.379.294 2.774.992 4.06 1.782 3.271 5.549 4.96 10.121 4.96 3.364 0 7.037-.883 10.618-2.774 6.541-3.472 10.509-9.331 10.509-14.384 0-1.395-.295-2.775-.992-4.061m73.67-24.8c-1.782-3.286-5.549-5.068-10.121-5.068-3.364 0-7.038.992-10.618 2.882-6.541 3.472-10.509 9.316-10.509 14.384 0 1.38.294 2.775.992 4.061 1.782 3.271 5.549 4.96 10.121 4.96 3.364 0 7.037-.883 10.618-2.774 6.541-3.472 10.509-9.331 10.509-14.384 0-1.395-.294-2.775-.992-4.061m46.04 24.8c-1.782-3.286-5.549-5.068-10.121-5.068-3.364 0-7.038.992-10.618 2.882-6.541 3.473-10.509 9.316-10.509 14.385 0 1.379.294 2.774.992 4.06 1.782 3.271 5.549 4.96 10.121 4.96 3.364 0 7.037-.883 10.618-2.774 6.541-3.472 10.509-9.331 10.509-14.384 0-1.395-.294-2.775-.992-4.061m73.67-49.6c-1.782-3.286-5.549-5.068-10.121-5.068-3.364 0-7.037.992-10.618 2.882-6.541 3.473-10.509 9.316-10.509 14.385 0 1.379.294 2.774.992 4.06 1.782 3.271 5.549 4.96 10.121 4.96 3.364 0 7.037-.883 10.618-2.774 6.541-3.472 10.509-9.331 10.509-14.384 0-1.395-.294-2.775-.992-4.061m76.12 62c-1.782-3.286-5.549-5.068-10.121-5.068-3.364 0-7.038.992-10.618 2.882-6.541 3.472-10.509 9.316-10.509 14.384 0 1.38.294 2.775.992 4.061 1.782 3.271 5.549 4.96 10.121 4.96 3.364 0 7.037-.883 10.618-2.774 6.541-3.472 10.509-9.331 10.509-14.384 0-1.395-.295-2.775-.992-4.061m46.05 0c-1.782-3.286-5.549-5.068-10.121-5.068-3.364 0-7.037.992-10.618 2.882-6.541 3.472-10.509 9.316-10.509 14.384 0 1.38.294 2.775.992 4.061 1.782 3.271 5.549 4.96 10.121 4.96 3.364 0 7.037-.883 10.618-2.774 6.541-3.472 10.509-9.331 10.509-14.384 0-1.395-.294-2.775-.992-4.061m225.85-37.2c-1.782-3.286-5.549-5.068-10.121-5.068-3.364 0-7.037.992-10.618 2.882-6.541 3.472-10.509 9.316-10.509 14.384 0 1.38.294 2.775.992 4.061 1.782 3.271 5.549 4.96 10.121 4.96 3.364 0 7.037-.883 10.618-2.774 6.541-3.472 10.509-9.331 10.509-14.384 0-1.395-.294-2.775-.992-4.061m52.97 24.8c-1.782-3.286-5.549-5.068-10.121-5.068-3.364 0-7.037.992-10.618 2.882-6.541 3.473-10.509 9.316-10.509 14.385 0 1.379.294 2.774.992 4.06 1.782 3.271 5.549 4.96 10.121 4.96 3.364 0 7.037-.883 10.618-2.774 6.541-3.472 10.509-9.331 10.509-14.384 0-1.395-.294-2.775-.992-4.061m84.76-24.8c-1.782-3.286-5.549-5.068-10.121-5.068-3.364 0-7.037.992-10.618 2.882-6.541 3.472-10.509 9.316-10.509 14.384 0 1.38.294 2.775.992 4.061 1.782 3.271 5.549 4.96 10.121 4.96 3.364 0 7.037-.883 10.618-2.774 6.541-3.472 10.509-9.331 10.509-14.384 0-1.395-.294-2.775-.992-4.061m52.97 24.8c-1.782-3.286-5.549-5.068-10.121-5.068-3.364 0-7.037.992-10.618 2.882-6.541 3.473-10.509 9.316-10.509 14.385 0 1.379.294 2.774.992 4.06 1.782 3.271 5.549 4.96 10.121 4.96 3.364 0 7.037-.883 10.618-2.774 6.541-3.472 10.509-9.331 10.509-14.384 0-1.395-.294-2.775-.992-4.061m84.75-49.6c-1.782-3.286-5.549-5.068-10.121-5.068-3.364 0-7.037.992-10.618 2.882-6.541 3.473-10.509 9.316-10.509 14.385 0 1.379.294 2.774.992 4.06 1.782 3.271 5.549 4.96 10.121 4.96 3.364 0 7.037-.883 10.618-2.774 6.541-3.472 10.509-9.331 10.509-14.384 0-1.395-.294-2.775-.992-4.061m52.97 37.2c-1.782-3.286-5.549-5.068-10.121-5.068-3.364 0-7.037.992-10.618 2.882-6.541 3.473-10.509 9.316-10.509 14.385 0 1.379.294 2.774.992 4.06 1.782 3.271 5.549 4.96 10.121 4.96 3.364 0 7.037-.883 10.618-2.774 6.541-3.472 10.509-9.331 10.509-14.384 0-1.395-.294-2.775-.992-4.061m67.2-12.4c-1.782-3.286-5.549-5.068-10.121-5.068-3.364 0-7.037.992-10.618 2.882-6.541 3.472-10.509 9.316-10.509 14.384 0 1.38.294 2.775.992 4.061 1.782 3.271 5.549 4.96 10.121 4.96 3.364 0 7.037-.883 10.618-2.774 6.541-3.472 10.509-9.331 10.509-14.384 0-1.395-.294-2.775-.992-4.061m52.97 24.8c-1.782-3.286-5.549-5.068-10.121-5.068-3.364 0-7.037.992-10.618 2.882-6.541 3.473-10.509 9.316-10.509 14.385 0 1.379.294 2.774.992 4.06 1.782 3.271 5.549 4.96 10.121 4.96 3.364 0 7.038-.883 10.618-2.774 6.541-3.472 10.509-9.331 10.509-14.384 0-1.395-.294-2.775-.992-4.061m84.76-24.8c-1.782-3.286-5.549-5.068-10.121-5.068-3.364 0-7.038.992-10.618 2.882-6.541 3.472-10.509 9.316-10.509 14.384 0 1.38.294 2.775.992 4.061 1.782 3.271 5.549 4.96 10.121 4.96 3.364 0 7.038-.883 10.618-2.774 6.541-3.472 10.509-9.331 10.509-14.384 0-1.395-.294-2.775-.992-4.061m52.97 24.8c-1.782-3.286-5.549-5.068-10.121-5.068-3.364 0-7.038.992-10.618 2.882-6.541 3.473-10.509 9.316-10.509 14.385 0 1.379.294 2.774.992 4.06 1.783 3.271 5.549 4.96 10.122 4.96 3.363 0 7.037-.883 10.617-2.774 6.541-3.472 10.509-9.331 10.509-14.384 0-1.395-.294-2.775-.992-4.061m84.76-49.6c-1.782-3.286-5.549-5.068-10.121-5.068-3.364 0-7.038.992-10.618 2.882-6.541 3.473-10.509 9.316-10.509 14.385 0 1.379.294 2.774.992 4.06 1.782 3.271 5.549 4.96 10.121 4.96 3.364 0 7.038-.883 10.618-2.774 6.541-3.472 10.509-9.331 10.509-14.384 0-1.395-.294-2.775-.992-4.061m76.12 62c-1.782-3.286-5.549-5.068-10.121-5.068-3.364 0-7.038.992-10.618 2.882-6.541 3.472-10.509 9.316-10.509 14.384 0 1.38.294 2.775.992 4.061 1.782 3.271 5.549 4.96 10.121 4.96 3.364 0 7.038-.883 10.618-2.774 6.541-3.472 10.509-9.331 10.509-14.384 0-1.395-.294-2.775-.992-4.061m52.97 0c-1.782-3.286-5.549-5.068-10.121-5.068-3.364 0-7.038.992-10.618 2.882-6.541 3.472-10.509 9.316-10.509 14.384 0 1.38.294 2.775.992 4.061 1.782 3.271 5.549 4.96 10.121 4.96 3.364 0 7.038-.883 10.618-2.774 6.541-3.472 10.509-9.331 10.509-14.384 0-1.395-.294-2.775-.992-4.061m-952.35 327.082c-1.782-3.286-5.549-5.068-10.121-5.068-3.364 0-7.038.992-10.618 2.882-6.541 3.473-10.509 9.316-10.509 14.385 0 1.379.294 2.774.992 4.06 1.782 3.271 5.549 4.96 10.121 4.96 3.364 0 7.037-.883 10.618-2.774 6.541-3.472 10.509-9.331 10.509-14.384 0-1.395-.295-2.775-.992-4.061m46.04-12.4c-1.782-3.286-5.549-5.068-10.121-5.068-3.364 0-7.037.992-10.618 2.882-6.541 3.473-10.509 9.316-10.509 14.385 0 1.379.294 2.774.992 4.06 1.782 3.271 5.549 4.96 10.121 4.96 3.364 0 7.038-.883 10.618-2.774 6.541-3.472 10.509-9.331 10.509-14.384 0-1.395-.294-2.775-.992-4.061" style="stroke-width:.992"/>
  <path class="Clef" d="M350.057 528.232c-7.548 0-13.594 4.356-13.702 4.356-5.75 4.262-8.029 9.33-8.928 12.803-.496 1.782-.682 3.565-.682 5.254 0 2.387.388 4.557 1.286 6.448 1.194 2.682 3.472 4.557 6.448 5.549 1.194.403 2.48.604 3.767.604 2.185 0 4.464-.604 6.355-1.689 3.069-1.69 4.96-5.255 4.96-9.13 0-3.472-1.798-6.649-4.774-8.525-2.077-1.394-4.061-1.782-5.75-1.782-1.194 0-2.279.186-3.178.496-.992.388-2.666 1.38-3.472 2.077.31-1.891 1.488-4.759 2.588-6.355 1.086-1.581 3.271-3.565 4.96-4.464 2.48-1.38 5.658-1.984 9.13-1.984 10.122 0 15.082 8.138 15.082 24.8 0 9.238-3.472 18.058-6.448 23.916-3.286 6.542-7.642 12.804-11.517 16.276-10.323 9.424-20.042 13.888-20.135 13.888 0 0-1.488.883-1.1 2.371.31.992 1.193 1.193 1.798 1.193.093 0 .387-.093.496-.093.093 0 11.408-4.665 20.429-11.718 5.069-3.658 9.625-7.626 13.593-11.904a73.558 73.558 0 0 0 9.13-12.198c4.356-7.44 6.836-15.175 6.836-21.824 0-8.23-2.17-15.082-6.247-19.933-4.665-5.565-11.703-8.432-20.925-8.432m31.14 12.586c0 2.79 2.185 4.96 4.774 4.96 2.572 0 4.758-2.17 4.758-4.96 0-2.775-2.186-5.053-4.758-5.053-2.589 0-4.774 2.278-4.774 5.053m0 24.505c0 2.775 2.185 5.069 4.774 5.069 2.572 0 4.758-2.294 4.758-5.069 0-2.774-2.186-5.053-4.758-5.053-2.589 0-4.774 2.279-4.774 5.053m-47.911-385.811h-7.146c-.697 0-1.286.604-1.286 1.286v90.288c0 .698.589 1.286 1.286 1.286h7.146c.698 0 1.286-.588 1.286-1.286v-90.288c0-.682-.589-1.286-1.286-1.286m35.712 50.499h-1.488c-2.279 0-3.968.201-7.827 2.573 0 0-2.186-4.356-5.456-6.634 3.27-2.294 5.456-6.65 5.456-6.65 3.859 2.372 5.548 2.573 7.827 2.573h1.488c12.105 0 18.057-11.206 18.057-21.917 0-13.888-10.214-21.73-22.226-21.73-10.912 0-15.47 5.456-15.47 5.456-1.782 2.185-2.588 4.556-2.588 6.742 0 1.782.496 3.472 1.488 4.96 1.395 1.984 4.17 3.084 6.758 3.084 1.782 0 3.472-.496 4.666-1.488 1.674-1.488 2.774-3.673 2.774-6.06 0-1.38-.403-2.774-1.1-4.061-1.582-2.883-4.558-3.27-6.138-3.27-.605 0-1.101.092-1.101.092 2.279-1.58 5.363-2.48 8.432-2.48 2.775 0 5.456.698 7.347 2.077 3.472 2.589 4.758 8.045 4.758 15.19 0 7.642-.201 18.74-8.928 18.74-8.726 0-10.71-10.416-10.71-10.416s0-1.38-1.395-1.38c-1.38 0-1.488 1.38-1.488 1.38s-.79 5.068-3.472 11.222c-1.58 3.658-3.968 5.347-5.657 6.045v-43.26c0-.683-.496-1.287-1.194-1.287-.682 0-1.286.604-1.286 1.286v90.288c0 .697.604 1.286 1.286 1.286.698 0 1.194-.589 1.194-1.286v-43.26c1.689.697 4.076 2.387 5.657 6.06 2.681 6.138 3.472 11.3 3.472 11.3s.109 1.286 1.488 1.286c1.395 0 1.395-1.286 1.395-1.286s1.984-10.51 10.71-10.51c8.727 0 8.928 11.114 8.928 18.756 0 7.13-1.286 12.586-4.758 15.174-1.891 1.38-4.572 2.077-7.347 2.077-3.069 0-6.153-.883-8.432-2.48 0 0 .496.109 1.1.109 1.581 0 4.557-.404 6.139-3.286.697-1.287 1.1-2.666 1.1-4.062 0-2.386-1.1-4.556-2.774-6.044-1.194-.992-2.884-1.488-4.666-1.488-2.588 0-5.363 1.084-6.758 3.068a8.832 8.832 0 0 0-1.488 4.96c0 2.186.806 4.558 2.588 6.743 0 0 4.558 5.456 15.47 5.456 12.012 0 22.226-7.827 22.226-21.715 0-10.726-5.952-21.933-18.057-21.933" style="stroke-width:.992"/>
  <path class="KeySig" d="M537.833 604.616c.604-.108 1.1-.806 1.1-1.395v-5.859c0-.79-.604-1.38-1.395-1.38h-.201l-3.271.698v-14.787h-2.775v15.376l-8.834 1.783V585.07h-2.775v14.586l-3.875.79c-.589.093-1.085.791-1.085 1.38v5.952-.186c0 .79.589 1.38 1.395 1.38h.295l3.27-.698v16.368l-3.875.806c-.589.093-1.085.79-1.085 1.38v5.75c0 .806.589 1.395 1.395 1.395h.294l3.271-.697v14.786h2.774v-15.376l8.835-1.782v13.981h2.775V630.3l3.767-.698c.604-.093 1.1-.79 1.1-1.38v-5.858c0-.791-.604-1.38-1.395-1.38h-.201l-3.271.682v-16.368l3.767-.682m-15.376 19.53v-16.461l8.834-1.782v16.367l-8.835 1.876m-9.423-56.73c.604-.108 1.1-.806 1.1-1.395v-5.859c0-.79-.604-1.38-1.395-1.38h-.201l-3.271.698v-14.787h-2.775v15.376l-8.834 1.783V547.87h-2.775v14.586l-3.875.79c-.589.093-1.085.791-1.085 1.38v5.952-.186c0 .79.589 1.38 1.395 1.38h.295l3.27-.698v16.368l-3.875.806c-.589.093-1.085.79-1.085 1.38v5.75c0 .806.589 1.395 1.395 1.395h.295l3.27-.697v14.786h2.775v-15.376l8.834-1.782v13.981h2.775V593.1l3.767-.698c.604-.093 1.1-.79 1.1-1.38v-5.858c0-.791-.604-1.38-1.395-1.38h-.201l-3.271.682v-16.368l3.767-.682m-15.377 19.53v-16.461l8.835-1.782v16.368l-8.835 1.875m-9.423-56.726c.604-.108 1.1-.806 1.1-1.395v-5.859c0-.79-.604-1.38-1.395-1.38h-.201l-3.271.698v-14.787h-2.775v15.376l-8.834 1.783v-13.982h-2.775v14.586l-3.875.79c-.589.093-1.085.791-1.085 1.38v5.952-.186c0 .79.589 1.38 1.395 1.38h.295l3.27-.698v16.368l-3.875.806c-.589.093-1.085.79-1.085 1.38v5.75c0 .806.589 1.395 1.395 1.395h.295l3.27-.697v14.786h2.775V558.29l8.834-1.782v13.981h2.775v-14.585l3.767-.698c.604-.093 1.1-.79 1.1-1.38v-5.858c0-.791-.604-1.38-1.395-1.38h-.201l-3.271.682v-16.368l3.767-.682m-15.377 19.53v-16.461l8.835-1.782v16.368l-8.835 1.875m-9.423 30.066c.604-.108 1.1-.806 1.1-1.395v-5.859c0-.79-.604-1.38-1.395-1.38h-.201l-3.271.698v-14.787h-2.775v15.376l-8.835 1.783V560.27h-2.774v14.586l-3.875.79c-.589.093-1.085.791-1.085 1.38v5.952-.186c0 .79.589 1.38 1.395 1.38h.295l3.27-.698v16.368l-3.875.806c-.589.093-1.085.79-1.085 1.38v5.75c0 .806.589 1.395 1.395 1.395h.295l3.27-.697v14.786h2.775v-15.376l8.834-1.782v13.981h2.775V605.5l3.767-.698c.604-.093 1.1-.79 1.1-1.38v-5.858c0-.791-.604-1.38-1.395-1.38h-.201l-3.271.682v-16.368l3.767-.682m-15.376 19.53v-16.461l8.834-1.782v16.368l-8.835 1.875m-9.423-56.73c.604-.108 1.1-.806 1.1-1.395v-5.859c0-.79-.604-1.38-1.395-1.38h-.201l-3.271.698v-14.787h-2.775v15.376l-8.835 1.783V523.07h-2.774v14.586l-3.875.79c-.589.093-1.085.791-1.085 1.38v5.952-.186c0 .79.589 1.38 1.395 1.38h.295l3.27-.698v16.368l-3.875.806c-.589.093-1.085.79-1.085 1.38v5.75c0 .806.589 1.395 1.395 1.395h.295l3.27-.697v14.786h2.775v-15.376l8.834-1.782v13.981h2.775V568.3l3.767-.698c.604-.093 1.1-.79 1.1-1.38v-5.858c0-.791-.604-1.38-1.395-1.38h-.201l-3.271.682v-16.368l3.767-.682m-15.376 19.53v-16.461l8.834-1.782v16.367l-8.835 1.876m114.577-321.812c.604-.108 1.1-.806 1.1-1.395v-5.859c0-.79-.604-1.38-1.395-1.38h-.201l-3.271.698V217.61h-2.775v15.376l-8.834 1.783v-13.982h-2.775v14.586l-3.875.79c-.589.093-1.085.791-1.085 1.38v5.952-.186c0 .79.589 1.38 1.395 1.38h.295l3.27-.698v16.368l-3.875.806c-.589.093-1.085.79-1.085 1.38v5.75c0 .806.589 1.395 1.395 1.395h.294l3.271-.697v14.786h2.774v-15.376l8.835-1.782v13.981h2.775v-14.585l3.767-.698c.604-.093 1.1-.79 1.1-1.38v-5.859c0-.79-.604-1.379-1.395-1.379h-.201l-3.271.682v-16.368l3.767-.682m-15.376 19.53v-16.461l8.834-1.783v16.368l-8.835 1.876m-9.423-56.729c.604-.108 1.1-.806 1.1-1.395v-5.859c0-.79-.604-1.38-1.395-1.38h-.201l-3.271.698v-14.787h-2.775v15.376l-8.834 1.783v-13.982h-2.775v14.586l-3.875.79c-.589.093-1.085.791-1.085 1.38v5.952-.186c0 .79.589 1.38 1.395 1.38h.295l3.27-.698v16.368l-3.875.806c-.589.093-1.085.79-1.085 1.38v5.75c0 .806.589 1.395 1.395 1.395h.295l3.27-.697v14.786h2.775v-15.376l8.834-1.782v13.981h2.775v-14.585l3.767-.698c.604-.093 1.1-.79 1.1-1.38v-5.859c0-.79-.604-1.379-1.395-1.379h-.201l-3.271.682v-16.368l3.767-.682m-15.377 19.53v-16.461l8.835-1.783v16.368l-8.835 1.876m-9.423-56.73c.604-.108 1.1-.806 1.1-1.395v-5.859c0-.79-.604-1.38-1.395-1.38h-.201l-3.271.698v-14.787h-2.775v15.376l-8.834 1.783v-13.982h-2.775v14.586l-3.875.79c-.589.093-1.085.791-1.085 1.38v5.952-.186c0 .79.589 1.38 1.395 1.38h.295l3.27-.698v16.368l-3.875.806c-.589.093-1.085.79-1.085 1.38v5.75c0 .806.589 1.395 1.395 1.395h.295l3.27-.697v14.786h2.775v-15.376l8.834-1.782v13.981h2.775v-14.585l3.767-.698c.604-.093 1.1-.79 1.1-1.38v-5.858c0-.791-.604-1.38-1.395-1.38h-.201l-3.271.682v-16.368l3.767-.682m-15.377 19.53v-16.461l8.835-1.782v16.367l-8.835 1.876m-9.423 30.07c.604-.108 1.1-.806 1.1-1.395v-5.859c0-.79-.604-1.38-1.395-1.38h-.201l-3.271.698v-14.787h-2.775v15.376l-8.835 1.783v-13.982h-2.774v14.586l-3.875.79c-.589.093-1.085.791-1.085 1.38v5.952-.186c0 .79.589 1.38 1.395 1.38h.295l3.27-.698v16.368l-3.875.806c-.589.093-1.085.79-1.085 1.38v5.75c0 .806.589 1.395 1.395 1.395h.295l3.27-.697v14.786h2.775v-15.376l8.834-1.782v13.981h2.775v-14.585l3.767-.698c.604-.093 1.1-.79 1.1-1.38v-5.858c0-.791-.604-1.38-1.395-1.38h-.201l-3.271.682v-16.368l3.767-.682m-15.376 19.53v-16.461l8.834-1.782v16.368l-8.835 1.875m-9.423-56.73c.604-.108 1.1-.806 1.1-1.395v-5.859c0-.79-.604-1.38-1.395-1.38h-.201l-3.271.698V155.61h-2.775v15.376l-8.835 1.783v-13.982h-2.774v14.586l-3.875.79c-.589.093-1.085.791-1.085 1.38v5.952-.186c0 .79.589 1.38 1.395 1.38h.295l3.27-.698v16.368l-3.875.806c-.589.093-1.085.79-1.085 1.38v5.75c0 .806.589 1.395 1.395 1.395h.295l3.27-.697v14.786h2.775v-15.376l8.834-1.782v13.981h2.775v-14.585l3.767-.698c.604-.093 1.1-.79 1.1-1.38v-5.858c0-.791-.604-1.38-1.395-1.38h-.201l-3.271.682v-16.368l3.767-.682m-15.376 19.53v-16.461l8.834-1.782v16.368l-8.835 1.875" style="stroke-width:.992"/>
  <path class="TimeSig" d="M569.057 531.852s.496 4.759.496 9.92v1.287c-.109 5.549-.496 12.105-.496 12.105s-.202 1.38.697 1.581c.883.202 2.976.698 3.472.791.589.108 1.178.108 1.488-.682.496-1.302 1.581-6.448 7.828-6.448 7.052 0 8.338 6.045 8.338 10.803 0 4.96-1.596 12.106-8.137 12.4h-.79c-2.279 0-3.58-.294-4.17-.697-.589-.186-.697-.884-.093-1.286.884-.59 3.968-1.69 3.968-6.542 0-4.866-3.379-6.742-7.254-6.742-3.86 0-6.54 3.565-6.54 6.944 0 3.364.991 7.13 6.153 10.106 2.48 1.395 6.045 2.294 9.718 2.294 5.053 0 10.525-1.596 14.09-5.27 3.177-3.27 4.464-7.44 4.464-11.408 0-5.348-2.387-10.509-6.045-12.989-2.48-1.69-6.758-3.069-11.222-3.069-3.27 0-6.743.79-9.626 2.775-.093.093-.294.093-.387.093a.676.676 0 0 1-.698-.698v-6.246c0-.59.496-1.086 1.085-1.086h.109c1.488.093 4.758.496 8.23.496 2.976 0 6.045-.294 8.23-1.193 4.666-1.891 6.263-5.55 7.053-7.641.093-.295.202-.698.202-.992 0-.791-.496-1.38-1.798-1.38-.388 0-.79.093-1.38.186-4.867 1.194-8.633 1.596-12.307 1.596-3.565 0-7.037-.402-11.315-.992 0 0-.496-.108-1.178-.108-1.1 0-2.387.31-2.185 2.092m-3.131 83.267h17.034v7.393h-8.152c-.776 0-1.411.62-1.411 1.396v1.89c0 .776.635 1.396 1.41 1.396h30.009a1.39 1.39 0 0 0 1.394-1.396v-1.89a1.39 1.39 0 0 0-1.394-1.396h-8.866v-7.393h8.866a1.39 1.39 0 0 0 1.394-1.395v-1.891a1.39 1.39 0 0 0-1.394-1.395h-8.866v-15.841c0-.527-.31-1.008-.776-1.24l-1.208-.605a1.446 1.446 0 0 0-1.582.233l-8.974 8.246c-.279.279-.45.635-.45 1.038v8.169h-11.423s11.036-11.935 22.785-27.574c.852-1.148.356-2.186.17-2.372l-2.154-2.186a1.41 1.41 0 0 0-.992-.418c-.589 0-14.043.03-14.756 0-.713-.016-1.24.604-1.318 1.209 0 0-.526 7.3-3.115 15.376-2.573 8.044-5.487 12.989-8.122 16.585 0 0-.542.976-.186 1.72.341.744.976 1.814.976 1.814s.248.527 1.101.527m3.131-435.149s.496 4.758.496 9.92v1.286c-.109 5.549-.496 12.105-.496 12.105s-.202 1.38.697 1.581c.883.202 2.976.698 3.472.791.589.108 1.178.108 1.488-.682.496-1.302 1.581-6.448 7.828-6.448 7.052 0 8.338 6.045 8.338 10.803 0 4.96-1.596 12.106-8.137 12.4h-.79c-2.279 0-3.58-.294-4.17-.697-.589-.186-.697-.884-.093-1.286.884-.59 3.968-1.69 3.968-6.542 0-4.866-3.379-6.742-7.254-6.742-3.86 0-6.54 3.565-6.54 6.944 0 3.364.991 7.13 6.153 10.106 2.48 1.395 6.045 2.294 9.718 2.294 5.053 0 10.525-1.596 14.09-5.27 3.177-3.27 4.464-7.44 4.464-11.408 0-5.348-2.387-10.509-6.045-12.989-2.48-1.69-6.758-3.069-11.222-3.069-3.27 0-6.743.79-9.626 2.775-.093.092-.294.092-.387.092a.676.676 0 0 1-.698-.697v-6.246c0-.59.496-1.086 1.085-1.086h.109c1.488.093 4.758.496 8.23.496 2.976 0 6.045-.294 8.23-1.193 4.666-1.891 6.263-5.549 7.053-7.641.093-.295.202-.698.202-.992 0-.791-.496-1.38-1.798-1.38-.388 0-.79.093-1.38.186-4.867 1.194-8.633 1.596-12.307 1.596-3.565 0-7.037-.402-11.315-.992 0 0-.496-.108-1.178-.108-1.1 0-2.387.31-2.185 2.092m-3.131 83.267h17.034v7.393h-8.152c-.776 0-1.411.62-1.411 1.396v1.89c0 .776.635 1.396 1.41 1.396h30.009a1.39 1.39 0 0 0 1.394-1.396v-1.89a1.39 1.39 0 0 0-1.394-1.396h-8.866v-7.393h8.866a1.39 1.39 0 0 0 1.394-1.395v-1.891a1.39 1.39 0 0 0-1.394-1.395h-8.866v-15.841c0-.527-.31-1.008-.776-1.24l-1.208-.605a1.446 1.446 0 0 0-1.582.233l-8.974 8.246c-.279.279-.45.635-.45 1.038v8.169h-11.423s11.036-11.935 22.785-27.574c.852-1.148.356-2.186.17-2.372l-2.154-2.186a1.41 1.41 0 0 0-.992-.418c-.589 0-14.043.031-14.756 0-.713-.016-1.24.604-1.318 1.209 0 0-.526 7.3-3.115 15.376-2.573 8.044-5.487 12.989-8.122 16.585 0 0-.542.977-.186 1.72.341.744.976 1.814.976 1.814s.248.527 1.101.527" style="stroke-width:.992"/>
  <path class="Rest" d="M1745.703 557.822c-.744-.264-1.41.093-1.72.712-.295.605-3.1 5.999-7.378 9.378-1.333 1.054-2.883 1.736-4.433 2.123a7.077 7.077 0 0 0 1.627-4.758 7.07 7.07 0 0 0-7.316-6.82c-3.906.14-6.975 3.41-6.835 7.316a7.077 7.077 0 0 0 4.696 6.417c1.55.682 3.441 1.038 5.472.976 2.82-.108 5.874-1.038 8.494-3.1 1.224-.96 2.371-2.185 3.394-3.472v.016l-4.464 15.779s0 .016-.015.016v.015c-.465.946-3.689 7.068-7.672 10.215-1.333 1.07-2.883 1.751-4.433 2.123a7.01 7.01 0 0 0 1.627-4.743c-.14-3.921-3.41-6.975-7.316-6.835-3.906.139-6.975 3.41-6.835 7.331.108 2.976 2.046 5.456 4.696 6.417 1.55.667 3.441 1.039 5.472.961a14.522 14.522 0 0 0 8.494-3.084c1.209-.961 2.356-2.17 3.379-3.472l-10.122 36.177 2.65.744 18.523-65.674.868-3.1c.202-.728-.108-1.41-.852-1.658m137.719 0c-.744-.264-1.41.093-1.72.712-.295.605-3.1 5.999-7.378 9.378-1.333 1.054-2.883 1.736-4.433 2.123a7.077 7.077 0 0 0 1.627-4.758 7.07 7.07 0 0 0-7.316-6.82c-3.906.14-6.975 3.41-6.835 7.316a7.077 7.077 0 0 0 4.696 6.417c1.55.682 3.441 1.038 5.472.976 2.82-.108 5.874-1.038 8.494-3.1 1.224-.96 2.371-2.185 3.394-3.472v.016l-4.464 15.779s0 .016-.015.016v.015c-.465.946-3.689 7.068-7.672 10.215-1.333 1.07-2.883 1.751-4.433 2.123a7.01 7.01 0 0 0 1.627-4.743c-.14-3.921-3.41-6.975-7.316-6.835-3.906.139-6.975 3.41-6.835 7.331.108 2.976 2.046 5.456 4.696 6.417 1.55.667 3.441 1.039 5.472.961a14.522 14.522 0 0 0 8.494-3.084c1.209-.961 2.356-2.17 3.379-3.472l-10.122 36.177 2.65.744 18.523-65.674.868-3.1c.202-.728-.108-1.41-.852-1.658m257.899 0c-.744-.264-1.41.093-1.72.712-.295.605-3.1 5.999-7.379 9.378-1.333 1.054-2.883 1.736-4.433 2.123a7.077 7.077 0 0 0 1.628-4.758 7.07 7.07 0 0 0-7.316-6.82c-3.906.14-6.975 3.41-6.835 7.316a7.077 7.077 0 0 0 4.696 6.417c1.55.682 3.441 1.038 5.471.976 2.822-.108 5.875-1.038 8.495-3.1 1.224-.96 2.371-2.185 3.394-3.472v.016l-4.464 15.779s0 .016-.015.016v.015c-.465.946-3.689 7.068-7.672 10.215-1.333 1.07-2.883 1.751-4.433 2.123a7.01 7.01 0 0 0 1.627-4.743c-.14-3.921-3.41-6.975-7.316-6.835-3.906.139-6.975 3.41-6.835 7.331.108 2.976 2.046 5.456 4.696 6.417 1.55.667 3.441 1.039 5.472.961a14.522 14.522 0 0 0 8.494-3.084c1.209-.961 2.356-2.17 3.379-3.472l-10.122 36.177 2.65.744 18.523-65.674.868-3.1c.202-.728-.108-1.41-.852-1.658m322.369 0c-.745-.28-1.411.062-1.737.666-.325.604-3.487 6.479-7.873 9.718-1.38 1.008-2.961 1.643-4.511 1.969a7.006 7.006 0 0 0 1.783-4.697c0-3.921-3.178-7.098-7.084-7.098a7.098 7.098 0 0 0-7.099 7.098c0 2.977 1.86 5.55 4.48 6.588 1.518.713 3.41 1.163 5.44 1.163 2.821 0 5.905-.822 8.602-2.806 1.256-.914 2.434-2.108 3.504-3.348l-11.3 35.34 2.62.853 13.965-43.742c.232-.728-.062-1.41-.79-1.704m-1777.029-5.193h-29.466c-.806 0-1.395.589-1.395 1.395v10.71c0 .791.589 1.38 1.395 1.38h29.466c.79 0 1.379-.589 1.379-1.38v-10.71c0-.806-.589-1.395-1.38-1.395m688.78 5.193c-.744-.28-1.411.062-1.736.666-.326.604-3.488 6.479-7.875 9.718-1.379 1.008-2.96 1.643-4.51 1.969a7.006 7.006 0 0 0 1.782-4.697c0-3.921-3.177-7.098-7.083-7.098a7.098 7.098 0 0 0-7.099 7.098c0 2.977 1.86 5.55 4.48 6.588 1.518.713 3.41 1.163 5.44 1.163 2.821 0 5.905-.822 8.602-2.806 1.256-.914 2.434-2.108 3.503-3.348l-11.299 35.34 2.62.853 13.965-43.742c.232-.728-.062-1.41-.79-1.704" style="stroke-width:.992"/>
  <path class="Beam" fill-rule="evenodd" d="m1604.272 495.406 55.7 26.077v13.692l-55.7-26.077v-13.692m0 18.6 32.24 15.094v13.695l-32.24-15.097v-13.692m395.63 7.762 55.7 6.519v12.485l-55.7-6.52v-12.484m0 18.6 32.24 3.777v12.48l-32.24-3.77v-12.487m190.7-12.039h163.6v12.4h-163.6v-12.4m84.75 18.596h78.85v12.4h-78.85v-12.4M685.307 151.643h122.445v12.4H685.307v-12.4m0 18.6h32.24v12.4h-32.24v-12.4m122.445 0h-32.241v12.4h32.241v-12.4m43.32-43.4h122.44v12.4h-122.44v-12.4m73.67 18.6h48.77v12.4h-48.77v-12.4m92.09 6.2h122.44v12.4h-122.44v-12.4m0 18.6h32.24v12.4h-32.24v-12.4m122.44 0h-32.24v12.4h32.24v-12.4m43.32-43.4h152.51v12.4h-152.51v-12.4m73.67 18.6h78.84v12.4h-78.84v-12.4m348.01 6.2h140.46v12.4h-140.46v-12.4m0 18.6h32.24v12.4h-32.24v-12.4m140.46 0h-32.24v12.4h32.24v-12.4m50.24-43.4h140.46v12.4h-140.46v-12.4m84.76 18.6h55.7v12.4h-55.7v-12.4m120.17 6.2h140.45v12.4h-140.45v-12.4m0 18.6h32.24v12.4h-32.24v-12.4m140.45 0h-32.24v12.4h32.24v-12.4m50.25-43.4h163.6v12.4h-163.6v-12.4m84.75 18.6h78.85v12.4h-78.85v-12.4m-823.26 358.398 48.78-6.568v12.512l-48.78 6.568v-12.512m0 18.6 48.78-6.568v12.512l-48.78 6.568v-12.512"/>
  <path class="Hook" d="M1798.444 544.201c-.093-.294-.992-3.767-.992-3.968-.093-.403-.698-.697-1.194-.697-.697 0-1.286.604-1.286 1.286v22.428c0 .496.403.884.79 1.086 4.17 1.286 12.804 6.758 19.252 17.762 1.782 3.07 4.665 7.239 4.665 15.578 0 7.146-1.1 14.678-2.883 21.622-.294 1.101-.589 2.093.496 2.48 1.085.404 1.488-.387 1.891-1.379 3.565-8.742 4.464-17.871 4.464-24.01v-1.89c-.496-12.803-7.843-22.227-7.843-22.227.294 0-9.13-12.199-11.811-16.368-3.658-5.658-5.456-11.3-5.549-11.703m162.034 29.264c-.093-5.161-1.286-10.509-4.758-14.973-4.759-6.154-11.021-9.238-14.787-14.694-3.767-5.456-5.348-16.058-5.348-16.058-.108-.697-.31-1.193-1.488-1.193-1.194 0-1.395.496-1.395 1.193v37.99c0 .202.698.791 1.395.992 2.573.992 10.416 5.86 16.368 14.679 3.565 5.456 4.154 9.13 4.154 12.695v1.1c-.093 2.48-.682 7.533-2.17 11.501-.31.9-.806 2.185.186 2.681s1.596-.588 2.092-1.286c1.783-2.883 4.371-8.138 4.371-13.795a52.61 52.61 0 0 0-.496-7.331c.992-3.581 1.876-8.045 1.876-12.71v-.791m-7.037 1.395c-2.682-3.472-5.658-6.65-10.525-11.516-3.859-3.86-5.657-7.239-6.339-9.812-.109-.202-.109-.604-.202-.899l.093.403c4.464.388 10.525 4.852 14.291 9.424 4.464 5.348 5.348 9.517 5.348 13.392 0 .992 0 1.876-.093 2.868-.589-1.086-1.782-2.868-2.573-3.86m478.777 23.401c-.093-5.161-1.286-10.509-4.758-14.973-4.759-6.154-11.021-9.238-14.788-14.694-3.766-5.456-5.347-16.058-5.347-16.058-.108-.697-.31-1.193-1.488-1.193-1.193 0-1.395.496-1.395 1.193v37.99c0 .202.698.791 1.395.992 2.573.992 10.416 5.86 16.368 14.679 3.565 5.456 4.154 9.13 4.154 12.695v1.1c-.093 2.48-.682 7.533-2.17 11.501-.31.899-.806 2.185.186 2.681s1.597-.588 2.093-1.286c1.782-2.883 4.37-8.138 4.37-13.795a52.61 52.61 0 0 0-.495-7.331c.992-3.581 1.875-8.045 1.875-12.71v-.791m-7.037 1.395c-2.681-3.472-5.657-6.65-10.524-11.516-3.86-3.86-5.658-7.239-6.34-9.812-.108-.202-.108-.604-.201-.899l.093.403c4.464.388 10.524 4.852 14.29 9.424 4.465 5.348 5.348 9.517 5.348 13.392 0 .992 0 1.876-.093 2.868-.589-1.086-1.782-2.868-2.573-3.86" style="stroke-width:.992"/>
  <path class="Tempo" d="M588.845 16h-3.297v44.968c-1.14-.671-2.515-1.093-4.093-1.265a12.672 12.672 0 0 0-1.344-.063c-2.719 0-5.656.782-8.391 2.266-3.187 1.719-5.75 4.187-7.172 6.922-1.453 2.765-1.593 5.469-.421 7.64 1.375 2.579 4.39 3.907 7.937 3.907 2.641 0 5.594-.735 8.406-2.25 5.141-2.782 8.36-7.375 8.375-11.375V16m22.297 52.328h30.235v-6.906h-30.235v6.906m0-12.36h30.235v-6.906h-30.235v6.906m72.781-24.609h-2.109c-3.781 2.828-8.031 4.031-15.172 4.141v3.359h2.516c5.344 0 5.406.125 5.344 5.047v21.297c0 3.719 0 3.906-.422 4.5-.547.656-1.75.906-4.985.906h-1.922v3.234h23.938v-3.234h-1.922c-3.172 0-4.312-.25-4.859-.906-.407-.594-.407-.844-.407-4.5V31.359m29.391 0c-9 0-15.594 9.188-15.594 21.672 0 12.469 6.594 21.656 15.594 21.656 8.813 0 15.531-9.187 15.531-21.359 0-7.078-1.609-12.297-5.156-16.75-2.812-3.406-6.359-5.219-10.375-5.219m-.062 3.125c1.796 0 3.234 1.078 3.906 3 .781 1.984 1.25 8.281 1.25 15.719 0 6.187-.469 12.656-1.016 14.703-.656 2.391-2.094 3.656-4.14 3.656-1.86 0-3.235-1.015-3.954-3-.781-1.984-1.265-8.344-1.265-15.531 0-6.313.484-12.844 1.015-14.891.672-2.39 2.11-3.656 4.204-3.656m41.453 14.703c1.75-.656 2.593-1.078 3.422-1.687 2.343-1.61 3.656-4.078 3.656-6.891 0-5.531-5.219-9.25-13.016-9.25-9.297 0-15.297 4.984-15.297 12.781 0 4.75 2.219 8.219 6.969 10.75-1.875.594-2.641.828-3.672 1.375-3 1.563-4.609 4.313-4.609 7.797 0 6.485 5.812 10.625 14.937 10.625 9.657 0 16.188-5.531 16.188-13.75 0-5.64-2.75-9.359-8.578-11.75m-3.36-1.265c-2.515-.594-4.375-1.141-5.515-1.563-2.766-1.016-4.563-3.469-4.563-6.109 0-3.313 2.766-5.766 6.485-5.766 4.015 0 6.546 2.641 6.546 6.844 0 2.703-1.031 4.984-2.953 6.594m-7.672 8.578c2.454.672 5.454 1.562 6.954 2.047 3.781 1.312 5.218 2.937 5.218 6 0 4.078-3.359 7.015-8.093 7.015-4.86 0-7.797-2.875-7.797-7.672 0-3.187 1.015-5.218 3.718-7.39"/>
  <path class="StaffText" d="m664.85 105.947-8.641.546v2.157h1.797c1.89.047 2.14.343 2.14 2.5v24.437c-.046.703-.093 1-.296 1.25-.344.453-1.297.656-3.454.703h-.187v1.797h13v-1.797h-.563c-3.343-.093-3.796-.343-3.796-2.14v-9.453c1.656 2.89 3.5 4.046 6.609 4.046 3.047 0 5.547-1.296 7.344-3.75 1.75-2.406 2.75-5.5 2.75-8.75s-1-6.296-2.844-8.703c-1.859-2.39-4.156-3.593-6.953-3.593-3.11 0-5.156 1.296-6.906 4.296v-3.546m6 1.953c3.453 0 5.453 3.437 5.453 9.297 0 6.453-2 10.093-5.594 10.093-3.609 0-5.906-3.703-5.906-9.453 0-6.25 2.25-9.937 6.047-9.937m22.937-1.953-9.391.546v2.157h2.547c1.891.047 2.141.343 2.141 2.5v14.297c-.047.75-.094 1.046-.297 1.296-.344.454-1.297.657-3.453.704h-.344v1.796h12.953v-1.796h-.359c-3.344-.11-3.797-.36-3.797-2.157v-19.343m-2.344-12.454a2.898 2.898 0 0 0-2.906 2.891c0 1.609 1.297 2.906 2.859 2.906 1.641 0 2.938-1.297 2.938-2.906a2.894 2.894 0 0 0-2.891-2.891m29.235 12.454h-18.063l-.437 8.453h2c.39-4.453 2.343-6.36 6.343-6.313h4.344l-13.64 19.36v1.796h19.453l.343-8.953h-2c-.5 4.907-2.453 6.86-6.906 6.797h-5.094l13.657-19.344v-1.796m24.047 0h-18.063l-.437 8.453h2c.39-4.453 2.343-6.36 6.343-6.313h4.344l-13.641 19.36v1.796h19.454l.343-8.953h-2c-.5 4.907-2.453 6.86-6.906 6.797h-5.094l13.657-19.344v-1.796m9.484 17.75c-1.75 0-3.141 1.39-3.141 3.093 0 1.75 1.391 3.157 3.094 3.157a3.148 3.148 0 0 0 3.156-3.157c0-1.703-1.406-3.093-3.109-3.093m603.753 356.535-8.64.547v2.157h1.8c1.89.046 2.14.343 2.14 2.5v24.437c-.05.703-.09 1-.3 1.25-.34.453-1.29.656-3.45.703h-.19v1.797h13v-1.797h-.56c-3.34-.094-3.8-.344-3.8-2.14v-9.454c1.66 2.891 3.5 4.047 6.61 4.047 3.05 0 5.55-1.297 7.35-3.75 1.75-2.406 2.75-5.5 2.75-8.75s-1-6.297-2.85-8.703c-1.86-2.39-4.15-3.594-6.95-3.594-3.11 0-5.16 1.297-6.91 4.297v-3.547m6 1.954c3.46 0 5.46 3.437 5.46 9.296 0 6.454-2 10.094-5.6 10.094-3.61 0-5.9-3.703-5.9-9.453 0-6.25 2.25-9.937 6.04-9.937m22.94-1.954-9.39.547v2.157h2.55c1.89.046 2.14.343 2.14 2.5v14.296c-.05.75-.1 1.047-.3 1.297-.34.453-1.3.657-3.45.703h-.35v1.797h12.96v-1.797h-.36c-3.35-.109-3.8-.359-3.8-2.156v-19.344m-2.34-12.453a2.9 2.9 0 0 0-2.91 2.891c0 1.609 1.3 2.906 2.86 2.906 1.64 0 2.94-1.297 2.94-2.906 0-1.594-1.3-2.891-2.89-2.891m29.23 12.453h-18.06l-.44 8.454h2c.39-4.454 2.35-6.36 6.35-6.313h4.34l-13.64 19.359v1.797h19.45l.35-8.953h-2c-.5 4.906-2.46 6.86-6.91 6.797h-5.09l13.65-19.344v-1.797m24.05 0h-18.06l-.44 8.454h2c.39-4.454 2.34-6.36 6.34-6.313h4.35l-13.64 19.359v1.797h19.45l.34-8.953h-2c-.5 4.906-2.45 6.86-6.9 6.797h-5.1l13.66-19.344v-1.797m9.48 17.75c-1.75 0-3.14 1.391-3.14 3.094 0 1.75 1.39 3.156 3.1 3.156 1.75 0 3.15-1.406 3.15-3.156 0-1.703-1.4-3.094-3.11-3.094"/>
  <path class="NoteDot" d="M2476.952 565.525a4.955 4.955 0 0 0 4.96 4.96 4.955 4.955 0 0 0 4.96-4.96 4.955 4.955 0 0 0-4.96-4.96 4.955 4.955 0 0 0-4.96 4.96" style="stroke-width:.992"/>
</svg>
