<svg width="2459.166" height="297.401" version="1.2" xmlns="http://www.w3.org/2000/svg">
  <path class="StaffLines" fill="none" stroke="#000" stroke-width="2.73" stroke-linejoin="bevel" d="M16 126.381h2427.166M16 151.184h2427.166M16 175.987h2427.166M16 200.79h2427.166M16 225.594h2427.166"/>
  <path class="TieSegment" stroke="#000" stroke-width="1.74" stroke-linecap="round" stroke-linejoin="round" fill-rule="evenodd" d="M462.285 107.779c13.043-13.394 52.174-13.394 65.217 0-13.043-6.449-52.174-6.449-65.217 0m269.601 0c13.04-13.394 52.17-13.394 65.21 0-13.04-6.449-52.17-6.449-65.21 0m569.14 37.204c20.39-18.965 81.54-18.965 101.93 0-20.39-12.02-81.54-12.02-101.93 0m301.97 0c12.71-13.393 50.84-13.393 63.55 0-12.71-6.448-50.84-6.448-63.55 0"/>
  <path class="BarLine" stroke="#000" stroke-width="4.46" stroke-linejoin="bevel" d="M1357.196 125.017v101.941m1061.79-101.941v101.941"/>
  <path class="BarLine" stroke="#000" stroke-width="13.64" stroke-linejoin="bevel" d="M2436.346 125.017v101.941"/>
  <path class="Accidental" d="M239.33 115.87c.604-.108 1.1-.805 1.1-1.395v-5.86c0-.79-.604-1.379-1.395-1.379h-.202l-3.27.698v-14.79h-2.775v15.379l-8.837 1.782V96.323h-2.774v14.587l-3.876.79c-.589.094-1.085.791-1.085 1.38v5.953-.186c0 .79.59 1.38 1.395 1.38h.295l3.27-.698v16.37l-3.875.806c-.589.093-1.085.79-1.085 1.38v5.751c0 .806.59 1.395 1.395 1.395h.295l3.27-.697v14.789h2.775v-15.378l8.837-1.783v13.983h2.774v-14.588l3.767-.697c.605-.093 1.101-.79 1.101-1.38v-5.86c0-.79-.604-1.38-1.395-1.38h-.202l-3.27.683v-16.37l3.766-.682m-15.378 19.532V118.94l8.837-1.783v16.37l-8.837 1.876m90.266 17.673c.605-.109 1.101-.806 1.101-1.396v-5.86c0-.79-.604-1.379-1.395-1.379h-.202l-3.27.698v-14.79h-2.775v15.379l-8.837 1.782v-13.982h-2.774v14.587l-3.876.79c-.589.094-1.085.791-1.085 1.38v5.953-.186c0 .79.59 1.38 1.395 1.38h.295l3.27-.698v16.37l-3.875.806c-.589.093-1.085.79-1.085 1.38v5.751c0 .806.59 1.395 1.395 1.395h.295l3.27-.697v14.789h2.775V181.15l8.837-1.783v13.983h2.774v-14.588l3.767-.697c.605-.093 1.101-.79 1.101-1.38v-5.86c0-.79-.604-1.38-1.395-1.38h-.202l-3.27.683v-16.37l3.766-.682m-15.378 19.532v-16.463l8.837-1.783v16.37l-8.837 1.876M853.41 190.28c.604-.109 1.1-.806 1.1-1.396v-5.86c0-.79-.604-1.379-1.395-1.379h-.202l-3.27.698v-14.79h-2.775v15.379l-8.837 1.782v-13.982h-2.774v14.587l-3.876.79c-.589.094-1.085.791-1.085 1.38v5.953-.186c0 .79.59 1.38 1.395 1.38h.295l3.27-.698v16.37l-3.875.806c-.589.093-1.085.79-1.085 1.38v5.751c0 .806.59 1.395 1.395 1.395h.295l3.27-.697v14.789h2.775v-15.378l8.837-1.783v13.983h2.774v-14.588l3.767-.697c.605-.093 1.101-.79 1.101-1.38v-5.86c0-.79-.604-1.38-1.395-1.38h-.202l-3.27.683v-16.37l3.766-.682m-15.378 19.532V193.35l8.837-1.783v16.37l-8.837 1.876m90.269-81.54c.604-.109 1.1-.806 1.1-1.396v-5.86c0-.79-.604-1.379-1.395-1.379h-.202l-3.27.698v-14.79h-2.775v15.379l-8.837 1.782v-13.982h-2.774v14.587l-3.876.79c-.589.094-1.085.791-1.085 1.38v5.953-.186c0 .79.59 1.38 1.395 1.38h.295l3.27-.698v16.37l-3.875.806c-.589.093-1.085.79-1.085 1.38v5.751c0 .806.59 1.395 1.395 1.395h.295l3.27-.697v14.789h2.775v-15.378l8.837-1.783v13.983h2.774v-14.588l3.767-.697c.605-.093 1.101-.79 1.101-1.38v-5.86c0-.79-.604-1.38-1.395-1.38h-.202l-3.27.683v-16.37l3.766-.682m-15.378 19.532v-16.463l8.837-1.783v16.37l-8.837 1.876m165.749-27.175c-.187-.201-.497-.294-.792-.294-.092 0-.294.093-.387.093l-12.51 3.472V106.54h-2.775v49.11c0 .79.59 1.287 1.395 1.287h.388l12.51-3.473v17.363h2.666v-49.11c0-.388-.186-.884-.496-1.086m-2.17 24.602-11.518 3.178v-16.277l11.518-3.271v16.37m498.251 7.843c.604-.109 1.1-.806 1.1-1.396v-5.86c0-.79-.605-1.379-1.395-1.379h-.202l-3.27.698v-14.79h-2.775v15.379l-8.836 1.782v-13.982h-2.775v14.587l-3.876.79c-.589.094-1.085.791-1.085 1.38v5.953-.186c0 .79.59 1.38 1.395 1.38h.295l3.27-.698v16.37l-3.875.806c-.589.093-1.085.79-1.085 1.38v5.751c0 .806.59 1.395 1.395 1.395h.295l3.27-.697v14.789h2.775V181.15l8.837-1.783v13.983h2.774v-14.588l3.767-.697c.605-.093 1.101-.79 1.101-1.38v-5.86c0-.79-.605-1.38-1.395-1.38h-.202l-3.27.683v-16.37l3.766-.682m-15.378 19.532v-16.463l8.837-1.783v16.37l-8.837 1.876m235.039-56.738c.604-.108 1.1-.805 1.1-1.395v-5.86c0-.79-.605-1.379-1.395-1.379h-.202l-3.27.698v-14.79h-2.775v15.379l-8.836 1.782V96.323h-2.775v14.587l-3.876.79c-.589.094-1.085.791-1.085 1.38v5.953-.186c0 .79.59 1.38 1.395 1.38h.295l3.27-.698v16.37l-3.875.806c-.589.093-1.085.79-1.085 1.38v5.751c0 .806.59 1.395 1.395 1.395h.295l3.27-.697v14.789h2.775v-15.378l8.837-1.783v13.983h2.774v-14.588l3.767-.697c.605-.093 1.101-.79 1.101-1.38v-5.86c0-.79-.605-1.38-1.395-1.38h-.202l-3.27.683v-16.37l3.766-.682m-15.378 19.532V118.94l8.837-1.783v16.37l-8.836 1.876m249.678 5.271c.604-.109 1.1-.806 1.1-1.396v-5.86c0-.79-.605-1.379-1.395-1.379h-.202l-3.27.698v-14.79h-2.775v15.379l-8.836 1.782v-13.982h-2.775v14.587l-3.876.79c-.589.094-1.085.791-1.085 1.38v5.953-.186c0 .79.59 1.38 1.395 1.38h.295l3.27-.698v16.37l-3.875.806c-.589.093-1.085.79-1.085 1.38v5.751c0 .806.59 1.395 1.395 1.395h.295l3.27-.697v14.789h2.775v-15.378l8.837-1.783v13.983h2.774V166.36l3.767-.697c.605-.093 1.101-.79 1.101-1.38v-5.86c0-.79-.605-1.38-1.395-1.38h-.202l-3.27.683v-16.37l3.766-.682m-15.378 19.532v-16.463l8.837-1.783v16.37l-8.836 1.876m205.758-31.933c.604-.109 1.1-.806 1.1-1.396v-5.86c0-.79-.604-1.379-1.395-1.379h-.202l-3.27.698v-14.79h-2.775v15.379l-8.836 1.782v-13.982h-2.775v14.587l-3.876.79c-.589.094-1.085.791-1.085 1.38v5.953-.186c0 .79.59 1.38 1.395 1.38h.295l3.27-.698v16.37l-3.875.806c-.589.093-1.085.79-1.085 1.38v5.751c0 .806.59 1.395 1.395 1.395h.295l3.27-.697v14.789h2.776v-15.378l8.836-1.783v13.983h2.775v-14.588l3.767-.697c.604-.093 1.1-.79 1.1-1.38v-5.86c0-.79-.604-1.38-1.395-1.38h-.202l-3.27.683v-16.37l3.767-.682m-15.379 19.532v-16.463l8.837-1.783v16.37l-8.836 1.876" style="stroke-width:.992126"/>
  <path class="Stem" stroke="#000" stroke-width="2.73" stroke-linejoin="bevel" d="M247.987 129.715v114.481m74.888-77.277v77.277m119.821-114.481v114.481m74.887-114.481v89.678m119.821-77.277v77.277m74.892-89.678v89.678m74.88-89.678V275.2m74.89-71.076V275.2m74.89-133.084V275.2m74.89-145.485V275.2m74.88-133.084v83.478m74.89-95.879v103.033m119.82-65.829v77.277m111.6-77.277v77.277m117.15-102.08v102.08m73.22-77.277v77.277m73.22-77.277v77.277m73.22-89.678v77.276m73.22-102.079v89.678m117.15-52.474v64.875m117.15-77.276v71.076m117.16-83.478v83.478m73.22-83.478v90.632m117.15-65.829v77.277"/>
  <path class="Note" d="M277.875 118.351c-1.783-3.286-5.55-5.07-10.123-5.07-3.364 0-7.038.993-10.619 2.884-6.541 3.473-10.51 9.317-10.51 14.386 0 1.38.295 2.775.992 4.062 1.783 3.27 5.55 4.96 10.123 4.96 3.364 0 7.038-.883 10.619-2.775 6.542-3.472 10.51-9.332 10.51-14.386 0-1.395-.294-2.774-.992-4.061m74.888 37.205c-1.783-3.286-5.55-5.07-10.123-5.07-3.364 0-7.038.993-10.619 2.884-6.541 3.473-10.51 9.317-10.51 14.386 0 1.38.295 2.775.992 4.062 1.783 3.27 5.55 4.96 10.123 4.96 3.364 0 7.038-.883 10.619-2.775 6.542-3.472 10.51-9.332 10.51-14.385 0-1.396-.294-2.775-.992-4.062m119.82-37.205c-1.783-3.286-5.55-5.07-10.123-5.07-3.364 0-7.038.993-10.619 2.884-6.542 3.473-10.51 9.317-10.51 14.386 0 1.38.295 2.775.992 4.062 1.783 3.27 5.55 4.96 10.123 4.96 3.364 0 7.038-.883 10.619-2.775 6.542-3.472 10.51-9.332 10.51-14.386 0-1.395-.294-2.774-.992-4.061m74.888 0c-1.783-3.286-5.55-5.07-10.123-5.07-3.364 0-7.038.993-10.619 2.884-6.542 3.473-10.51 9.317-10.51 14.386 0 1.38.295 2.775.992 4.062 1.783 3.27 5.55 4.96 10.123 4.96 3.364 0 7.038-.883 10.619-2.775 6.542-3.472 10.51-9.332 10.51-14.386 0-1.395-.294-2.774-.992-4.061m119.821 12.402c-1.783-3.286-5.55-5.07-10.123-5.07-3.364 0-7.038.993-10.619 2.884-6.541 3.473-10.51 9.317-10.51 14.386 0 1.38.295 2.775.992 4.062 1.783 3.27 5.55 4.96 10.123 4.96 3.364 0 7.038-.883 10.619-2.775 6.542-3.472 10.51-9.332 10.51-14.385 0-1.396-.294-2.775-.992-4.062m74.886-12.402c-1.783-3.286-5.55-5.07-10.123-5.07-3.364 0-7.038.993-10.619 2.884-6.542 3.473-10.51 9.317-10.51 14.386 0 1.38.295 2.775.992 4.062 1.783 3.27 5.55 4.96 10.123 4.96 3.364 0 7.038-.883 10.619-2.775 6.542-3.472 10.51-9.332 10.51-14.386 0-1.395-.294-2.774-.992-4.061m74.89 0c-1.783-3.286-5.55-5.07-10.123-5.07-3.364 0-7.038.993-10.619 2.884-6.542 3.473-10.51 9.317-10.51 14.386 0 1.38.295 2.775.992 4.062 1.783 3.27 5.55 4.96 10.123 4.96 3.364 0 7.038-.883 10.619-2.775 6.542-3.472 10.51-9.332 10.51-14.386 0-1.395-.294-2.774-.992-4.061m74.89 74.409c-1.783-3.286-5.55-5.07-10.123-5.07-3.364 0-7.038.993-10.619 2.884-6.541 3.473-10.51 9.317-10.51 14.386 0 1.38.295 2.775.992 4.062 1.783 3.27 5.55 4.96 10.123 4.96 3.364 0 7.038-.883 10.619-2.775 6.542-3.472 10.51-9.332 10.51-14.385 0-1.396-.294-2.775-.992-4.062m74.89-62.007c-1.783-3.286-5.55-5.07-10.123-5.07-3.364 0-7.038.993-10.619 2.884-6.541 3.473-10.51 9.317-10.51 14.386 0 1.38.295 2.775.992 4.062 1.783 3.27 5.55 4.96 10.123 4.96 3.364 0 7.038-.883 10.619-2.775 6.542-3.472 10.51-9.332 10.51-14.385 0-1.396-.294-2.775-.992-4.062m74.88-12.402c-1.783-3.286-5.55-5.07-10.123-5.07-3.364 0-7.038.993-10.619 2.884-6.541 3.473-10.51 9.317-10.51 14.386 0 1.38.294 2.775.992 4.062 1.783 3.27 5.55 4.96 10.123 4.96 3.364 0 7.038-.883 10.619-2.775 6.542-3.472 10.51-9.332 10.51-14.386 0-1.395-.295-2.774-.992-4.061m74.89 12.402c-1.783-3.286-5.55-5.07-10.123-5.07-3.364 0-7.038.993-10.619 2.884-6.542 3.473-10.51 9.317-10.51 14.386 0 1.38.294 2.775.992 4.062 1.783 3.27 5.55 4.96 10.123 4.96 3.364 0 7.038-.883 10.619-2.775 6.542-3.472 10.51-9.332 10.51-14.385 0-1.396-.295-2.775-.992-4.062m74.89-12.402c-1.783-3.286-5.55-5.07-10.123-5.07-3.364 0-7.038.993-10.619 2.884-6.542 3.473-10.51 9.317-10.51 14.386 0 1.38.294 2.775.992 4.062 1.783 3.27 5.55 4.96 10.123 4.96 3.364 0 7.038-.883 10.619-2.775 6.542-3.472 10.51-9.332 10.51-14.386 0-1.395-.295-2.774-.992-4.061m119.82 37.205c-1.783-3.286-5.55-5.07-10.123-5.07-3.364 0-7.038.993-10.619 2.884-6.542 3.473-10.51 9.317-10.51 14.386 0 1.38.294 2.775.992 4.062 1.783 3.27 5.55 4.96 10.123 4.96 3.364 0 7.038-.883 10.619-2.775 6.542-3.472 10.51-9.332 10.51-14.385 0-1.396-.295-2.775-.992-4.062m111.6 0c-1.783-3.286-5.55-5.07-10.123-5.07-3.364 0-7.038.993-10.619 2.884-6.541 3.473-10.51 9.317-10.51 14.386 0 1.38.295 2.775.992 4.062 1.783 3.27 5.55 4.96 10.123 4.96 3.364 0 7.038-.883 10.619-2.775 6.542-3.472 10.51-9.332 10.51-14.385 0-1.396-.295-2.775-.992-4.062m117.15-24.803c-1.783-3.286-5.55-5.07-10.123-5.07-3.364 0-7.038.993-10.619 2.884-6.542 3.473-10.51 9.317-10.51 14.386 0 1.38.294 2.775.992 4.062 1.783 3.27 5.55 4.96 10.123 4.96 3.364 0 7.038-.883 10.619-2.775 6.542-3.472 10.51-9.332 10.51-14.385 0-1.396-.295-2.775-.992-4.062m73.22 24.803c-1.783-3.286-5.55-5.07-10.123-5.07-3.364 0-7.038.993-10.619 2.884-6.542 3.473-10.51 9.317-10.51 14.386 0 1.38.294 2.775.992 4.062 1.783 3.27 5.55 4.96 10.123 4.96 3.364 0 7.038-.883 10.619-2.775 6.542-3.472 10.51-9.332 10.51-14.385 0-1.396-.295-2.775-.992-4.062m73.22 0c-1.783-3.286-5.55-5.07-10.123-5.07-3.364 0-7.038.993-10.619 2.884-6.542 3.473-10.51 9.317-10.51 14.386 0 1.38.294 2.775.992 4.062 1.783 3.27 5.55 4.96 10.123 4.96 3.364 0 7.038-.883 10.619-2.775 6.542-3.472 10.51-9.332 10.51-14.385 0-1.396-.295-2.775-.992-4.062m73.22-12.402c-1.783-3.286-5.55-5.07-10.123-5.07-3.364 0-7.038.993-10.619 2.884-6.542 3.473-10.51 9.317-10.51 14.386 0 1.38.294 2.775.992 4.062 1.783 3.27 5.55 4.96 10.123 4.96 3.364 0 7.038-.883 10.619-2.775 6.542-3.472 10.51-9.332 10.51-14.386 0-1.395-.295-2.774-.992-4.061m73.22-24.803c-1.783-3.286-5.55-5.07-10.123-5.07-3.364 0-7.038.993-10.619 2.884-6.541 3.473-10.51 9.317-10.51 14.386 0 1.38.295 2.775.992 4.062 1.783 3.27 5.55 4.96 10.123 4.96 3.364 0 7.038-.883 10.619-2.775 6.542-3.472 10.51-9.332 10.51-14.386 0-1.395-.295-2.774-.992-4.061m117.15 37.205c-1.783-3.286-5.55-5.07-10.123-5.07-3.364 0-7.038.993-10.619 2.884-6.542 3.473-10.51 9.317-10.51 14.386 0 1.38.294 2.775.992 4.062 1.783 3.27 5.55 4.96 10.123 4.96 3.364 0 7.038-.883 10.619-2.775 6.542-3.472 10.51-9.332 10.51-14.385 0-1.396-.295-2.775-.992-4.062m117.15-12.402c-1.783-3.286-5.55-5.07-10.123-5.07-3.364 0-7.038.993-10.619 2.884-6.542 3.473-10.51 9.317-10.51 14.386 0 1.38.294 2.775.992 4.062 1.783 3.27 5.55 4.96 10.123 4.96 3.364 0 7.038-.883 10.619-2.775 6.542-3.472 10.51-9.332 10.51-14.386 0-1.395-.295-2.774-.992-4.061m117.15-12.401c-1.783-3.286-5.55-5.07-10.123-5.07-3.364 0-7.038.993-10.619 2.884-6.542 3.473-10.51 9.317-10.51 14.386 0 1.38.294 2.775.992 4.062 1.783 3.27 5.55 4.96 10.123 4.96 3.364 0 7.038-.883 10.619-2.775 6.542-3.472 10.51-9.332 10.51-14.385 0-1.396-.295-2.775-.992-4.062m73.22 0c-1.783-3.286-5.55-5.07-10.123-5.07-3.364 0-7.038.993-10.619 2.884-6.542 3.473-10.51 9.317-10.51 14.386 0 1.38.294 2.775.992 4.062 1.783 3.27 5.55 4.96 10.123 4.96 3.364 0 7.038-.883 10.619-2.775 6.542-3.472 10.51-9.332 10.51-14.385 0-1.396-.295-2.775-.992-4.062m117.15 24.803c-1.783-3.286-5.55-5.07-10.123-5.07-3.364 0-7.038.993-10.619 2.884-6.542 3.473-10.51 9.317-10.51 14.386 0 1.38.294 2.775.992 4.062 1.783 3.27 5.55 4.96 10.123 4.96 3.364 0 7.038-.883 10.619-2.775 6.542-3.472 10.51-9.332 10.51-14.385 0-1.396-.295-2.775-.992-4.062" style="stroke-width:.992126"/>
  <path class="Clef" d="M98.704 194.915c-1.225-5.38-3.845-9.177-4.62-10.2-3.163-4.248-7.147-7.07-11.797-8.418-3.085-.868-6.061-.992-8.464-.806a2314.456 2314.456 0 0 1-2.93-17.207c5.41-6.124 9.007-11.875 11.27-16.138 3.441-6.526 4.573-11.068 4.635-11.27 1.705-5.178 2.062-12.82.961-20.959-.992-7.487-3.07-14.152-5.41-17.377-1.008-1.41-2.062-2.14-3.085-2.14-1.21 0-3.705 1.225-6.573 3.984-2.279 2.17-5.519 6.03-8.06 11.999-2.977 7.007-3.194 16.417-2.838 23.082.372 7.224 1.473 12.867 1.489 12.914.015.093.279 1.58.713 4.123-.217.233-.465.45-.713.698-1.024.992-2.202 2.108-3.581 3.488-.853.852-1.799 1.751-2.79 2.713-8.372 8.076-21.068 20.307-21.068 39.312 0 4.667.9 9.054 2.666 13.038 1.566 3.565 3.845 6.82 6.76 9.673 7.673 7.503 18.183 10.68 25.174 10.526 2.93-.078 5.55-.31 7.922-.76 1.814 9.534 2.945 16.51 2.976 21.811.047 6.465-1.596 10.418-5.456 13.162-2.419 1.72-5.21 2.666-8.278 2.805-2.574.124-4.822-.34-6.232-.744h-.016s-.279-.093-.294-.279c-.016-.186.34-.232.34-.232h.032c1.907-.434 5.441-1.659 7.782-4.93 1.782-2.511 2.65-7.1.821-11.006-1.1-2.372-3.58-5.302-9.161-5.751-2.48-.202-4.728.31-6.713 1.503-1.798 1.07-3.286 2.698-4.325 4.682-2.433 4.666-1.984 10.355 1.116 14.169 2.946 3.596 7.519 5.89 12.914 6.464.852.093 1.69.124 2.526.124 4.403 0 8.759-1.194 12.309-3.38 3.627-2.557 5.736-6.51 6.402-12.091.558-4.604.17-10.48-1.209-18.494-.356-2.077-.899-5.085-1.55-8.805 5.705-1.907 9.828-5.457 13.564-11.27 3.271-5.69 4.201-11.75 2.79-18.013m-33.949 26.012c-4.604-1.21-9.006-3.69-12.727-7.177-1.302-1.21-3.162-3.364-4.62-6.728-1.348-3.147-2.015-6.558-1.953-10.107.062-4.667 1.364-9.457 3.845-14.2 2.899-5.535 7.425-11.022 13.44-16.308a89.217 89.217 0 0 0 4.077-3.814c.76 4.232 1.581 8.883 2.45 13.72-3.814 1.255-8.527 4.386-11.612 9.998-3.519 6.511-3.38 11.999-2.65 15.456.93 4.418 3.44 8.154 6.867 10.231.93.558 5.022 2.666 6.852 2.093a1.16 1.16 0 0 0 .775-.667c.511-1.163-.512-1.798-2.046-2.744a27.278 27.278 0 0 1-1.985-1.317c-3.302-2.465-4.743-6.883-3.674-11.24a12.438 12.438 0 0 1 3.674-6.216c1.643-1.534 3.674-2.62 6.03-3.255 2.031 11.161 4.078 22.23 5.705 30.523.124.682.264 1.349.388 2.016-4.34.93-8.65.837-12.836-.264m11.24-32.942c10.261-.465 14.493 6.914 15.377 11.704.465 2.527.465 6.93-1.07 11.115-1.162 3.147-3.596 7.193-8.696 9.24-.062-.42-.14-.853-.217-1.272-1.535-8.712-3.457-19.625-5.395-30.787m-7.27-70.394c1.767-5.69 4.48-8.914 6.464-10.634 1.736-1.504 3.364-2.217 4.279-2.217.14 0 .263.03.356.062.465.14.992.697 1.457 1.565 2.295 4.248 1.55 10.914.217 15.316-1.612 5.364-4.51 10.93-13.238 20.463-.17-1.1-.326-2.14-.48-3.116-1.241-8.216-.916-15.44.945-21.44" style="stroke-width:.992126"/>
  <path class="TimeSig" d="M126.327 163.842h17.037v7.394h-8.154c-.775 0-1.41.62-1.41 1.395v1.891c0 .776.635 1.396 1.41 1.396h30.012a1.39 1.39 0 0 0 1.395-1.396v-1.89a1.39 1.39 0 0 0-1.395-1.396h-8.867v-7.394h8.867a1.39 1.39 0 0 0 1.395-1.396v-1.89a1.39 1.39 0 0 0-1.395-1.396h-8.867v-15.843c0-.527-.31-1.008-.775-1.24l-1.21-.605a1.446 1.446 0 0 0-1.58.233l-8.976 8.247a1.45 1.45 0 0 0-.45 1.038v8.17H131.94s11.038-11.937 22.788-27.578c.853-1.147.357-2.186.17-2.372l-2.154-2.186a1.41 1.41 0 0 0-.992-.418c-.59 0-14.045.03-14.758 0-.713-.016-1.24.604-1.318 1.209 0 0-.527 7.301-3.116 15.378-2.573 8.045-5.487 12.99-8.123 16.587 0 0-.542.977-.186 1.72.341.745.977 1.815.977 1.815s.248.527 1.1.527m-.001 49.343h17.037v7.394h-8.154c-.775 0-1.41.62-1.41 1.395v1.891c0 .776.635 1.396 1.41 1.396h30.012a1.39 1.39 0 0 0 1.395-1.396v-1.89a1.39 1.39 0 0 0-1.395-1.396h-8.867v-7.394h8.867a1.39 1.39 0 0 0 1.395-1.396v-1.89a1.39 1.39 0 0 0-1.395-1.396h-8.867V192.66c0-.527-.31-1.008-.775-1.24l-1.21-.605a1.446 1.446 0 0 0-1.58.233l-8.976 8.247a1.45 1.45 0 0 0-.45 1.038v8.17H131.94s11.038-11.937 22.788-27.578c.853-1.147.357-2.186.17-2.372l-2.154-2.186a1.41 1.41 0 0 0-.992-.418c-.59 0-14.045.03-14.758 0-.713-.016-1.24.604-1.318 1.209 0 0-.527 7.301-3.116 15.378-2.573 8.045-5.487 12.99-8.123 16.587 0 0-.542.977-.186 1.72.341.745.977 1.815.977 1.815s.248.527 1.1.527" style="stroke-width:.992126"/>
  <path class="Beam" fill-rule="evenodd" d="M246.623 237.995H444.06v12.402H246.623v-12.402m0-18.602h32.244v12.401h-32.244v-12.401m197.437 0h-32.244v12.401h32.244v-12.401m72.159-6.201h197.437v12.402H516.219v-12.402M636.04 194.59h77.616v12.401H636.04V194.59m149.776 74.409h227.39v12.402h-227.39v-12.402m0-18.602h227.39v12.401h-227.39v-12.401m299.55-31.032 197.44 18.863v12.458l-197.44-18.863v-12.458m0-18.603 32.24 3.081v12.458l-32.24-3.081v-12.458m197.44 18.863-32.25-3.08v12.458l32.25 3.08v-12.458m108.87 18.37h193.1v12.402h-193.1v-12.402m117.15-18.602h75.95v12.401h-75.95v-12.401m146.44 18.514 149.17-25.265v12.578l-149.17 25.265v-12.578m0-18.603 75.95-12.863v12.578l-75.95 12.864v-12.579m263.59 6.281 119.88-6.345v12.419l-119.88 6.345v-12.419m234.3-6.222 193.1 18.869v12.461l-193.1-18.869v-12.461m0-18.602 32.25 3.151v12.46l-32.25-3.15v-12.461m193.1 18.869-32.24-3.151v12.461l32.24 3.15v-12.46"/>
  <path class="Tempo" d="M149.247 16h-3.297v44.969c-1.141-.672-2.516-1.094-4.094-1.266a12.674 12.674 0 0 0-1.344-.062c-2.719 0-5.656.781-8.39 2.265-3.188 1.719-5.75 4.188-7.172 6.922-1.453 2.766-1.594 5.469-.422 7.641 1.375 2.578 4.39 3.906 7.937 3.906 2.641 0 5.594-.734 8.407-2.25 5.14-2.781 8.359-7.375 8.375-11.375V16m22.296 52.328h30.235v-6.906h-30.235v6.906m0-12.359h30.235v-6.906h-30.235v6.906m72.782-24.609h-2.11c-3.781 2.828-8.031 4.031-15.172 4.14v3.36h2.516c5.344 0 5.406.125 5.344 5.046v21.297c0 3.719 0 3.907-.422 4.5-.547.657-1.75.907-4.984.907h-1.922v3.234h23.937V70.61h-1.922c-3.172 0-4.312-.25-4.859-.907-.406-.593-.406-.843-.406-4.5V31.36m29.39 0c-9 0-15.593 9.187-15.593 21.671 0 12.469 6.593 21.657 15.593 21.657 8.813 0 15.532-9.188 15.532-21.36 0-7.078-1.61-12.297-5.157-16.75-2.812-3.406-6.359-5.218-10.375-5.218m-.062 3.125c1.797 0 3.234 1.078 3.906 3 .781 1.984 1.25 8.281 1.25 15.718 0 6.188-.469 12.657-1.016 14.703-.656 2.391-2.093 3.657-4.14 3.657-1.86 0-3.235-1.016-3.953-3-.782-1.985-1.266-8.344-1.266-15.532 0-6.312.484-12.843 1.016-14.89.672-2.391 2.109-3.656 4.203-3.656m41.453 14.703c1.75-.657 2.594-1.078 3.422-1.688 2.344-1.609 3.656-4.078 3.656-6.89 0-5.532-5.219-9.25-13.016-9.25-9.296 0-15.296 4.984-15.296 12.781 0 4.75 2.218 8.219 6.968 10.75-1.875.594-2.64.828-3.672 1.375-3 1.562-4.609 4.312-4.609 7.797 0 6.484 5.813 10.625 14.938 10.625 9.656 0 16.187-5.532 16.187-13.75 0-5.641-2.75-9.36-8.578-11.75m-3.359-1.266c-2.516-.594-4.375-1.141-5.516-1.562-2.766-1.016-4.563-3.469-4.563-6.11 0-3.312 2.766-5.765 6.485-5.765 4.015 0 6.547 2.64 6.547 6.843 0 2.703-1.032 4.985-2.953 6.594m-7.672 8.578c2.453.672 5.453 1.563 6.953 2.047 3.781 1.313 5.219 2.938 5.219 6 0 4.078-3.36 7.016-8.094 7.016-4.86 0-7.797-2.875-7.797-7.672 0-3.188 1.016-5.219 3.719-7.391"/>
</svg>
