<svg width="2647.215" height="936.519" version="1.2" xmlns="http://www.w3.org/2000/svg">
  <path style="fill:#55f;stroke:#000;stroke-width:0;stroke-linecap:round;stroke-linejoin:round;paint-order:stroke markers fill" d="M2376.867 185.821h90.769v145.052h-90.769z"/>
  <path style="fill:#ff2ad4;stroke:#000;stroke-width:0;stroke-linecap:round;stroke-linejoin:round;stroke-miterlimit:4;stroke-dasharray:none;stroke-opacity:1;paint-order:stroke markers fill" d="M1951.277 325.294h590.511v407.535h-590.511z"/>
  <path style="fill:#55f;stroke:#000;stroke-width:0;stroke-linecap:round;stroke-linejoin:round;paint-order:stroke markers fill" d="M2376.867 295.277h137.235v372.11h-137.235z"/>
  <path style="fill:#ffd42a;stroke:#c01a1a;stroke-width:0;stroke-linecap:round;stroke-linejoin:round;stroke-miterlimit:4;stroke-dasharray:none;paint-order:stroke markers fill" d="M1554.501 325.294h396.777v407.535h-396.777z"/>
  <path style="fill:#2a7fff;stroke:#c01a1a;stroke-width:0;stroke-linecap:round;stroke-linejoin:round;stroke-miterlimit:4;stroke-dasharray:none;paint-order:stroke markers fill" d="M1404.149 325.294h150.352v407.535h-150.352z"/>
  <path style="fill:#ff2a2a;stroke:#c01a1a;stroke-width:0;stroke-linecap:round;stroke-linejoin:round;stroke-miterlimit:4;stroke-dasharray:none;paint-order:stroke markers fill" d="M1148.637 325.294h255.512v407.535h-255.512z"/>
  <path style="fill:#bc5fd3;stroke:#c01a1a;stroke-width:0;stroke-linecap:round;stroke-linejoin:round;stroke-miterlimit:4;stroke-dasharray:none;paint-order:stroke markers fill" d="M983.795 325.294h164.842v407.535H983.795z"/>
  <path style="fill:#ff2a2a;stroke:#c01a1a;stroke-width:0;stroke-linecap:round;stroke-linejoin:round;stroke-miterlimit:4;stroke-dasharray:none;paint-order:stroke markers fill" d="M661.58 325.294h322.215v407.535H661.58z"/>
  <path class="StaffLines" fill="none" stroke="#000" stroke-width="2.73" stroke-linejoin="bevel" d="M350.186 149.043h2216.902m-2216.902 24.8h2216.902m-2216.902 24.8h2216.902m-2216.902 24.8h2216.902m-2216.902 24.8h2216.902M350.186 385.056h2216.902m-2216.902 24.8h2216.902m-2216.902 24.8h2216.902m-2216.902 24.8h2216.902m-2216.902 24.8h2216.902M350.186 585.315h2216.902m-2216.902 24.8h2216.902m-2216.902 24.8h2216.902m-2216.902 24.8h2216.902m-2216.902 24.8h2216.902"/>
  <path class="InstrumentName" d="M79.86 616.465h-1.907l-2 2.95c-3.64-2.65-5.5-3.36-8.953-3.36-4.75 0-8.797 2-12.14 6-3.204 3.82-4.704 8.02-4.704 13.16 0 10.8 7.047 18.45 16.907 18.45 8 0 13.093-4.7 14.25-13.09l-2.36-.41c-1.343 7.46-5.14 11.16-11.297 11.16-7.406 0-10.906-5.11-10.906-15.91 0-5.7.75-9.45 2.453-12.45 1.547-2.8 4.61-4.55 7.86-4.55 3.5 0 6.593 1.85 8.5 5.05.953 1.66 1.64 3.5 2.843 7.45h2.204l-.75-14.45m16.531 12.41c-6.141 0-10.891 5.45-10.891 12.45 0 6.84 4.797 12.34 10.797 12.34 6 0 10.797-5.5 10.797-12.4 0-6.85-4.797-12.39-10.703-12.39m0 2.14c3.5 0 5.453 3.65 5.453 10.25 0 6.65-1.953 10.25-5.547 10.25-3.594 0-5.547-3.6-5.547-10.19 0-6.81 1.891-10.31 5.641-10.31m22.39-1.39-8.656.54v2.16h1.813c1.89.05 2.14.34 2.14 2.5v14.3c-.047.75-.093 1.04-.297 1.29-.343.46-1.296.66-3.453.71h-.203v1.79h12.656v-1.79h-.203c-3.343-.11-3.797-.36-3.797-2.16v-7.39c0-2.45.344-4.7.907-5.86 1.047-2.25 3.297-3.8 5.437-3.8 1.313 0 2.813.71 3.563 1.75.75 1.1 1.093 2.6 1.093 5v10.46c-.046.75-.093 1.04-.296 1.29-.36.46-1.36.66-3.5.71h-.204v1.79h12.657v-1.79h-.203c-3.297-.11-3.75-.36-3.75-2.16v-10.05c0-3.59-.157-4.5-1.047-6.2-1.25-2.39-3.75-3.84-6.75-3.84-3.25 0-5.703 1.5-7.907 4.79v-4.04m30.25 0v-9.91h-2.046c-.5 6.5-2.704 9.8-6.75 10.11v1.94h4.093v12.75c0 3.5.094 4.75.594 5.9.813 2.1 2.813 3.25 5.703 3.25 4.5 0 7.406-3.4 7.406-8.7 0-.3 0-.64-.046-1.14h-2.11c-.14 4.5-1.453 6.8-3.89 6.8-1.157 0-2.157-.61-2.5-1.46-.313-.7-.454-1.95-.454-3.75v-13.65h7.344v-2.14h-7.344m19.641 0-8.859.54v2.16h2.047c1.906.05 2.156.34 2.156 2.5v14.3c-.047.75-.094 1.04-.297 1.29-.359.46-1.359.66-3.5.71h-.203v1.79h13.344v-1.79h-.891c-3.359-.11-3.797-.36-3.797-2.16v-2.7c.047-8.39 3.047-14.8 6.938-15-.688.81-.891 1.31-.891 2.25 0 1.61 1.141 2.75 2.75 2.75 1.844 0 3.047-1.35 3.047-3.35 0-2.45-1.703-4.04-4.344-4.04-3.156 0-5.859 2.5-7.5 6.95v-6.2m34.469 7.2c0-3.16-.547-4.75-2-5.95-1.641-1.36-4.094-2-7.297-2-5.641 0-9.75 2.64-9.75 6.29 0 1.85 1.156 3.05 2.906 3.05 1.594 0 2.703-1.05 2.703-2.55 0-.65-.25-1.34-.75-2.04-.312-.36-.359-.46-.359-.71 0-1 2-1.9 4.406-1.9 1.594 0 3.344.5 4.141 1.25.953.81 1.312 2 1.312 4.25v1.95c-5.203.91-6.859 1.3-9.312 2.25-4.344 1.61-6.391 3.91-6.391 7.11 0 3.59 2.797 5.84 7.25 5.84 3.453 0 6.547-1.4 8.703-3.95.797 2.55 2.047 3.55 4.391 3.55 2.25 0 4.609-1.44 4.609-2.89 0-.36-.203-.61-.5-.61-.203 0-.406.06-.75.2-.703.3-1 .36-1.406.36-1.406 0-1.906-.91-1.906-3.45v-10.05m-4.688 6.09c0 3-.156 3.71-1 5-1.25 1.85-3.5 3.1-5.703 3.1-2.297 0-3.953-1.64-3.953-3.89 0-2.11 1.047-3.61 3.25-4.66 1.547-.7 3.5-1.2 7.406-1.84v2.29m18.891-26.86-8.594.57v2.14h1.75c1.891.04 2.141.36 2.141 2.5v19.45c0 6.95-.297 10.75-.891 12.91h1.891l2.453-3.91c2.047 2.7 4.406 3.95 7.5 3.95 6.203 0 10.75-5.29 10.75-12.54 0-7.21-4.203-12.25-10.203-12.25-3.047 0-4.891 1.04-6.797 3.89v-16.71m5.906 15.36c3.75 0 5.844 3.66 5.844 10.21 0 6.34-2.047 9.89-5.703 9.89-3.953 0-6.297-3.64-6.297-9.8 0-6.7 2.156-10.3 6.156-10.3m35.485 5.41c0-3.16-.547-4.75-2-5.95-1.641-1.36-4.094-2-7.297-2-5.641 0-9.75 2.64-9.75 6.29 0 1.85 1.156 3.05 2.906 3.05 1.594 0 2.703-1.05 2.703-2.55 0-.65-.25-1.34-.75-2.04-.312-.36-.359-.46-.359-.71 0-1 2-1.9 4.406-1.9 1.594 0 3.344.5 4.141 1.25.953.81 1.312 2 1.312 4.25v1.95c-5.203.91-6.859 1.3-9.312 2.25-4.344 1.61-6.391 3.91-6.391 7.11 0 3.59 2.797 5.84 7.25 5.84 3.453 0 6.547-1.4 8.703-3.95.797 2.55 2.047 3.55 4.391 3.55 2.25 0 4.609-1.44 4.609-2.89 0-.36-.203-.61-.5-.61-.203 0-.406.06-.75.2-.703.3-1 .36-1.406.36-1.406 0-1.906-.91-1.906-3.45v-10.05m-4.688 6.09c0 3-.156 3.71-1 5-1.25 1.85-3.5 3.1-5.703 3.1-2.297 0-3.953-1.64-3.953-3.89 0-2.11 1.047-3.61 3.25-4.66 1.547-.7 3.5-1.2 7.406-1.84v2.29m29.438-13.84h-1.75l-1.454 1.8c-1.796-1.41-3.593-2-6.093-2-4.407 0-7.297 2.84-7.297 7.25 0 1.95.64 3.59 1.75 4.59 1.14 1.05 2.297 1.55 5.297 2.25l2.64.61c3.953.94 5.36 1.94 5.36 3.94 0 2.36-2.047 4-4.953 4-4.25 0-7.25-2.69-8.454-7.69h-2v9.44h1.75l1.75-2.05c2.047 1.66 4.297 2.45 6.86 2.45 4.89 0 8.14-3.04 8.14-7.7 0-2.2-.703-3.89-2.093-5.05-1.203-1.04-2.203-1.45-5.25-2.09l-2.5-.56c-2.75-.6-2.75-.6-3.657-1.1-1.093-.5-1.75-1.54-1.75-2.65 0-2.05 1.907-3.44 4.657-3.44 1.89 0 3.453.64 4.843 2 1.11 1.09 1.657 2.09 2.454 4.39h1.75v-8.39m22.937 0h-1.75l-1.453 1.8c-1.797-1.41-3.594-2-6.094-2-4.406 0-7.297 2.84-7.297 7.25 0 1.95.641 3.59 1.75 4.59 1.141 1.05 2.297 1.55 5.297 2.25l2.641.61c3.953.94 5.359 1.94 5.359 3.94 0 2.36-2.047 4-4.953 4-4.25 0-7.25-2.69-8.453-7.69h-2v9.44h1.75l1.75-2.05c2.047 1.66 4.297 2.45 6.859 2.45 4.891 0 8.141-3.04 8.141-7.7 0-2.2-.703-3.89-2.094-5.05-1.203-1.04-2.203-1.45-5.25-2.09l-2.5-.56c-2.75-.6-2.75-.6-3.656-1.1-1.094-.5-1.75-1.54-1.75-2.65 0-2.05 1.906-3.44 4.656-3.44 1.891 0 3.453.64 4.844 2 1.109 1.09 1.656 2.09 2.453 4.39h1.75v-8.39m-97.859-184.669-9.157-23.203c-.25-.656-.406-1.297-.406-1.547 0-.906.86-1.25 3.11-1.25h2v-2.359H188.5v2.359h1c2.313.047 3.063.594 3.86 2.797L206 452.906h2l11.516-29.609c1.5-3.891 2.547-4.797 5.437-4.891h.5v-2.359h-13.547v2.359h.954c2.546 0 4.046 1 4.046 2.594 0 .703-.25 1.797-.593 2.797l-7.75 20.609m26.39-15.547-9.39.547v2.157h2.547c1.89.046 2.14.343 2.14 2.5v14.296c-.047.75-.094 1.047-.297 1.297-.343.453-1.297.657-3.453.703h-.344v1.797h12.954v-1.797h-.36c-3.344-.109-3.797-.359-3.797-2.156v-19.344m-2.343-12.453a2.898 2.898 0 0 0-2.907 2.891c0 1.609 1.297 2.906 2.86 2.906 1.64 0 2.937-1.297 2.937-2.906a2.894 2.894 0 0 0-2.89-2.891m20.375 11.703c-6.141 0-10.891 5.454-10.891 12.454 0 6.843 4.797 12.343 10.797 12.343 6 0 10.797-5.5 10.797-12.406 0-6.844-4.797-12.391-10.703-12.391m0 2.141c3.5 0 5.453 3.656 5.453 10.25 0 6.656-1.953 10.25-5.547 10.25-3.594 0-5.547-3.594-5.547-10.187 0-6.813 1.891-10.313 5.641-10.313m22.593-14.953-9.25.562V418h2.453c1.844.047 2.094.359 2.094 2.5v27.859c-.047.75-.094 1.047-.297 1.297-.359.453-1.297.657-3.453.703h-.344v1.797h12.938v-1.797h-.344c-3.344-.109-3.797-.359-3.797-2.156v-32.906m28.125 20.766c0-3.157-.547-4.75-2-5.954-1.64-1.359-4.093-2-7.297-2-5.64 0-9.75 2.641-9.75 6.297 0 1.844 1.157 3.047 2.907 3.047 1.593 0 2.703-1.047 2.703-2.547 0-.656-.25-1.343-.75-2.047-.313-.359-.36-.453-.36-.703 0-1 2-1.906 4.407-1.906 1.593 0 3.343.5 4.14 1.25.953.813 1.313 2 1.313 4.25v1.953c-5.203.906-6.86 1.297-9.313 2.25-4.343 1.61-6.39 3.906-6.39 7.11 0 3.593 2.797 5.843 7.25 5.843 3.453 0 6.547-1.406 8.703-3.953.797 2.547 2.047 3.547 4.39 3.547 2.25 0 4.61-1.437 4.61-2.891 0-.359-.203-.609-.5-.609-.203 0-.406.063-.75.203-.703.297-1 .36-1.406.36-1.407 0-1.907-.907-1.907-3.454v-10.046m-4.687 6.093c0 3-.156 3.703-1 5-1.25 1.844-3.5 3.094-5.703 3.094-2.297 0-3.953-1.641-3.953-3.891 0-2.109 1.046-3.609 3.25-4.656 1.546-.703 3.5-1.203 7.406-1.844v2.297M46.406 175.69h-1.89l-1.953 3c-3.25-2.547-5.453-3.406-9.11-3.406-3.953 0-7.047 1.109-10.203 3.656-4.937 4-7.25 9.047-7.25 15.797 0 5.11 1.453 9.36 4.406 12.61 3.094 3.5 7.704 5.546 12.5 5.546 4.204 0 7.157-1.296 10.407-4.546l1.843 4.5h2.11v-11c0-2.547 0-2.657.297-3.11.453-.547 1.343-.687 4.203-.687h.75v-2.36H36.61v2.36h.953c4.203 0 4.547.25 4.547 3.047 0 2.14-.344 4.093-1 5.296-1.25 2.454-4.454 4.157-7.704 4.157s-6.453-1.657-8.156-4.157c-1.844-2.796-2.64-6.296-2.64-11.656 0-11.14 3.703-17.094 10.64-17.094 5.703 0 9.656 4.094 11.703 12.094h2.157l-.704-14.047M63 175.284l-9.25.563v2.14h2.453c1.844.047 2.094.36 2.094 2.5v27.86c-.047.75-.094 1.046-.297 1.296-.359.454-1.297.657-3.453.704h-.344v1.796h12.938v-1.796h-.344c-3.344-.11-3.797-.36-3.797-2.157v-32.906m18.125 12.813c-6.14 0-10.89 5.453-10.89 12.453 0 6.843 4.796 12.343 10.796 12.343 6 0 10.797-5.5 10.797-12.406 0-6.844-4.797-12.39-10.703-12.39m0 2.14c3.5 0 5.453 3.656 5.453 10.25 0 6.656-1.953 10.25-5.547 10.25-3.593 0-5.546-3.594-5.546-10.187 0-6.813 1.89-10.313 5.64-10.313M112.86 204.8c-1.594 3.593-3.297 5.047-5.891 5.047-4 0-6.5-3.657-6.5-9.5 0-6.11 2.453-10.11 6.141-10.11 1.5 0 2.812.703 2.812 1.5 0 .156-.062.313-.312.61-.797.953-1 1.453-1 2.296 0 1.657 1.25 2.797 3 2.797 1.812 0 3.062-1.39 3.062-3.39 0-3.407-3.359-5.953-7.812-5.953-6.5 0-11.141 5.296-11.141 12.796 0 7.094 4.25 12 10.453 12 4.438 0 7-2.046 9.141-7.343l-1.953-.75m12.203-4.75v-24.766l-9.25.563v2.14h2.39c1.907.047 2.157.36 2.157 2.5v27.906c-.047.704-.094 1-.297 1.25-.36.454-1.297.657-3.453.704h-.204v1.796h12.657v-1.796h-.203c-3.344-.11-3.797-.36-3.797-2.157v-5.047l3.047-2.906 5.953 8.36c.25.39.343.64.343.843 0 .703-.546.907-2.203.907h-.937v1.796h13.203v-1.796c-2.813-.25-3.813-.86-5.859-3.454l-7.094-9.703 2.25-2.203c2.937-2.844 5.047-3.937 8.453-4.344v-1.796h-13.156v1.796h1.547c1.593 0 2.343.297 2.343.954 0 .546-.343 1.14-1.14 1.953l-6.75 6.5m42.031.843c.047-7.5-4.203-12.796-10.297-12.796-6.406 0-11.203 5.546-11.203 13.046 0 7.047 4.547 11.75 11.297 11.75 4.797 0 8.156-2.343 10.203-7.093l-1.75-.953c-2.047 3.843-4.156 5.343-7.5 5.343-2.547 0-4.406-1.047-5.703-3.297-.891-1.5-1.297-3.25-1.25-6h16.203m-16.156-2.156c0-1.547.203-2.64.703-4.047 1.047-3 2.656-4.453 5.109-4.453 3 0 5 2.656 5 6.703 0 1.407-.453 1.797-2.062 1.797h-8.75m27.89-9.89-8.656.546v2.157h1.813c1.89.047 2.14.343 2.14 2.5v14.297c-.047.75-.094 1.046-.297 1.296-.343.454-1.297.657-3.453.704h-.203v1.796h12.656v-1.796h-.203c-3.344-.11-3.797-.36-3.797-2.157v-7.39c0-2.453.344-4.703.907-5.86 1.046-2.25 3.296-3.797 5.437-3.797 1.313 0 2.813.704 3.563 1.75.75 1.094 1.093 2.594 1.093 5v10.454c-.047.75-.093 1.046-.297 1.296-.359.454-1.359.657-3.5.704h-.203v1.796h12.657v-1.796h-.204c-3.296-.11-3.75-.36-3.75-2.157v-10.047c0-3.593-.156-4.5-1.046-6.203-1.25-2.39-3.75-3.843-6.75-3.843-3.25 0-5.704 1.5-7.907 4.796v-4.046m40.047-.547h-1.75l-1.453 1.797c-1.797-1.407-3.594-2-6.094-2-4.406 0-7.297 2.843-7.297 7.25 0 1.953.641 3.593 1.75 4.593 1.141 1.047 2.297 1.547 5.297 2.25l2.641.61c3.953.937 5.359 1.937 5.359 3.937 0 2.36-2.047 4-4.953 4-4.25 0-7.25-2.687-8.453-7.687h-2v9.437h1.75l1.75-2.047c2.047 1.657 4.297 2.453 6.859 2.453 4.891 0 8.141-3.046 8.141-7.703 0-2.203-.703-3.89-2.094-5.047-1.203-1.046-2.203-1.453-5.25-2.093l-2.5-.563c-2.75-.594-2.75-.594-3.656-1.094-1.094-.5-1.75-1.546-1.75-2.656 0-2.047 1.906-3.437 4.656-3.437 1.891 0 3.453.64 4.844 2 1.109 1.093 1.656 2.093 2.453 4.39h1.75v-8.39m12.844.547-8.641.546v2.157h1.797c1.891.047 2.141.343 2.141 2.5v24.437c-.047.703-.094 1-.297 1.25-.344.453-1.297.656-3.453.703h-.188v1.797h13v-1.797h-.562c-3.344-.093-3.797-.343-3.797-2.14v-9.453c1.656 2.89 3.5 4.046 6.609 4.046 3.047 0 5.547-1.296 7.344-3.75 1.75-2.406 2.75-5.5 2.75-8.75s-1-6.296-2.844-8.703c-1.859-2.39-4.156-3.593-6.953-3.593-3.109 0-5.156 1.296-6.906 4.296v-3.546m6 1.953c3.453 0 5.453 3.437 5.453 9.297 0 6.453-2 10.093-5.594 10.093-3.609 0-5.906-3.703-5.906-9.453 0-6.25 2.25-9.937 6.047-9.937m22.937-1.953-9.39.546v2.157h2.547c1.89.047 2.14.343 2.14 2.5v14.297c-.047.75-.093 1.046-.297 1.296-.343.454-1.296.657-3.453.704h-.343v1.796h12.953v-1.796h-.36c-3.343-.11-3.797-.36-3.797-2.157v-19.343m-2.343-12.454a2.898 2.898 0 0 0-2.907 2.891c0 1.609 1.297 2.906 2.86 2.906 1.64 0 2.937-1.297 2.937-2.906a2.894 2.894 0 0 0-2.89-2.891m31.031 24.5c.047-7.5-4.203-12.796-10.297-12.796-6.406 0-11.203 5.546-11.203 13.046 0 7.047 4.547 11.75 11.297 11.75 4.797 0 8.156-2.343 10.203-7.093l-1.75-.953c-2.047 3.843-4.156 5.343-7.5 5.343-2.547 0-4.406-1.047-5.703-3.297-.891-1.5-1.297-3.25-1.25-6h16.203m-16.156-2.156c0-1.547.203-2.64.703-4.047 1.047-3 2.656-4.453 5.109-4.453 3 0 5 2.656 5 6.703 0 1.407-.453 1.797-2.062 1.797h-8.75m26.89-23.453-9.25.563v2.14h2.453c1.844.047 2.094.36 2.094 2.5v27.86c-.047.75-.094 1.046-.297 1.296-.359.454-1.297.657-3.453.704h-.344v1.796h12.938v-1.796h-.344c-3.344-.11-3.797-.36-3.797-2.157v-32.906"/>
  <path class="TieSegment" stroke="#000" stroke-width="1.74" stroke-linecap="round" stroke-linejoin="round" fill-rule="evenodd" d="M1065.758 703.115c11.51 6.45 46.03 6.45 57.53 0-11.5 13.39-46.02 13.39-57.53 0m937.36 12.4c11.51 6.45 46.03 6.45 57.53 0-11.5 13.39-46.02 13.39-57.53 0M878.678 196.287c5.95-13.392 23.81-13.392 29.76 0-5.95-6.448-23.81-6.448-29.76 0m187.08 20.956c11.51-13.392 46.03-13.392 57.53 0-11.5-6.448-46.02-6.448-57.53 0m937.36 37.2c11.51 6.448 46.03 6.448 57.53 0-11.5 13.392-46.02 13.392-57.53 0m241.36-24.8c9.68 6.448 38.71 6.448 48.38 0-9.67 13.392-38.7 13.392-48.38 0"/>
  <path class="BarLine" stroke="#000" stroke-width="4.46" stroke-linejoin="bevel" d="M352.418 583.955v101.93m1201.2-101.93v101.93m989.29-101.93v101.93"/>
  <path class="BarLine" stroke="#000" stroke-width="13.64" stroke-linejoin="bevel" d="M2560.268 583.955v101.93"/>
  <path class="BarLine" stroke="#000" stroke-width="4.46" stroke-linejoin="bevel" d="M352.418 383.692v201.623m1201.2-201.623v201.623m989.29-201.623v201.623"/>
  <path class="BarLine" stroke="#000" stroke-width="13.64" stroke-linejoin="bevel" d="M2560.268 383.692v201.623"/>
  <path class="BarLine" stroke="#000" stroke-width="4.46" stroke-linejoin="bevel" d="M352.418 147.679v237.377m1201.2-237.377v101.928m989.29-101.928v101.928"/>
  <path class="BarLine" stroke="#000" stroke-width="13.64" stroke-linejoin="bevel" d="M2560.268 147.679v101.928"/>
  <path class="Accidental" d="M1475.259 653.964c-.186-.201-.496-.294-.79-.294-.094 0-.295.093-.388.093l-12.508 3.472v-17.36h-2.775v49.104c0 .79.589 1.287 1.395 1.287h.388l12.508-3.472v17.36h2.666V655.05c0-.388-.186-.884-.496-1.085m-2.17 24.598-11.517 3.178v-16.275l11.517-3.271v16.368m502.682 10.509c-.589-3.86-2.976-7.533-8.029-7.533-4.96 0-7.843 3.069-8.339 3.673l.403-31.852c0-.79-.589-1.38-1.395-1.38h-1.178c-.806 0-1.395.59-1.395 1.38l.496 59.628c0 .791.589 1.38 1.395 1.38.186 0 .589-.093.79-.186.388-.202 6.836-3.379 12.199-9.424 3.767-4.278 5.255-9.13 5.255-13.206 0-.884-.093-1.674-.202-2.48m-6.835 3.875c0 1.488-.403 6.045-2.883 9.827-1.69 2.573-5.053 5.254-6.944 6.742l.294-19.344c.202-.899 1.69-3.766 5.658-3.766 3.58 0 3.875 3.363 3.875 5.456v1.085m495.613-88.583c-.186-.201-.496-.294-.79-.294-.094 0-.295.093-.388.093l-12.508 3.472v-17.36h-2.775v49.104c0 .79.589 1.287 1.395 1.287h.388l12.508-3.472v17.36h2.666V605.45c0-.388-.186-.884-.496-1.085m-2.17 24.598-11.517 3.178v-16.275l11.517-3.271v16.368m-987.12-187.658c-.186-.201-.496-.294-.79-.294-.094 0-.295.093-.388.093l-12.508 3.472v-17.36h-2.775v49.104c0 .79.589 1.287 1.395 1.287h.388l12.508-3.472v17.36h2.666V442.39c0-.388-.186-.884-.496-1.085m-2.17 24.598-11.517 3.178v-16.275l11.517-3.271v16.368m502.682 10.51c-.589-3.86-2.976-7.533-8.029-7.533-4.96 0-7.843 3.069-8.339 3.673l.403-31.852c0-.79-.589-1.38-1.395-1.38h-1.178c-.806 0-1.395.59-1.395 1.38l.496 59.628c0 .791.589 1.38 1.395 1.38.186 0 .589-.093.79-.186.388-.202 6.836-3.379 12.199-9.424 3.767-4.278 5.255-9.13 5.255-13.206 0-.883-.093-1.674-.202-2.48m-6.835 3.875c0 1.488-.403 6.045-2.883 9.827-1.69 2.573-5.053 5.254-6.944 6.742l.294-19.344c.202-.899 1.69-3.766 5.658-3.766 3.58 0 3.875 3.363 3.875 5.456v1.085m495.613-88.583c-.186-.201-.496-.294-.79-.294-.094 0-.295.093-.388.093l-12.508 3.472v-17.36h-2.775v49.104c0 .79.589 1.287 1.395 1.287h.388l12.508-3.472v17.36h2.666V392.79c0-.388-.186-.884-.496-1.085m-2.17 24.598-11.517 3.178v-16.275l11.517-3.27v16.367M1975.771 228c-.589-3.86-2.976-7.533-8.029-7.533-4.96 0-7.843 3.069-8.339 3.673l.403-31.852c0-.79-.589-1.38-1.395-1.38h-1.178c-.806 0-1.395.59-1.395 1.38l.496 59.628c0 .791.589 1.38 1.395 1.38.186 0 .589-.093.79-.186.388-.202 6.836-3.379 12.199-9.424 3.767-4.278 5.255-9.13 5.255-13.206 0-.883-.093-1.674-.202-2.48m-6.835 3.875c0 1.488-.403 6.045-2.883 9.827-1.69 2.573-5.053 5.254-6.944 6.742l.294-19.343c.202-.9 1.69-3.767 5.658-3.767 3.58 0 3.875 3.364 3.875 5.456v1.085m429.803-14.183c-.186-.201-.496-.294-.79-.294-.094 0-.295.093-.388.093l-12.508 3.472v-17.36h-2.775v49.104c0 .79.589 1.287 1.395 1.287h.388l12.508-3.472v17.36h2.666v-49.104c0-.388-.186-.884-.496-1.085m-2.17 24.598-11.517 3.178v-16.275l11.517-3.271v16.368" style="stroke-width:.992"/>
  <path class="Stem" stroke="#000" stroke-width="2.73" stroke-linejoin="bevel" d="M732.238 631.745v-71.23m54.311 108.43v-83.63m147.919 83.63v-83.63m141.21 96.03v-83.63m67.2 83.63v-89.83m54.31 77.43v-83.63m162.93 83.63v-77.43m86.9 89.83v-89.83m65.81 77.43v-77.43m106.13 65.03v-71.23m58.06 96.03v-71.23m150.93 71.23v-83.63m185.09 96.03v-83.63m67.2 83.63v-83.63m58.05 46.43v-71.23m144.66 15.74v83.46m123.85-71.06v83.21m65.81-70.81v77.26M702.734 400.789v133.066m54.311-71.066v71.066m86.893-133.066v133.066m90.53-77.573V341.656m86.9 77.426v-77.426m54.31 127.026V341.656m37.7 59.133v133.066m54.31-71.066v71.066m108.62-133.066v133.066m83.81-77.573V341.656m86.9 77.426v-77.426m65.81 114.626V341.656m106.13 151.826V391.256m58.06 77.426v-77.426m92.88 102.226V391.256m58.05 77.426V341.656m116.11 77.426v-77.426m68.98 139.426V341.656m67.2 151.826V366.456m58.05 77.426v-77.426m116.11 102.226V366.456m28.55 21.933v71.067m123.85-58.667v74.863m65.81-62.463v71.067M732.238 232.669V99.443m54.311 71.226V99.443m86.899 108.426V99.443m31.52 114.934v83.466m86.9-133.066V309.29m54.31-70.113v77.266m96.7-83.774v-83.626m54.31 71.226v-83.626m54.31 58.826v-71.226m108.62 108.426v-77.426m86.9 52.626v-65.026m171.94 89.826v-83.626m58.06 71.226V141.89m92.88 65.979v-77.426m58.05 89.826V99.443m58.06 71.226V99.443m127.03 133.226V99.443m67.2 133.226v-83.626m116.1 71.226v-83.626m58.06 71.226v-77.426m58.05 77.426v-83.626m58.05 96.026v-94.128m65.81 106.528V128.292m65.8 91.977v-89.826"/>
  <path class="Note" d="M732.618 626.886c-1.783-3.286-5.549-5.068-10.121-5.068-3.364 0-7.038.992-10.618 2.882-6.541 3.472-10.509 9.316-10.509 14.385 0 1.379.294 2.774.992 4.06 1.782 3.271 5.549 4.96 10.121 4.96 3.364 0 7.038-.883 10.618-2.774 6.541-3.472 10.509-9.331 10.509-14.384 0-1.395-.295-2.775-.992-4.061m54.311 37.2c-1.783-3.286-5.549-5.068-10.121-5.068-3.364 0-7.038.992-10.618 2.882-6.541 3.473-10.509 9.316-10.509 14.385 0 1.379.294 2.774.992 4.06 1.782 3.271 5.549 4.96 10.121 4.96 3.364 0 7.038-.883 10.618-2.774 6.541-3.472 10.509-9.331 10.509-14.384 0-1.395-.295-2.775-.992-4.061m147.927 0c-1.783-3.286-5.549-5.068-10.121-5.068-3.364 0-7.038.992-10.618 2.882-6.541 3.473-10.509 9.316-10.509 14.385 0 1.379.294 2.774.992 4.06 1.782 3.271 5.549 4.96 10.121 4.96 3.364 0 7.038-.883 10.618-2.774 6.541-3.472 10.509-9.331 10.509-14.384 0-1.395-.295-2.775-.992-4.061m141.2 12.4c-1.782-3.286-5.549-5.068-10.121-5.068-3.364 0-7.037.992-10.618 2.882-6.541 3.473-10.509 9.316-10.509 14.385 0 1.379.294 2.774.992 4.06 1.782 3.271 5.549 4.96 10.121 4.96 3.364 0 7.037-.883 10.618-2.774 6.541-3.472 10.509-9.331 10.509-14.384 0-1.395-.294-2.775-.992-4.061m67.2 0c-1.782-3.286-5.549-5.068-10.121-5.068-3.364 0-7.037.992-10.618 2.882-6.541 3.473-10.509 9.316-10.509 14.385 0 1.379.294 2.774.992 4.06 1.782 3.271 5.549 4.96 10.121 4.96 3.364 0 7.037-.883 10.618-2.774 6.541-3.472 10.509-9.331 10.509-14.384 0-1.395-.294-2.775-.992-4.061m54.31-12.4c-1.782-3.286-5.549-5.068-10.121-5.068-3.364 0-7.037.992-10.618 2.882-6.541 3.473-10.509 9.316-10.509 14.385 0 1.379.294 2.774.992 4.06 1.782 3.271 5.549 4.96 10.121 4.96 3.364 0 7.037-.883 10.618-2.774 6.541-3.472 10.509-9.331 10.509-14.384 0-1.395-.294-2.775-.992-4.061m162.94 0c-1.782-3.286-5.549-5.068-10.121-5.068-3.364 0-7.037.992-10.618 2.882-6.541 3.473-10.509 9.316-10.509 14.385 0 1.379.294 2.774.992 4.06 1.782 3.271 5.549 4.96 10.121 4.96 3.364 0 7.037-.883 10.618-2.774 6.541-3.472 10.509-9.331 10.509-14.384 0-1.395-.294-2.775-.992-4.061m86.89 12.4c-1.782-3.286-5.549-5.068-10.121-5.068-3.364 0-7.038.992-10.618 2.882-6.541 3.473-10.509 9.316-10.509 14.385 0 1.379.294 2.774.992 4.06 1.782 3.271 5.549 4.96 10.121 4.96 3.364 0 7.037-.883 10.618-2.774 6.541-3.472 10.509-9.331 10.509-14.384 0-1.395-.294-2.775-.992-4.061m65.81-12.4c-1.782-3.286-5.549-5.068-10.121-5.068-3.364 0-7.038.992-10.618 2.882-6.541 3.473-10.509 9.316-10.509 14.385 0 1.379.294 2.774.992 4.06 1.782 3.271 5.549 4.96 10.121 4.96 3.364 0 7.037-.883 10.618-2.774 6.541-3.472 10.509-9.331 10.509-14.384 0-1.395-.295-2.775-.992-4.061m106.13-12.4c-1.782-3.286-5.549-5.068-10.121-5.068-3.364 0-7.037.992-10.618 2.882-6.541 3.473-10.509 9.316-10.509 14.385 0 1.379.294 2.774.992 4.06 1.782 3.271 5.549 4.96 10.121 4.96 3.364 0 7.037-.883 10.618-2.774 6.541-3.472 10.509-9.331 10.509-14.384 0-1.395-.294-2.775-.992-4.061m58.06 24.8c-1.782-3.286-5.549-5.068-10.121-5.068-3.364 0-7.038.992-10.618 2.882-6.541 3.473-10.509 9.316-10.509 14.385 0 1.379.294 2.774.992 4.06 1.782 3.271 5.549 4.96 10.121 4.96 3.364 0 7.037-.883 10.618-2.774 6.541-3.472 10.509-9.331 10.509-14.384 0-1.395-.294-2.775-.992-4.061m150.93 0c-1.782-3.286-5.549-5.068-10.121-5.068-3.364 0-7.037.992-10.618 2.882-6.541 3.473-10.509 9.316-10.509 14.385 0 1.379.294 2.774.992 4.06 1.782 3.271 5.549 4.96 10.121 4.96 3.364 0 7.037-.883 10.618-2.774 6.541-3.472 10.509-9.331 10.509-14.384 0-1.395-.294-2.775-.992-4.061m185.09 12.4c-1.782-3.286-5.549-5.068-10.121-5.068-3.364 0-7.038.992-10.618 2.882-6.541 3.472-10.509 9.316-10.509 14.384 0 1.38.294 2.775.992 4.061 1.782 3.271 5.549 4.96 10.121 4.96 3.364 0 7.037-.883 10.618-2.774 6.541-3.472 10.509-9.331 10.509-14.384 0-1.395-.294-2.775-.992-4.061m67.2 0c-1.782-3.286-5.549-5.068-10.121-5.068-3.364 0-7.038.992-10.618 2.882-6.541 3.472-10.509 9.316-10.509 14.384 0 1.38.294 2.775.992 4.061 1.782 3.271 5.549 4.96 10.121 4.96 3.364 0 7.038-.883 10.618-2.774 6.541-3.472 10.509-9.331 10.509-14.384 0-1.395-.294-2.775-.992-4.061m58.05-37.2c-1.782-3.286-5.549-5.068-10.121-5.068-3.364 0-7.038.992-10.618 2.882-6.541 3.473-10.509 9.316-10.509 14.385 0 1.379.294 2.774.992 4.06 1.783 3.271 5.549 4.96 10.122 4.96 3.363 0 7.037-.883 10.617-2.774 6.541-3.472 10.509-9.331 10.509-14.384 0-1.395-.294-2.775-.992-4.061m174.16-62c-1.782-3.286-5.549-5.068-10.121-5.068-3.364 0-7.038.992-10.618 2.882-6.541 3.473-10.509 9.316-10.509 14.385 0 1.379.294 2.774.992 4.06 1.782 3.271 5.549 4.96 10.121 4.96 3.364 0 7.038-.883 10.618-2.774 6.541-3.472 10.509-9.331 10.509-14.384 0-1.395-.294-2.775-.992-4.061m123.86 12.4c-1.782-3.286-5.549-5.068-10.121-5.068-3.364 0-7.038.992-10.618 2.882-6.541 3.473-10.509 9.316-10.509 14.385 0 1.379.294 2.774.992 4.06 1.783 3.271 5.549 4.96 10.122 4.96 3.363 0 7.037-.883 10.617-2.774 6.541-3.472 10.509-9.331 10.509-14.384 0-1.395-.294-2.775-.992-4.061m65.81 12.4c-1.782-3.286-5.549-5.068-10.121-5.068-3.364 0-7.038.992-10.618 2.882-6.541 3.473-10.509 9.316-10.509 14.385 0 1.379.294 2.774.992 4.06 1.783 3.271 5.549 4.96 10.122 4.96 3.363 0 7.037-.883 10.617-2.774 6.541-3.472 10.509-9.331 10.509-14.384 0-1.395-.294-2.775-.992-4.061M732.618 389.427c-1.783-3.286-5.549-5.068-10.121-5.068-3.364 0-7.038.992-10.618 2.882-6.541 3.473-10.509 9.316-10.509 14.385 0 1.379.294 2.774.992 4.06 1.782 3.271 5.549 4.96 10.121 4.96 3.364 0 7.038-.883 10.618-2.774 6.541-3.472 10.509-9.331 10.509-14.384 0-1.395-.295-2.775-.992-4.061m54.311 62c-1.783-3.286-5.549-5.068-10.121-5.068-3.364 0-7.038.992-10.618 2.882-6.541 3.473-10.509 9.316-10.509 14.385 0 1.379.294 2.774.992 4.06 1.782 3.271 5.549 4.96 10.121 4.96 3.364 0 7.038-.883 10.618-2.774 6.541-3.472 10.509-9.331 10.509-14.384 0-1.395-.295-2.775-.992-4.061m86.897-62c-1.783-3.286-5.549-5.068-10.121-5.068-3.364 0-7.038.992-10.618 2.882-6.541 3.473-10.509 9.316-10.509 14.385 0 1.379.294 2.774.992 4.06 1.782 3.271 5.549 4.96 10.121 4.96 3.364 0 7.038-.883 10.618-2.774 6.541-3.472 10.509-9.331 10.509-14.384 0-1.395-.295-2.775-.992-4.061m61.03 62c-1.783-3.286-5.549-5.068-10.121-5.068-3.364 0-7.038.992-10.618 2.882-6.541 3.473-10.509 9.316-10.509 14.385 0 1.379.294 2.774.992 4.06 1.782 3.271 5.549 4.96 10.121 4.96 3.364 0 7.038-.883 10.618-2.774 6.541-3.472 10.509-9.331 10.509-14.384 0-1.395-.295-2.775-.992-4.061m86.89-37.2c-1.782-3.286-5.549-5.068-10.121-5.068-3.364 0-7.037.992-10.618 2.882-6.541 3.472-10.509 9.316-10.509 14.384 0 1.38.294 2.775.992 4.061 1.782 3.271 5.549 4.96 10.121 4.96 3.364 0 7.037-.883 10.618-2.774 6.541-3.472 10.509-9.331 10.509-14.384 0-1.395-.295-2.775-.992-4.061m54.31 49.6c-1.782-3.286-5.549-5.068-10.121-5.068-3.364 0-7.037.992-10.618 2.882-6.541 3.472-10.509 9.316-10.509 14.384 0 1.38.294 2.775.992 4.062 1.782 3.27 5.549 4.96 10.121 4.96 3.364 0 7.037-.884 10.618-2.775 6.541-3.472 10.509-9.331 10.509-14.384 0-1.395-.294-2.775-.992-4.061m67.2-74.4c-1.782-3.286-5.549-5.068-10.121-5.068-3.364 0-7.037.992-10.618 2.882-6.541 3.473-10.509 9.316-10.509 14.385 0 1.379.294 2.774.992 4.06 1.782 3.271 5.549 4.96 10.121 4.96 3.364 0 7.037-.883 10.618-2.774 6.541-3.472 10.509-9.331 10.509-14.384 0-1.395-.294-2.775-.992-4.061m54.31 62c-1.782-3.286-5.549-5.068-10.121-5.068-3.364 0-7.037.992-10.618 2.882-6.541 3.473-10.509 9.316-10.509 14.385 0 1.379.294 2.774.992 4.06 1.782 3.271 5.549 4.96 10.121 4.96 3.364 0 7.037-.883 10.618-2.774 6.541-3.472 10.509-9.331 10.509-14.384 0-1.395-.294-2.775-.992-4.061m108.62-62c-1.782-3.286-5.549-5.068-10.121-5.068-3.364 0-7.038.992-10.618 2.882-6.541 3.473-10.509 9.316-10.509 14.385 0 1.379.294 2.774.992 4.06 1.782 3.271 5.549 4.96 10.121 4.96 3.364 0 7.037-.883 10.618-2.774 6.541-3.472 10.509-9.331 10.509-14.384 0-1.395-.295-2.775-.992-4.061m54.32 62c-1.782-3.286-5.549-5.068-10.121-5.068-3.364 0-7.037.992-10.618 2.882-6.541 3.473-10.509 9.316-10.509 14.385 0 1.379.294 2.774.992 4.06 1.782 3.271 5.549 4.96 10.121 4.96 3.364 0 7.037-.883 10.618-2.774 6.541-3.472 10.509-9.331 10.509-14.384 0-1.395-.294-2.775-.992-4.061m86.89-37.2c-1.782-3.286-5.549-5.068-10.121-5.068-3.364 0-7.038.992-10.618 2.882-6.541 3.472-10.509 9.316-10.509 14.384 0 1.38.294 2.775.992 4.061 1.782 3.271 5.549 4.96 10.121 4.96 3.364 0 7.037-.883 10.618-2.774 6.541-3.472 10.509-9.331 10.509-14.384 0-1.395-.294-2.775-.992-4.061m65.81 37.2c-1.782-3.286-5.549-5.068-10.121-5.068-3.364 0-7.038.992-10.618 2.882-6.541 3.473-10.509 9.316-10.509 14.385 0 1.379.294 2.774.992 4.06 1.782 3.271 5.549 4.96 10.121 4.96 3.364 0 7.037-.883 10.618-2.774 6.541-3.472 10.509-9.331 10.509-14.384 0-1.395-.295-2.775-.992-4.061m106.13 37.2c-1.782-3.286-5.549-5.068-10.121-5.068-3.364 0-7.037.992-10.618 2.882-6.541 3.473-10.509 9.316-10.509 14.385 0 1.379.294 2.774.992 4.06 1.782 3.271 5.549 4.96 10.121 4.96 3.364 0 7.037-.883 10.618-2.774 6.541-3.472 10.509-9.331 10.509-14.384 0-1.395-.294-2.775-.992-4.061m58.06-24.8c-1.782-3.286-5.549-5.068-10.121-5.068-3.364 0-7.038.992-10.618 2.882-6.541 3.472-10.509 9.316-10.509 14.384 0 1.38.294 2.775.992 4.062 1.782 3.27 5.549 4.96 10.121 4.96 3.364 0 7.037-.884 10.618-2.775 6.541-3.472 10.509-9.331 10.509-14.384 0-1.395-.294-2.775-.992-4.061m92.88 24.8c-1.782-3.286-5.549-5.068-10.121-5.068-3.364 0-7.037.992-10.618 2.882-6.541 3.473-10.509 9.316-10.509 14.385 0 1.379.294 2.774.992 4.06 1.782 3.271 5.549 4.96 10.121 4.96 3.364 0 7.037-.883 10.618-2.774 6.541-3.472 10.509-9.331 10.509-14.384 0-1.395-.294-2.775-.992-4.061m58.05-24.8c-1.782-3.286-5.549-5.068-10.121-5.068-3.364 0-7.037.992-10.618 2.882-6.541 3.472-10.509 9.316-10.509 14.384 0 1.38.294 2.775.992 4.062 1.782 3.27 5.549 4.96 10.121 4.96 3.364 0 7.037-.884 10.618-2.775 6.541-3.472 10.509-9.331 10.509-14.384 0-1.395-.294-2.775-.992-4.061m116.11-49.6c-1.782-3.286-5.549-5.068-10.121-5.068-3.364 0-7.038.992-10.618 2.882-6.541 3.472-10.509 9.316-10.509 14.384 0 1.38.294 2.775.992 4.061 1.782 3.271 5.549 4.96 10.121 4.96 3.364 0 7.037-.883 10.618-2.774 6.541-3.472 10.509-9.331 10.509-14.384 0-1.395-.295-2.775-.992-4.061m68.98 62c-1.782-3.286-5.549-5.068-10.121-5.068-3.364 0-7.038.992-10.618 2.882-6.541 3.472-10.509 9.316-10.509 14.384 0 1.38.294 2.775.992 4.061 1.782 3.271 5.549 4.96 10.121 4.96 3.364 0 7.037-.883 10.618-2.774 6.541-3.472 10.509-9.331 10.509-14.384 0-1.395-.294-2.775-.992-4.061m67.2 12.4c-1.782-3.286-5.549-5.068-10.121-5.068-3.364 0-7.038.992-10.618 2.882-6.541 3.473-10.509 9.316-10.509 14.385 0 1.379.294 2.774.992 4.06 1.782 3.271 5.549 4.96 10.121 4.96 3.364 0 7.038-.883 10.618-2.774 6.541-3.472 10.509-9.331 10.509-14.384 0-1.395-.294-2.775-.992-4.061m58.05-49.6c-1.782-3.286-5.549-5.068-10.121-5.068-3.364 0-7.038.992-10.618 2.882-6.541 3.472-10.509 9.316-10.509 14.384 0 1.38.294 2.775.992 4.061 1.783 3.271 5.549 4.96 10.122 4.96 3.363 0 7.037-.883 10.617-2.774 6.541-3.472 10.509-9.331 10.509-14.384 0-1.395-.294-2.775-.992-4.061m116.11 24.8c-1.782-3.286-5.549-5.068-10.121-5.068-3.364 0-7.038.992-10.618 2.882-6.541 3.472-10.509 9.316-10.509 14.384 0 1.38.294 2.775.992 4.062 1.782 3.27 5.549 4.96 10.121 4.96 3.364 0 7.038-.884 10.618-2.775 6.541-3.472 10.509-9.331 10.509-14.384 0-1.395-.294-2.775-.992-4.061m58.05-86.8c-1.782-3.286-5.549-5.068-10.121-5.068-3.364 0-7.038.992-10.618 2.882-6.541 3.472-10.509 9.316-10.509 14.384 0 1.38.294 2.775.992 4.061 1.782 3.271 5.549 4.96 10.121 4.96 3.364 0 7.038-.883 10.618-2.774 6.541-3.472 10.509-9.331 10.509-14.384 0-1.395-.294-2.775-.992-4.061m123.86 12.4c-1.782-3.286-5.549-5.068-10.121-5.068-3.364 0-7.038.992-10.618 2.882-6.541 3.473-10.509 9.316-10.509 14.385 0 1.379.294 2.774.992 4.06 1.783 3.271 5.549 4.96 10.122 4.96 3.363 0 7.037-.883 10.617-2.774 6.541-3.472 10.509-9.331 10.509-14.384 0-1.395-.294-2.775-.992-4.061m65.81 12.4c-1.782-3.286-5.549-5.068-10.121-5.068-3.364 0-7.038.992-10.618 2.882-6.541 3.472-10.509 9.316-10.509 14.384 0 1.38.294 2.775.992 4.062 1.783 3.27 5.549 4.96 10.122 4.96 3.363 0 7.037-.884 10.617-2.775 6.541-3.472 10.509-9.331 10.509-14.384 0-1.395-.294-2.775-.992-4.061M732.618 227.814c-1.783-3.286-5.549-5.068-10.121-5.068-3.364 0-7.038.992-10.618 2.882-6.541 3.473-10.509 9.316-10.509 14.385 0 1.379.294 2.774.992 4.06 1.782 3.271 5.549 4.96 10.121 4.96 3.364 0 7.038-.883 10.618-2.774 6.541-3.472 10.509-9.331 10.509-14.384 0-1.395-.295-2.775-.992-4.061m54.311-62c-1.783-3.286-5.549-5.068-10.121-5.068-3.364 0-7.038.992-10.618 2.882-6.541 3.473-10.509 9.316-10.509 14.385 0 1.379.294 2.774.992 4.06 1.782 3.271 5.549 4.96 10.121 4.96 3.364 0 7.038-.883 10.618-2.774 6.541-3.472 10.509-9.331 10.509-14.384 0-1.395-.295-2.775-.992-4.061m86.897 37.2c-1.783-3.286-5.549-5.068-10.121-5.068-3.364 0-7.038.992-10.618 2.882-6.541 3.473-10.509 9.316-10.509 14.385 0 1.379.294 2.774.992 4.06 1.782 3.271 5.549 4.96 10.121 4.96 3.364 0 7.038-.883 10.618-2.774 6.541-3.472 10.509-9.331 10.509-14.384 0-1.395-.295-2.775-.992-4.061m61.03 0c-1.783-3.286-5.549-5.068-10.121-5.068-3.364 0-7.038.992-10.618 2.882-6.541 3.473-10.509 9.316-10.509 14.385 0 1.379.294 2.774.992 4.06 1.782 3.271 5.549 4.96 10.121 4.96 3.364 0 7.038-.883 10.618-2.774 6.541-3.472 10.509-9.331 10.509-14.384 0-1.395-.295-2.775-.992-4.061m86.89-49.6c-1.782-3.286-5.549-5.068-10.121-5.068-3.364 0-7.037.992-10.618 2.882-6.541 3.472-10.509 9.316-10.509 14.384 0 1.38.294 2.775.992 4.061 1.782 3.271 5.549 4.96 10.121 4.96 3.364 0 7.037-.883 10.618-2.774 6.541-3.472 10.509-9.331 10.509-14.384 0-1.395-.295-2.775-.992-4.061m54.31 74.4c-1.782-3.286-5.549-5.068-10.121-5.068-3.364 0-7.037.992-10.618 2.882-6.541 3.473-10.509 9.316-10.509 14.385 0 1.379.294 2.774.992 4.06 1.782 3.271 5.549 4.96 10.121 4.96 3.364 0 7.037-.883 10.618-2.774 6.541-3.472 10.509-9.331 10.509-14.384 0-1.395-.294-2.775-.992-4.061m67.2 0c-1.782-3.286-5.549-5.068-10.121-5.068-3.364 0-7.037.992-10.618 2.882-6.541 3.473-10.509 9.316-10.509 14.385 0 1.379.294 2.774.992 4.06 1.782 3.271 5.549 4.96 10.121 4.96 3.364 0 7.037-.883 10.618-2.774 6.541-3.472 10.509-9.331 10.509-14.384 0-1.395-.294-2.775-.992-4.061m54.31-12.4c-1.782-3.286-5.549-5.068-10.121-5.068-3.364 0-7.037.992-10.618 2.882-6.541 3.472-10.509 9.316-10.509 14.384 0 1.38.294 2.775.992 4.061 1.782 3.271 5.549 4.96 10.121 4.96 3.364 0 7.037-.883 10.618-2.774 6.541-3.472 10.509-9.331 10.509-14.384 0-1.395-.294-2.775-.992-4.061m54.31-24.8c-1.782-3.286-5.549-5.068-10.121-5.068-3.364 0-7.038.992-10.618 2.882-6.541 3.473-10.509 9.316-10.509 14.385 0 1.379.294 2.774.992 4.06 1.782 3.271 5.549 4.96 10.121 4.96 3.364 0 7.037-.883 10.618-2.774 6.541-3.472 10.509-9.331 10.509-14.384 0-1.395-.294-2.775-.992-4.061m108.63 37.2c-1.782-3.286-5.549-5.068-10.121-5.068-3.364 0-7.037.992-10.618 2.882-6.541 3.473-10.509 9.316-10.509 14.385 0 1.379.294 2.774.992 4.06 1.782 3.271 5.549 4.96 10.121 4.96 3.364 0 7.037-.883 10.618-2.774 6.541-3.472 10.509-9.331 10.509-14.384 0-1.395-.294-2.775-.992-4.061m86.89-24.8c-1.782-3.286-5.549-5.068-10.121-5.068-3.364 0-7.038.992-10.618 2.882-6.541 3.473-10.509 9.316-10.509 14.385 0 1.379.294 2.774.992 4.06 1.782 3.271 5.549 4.96 10.121 4.96 3.364 0 7.037-.883 10.618-2.774 6.541-3.472 10.509-9.331 10.509-14.384 0-1.395-.294-2.775-.992-4.061m171.94 24.8c-1.782-3.286-5.549-5.068-10.121-5.068-3.364 0-7.037.992-10.618 2.882-6.541 3.473-10.509 9.316-10.509 14.385 0 1.379.294 2.774.992 4.06 1.782 3.271 5.549 4.96 10.121 4.96 3.364 0 7.037-.883 10.618-2.774 6.541-3.472 10.509-9.331 10.509-14.384 0-1.395-.294-2.775-.992-4.061m58.06-12.4c-1.782-3.286-5.549-5.068-10.121-5.068-3.364 0-7.038.992-10.618 2.882-6.541 3.472-10.509 9.316-10.509 14.384 0 1.38.294 2.775.992 4.061 1.782 3.271 5.549 4.96 10.121 4.96 3.364 0 7.037-.883 10.618-2.774 6.541-3.472 10.509-9.331 10.509-14.384 0-1.395-.294-2.775-.992-4.061m92.88-12.4c-1.782-3.286-5.549-5.068-10.121-5.068-3.364 0-7.037.992-10.618 2.882-6.541 3.473-10.509 9.316-10.509 14.385 0 1.379.294 2.774.992 4.06 1.782 3.271 5.549 4.96 10.121 4.96 3.364 0 7.037-.883 10.618-2.774 6.541-3.472 10.509-9.331 10.509-14.384 0-1.395-.294-2.775-.992-4.061m58.05 12.4c-1.782-3.286-5.549-5.068-10.121-5.068-3.364 0-7.037.992-10.618 2.882-6.541 3.472-10.509 9.316-10.509 14.384 0 1.38.294 2.775.992 4.061 1.782 3.271 5.549 4.96 10.121 4.96 3.364 0 7.037-.883 10.618-2.774 6.541-3.472 10.509-9.331 10.509-14.384 0-1.395-.294-2.775-.992-4.061m58.06-49.6c-1.782-3.286-5.549-5.068-10.121-5.068-3.364 0-7.038.992-10.618 2.882-6.541 3.473-10.509 9.316-10.509 14.385 0 1.379.294 2.774.992 4.06 1.782 3.271 5.549 4.96 10.121 4.96 3.364 0 7.037-.883 10.618-2.774 6.541-3.472 10.509-9.331 10.509-14.384 0-1.395-.294-2.775-.992-4.061m127.03 62c-1.782-3.286-5.549-5.068-10.121-5.068-3.364 0-7.038.992-10.618 2.882-6.541 3.473-10.509 9.316-10.509 14.385 0 1.379.294 2.774.992 4.06 1.782 3.271 5.549 4.96 10.121 4.96 3.364 0 7.037-.883 10.618-2.774 6.541-3.472 10.509-9.331 10.509-14.384 0-1.395-.294-2.775-.992-4.061m67.2 0c-1.782-3.286-5.549-5.068-10.121-5.068-3.364 0-7.038.992-10.618 2.882-6.541 3.473-10.509 9.316-10.509 14.385 0 1.379.294 2.774.992 4.06 1.782 3.271 5.549 4.96 10.121 4.96 3.364 0 7.038-.883 10.618-2.774 6.541-3.472 10.509-9.331 10.509-14.384 0-1.395-.294-2.775-.992-4.061m116.11-12.4c-1.782-3.286-5.549-5.068-10.121-5.068-3.364 0-7.038.992-10.618 2.882-6.541 3.472-10.509 9.316-10.509 14.384 0 1.38.294 2.775.992 4.061 1.783 3.271 5.549 4.96 10.122 4.96 3.363 0 7.037-.883 10.617-2.774 6.541-3.472 10.509-9.331 10.509-14.384 0-1.395-.294-2.775-.992-4.061m58.05-12.4c-1.782-3.286-5.549-5.068-10.121-5.068-3.364 0-7.038.992-10.618 2.882-6.541 3.473-10.509 9.316-10.509 14.385 0 1.379.294 2.774.992 4.06 1.782 3.271 5.549 4.96 10.121 4.96 3.364 0 7.038-.883 10.618-2.774 6.541-3.472 10.509-9.331 10.509-14.384 0-1.395-.294-2.775-.992-4.061m58.05 0c-1.782-3.286-5.549-5.068-10.121-5.068-3.364 0-7.038.992-10.618 2.882-6.541 3.473-10.509 9.316-10.509 14.385 0 1.379.294 2.774.992 4.06 1.782 3.271 5.549 4.96 10.121 4.96 3.364 0 7.038-.883 10.618-2.774 6.541-3.472 10.509-9.331 10.509-14.384 0-1.395-.294-2.775-.992-4.061m58.05 12.4c-1.782-3.286-5.549-5.068-10.121-5.068-3.364 0-7.038.992-10.618 2.882-6.541 3.472-10.509 9.316-10.509 14.384 0 1.38.294 2.775.992 4.061 1.783 3.271 5.549 4.96 10.122 4.96 3.363 0 7.037-.883 10.617-2.774 6.541-3.472 10.509-9.331 10.509-14.384 0-1.395-.294-2.775-.992-4.061m65.81 12.4c-1.782-3.286-5.549-5.068-10.121-5.068-3.364 0-7.038.992-10.618 2.882-6.541 3.473-10.509 9.316-10.509 14.385 0 1.379.294 2.774.992 4.06 1.783 3.271 5.549 4.96 10.122 4.96 3.363 0 7.037-.883 10.617-2.774 6.541-3.472 10.509-9.331 10.509-14.384 0-1.395-.294-2.775-.992-4.061m65.81-12.4c-1.782-3.286-5.549-5.068-10.121-5.068-3.364 0-7.038.992-10.618 2.882-6.541 3.472-10.509 9.316-10.509 14.384 0 1.38.294 2.775.992 4.061 1.783 3.271 5.549 4.96 10.122 4.96 3.363 0 7.037-.883 10.617-2.774 6.541-3.472 10.509-9.331 10.509-14.384 0-1.395-.294-2.775-.992-4.061" style="stroke-width:.992"/>
  <path class="Clef" d="M399.693 585.222c-7.548 0-13.594 4.356-13.702 4.356-5.75 4.262-8.029 9.33-8.928 12.803-.496 1.782-.682 3.565-.682 5.254 0 2.387.388 4.557 1.287 6.448 1.193 2.682 3.472 4.557 6.448 5.549 1.193.403 2.48.604 3.766.604 2.185 0 4.464-.604 6.355-1.689 3.069-1.69 4.96-5.255 4.96-9.13 0-3.472-1.798-6.649-4.774-8.525-2.077-1.394-4.061-1.782-5.75-1.782-1.194 0-2.279.186-3.178.496-.992.388-2.666 1.38-3.472 2.077.31-1.891 1.488-4.759 2.588-6.355 1.086-1.581 3.271-3.565 4.96-4.464 2.48-1.38 5.658-1.984 9.13-1.984 10.122 0 15.082 8.138 15.082 24.8 0 9.238-3.472 18.058-6.448 23.916-3.286 6.542-7.642 12.804-11.517 16.276-10.323 9.424-20.042 13.888-20.135 13.888 0 0-1.488.883-1.1 2.371.31.992 1.193 1.193 1.798 1.193.093 0 .387-.093.496-.093.093 0 11.408-4.665 20.429-11.718 5.069-3.658 9.625-7.626 13.593-11.904a73.558 73.558 0 0 0 9.13-12.198c4.356-7.44 6.836-15.175 6.836-21.824 0-8.23-2.17-15.082-6.247-19.933-4.665-5.565-11.703-8.432-20.925-8.432m31.14 12.586c0 2.79 2.185 4.96 4.774 4.96 2.572 0 4.758-2.17 4.758-4.96 0-2.775-2.186-5.053-4.758-5.053-2.589 0-4.774 2.278-4.774 5.053m0 24.505c0 2.775 2.185 5.069 4.774 5.069 2.572 0 4.758-2.294 4.758-5.069 0-2.774-2.186-5.053-4.758-5.053-2.589 0-4.774 2.279-4.774 5.053m-47.911-234.188h-7.146c-.697 0-1.286.604-1.286 1.286V479.7c0 .698.589 1.286 1.286 1.286h7.146c.698 0 1.286-.588 1.286-1.286v-90.288c0-.682-.589-1.286-1.286-1.286m35.712 50.499h-1.488c-2.279 0-3.968.202-7.827 2.573 0 0-2.186-4.356-5.456-6.634 3.27-2.294 5.456-6.65 5.456-6.65 3.859 2.372 5.548 2.573 7.827 2.573h1.488c12.105 0 18.057-11.206 18.057-21.917 0-13.888-10.214-21.73-22.226-21.73-10.912 0-15.47 5.456-15.47 5.456-1.782 2.185-2.588 4.556-2.588 6.742 0 1.782.496 3.472 1.488 4.96 1.395 1.984 4.17 3.084 6.758 3.084 1.782 0 3.472-.496 4.666-1.488 1.674-1.488 2.774-3.673 2.774-6.06 0-1.38-.403-2.774-1.1-4.061-1.582-2.883-4.558-3.27-6.138-3.27-.605 0-1.101.092-1.101.092 2.279-1.58 5.363-2.48 8.432-2.48 2.775 0 5.456.698 7.347 2.077 3.472 2.589 4.758 8.045 4.758 15.19 0 7.642-.201 18.74-8.928 18.74-8.726 0-10.71-10.416-10.71-10.416s0-1.38-1.395-1.38c-1.38 0-1.488 1.38-1.488 1.38s-.79 5.068-3.472 11.222c-1.58 3.658-3.968 5.347-5.657 6.045v-43.26c0-.683-.496-1.287-1.194-1.287-.682 0-1.286.604-1.286 1.286V479.7c0 .697.604 1.286 1.286 1.286.698 0 1.194-.589 1.194-1.286v-43.26c1.689.697 4.076 2.386 5.657 6.06 2.681 6.138 3.472 11.3 3.472 11.3s.109 1.286 1.488 1.286c1.395 0 1.395-1.286 1.395-1.286s1.984-10.51 10.71-10.51c8.727 0 8.928 11.114 8.928 18.756 0 7.13-1.286 12.586-4.758 15.174-1.891 1.38-4.572 2.077-7.347 2.077-3.069 0-6.153-.883-8.432-2.48 0 0 .496.109 1.1.109 1.581 0 4.557-.404 6.139-3.286.697-1.287 1.1-2.666 1.1-4.062 0-2.386-1.1-4.556-2.774-6.044-1.194-.992-2.884-1.488-4.666-1.488-2.588 0-5.363 1.084-6.758 3.068a8.832 8.832 0 0 0-1.488 4.96c0 2.186.806 4.558 2.588 6.743 0 0 4.558 5.456 15.47 5.456 12.012 0 22.226-7.827 22.226-21.715 0-10.726-5.952-21.933-18.057-21.933m18.709-221.056c-1.225-5.379-3.844-9.177-4.62-10.2-3.162-4.247-7.145-7.067-11.795-8.416-3.085-.868-6.06-.992-8.463-.806a2313.45 2313.45 0 0 1-2.93-17.205c5.41-6.122 9.006-11.873 11.269-16.136 3.441-6.525 4.573-11.066 4.635-11.268 1.704-5.177 2.061-12.818.96-20.956-.992-7.486-3.068-14.151-5.409-17.375-1.007-1.41-2.061-2.14-3.085-2.14-1.208 0-3.704 1.225-6.572 3.984-2.278 2.17-5.518 6.03-8.06 11.997-2.976 7.006-3.192 16.414-2.836 23.08.372 7.222 1.472 12.864 1.488 12.911.016.093.279 1.581.713 4.123-.217.232-.465.45-.713.698-1.023.992-2.201 2.108-3.58 3.487-.853.853-1.798 1.751-2.79 2.713-8.37 8.075-21.065 20.304-21.065 39.308 0 4.665.899 9.052 2.666 13.035 1.565 3.565 3.844 6.82 6.758 9.672 7.673 7.502 18.181 10.68 25.172 10.525 2.93-.078 5.55-.31 7.92-.76 1.814 9.532 2.945 16.508 2.977 21.808.046 6.464-1.597 10.416-5.456 13.16-2.418 1.72-5.208 2.666-8.278 2.806-2.572.124-4.82-.342-6.23-.744h-.016s-.279-.093-.295-.28c-.015-.186.341-.232.341-.232h.031c1.907-.434 5.441-1.658 7.781-4.929 1.783-2.511 2.65-7.099.822-11.005-1.1-2.372-3.58-5.301-9.16-5.75-2.48-.202-4.728.31-6.712 1.503-1.798 1.07-3.286 2.697-4.325 4.681-2.433 4.666-1.984 10.354 1.116 14.167 2.945 3.596 7.518 5.89 12.912 6.463.852.093 1.69.124 2.526.124 4.402 0 8.758-1.193 12.307-3.378 3.627-2.558 5.735-6.51 6.402-12.09.558-4.604.17-10.478-1.21-18.492-.356-2.077-.898-5.084-1.55-8.804 5.705-1.906 9.828-5.456 13.563-11.268 3.271-5.689 4.201-11.75 2.79-18.011m-33.945 26.009c-4.603-1.21-9.005-3.69-12.725-7.177-1.302-1.209-3.162-3.364-4.619-6.727-1.348-3.147-2.015-6.556-1.953-10.106.062-4.665 1.364-9.455 3.844-14.198 2.899-5.534 7.425-11.02 13.439-16.306a89.204 89.204 0 0 0 4.076-3.813c.76 4.231 1.581 8.881 2.449 13.717-3.813 1.256-8.525 4.387-11.61 9.998-3.518 6.51-3.379 11.997-2.65 15.453.93 4.418 3.441 8.153 6.867 10.23.93.559 5.022 2.667 6.85 2.093a1.16 1.16 0 0 0 .776-.666c.511-1.163-.512-1.798-2.046-2.744a27.277 27.277 0 0 1-1.984-1.317c-3.302-2.465-4.744-6.882-3.674-11.238a12.436 12.436 0 0 1 3.674-6.215c1.642-1.535 3.673-2.62 6.029-3.256 2.03 11.16 4.077 22.228 5.704 30.52.124.682.263 1.348.387 2.015-4.34.93-8.648.837-12.834-.263m11.238-32.938c10.261-.465 14.492 6.913 15.376 11.703.465 2.526.465 6.928-1.07 11.113-1.162 3.146-3.596 7.192-8.695 9.238-.062-.418-.14-.852-.217-1.271-1.534-8.711-3.456-19.623-5.394-30.783m-7.27-70.386c1.768-5.688 4.48-8.912 6.464-10.632 1.736-1.504 3.364-2.217 4.278-2.217.14 0 .264.031.356.062.466.14.992.697 1.458 1.565 2.294 4.248 1.55 10.912.216 15.314-1.612 5.364-4.51 10.928-13.236 20.46-.171-1.1-.326-2.138-.481-3.115-1.24-8.215-.915-15.438.945-21.437" style="stroke-width:.992"/>
  <path class="KeySig" d="M584.291 676.672c-.589-3.86-2.976-7.533-8.029-7.533-4.96 0-7.843 3.069-8.339 3.673l.403-31.852c0-.79-.589-1.38-1.395-1.38h-1.178c-.806 0-1.395.59-1.395 1.38l.496 59.628c0 .791.589 1.38 1.395 1.38.186 0 .589-.093.79-.186.388-.202 6.836-3.379 12.199-9.424 3.767-4.278 5.255-9.13 5.255-13.206 0-.884-.093-1.674-.202-2.48m-6.836 3.875c0 1.488-.402 6.045-2.882 9.827-1.69 2.573-5.054 5.254-6.945 6.742l.295-19.344c.201-.899 1.69-3.766 5.657-3.766 3.581 0 3.875 3.363 3.875 5.456v1.085m-17.964-53.475c-.589-3.86-2.976-7.533-8.029-7.533-4.96 0-7.843 3.069-8.339 3.673l.403-31.852c0-.79-.589-1.38-1.395-1.38h-1.178c-.806 0-1.395.59-1.395 1.38l.496 59.628c0 .791.589 1.38 1.395 1.38.186 0 .589-.093.79-.186.388-.202 6.836-3.379 12.199-9.424 3.767-4.278 5.255-9.13 5.255-13.206 0-.884-.093-1.674-.202-2.48m-6.836 3.875c0 1.488-.402 6.045-2.882 9.827-1.69 2.573-5.054 5.254-6.945 6.742l.295-19.344c.201-.899 1.69-3.766 5.657-3.766 3.581 0 3.875 3.363 3.875 5.456v1.085m-17.964 33.325c-.589-3.86-2.976-7.533-8.029-7.533-4.96 0-7.843 3.069-8.339 3.673l.403-31.852c0-.79-.589-1.38-1.395-1.38h-1.178c-.806 0-1.395.59-1.395 1.38l.496 59.628c0 .791.589 1.38 1.395 1.38.186 0 .589-.093.79-.186.388-.202 6.836-3.379 12.199-9.424 3.767-4.278 5.255-9.13 5.255-13.206 0-.883-.093-1.674-.202-2.48m-6.836 3.875c0 1.488-.402 6.045-2.882 9.827-1.69 2.573-5.054 5.254-6.945 6.742l.295-19.344c.201-.899 1.69-3.766 5.657-3.766 3.581 0 3.875 3.363 3.875 5.456v1.085m-17.964-53.475c-.589-3.86-2.976-7.533-8.029-7.533-4.96 0-7.843 3.069-8.339 3.673l.403-31.852c0-.79-.589-1.38-1.395-1.38h-1.178c-.806 0-1.395.59-1.395 1.38l.496 59.628c0 .791.589 1.38 1.395 1.38.186 0 .589-.093.79-.186.388-.202 6.836-3.379 12.199-9.424 3.767-4.278 5.255-9.13 5.255-13.206 0-.884-.093-1.674-.202-2.48m-6.836 3.875c0 1.488-.402 6.045-2.882 9.827-1.69 2.573-5.053 5.254-6.944 6.742l.294-19.344c.202-.899 1.69-3.766 5.658-3.766 3.58 0 3.874 3.363 3.874 5.456v1.085m-17.964 33.325c-.589-3.86-2.976-7.533-8.029-7.533-4.96 0-7.843 3.069-8.339 3.673l.403-31.852c0-.79-.589-1.38-1.395-1.38h-1.178c-.806 0-1.395.59-1.395 1.38l.496 59.628c0 .791.589 1.38 1.395 1.38.186 0 .589-.093.79-.186.388-.202 6.836-3.379 12.199-9.424 3.767-4.278 5.255-9.13 5.255-13.206 0-.884-.093-1.674-.202-2.48m-6.836 3.875c0 1.488-.402 6.045-2.882 9.827-1.69 2.573-5.053 5.254-6.944 6.742l.294-19.344c.202-.899 1.69-3.766 5.658-3.766 3.58 0 3.874 3.363 3.874 5.456v1.085m106.036-191.734c-.589-3.86-2.976-7.533-8.029-7.533-4.96 0-7.843 3.069-8.339 3.673l.403-31.852c0-.79-.589-1.38-1.395-1.38h-1.178c-.806 0-1.395.59-1.395 1.38l.496 59.628c0 .791.589 1.38 1.395 1.38.186 0 .589-.093.79-.186.388-.202 6.836-3.379 12.199-9.424 3.767-4.278 5.255-9.13 5.255-13.206 0-.884-.093-1.674-.202-2.48m-6.836 3.875c0 1.488-.402 6.045-2.882 9.827-1.69 2.573-5.054 5.254-6.945 6.742l.295-19.344c.201-.899 1.69-3.766 5.657-3.766 3.581 0 3.875 3.363 3.875 5.456v1.085m-17.964-53.475c-.589-3.86-2.976-7.533-8.029-7.533-4.96 0-7.843 3.069-8.339 3.673l.403-31.852c0-.79-.589-1.38-1.395-1.38h-1.178c-.806 0-1.395.59-1.395 1.38l.496 59.628c0 .791.589 1.38 1.395 1.38.186 0 .589-.093.79-.186.388-.202 6.836-3.379 12.199-9.424 3.767-4.278 5.255-9.13 5.255-13.206 0-.883-.093-1.674-.202-2.48m-6.836 3.875c0 1.488-.402 6.045-2.882 9.827-1.69 2.573-5.054 5.254-6.945 6.742l.295-19.344c.201-.899 1.69-3.766 5.657-3.766 3.581 0 3.875 3.363 3.875 5.456v1.085m-17.964 33.325c-.589-3.86-2.976-7.533-8.029-7.533-4.96 0-7.843 3.069-8.339 3.673l.403-31.852c0-.79-.589-1.38-1.395-1.38h-1.178c-.806 0-1.395.59-1.395 1.38l.496 59.628c0 .791.589 1.38 1.395 1.38.186 0 .589-.093.79-.186.388-.202 6.836-3.379 12.199-9.424 3.767-4.278 5.255-9.13 5.255-13.206 0-.884-.093-1.674-.202-2.48m-6.836 3.875c0 1.488-.402 6.045-2.882 9.827-1.69 2.573-5.054 5.254-6.945 6.742l.295-19.344c.201-.899 1.69-3.766 5.657-3.766 3.581 0 3.875 3.363 3.875 5.456v1.085m-17.964-53.475c-.589-3.86-2.976-7.533-8.029-7.533-4.96 0-7.843 3.069-8.339 3.673l.403-31.852c0-.79-.589-1.38-1.395-1.38h-1.178c-.806 0-1.395.59-1.395 1.38l.496 59.628c0 .791.589 1.38 1.395 1.38.186 0 .589-.093.79-.186.388-.202 6.836-3.379 12.199-9.424 3.767-4.278 5.255-9.13 5.255-13.206 0-.884-.093-1.674-.202-2.48m-6.836 3.875c0 1.488-.402 6.045-2.882 9.827-1.69 2.573-5.053 5.254-6.944 6.742l.294-19.344c.202-.899 1.69-3.766 5.658-3.766 3.58 0 3.874 3.363 3.874 5.456v1.085m-17.964 33.325c-.589-3.86-2.976-7.533-8.029-7.533-4.96 0-7.843 3.069-8.339 3.673l.403-31.852c0-.79-.589-1.38-1.395-1.38h-1.178c-.806 0-1.395.59-1.395 1.38l.496 59.628c0 .791.589 1.38 1.395 1.38.186 0 .589-.093.79-.186.388-.202 6.836-3.379 12.199-9.424 3.767-4.278 5.255-9.13 5.255-13.206 0-.883-.093-1.674-.202-2.48m-6.836 3.875c0 1.488-.402 6.045-2.882 9.827-1.69 2.573-5.053 5.254-6.944 6.742l.294-19.344c.202-.899 1.69-3.766 5.658-3.766 3.58 0 3.874 3.363 3.874 5.456v1.085M584.291 215.6c-.589-3.86-2.976-7.533-8.029-7.533-4.96 0-7.843 3.069-8.339 3.673l.403-31.852c0-.79-.589-1.38-1.395-1.38h-1.178c-.806 0-1.395.59-1.395 1.38l.496 59.628c0 .791.589 1.38 1.395 1.38.186 0 .589-.093.79-.186.388-.202 6.836-3.379 12.199-9.424 3.767-4.278 5.255-9.13 5.255-13.206 0-.883-.093-1.674-.202-2.48m-6.836 3.875c0 1.488-.402 6.045-2.882 9.827-1.69 2.573-5.054 5.254-6.945 6.742l.295-19.343c.201-.9 1.69-3.767 5.657-3.767 3.581 0 3.875 3.364 3.875 5.456v1.085M559.491 166c-.589-3.86-2.976-7.533-8.029-7.533-4.96 0-7.843 3.069-8.339 3.673l.403-31.852c0-.79-.589-1.38-1.395-1.38h-1.178c-.806 0-1.395.59-1.395 1.38l.496 59.628c0 .791.589 1.38 1.395 1.38.186 0 .589-.093.79-.186.388-.202 6.836-3.379 12.199-9.424 3.767-4.278 5.255-9.13 5.255-13.206 0-.883-.093-1.674-.202-2.48m-6.836 3.875c0 1.488-.402 6.045-2.882 9.827-1.69 2.573-5.054 5.254-6.945 6.742l.295-19.343c.201-.9 1.69-3.767 5.657-3.767 3.581 0 3.875 3.364 3.875 5.456v1.085M534.691 203.2c-.589-3.86-2.976-7.533-8.029-7.533-4.96 0-7.843 3.069-8.339 3.673l.403-31.852c0-.79-.589-1.38-1.395-1.38h-1.178c-.806 0-1.395.59-1.395 1.38l.496 59.628c0 .791.589 1.38 1.395 1.38.186 0 .589-.093.79-.186.388-.202 6.836-3.379 12.199-9.424 3.767-4.278 5.255-9.13 5.255-13.206 0-.883-.093-1.674-.202-2.48m-6.836 3.875c0 1.488-.402 6.045-2.882 9.827-1.69 2.573-5.054 5.254-6.945 6.742l.295-19.343c.201-.9 1.69-3.767 5.657-3.767 3.581 0 3.875 3.364 3.875 5.456v1.085M509.891 153.6c-.589-3.86-2.976-7.533-8.029-7.533-4.96 0-7.843 3.069-8.339 3.673l.403-31.852c0-.79-.589-1.38-1.395-1.38h-1.178c-.806 0-1.395.59-1.395 1.38l.496 59.628c0 .791.589 1.38 1.395 1.38.186 0 .589-.093.79-.186.388-.202 6.836-3.379 12.199-9.424 3.767-4.278 5.255-9.13 5.255-13.206 0-.883-.093-1.674-.202-2.48m-6.836 3.875c0 1.488-.402 6.045-2.882 9.827-1.69 2.573-5.053 5.254-6.944 6.742l.294-19.343c.202-.9 1.69-3.767 5.658-3.767 3.58 0 3.874 3.364 3.874 5.456v1.085M485.091 190.8c-.589-3.86-2.976-7.533-8.029-7.533-4.96 0-7.843 3.069-8.339 3.673l.403-31.852c0-.79-.589-1.38-1.395-1.38h-1.178c-.806 0-1.395.59-1.395 1.38l.496 59.628c0 .791.589 1.38 1.395 1.38.186 0 .589-.093.79-.186.388-.202 6.836-3.379 12.199-9.424 3.767-4.278 5.255-9.13 5.255-13.206 0-.883-.093-1.674-.202-2.48m-6.836 3.875c0 1.488-.402 6.045-2.882 9.827-1.69 2.573-5.053 5.254-6.944 6.742l.294-19.343c.202-.9 1.69-3.767 5.658-3.767 3.58 0 3.874 3.364 3.874 5.456v1.085" style="stroke-width:.992"/>
  <path class="TimeSig" d="M611.493 622.769h17.034v7.393h-8.152c-.776 0-1.411.62-1.411 1.396v1.89c0 .776.635 1.396 1.41 1.396h30.009a1.39 1.39 0 0 0 1.394-1.396v-1.89a1.39 1.39 0 0 0-1.394-1.396h-8.866v-7.393h8.866a1.39 1.39 0 0 0 1.394-1.395v-1.891a1.39 1.39 0 0 0-1.394-1.395h-8.866v-15.841c0-.527-.31-1.008-.776-1.24l-1.208-.605a1.446 1.446 0 0 0-1.582.233l-8.974 8.246c-.279.279-.45.635-.45 1.038v8.169h-11.423s11.036-11.935 22.785-27.574c.852-1.148.356-2.186.17-2.372l-2.154-2.186a1.41 1.41 0 0 0-.992-.418c-.589 0-14.043.03-14.756 0-.713-.016-1.24.604-1.318 1.209 0 0-.526 7.3-3.115 15.376-2.573 8.044-5.487 12.989-8.122 16.585 0 0-.542.976-.186 1.72.341.744.976 1.814.976 1.814s.248.527 1.101.527m0 49.34h17.034v7.393h-8.152c-.776 0-1.411.62-1.411 1.396v1.89c0 .776.635 1.396 1.41 1.396h30.009a1.39 1.39 0 0 0 1.394-1.396v-1.89a1.39 1.39 0 0 0-1.394-1.396h-8.866v-7.393h8.866a1.39 1.39 0 0 0 1.394-1.395v-1.891a1.39 1.39 0 0 0-1.394-1.395h-8.866v-15.841c0-.527-.31-1.008-.776-1.24l-1.208-.605a1.446 1.446 0 0 0-1.582.233l-8.974 8.246c-.279.279-.45.635-.45 1.038v8.169h-11.423s11.036-11.935 22.785-27.574c.852-1.148.356-2.186.17-2.372l-2.154-2.186a1.41 1.41 0 0 0-.992-.418c-.589 0-14.043.03-14.756 0-.713-.016-1.24.604-1.318 1.209 0 0-.526 7.3-3.115 15.376-2.573 8.044-5.487 12.989-8.122 16.585 0 0-.542.976-.186 1.72.341.744.976 1.814.976 1.814s.248.527 1.101.527m0-249.597h17.034v7.393h-8.152c-.776 0-1.411.62-1.411 1.396v1.89c0 .776.635 1.396 1.41 1.396h30.009a1.39 1.39 0 0 0 1.394-1.396v-1.89a1.39 1.39 0 0 0-1.394-1.396h-8.866v-7.393h8.866a1.39 1.39 0 0 0 1.394-1.395v-1.891a1.39 1.39 0 0 0-1.394-1.395h-8.866V401.99c0-.527-.31-1.008-.776-1.24l-1.208-.605a1.446 1.446 0 0 0-1.582.233l-8.974 8.246c-.279.279-.45.635-.45 1.038v8.169h-11.423s11.036-11.935 22.785-27.574c.852-1.148.356-2.186.17-2.372l-2.154-2.186a1.41 1.41 0 0 0-.992-.418c-.589 0-14.043.031-14.756 0-.713-.016-1.24.604-1.318 1.209 0 0-.526 7.3-3.115 15.376-2.573 8.044-5.487 12.989-8.122 16.585 0 0-.542.976-.186 1.72.341.744.976 1.814.976 1.814s.248.527 1.101.527m0 49.337h17.034v7.393h-8.152c-.776 0-1.411.62-1.411 1.396v1.89c0 .776.635 1.396 1.41 1.396h30.009a1.39 1.39 0 0 0 1.394-1.396v-1.89a1.39 1.39 0 0 0-1.394-1.396h-8.866v-7.393h8.866a1.39 1.39 0 0 0 1.394-1.395v-1.891a1.39 1.39 0 0 0-1.394-1.395h-8.866v-15.841c0-.527-.31-1.008-.776-1.24l-1.208-.605a1.446 1.446 0 0 0-1.582.233l-8.974 8.246c-.279.279-.45.635-.45 1.038v8.169h-11.423s11.036-11.935 22.785-27.574c.852-1.148.356-2.186.17-2.372l-2.154-2.186a1.41 1.41 0 0 0-.992-.418c-.589 0-14.043.031-14.756 0-.713-.016-1.24.604-1.318 1.209 0 0-.526 7.3-3.115 15.376-2.573 8.044-5.487 12.989-8.122 16.585 0 0-.542.976-.186 1.72.341.744.976 1.814.976 1.814s.248.527 1.101.527m0-285.35h17.034v7.393h-8.152c-.776 0-1.411.62-1.411 1.396v1.89c0 .776.635 1.396 1.41 1.396h30.009a1.39 1.39 0 0 0 1.394-1.396v-1.89a1.39 1.39 0 0 0-1.394-1.396h-8.866V186.5h8.866a1.39 1.39 0 0 0 1.394-1.395v-1.891a1.39 1.39 0 0 0-1.394-1.395h-8.866v-15.841c0-.527-.31-1.008-.776-1.24l-1.208-.605a1.446 1.446 0 0 0-1.582.233l-8.974 8.246c-.279.279-.45.635-.45 1.038v8.169h-11.423s11.036-11.935 22.785-27.574c.852-1.148.356-2.186.17-2.372l-2.154-2.186a1.41 1.41 0 0 0-.992-.418c-.589 0-14.043.03-14.756 0-.713-.016-1.24.604-1.318 1.209 0 0-.526 7.3-3.115 15.376-2.573 8.044-5.487 12.989-8.122 16.585 0 0-.542.976-.186 1.72.341.744.976 1.814.976 1.814s.248.527 1.101.527m0 49.336h17.034v7.393h-8.152c-.776 0-1.411.62-1.411 1.396v1.89c0 .776.635 1.396 1.41 1.396h30.009a1.39 1.39 0 0 0 1.394-1.396v-1.89a1.39 1.39 0 0 0-1.394-1.396h-8.866v-7.393h8.866a1.39 1.39 0 0 0 1.394-1.395v-1.891a1.39 1.39 0 0 0-1.394-1.395h-8.866v-15.841c0-.527-.31-1.008-.776-1.24l-1.208-.605a1.446 1.446 0 0 0-1.582.233l-8.974 8.246c-.279.279-.45.635-.45 1.038v8.169h-11.423s11.036-11.935 22.785-27.574c.852-1.148.356-2.186.17-2.372l-2.154-2.186a1.41 1.41 0 0 0-.992-.418c-.589 0-14.043.03-14.756 0-.713-.016-1.24.604-1.318 1.209 0 0-.526 7.3-3.115 15.376-2.573 8.044-5.487 12.989-8.122 16.585 0 0-.542.976-.186 1.72.341.744.976 1.814.976 1.814s.248.527 1.101.527" style="stroke-width:.992"/>
  <path class="Rest" d="M875.78 614.812c-.745-.264-1.411.093-1.721.712-.295.605-3.1 5.999-7.378 9.378-1.334 1.054-2.884 1.736-4.434 2.123a7.077 7.077 0 0 0 1.628-4.758 7.07 7.07 0 0 0-7.316-6.82c-3.906.14-6.975 3.41-6.836 7.316a7.077 7.077 0 0 0 4.697 6.417c1.55.682 3.441 1.038 5.471.977 2.822-.109 5.875-1.039 8.494-3.1 1.225-.962 2.372-2.186 3.395-3.473v.016l-4.464 15.779s0 .016-.016.016v.015c-.465.946-3.689 7.068-7.672 10.215-1.333 1.07-2.883 1.751-4.433 2.123a7.01 7.01 0 0 0 1.627-4.743c-.139-3.921-3.41-6.975-7.316-6.835-3.906.139-6.975 3.41-6.835 7.331.108 2.976 2.046 5.456 4.696 6.417 1.55.667 3.441 1.039 5.472.961a14.522 14.522 0 0 0 8.494-3.084c1.209-.961 2.356-2.17 3.379-3.472L854.591 684.5l2.65.744 18.522-65.674.868-3.1c.202-.728-.108-1.41-.852-1.658m147.92 0c-.744-.264-1.41.093-1.72.712-.295.605-3.1 5.999-7.379 9.378-1.333 1.054-2.883 1.736-4.433 2.123a7.077 7.077 0 0 0 1.628-4.758 7.07 7.07 0 0 0-7.316-6.82c-3.906.14-6.975 3.41-6.836 7.316a7.077 7.077 0 0 0 4.697 6.417c1.55.682 3.441 1.038 5.471.977 2.821-.109 5.875-1.039 8.494-3.1 1.225-.962 2.372-2.186 3.395-3.473v.016l-4.464 15.779s0 .016-.015.016v.015c-.465.946-3.689 7.068-7.673 10.215-1.333 1.07-2.883 1.751-4.433 2.123a7.01 7.01 0 0 0 1.628-4.743c-.14-3.921-3.41-6.975-7.316-6.835-3.906.139-6.975 3.41-6.836 7.331.109 2.976 2.046 5.456 4.697 6.417 1.55.667 3.441 1.039 5.471.961a14.522 14.522 0 0 0 8.494-3.084c1.21-.961 2.356-2.17 3.38-3.472L1002.51 684.5l2.65.744 18.523-65.674.868-3.1c.202-.728-.108-1.41-.853-1.658m284.441 0c-.744-.264-1.41.093-1.72.712-.295.605-3.1 5.999-7.379 9.378-1.332 1.054-2.882 1.736-4.432 2.123a7.077 7.077 0 0 0 1.627-4.758 7.07 7.07 0 0 0-7.316-6.82c-3.906.14-6.975 3.41-6.835 7.316a7.077 7.077 0 0 0 4.696 6.417c1.55.682 3.441 1.038 5.472.977 2.82-.109 5.874-1.039 8.494-3.1 1.224-.962 2.371-2.186 3.394-3.473v.016l-4.464 15.779s0 .016-.015.016v.015c-.465.946-3.689 7.068-7.672 10.215-1.333 1.07-2.883 1.751-4.433 2.123a7.01 7.01 0 0 0 1.627-4.743c-.14-3.921-3.41-6.975-7.316-6.835-3.906.139-6.975 3.41-6.835 7.331.108 2.976 2.046 5.456 4.696 6.417 1.55.667 3.441 1.039 5.472.961a14.522 14.522 0 0 0 8.494-3.084c1.209-.961 2.356-2.17 3.379-3.472L1286.95 684.5l2.65.744 18.523-65.674.868-3.1c.202-.728-.108-1.41-.852-1.658m464.09 0c-.744-.264-1.41.093-1.72.712-.295.605-3.1 5.999-7.378 9.378-1.333 1.054-2.883 1.736-4.433 2.123a7.077 7.077 0 0 0 1.627-4.758 7.07 7.07 0 0 0-7.316-6.82c-3.906.14-6.975 3.41-6.835 7.316a7.077 7.077 0 0 0 4.696 6.417c1.55.682 3.441 1.038 5.472.977 2.82-.109 5.874-1.039 8.494-3.1 1.224-.962 2.371-2.186 3.394-3.473v.016l-4.464 15.779s0 .016-.015.016v.015c-.465.946-3.689 7.068-7.672 10.215-1.333 1.07-2.883 1.751-4.433 2.123a7.01 7.01 0 0 0 1.627-4.743c-.14-3.921-3.41-6.975-7.316-6.835-3.906.139-6.975 3.41-6.835 7.331.108 2.976 2.046 5.456 4.696 6.417 1.55.667 3.441 1.039 5.472.961a14.522 14.522 0 0 0 8.494-3.084c1.209-.961 2.356-2.17 3.379-3.472L1751.04 684.5l2.65.744 18.523-65.674.868-3.1c.202-.728-.108-1.41-.852-1.658m174.16 0c-.744-.264-1.41.093-1.72.712-.295.605-3.1 5.999-7.379 9.378-1.332 1.054-2.882 1.736-4.432 2.123a7.077 7.077 0 0 0 1.627-4.758 7.07 7.07 0 0 0-7.316-6.82c-3.906.14-6.975 3.41-6.835 7.316a7.077 7.077 0 0 0 4.696 6.417c1.55.682 3.441 1.038 5.472.977 2.82-.109 5.874-1.039 8.494-3.1 1.224-.962 2.371-2.186 3.394-3.473v.016l-4.464 15.779s0 .016-.015.016v.015c-.465.946-3.689 7.068-7.672 10.215-1.333 1.07-2.883 1.751-4.433 2.123a7.01 7.01 0 0 0 1.627-4.743c-.14-3.921-3.41-6.975-7.316-6.835-3.906.139-6.975 3.41-6.835 7.331.108 2.976 2.046 5.456 4.696 6.417 1.55.667 3.441 1.039 5.472.961a14.522 14.522 0 0 0 8.494-3.084c1.209-.961 2.356-2.17 3.379-3.472L1925.2 684.5l2.65.744 18.523-65.674.868-3.1c.202-.728-.108-1.41-.852-1.658m310.34 0c-.744-.264-1.41.093-1.72.712-.295.605-3.1 5.999-7.379 9.378-1.333 1.054-2.883 1.736-4.433 2.123a7.077 7.077 0 0 0 1.628-4.758 7.07 7.07 0 0 0-7.316-6.82c-3.906.14-6.975 3.41-6.835 7.316a7.077 7.077 0 0 0 4.696 6.417c1.55.682 3.441 1.038 5.471.977 2.822-.109 5.875-1.039 8.495-3.1 1.224-.962 2.371-2.186 3.394-3.473v.016l-4.464 15.779s0 .016-.015.016v.015c-.465.946-3.689 7.068-7.673 10.215-1.332 1.07-2.882 1.751-4.432 2.123a7.01 7.01 0 0 0 1.627-4.743c-.14-3.921-3.41-6.975-7.316-6.835-3.906.139-6.975 3.41-6.835 7.331.108 2.976 2.046 5.456 4.696 6.417 1.55.667 3.441 1.039 5.471.961a14.522 14.522 0 0 0 8.495-3.084c1.209-.961 2.356-2.17 3.379-3.472L2235.54 684.5l2.65.744 18.523-65.674.868-3.1c.202-.728-.108-1.41-.852-1.658" style="stroke-width:.992"/>
  <path class="Beam" fill-rule="evenodd" d="m730.874 552.455 57.039 26.05v13.63l-57.039-26.05v-13.63m0 18.6 32.24 14.72v13.63l-32.24-14.72v-13.63m410.644 14.53 57.03-6.51v12.48l-57.03 6.51v-12.48m0 18.6 32.24-3.68v12.48l-32.24 3.68v-12.48m217.24-18.87h155.43v12.4h-155.43v-12.4m86.9 18.6h68.53v12.4h-68.53v-12.4m171.94-26.5 60.78 25.96v13.48l-60.78-25.96v-13.48m0 18.6 32.24 13.77v13.48l-32.24-13.77v-13.48m461.27 8.53 60.79-25.97v13.48l-60.79 25.97v-13.48m0 18.6 32.24-13.78v13.49l-32.24 13.77v-13.48m202.71 55.14 192.39 18.87v12.46l-192.39-18.87v-12.46m123.86-6.45 68.53 6.72v12.46l-68.53-6.72v-12.46M701.37 527.655h143.938v12.4H701.37v-12.4m0-18.599h32.24v12.399h-32.24v-12.399m143.938 0h-32.24v12.399h32.24v-12.399m87.8-173.6h143.94v12.4h-143.94v-12.4m86.9 18.6h57.04v12.4h-57.04v-12.4m92 173.599h165.66v12.4h-165.66v-12.4m0-18.599h32.24v12.399h-32.24v-12.399m165.66 0h-32.24v12.399h32.24v-12.399m81.09-173.6h155.43v12.4h-155.43v-12.4m86.9 18.6h68.53v12.4h-68.53v-12.4m171.94 31h153.66v12.4h-153.66v-12.4m0 18.6h32.24v12.4h-32.24v-12.4m153.66 0h-32.24v12.4h32.24v-12.4m55.33-68.2h187.82v12.4h-187.82v-12.4m116.1 18.6h71.72v12.4h-71.72v-12.4m136.18 6.2h176.89v12.4h-176.89v-12.4m0 18.6h32.24v12.4h-32.24v-12.4m176.89 0h-32.24v12.4h32.24v-12.4m25.82 74.348 192.39 25.156v12.506l-192.39-25.157v-12.505m123.86-2.405 68.53 8.961v12.506l-68.53-8.961v-12.506M730.874 93.243h143.934v12.4H730.874v-12.4m0 18.6h32.24v12.4h-32.24v-12.4m143.934 0h-32.24v12.4h32.24v-12.4m28.8 179.747 143.93 18.959v12.507l-143.93-18.959V291.59m86.89-7.154 57.04 7.513v12.507l-57.04-7.513v-12.507m151.02-141.129 111.35-25.423v12.719l-111.35 25.423v-12.719m0 18.6 57.03-13.023v12.719l-57.03 13.023v-12.719m217.24-12.537 89.63-12.789v12.525l-89.63 12.79V149.37m258.84-6.237 153.66-18.936v12.493l-153.66 18.936v-12.493m0 18.6 32.24-3.973v12.494l-32.24 3.972v-12.493m153.66-18.936-32.24 3.972v12.494l32.24-3.973v-12.493m55.33-49.554h187.82v12.4h-187.82v-12.4m0 18.6h32.24v12.4h-32.24v-12.4m187.82 0h-32.24v12.4h32.24v-12.4m64.46 31.257 176.89-18.892v12.471l-176.89 18.891V143.1m116.11 6.2 60.78-6.492v12.471l-60.78 6.491V149.3m116.11-31.349 192.39 6.289v12.407l-192.39-6.289v-12.407m0 18.6 192.39 6.289v12.407l-192.39-6.289v-12.407"/>
  <path class="Hook" d="M936.58 588.787c-.093-.294-.992-3.767-.992-3.968-.093-.403-.697-.697-1.193-.697-.698 0-1.287.604-1.287 1.286v22.428c0 .496.403.884.79 1.086 4.17 1.286 12.803 6.758 19.251 17.762 1.783 3.07 4.666 7.239 4.666 15.578 0 7.146-1.1 14.678-2.883 21.622-.295 1.101-.589 2.093.496 2.48 1.085.404 1.488-.387 1.891-1.379 3.565-8.742 4.464-17.871 4.464-24.01v-1.89c-.496-12.803-7.843-22.227-7.843-22.227.295 0-9.13-12.199-11.811-16.368-3.658-5.658-5.456-11.3-5.549-11.703m165.514 54.064c-.093-5.161-1.286-10.509-4.758-14.973-4.759-6.154-11.021-9.238-14.787-14.694-3.767-5.456-5.348-16.058-5.348-16.058-.108-.697-.31-1.193-1.488-1.193-1.194 0-1.395.496-1.395 1.193v37.99c0 .202.698.791 1.395.992 2.573.992 10.416 5.86 16.368 14.679 3.565 5.456 4.154 9.13 4.154 12.695v1.1c-.093 2.48-.682 7.533-2.17 11.501-.31.9-.806 2.185.186 2.681s1.596-.588 2.092-1.286c1.783-2.883 4.371-8.138 4.371-13.795a52.61 52.61 0 0 0-.496-7.331c.992-3.581 1.876-8.045 1.876-12.71v-.791m-7.037 1.395c-2.682-3.472-5.658-6.65-10.525-11.516-3.859-3.86-5.657-7.239-6.339-9.812-.109-.202-.109-.604-.202-.899l.093.403c4.464.388 10.525 4.852 14.291 9.424 4.464 5.348 5.348 9.517 5.348 13.392 0 .992 0 1.876-.093 2.868-.589-1.086-1.783-2.868-2.573-3.86m735.003-43.059c-.093-.294-.992-3.767-.992-3.968-.093-.403-.698-.698-1.194-.698-.697 0-1.286.605-1.286 1.287v22.428c0 .496.403.884.79 1.086 4.17 1.286 12.804 6.758 19.252 17.762 1.782 3.07 4.665 7.239 4.665 15.578 0 7.146-1.1 14.678-2.883 21.622-.294 1.101-.589 2.093.496 2.48 1.085.404 1.488-.387 1.891-1.379 3.565-8.742 4.464-17.871 4.464-24.01v-1.89c-.496-12.803-7.843-22.227-7.843-22.227.294 0-9.13-12.199-11.811-16.368-3.658-5.658-5.456-11.3-5.549-11.703m209.394 54.064c-.093-5.161-1.286-10.509-4.758-14.973-4.759-6.154-11.021-9.238-14.787-14.694-3.767-5.456-5.348-16.058-5.348-16.058-.108-.697-.31-1.193-1.488-1.193-1.194 0-1.395.496-1.395 1.193v37.99c0 .202.697.791 1.395.992 2.573.992 10.416 5.86 16.368 14.679 3.565 5.456 4.154 9.13 4.154 12.695v1.1c-.093 2.48-.682 7.533-2.17 11.501-.31.9-.806 2.185.186 2.681s1.596-.588 2.092-1.286c1.783-2.883 4.371-8.138 4.371-13.795a52.61 52.61 0 0 0-.496-7.331c.992-3.581 1.876-8.045 1.876-12.71v-.791m-7.037 1.395c-2.682-3.472-5.658-6.65-10.525-11.516-3.859-3.86-5.657-7.239-6.339-9.812-.109-.202-.109-.604-.202-.899l.093.403c4.464.388 10.525 4.852 14.291 9.424 4.464 5.348 5.348 9.517 5.348 13.392 0 .992 0 1.876-.093 2.868-.589-1.086-1.783-2.868-2.573-3.86" style="stroke-width:.992"/>
  <path class="Tempo" d="M634.413 16h-3.297v44.968c-1.141-.671-2.516-1.093-4.094-1.265a12.672 12.672 0 0 0-1.344-.063c-2.719 0-5.656.782-8.39 2.266-3.188 1.719-5.75 4.187-7.172 6.922-1.453 2.765-1.594 5.469-.422 7.64 1.375 2.579 4.39 3.907 7.937 3.907 2.641 0 5.594-.735 8.407-2.25 5.14-2.782 8.359-7.375 8.375-11.375V16m22.296 52.328h30.235v-6.906h-30.235v6.906m0-12.36h30.235v-6.906h-30.235v6.906m72.782-24.609h-2.11c-3.781 2.828-8.031 4.031-15.172 4.141v3.359h2.516c5.344 0 5.406.125 5.344 5.047v21.297c0 3.719 0 3.906-.422 4.5-.547.656-1.75.906-4.984.906h-1.922v3.234h23.937v-3.234h-1.922c-3.172 0-4.312-.25-4.859-.906-.406-.594-.406-.844-.406-4.5V31.359m29.39 0c-9 0-15.593 9.188-15.593 21.672 0 12.469 6.593 21.656 15.593 21.656 8.813 0 15.532-9.187 15.532-21.359 0-7.078-1.61-12.297-5.157-16.75-2.812-3.406-6.359-5.219-10.375-5.219m-.062 3.125c1.797 0 3.234 1.078 3.906 3 .781 1.984 1.25 8.281 1.25 15.719 0 6.187-.469 12.656-1.016 14.703-.656 2.391-2.093 3.656-4.14 3.656-1.86 0-3.235-1.015-3.953-3-.782-1.984-1.266-8.344-1.266-15.531 0-6.313.484-12.844 1.016-14.891.672-2.39 2.109-3.656 4.203-3.656m41.453 14.703c1.75-.656 2.594-1.078 3.426-1.687 2.34-1.61 3.65-4.078 3.65-6.891 0-5.531-5.217-9.25-13.014-9.25-9.296 0-15.296 4.984-15.296 12.781 0 4.75 2.218 8.219 6.968 10.75-1.875.594-2.64.828-3.672 1.375-3 1.563-4.609 4.313-4.609 7.797 0 6.485 5.813 10.625 14.938 10.625 9.656 0 16.185-5.531 16.185-13.75 0-5.64-2.75-9.359-8.576-11.75m-3.359-1.265c-2.516-.594-4.375-1.141-5.516-1.563-2.766-1.016-4.563-3.469-4.563-6.109 0-3.313 2.766-5.766 6.485-5.766 4.015 0 6.547 2.641 6.547 6.844 0 2.703-1.032 4.984-2.953 6.594m-7.672 8.578c2.453.672 5.453 1.562 6.953 2.047 3.781 1.312 5.219 2.937 5.219 6 0 4.078-3.36 7.015-8.094 7.015-4.86 0-7.797-2.875-7.797-7.672 0-3.187 1.016-5.218 3.719-7.39"/>
  <path class="Bracket" fill="none" stroke="#000" stroke-width="10.91" stroke-linejoin="bevel" d="M336.794 367.2v335.175"/>
  <path class="Bracket" d="M379.357 345.175c-.202-.093-.496-.202-.698-.202-.402 0-.852.155-1.084.496-.202.294-10.122 15.578-29.078 15.578h-15.764c-.806 0-1.395.496-1.395 1.286v10.323h12.105c30.551 0 36.41-25.482 36.503-25.792.031-.093.109-.295.109-.496 0-.496-.31-.9-.698-1.193m0 379.221c.388-.294.698-.697.698-1.193 0-.201-.078-.403-.109-.496-.093-.31-5.952-25.792-36.503-25.792h-12.105v10.323c0 .79.589 1.286 1.395 1.286h15.764c18.956 0 28.876 15.284 29.078 15.578.232.341.682.496 1.084.496.202 0 .496-.108.698-.202" style="stroke-width:.992"/>
  <text xml:space="preserve" style="font-style:normal;font-weight:400;font-size:64px;line-height:1.25;font-family:sans-serif;fill:#ff2a2a;fill-opacity:1;stroke:none" x="968.199" y="1279.66" transform="translate(-177.114 -472.697)"><tspan x="968.199" y="1279.66" style="font-style:normal;font-variant:normal;font-weight:400;font-stretch:normal;font-size:64px;font-family:FreeSerif,serif;-inkscape-font-specification:FreeSerif,serif;fill:#ff2a2a">I</tspan></text>
  <text xml:space="preserve" style="font-style:normal;font-variant:normal;font-weight:400;font-stretch:normal;font-size:37.3333px;line-height:1.25;font-family:FreeSerif,serif;-inkscape-font-specification:FreeSerif,serif;fill:#ff2a2a;fill-opacity:1;stroke:none" x="993.699" y="1248.441" transform="translate(-177.114 -472.697)"><tspan x="993.699" y="1248.441">6</tspan></text>
  <text xml:space="preserve" style="font-style:normal;font-weight:400;font-size:37.3333px;line-height:1.25;font-family:sans-serif;fill:#ff2a2a;fill-opacity:1;stroke:none" x="993.788" y="1293.347" transform="translate(-177.114 -472.697)"><tspan x="993.788" y="1293.347" style="font-style:normal;font-variant:normal;font-weight:400;font-stretch:normal;font-size:37.3333px;font-family:FreeSerif,serif;-inkscape-font-specification:FreeSerif,serif;fill:#ff2a2a">4</tspan></text>
  <text xml:space="preserve" style="font-style:normal;font-weight:400;font-size:64px;line-height:1.25;font-family:sans-serif;fill:#bc5fd3;fill-opacity:1;stroke:none" x="1032.235" y="806.074"><tspan x="1032.235" y="806.074" style="font-style:normal;font-variant:normal;font-weight:400;font-stretch:normal;font-size:64px;font-family:FreeSerif,serif;-inkscape-font-specification:FreeSerif,serif;fill:#bc5fd3">IV</tspan></text>
  <text xml:space="preserve" style="font-style:normal;font-weight:400;font-size:64px;line-height:1.25;font-family:sans-serif;fill:#2a7fff;fill-opacity:1;stroke:none" x="1454.941" y="805.184"><tspan x="1454.941" y="805.184" style="font-style:normal;font-variant:normal;font-weight:400;font-stretch:normal;font-size:64px;font-family:FreeSerif,serif;-inkscape-font-specification:FreeSerif,serif;fill:#2a7fff">iv</tspan></text>
  <text xml:space="preserve" style="font-style:normal;font-weight:400;font-size:64px;line-height:1.25;font-family:sans-serif;fill:#ff2a2a;fill-opacity:1;stroke:none" x="968.199" y="1279.66" transform="translate(285.79 -471.63)"><tspan x="968.199" y="1279.66" style="font-style:normal;font-variant:normal;font-weight:400;font-stretch:normal;font-size:64px;font-family:FreeSerif,serif;-inkscape-font-specification:FreeSerif,serif;fill:#ff2a2a">I</tspan></text>
  <text xml:space="preserve" style="font-style:normal;font-variant:normal;font-weight:400;font-stretch:normal;font-size:37.3333px;line-height:1.25;font-family:FreeSerif,serif;-inkscape-font-specification:FreeSerif,serif;fill:#ff2a2a;fill-opacity:1;stroke:none" x="993.699" y="1248.441" transform="translate(285.79 -471.63)"><tspan x="993.699" y="1248.441">6</tspan></text>
  <text xml:space="preserve" style="font-style:normal;font-weight:400;font-size:37.3333px;line-height:1.25;font-family:sans-serif;fill:#ff2a2a;fill-opacity:1;stroke:none" x="993.788" y="1293.347" transform="translate(285.79 -471.63)"><tspan x="993.788" y="1293.347" style="font-style:normal;font-variant:normal;font-weight:400;font-stretch:normal;font-size:37.3333px;font-family:FreeSerif,serif;-inkscape-font-specification:FreeSerif,serif;fill:#ff2a2a">4</tspan></text>
  <text xml:space="preserve" style="font-style:normal;font-weight:400;font-size:64px;line-height:1.25;font-family:sans-serif;fill:#ffd42a;fill-opacity:1;stroke:#000;stroke-width:1.2;stroke-miterlimit:4;stroke-dasharray:none;stroke-opacity:1" x="1718.349" y="807.413"><tspan x="1718.349" y="807.413" style="font-style:normal;font-variant:normal;font-weight:400;font-stretch:normal;font-size:64px;font-family:FreeSerif,serif;-inkscape-font-specification:FreeSerif,serif;fill:#ffd42a;stroke:#000;stroke-width:1.2;stroke-miterlimit:4;stroke-dasharray:none;stroke-opacity:1">ii</tspan></text>
  <text xml:space="preserve" style="font-style:normal;font-weight:400;font-size:37.3333px;line-height:1.25;font-family:sans-serif;fill:#ffd42a;fill-opacity:1;stroke:#000;stroke-width:1.2;stroke-miterlimit:4;stroke-dasharray:none;stroke-opacity:1" x="1759.284" y="776.267"><tspan x="1759.284" y="776.267" style="font-style:normal;font-variant:normal;font-weight:400;font-stretch:normal;font-size:37.3333px;font-family:FreeSerif,serif;-inkscape-font-specification:FreeSerif,serif;fill:#ffd42a;stroke:#000;stroke-width:1.2;stroke-miterlimit:4;stroke-dasharray:none;stroke-opacity:1">6</tspan></text>
  <text xml:space="preserve" style="font-style:normal;font-weight:400;font-size:37.3333px;line-height:1.25;font-family:sans-serif;fill:#ffd42a;fill-opacity:1;stroke:#000;stroke-width:1.2;stroke-miterlimit:4;stroke-dasharray:none;stroke-opacity:1" x="1760.174" y="820.761"><tspan x="1760.174" y="820.761" style="font-style:normal;font-variant:normal;font-weight:400;font-stretch:normal;font-size:37.3333px;font-family:FreeSerif,serif;-inkscape-font-specification:FreeSerif,serif;fill:#ffd42a;stroke:#000;stroke-width:1.2;stroke-miterlimit:4;stroke-dasharray:none;stroke-opacity:1">5</tspan></text>
  <text xml:space="preserve" style="font-style:normal;font-weight:400;font-size:64px;line-height:1.25;font-family:sans-serif;fill:#ff2ad4;fill-opacity:1;stroke:none" x="2156.135" y="808.977"><tspan x="2156.135" y="808.977" style="font-style:normal;font-variant:normal;font-weight:400;font-stretch:normal;font-size:64px;font-family:FreeSerif,serif;-inkscape-font-specification:FreeSerif,serif;fill:#ff2ad4;fill-opacity:1">IV[]13</tspan></text>
  <text xml:space="preserve" style="font-style:normal;font-weight:400;font-size:37.3333px;line-height:1.25;font-family:sans-serif;fill:#ff2ad4;fill-opacity:1;stroke:none" x="2381.249" y="772.639"><tspan x="2381.249" y="772.639" style="font-style:normal;font-variant:normal;font-weight:400;font-stretch:normal;font-size:37.3333px;font-family:FreeSerif,serif;-inkscape-font-specification:FreeSerif,serif;fill:#ff2ad4;fill-opacity:1">4</tspan></text>
  <text xml:space="preserve" style="font-style:normal;font-weight:400;font-size:37.3333px;line-height:1.25;font-family:sans-serif;fill:#ff2ad4;fill-opacity:1;stroke:none" x="2381.04" y="821.551"><tspan x="2381.04" y="821.551" style="font-style:normal;font-variant:normal;font-weight:400;font-stretch:normal;font-size:37.3333px;font-family:FreeSerif,serif;-inkscape-font-specification:FreeSerif,serif;fill:#ff2ad4;fill-opacity:1">2</tspan></text>
  <text xml:space="preserve" style="font-style:normal;font-weight:400;font-size:64px;line-height:1.25;font-family:sans-serif;fill:#ff2ad4;fill-opacity:1;stroke:none" x="2156.706" y="907.945"><tspan x="2156.706" y="907.945" style="font-style:normal;font-variant:normal;font-weight:400;font-stretch:normal;font-size:64px;font-family:FreeSerif,serif;-inkscape-font-specification:FreeSerif,serif;fill:#ff2ad4;fill-opacity:1">II[]13</tspan></text>
  <text xml:space="preserve" style="font-style:normal;font-weight:400;font-size:37.3333px;line-height:1.25;font-family:sans-serif;fill:#ff2ad4;fill-opacity:1;stroke:none" x="2381.82" y="871.607"><tspan x="2381.82" y="871.607" style="font-style:normal;font-variant:normal;font-weight:400;font-stretch:normal;font-size:37.3333px;font-family:FreeSerif,serif;-inkscape-font-specification:FreeSerif,serif;fill:#ff2ad4;fill-opacity:1">4</tspan></text>
  <text xml:space="preserve" style="font-style:normal;font-weight:400;font-size:37.3333px;line-height:1.25;font-family:sans-serif;fill:#ff2ad4;fill-opacity:1;stroke:none" x="2381.611" y="920.519"><tspan x="2381.611" y="920.519" style="font-style:normal;font-variant:normal;font-weight:400;font-stretch:normal;font-size:37.3333px;font-family:FreeSerif,serif;-inkscape-font-specification:FreeSerif,serif;fill:#ff2ad4;fill-opacity:1">2</tspan></text>
  <text xml:space="preserve" style="font-style:normal;font-weight:400;font-size:48px;line-height:1.25;font-family:sans-serif;fill:#55f;fill-opacity:1;stroke:none" x="2519.135" y="302.641"><tspan x="2519.135" y="302.641" style="font-style:normal;font-variant:normal;font-weight:400;font-stretch:normal;font-size:48px;font-family:FreeSerif,serif;-inkscape-font-specification:FreeSerif,serif;fill:#55f;fill-opacity:1">split 7</tspan></text>
  <text xml:space="preserve" style="font-style:normal;font-weight:400;font-size:48px;line-height:1.25;font-family:sans-serif;fill:#55f;fill-opacity:1;stroke:none" x="2613.071" y="291.685"><tspan x="2613.071" y="291.685" style="font-style:normal;font-variant:normal;font-weight:400;font-stretch:normal;font-size:48px;font-family:FreeSerif,serif;-inkscape-font-specification:FreeSerif,serif;fill:#55f;fill-opacity:1"></tspan></text>
  <text xml:space="preserve" style="font-size:64px;line-height:1.25;font-family:FreeSerif,serif;-inkscape-font-specification:FreeSerif,serif" x="568.997" y="807.79"><tspan x="568.997" y="807.79">D:</tspan></text>
  <text xml:space="preserve" style="font-size:64px;line-height:1.25;font-family:FreeSerif,serif;-inkscape-font-specification:FreeSerif,serif" x="601.479" y="918.531"><tspan x="601.479" y="918.531">F:</tspan></text>
</svg>
