<svg width="2583.088" height="1189.154" version="1.2" xmlns="http://www.w3.org/2000/svg">
  <path style="fill:#ff2ad4;fill-opacity:1;stroke:#000;stroke-width:0;stroke-linecap:round;stroke-linejoin:round;stroke-miterlimit:4;stroke-dasharray:none;paint-order:stroke markers fill" d="M2067.337 258.243h492.02v821.552h-492.02z"/>
  <circle style="fill:#6f0;fill-opacity:.474026;stroke:#000;stroke-width:4;stroke-linecap:round;stroke-linejoin:round;stroke-miterlimit:4;stroke-dasharray:none;stroke-opacity:1;paint-order:stroke markers fill" cx="2408.308" cy="745.465" r="45"/>
  <path style="fill:#ffd42a;fill-opacity:1;stroke:#000;stroke-width:0;stroke-linecap:round;stroke-linejoin:round;stroke-miterlimit:4;stroke-dasharray:none;paint-order:stroke markers fill" d="M1538.591 258.243h531.262v821.552h-531.262z"/>
  <path style="fill:#90ffa5;fill-opacity:1;stroke:#000;stroke-width:0;stroke-linecap:round;stroke-linejoin:round;stroke-miterlimit:4;stroke-dasharray:none;paint-order:stroke markers fill" d="M1047.458 258.243h491.133v821.552h-491.133z"/>
  <path style="fill:#ff2a2a;fill-opacity:1;stroke:#000;stroke-width:0;stroke-linecap:round;stroke-linejoin:round;stroke-miterlimit:4;stroke-dasharray:none;paint-order:stroke markers fill" d="M604.284 258.243h443.174v821.552H604.284z"/>
  <path class="StaffLines" fill="none" stroke="#000" stroke-width="2.73" stroke-linejoin="bevel" d="M350.186 131.663h2216.902m-2216.902 24.8h2216.902m-2216.902 24.8h2216.902m-2216.902 24.8h2216.902m-2216.902 24.8h2216.902M350.186 335.023h2216.902m-2216.902 24.8h2216.902m-2216.902 24.8h2216.902m-2216.902 24.8h2216.902m-2216.902 24.8h2216.902m-2216.902 86.8h2216.902m-2216.902 24.8h2216.902m-2216.902 24.8h2216.902m-2216.902 24.8h2216.902m-2216.902 24.8h2216.902m-2216.902 86.8h2216.902m-2216.902 24.8h2216.902M350.186 756.625h2216.902m-2216.902 24.8h2216.902m-2216.902 24.8h2216.902m-2216.902 86.8h2216.902m-2216.902 24.8h2216.902m-2216.902 24.8h2216.902m-2216.902 24.8h2216.902m-2216.902 24.8h2216.902"/>
  <path class="InstrumentName" d="M79.86 924.175h-1.907l-2 2.95c-3.64-2.66-5.5-3.36-8.953-3.36-4.75 0-8.797 2-12.14 6-3.204 3.81-4.704 8.01-4.704 13.16 0 10.79 7.047 18.45 16.907 18.45 8 0 13.093-4.7 14.25-13.1l-2.36-.4c-1.343 7.45-5.14 11.15-11.297 11.15-7.406 0-10.906-5.1-10.906-15.9 0-5.7.75-9.45 2.453-12.45 1.547-2.8 4.61-4.55 7.86-4.55 3.5 0 6.593 1.84 8.5 5.05.953 1.65 1.64 3.5 2.843 7.45h2.204l-.75-14.45m16.531 12.4c-6.141 0-10.891 5.45-10.891 12.45 0 6.85 4.797 12.35 10.797 12.35 6 0 10.797-5.5 10.797-12.41 0-6.84-4.797-12.39-10.703-12.39m0 2.14c3.5 0 5.453 3.66 5.453 10.25 0 6.66-1.953 10.25-5.547 10.25-3.594 0-5.547-3.59-5.547-10.19 0-6.81 1.891-10.31 5.641-10.31m22.39-1.39-8.656.55v2.15h1.813c1.89.05 2.14.35 2.14 2.5v14.3c-.047.75-.093 1.05-.297 1.3-.343.45-1.296.65-3.453.7h-.203v1.8h12.656v-1.8h-.203c-3.343-.11-3.797-.36-3.797-2.15v-7.4c0-2.45.344-4.7.907-5.85 1.047-2.25 3.297-3.8 5.437-3.8 1.313 0 2.813.7 3.563 1.75.75 1.09 1.093 2.59 1.093 5v10.45c-.046.75-.093 1.05-.296 1.3-.36.45-1.36.65-3.5.7h-.204v1.8h12.657v-1.8h-.203c-3.297-.11-3.75-.36-3.75-2.15v-10.05c0-3.6-.157-4.5-1.047-6.2-1.25-2.4-3.75-3.85-6.75-3.85-3.25 0-5.703 1.5-7.907 4.8v-4.05m30.25 0v-9.9h-2.046c-.5 6.5-2.704 9.79-6.75 10.1v1.94h4.093v12.75c0 3.5.094 4.75.594 5.91.813 2.09 2.813 3.25 5.703 3.25 4.5 0 7.406-3.41 7.406-8.7 0-.3 0-.65-.046-1.15h-2.11c-.14 4.5-1.453 6.8-3.89 6.8-1.157 0-2.157-.61-2.5-1.45-.313-.7-.454-1.95-.454-3.75v-13.66h7.344v-2.14h-7.344m19.641 0-8.859.55v2.15h2.047c1.906.05 2.156.35 2.156 2.5v14.3c-.047.75-.094 1.05-.297 1.3-.359.45-1.359.65-3.5.7h-.203v1.8h13.344v-1.8h-.891c-3.359-.11-3.797-.36-3.797-2.15v-2.71c.047-8.39 3.047-14.79 6.938-15-.688.81-.891 1.31-.891 2.25 0 1.61 1.141 2.75 2.75 2.75 1.844 0 3.047-1.34 3.047-3.34 0-2.45-1.703-4.05-4.344-4.05-3.156 0-5.859 2.5-7.5 6.95v-6.2m34.469 7.2c0-3.15-.547-4.75-2-5.95-1.641-1.36-4.094-2-7.297-2-5.641 0-9.75 2.64-9.75 6.3 0 1.84 1.156 3.05 2.906 3.05 1.594 0 2.703-1.05 2.703-2.55 0-.66-.25-1.35-.75-2.05-.312-.36-.359-.45-.359-.7 0-1 2-1.91 4.406-1.91 1.594 0 3.344.5 4.141 1.25.953.81 1.312 2 1.312 4.25v1.96c-5.203.9-6.859 1.29-9.312 2.25-4.344 1.6-6.391 3.9-6.391 7.1 0 3.6 2.797 5.85 7.25 5.85 3.453 0 6.547-1.41 8.703-3.95.797 2.54 2.047 3.54 4.391 3.54 2.25 0 4.609-1.44 4.609-2.89 0-.36-.203-.61-.5-.61-.203 0-.406.06-.75.21-.703.29-1 .35-1.406.35-1.406 0-1.906-.9-1.906-3.45v-10.05m-4.688 6.1c0 3-.156 3.7-1 5-1.25 1.84-3.5 3.09-5.703 3.09-2.297 0-3.953-1.64-3.953-3.89 0-2.11 1.047-3.61 3.25-4.65 1.547-.71 3.5-1.21 7.406-1.85v2.3m18.891-26.86-8.594.56v2.14h1.75c1.891.05 2.141.36 2.141 2.5v19.46c0 6.95-.297 10.75-.891 12.9h1.891l2.453-3.9c2.047 2.7 4.406 3.95 7.5 3.95 6.203 0 10.75-5.3 10.75-12.55 0-7.2-4.203-12.25-10.203-12.25-3.047 0-4.891 1.05-6.797 3.89v-16.7m5.906 15.36c3.75 0 5.844 3.65 5.844 10.2 0 6.35-2.047 9.89-5.703 9.89-3.953 0-6.297-3.64-6.297-9.79 0-6.71 2.156-10.3 6.156-10.3m35.485 5.4c0-3.15-.547-4.75-2-5.95-1.641-1.36-4.094-2-7.297-2-5.641 0-9.75 2.64-9.75 6.3 0 1.84 1.156 3.05 2.906 3.05 1.594 0 2.703-1.05 2.703-2.55 0-.66-.25-1.35-.75-2.05-.312-.36-.359-.45-.359-.7 0-1 2-1.91 4.406-1.91 1.594 0 3.344.5 4.141 1.25.953.81 1.312 2 1.312 4.25v1.96c-5.203.9-6.859 1.29-9.312 2.25-4.344 1.6-6.391 3.9-6.391 7.1 0 3.6 2.797 5.85 7.25 5.85 3.453 0 6.547-1.41 8.703-3.95.797 2.54 2.047 3.54 4.391 3.54 2.25 0 4.609-1.44 4.609-2.89 0-.36-.203-.61-.5-.61-.203 0-.406.06-.75.21-.703.29-1 .35-1.406.35-1.406 0-1.906-.9-1.906-3.45v-10.05m-4.688 6.1c0 3-.156 3.7-1 5-1.25 1.84-3.5 3.09-5.703 3.09-2.297 0-3.953-1.64-3.953-3.89 0-2.11 1.047-3.61 3.25-4.65 1.547-.71 3.5-1.21 7.406-1.85v2.3m29.438-13.85h-1.75l-1.454 1.8c-1.796-1.4-3.593-2-6.093-2-4.407 0-7.297 2.85-7.297 7.25 0 1.95.64 3.6 1.75 4.6 1.14 1.04 2.297 1.54 5.297 2.25l2.64.6c3.953.94 5.36 1.94 5.36 3.94 0 2.36-2.047 4-4.953 4-4.25 0-7.25-2.69-8.454-7.69h-2v9.44h1.75l1.75-2.04c2.047 1.65 4.297 2.45 6.86 2.45 4.89 0 8.14-3.05 8.14-7.7 0-2.21-.703-3.9-2.093-5.05-1.203-1.05-2.203-1.45-5.25-2.1l-2.5-.56c-2.75-.59-2.75-.59-3.657-1.09-1.093-.5-1.75-1.55-1.75-2.66 0-2.04 1.907-3.44 4.657-3.44 1.89 0 3.453.65 4.843 2 1.11 1.1 1.657 2.1 2.454 4.4h1.75v-8.4m22.937 0h-1.75l-1.453 1.8c-1.797-1.4-3.594-2-6.094-2-4.406 0-7.297 2.85-7.297 7.25 0 1.95.641 3.6 1.75 4.6 1.141 1.04 2.297 1.54 5.297 2.25l2.641.6c3.953.94 5.359 1.94 5.359 3.94 0 2.36-2.047 4-4.953 4-4.25 0-7.25-2.69-8.453-7.69h-2v9.44h1.75l1.75-2.04c2.047 1.65 4.297 2.45 6.859 2.45 4.891 0 8.141-3.05 8.141-7.7 0-2.21-.703-3.9-2.094-5.05-1.203-1.05-2.203-1.45-5.25-2.1l-2.5-.56c-2.75-.59-2.75-.59-3.656-1.09-1.094-.5-1.75-1.55-1.75-2.66 0-2.04 1.906-3.44 4.656-3.44 1.891 0 3.453.65 4.844 2 1.109 1.1 1.656 2.1 2.453 4.4h1.75v-8.4m-228.859-170.4-9.157-23.205c-.25-.656-.406-1.297-.406-1.547 0-.906.86-1.25 3.11-1.25h2v-2.359H57.5v2.36h1c2.313.046 3.063.593 3.86 2.796L75 774.875h2l11.516-29.61c1.5-3.892 2.547-4.798 5.437-4.892h.5v-2.359H80.906v2.36h.954c2.546 0 4.046 1 4.046 2.593 0 .703-.25 1.797-.593 2.798l-7.75 20.61m26.39-15.55-9.39.55v2.15h2.547c1.89.05 2.14.35 2.14 2.5v14.3c-.047.75-.094 1.05-.297 1.3-.343.45-1.297.65-3.453.7h-.344v1.8h12.954v-1.8h-.36c-3.344-.11-3.797-.36-3.797-2.15v-19.35m-2.343-12.452a2.898 2.898 0 0 0-2.907 2.891c0 1.61 1.297 2.906 2.86 2.906 1.64 0 2.937-1.297 2.937-2.906a2.894 2.894 0 0 0-2.89-2.89m20.375 11.701c-6.141 0-10.891 5.45-10.891 12.45 0 6.85 4.797 12.35 10.797 12.35 6 0 10.797-5.5 10.797-12.41 0-6.84-4.797-12.39-10.703-12.39m0 2.14c3.5 0 5.453 3.66 5.453 10.25 0 6.66-1.953 10.25-5.547 10.25-3.594 0-5.547-3.59-5.547-10.19 0-6.81 1.891-10.31 5.641-10.31m22.593-14.95-9.25.562v2.14h2.453c1.844.047 2.094.36 2.094 2.5v27.858c-.047.75-.094 1.05-.297 1.3-.359.45-1.297.65-3.453.7h-.344v1.8h12.938v-1.8h-.344c-3.344-.11-3.797-.36-3.797-2.15v-32.91m18.125 12.81c-6.14 0-10.89 5.45-10.89 12.45 0 6.85 4.797 12.35 10.797 12.35 6 0 10.796-5.5 10.796-12.41 0-6.84-4.796-12.39-10.703-12.39m0 2.14c3.5 0 5.453 3.66 5.453 10.25 0 6.66-1.953 10.25-5.546 10.25-3.594 0-5.547-3.59-5.547-10.19 0-6.81 1.89-10.31 5.64-10.31m22.391-1.39-8.656.55v2.15h1.812c1.891.05 2.141.35 2.141 2.5v14.3c-.047.75-.094 1.05-.297 1.3-.344.45-1.297.65-3.453.7h-.203v1.8h12.656v-1.8h-.203c-3.344-.11-3.797-.36-3.797-2.15v-7.4c0-2.45.344-4.7.906-5.85 1.047-2.25 3.297-3.8 5.438-3.8 1.312 0 2.812.7 3.562 1.75.75 1.09 1.094 2.59 1.094 5v10.45c-.047.75-.094 1.05-.297 1.3-.359.45-1.359.65-3.5.7h-.203v1.8h12.656v-1.8h-.203c-3.297-.11-3.75-.36-3.75-2.15v-10.05c0-3.6-.156-4.5-1.047-6.2-1.25-2.4-3.75-3.85-6.75-3.85-3.25 0-5.703 1.5-7.906 4.8v-4.05m39.891 15.95c-1.594 3.6-3.297 5.05-5.891 5.05-4 0-6.5-3.65-6.5-9.5 0-6.11 2.453-10.11 6.141-10.11 1.5 0 2.812.71 2.812 1.5 0 .16-.062.31-.312.61-.797.95-1 1.45-1 2.3 0 1.65 1.25 2.8 3 2.8 1.812 0 3.062-1.4 3.062-3.4 0-3.4-3.359-5.95-7.812-5.95-6.5 0-11.141 5.3-11.141 12.8 0 7.09 4.25 12 10.453 12 4.438 0 7-2.05 9.141-7.35l-1.953-.75m26.093-3.9c.047-7.5-4.203-12.8-10.297-12.8-6.406 0-11.203 5.55-11.203 13.05 0 7.05 4.547 11.75 11.297 11.75 4.797 0 8.156-2.35 10.203-7.1l-1.75-.95c-2.047 3.85-4.156 5.35-7.5 5.35-2.547 0-4.406-1.05-5.703-3.3-.89-1.5-1.297-3.25-1.25-6h16.203m-16.156-2.16c0-1.54.203-2.64.703-4.04 1.047-3 2.656-4.46 5.11-4.46 3 0 5 2.66 5 6.71 0 1.4-.454 1.79-2.063 1.79h-8.75m26.891-23.45-9.25.562v2.14h2.453c1.844.047 2.094.36 2.094 2.5v27.858c-.047.75-.094 1.05-.297 1.3-.36.45-1.297.65-3.453.7h-.344v1.8h12.937v-1.8h-.343c-3.344-.11-3.797-.36-3.797-2.15v-32.91m15.734 0-9.25.562v2.14h2.453c1.844.047 2.094.36 2.094 2.5v27.858c-.047.75-.094 1.05-.297 1.3-.359.45-1.297.65-3.453.7h-.344v1.8h12.938v-1.8h-.344c-3.344-.11-3.797-.36-3.797-2.15v-32.91m18.125 12.81c-6.141 0-10.891 5.45-10.891 12.45 0 6.85 4.797 12.35 10.797 12.35 6 0 10.797-5.5 10.797-12.41 0-6.84-4.797-12.39-10.703-12.39m0 2.14c3.5 0 5.453 3.66 5.453 10.25 0 6.66-1.953 10.25-5.547 10.25-3.593 0-5.547-3.59-5.547-10.19 0-6.81 1.891-10.31 5.641-10.31m-87.109-171.842-9.157-23.203c-.25-.656-.406-1.297-.406-1.547 0-.906.86-1.25 3.11-1.25h2v-2.359H188.5v2.36h1c2.313.046 3.063.593 3.86 2.796L206 588.873h2l11.516-29.609c1.5-3.89 2.547-4.797 5.437-4.89h.5v-2.36h-13.547v2.36h.954c2.546 0 4.046 1 4.046 2.593 0 .703-.25 1.797-.593 2.797l-7.75 20.61m26.39-15.547-9.39.546v2.157h2.547c1.89.047 2.14.343 2.14 2.5v14.297c-.047.75-.094 1.046-.297 1.296-.343.454-1.297.657-3.453.704h-.344v1.796h12.954v-1.796h-.36c-3.344-.11-3.797-.36-3.797-2.157v-19.343m-2.343-12.454a2.898 2.898 0 0 0-2.907 2.891c0 1.61 1.297 2.906 2.86 2.906 1.64 0 2.937-1.297 2.937-2.906a2.894 2.894 0 0 0-2.89-2.89m20.375 11.703c-6.141 0-10.891 5.453-10.891 12.453 0 6.843 4.797 12.343 10.797 12.343 6 0 10.797-5.5 10.797-12.406 0-6.844-4.797-12.39-10.703-12.39m0 2.14c3.5 0 5.453 3.656 5.453 10.25 0 6.656-1.953 10.25-5.547 10.25-3.594 0-5.547-3.594-5.547-10.187 0-6.813 1.891-10.313 5.641-10.313m22.593-14.953-9.25.563v2.14h2.453c1.844.047 2.094.36 2.094 2.5v27.86c-.047.75-.094 1.046-.297 1.296-.359.454-1.297.657-3.453.704h-.344v1.796h12.938v-1.796h-.344c-3.344-.11-3.797-.36-3.797-2.157v-32.906m28.125 20.766c0-3.157-.547-4.75-2-5.953-1.64-1.36-4.093-2-7.297-2-5.64 0-9.75 2.64-9.75 6.296 0 1.844 1.157 3.047 2.907 3.047 1.593 0 2.703-1.047 2.703-2.547 0-.656-.25-1.343-.75-2.046-.313-.36-.36-.454-.36-.704 0-1 2-1.906 4.407-1.906 1.593 0 3.343.5 4.14 1.25.953.813 1.313 2 1.313 4.25v1.953c-5.203.907-6.86 1.297-9.313 2.25-4.343 1.61-6.39 3.907-6.39 7.11 0 3.593 2.797 5.843 7.25 5.843 3.453 0 6.547-1.406 8.703-3.953.797 2.547 2.047 3.547 4.39 3.547 2.25 0 4.61-1.437 4.61-2.89 0-.36-.203-.61-.5-.61-.203 0-.406.063-.75.203-.703.297-1 .36-1.406.36-1.407 0-1.907-.907-1.907-3.453V572.03m-4.687 6.093c0 3-.156 3.704-1 5-1.25 1.844-3.5 3.094-5.703 3.094-2.297 0-3.953-1.64-3.953-3.89 0-2.11 1.046-3.61 3.25-4.657 1.546-.703 3.5-1.203 7.406-1.843v2.296m-108.453-183.75-9.157-23.203c-.25-.656-.406-1.297-.406-1.547 0-.906.86-1.25 3.11-1.25h2v-2.359H170.5v2.36h1c2.313.046 3.063.593 3.86 2.796L188 402.873h2l11.516-29.609c1.5-3.89 2.547-4.797 5.437-4.89h.5v-2.36h-13.547v2.36h.954c2.546 0 4.046 1 4.046 2.593 0 .703-.25 1.797-.593 2.797l-7.75 20.61m26.39-15.547-9.39.546v2.157h2.547c1.89.047 2.14.343 2.14 2.5v14.297c-.047.75-.094 1.046-.297 1.296-.343.454-1.297.657-3.453.704h-.344v1.796h12.954v-1.796h-.36c-3.344-.11-3.797-.36-3.797-2.157v-19.343m-2.343-12.454a2.898 2.898 0 0 0-2.907 2.891c0 1.61 1.297 2.906 2.86 2.906 1.64 0 2.937-1.297 2.937-2.906a2.894 2.894 0 0 0-2.89-2.89m20.375 11.703c-6.141 0-10.891 5.453-10.891 12.453 0 6.843 4.797 12.343 10.797 12.343 6 0 10.797-5.5 10.797-12.406 0-6.844-4.797-12.39-10.703-12.39m0 2.14c3.5 0 5.453 3.656 5.453 10.25 0 6.656-1.953 10.25-5.547 10.25-3.594 0-5.547-3.594-5.547-10.187 0-6.813 1.891-10.313 5.641-10.313m22.593-14.953-9.25.563v2.14h2.453c1.844.047 2.094.36 2.094 2.5v27.86c-.047.75-.094 1.046-.297 1.296-.359.454-1.297.657-3.453.704h-.344v1.796h12.938v-1.796h-.344c-3.344-.11-3.797-.36-3.797-2.157v-32.906m15.828 13.563-9.39.546v2.157h2.547c1.89.047 2.14.343 2.14 2.5v14.297c-.047.75-.093 1.046-.297 1.296-.343.454-1.296.657-3.453.704h-.343v1.796h12.953v-1.796h-.36c-3.343-.11-3.797-.36-3.797-2.157v-19.343m-2.343-12.454a2.898 2.898 0 0 0-2.907 2.891c0 1.61 1.297 2.906 2.86 2.906 1.64 0 2.937-1.297 2.937-2.906a2.894 2.894 0 0 0-2.89-2.89m17.781 12.453-8.656.546v2.157H282c1.891.047 2.141.343 2.141 2.5v14.297c-.047.75-.094 1.046-.297 1.296-.344.454-1.297.657-3.453.704h-.203v1.796h12.656v-1.796h-.203c-3.344-.11-3.797-.36-3.797-2.157v-7.39c0-2.453.344-4.703.906-5.86 1.047-2.25 3.297-3.797 5.438-3.797 1.312 0 2.812.704 3.562 1.75.75 1.094 1.094 2.594 1.094 5v10.454c-.047.75-.094 1.046-.297 1.296-.359.454-1.359.657-3.5.704h-.203v1.796H308.5v-1.796h-.203c-3.297-.11-3.75-.36-3.75-2.157v-10.047c0-3.593-.156-4.5-1.047-6.203-1.25-2.39-3.75-3.843-6.75-3.843-3.25 0-5.703 1.5-7.906 4.796v-4.046M46.406 158.31h-1.89l-1.953 3c-3.25-2.547-5.453-3.406-9.11-3.406-3.953 0-7.047 1.11-10.203 3.656-4.937 4-7.25 9.047-7.25 15.797 0 5.11 1.453 9.36 4.406 12.61 3.094 3.5 7.704 5.546 12.5 5.546 4.204 0 7.157-1.296 10.407-4.546l1.843 4.5h2.11v-11c0-2.547 0-2.657.297-3.11.453-.547 1.343-.687 4.203-.687h.75v-2.36H36.61v2.36h.953c4.203 0 4.547.25 4.547 3.047 0 2.14-.344 4.093-1 5.296-1.25 2.454-4.454 4.157-7.704 4.157s-6.453-1.657-8.156-4.157c-1.844-2.796-2.64-6.296-2.64-11.656 0-11.14 3.703-17.094 10.64-17.094 5.703 0 9.656 4.094 11.703 12.094h2.157l-.704-14.047M63 157.904l-9.25.563v2.14h2.453c1.844.047 2.094.36 2.094 2.5v27.86c-.047.75-.094 1.046-.297 1.296-.359.454-1.297.657-3.453.704h-.344v1.796h12.938v-1.796h-.344c-3.344-.11-3.797-.36-3.797-2.157v-32.906m18.125 12.813c-6.14 0-10.89 5.453-10.89 12.453 0 6.843 4.796 12.343 10.796 12.343 6 0 10.797-5.5 10.797-12.406 0-6.844-4.797-12.39-10.703-12.39m0 2.14c3.5 0 5.453 3.656 5.453 10.25 0 6.656-1.953 10.25-5.547 10.25-3.593 0-5.546-3.594-5.546-10.187 0-6.813 1.89-10.313 5.64-10.313m31.735 14.563c-1.594 3.593-3.297 5.047-5.891 5.047-4 0-6.5-3.657-6.5-9.5 0-6.11 2.453-10.11 6.141-10.11 1.5 0 2.812.703 2.812 1.5 0 .156-.062.313-.312.61-.797.953-1 1.453-1 2.296 0 1.657 1.25 2.797 3 2.797 1.812 0 3.062-1.39 3.062-3.39 0-3.407-3.359-5.953-7.812-5.953-6.5 0-11.141 5.296-11.141 12.796 0 7.094 4.25 12 10.453 12 4.438 0 7-2.046 9.141-7.343l-1.953-.75m12.203-4.75v-24.766l-9.25.563v2.14h2.39c1.907.047 2.157.36 2.157 2.5v27.906c-.047.704-.094 1-.297 1.25-.36.454-1.297.657-3.453.704h-.204v1.796h12.657v-1.796h-.203c-3.344-.11-3.797-.36-3.797-2.157v-5.047l3.047-2.906 5.953 8.36c.25.39.343.64.343.843 0 .703-.546.907-2.203.907h-.937v1.796h13.203v-1.796c-2.813-.25-3.813-.86-5.859-3.454l-7.094-9.703 2.25-2.203c2.937-2.844 5.047-3.937 8.453-4.344v-1.796h-13.156v1.796h1.547c1.593 0 2.343.297 2.343.954 0 .546-.343 1.14-1.14 1.953l-6.75 6.5m42.031.843c.047-7.5-4.203-12.796-10.297-12.796-6.406 0-11.203 5.546-11.203 13.046 0 7.047 4.547 11.75 11.297 11.75 4.797 0 8.156-2.343 10.203-7.093l-1.75-.953c-2.047 3.843-4.156 5.343-7.5 5.343-2.547 0-4.406-1.047-5.703-3.297-.891-1.5-1.297-3.25-1.25-6h16.203m-16.156-2.156c0-1.547.203-2.64.703-4.047 1.047-3 2.656-4.453 5.109-4.453 3 0 5 2.656 5 6.703 0 1.407-.453 1.797-2.062 1.797h-8.75m27.89-9.89-8.656.546v2.157h1.813c1.89.047 2.14.343 2.14 2.5v14.297c-.047.75-.094 1.046-.297 1.296-.343.454-1.297.657-3.453.704h-.203v1.796h12.656v-1.796h-.203c-3.344-.11-3.797-.36-3.797-2.157v-7.39c0-2.453.344-4.703.907-5.86 1.046-2.25 3.296-3.797 5.437-3.797 1.313 0 2.813.704 3.563 1.75.75 1.094 1.093 2.594 1.093 5v10.454c-.047.75-.093 1.046-.297 1.296-.359.454-1.359.657-3.5.704h-.203v1.796h12.657v-1.796h-.204c-3.296-.11-3.75-.36-3.75-2.157v-10.047c0-3.593-.156-4.5-1.046-6.203-1.25-2.39-3.75-3.843-6.75-3.843-3.25 0-5.704 1.5-7.907 4.796v-4.046m40.047-.547h-1.75l-1.453 1.797c-1.797-1.407-3.594-2-6.094-2-4.406 0-7.297 2.843-7.297 7.25 0 1.953.641 3.593 1.75 4.593 1.141 1.047 2.297 1.547 5.297 2.25l2.641.61c3.953.937 5.359 1.937 5.359 3.937 0 2.36-2.047 4-4.953 4-4.25 0-7.25-2.687-8.453-7.687h-2v9.437h1.75l1.75-2.047c2.047 1.657 4.297 2.453 6.859 2.453 4.891 0 8.141-3.046 8.141-7.703 0-2.203-.703-3.89-2.094-5.047-1.203-1.046-2.203-1.453-5.25-2.093l-2.5-.563c-2.75-.594-2.75-.594-3.656-1.094-1.094-.5-1.75-1.546-1.75-2.656 0-2.047 1.906-3.437 4.656-3.437 1.891 0 3.453.64 4.844 2 1.109 1.093 1.656 2.093 2.453 4.39h1.75v-8.39m12.844.547-8.641.546v2.157h1.797c1.891.047 2.141.343 2.141 2.5v24.437c-.047.703-.094 1-.297 1.25-.344.453-1.297.656-3.453.703h-.188v1.797h13v-1.797h-.562c-3.344-.093-3.797-.343-3.797-2.14v-9.453c1.656 2.89 3.5 4.046 6.609 4.046 3.047 0 5.547-1.296 7.344-3.75 1.75-2.406 2.75-5.5 2.75-8.75s-1-6.296-2.844-8.703c-1.859-2.39-4.156-3.593-6.953-3.593-3.109 0-5.156 1.296-6.906 4.296v-3.546m6 1.953c3.453 0 5.453 3.437 5.453 9.297 0 6.453-2 10.093-5.594 10.093-3.609 0-5.906-3.703-5.906-9.453 0-6.25 2.25-9.937 6.047-9.937m22.937-1.953-9.39.546v2.157h2.547c1.89.047 2.14.343 2.14 2.5v14.297c-.047.75-.093 1.046-.297 1.296-.343.454-1.296.657-3.453.704h-.343v1.796h12.953v-1.796h-.36c-3.343-.11-3.797-.36-3.797-2.157v-19.343m-2.343-12.454a2.898 2.898 0 0 0-2.907 2.891c0 1.61 1.297 2.906 2.86 2.906 1.64 0 2.937-1.297 2.937-2.906a2.894 2.894 0 0 0-2.89-2.89m31.031 24.5c.047-7.5-4.203-12.797-10.297-12.797-6.406 0-11.203 5.546-11.203 13.046 0 7.047 4.547 11.75 11.297 11.75 4.797 0 8.156-2.343 10.203-7.093l-1.75-.953c-2.047 3.843-4.156 5.343-7.5 5.343-2.547 0-4.406-1.047-5.703-3.297-.891-1.5-1.297-3.25-1.25-6h16.203m-16.156-2.156c0-1.547.203-2.64.703-4.047 1.047-3 2.656-4.453 5.109-4.453 3 0 5 2.656 5 6.703 0 1.407-.453 1.797-2.062 1.797h-8.75m26.89-23.453-9.25.563v2.14h2.453c1.844.047 2.094.36 2.094 2.5v27.86c-.047.75-.094 1.046-.297 1.296-.359.454-1.297.657-3.453.704h-.344v1.796h12.938v-1.796h-.344c-3.344-.11-3.797-.36-3.797-2.157v-32.906"/>
  <path class="TieSegment" stroke="#000" stroke-width="1.74" stroke-linecap="round" stroke-linejoin="round" fill-rule="evenodd" d="M1256.348 113.063c9.61-13.392 38.46-13.392 48.08 0-9.62-6.448-38.47-6.448-48.08 0m231 0c26.5-23.614 106.01-23.614 132.52 0-26.51-16.67-106.02-16.67-132.52 0"/>
  <path class="BarLine" stroke="#000" stroke-width="4.46" stroke-linejoin="bevel" d="M352.418 891.655v101.93m1185.64-101.93v101.93m1004.85-101.93v101.93"/>
  <path class="BarLine" stroke="#000" stroke-width="13.64" stroke-linejoin="bevel" d="M2560.268 891.655v101.93"/>
  <path class="BarLine" stroke="#000" stroke-width="4.46" stroke-linejoin="bevel" d="M352.418 705.66v187.365m1185.64-187.365v187.365m1004.85-187.365v187.365"/>
  <path class="BarLine" stroke="#000" stroke-width="13.64" stroke-linejoin="bevel" d="M2560.268 705.66v187.365"/>
  <path class="BarLine" stroke="#000" stroke-width="4.46" stroke-linejoin="bevel" d="M352.418 519.66v187.363m1185.64-187.363v187.363m1004.85-187.363v187.363"/>
  <path class="BarLine" stroke="#000" stroke-width="13.64" stroke-linejoin="bevel" d="M2560.268 519.66v187.363"/>
  <path class="BarLine" stroke="#000" stroke-width="4.46" stroke-linejoin="bevel" d="M352.418 333.66v187.363m1185.64-187.363v187.363m1004.85-187.363v187.363"/>
  <path class="BarLine" stroke="#000" stroke-width="13.64" stroke-linejoin="bevel" d="M2560.268 333.66v187.363"/>
  <path class="BarLine" stroke="#000" stroke-width="4.46" stroke-linejoin="bevel" d="M352.418 130.3v204.723M1538.058 130.3v101.927M2542.908 130.3v101.927"/>
  <path class="BarLine" stroke="#000" stroke-width="13.64" stroke-linejoin="bevel" d="M2560.268 130.3v101.927"/>
  <path class="Accidental" d="M1077.948 932.116c.605-.108 1.101-.806 1.101-1.395v-5.859c0-.79-.605-1.38-1.395-1.38h-.202l-3.27.698v-14.787h-2.775v15.376l-8.834 1.783V912.57h-2.775v14.585l-3.875.79c-.589.094-1.085.791-1.085 1.38v5.952-.186c0 .79.589 1.38 1.395 1.38h.294l3.271-.698v16.368l-3.875.806c-.589.093-1.085.79-1.085 1.38v5.75c0 .806.589 1.395 1.395 1.395h.294l3.271-.697v14.787h2.775v-15.376l8.834-1.783v13.981h2.775V957.8l3.767-.698c.604-.093 1.1-.79 1.1-1.38v-5.858c0-.79-.605-1.38-1.395-1.38h-.202l-3.27.682v-16.368l3.767-.682m-15.377 19.53v-16.46l8.836-1.783v16.368l-8.835 1.875m15.375-242.732c.605-.108 1.101-.806 1.101-1.395v-5.859c0-.79-.605-1.38-1.395-1.38h-.202l-3.27.698v-14.787h-2.775v15.376l-8.834 1.783v-13.981h-2.775v14.585l-3.875.79c-.589.094-1.085.791-1.085 1.38v5.952-.186c0 .79.589 1.38 1.395 1.38h.294l3.271-.698v16.368l-3.875.806c-.589.093-1.085.79-1.085 1.38v5.75c0 .806.589 1.395 1.395 1.395h.294l3.271-.697v14.787h2.775v-15.376l8.834-1.783v13.981h2.775v-14.585l3.767-.698c.604-.093 1.1-.79 1.1-1.38v-5.858c0-.79-.605-1.38-1.395-1.38h-.202l-3.27.682v-16.368l3.767-.682m-15.377 19.53v-16.46l8.836-1.783v16.368l-8.835 1.875m506.053 11.966c.14 0 .248-.03.356-.108a.659.659 0 0 0 .249-.884c-.109-.201-10.246-20.119 0-39.788a.689.689 0 0 0-.248-.884.678.678 0 0 0-.9.17c-.247.342-6.215 8.48-6.215 20.507 0 12.028 5.968 20.352 6.216 20.708.139.17.34.28.542.28m21.483-39.138c-.186-.202-.496-.295-.79-.295-.094 0-.295.093-.388.093l-12.509 3.472v-17.36h-2.774v49.104c0 .79.589 1.287 1.395 1.287h.388l12.508-3.472v17.36h2.666v-49.104c0-.388-.186-.884-.496-1.085m-2.17 24.598-11.517 3.178v-16.275l11.517-3.27v16.367m7.691-27.435a.572.572 0 0 0-.356.109.659.659 0 0 0-.248.883c.108.202 10.245 20.12 0 39.789a.69.69 0 0 0 .247.883.662.662 0 0 0 .9-.17c.247-.341 6.215-8.479 6.215-20.507 0-12.028-5.968-20.351-6.215-20.708a.722.722 0 0 0-.543-.279m809.739 35.278c.604-.108 1.1-.806 1.1-1.395v-5.859c0-.79-.605-1.38-1.395-1.38h-.202l-3.27.698v-14.787h-2.775v15.376l-8.835 1.783v-13.981h-2.774v14.585l-3.875.79c-.589.094-1.085.791-1.085 1.38v5.952-.186c0 .79.589 1.38 1.395 1.38h.294l3.271-.698v16.368l-3.875.806c-.589.093-1.085.79-1.085 1.38v5.75c0 .806.589 1.395 1.395 1.395h.294l3.271-.697v14.787h2.775v-15.376l8.834-1.783v13.981h2.775v-14.585l3.767-.698c.604-.093 1.1-.79 1.1-1.38v-5.858c0-.79-.605-1.38-1.395-1.38h-.202l-3.27.682v-16.368l3.767-.682m-15.377 19.53v-16.46l8.835-1.783v16.368l-8.835 1.875m-1312.044-644.49c.605-.108 1.101-.806 1.101-1.395V101.5c0-.79-.605-1.38-1.395-1.38h-.202l-3.27.698V86.031h-2.775v15.376l-8.834 1.783V89.209h-2.775v14.585l-3.875.79c-.589.094-1.085.791-1.085 1.38v5.952-.186c0 .79.589 1.38 1.395 1.38h.294l3.271-.698v16.368l-3.875.806c-.589.093-1.085.79-1.085 1.38v5.75c0 .806.589 1.395 1.395 1.395h.294l3.271-.697V152.2h2.775v-15.376l8.834-1.783v13.981h2.775v-14.585l3.767-.698c.604-.093 1.1-.79 1.1-1.38v-5.858c0-.79-.605-1.38-1.395-1.38h-.202l-3.27.682v-16.368l3.767-.682m-15.377 19.53v-16.46l8.836-1.783v16.368l-8.835 1.875m595.413 11.967c.14 0 .248-.03.356-.108a.659.659 0 0 0 .249-.884c-.109-.201-10.246-20.119 0-39.788a.69.69 0 0 0-.248-.884.678.678 0 0 0-.9.17c-.247.342-6.215 8.48-6.215 20.507 0 12.028 5.968 20.352 6.216 20.708.139.17.34.28.542.28m21.483-39.138c-.186-.202-.496-.295-.79-.295-.094 0-.295.093-.388.093l-12.508 3.472v-17.36h-2.775v49.104c0 .79.589 1.287 1.395 1.287h.388l12.508-3.472v17.36h2.666v-49.104c0-.388-.186-.884-.496-1.085m-2.17 24.598-11.517 3.178v-16.275l11.517-3.27v16.367m7.691-27.435a.572.572 0 0 0-.356.109.659.659 0 0 0-.249.883c.109.202 10.246 20.12 0 39.789a.689.689 0 0 0 .248.883.662.662 0 0 0 .9-.17c.247-.341 6.215-8.479 6.215-20.507 0-12.028-5.968-20.351-6.216-20.708a.722.722 0 0 0-.542-.279" style="stroke-width:.992"/>
  <path class="LedgerLine" stroke="#000" stroke-width="3.97" stroke-linejoin="bevel" d="M1168.958 106.863h49.6m1009.67 0h49.59m67.58 0h49.59"/>
  <path class="Stem" stroke="#000" stroke-width="2.73" stroke-linejoin="bevel" d="M632.403 945.955v83.47m454.205-83.47v83.47m523.34-95.87v83.47m476.01-120.67v71.07m93.73-71.07v71.07m117.17-71.07v164.07m117.17-77.27v77.27m58.58-77.27v77.27M632.403 735.157v71.068m115.5-71.068v71.068m92.405-95.868v71.068m57.75-83.468v91.738m57.75-79.338v87.598m57.75-62.798v71.068m73.05-83.468v83.468m523.34-83.468v77.268m147.94-77.268v77.268m93.74-77.268v108.268m58.58-71.07v71.07m58.58-108.268v108.268m58.59-95.868v95.868m58.58-83.47v64.87m93.73-64.87v64.87m117.17-64.87v77.27m117.17-77.27v77.27m58.58-102.068v102.068M661.907 592.25v-83.627m454.201 71.227v-65.027m92.4 65.027v-65.027m115.5 65.027v-77.427m115.5 77.427v-81.56m57.75 69.16v-71.227m112.69 65.334v64.866m147.94-64.866v64.866m93.74-64.866v83.466m58.58-71.066v71.066m58.58-83.466v83.466m58.59-95.866v95.866m88.08-65.173v-65.027m93.74 65.027v-65.027m117.16 65.027v-77.427m58.59 89.827v-83.627m58.58 108.427V514.822m58.58 89.828v-83.627M632.403 375.557v83.466m454.205-71.066v71.066m92.4-71.066v71.066m145-77.573v-89.827m115.5 102.227v-85.693m57.75 110.493V316.422m142.19 89.828v-71.227m147.95 71.227v-71.227m93.73 71.227v-71.227m117.17 108.427v-91.893m58.58 79.493v-71.227m58.58 58.827v-77.427m93.74 77.427v-77.427m117.16 77.427v-83.627m58.59 71.227v-79.493m58.58 91.893V318.49m58.58 62.96v-71.227M632.403 134.997v71.066m57.75-83.466v77.266m150.155-64.866v89.666m115.5-77.266v77.266m57.75-89.666v89.666m73.05-102.066v77.266m92.4-102.066V203.68m57.75-68.683v71.066m57.75-71.066v89.666m57.75-77.266v77.266m115.5-89.666v89.666m142.19-89.666v89.666m89.36-102.066v105.811m58.58-81.011v83.466m93.74-108.266v83.466m58.58-46.266v71.066m175.75-95.866v71.066m93.73-83.466v68.205m58.59-80.605v71.066m58.58-33.866v77.266m58.58-126.866v117.566m58.59-92.766v83.466"/>
  <path class="Note" d="M662.287 934.55c-1.783-3.27-5.549-5.053-10.121-5.053-3.364 0-7.038.992-10.618 2.867-6.541 3.472-10.509 9.331-10.509 14.384 0 1.395.294 2.79.992 4.077 1.782 3.286 5.549 4.975 10.121 4.975 3.364 0 7.038-.899 10.618-2.774 6.541-3.488 10.509-9.347 10.509-14.415 0-1.38-.295-2.775-.992-4.061m-4.263 6.742c-1.689 1.69-5.068 3.767-8.633 5.766-3.565 1.984-7.145 3.472-9.517 3.968-.496.109-.992.202-1.488.202-1.597 0-2.79-.59-3.472-1.891a3.212 3.212 0 0 1-.496-1.69c0-1.085.682-2.387 1.782-3.472 1.69-1.69 4.96-3.766 8.526-5.75 3.58-1.984 7.145-3.472 9.532-3.968.496-.109.992-.202 1.488-.202 1.581 0 2.868.59 3.565 1.876.295.496.403 1.1.403 1.69 0 1.1-.604 2.278-1.69 3.471m458.462-6.742c-1.782-3.27-5.549-5.053-10.121-5.053-3.364 0-7.037.992-10.618 2.867-6.541 3.472-10.509 9.331-10.509 14.384 0 1.395.294 2.79.992 4.077 1.782 3.286 5.549 4.975 10.121 4.975 3.364 0 7.037-.899 10.618-2.774 6.541-3.488 10.509-9.347 10.509-14.415 0-1.38-.294-2.775-.992-4.061m-4.263 6.742c-1.689 1.69-5.068 3.767-8.633 5.766-3.565 1.984-7.145 3.472-9.517 3.968-.496.109-.992.202-1.488.202-1.597 0-2.79-.59-3.472-1.891a3.212 3.212 0 0 1-.496-1.69c0-1.085.682-2.387 1.782-3.472 1.69-1.69 4.96-3.766 8.526-5.75 3.58-1.984 7.145-3.472 9.532-3.968.496-.109.992-.202 1.488-.202 1.581 0 2.868.59 3.565 1.876.295.496.403 1.1.403 1.69 0 1.1-.604 2.278-1.69 3.471m527.603-19.142c-1.782-3.27-5.549-5.053-10.121-5.053-3.364 0-7.037.992-10.618 2.867-6.541 3.472-10.509 9.331-10.509 14.384 0 1.395.294 2.79.992 4.077 1.782 3.286 5.549 4.975 10.121 4.975 3.364 0 7.037-.899 10.618-2.774 6.541-3.488 10.509-9.347 10.509-14.415 0-1.38-.294-2.775-.992-4.061m-4.263 6.742c-1.689 1.69-5.068 3.767-8.633 5.766-3.565 1.984-7.146 3.472-9.517 3.968-.496.109-.992.202-1.488.202-1.597 0-2.79-.59-3.472-1.891a3.212 3.212 0 0 1-.496-1.69c0-1.085.682-2.387 1.782-3.472 1.69-1.69 4.96-3.766 8.525-5.75 3.581-1.984 7.146-3.472 9.533-3.968.496-.109.992-.202 1.488-.202 1.581 0 2.868.59 3.565 1.876.295.496.403 1.1.403 1.69 0 1.1-.604 2.278-1.69 3.471m480.283-43.896c-1.782-3.286-5.549-5.068-10.121-5.068-3.364 0-7.038.992-10.618 2.883-6.541 3.472-10.509 9.315-10.509 14.384 0 1.38.294 2.774.992 4.06 1.782 3.271 5.549 4.96 10.121 4.96 3.364 0 7.038-.883 10.618-2.774 6.541-3.472 10.509-9.33 10.509-14.384 0-1.395-.294-2.774-.992-4.06m93.73-.001c-1.782-3.286-5.549-5.068-10.121-5.068-3.364 0-7.038.992-10.618 2.883-6.541 3.472-10.509 9.315-10.509 14.384 0 1.38.294 2.774.992 4.06 1.782 3.271 5.549 4.96 10.121 4.96 3.364 0 7.038-.883 10.618-2.774 6.541-3.472 10.509-9.33 10.509-14.384 0-1.395-.294-2.774-.992-4.06m117.17-.001c-1.782-3.286-5.549-5.068-10.121-5.068-3.364 0-7.038.992-10.618 2.883-6.541 3.472-10.509 9.315-10.509 14.384 0 1.38.294 2.774.992 4.06 1.783 3.271 5.549 4.96 10.122 4.96 3.363 0 7.037-.883 10.617-2.774 6.541-3.472 10.509-9.33 10.509-14.384 0-1.395-.294-2.774-.992-4.06m117.16 86.799c-1.782-3.286-5.549-5.068-10.121-5.068-3.364 0-7.038.992-10.618 2.883-6.541 3.472-10.509 9.315-10.509 14.384 0 1.38.294 2.774.992 4.06 1.782 3.271 5.549 4.96 10.121 4.96 3.364 0 7.038-.883 10.618-2.774 6.541-3.472 10.509-9.33 10.509-14.384 0-1.395-.294-2.774-.992-4.06m58.59-.001c-1.782-3.286-5.549-5.068-10.121-5.068-3.364 0-7.038.992-10.618 2.883-6.541 3.472-10.509 9.315-10.509 14.384 0 1.38.294 2.774.992 4.06 1.783 3.271 5.549 4.96 10.122 4.96 3.363 0 7.037-.883 10.617-2.774 6.541-3.472 10.509-9.33 10.509-14.384 0-1.395-.294-2.774-.992-4.06M662.287 723.794c-1.783-3.286-5.549-5.068-10.121-5.068-3.364 0-7.038.992-10.618 2.883-6.541 3.472-10.509 9.315-10.509 14.384 0 1.38.294 2.774.992 4.06 1.782 3.271 5.549 4.96 10.121 4.96 3.364 0 7.038-.883 10.618-2.774 6.541-3.472 10.509-9.33 10.509-14.384 0-1.395-.295-2.774-.992-4.06m115.5-.001c-1.783-3.286-5.549-5.068-10.121-5.068-3.364 0-7.038.992-10.618 2.883-6.541 3.472-10.509 9.315-10.509 14.384 0 1.38.294 2.774.992 4.06 1.782 3.271 5.549 4.96 10.121 4.96 3.364 0 7.038-.883 10.618-2.774 6.541-3.472 10.509-9.33 10.509-14.384 0-1.395-.295-2.774-.992-4.06m92.399-24.801c-1.783-3.286-5.549-5.068-10.121-5.068-3.364 0-7.038.992-10.618 2.883-6.541 3.472-10.509 9.315-10.509 14.384 0 1.38.294 2.774.992 4.06 1.782 3.271 5.549 4.96 10.121 4.96 3.364 0 7.038-.883 10.618-2.774 6.541-3.472 10.509-9.33 10.509-14.384 0-1.395-.295-2.774-.992-4.06m57.75-12.401c-1.783-3.286-5.549-5.068-10.121-5.068-3.364 0-7.038.992-10.618 2.883-6.541 3.472-10.509 9.315-10.509 14.384 0 1.38.294 2.774.992 4.06 1.782 3.271 5.549 4.96 10.121 4.96 3.364 0 7.038-.883 10.618-2.774 6.541-3.472 10.509-9.33 10.509-14.384 0-1.395-.295-2.774-.992-4.06m57.75 12.399c-1.783-3.286-5.549-5.068-10.121-5.068-3.364 0-7.038.992-10.618 2.883-6.541 3.472-10.509 9.315-10.509 14.384 0 1.38.294 2.774.992 4.06 1.782 3.271 5.549 4.96 10.121 4.96 3.364 0 7.038-.883 10.618-2.774 6.541-3.472 10.509-9.33 10.509-14.384 0-1.395-.295-2.774-.992-4.06m57.75 24.799c-1.782-3.286-5.549-5.068-10.121-5.068-3.364 0-7.038.992-10.618 2.883-6.541 3.472-10.509 9.315-10.509 14.384 0 1.38.294 2.774.992 4.06 1.782 3.271 5.549 4.96 10.121 4.96 3.364 0 7.037-.883 10.618-2.774 6.541-3.472 10.509-9.33 10.509-14.384 0-1.395-.295-2.774-.992-4.06m73.05-12.447c-1.782-3.27-5.549-5.053-10.121-5.053-3.364 0-7.037.992-10.618 2.867-6.541 3.472-10.509 9.331-10.509 14.384 0 1.395.294 2.79.992 4.077 1.782 3.286 5.549 4.975 10.121 4.975 3.364 0 7.037-.899 10.618-2.774 6.541-3.488 10.509-9.347 10.509-14.415 0-1.38-.294-2.775-.992-4.061m-4.263 6.742c-1.689 1.69-5.068 3.767-8.633 5.766-3.565 1.984-7.145 3.472-9.517 3.968-.496.109-.992.202-1.488.202-1.597 0-2.79-.59-3.472-1.891a3.212 3.212 0 0 1-.496-1.69c0-1.085.682-2.387 1.782-3.472 1.69-1.69 4.96-3.766 8.526-5.75 3.58-1.984 7.145-3.472 9.532-3.968.496-.109.992-.202 1.488-.202 1.581 0 2.868.59 3.565 1.876.295.496.403 1.1.403 1.69 0 1.1-.604 2.278-1.69 3.471m527.603-6.696c-1.782-3.286-5.549-5.068-10.121-5.068-3.364 0-7.037.992-10.618 2.883-6.541 3.472-10.509 9.315-10.509 14.384 0 1.38.294 2.774.992 4.06 1.782 3.271 5.549 4.96 10.121 4.96 3.364 0 7.037-.883 10.618-2.774 6.541-3.472 10.509-9.33 10.509-14.384 0-1.395-.294-2.774-.992-4.06m147.95-.001c-1.782-3.286-5.549-5.068-10.121-5.068-3.364 0-7.037.992-10.618 2.883-6.541 3.472-10.509 9.315-10.509 14.384 0 1.38.294 2.774.992 4.06 1.782 3.271 5.549 4.96 10.121 4.96 3.364 0 7.037-.883 10.618-2.774 6.541-3.472 10.509-9.33 10.509-14.384 0-1.395-.294-2.774-.992-4.06m93.73-.001c-1.782-3.286-5.549-5.068-10.121-5.068-3.364 0-7.037.992-10.618 2.883-6.541 3.472-10.509 9.315-10.509 14.384 0 1.38.294 2.774.992 4.06 1.782 3.271 5.549 4.96 10.121 4.96 3.364 0 7.037-.883 10.618-2.774 6.541-3.472 10.509-9.33 10.509-14.384 0-1.395-.294-2.774-.992-4.06m58.59 37.201c-1.782-3.286-5.549-5.068-10.121-5.068-3.364 0-7.037.992-10.618 2.883-6.541 3.472-10.509 9.315-10.509 14.384 0 1.38.294 2.774.992 4.06 1.782 3.271 5.549 4.96 10.121 4.96 3.364 0 7.037-.883 10.618-2.774 6.541-3.472 10.509-9.33 10.509-14.384 0-1.395-.294-2.774-.992-4.06m58.58-37.203c-1.782-3.286-5.549-5.068-10.121-5.068-3.364 0-7.038.992-10.618 2.883-6.541 3.472-10.509 9.315-10.509 14.384 0 1.38.294 2.774.992 4.06 1.782 3.271 5.549 4.96 10.121 4.96 3.364 0 7.037-.883 10.618-2.774 6.541-3.472 10.509-9.33 10.509-14.384 0-1.395-.294-2.774-.992-4.06m58.58 12.399c-1.782-3.286-5.549-5.068-10.121-5.068-3.364 0-7.038.992-10.618 2.883-6.541 3.472-10.509 9.315-10.509 14.384 0 1.38.294 2.774.992 4.06 1.782 3.271 5.549 4.96 10.121 4.96 3.364 0 7.037-.883 10.618-2.774 6.541-3.472 10.509-9.33 10.509-14.384 0-1.395-.295-2.774-.992-4.06m58.59 12.399c-1.782-3.286-5.549-5.068-10.121-5.068-3.364 0-7.038.992-10.618 2.883-6.541 3.472-10.509 9.315-10.509 14.384 0 1.38.294 2.774.992 4.06 1.782 3.271 5.549 4.96 10.121 4.96 3.364 0 7.038-.883 10.618-2.774 6.541-3.472 10.509-9.33 10.509-14.384 0-1.395-.294-2.774-.992-4.06m93.73-.001c-1.782-3.286-5.549-5.068-10.121-5.068-3.364 0-7.038.992-10.618 2.883-6.541 3.472-10.509 9.315-10.509 14.384 0 1.38.294 2.774.992 4.06 1.782 3.271 5.549 4.96 10.121 4.96 3.364 0 7.038-.883 10.618-2.774 6.541-3.472 10.509-9.33 10.509-14.384 0-1.395-.294-2.774-.992-4.06m117.17-.001c-1.782-3.286-5.549-5.068-10.121-5.068-3.364 0-7.038.992-10.618 2.883-6.541 3.472-10.509 9.315-10.509 14.384 0 1.38.294 2.774.992 4.06 1.783 3.271 5.549 4.96 10.122 4.96 3.363 0 7.037-.883 10.617-2.774 6.541-3.472 10.509-9.33 10.509-14.384 0-1.395-.294-2.774-.992-4.06m117.16-.001c-1.782-3.286-5.549-5.068-10.121-5.068-3.364 0-7.038.992-10.618 2.883-6.541 3.472-10.509 9.315-10.509 14.384 0 1.38.294 2.774.992 4.06 1.782 3.271 5.549 4.96 10.121 4.96 3.364 0 7.038-.883 10.618-2.774 6.541-3.472 10.509-9.33 10.509-14.384 0-1.395-.294-2.774-.992-4.06m58.59-24.801c-1.782-3.286-5.549-5.068-10.121-5.068-3.364 0-7.038.992-10.618 2.883-6.541 3.472-10.509 9.315-10.509 14.384 0 1.38.294 2.774.992 4.06 1.783 3.271 5.549 4.96 10.122 4.96 3.363 0 7.037-.883 10.617-2.774 6.541-3.472 10.509-9.33 10.509-14.384 0-1.395-.294-2.774-.992-4.06M662.287 587.348c-1.783-3.27-5.549-5.053-10.121-5.053-3.364 0-7.038.992-10.618 2.867-6.541 3.472-10.509 9.331-10.509 14.384 0 1.395.294 2.79.992 4.077 1.782 3.286 5.549 4.975 10.121 4.975 3.364 0 7.038-.899 10.618-2.774 6.541-3.488 10.509-9.347 10.509-14.415 0-1.38-.295-2.775-.992-4.061m-4.263 6.742c-1.689 1.69-5.068 3.767-8.633 5.766-3.565 1.984-7.145 3.472-9.517 3.968-.496.109-.992.202-1.488.202-1.597 0-2.79-.59-3.472-1.891a3.212 3.212 0 0 1-.496-1.69c0-1.085.682-2.387 1.782-3.472 1.69-1.69 4.96-3.766 8.526-5.75 3.58-1.984 7.145-3.472 9.532-3.968.496-.109.992-.202 1.488-.202 1.581 0 2.868.59 3.565 1.876.295.496.403 1.1.403 1.69 0 1.1-.604 2.278-1.69 3.471m458.462-19.096c-1.782-3.286-5.549-5.068-10.121-5.068-3.364 0-7.037.992-10.618 2.883-6.541 3.472-10.509 9.315-10.509 14.384 0 1.38.294 2.774.992 4.06 1.782 3.271 5.549 4.96 10.121 4.96 3.364 0 7.037-.883 10.618-2.774 6.541-3.472 10.509-9.33 10.509-14.384 0-1.395-.294-2.774-.992-4.06m92.4-.001c-1.782-3.286-5.549-5.068-10.121-5.068-3.364 0-7.038.992-10.618 2.883-6.541 3.472-10.509 9.315-10.509 14.384 0 1.38.294 2.774.992 4.06 1.782 3.271 5.549 4.96 10.121 4.96 3.364 0 7.037-.883 10.618-2.774 6.541-3.472 10.509-9.33 10.509-14.384 0-1.395-.294-2.774-.992-4.06m115.51-.001c-1.782-3.286-5.549-5.068-10.121-5.068-3.364 0-7.038.992-10.618 2.883-6.541 3.472-10.509 9.315-10.509 14.384 0 1.38.294 2.774.992 4.06 1.782 3.271 5.549 4.96 10.121 4.96 3.364 0 7.037-.883 10.618-2.774 6.541-3.472 10.509-9.33 10.509-14.384 0-1.395-.294-2.774-.992-4.06m115.5-.001c-1.782-3.286-5.549-5.068-10.121-5.068-3.364 0-7.038.992-10.618 2.883-6.541 3.472-10.509 9.315-10.509 14.384 0 1.38.294 2.774.992 4.06 1.782 3.271 5.549 4.96 10.121 4.96 3.364 0 7.037-.883 10.618-2.774 6.541-3.472 10.509-9.33 10.509-14.384 0-1.395-.294-2.774-.992-4.06m57.75-12.401c-1.782-3.286-5.549-5.068-10.121-5.068-3.364 0-7.038.992-10.618 2.883-6.541 3.472-10.509 9.315-10.509 14.384 0 1.38.294 2.774.992 4.06 1.782 3.271 5.549 4.96 10.121 4.96 3.364 0 7.037-.883 10.618-2.774 6.541-3.472 10.509-9.33 10.509-14.384 0-1.395-.294-2.774-.992-4.06m142.18-12.401c-1.782-3.286-5.549-5.068-10.121-5.068-3.364 0-7.037.992-10.618 2.883-6.541 3.472-10.509 9.315-10.509 14.384 0 1.38.294 2.774.992 4.06 1.782 3.271 5.549 4.96 10.121 4.96 3.364 0 7.037-.883 10.618-2.774 6.541-3.472 10.509-9.33 10.509-14.384 0-1.395-.294-2.774-.992-4.06m147.95-.001c-1.782-3.286-5.549-5.068-10.121-5.068-3.364 0-7.037.992-10.618 2.883-6.541 3.472-10.509 9.315-10.509 14.384 0 1.38.294 2.774.992 4.06 1.782 3.271 5.549 4.96 10.121 4.96 3.364 0 7.037-.883 10.618-2.774 6.541-3.472 10.509-9.33 10.509-14.384 0-1.395-.294-2.774-.992-4.06m93.73-.001c-1.782-3.286-5.549-5.068-10.121-5.068-3.364 0-7.037.992-10.618 2.883-6.541 3.472-10.509 9.315-10.509 14.384 0 1.38.294 2.774.992 4.06 1.782 3.271 5.549 4.96 10.121 4.96 3.364 0 7.037-.883 10.618-2.774 6.541-3.472 10.509-9.33 10.509-14.384 0-1.395-.294-2.774-.992-4.06m58.59 12.399c-1.782-3.286-5.549-5.068-10.121-5.068-3.364 0-7.037.992-10.618 2.883-6.541 3.472-10.509 9.315-10.509 14.384 0 1.38.294 2.774.992 4.06 1.782 3.271 5.549 4.96 10.121 4.96 3.364 0 7.037-.883 10.618-2.774 6.541-3.472 10.509-9.33 10.509-14.384 0-1.395-.294-2.774-.992-4.06m58.58-12.401c-1.782-3.286-5.549-5.068-10.121-5.068-3.364 0-7.038.992-10.618 2.883-6.541 3.472-10.509 9.315-10.509 14.384 0 1.38.294 2.774.992 4.06 1.782 3.271 5.549 4.96 10.121 4.96 3.364 0 7.037-.883 10.618-2.774 6.541-3.472 10.509-9.33 10.509-14.384 0-1.395-.294-2.774-.992-4.06m58.58-12.401c-1.782-3.286-5.549-5.068-10.121-5.068-3.364 0-7.038.992-10.618 2.883-6.541 3.472-10.509 9.315-10.509 14.384 0 1.38.294 2.774.992 4.06 1.782 3.271 5.549 4.96 10.121 4.96 3.364 0 7.037-.883 10.618-2.774 6.541-3.472 10.509-9.33 10.509-14.384 0-1.395-.295-2.774-.992-4.06m58.59 37.199c-1.782-3.286-5.549-5.068-10.121-5.068-3.364 0-7.038.992-10.618 2.883-6.541 3.472-10.509 9.315-10.509 14.384 0 1.38.294 2.774.992 4.06 1.782 3.271 5.549 4.96 10.121 4.96 3.364 0 7.038-.883 10.618-2.774 6.541-3.472 10.509-9.33 10.509-14.384 0-1.395-.294-2.774-.992-4.06m93.73-.001c-1.782-3.286-5.549-5.068-10.121-5.068-3.364 0-7.038.992-10.618 2.883-6.541 3.472-10.509 9.315-10.509 14.384 0 1.38.294 2.774.992 4.06 1.782 3.271 5.549 4.96 10.121 4.96 3.364 0 7.038-.883 10.618-2.774 6.541-3.472 10.509-9.33 10.509-14.384 0-1.395-.294-2.774-.992-4.06m117.17-.001c-1.782-3.286-5.549-5.068-10.121-5.068-3.364 0-7.038.992-10.618 2.883-6.541 3.472-10.509 9.315-10.509 14.384 0 1.38.294 2.774.992 4.06 1.783 3.271 5.549 4.96 10.122 4.96 3.363 0 7.037-.883 10.617-2.774 6.541-3.472 10.509-9.33 10.509-14.384 0-1.395-.294-2.774-.992-4.06m58.58 12.399c-1.782-3.286-5.549-5.068-10.121-5.068-3.364 0-7.038.992-10.618 2.883-6.541 3.472-10.509 9.315-10.509 14.384 0 1.38.294 2.774.992 4.06 1.782 3.271 5.549 4.96 10.121 4.96 3.364 0 7.038-.883 10.618-2.774 6.541-3.472 10.509-9.33 10.509-14.384 0-1.395-.294-2.774-.992-4.06m58.58 24.799c-1.782-3.286-5.549-5.068-10.121-5.068-3.364 0-7.038.992-10.618 2.883-6.541 3.472-10.509 9.315-10.509 14.384 0 1.38.294 2.774.992 4.06 1.782 3.271 5.549 4.96 10.121 4.96 3.364 0 7.038-.883 10.618-2.774 6.541-3.472 10.509-9.33 10.509-14.384 0-1.395-.294-2.774-.992-4.06m58.59-12.401c-1.782-3.286-5.549-5.068-10.121-5.068-3.364 0-7.038.992-10.618 2.883-6.541 3.472-10.509 9.315-10.509 14.384 0 1.38.294 2.774.992 4.06 1.783 3.271 5.549 4.96 10.122 4.96 3.363 0 7.037-.883 10.617-2.774 6.541-3.472 10.509-9.33 10.509-14.384 0-1.395-.294-2.774-.992-4.06M662.287 364.148c-1.783-3.27-5.549-5.053-10.121-5.053-3.364 0-7.038.992-10.618 2.867-6.541 3.472-10.509 9.331-10.509 14.384 0 1.395.294 2.79.992 4.077 1.782 3.286 5.549 4.975 10.121 4.975 3.364 0 7.038-.899 10.618-2.774 6.541-3.488 10.509-9.347 10.509-14.415 0-1.38-.295-2.775-.992-4.061m-4.263 6.742c-1.689 1.69-5.068 3.767-8.633 5.766-3.565 1.984-7.145 3.472-9.517 3.968-.496.109-.992.202-1.488.202-1.597 0-2.79-.59-3.472-1.891a3.212 3.212 0 0 1-.496-1.69c0-1.085.682-2.387 1.782-3.472 1.69-1.69 4.96-3.766 8.526-5.75 3.58-1.984 7.145-3.472 9.532-3.968.496-.109.992-.202 1.488-.202 1.581 0 2.868.59 3.565 1.876.295.496.403 1.1.403 1.69 0 1.1-.604 2.278-1.69 3.471m458.462 5.704c-1.782-3.286-5.549-5.068-10.121-5.068-3.364 0-7.037.992-10.618 2.883-6.541 3.472-10.509 9.315-10.509 14.384 0 1.38.294 2.774.992 4.06 1.782 3.271 5.549 4.96 10.121 4.96 3.364 0 7.037-.883 10.618-2.774 6.541-3.472 10.509-9.33 10.509-14.384 0-1.395-.294-2.774-.992-4.06m92.4-.001c-1.782-3.286-5.549-5.068-10.121-5.068-3.364 0-7.038.992-10.618 2.883-6.541 3.472-10.509 9.315-10.509 14.384 0 1.38.294 2.774.992 4.06 1.782 3.271 5.549 4.96 10.121 4.96 3.364 0 7.037-.883 10.618-2.774 6.541-3.472 10.509-9.33 10.509-14.384 0-1.395-.294-2.774-.992-4.06m115.51-.001c-1.782-3.286-5.549-5.068-10.121-5.068-3.364 0-7.038.992-10.618 2.883-6.541 3.472-10.509 9.315-10.509 14.384 0 1.38.294 2.774.992 4.06 1.782 3.271 5.549 4.96 10.121 4.96 3.364 0 7.037-.883 10.618-2.774 6.541-3.472 10.509-9.33 10.509-14.384 0-1.395-.294-2.774-.992-4.06m115.5 12.399c-1.782-3.286-5.549-5.068-10.121-5.068-3.364 0-7.038.992-10.618 2.883-6.541 3.472-10.509 9.315-10.509 14.384 0 1.38.294 2.774.992 4.06 1.782 3.271 5.549 4.96 10.121 4.96 3.364 0 7.037-.883 10.618-2.774 6.541-3.472 10.509-9.33 10.509-14.384 0-1.395-.294-2.774-.992-4.06m57.75 24.799c-1.782-3.286-5.549-5.068-10.121-5.068-3.364 0-7.038.992-10.618 2.883-6.541 3.472-10.509 9.315-10.509 14.384 0 1.38.294 2.774.992 4.06 1.782 3.271 5.549 4.96 10.121 4.96 3.364 0 7.037-.883 10.618-2.774 6.541-3.472 10.509-9.33 10.509-14.384 0-1.395-.294-2.774-.992-4.06m142.18-12.401c-1.782-3.286-5.549-5.068-10.121-5.068-3.364 0-7.037.992-10.618 2.883-6.541 3.472-10.509 9.315-10.509 14.384 0 1.38.294 2.774.992 4.06 1.782 3.271 5.549 4.96 10.121 4.96 3.364 0 7.037-.883 10.618-2.774 6.541-3.472 10.509-9.33 10.509-14.384 0-1.395-.294-2.774-.992-4.06m147.95-.001c-1.782-3.286-5.549-5.068-10.121-5.068-3.364 0-7.037.992-10.618 2.883-6.541 3.472-10.509 9.315-10.509 14.384 0 1.38.294 2.774.992 4.06 1.782 3.271 5.549 4.96 10.121 4.96 3.364 0 7.037-.883 10.618-2.774 6.541-3.472 10.509-9.33 10.509-14.384 0-1.395-.294-2.774-.992-4.06m93.73-.001c-1.782-3.286-5.549-5.068-10.121-5.068-3.364 0-7.037.992-10.618 2.883-6.541 3.472-10.509 9.315-10.509 14.384 0 1.38.294 2.774.992 4.06 1.782 3.271 5.549 4.96 10.121 4.96 3.364 0 7.037-.883 10.618-2.774 6.541-3.472 10.509-9.33 10.509-14.384 0-1.395-.294-2.774-.992-4.06m117.17 37.199c-1.782-3.286-5.549-5.068-10.121-5.068-3.364 0-7.038.992-10.618 2.883-6.541 3.472-10.509 9.315-10.509 14.384 0 1.38.294 2.774.992 4.06 1.782 3.271 5.549 4.96 10.121 4.96 3.364 0 7.037-.883 10.618-2.774 6.541-3.472 10.509-9.33 10.509-14.384 0-1.395-.294-2.774-.992-4.06m58.58-12.401c-1.782-3.286-5.549-5.068-10.121-5.068-3.364 0-7.038.992-10.618 2.883-6.541 3.472-10.509 9.315-10.509 14.384 0 1.38.294 2.774.992 4.06 1.782 3.271 5.549 4.96 10.121 4.96 3.364 0 7.037-.883 10.618-2.774 6.541-3.472 10.509-9.33 10.509-14.384 0-1.395-.295-2.774-.992-4.06m58.59-12.401c-1.782-3.286-5.549-5.068-10.121-5.068-3.364 0-7.038.992-10.618 2.883-6.541 3.472-10.509 9.315-10.509 14.384 0 1.38.294 2.774.992 4.06 1.782 3.271 5.549 4.96 10.121 4.96 3.364 0 7.038-.883 10.618-2.774 6.541-3.472 10.509-9.33 10.509-14.384 0-1.395-.294-2.774-.992-4.06m93.73-.001c-1.782-3.286-5.549-5.068-10.121-5.068-3.364 0-7.038.992-10.618 2.883-6.541 3.472-10.509 9.315-10.509 14.384 0 1.38.294 2.774.992 4.06 1.782 3.271 5.549 4.96 10.121 4.96 3.364 0 7.038-.883 10.618-2.774 6.541-3.472 10.509-9.33 10.509-14.384 0-1.395-.294-2.774-.992-4.06m117.17-.001c-1.782-3.286-5.549-5.068-10.121-5.068-3.364 0-7.038.992-10.618 2.883-6.541 3.472-10.509 9.315-10.509 14.384 0 1.38.294 2.774.992 4.06 1.783 3.271 5.549 4.96 10.122 4.96 3.363 0 7.037-.883 10.617-2.774 6.541-3.472 10.509-9.33 10.509-14.384 0-1.395-.294-2.774-.992-4.06m58.58-12.401c-1.782-3.286-5.549-5.068-10.121-5.068-3.364 0-7.038.992-10.618 2.883-6.541 3.472-10.509 9.315-10.509 14.384 0 1.38.294 2.774.992 4.06 1.782 3.271 5.549 4.96 10.121 4.96 3.364 0 7.038-.883 10.618-2.774 6.541-3.472 10.509-9.33 10.509-14.384 0-1.395-.294-2.774-.992-4.06m58.58 12.399c-1.782-3.286-5.549-5.068-10.121-5.068-3.364 0-7.038.992-10.618 2.883-6.541 3.472-10.509 9.315-10.509 14.384 0 1.38.294 2.774.992 4.06 1.782 3.271 5.549 4.96 10.121 4.96 3.364 0 7.038-.883 10.618-2.774 6.541-3.472 10.509-9.33 10.509-14.384 0-1.395-.294-2.774-.992-4.06m58.59-37.201c-1.782-3.286-5.549-5.068-10.121-5.068-3.364 0-7.038.992-10.618 2.883-6.541 3.472-10.509 9.315-10.509 14.384 0 1.38.294 2.774.992 4.06 1.783 3.271 5.549 4.96 10.122 4.96 3.363 0 7.037-.883 10.617-2.774 6.541-3.472 10.509-9.33 10.509-14.384 0-1.395-.294-2.774-.992-4.06M662.287 123.634c-1.783-3.286-5.549-5.068-10.121-5.068-3.364 0-7.038.992-10.618 2.883-6.541 3.472-10.509 9.315-10.509 14.384 0 1.38.294 2.774.992 4.06 1.782 3.271 5.549 4.96 10.121 4.96 3.364 0 7.038-.883 10.618-2.774 6.541-3.472 10.509-9.33 10.509-14.384 0-1.395-.295-2.774-.992-4.06m57.75-12.401c-1.783-3.286-5.549-5.068-10.121-5.068-3.364 0-7.038.992-10.618 2.883-6.541 3.472-10.509 9.315-10.509 14.384 0 1.38.294 2.774.992 4.06 1.782 3.271 5.549 4.96 10.121 4.96 3.364 0 7.038-.883 10.618-2.774 6.541-3.472 10.509-9.33 10.509-14.384 0-1.395-.295-2.774-.992-4.06m150.149 12.399c-1.783-3.286-5.549-5.068-10.121-5.068-3.364 0-7.038.992-10.618 2.883-6.541 3.472-10.509 9.315-10.509 14.384 0 1.38.294 2.774.992 4.06 1.782 3.271 5.549 4.96 10.121 4.96 3.364 0 7.038-.883 10.618-2.774 6.541-3.472 10.509-9.33 10.509-14.384 0-1.395-.295-2.774-.992-4.06m115.5 12.399c-1.783-3.286-5.549-5.068-10.121-5.068-3.364 0-7.038.992-10.618 2.883-6.541 3.472-10.509 9.315-10.509 14.384 0 1.38.294 2.774.992 4.06 1.782 3.271 5.549 4.96 10.121 4.96 3.364 0 7.038-.883 10.618-2.774 6.541-3.472 10.509-9.33 10.509-14.384 0-1.395-.295-2.774-.992-4.06m57.75-12.401c-1.782-3.286-5.549-5.068-10.121-5.068-3.364 0-7.038.992-10.618 2.883-6.541 3.472-10.509 9.315-10.509 14.384 0 1.38.294 2.774.992 4.06 1.782 3.271 5.549 4.96 10.121 4.96 3.364 0 7.037-.883 10.618-2.774 6.541-3.472 10.509-9.33 10.509-14.384 0-1.395-.295-2.774-.992-4.06m73.05-12.401c-1.782-3.286-5.549-5.068-10.121-5.068-3.364 0-7.037.992-10.618 2.883-6.541 3.472-10.509 9.315-10.509 14.384 0 1.38.294 2.774.992 4.06 1.782 3.271 5.549 4.96 10.121 4.96 3.364 0 7.037-.883 10.618-2.774 6.541-3.472 10.509-9.33 10.509-14.384 0-1.395-.294-2.774-.992-4.06m92.4-24.801c-1.782-3.286-5.549-5.068-10.121-5.068-3.364 0-7.038.992-10.618 2.883-6.541 3.472-10.509 9.315-10.509 14.384 0 1.38.294 2.774.992 4.06 1.782 3.271 5.549 4.96 10.121 4.96 3.364 0 7.037-.883 10.618-2.774 6.541-3.472 10.509-9.33 10.509-14.384 0-1.395-.294-2.774-.992-4.06m57.76 37.199c-1.782-3.286-5.549-5.068-10.121-5.068-3.364 0-7.038.992-10.618 2.883-6.541 3.472-10.509 9.315-10.509 14.384 0 1.38.294 2.774.992 4.06 1.782 3.271 5.549 4.96 10.121 4.96 3.364 0 7.037-.883 10.618-2.774 6.541-3.472 10.509-9.33 10.509-14.384 0-1.395-.294-2.774-.992-4.06m57.75-.001c-1.782-3.286-5.549-5.068-10.121-5.068-3.364 0-7.038.992-10.618 2.883-6.541 3.472-10.509 9.315-10.509 14.384 0 1.38.294 2.774.992 4.06 1.782 3.271 5.549 4.96 10.121 4.96 3.364 0 7.037-.883 10.618-2.774 6.541-3.472 10.509-9.33 10.509-14.384 0-1.395-.294-2.774-.992-4.06m57.75 12.399c-1.782-3.286-5.549-5.068-10.121-5.068-3.364 0-7.038.992-10.618 2.883-6.541 3.472-10.509 9.315-10.509 14.384 0 1.38.294 2.774.992 4.06 1.782 3.271 5.549 4.96 10.121 4.96 3.364 0 7.037-.883 10.618-2.774 6.541-3.472 10.509-9.33 10.509-14.384 0-1.395-.294-2.774-.992-4.06m115.5-12.401c-1.782-3.286-5.549-5.068-10.121-5.068-3.364 0-7.038.992-10.618 2.883-6.541 3.472-10.509 9.315-10.509 14.384 0 1.38.294 2.774.992 4.06 1.782 3.271 5.549 4.96 10.121 4.96 3.364 0 7.037-.883 10.618-2.774 6.541-3.472 10.509-9.33 10.509-14.384 0-1.395-.294-2.774-.992-4.06m142.18-.001c-1.782-3.286-5.549-5.068-10.121-5.068-3.364 0-7.037.992-10.618 2.883-6.541 3.472-10.509 9.315-10.509 14.384 0 1.38.294 2.774.992 4.06 1.782 3.271 5.549 4.96 10.121 4.96 3.364 0 7.037-.883 10.618-2.774 6.541-3.472 10.509-9.33 10.509-14.384 0-1.395-.294-2.774-.992-4.06m89.37-12.401c-1.782-3.286-5.549-5.068-10.121-5.068-3.364 0-7.038.992-10.618 2.883-6.541 3.472-10.509 9.315-10.509 14.384 0 1.38.294 2.774.992 4.06 1.782 3.271 5.549 4.96 10.121 4.96 3.364 0 7.037-.883 10.618-2.774 6.541-3.472 10.509-9.33 10.509-14.384 0-1.395-.295-2.774-.992-4.06m58.58 24.799c-1.782-3.286-5.549-5.068-10.121-5.068-3.364 0-7.037.992-10.618 2.883-6.541 3.472-10.509 9.315-10.509 14.384 0 1.38.294 2.774.992 4.06 1.782 3.271 5.549 4.96 10.121 4.96 3.364 0 7.037-.883 10.618-2.774 6.541-3.472 10.509-9.33 10.509-14.384 0-1.395-.294-2.774-.992-4.06m93.73-24.801c-1.782-3.286-5.549-5.068-10.121-5.068-3.364 0-7.037.992-10.618 2.883-6.541 3.472-10.509 9.315-10.509 14.384 0 1.38.294 2.774.992 4.06 1.782 3.271 5.549 4.96 10.121 4.96 3.364 0 7.037-.883 10.618-2.774 6.541-3.472 10.509-9.33 10.509-14.384 0-1.395-.294-2.774-.992-4.06m58.59 37.199c-1.782-3.286-5.549-5.068-10.121-5.068-3.364 0-7.037.992-10.618 2.883-6.541 3.472-10.509 9.315-10.509 14.384 0 1.38.294 2.774.992 4.06 1.782 3.271 5.549 4.96 10.121 4.96 3.364 0 7.037-.883 10.618-2.774 6.541-3.472 10.509-9.33 10.509-14.384 0-1.395-.294-2.774-.992-4.06m175.75-24.801c-1.782-3.286-5.549-5.068-10.121-5.068-3.364 0-7.038.992-10.618 2.883-6.541 3.472-10.509 9.315-10.509 14.384 0 1.38.294 2.774.992 4.06 1.782 3.271 5.549 4.96 10.121 4.96 3.364 0 7.038-.883 10.618-2.774 6.541-3.472 10.509-9.33 10.509-14.384 0-1.395-.294-2.774-.992-4.06m93.73-12.401c-1.782-3.286-5.549-5.068-10.121-5.068-3.364 0-7.038.992-10.618 2.883-6.541 3.472-10.509 9.315-10.509 14.384 0 1.38.294 2.774.992 4.06 1.782 3.271 5.549 4.96 10.121 4.96 3.364 0 7.038-.883 10.618-2.774 6.541-3.472 10.509-9.33 10.509-14.384 0-1.395-.294-2.774-.992-4.06m58.58-12.401c-1.782-3.286-5.549-5.068-10.121-5.068-3.364 0-7.038.992-10.618 2.883-6.541 3.472-10.509 9.315-10.509 14.384 0 1.38.294 2.774.992 4.06 1.782 3.271 5.549 4.96 10.121 4.96 3.364 0 7.038-.883 10.618-2.774 6.541-3.472 10.509-9.33 10.509-14.384 0-1.395-.294-2.774-.992-4.06m58.59 37.199c-1.782-3.286-5.549-5.068-10.121-5.068-3.364 0-7.038.992-10.618 2.883-6.541 3.472-10.509 9.315-10.509 14.384 0 1.38.294 2.774.992 4.06 1.783 3.271 5.549 4.96 10.122 4.96 3.363 0 7.037-.883 10.617-2.774 6.541-3.472 10.509-9.33 10.509-14.384 0-1.395-.294-2.774-.992-4.06m58.58-49.601c-1.782-3.286-5.549-5.068-10.121-5.068-3.364 0-7.038.992-10.618 2.883-6.541 3.472-10.509 9.315-10.509 14.384 0 1.38.294 2.774.992 4.06 1.782 3.271 5.549 4.96 10.121 4.96 3.364 0 7.038-.883 10.618-2.774 6.541-3.472 10.509-9.33 10.509-14.384 0-1.395-.294-2.774-.992-4.06m58.58 24.799c-1.782-3.286-5.549-5.068-10.121-5.068-3.364 0-7.038.992-10.618 2.883-6.541 3.472-10.509 9.315-10.509 14.384 0 1.38.294 2.774.992 4.06 1.782 3.271 5.549 4.96 10.121 4.96 3.364 0 7.038-.883 10.618-2.774 6.541-3.472 10.509-9.33 10.509-14.384 0-1.395-.294-2.774-.992-4.06" style="stroke-width:.992"/>
  <path class="Clef" d="M399.693 892.932c-7.548 0-13.594 4.356-13.702 4.356-5.75 4.262-8.029 9.33-8.928 12.803-.496 1.782-.682 3.565-.682 5.254 0 2.387.388 4.557 1.287 6.448 1.193 2.682 3.472 4.557 6.448 5.55 1.193.402 2.48.604 3.766.604 2.185 0 4.464-.605 6.355-1.69 3.069-1.69 4.96-5.254 4.96-9.13 0-3.471-1.798-6.649-4.774-8.524-2.077-1.395-4.061-1.783-5.75-1.783-1.194 0-2.279.186-3.178.496-.992.388-2.666 1.38-3.472 2.077.31-1.89 1.488-4.758 2.588-6.355 1.086-1.58 3.271-3.565 4.96-4.464 2.48-1.38 5.658-1.984 9.13-1.984 10.122 0 15.082 8.138 15.082 24.8 0 9.238-3.472 18.058-6.448 23.917-3.286 6.54-7.642 12.803-11.517 16.275-10.323 9.424-20.042 13.888-20.135 13.888 0 0-1.488.883-1.1 2.371.31.992 1.193 1.194 1.798 1.194.093 0 .387-.093.496-.093.093 0 11.408-4.666 20.429-11.718 5.069-3.658 9.625-7.626 13.593-11.904a73.558 73.558 0 0 0 9.13-12.199c4.356-7.44 6.836-15.174 6.836-21.824 0-8.23-2.17-15.081-6.247-19.933-4.665-5.564-11.703-8.432-20.925-8.432m31.14 12.586c0 2.79 2.185 4.96 4.774 4.96 2.572 0 4.758-2.17 4.758-4.96 0-2.774-2.186-5.053-4.758-5.053-2.589 0-4.774 2.279-4.774 5.053m0 24.506c0 2.774 2.185 5.068 4.774 5.068 2.572 0 4.758-2.294 4.758-5.068 0-2.775-2.186-5.053-4.758-5.053-2.589 0-4.774 2.278-4.774 5.053m-31.14-223.094c-7.548 0-13.594 4.356-13.702 4.356-5.75 4.262-8.029 9.33-8.928 12.803-.496 1.782-.682 3.565-.682 5.254 0 2.387.388 4.557 1.287 6.448 1.193 2.682 3.472 4.557 6.448 5.55 1.193.402 2.48.604 3.766.604 2.185 0 4.464-.605 6.355-1.69 3.069-1.69 4.96-5.254 4.96-9.13 0-3.471-1.798-6.649-4.774-8.524-2.077-1.395-4.061-1.783-5.75-1.783-1.194 0-2.279.186-3.178.496-.992.388-2.666 1.38-3.472 2.077.31-1.89 1.488-4.758 2.588-6.355 1.086-1.58 3.271-3.565 4.96-4.464 2.48-1.38 5.658-1.984 9.13-1.984 10.122 0 15.082 8.138 15.082 24.8 0 9.238-3.472 18.058-6.448 23.917-3.286 6.54-7.642 12.803-11.517 16.275-10.323 9.424-20.042 13.888-20.135 13.888 0 0-1.488.883-1.1 2.371.31.992 1.193 1.194 1.798 1.194.093 0 .387-.093.496-.093.093 0 11.408-4.666 20.429-11.718 5.069-3.658 9.625-7.626 13.593-11.904a73.558 73.558 0 0 0 9.13-12.199c4.356-7.44 6.836-15.174 6.836-21.824 0-8.23-2.17-15.081-6.247-19.933-4.665-5.564-11.703-8.432-20.925-8.432m31.14 12.586c0 2.79 2.185 4.96 4.774 4.96 2.572 0 4.758-2.17 4.758-4.96 0-2.774-2.186-5.053-4.758-5.053-2.589 0-4.774 2.279-4.774 5.053m0 24.506c0 2.774 2.185 5.068 4.774 5.068 2.572 0 4.758-2.294 4.758-5.068 0-2.775-2.186-5.053-4.758-5.053-2.589 0-4.774 2.278-4.774 5.053m-47.911-219.93h-7.146c-.697 0-1.286.605-1.286 1.287v90.287c0 .698.589 1.287 1.286 1.287h7.146c.698 0 1.286-.59 1.286-1.287V525.38c0-.682-.589-1.287-1.286-1.287m35.712 50.5h-1.488c-2.279 0-3.968.2-7.827 2.572 0 0-2.186-4.355-5.456-6.634 3.27-2.294 5.456-6.65 5.456-6.65 3.859 2.372 5.548 2.574 7.827 2.574h1.488c12.105 0 18.057-11.207 18.057-21.917 0-13.888-10.214-21.731-22.226-21.731-10.912 0-15.47 5.456-15.47 5.456-1.782 2.185-2.588 4.557-2.588 6.742a8.83 8.83 0 0 0 1.488 4.96c1.395 1.984 4.17 3.085 6.758 3.085 1.782 0 3.472-.496 4.666-1.488 1.674-1.488 2.774-3.674 2.774-6.06 0-1.38-.403-2.775-1.1-4.062-1.582-2.883-4.558-3.27-6.138-3.27-.605 0-1.101.093-1.101.093 2.279-1.581 5.363-2.48 8.432-2.48 2.775 0 5.456.697 7.347 2.077 3.472 2.588 4.758 8.044 4.758 15.19 0 7.641-.201 18.74-8.928 18.74-8.726 0-10.71-10.417-10.71-10.417s0-1.38-1.395-1.38c-1.38 0-1.488 1.38-1.488 1.38s-.79 5.069-3.472 11.222c-1.58 3.658-3.968 5.348-5.657 6.045v-43.26c0-.682-.496-1.287-1.194-1.287-.682 0-1.286.605-1.286 1.287v90.287c0 .698.604 1.287 1.286 1.287.698 0 1.194-.59 1.194-1.287v-43.26c1.689.697 4.076 2.387 5.657 6.06 2.681 6.138 3.472 11.3 3.472 11.3s.109 1.286 1.488 1.286c1.395 0 1.395-1.286 1.395-1.286s1.984-10.51 10.71-10.51c8.727 0 8.928 11.114 8.928 18.756 0 7.13-1.286 12.586-4.758 15.174-1.891 1.38-4.572 2.077-7.347 2.077-3.069 0-6.153-.883-8.432-2.48 0 0 .496.109 1.1.109 1.581 0 4.557-.403 6.139-3.286.697-1.287 1.1-2.666 1.1-4.061 0-2.387-1.1-4.557-2.774-6.045-1.194-.992-2.884-1.488-4.666-1.488-2.588 0-5.363 1.085-6.758 3.069a8.832 8.832 0 0 0-1.488 4.96c0 2.185.806 4.557 2.588 6.742 0 0 4.558 5.456 15.47 5.456 12.012 0 22.226-7.827 22.226-21.715 0-10.726-5.952-21.933-18.057-21.933m18.709-171.043c-1.225-5.379-3.844-9.176-4.62-10.2-3.162-4.246-7.145-7.067-11.795-8.416-3.085-.868-6.06-.992-8.463-.806a2313.45 2313.45 0 0 1-2.93-17.205c5.41-6.122 9.006-11.873 11.269-16.135 3.441-6.526 4.573-11.067 4.635-11.269 1.704-5.177 2.061-12.818.96-20.956-.992-7.486-3.068-14.151-5.409-17.375-1.007-1.41-2.061-2.14-3.085-2.14-1.208 0-3.704 1.225-6.572 3.984-2.278 2.17-5.518 6.03-8.06 11.997-2.976 7.006-3.192 16.415-2.836 23.08.372 7.223 1.472 12.865 1.488 12.911.016.093.279 1.581.713 4.123-.217.233-.465.45-.713.698-1.023.992-2.201 2.108-3.58 3.487-.853.853-1.798 1.752-2.79 2.713-8.37 8.075-21.065 20.305-21.065 39.308 0 4.665.899 9.052 2.666 13.035 1.565 3.565 3.844 6.82 6.758 9.672 7.673 7.502 18.181 10.68 25.172 10.525 2.93-.078 5.55-.31 7.92-.76 1.814 9.533 2.945 16.508 2.977 21.809.046 6.463-1.597 10.416-5.456 13.16-2.418 1.72-5.208 2.665-8.278 2.805-2.572.124-4.82-.341-6.23-.744h-.016s-.279-.093-.295-.28c-.015-.185.341-.232.341-.232h.031c1.907-.434 5.441-1.658 7.781-4.929 1.783-2.51 2.65-7.099.822-11.005-1.1-2.371-3.58-5.3-9.16-5.75-2.48-.202-4.728.31-6.712 1.503-1.798 1.07-3.286 2.697-4.325 4.681-2.433 4.666-1.984 10.354 1.116 14.167 2.945 3.596 7.518 5.89 12.912 6.464.852.093 1.69.124 2.526.124 4.402 0 8.758-1.194 12.307-3.38 3.627-2.557 5.735-6.51 6.402-12.09.558-4.603.17-10.477-1.21-18.49-.356-2.078-.898-5.085-1.55-8.805 5.705-1.906 9.828-5.456 13.563-11.268 3.271-5.689 4.201-11.75 2.79-18.011m-33.945 26.009c-4.603-1.21-9.005-3.69-12.725-7.177-1.302-1.209-3.162-3.363-4.619-6.727-1.349-3.146-2.015-6.556-1.953-10.106.062-4.665 1.364-9.455 3.844-14.198 2.898-5.533 7.424-11.02 13.438-16.306a89.204 89.204 0 0 0 4.077-3.813c.76 4.232 1.58 8.882 2.449 13.718-3.813 1.255-8.525 4.386-11.61 9.997-3.518 6.51-3.379 11.997-2.65 15.454.93 4.417 3.441 8.153 6.866 10.23.93.558 5.022 2.666 6.851 2.092a1.16 1.16 0 0 0 .775-.666c.512-1.163-.511-1.798-2.046-2.744a27.277 27.277 0 0 1-1.984-1.317c-3.301-2.465-4.743-6.882-3.673-11.238a12.436 12.436 0 0 1 3.673-6.215c1.643-1.535 3.674-2.62 6.03-3.255 2.03 11.16 4.076 22.227 5.704 30.52.124.681.263 1.348.387 2.014-4.34.93-8.649.837-12.834-.263m11.238-32.938c10.26-.465 14.492 6.913 15.376 11.703.465 2.526.465 6.928-1.07 11.113-1.162 3.147-3.596 7.192-8.695 9.238-.062-.418-.14-.852-.217-1.27-1.535-8.712-3.457-19.624-5.394-30.784m-7.27-70.385c1.767-5.689 4.48-8.913 6.464-10.633 1.736-1.504 3.363-2.217 4.278-2.217.14 0 .263.031.356.062.465.14.992.698 1.457 1.566 2.294 4.247 1.55 10.912.217 15.314-1.612 5.363-4.51 10.927-13.237 20.46-.17-1.1-.325-2.14-.48-3.116-1.24-8.215-.915-15.438.945-21.436m29.978-126.046c-1.225-5.379-3.844-9.176-4.62-10.2-3.162-4.246-7.145-7.067-11.795-8.416-3.085-.868-6.06-.992-8.463-.806a2313.45 2313.45 0 0 1-2.93-17.205c5.41-6.122 9.006-11.873 11.269-16.135 3.441-6.526 4.573-11.067 4.635-11.269 1.704-5.177 2.061-12.818.96-20.956-.992-7.486-3.068-14.151-5.409-17.375-1.007-1.41-2.061-2.14-3.085-2.14-1.208 0-3.704 1.225-6.572 3.984-2.278 2.17-5.518 6.03-8.06 11.997-2.976 7.006-3.192 16.415-2.836 23.08.372 7.223 1.472 12.865 1.488 12.911.016.093.279 1.581.713 4.123-.217.233-.465.45-.713.698-1.023.992-2.201 2.108-3.58 3.487-.853.853-1.798 1.752-2.79 2.713-8.37 8.075-21.065 20.305-21.065 39.308 0 4.665.899 9.052 2.666 13.035 1.565 3.565 3.844 6.82 6.758 9.672 7.673 7.502 18.181 10.68 25.172 10.525 2.93-.078 5.55-.31 7.92-.76 1.814 9.533 2.945 16.508 2.977 21.809.046 6.463-1.597 10.416-5.456 13.16-2.418 1.72-5.208 2.665-8.278 2.805-2.572.124-4.82-.341-6.23-.744h-.016s-.279-.093-.295-.28c-.015-.185.341-.232.341-.232h.031c1.907-.434 5.441-1.658 7.781-4.929 1.783-2.51 2.65-7.099.822-11.005-1.1-2.371-3.58-5.3-9.16-5.75-2.48-.202-4.728.31-6.712 1.503-1.798 1.07-3.286 2.697-4.325 4.681-2.433 4.666-1.984 10.354 1.116 14.167 2.945 3.596 7.518 5.89 12.912 6.464.852.093 1.69.124 2.526.124 4.402 0 8.758-1.194 12.307-3.38 3.627-2.557 5.735-6.51 6.402-12.09.558-4.603.17-10.477-1.21-18.49-.356-2.078-.898-5.085-1.55-8.805 5.705-1.906 9.828-5.456 13.563-11.268 3.271-5.689 4.201-11.75 2.79-18.011m-33.945 26.009c-4.603-1.21-9.005-3.69-12.725-7.177-1.302-1.209-3.162-3.363-4.619-6.727-1.349-3.146-2.015-6.556-1.953-10.106.062-4.665 1.364-9.455 3.844-14.198 2.898-5.533 7.424-11.02 13.438-16.306a89.204 89.204 0 0 0 4.077-3.813c.76 4.232 1.58 8.882 2.449 13.718-3.813 1.255-8.525 4.386-11.61 9.997-3.518 6.51-3.379 11.997-2.65 15.454.93 4.417 3.441 8.153 6.866 10.23.93.558 5.022 2.666 6.851 2.092a1.16 1.16 0 0 0 .775-.666c.512-1.163-.511-1.798-2.046-2.744a27.277 27.277 0 0 1-1.984-1.317c-3.301-2.465-4.743-6.882-3.673-11.238a12.436 12.436 0 0 1 3.673-6.215c1.643-1.535 3.674-2.62 6.03-3.255 2.03 11.16 4.076 22.227 5.704 30.52.124.681.263 1.348.387 2.014-4.34.93-8.649.837-12.834-.263m11.238-32.938c10.26-.465 14.492 6.913 15.376 11.703.465 2.526.465 6.928-1.07 11.113-1.162 3.147-3.596 7.192-8.695 9.238-.062-.418-.14-.852-.217-1.27-1.535-8.712-3.457-19.624-5.394-30.784m-7.27-70.385c1.767-5.689 4.48-8.913 6.464-10.633 1.736-1.504 3.363-2.217 4.278-2.217.14 0 .263.031.356.062.465.14.992.698 1.457 1.566 2.294 4.247 1.55 10.912.217 15.314-1.612 5.363-4.51 10.927-13.237 20.46-.17-1.1-.325-2.14-.48-3.116-1.24-8.215-.915-15.438.945-21.436" style="stroke-width:.992"/>
  <path class="KeySig" d="M513.069 944.516c.604-.108 1.1-.806 1.1-1.395v-5.859c0-.79-.604-1.38-1.395-1.38h-.201l-3.271.698v-14.787h-2.775v15.376l-8.834 1.783V924.97h-2.775v14.585l-3.875.79c-.589.094-1.085.791-1.085 1.38v5.952-.186c0 .79.589 1.38 1.395 1.38h.295l3.27-.698v16.368l-3.875.806c-.589.093-1.085.79-1.085 1.38v5.75c0 .806.589 1.395 1.395 1.395h.295l3.27-.697v14.787h2.775v-15.376l8.834-1.783v13.981h2.775V970.2l3.767-.698c.604-.093 1.1-.79 1.1-1.38v-5.858c0-.79-.604-1.38-1.395-1.38h-.201l-3.271.682v-16.368l3.767-.682m-15.376 19.53v-16.46l8.834-1.783v16.368l-8.834 1.875m-9.424-56.73c.604-.108 1.1-.806 1.1-1.395v-5.859c0-.79-.604-1.38-1.395-1.38h-.201l-3.271.698v-14.787h-2.775v15.376l-8.834 1.783V887.77h-2.775v14.585l-3.875.79c-.589.094-1.085.791-1.085 1.38v5.952-.186c0 .79.589 1.38 1.395 1.38h.295l3.27-.698v16.368l-3.875.806c-.589.093-1.085.79-1.085 1.38v5.75c0 .806.589 1.395 1.395 1.395h.295l3.27-.697v14.787h2.775v-15.376l8.834-1.783v13.981h2.775V933l3.767-.698c.604-.093 1.1-.79 1.1-1.38v-5.858c0-.79-.604-1.38-1.395-1.38h-.201l-3.271.682v-16.368l3.767-.682m-15.376 19.53v-16.46l8.834-1.783v16.368l-8.834 1.875m40.176-168.33c.604-.108 1.1-.806 1.1-1.395v-5.859c0-.79-.604-1.38-1.395-1.38h-.201l-3.271.698v-14.787h-2.775v15.376l-8.834 1.783V738.97h-2.775v14.585l-3.875.79c-.589.094-1.085.791-1.085 1.38v5.952-.186c0 .79.589 1.38 1.395 1.38h.295l3.27-.698v16.368l-3.875.806c-.589.093-1.085.79-1.085 1.38v5.75c0 .806.589 1.395 1.395 1.395h.295l3.27-.697v14.787h2.775v-15.376l8.834-1.783v13.981h2.775V784.2l3.767-.698c.604-.093 1.1-.79 1.1-1.38v-5.858c0-.79-.604-1.38-1.395-1.38h-.201l-3.271.682v-16.368l3.767-.682m-15.376 19.53v-16.46l8.834-1.783v16.368l-8.834 1.875m-9.424-56.732c.604-.108 1.1-.806 1.1-1.395v-5.859c0-.79-.604-1.38-1.395-1.38h-.201l-3.271.698v-14.787h-2.775v15.376l-8.834 1.783v-13.981h-2.775v14.585l-3.875.79c-.589.094-1.085.791-1.085 1.38v5.952-.186c0 .79.589 1.38 1.395 1.38h.295l3.27-.698v16.368l-3.875.806c-.589.093-1.085.79-1.085 1.38v5.75c0 .806.589 1.395 1.395 1.395h.295l3.27-.697v14.787h2.775v-15.376l8.834-1.783v13.981h2.775v-14.585l3.767-.698c.604-.093 1.1-.79 1.1-1.38v-5.858c0-.79-.604-1.38-1.395-1.38h-.201l-3.271.682v-16.368l3.767-.682m-15.376 19.53v-16.46l8.834-1.783v16.368l-8.834 1.875m40.176-180.73c.604-.108 1.1-.806 1.1-1.395v-5.859c0-.79-.604-1.38-1.395-1.38h-.201l-3.271.698v-14.787h-2.775v15.376l-8.834 1.783v-13.981h-2.775v14.585l-3.875.79c-.589.094-1.085.791-1.085 1.38v5.952-.186c0 .79.589 1.38 1.395 1.38h.295l3.27-.698v16.368l-3.875.806c-.589.093-1.085.79-1.085 1.38v5.75c0 .806.589 1.395 1.395 1.395h.295l3.27-.697v14.787h2.775v-15.376l8.834-1.783v13.981h2.775v-14.585l3.767-.698c.604-.093 1.1-.79 1.1-1.38v-5.858c0-.79-.604-1.38-1.395-1.38h-.201l-3.271.682v-16.368l3.767-.682m-15.376 19.53v-16.46l8.834-1.783v16.368l-8.834 1.875m-9.424-56.73c.604-.108 1.1-.806 1.1-1.395v-5.859c0-.79-.604-1.38-1.395-1.38h-.201l-3.271.698v-14.787h-2.775v15.376l-8.834 1.783v-13.981h-2.775v14.585l-3.875.79c-.589.094-1.085.791-1.085 1.38v5.952-.186c0 .79.589 1.38 1.395 1.38h.295l3.27-.698v16.368l-3.875.806c-.589.093-1.085.79-1.085 1.38v5.75c0 .806.589 1.395 1.395 1.395h.295l3.27-.697v14.787h2.775v-15.376l8.834-1.783v13.981h2.775v-14.585l3.767-.698c.604-.093 1.1-.79 1.1-1.38v-5.858c0-.79-.604-1.38-1.395-1.38h-.201l-3.271.682v-16.368l3.767-.682m-15.376 19.53v-16.46l8.834-1.783v16.368l-8.834 1.875m40.176-180.73c.604-.108 1.1-.806 1.1-1.395v-5.859c0-.79-.604-1.38-1.395-1.38h-.201l-3.271.698v-14.787h-2.775v15.376l-8.834 1.783v-13.981h-2.775v14.585l-3.875.79c-.589.094-1.085.791-1.085 1.38v5.952-.186c0 .79.589 1.38 1.395 1.38h.295l3.27-.698v16.368l-3.875.806c-.589.093-1.085.79-1.085 1.38v5.75c0 .806.589 1.395 1.395 1.395h.295l3.27-.697v14.787h2.775v-15.376l8.834-1.783v13.981h2.775v-14.585l3.767-.698c.604-.093 1.1-.79 1.1-1.38v-5.858c0-.79-.604-1.38-1.395-1.38h-.201l-3.271.682v-16.368l3.767-.682m-15.376 19.53v-16.46l8.834-1.783v16.368l-8.834 1.875m-9.424-56.73c.604-.108 1.1-.806 1.1-1.395v-5.859c0-.79-.604-1.38-1.395-1.38h-.201l-3.271.698v-14.787h-2.775v15.376l-8.834 1.783v-13.981h-2.775v14.585l-3.875.79c-.589.094-1.085.791-1.085 1.38v5.952-.186c0 .79.589 1.38 1.395 1.38h.295l3.27-.698v16.368l-3.875.806c-.589.093-1.085.79-1.085 1.38v5.75c0 .806.589 1.395 1.395 1.395h.295l3.27-.697v14.787h2.775v-15.376l8.834-1.783v13.981h2.775v-14.585l3.767-.698c.604-.093 1.1-.79 1.1-1.38v-5.858c0-.79-.604-1.38-1.395-1.38h-.201l-3.271.682v-16.368l3.767-.682m-15.376 19.53v-16.46l8.834-1.783v16.368l-8.834 1.875m40.176-185.69c.604-.108 1.1-.806 1.1-1.395V151.1c0-.79-.604-1.38-1.395-1.38h-.201l-3.271.698v-14.787h-2.775v15.376l-8.834 1.783v-13.981h-2.775v14.585l-3.875.79c-.589.094-1.085.791-1.085 1.38v5.952-.186c0 .79.589 1.38 1.395 1.38h.295l3.27-.698v16.368l-3.875.806c-.589.093-1.085.79-1.085 1.38v5.75c0 .806.589 1.395 1.395 1.395h.295l3.27-.697V201.8h2.775v-15.376l8.834-1.783v13.981h2.775v-14.585l3.767-.698c.604-.093 1.1-.79 1.1-1.38v-5.858c0-.79-.604-1.38-1.395-1.38h-.201l-3.271.682v-16.368l3.767-.682m-15.376 19.53v-16.46l8.834-1.783v16.368l-8.834 1.875m-9.424-56.729c.604-.108 1.1-.806 1.1-1.395V113.9c0-.79-.604-1.38-1.395-1.38h-.201l-3.271.698V98.431h-2.775v15.376l-8.834 1.783v-13.981h-2.775v14.585l-3.875.79c-.589.094-1.085.791-1.085 1.38v5.952-.186c0 .79.589 1.38 1.395 1.38h.295l3.27-.698v16.368l-3.875.806c-.589.093-1.085.79-1.085 1.38v5.75c0 .806.589 1.395 1.395 1.395h.295l3.27-.697V164.6h2.775v-15.376l8.834-1.783v13.981h2.775v-14.585l3.767-.698c.604-.093 1.1-.79 1.1-1.38v-5.858c0-.79-.604-1.38-1.395-1.38h-.201l-3.271.682v-16.368l3.767-.682m-15.376 19.53v-16.46l8.834-1.783v16.368l-8.834 1.875" style="stroke-width:.992"/>
  <path class="TimeSig" d="M541.162 930.48h17.034v7.393h-8.152c-.776 0-1.411.62-1.411 1.395v1.89c0 .776.635 1.396 1.41 1.396h30.009a1.39 1.39 0 0 0 1.394-1.395v-1.891a1.39 1.39 0 0 0-1.394-1.395h-8.866v-7.394h8.866a1.39 1.39 0 0 0 1.394-1.395v-1.89a1.39 1.39 0 0 0-1.394-1.396h-8.866v-15.84c0-.528-.31-1.008-.776-1.24l-1.208-.605a1.446 1.446 0 0 0-1.582.232l-8.974 8.246c-.279.28-.45.636-.45 1.039v8.168h-11.423s11.036-11.935 22.785-27.574c.852-1.147.356-2.186.17-2.372l-2.154-2.185a1.41 1.41 0 0 0-.992-.419c-.589 0-14.043.031-14.756 0-.713-.015-1.24.605-1.318 1.21 0 0-.526 7.3-3.115 15.375-2.573 8.045-5.487 12.99-8.122 16.585 0 0-.542.977-.186 1.72.341.745.976 1.814.976 1.814s.248.527 1.101.527m0 49.341h17.034v7.393h-8.152c-.776 0-1.411.62-1.411 1.395v1.89c0 .776.635 1.396 1.41 1.396h30.009a1.39 1.39 0 0 0 1.394-1.395v-1.891a1.39 1.39 0 0 0-1.394-1.395h-8.866v-7.394h8.866a1.39 1.39 0 0 0 1.394-1.395v-1.89a1.39 1.39 0 0 0-1.394-1.396h-8.866v-15.84c0-.528-.31-1.008-.776-1.24l-1.208-.605a1.446 1.446 0 0 0-1.582.232l-8.974 8.246c-.279.28-.45.636-.45 1.039v8.168h-11.423s11.036-11.935 22.785-27.574c.852-1.147.356-2.186.17-2.372l-2.154-2.185a1.41 1.41 0 0 0-.992-.419c-.589 0-14.043.031-14.756 0-.713-.015-1.24.605-1.318 1.21 0 0-.526 7.3-3.115 15.375-2.573 8.045-5.487 12.99-8.122 16.585 0 0-.542.977-.186 1.72.341.745.976 1.814.976 1.814s.248.527 1.101.527m0-235.339h17.034v7.393h-8.152c-.776 0-1.411.62-1.411 1.395v1.89c0 .776.635 1.396 1.41 1.396h30.009a1.39 1.39 0 0 0 1.394-1.395v-1.891a1.39 1.39 0 0 0-1.394-1.395h-8.866v-7.394h8.866a1.39 1.39 0 0 0 1.394-1.395v-1.89a1.39 1.39 0 0 0-1.394-1.396h-8.866v-15.84c0-.528-.31-1.008-.776-1.24l-1.208-.605a1.446 1.446 0 0 0-1.582.232l-8.974 8.246c-.279.28-.45.636-.45 1.039v8.168h-11.423s11.036-11.935 22.785-27.574c.852-1.147.356-2.186.17-2.372l-2.154-2.185a1.41 1.41 0 0 0-.992-.419c-.589 0-14.043.031-14.756 0-.713-.015-1.24.605-1.318 1.21 0 0-.526 7.3-3.115 15.375-2.573 8.045-5.487 12.99-8.122 16.585 0 0-.542.977-.186 1.72.341.745.976 1.814.976 1.814s.248.527 1.101.527m0 49.341h17.034v7.393h-8.152c-.776 0-1.411.62-1.411 1.395v1.89c0 .776.635 1.396 1.41 1.396h30.009a1.39 1.39 0 0 0 1.394-1.395v-1.891a1.39 1.39 0 0 0-1.394-1.395h-8.866v-7.394h8.866a1.39 1.39 0 0 0 1.394-1.395v-1.89a1.39 1.39 0 0 0-1.394-1.396h-8.866v-15.84c0-.528-.31-1.008-.776-1.24l-1.208-.605a1.446 1.446 0 0 0-1.582.232l-8.974 8.246c-.279.28-.45.636-.45 1.039v8.168h-11.423s11.036-11.935 22.785-27.574c.852-1.147.356-2.186.17-2.372l-2.154-2.185a1.41 1.41 0 0 0-.992-.419c-.589 0-14.043.031-14.756 0-.713-.015-1.24.605-1.318 1.21 0 0-.526 7.3-3.115 15.375-2.573 8.045-5.487 12.99-8.122 16.585 0 0-.542.977-.186 1.72.341.745.976 1.814.976 1.814s.248.527 1.101.527m0-235.339h17.034v7.393h-8.152c-.776 0-1.411.62-1.411 1.395v1.89c0 .776.635 1.396 1.41 1.396h30.009a1.39 1.39 0 0 0 1.394-1.395v-1.891a1.39 1.39 0 0 0-1.394-1.395h-8.866v-7.394h8.866a1.39 1.39 0 0 0 1.394-1.395v-1.89a1.39 1.39 0 0 0-1.394-1.396h-8.866v-15.84c0-.528-.31-1.008-.776-1.24l-1.208-.605a1.446 1.446 0 0 0-1.582.232l-8.974 8.246c-.279.28-.45.636-.45 1.039v8.168h-11.423s11.036-11.935 22.785-27.574c.852-1.147.356-2.186.17-2.372l-2.154-2.185a1.41 1.41 0 0 0-.992-.419c-.589 0-14.043.031-14.756 0-.713-.015-1.24.605-1.318 1.21 0 0-.526 7.3-3.115 15.375-2.573 8.045-5.487 12.99-8.122 16.585 0 0-.542.977-.186 1.72.341.745.976 1.814.976 1.814s.248.527 1.101.527m0 49.337h17.034v7.394h-8.152c-.776 0-1.411.62-1.411 1.395v1.89c0 .776.635 1.396 1.41 1.396h30.009a1.39 1.39 0 0 0 1.394-1.395v-1.891a1.39 1.39 0 0 0-1.394-1.395h-8.866v-7.394h8.866a1.39 1.39 0 0 0 1.394-1.395v-1.89a1.39 1.39 0 0 0-1.394-1.396h-8.866v-15.84c0-.528-.31-1.008-.776-1.24l-1.208-.605a1.446 1.446 0 0 0-1.582.232l-8.974 8.246c-.279.28-.45.636-.45 1.039v8.168h-11.423s11.036-11.935 22.785-27.574c.852-1.147.356-2.186.17-2.372l-2.154-2.185a1.41 1.41 0 0 0-.992-.419c-.589 0-14.043.031-14.756 0-.713-.015-1.24.605-1.318 1.21 0 0-.526 7.3-3.115 15.375-2.573 8.045-5.487 12.99-8.122 16.585 0 0-.542.977-.186 1.72.341.745.976 1.814.976 1.814s.248.527 1.101.527m0-235.336h17.034v7.393h-8.152c-.776 0-1.411.62-1.411 1.395v1.89c0 .776.635 1.396 1.41 1.396h30.009a1.39 1.39 0 0 0 1.394-1.395v-1.891a1.39 1.39 0 0 0-1.394-1.395h-8.866v-7.394h8.866a1.39 1.39 0 0 0 1.394-1.395v-1.89a1.39 1.39 0 0 0-1.394-1.396h-8.866v-15.84c0-.528-.31-1.008-.776-1.24l-1.208-.605a1.446 1.446 0 0 0-1.582.232l-8.974 8.246c-.279.28-.45.636-.45 1.039v8.168h-11.423s11.036-11.935 22.785-27.574c.852-1.147.356-2.186.17-2.372l-2.154-2.185a1.41 1.41 0 0 0-.992-.419c-.589 0-14.043.031-14.756 0-.713-.015-1.24.605-1.318 1.21 0 0-.526 7.3-3.115 15.375-2.573 8.045-5.487 12.99-8.122 16.585 0 0-.542.977-.186 1.72.341.745.976 1.814.976 1.814s.248.527 1.101.527m0 49.337h17.034v7.394h-8.152c-.776 0-1.411.62-1.411 1.395v1.89c0 .776.635 1.396 1.41 1.396h30.009a1.39 1.39 0 0 0 1.394-1.395v-1.891a1.39 1.39 0 0 0-1.394-1.395h-8.866v-7.394h8.866a1.39 1.39 0 0 0 1.394-1.395v-1.89a1.39 1.39 0 0 0-1.394-1.396h-8.866v-15.84c0-.528-.31-1.008-.776-1.24l-1.208-.605a1.446 1.446 0 0 0-1.582.232l-8.974 8.246c-.279.28-.45.636-.45 1.039v8.168h-11.423s11.036-11.935 22.785-27.574c.852-1.147.356-2.186.17-2.372l-2.154-2.185a1.41 1.41 0 0 0-.992-.419c-.589 0-14.043.031-14.756 0-.713-.015-1.24.605-1.318 1.21 0 0-.526 7.3-3.115 15.375-2.573 8.045-5.487 12.99-8.122 16.585 0 0-.542.977-.186 1.72.341.745.976 1.814.976 1.814s.248.527 1.101.527m0-252.696h17.034v7.393h-8.152c-.776 0-1.411.62-1.411 1.395v1.89c0 .776.635 1.396 1.41 1.396h30.009a1.39 1.39 0 0 0 1.394-1.395v-1.891a1.39 1.39 0 0 0-1.394-1.395h-8.866v-7.394h8.866a1.39 1.39 0 0 0 1.394-1.395v-1.89a1.39 1.39 0 0 0-1.394-1.396h-8.866v-15.84c0-.528-.31-1.008-.776-1.24l-1.208-.605a1.446 1.446 0 0 0-1.582.232l-8.974 8.246c-.279.28-.45.636-.45 1.039v8.168h-11.423s11.036-11.935 22.785-27.574c.852-1.147.356-2.186.17-2.372l-2.154-2.185a1.41 1.41 0 0 0-.992-.419c-.589 0-14.043.031-14.756 0-.713-.015-1.24.605-1.318 1.21 0 0-.526 7.3-3.115 15.375-2.573 8.045-5.487 12.99-8.122 16.585 0 0-.542.977-.186 1.72.341.745.976 1.814.976 1.814s.248.527 1.101.527m0 49.337h17.034v7.394h-8.152c-.776 0-1.411.62-1.411 1.395v1.89c0 .776.635 1.396 1.41 1.396h30.009a1.39 1.39 0 0 0 1.394-1.395v-1.891a1.39 1.39 0 0 0-1.394-1.395h-8.866v-7.394h8.866a1.39 1.39 0 0 0 1.394-1.395v-1.89a1.39 1.39 0 0 0-1.394-1.396h-8.866v-15.84c0-.528-.31-1.008-.776-1.24l-1.208-.605a1.446 1.446 0 0 0-1.582.232l-8.974 8.246c-.279.28-.45.636-.45 1.039v8.168h-11.423s11.036-11.935 22.785-27.574c.852-1.147.356-2.186.17-2.372l-2.154-2.185a1.41 1.41 0 0 0-.992-.419c-.589 0-14.043.031-14.756 0-.713-.015-1.24.605-1.318 1.21 0 0-.526 7.3-3.115 15.375-2.573 8.045-5.487 12.99-8.122 16.585 0 0-.542.977-.186 1.72.341.745.976 1.814.976 1.814s.248.527 1.101.527" style="stroke-width:.992"/>
  <path class="Beam" fill-rule="evenodd" d="M2084.598 961.225h96.46v12.4h-96.46v-12.4m210.9 93h178.47v12.4h-178.47v-12.4m117.16-18.6h61.31v12.4h-61.31v-12.4m-1781.619-235.6h118.228v12.4H631.039v-12.4m207.899-24.86 175.98 25.19v12.52l-175.98-25.19v-12.52m0-18.6 175.98 25.19v12.52l-175.98-25.19v-12.52m769.64 37.26h150.68v12.4h-150.68v-12.4m241.68 31h178.48v12.4h-178.48v-12.4m0-18.6h178.48v12.4h-178.48v-12.4m234.34 0h96.46v12.4h-96.46v-12.4m210.9 12.4h178.47v12.4h-178.47v-12.4m117.16-18.6h61.31v12.4h-61.31v-12.4m-1297.91-291.402h95.13v12.4h-95.13v-12.4m207.9-12.306 175.98-6.298v12.408l-175.98 6.298v-12.408m115.5 14.467 60.48-2.165v12.408l-60.48 2.165v-12.408m170.43 109.439h150.68v12.4h-150.68v-12.4m241.68 18.6h178.48v12.4h-178.48v-12.4m0-18.6h178.48v12.4h-178.48v-12.4m263.84-111.6h96.46v12.4h-96.46v-12.4m210.9-12.723 178.48 18.89v12.468l-178.48-18.889V495.9m0 18.6 178.48 18.89v12.468l-178.48-18.889V514.5m-1239.76-61.677h95.13v12.4h-95.13v-12.4m237.41-167.853 175.98 25.19v12.527l-175.98-25.19V284.97m115.5 35.133 60.48 8.657v12.527l-60.48-8.658v-12.526m199.94 8.72h150.67v12.4h-150.67v-12.4m241.68-.446 178.48 25.185v12.523l-178.48-25.185v-12.523m117.16 35.133 61.32 8.652v12.523l-61.32-8.652V363.51m117.17-28.487h96.46v12.4h-96.46v-12.4m210.9-5.876 178.48-25.185v12.523l-178.48 25.185v-12.523m0 18.6 178.48-25.185v12.523l-178.48 25.185v-12.523M631.039 199.828l60.478-6.493v12.471l-60.478 6.493v-12.47m0-18.601 32.24-3.46v12.47l-32.24 3.461v-12.47m207.899 37.234h175.98v12.4h-175.98v-12.4m115.5-18.6h60.48v12.4h-60.48v-12.4m130.8-6.205 152.88 6.313v12.41l-152.88-6.312v-12.41m92.4-14.785 60.48 2.497v12.41l-60.48-2.497v-12.41m115.51 39.589h175.97v12.4h-175.97v-12.4m0-18.6h32.24v12.4h-32.24v-12.4m175.97 0h-32.24v12.4h32.24v-12.4m139.46 18.595 150.68 6.314v12.411l-150.68-6.314v-12.41m0-18.601 92.1 3.86v12.41l-92.1-3.859v-12.41m241.68-.528 61.32 25.955v13.465l-61.32-25.955v-13.465m0-18.6 32.24 13.648v13.465l-32.24-13.648v-13.465m234.34 19.051 155.04-25.244v12.563l-155.04 25.244v-12.563m93.73-33.862 61.31-9.982v12.563l-61.31 9.983V165.92m117.17 52.466 119.89-19.033v12.555l-119.89 19.033v-12.555m0-18.6 61.31-9.733v12.555l-61.31 9.733v-12.555"/>
  <path class="NoteDot" d="M733.421 119.263a4.955 4.955 0 0 0 4.96 4.96 4.955 4.955 0 0 0 4.96-4.96 4.955 4.955 0 0 0-4.96-4.96 4.955 4.955 0 0 0-4.96 4.96m1220.057 24.8a4.955 4.955 0 0 0 4.96 4.96 4.955 4.955 0 0 0 4.96-4.96 4.955 4.955 0 0 0-4.96-4.96 4.955 4.955 0 0 0-4.96 4.96" style="stroke-width:.992"/>
  <path class="Tremolo" fill-rule="evenodd" d="m617.523 998.425 29.76-12.4v12.4l-29.76 12.4v-12.4m454.205 0 29.76-12.4v12.4l-29.76 12.4v-12.4m523.34-12.4 29.76-12.4v12.4l-29.76 12.4v-12.4m-523.34-210.8 29.76-12.4v12.4l-29.76 12.4v-12.4M647.027 539.623l29.76-12.4v12.4l-29.76 12.4v-12.4m-29.504-111.6 29.76-12.4v12.4l-29.76 12.4v-12.4"/>
  <path class="Bracket" stroke="#000" stroke-width="10.91" stroke-linejoin="bevel" d="M336.794 317.167v692.908"/>
  <path class="Bracket" d="M379.357 295.142c-.202-.093-.496-.202-.698-.202-.402 0-.852.155-1.084.496-.202.295-10.122 15.578-29.078 15.578h-15.764c-.806 0-1.395.496-1.395 1.286v10.323h12.105c30.551 0 36.41-25.482 36.503-25.792.031-.093.109-.294.109-.496 0-.496-.31-.899-.698-1.193m0 736.965c.388-.295.698-.698.698-1.194 0-.201-.078-.403-.109-.496-.093-.31-5.952-25.792-36.503-25.792h-12.105v10.323c0 .79.589 1.287 1.395 1.287h15.764c18.956 0 28.876 15.283 29.078 15.577.232.341.682.496 1.084.496.202 0 .496-.108.698-.201" style="stroke-width:.992"/>
  <text xml:space="preserve" style="font-size:64px;line-height:1.25;font-family:FreeSerif,serif;-inkscape-font-specification:FreeSerif,serif" x="777.381" y="1156.236"><tspan x="777.381" y="1156.236" style="fill:#ff2a2a;fill-opacity:1">I7</tspan></text>
  <text xml:space="preserve" style="font-size:64px;line-height:1.25;font-family:FreeSerif,serif;-inkscape-font-specification:FreeSerif,serif;stroke:#000;stroke-width:1.2;stroke-miterlimit:4;stroke-dasharray:none;stroke-opacity:1" x="1417.063" y="1410.849" transform="translate(-170.692 -254.535)"><tspan x="1417.063" y="1410.849" style="fill:#90ffa5;fill-opacity:1;stroke:#000;stroke-width:1.2;stroke-miterlimit:4;stroke-dasharray:none;stroke-opacity:1">v</tspan></text>
  <text xml:space="preserve" style="font-size:37.3333px;line-height:1.25;font-family:FreeSerif,serif;-inkscape-font-specification:FreeSerif,serif;stroke-width:1.2;stroke-miterlimit:4;stroke-dasharray:none" x="1475.385" y="1371.884" transform="translate(-170.692 -254.535)"><tspan x="1475.385" y="1371.884" style="font-size:37.3333px;fill:#90ffa5;fill-opacity:1;stroke:#000;stroke-width:1.2;stroke-miterlimit:4;stroke-dasharray:none;stroke-opacity:1">6</tspan></text>
  <text xml:space="preserve" style="font-size:37.3333px;line-height:1.25;font-family:FreeSerif,serif;-inkscape-font-specification:FreeSerif,serif;stroke-width:1.2;stroke-miterlimit:4;stroke-dasharray:none" x="1474.648" y="1427.689" transform="translate(-170.692 -254.535)"><tspan x="1474.648" y="1427.689" style="font-size:37.3333px;fill:#90ffa5;fill-opacity:1;stroke:#000;stroke-width:1.2;stroke-miterlimit:4;stroke-dasharray:none;stroke-opacity:1">4</tspan></text>
  <text xml:space="preserve" style="font-size:64px;line-height:1.25;font-family:FreeSerif,serif;-inkscape-font-specification:FreeSerif,serif;stroke-width:1.2;stroke-miterlimit:4;stroke-dasharray:none" x="1766.843" y="1156.314"><tspan x="1766.843" y="1156.314" style="fill:#ffd42a;fill-opacity:1;stroke:#000;stroke-opacity:1">ii7</tspan></text>
  <text xml:space="preserve" style="font-size:64px;line-height:1.25;font-family:FreeSerif,serif;-inkscape-font-specification:FreeSerif,serif" x="2179.17" y="1156.314"><tspan x="2179.17" y="1156.314" style="fill:#ff2ad4;fill-opacity:1">V13V7</tspan></text>
  <text xml:space="preserve" style="font-size:64px;line-height:1.25;font-family:FreeSerif,serif;-inkscape-font-specification:FreeSerif,serif" x="633.308" y="68.465"><tspan x="633.308" y="68.465">3</tspan></text>
  <text xml:space="preserve" style="font-size:64px;line-height:1.25;font-family:FreeSerif,serif;-inkscape-font-specification:FreeSerif,serif" x="692.308" y="69.465"><tspan x="692.308" y="69.465" style="fill:#ff7f2a;fill-opacity:1">4</tspan></text>
  <text xml:space="preserve" style="font-size:64px;line-height:1.25;font-family:FreeSerif,serif;-inkscape-font-specification:FreeSerif,serif" x="840.308" y="69.465"><tspan x="840.308" y="69.465">3</tspan></text>
  <text xml:space="preserve" style="font-size:64px;line-height:1.25;font-family:FreeSerif,serif;-inkscape-font-specification:FreeSerif,serif" x="956.308" y="69.465"><tspan x="956.308" y="69.465" style="fill:#ff7f2a;fill-opacity:1">2</tspan></text>
  <text xml:space="preserve" style="font-size:64px;line-height:1.25;font-family:FreeSerif,serif;-inkscape-font-specification:FreeSerif,serif" x="1012.308" y="69.465"><tspan x="1012.308" y="69.465">3</tspan></text>
  <text xml:space="preserve" style="font-size:64px;line-height:1.25;font-family:FreeSerif,serif;-inkscape-font-specification:FreeSerif,serif" x="1085.414" y="69.465"><tspan x="1085.414" y="69.465">1</tspan></text>
  <text xml:space="preserve" style="font-size:64px;line-height:1.25;font-family:FreeSerif,serif;-inkscape-font-specification:FreeSerif,serif" x="1160.641" y="69.465"><tspan x="1160.641" y="69.465">3</tspan></text>
  <text xml:space="preserve" style="font-size:64px;line-height:1.25;font-family:FreeSerif,serif;-inkscape-font-specification:FreeSerif,serif" x="1682.301" y="68.962"><tspan x="1682.301" y="68.962">3</tspan></text>
  <text xml:space="preserve" style="font-size:64px;line-height:1.25;font-family:FreeSerif,serif;-inkscape-font-specification:FreeSerif,serif" x="1833.854" y="68.608"><tspan x="1833.854" y="68.608">3</tspan></text>
  <text xml:space="preserve" style="font-size:64px;line-height:1.25;font-family:FreeSerif,serif;-inkscape-font-specification:FreeSerif,serif" x="1226.513" y="69.465"><tspan x="1226.513" y="69.465" style="fill:#ff7f2a;fill-opacity:1">7</tspan></text>
  <text xml:space="preserve" style="font-size:64px;line-height:1.25;font-family:FreeSerif,serif;-inkscape-font-specification:FreeSerif,serif" x="1455.776" y="69.441"><tspan x="1455.776" y="69.441" style="fill:#ff7f2a;fill-opacity:1">7</tspan></text>
  <text xml:space="preserve" style="font-size:64px;line-height:1.25;font-family:FreeSerif,serif;-inkscape-font-specification:FreeSerif,serif" x="1337.308" y="69.465"><tspan x="1337.308" y="69.465" style="fill:#ff7f2a;fill-opacity:1">6</tspan></text>
  <text xml:space="preserve" style="font-size:64px;line-height:1.25;font-family:FreeSerif,serif;-inkscape-font-specification:FreeSerif,serif;fill:#ff7f2a;fill-opacity:1" x="1609.501" y="69.465"><tspan x="1609.501" y="69.465">2</tspan></text>
  <text xml:space="preserve" style="font-size:64px;line-height:1.25;font-family:FreeSerif,serif;-inkscape-font-specification:FreeSerif,serif" x="1756.923" y="69.465"><tspan x="1756.923" y="69.465">1</tspan></text>
  <text xml:space="preserve" style="font-size:64px;line-height:1.25;font-family:FreeSerif,serif;-inkscape-font-specification:FreeSerif,serif" x="1904.486" y="69.465"><tspan x="1904.486" y="69.465">7</tspan></text>
  <text xml:space="preserve" style="font-size:64px;line-height:1.25;font-family:FreeSerif,serif;-inkscape-font-specification:FreeSerif,serif" x="2161.64" y="69.083"><tspan x="2161.64" y="69.083">7</tspan></text>
  <text xml:space="preserve" style="font-size:64px;line-height:1.25;font-family:FreeSerif,serif;-inkscape-font-specification:FreeSerif,serif" x="2402.276" y="69.441"><tspan x="2402.276" y="69.441">7</tspan></text>
  <text xml:space="preserve" style="font-size:64px;line-height:1.25;font-family:FreeSerif,serif;-inkscape-font-specification:FreeSerif,serif" x="2082.308" y="69.465"><tspan x="2082.308" y="69.465" style="fill:#000;fill-opacity:1">6</tspan></text>
  <text xml:space="preserve" style="font-size:64px;line-height:1.25;font-family:FreeSerif,serif;-inkscape-font-specification:FreeSerif,serif" x="2238.308" y="69.465"><tspan x="2238.308" y="69.465">1</tspan></text>
  <text xml:space="preserve" style="font-size:64px;line-height:1.25;font-family:FreeSerif,serif;-inkscape-font-specification:FreeSerif,serif" x="2298.308" y="69.465"><tspan x="2298.308" y="69.465">5</tspan></text>
  <text xml:space="preserve" style="font-size:64px;line-height:1.25;font-family:FreeSerif,serif;-inkscape-font-specification:FreeSerif,serif" x="2354.308" y="69.465"><tspan x="2354.308" y="69.465">2</tspan></text>
  <text xml:space="preserve" style="font-size:64px;line-height:1.25;font-family:FreeSerif,serif;-inkscape-font-specification:FreeSerif,serif;stroke-width:1.2;stroke-miterlimit:4;stroke-dasharray:none" x="2397.308" y="692.465"><tspan x="2397.308" y="692.465" style="fill:#6f0;fill-opacity:.47451;stroke:#000;stroke-width:1.2;stroke-miterlimit:4;stroke-dasharray:none;stroke-opacity:1">!</tspan></text>
</svg>
