<svg width="3690.396" height="425.793" version="1.2" xmlns="http://www.w3.org/2000/svg">
  <path class="StaffLines" fill="none" stroke="#000" stroke-width="2.73" stroke-linejoin="bevel" d="M16 223.769h3658.396M16 248.572h3658.396M16 273.375h3658.396M16 298.179h3658.396M16 322.982h3658.396"/>
  <path class="Symbol" d="M373.47 260.881c0 7.735 3.969 13.983 10.324 18.044l.496-.682c-3.38-2.589-4.573-4.077-5.658-7.255-.992-2.868-1.488-6.046-1.488-10.216 0-7.828 1.085-11.998 7.146-17.067l-.403-.682c-6.542 4.464-10.417 9.518-10.417 17.858m46.723-.109c0 4.17-.496 7.348-1.488 10.216-1.194 3.178-2.388 4.666-5.751 7.255l.589.682c6.355-3.968 10.215-10.417 10.215-18.044 0-8.247-3.86-13.595-10.417-17.858l-.387.682c6.138 4.96 7.239 9.239 7.239 17.067m8.526.109c0 7.735 3.969 13.983 10.324 18.044l.496-.682c-3.38-2.589-4.573-4.077-5.658-7.255-.992-2.868-1.488-6.046-1.488-10.216 0-7.828 1.085-11.998 7.146-17.067l-.403-.682c-6.542 4.464-10.417 9.518-10.417 17.858m46.723-.109c0 4.17-.496 7.348-1.488 10.216-1.194 3.178-2.388 4.666-5.751 7.255l.589.682c6.355-3.968 10.215-10.417 10.215-18.044 0-8.247-3.86-13.595-10.417-17.858l-.387.682c6.138 4.96 7.239 9.239 7.239 17.067m270.074.109c0 7.735 3.969 13.983 10.324 18.044l.496-.682c-3.38-2.589-4.573-4.077-5.658-7.255-.992-2.868-1.488-6.046-1.488-10.216 0-7.828 1.085-11.998 7.146-17.067l-.403-.682c-6.542 4.464-10.417 9.518-10.417 17.858m46.714-.109c0 4.17-.496 7.348-1.488 10.216-1.194 3.178-2.388 4.666-5.751 7.255l.589.682c6.355-3.968 10.215-10.417 10.215-18.044 0-8.247-3.86-13.595-10.417-17.858l-.387.682c6.138 4.96 7.239 9.239 7.239 17.067m1337.086.109c0 7.735 3.969 13.983 10.324 18.044l.496-.682c-3.38-2.589-4.573-4.077-5.658-7.255-.992-2.868-1.488-6.046-1.488-10.216 0-7.828 1.085-11.998 7.146-17.067l-.403-.682c-6.541 4.464-10.417 9.518-10.417 17.858m46.724-.109c0 4.17-.496 7.348-1.488 10.216-1.194 3.178-2.387 4.666-5.751 7.255l.589.682c6.355-3.968 10.215-10.417 10.215-18.044 0-8.247-3.86-13.595-10.417-17.858l-.387.682c6.138 4.96 7.239 9.239 7.239 17.067m395.866.109c0 7.735 3.969 13.983 10.324 18.044l.496-.682c-3.38-2.589-4.573-4.077-5.658-7.255-.992-2.868-1.488-6.046-1.488-10.216 0-7.828 1.085-11.998 7.146-17.067l-.403-.682c-6.541 4.464-10.417 9.518-10.417 17.858m46.724-.109c0 4.17-.496 7.348-1.488 10.216-1.194 3.178-2.387 4.666-5.751 7.255l.589.682c6.355-3.968 10.215-10.417 10.215-18.044 0-8.247-3.86-13.595-10.417-17.858l-.387.682c6.138 4.96 7.239 9.239 7.239 17.067m14.746.109c0 7.735 3.969 13.983 10.324 18.044l.496-.682c-3.38-2.589-4.573-4.077-5.658-7.255-.992-2.868-1.488-6.046-1.488-10.216 0-7.828 1.085-11.998 7.146-17.067l-.403-.682c-6.541 4.464-10.417 9.518-10.417 17.858m46.724-.109c0 4.17-.496 7.348-1.488 10.216-1.194 3.178-2.387 4.666-5.751 7.255l.589.682c6.355-3.968 10.215-10.417 10.215-18.044 0-8.247-3.86-13.595-10.417-17.858l-.387.682c6.138 4.96 7.239 9.239 7.239 17.067m14.746.109c0 7.735 3.969 13.983 10.324 18.044l.496-.682c-3.38-2.589-4.573-4.077-5.658-7.255-.992-2.868-1.488-6.046-1.488-10.216 0-7.828 1.085-11.998 7.146-17.067l-.403-.682c-6.541 4.464-10.417 9.518-10.417 17.858m46.724-.109c0 4.17-.496 7.348-1.488 10.216-1.194 3.178-2.387 4.666-5.751 7.255l.589.682c6.355-3.968 10.215-10.417 10.215-18.044 0-8.247-3.86-13.595-10.417-17.858l-.387.682c6.138 4.96 7.239 9.239 7.239 17.067m14.746.109c0 7.735 3.969 13.983 10.324 18.044l.496-.682c-3.38-2.589-4.573-4.077-5.658-7.255-.992-2.868-1.488-6.046-1.488-10.216 0-7.828 1.085-11.998 7.146-17.067l-.403-.682c-6.541 4.464-10.417 9.518-10.417 17.858m46.724-.109c0 4.17-.496 7.348-1.488 10.216-1.194 3.178-2.387 4.666-5.751 7.255l.589.682c6.355-3.968 10.215-10.417 10.215-18.044 0-8.247-3.86-13.595-10.417-17.858l-.387.682c6.138 4.96 7.239 9.239 7.239 17.067" style="stroke-width:.992126"/>
  <path class="BarLine" fill="none" stroke="#000" stroke-width="4.46" stroke-linejoin="bevel" d="M1761.416 222.405v101.941m1888.79-101.941v101.941"/>
  <path class="BarLine" fill="none" stroke="#000" stroke-width="13.64" stroke-linejoin="bevel" d="M3667.576 222.405v101.941"/>
  <path class="Stem" fill="none" stroke="#000" stroke-width="2.73" stroke-linejoin="bevel" d="M189.018 313.914v89.678m87.391-89.678v89.678m54.619-89.678v89.678m54.619-89.678v89.678m284.65-89.678v77.276m87.389-77.276v77.276m262.17-77.276v89.678m196.63-89.678v89.678m54.62-89.678v89.678m142.01-89.678v83.477m507.08-83.477v77.276m122.94-77.276v77.276m295.06-77.276v89.678m61.47-89.678v89.678m122.94-89.678v89.678m61.47-89.678v89.678m122.95-89.678v89.678m319.64-89.678v89.678m61.47-89.678v89.678m122.94-89.678v89.678m61.47-89.678v89.678m184.41-89.678v89.678M218.526 202.954V99.753m196.629 158.046V119.644m55.249 138.155V125.232m54.619 132.567V130.757m87.391 72.197v-72.197m174.782 127.042V130.757m87.39 127.042V130.757m87.39 72.197v-84.598m87.39 84.598v-84.598m54.62 84.598v-84.598m54.62 139.443V118.356m196.63 139.443V118.356m87.39 84.598v-84.598m59.51 84.598v-84.598m54.62 139.443V118.356m54.62 84.598v-84.598m54.62 139.443V118.356m54.62 84.598v-84.598m106.15 139.443V118.356m61.47 84.598v-84.598m122.94 84.598v-84.598m61.47 84.598v-84.598m98.36 139.443V118.356m98.35 139.443V99.753m98.35 103.201V107.27m61.47 95.684v-90.987m61.47 90.987v-86.289m122.94 141.134V126.06m61.47 131.739V130.757m61.47 127.042V118.356m61.47 139.443V118.356m61.47 139.443V118.356m98.36 139.443V118.356m221.29 139.443V99.753m184.41 158.046V113.041m61.47 89.913V117.47m122.94 140.329V126.328m61.47 131.471V130.757"/>
  <path class="Note" d="M218.905 302.55c-1.783-3.286-5.55-5.07-10.123-5.07-3.364 0-7.038.993-10.619 2.884-6.542 3.473-10.51 9.317-10.51 14.386 0 1.38.295 2.775.992 4.062 1.783 3.27 5.55 4.96 10.123 4.96 3.364 0 7.038-.883 10.619-2.775 6.542-3.472 10.51-9.332 10.51-14.386 0-1.395-.294-2.774-.992-4.061m87.391 0c-1.783-3.286-5.55-5.07-10.123-5.07-3.364 0-7.038.993-10.619 2.884-6.541 3.473-10.51 9.317-10.51 14.386 0 1.38.295 2.775.992 4.062 1.783 3.27 5.55 4.96 10.123 4.96 3.364 0 7.038-.883 10.619-2.775 6.542-3.472 10.51-9.332 10.51-14.386 0-1.395-.294-2.774-.992-4.061m54.62 0c-1.783-3.286-5.55-5.07-10.123-5.07-3.364 0-7.038.993-10.619 2.884-6.541 3.473-10.51 9.317-10.51 14.386 0 1.38.295 2.775.992 4.062 1.783 3.27 5.55 4.96 10.123 4.96 3.364 0 7.038-.883 10.619-2.775 6.542-3.472 10.51-9.332 10.51-14.386 0-1.395-.294-2.774-.992-4.061m54.619 0c-1.783-3.286-5.55-5.07-10.123-5.07-3.364 0-7.038.993-10.619 2.884-6.542 3.473-10.51 9.317-10.51 14.386 0 1.38.295 2.775.992 4.062 1.783 3.27 5.55 4.96 10.123 4.96 3.364 0 7.038-.883 10.619-2.775 6.542-3.472 10.51-9.332 10.51-14.386 0-1.395-.294-2.774-.992-4.061m284.65 0c-1.783-3.286-5.55-5.07-10.123-5.07-3.364 0-7.038.993-10.619 2.884-6.541 3.473-10.51 9.317-10.51 14.386 0 1.38.295 2.775.992 4.062 1.783 3.27 5.55 4.96 10.123 4.96 3.364 0 7.038-.883 10.619-2.775 6.542-3.472 10.51-9.332 10.51-14.386 0-1.395-.294-2.774-.992-4.061m87.393 0c-1.783-3.286-5.55-5.07-10.123-5.07-3.364 0-7.038.993-10.619 2.884-6.541 3.473-10.51 9.317-10.51 14.386 0 1.38.295 2.775.992 4.062 1.783 3.27 5.55 4.96 10.123 4.96 3.364 0 7.038-.883 10.619-2.775 6.542-3.472 10.51-9.332 10.51-14.386 0-1.395-.294-2.774-.992-4.061m262.17 0c-1.783-3.286-5.55-5.07-10.123-5.07-3.364 0-7.038.993-10.619 2.884-6.542 3.473-10.51 9.317-10.51 14.386 0 1.38.294 2.775.992 4.062 1.783 3.27 5.55 4.96 10.123 4.96 3.364 0 7.038-.883 10.619-2.775 6.542-3.472 10.51-9.332 10.51-14.386 0-1.395-.295-2.774-.992-4.061m196.63 0c-1.783-3.286-5.55-5.07-10.123-5.07-3.364 0-7.038.993-10.619 2.884-6.542 3.473-10.51 9.317-10.51 14.386 0 1.38.294 2.775.992 4.062 1.783 3.27 5.55 4.96 10.123 4.96 3.364 0 7.038-.883 10.619-2.775 6.542-3.472 10.51-9.332 10.51-14.386 0-1.395-.295-2.774-.992-4.061m54.62 0c-1.783-3.286-5.55-5.07-10.123-5.07-3.364 0-7.038.993-10.619 2.884-6.542 3.473-10.51 9.317-10.51 14.386 0 1.38.294 2.775.992 4.062 1.783 3.27 5.55 4.96 10.123 4.96 3.364 0 7.038-.883 10.619-2.775 6.542-3.472 10.51-9.332 10.51-14.386 0-1.395-.295-2.774-.992-4.061m142.01 0c-1.783-3.286-5.55-5.07-10.123-5.07-3.364 0-7.038.993-10.619 2.884-6.542 3.473-10.51 9.317-10.51 14.386 0 1.38.294 2.775.992 4.062 1.783 3.27 5.55 4.96 10.123 4.96 3.364 0 7.038-.883 10.619-2.775 6.542-3.472 10.51-9.332 10.51-14.386 0-1.395-.295-2.774-.992-4.061m507.08 0c-1.783-3.286-5.55-5.07-10.123-5.07-3.364 0-7.038.993-10.619 2.884-6.542 3.473-10.51 9.317-10.51 14.386 0 1.38.294 2.775.992 4.062 1.783 3.27 5.55 4.96 10.123 4.96 3.364 0 7.038-.883 10.619-2.775 6.542-3.472 10.51-9.332 10.51-14.386 0-1.395-.295-2.774-.992-4.061m122.94 0c-1.783-3.286-5.55-5.07-10.123-5.07-3.364 0-7.038.993-10.619 2.884-6.542 3.473-10.51 9.317-10.51 14.386 0 1.38.294 2.775.992 4.062 1.783 3.27 5.55 4.96 10.123 4.96 3.364 0 7.038-.883 10.619-2.775 6.542-3.472 10.51-9.332 10.51-14.386 0-1.395-.295-2.774-.992-4.061m295.06 0c-1.783-3.286-5.55-5.07-10.123-5.07-3.364 0-7.038.993-10.619 2.884-6.542 3.473-10.51 9.317-10.51 14.386 0 1.38.294 2.775.992 4.062 1.783 3.27 5.55 4.96 10.123 4.96 3.364 0 7.038-.883 10.619-2.775 6.542-3.472 10.51-9.332 10.51-14.386 0-1.395-.295-2.774-.992-4.061m61.47 0c-1.783-3.286-5.55-5.07-10.123-5.07-3.364 0-7.038.993-10.619 2.884-6.542 3.473-10.51 9.317-10.51 14.386 0 1.38.294 2.775.992 4.062 1.783 3.27 5.55 4.96 10.123 4.96 3.364 0 7.038-.883 10.619-2.775 6.542-3.472 10.51-9.332 10.51-14.386 0-1.395-.295-2.774-.992-4.061m122.94 0c-1.783-3.286-5.55-5.07-10.123-5.07-3.364 0-7.038.993-10.619 2.884-6.542 3.473-10.51 9.317-10.51 14.386 0 1.38.294 2.775.992 4.062 1.783 3.27 5.55 4.96 10.123 4.96 3.364 0 7.038-.883 10.619-2.775 6.542-3.472 10.51-9.332 10.51-14.386 0-1.395-.295-2.774-.992-4.061m61.47 0c-1.783-3.286-5.55-5.07-10.123-5.07-3.364 0-7.038.993-10.619 2.884-6.542 3.473-10.51 9.317-10.51 14.386 0 1.38.294 2.775.992 4.062 1.783 3.27 5.55 4.96 10.123 4.96 3.364 0 7.038-.883 10.619-2.775 6.542-3.472 10.51-9.332 10.51-14.386 0-1.395-.295-2.774-.992-4.061m122.94 0c-1.783-3.286-5.55-5.07-10.123-5.07-3.364 0-7.038.993-10.619 2.884-6.542 3.473-10.51 9.317-10.51 14.386 0 1.38.294 2.775.992 4.062 1.783 3.27 5.55 4.96 10.123 4.96 3.364 0 7.038-.883 10.619-2.775 6.542-3.472 10.51-9.332 10.51-14.386 0-1.395-.295-2.774-.992-4.061m319.65 0c-1.783-3.286-5.55-5.07-10.123-5.07-3.364 0-7.038.993-10.619 2.884-6.542 3.473-10.51 9.317-10.51 14.386 0 1.38.294 2.775.992 4.062 1.783 3.27 5.55 4.96 10.123 4.96 3.364 0 7.038-.883 10.619-2.775 6.542-3.472 10.51-9.332 10.51-14.386 0-1.395-.295-2.774-.992-4.061m61.47 0c-1.783-3.286-5.55-5.07-10.123-5.07-3.364 0-7.038.993-10.619 2.884-6.542 3.473-10.51 9.317-10.51 14.386 0 1.38.294 2.775.992 4.062 1.783 3.27 5.55 4.96 10.123 4.96 3.364 0 7.038-.883 10.619-2.775 6.542-3.472 10.51-9.332 10.51-14.386 0-1.395-.295-2.774-.992-4.061m122.94 0c-1.783-3.286-5.55-5.07-10.123-5.07-3.364 0-7.038.993-10.619 2.884-6.542 3.473-10.51 9.317-10.51 14.386 0 1.38.294 2.775.992 4.062 1.783 3.27 5.55 4.96 10.123 4.96 3.364 0 7.038-.883 10.619-2.775 6.542-3.472 10.51-9.332 10.51-14.386 0-1.395-.295-2.774-.992-4.061m61.47 0c-1.783-3.286-5.55-5.07-10.123-5.07-3.364 0-7.038.993-10.619 2.884-6.542 3.473-10.51 9.317-10.51 14.386 0 1.38.294 2.775.992 4.062 1.783 3.27 5.55 4.96 10.123 4.96 3.364 0 7.038-.883 10.619-2.775 6.542-3.472 10.51-9.332 10.51-14.386 0-1.395-.295-2.774-.992-4.061m184.41 0c-1.783-3.286-5.55-5.07-10.123-5.07-3.364 0-7.038.993-10.619 2.884-6.542 3.473-10.51 9.317-10.51 14.386 0 1.38.294 2.775.992 4.062 1.783 3.27 5.55 4.96 10.123 4.96 3.364 0 7.038-.883 10.619-2.775 6.542-3.472 10.51-9.332 10.51-14.386 0-1.395-.295-2.774-.992-4.061M207.294 211.368l12.107-9.518c.295-.202.496-.605.496-.992v-.109c0-.387-.201-.697-.387-.884l-1.194-1.193c-.295-.202-.605-.403-.992-.403-.295 0-.698.108-.9.294l-12.602 10.03-12.697-10.03c-.201-.186-.589-.294-.899-.294-.387 0-.589.201-.883.403l-1.287 1.193c-.201.187-.403.59-.403.993 0 .387.202.79.496.992l12.107 9.518-12.107 9.518c-.294.202-.496.605-.496.992 0 .31.202.698.403.9l1.178 1.286c.202.295.605.403.992.403.31 0 .698-.108.9-.294l12.696-10.03 12.603 10.03c.201.186.604.294.899.294.387 0 .79-.108.992-.403l1.194-1.287c.186-.201.387-.589.387-.899 0-.387-.201-.79-.496-.992l-12.107-9.518m208.241 41.576c-1.783-3.286-5.55-5.07-10.123-5.07-3.364 0-7.038.993-10.619 2.884-6.542 3.473-10.51 9.317-10.51 14.386 0 1.38.295 2.775.992 4.062 1.783 3.27 5.55 4.96 10.123 4.96 3.364 0 7.038-.883 10.619-2.775 6.542-3.472 10.51-9.332 10.51-14.386 0-1.395-.294-2.774-.992-4.061m-11.611-41.576 12.107-9.518c.295-.202.496-.605.496-.992v-.109c0-.387-.201-.697-.387-.884l-1.194-1.193c-.295-.202-.605-.403-.992-.403-.295 0-.698.108-.9.294l-12.602 10.03-12.697-10.03c-.201-.186-.589-.294-.899-.294-.387 0-.589.201-.883.403l-1.287 1.193c-.201.187-.403.59-.403.993 0 .387.202.79.496.992l12.107 9.518-12.107 9.518c-.294.202-.496.605-.496.992 0 .31.202.698.403.9l1.178 1.286c.202.295.605.403.992.403.31 0 .698-.108.9-.294l12.696-10.03 12.603 10.03c.201.186.604.294.899.294.387 0 .79-.108.992-.403l1.194-1.287c.186-.201.387-.589.387-.899 0-.387-.201-.79-.496-.992l-12.107-9.518m66.86 41.576c-1.783-3.286-5.55-5.07-10.123-5.07-3.364 0-7.038.993-10.619 2.884-6.541 3.473-10.51 9.317-10.51 14.386 0 1.38.295 2.775.992 4.062 1.783 3.27 5.55 4.96 10.123 4.96 3.364 0 7.038-.883 10.619-2.775 6.542-3.472 10.51-9.332 10.51-14.386 0-1.395-.294-2.774-.992-4.061m54.619 0c-1.783-3.286-5.55-5.07-10.123-5.07-3.364 0-7.038.993-10.619 2.884-6.541 3.473-10.51 9.317-10.51 14.386 0 1.38.295 2.775.992 4.062 1.783 3.27 5.55 4.96 10.123 4.96 3.364 0 7.038-.883 10.619-2.775 6.542-3.472 10.51-9.332 10.51-14.386 0-1.395-.294-2.774-.992-4.061m75.78-41.576 12.107-9.518c.295-.202.496-.605.496-.992v-.109c0-.387-.201-.697-.387-.884l-1.194-1.193c-.295-.202-.605-.403-.992-.403-.295 0-.698.108-.9.294l-12.602 10.03-12.697-10.03c-.201-.186-.589-.294-.899-.294-.387 0-.589.201-.883.403l-1.287 1.193c-.201.187-.403.59-.403.993 0 .387.202.79.496.992l12.107 9.518-12.107 9.518c-.294.202-.496.605-.496.992 0 .31.202.698.403.9l1.178 1.286c.202.295.605.403.992.403.31 0 .698-.108.9-.294l12.696-10.03 12.603 10.03c.201.186.604.294.899.294.387 0 .79-.108.992-.403l1.194-1.287c.186-.201.387-.589.387-.899 0-.387-.201-.79-.496-.992l-12.107-9.518m186.395 41.576c-1.783-3.286-5.55-5.07-10.123-5.07-3.364 0-7.038.993-10.619 2.884-6.541 3.473-10.51 9.317-10.51 14.386 0 1.38.295 2.775.992 4.062 1.783 3.27 5.55 4.96 10.123 4.96 3.364 0 7.038-.883 10.619-2.775 6.542-3.472 10.51-9.332 10.51-14.386 0-1.395-.294-2.774-.992-4.061m-11.611-41.576 12.107-9.518c.295-.202.496-.605.496-.992v-.109c0-.387-.201-.697-.387-.884l-1.194-1.193c-.295-.202-.605-.403-.992-.403-.295 0-.698.108-.9.294l-12.602 10.03-12.697-10.03c-.201-.186-.589-.294-.899-.294-.387 0-.589.201-.883.403l-1.287 1.193c-.201.187-.403.59-.403.993 0 .387.202.79.496.992l12.107 9.518-12.107 9.518c-.294.202-.496.605-.496.992 0 .31.202.698.403.9l1.178 1.286c.202.295.605.403.992.403.31 0 .698-.108.9-.294l12.696-10.03 12.603 10.03c.201.186.604.294.899.294.387 0 .79-.108.992-.403l1.194-1.287c.186-.201.387-.589.387-.899 0-.387-.201-.79-.496-.992l-12.107-9.518m99.001 41.576c-1.783-3.286-5.55-5.07-10.123-5.07-3.364 0-7.038.993-10.619 2.884-6.541 3.473-10.51 9.317-10.51 14.386 0 1.38.295 2.775.992 4.062 1.783 3.27 5.55 4.96 10.123 4.96 3.364 0 7.038-.883 10.619-2.775 6.542-3.472 10.51-9.332 10.51-14.386 0-1.395-.294-2.774-.992-4.061m75.779-41.576 12.107-9.518c.295-.202.496-.605.496-.992v-.109c0-.387-.201-.697-.387-.884l-1.194-1.193c-.295-.202-.605-.403-.992-.403-.295 0-.698.108-.9.294l-12.602 10.03-12.697-10.03c-.201-.186-.589-.294-.899-.294-.387 0-.589.201-.883.403l-1.287 1.193c-.201.187-.403.59-.403.993 0 .387.202.79.496.992l12.107 9.518-12.107 9.518c-.294.202-.496.605-.496.992 0 .31.202.698.403.9l1.178 1.286c.202.295.605.403.992.403.31 0 .698-.108.9-.294l12.696-10.03 12.603 10.03c.201.186.604.294.899.294.387 0 .79-.108.992-.403l1.194-1.287c.186-.201.387-.589.387-.899 0-.387-.201-.79-.496-.992l-12.107-9.518m87.39 0 12.107-9.518c.295-.202.496-.605.496-.992v-.109c0-.387-.201-.697-.387-.884l-1.194-1.193c-.295-.202-.605-.403-.992-.403-.295 0-.698.108-.9.294l-12.602 10.03-12.697-10.03c-.201-.186-.589-.294-.899-.294-.387 0-.589.201-.883.403l-1.287 1.193c-.202.187-.403.59-.403.993 0 .387.201.79.496.992l12.107 9.518-12.107 9.518c-.295.202-.496.605-.496.992 0 .31.202.698.403.9l1.178 1.286c.202.295.605.403.992.403.31 0 .698-.108.9-.294l12.696-10.03 12.603 10.03c.201.186.604.294.899.294.387 0 .79-.108.992-.403l1.194-1.287c.186-.201.387-.589.387-.899 0-.387-.201-.79-.496-.992l-12.107-9.518m54.62 0 12.107-9.518c.295-.202.496-.605.496-.992v-.109c0-.387-.201-.697-.387-.884l-1.194-1.193c-.295-.202-.605-.403-.992-.403-.295 0-.698.108-.9.294l-12.602 10.03-12.697-10.03c-.201-.186-.589-.294-.899-.294-.387 0-.589.201-.883.403l-1.287 1.193c-.202.187-.403.59-.403.993 0 .387.202.79.496.992l12.107 9.518-12.107 9.518c-.295.202-.496.605-.496.992 0 .31.202.698.403.9l1.178 1.286c.202.295.605.403.992.403.31 0 .698-.108.9-.294l12.696-10.03 12.603 10.03c.201.186.604.294.899.294.387 0 .79-.108.992-.403l1.194-1.287c.186-.201.387-.589.387-.899 0-.387-.201-.79-.496-.992l-12.107-9.518m66.231 41.576c-1.783-3.286-5.55-5.07-10.123-5.07-3.364 0-7.038.993-10.619 2.884-6.542 3.473-10.51 9.317-10.51 14.386 0 1.38.294 2.775.992 4.062 1.783 3.27 5.55 4.96 10.123 4.96 3.364 0 7.038-.883 10.619-2.775 6.542-3.472 10.51-9.332 10.51-14.386 0-1.395-.295-2.774-.992-4.061m-11.611-41.576 12.107-9.518c.295-.202.496-.605.496-.992v-.109c0-.387-.201-.697-.387-.884l-1.194-1.193c-.295-.202-.605-.403-.992-.403-.295 0-.698.108-.9.294l-12.602 10.03-12.697-10.03c-.201-.186-.589-.294-.899-.294-.387 0-.589.201-.883.403l-1.287 1.193c-.202.187-.403.59-.403.993 0 .387.201.79.496.992l12.107 9.518-12.107 9.518c-.295.202-.496.605-.496.992 0 .31.201.698.403.9l1.178 1.286c.202.295.605.403.992.403.31 0 .698-.108.9-.294l12.696-10.03 12.603 10.03c.201.186.604.294.899.294.387 0 .79-.108.992-.403l1.194-1.287c.186-.201.387-.589.387-.899 0-.387-.201-.79-.496-.992l-12.107-9.518m208.241 41.576c-1.783-3.286-5.55-5.07-10.123-5.07-3.364 0-7.038.993-10.619 2.884-6.542 3.473-10.51 9.317-10.51 14.386 0 1.38.294 2.775.992 4.062 1.783 3.27 5.55 4.96 10.123 4.96 3.364 0 7.038-.883 10.619-2.775 6.542-3.472 10.51-9.332 10.51-14.386 0-1.395-.295-2.774-.992-4.061m-11.611-41.576 12.107-9.518c.295-.202.496-.605.496-.992v-.109c0-.387-.201-.697-.387-.884l-1.194-1.193c-.295-.202-.605-.403-.992-.403-.295 0-.698.108-.9.294l-12.602 10.03-12.697-10.03c-.201-.186-.589-.294-.899-.294-.387 0-.589.201-.883.403l-1.287 1.193c-.202.187-.403.59-.403.993 0 .387.202.79.496.992l12.107 9.518-12.107 9.518c-.295.202-.496.605-.496.992 0 .31.202.698.403.9l1.178 1.286c.202.295.605.403.992.403.31 0 .698-.108.9-.294l12.696-10.03 12.603 10.03c.201.186.604.294.899.294.387 0 .79-.108.992-.403l1.194-1.287c.186-.201.387-.589.387-.899 0-.387-.201-.79-.496-.992l-12.107-9.518m87.39 0 12.107-9.518c.295-.202.496-.605.496-.992v-.109c0-.387-.201-.697-.387-.884l-1.194-1.193c-.295-.202-.605-.403-.992-.403-.295 0-.698.108-.9.294l-12.602 10.03-12.697-10.03c-.201-.186-.589-.294-.899-.294-.387 0-.589.201-.883.403l-1.287 1.193c-.202.187-.403.59-.403.993 0 .387.201.79.496.992l12.107 9.518-12.107 9.518c-.295.202-.496.605-.496.992 0 .31.201.698.403.9l1.178 1.286c.202.295.605.403.992.403.31 0 .698-.108.9-.294l12.696-10.03 12.603 10.03c.201.186.604.294.899.294.387 0 .79-.108.992-.403l1.194-1.287c.186-.201.387-.589.387-.899 0-.387-.201-.79-.496-.992l-12.107-9.518m59.51 0 12.107-9.518c.295-.202.496-.605.496-.992v-.109c0-.387-.201-.697-.387-.884l-1.194-1.193c-.295-.202-.605-.403-.992-.403-.295 0-.698.108-.9.294l-12.602 10.03-12.697-10.03c-.201-.186-.589-.294-.899-.294-.387 0-.589.201-.883.403l-1.287 1.193c-.202.187-.403.59-.403.993 0 .387.201.79.496.992l12.107 9.518-12.107 9.518c-.295.202-.496.605-.496.992 0 .31.201.698.403.9l1.178 1.286c.202.295.605.403.992.403.31 0 .698-.108.9-.294l12.696-10.03 12.603 10.03c.201.186.604.294.899.294.387 0 .79-.108.992-.403l1.194-1.287c.186-.201.387-.589.387-.899 0-.387-.201-.79-.496-.992l-12.107-9.518m66.231 41.576c-1.783-3.286-5.55-5.07-10.123-5.07-3.364 0-7.038.993-10.619 2.884-6.542 3.473-10.51 9.317-10.51 14.386 0 1.38.294 2.775.992 4.062 1.783 3.27 5.55 4.96 10.123 4.96 3.364 0 7.038-.883 10.619-2.775 6.542-3.472 10.51-9.332 10.51-14.386 0-1.395-.295-2.774-.992-4.061m43.009-41.576 12.107-9.518c.295-.202.496-.605.496-.992v-.109c0-.387-.201-.697-.387-.884l-1.194-1.193c-.295-.202-.605-.403-.992-.403-.295 0-.698.108-.9.294l-12.602 10.03-12.697-10.03c-.201-.186-.589-.294-.899-.294-.387 0-.589.201-.883.403l-1.287 1.193c-.202.187-.403.59-.403.993 0 .387.201.79.496.992l12.107 9.518-12.107 9.518c-.295.202-.496.605-.496.992 0 .31.201.698.403.9l1.178 1.286c.202.295.605.403.992.403.31 0 .698-.108.9-.294l12.696-10.03 12.603 10.03c.201.186.604.294.899.294.387 0 .79-.108.992-.403l1.194-1.287c.186-.201.387-.589.387-.899 0-.387-.201-.79-.496-.992l-12.107-9.518m66.231 41.576c-1.783-3.286-5.55-5.07-10.123-5.07-3.364 0-7.038.993-10.619 2.884-6.542 3.473-10.51 9.317-10.51 14.386 0 1.38.294 2.775.992 4.062 1.783 3.27 5.55 4.96 10.123 4.96 3.364 0 7.038-.883 10.619-2.775 6.542-3.472 10.51-9.332 10.51-14.386 0-1.395-.295-2.774-.992-4.061m43.009-41.576 12.107-9.518c.295-.202.496-.605.496-.992v-.109c0-.387-.201-.697-.387-.884l-1.194-1.193c-.295-.202-.605-.403-.992-.403-.295 0-.698.108-.9.294l-12.602 10.03-12.697-10.03c-.201-.186-.589-.294-.899-.294-.387 0-.589.201-.883.403l-1.287 1.193c-.202.187-.403.59-.403.993 0 .387.201.79.496.992l12.107 9.518-12.107 9.518c-.295.202-.496.605-.496.992 0 .31.201.698.403.9l1.178 1.286c.202.295.605.403.992.403.31 0 .698-.108.9-.294l12.696-10.03 12.603 10.03c.201.186.604.294.899.294.387 0 .79-.108.992-.403l1.194-1.287c.186-.201.387-.589.387-.899 0-.387-.201-.79-.496-.992l-12.107-9.518m117.761 41.576c-1.783-3.286-5.55-5.07-10.123-5.07-3.364 0-7.038.993-10.619 2.884-6.542 3.473-10.51 9.317-10.51 14.386 0 1.38.294 2.775.992 4.062 1.783 3.27 5.55 4.96 10.123 4.96 3.364 0 7.038-.883 10.619-2.775 6.542-3.472 10.51-9.332 10.51-14.386 0-1.395-.295-2.774-.992-4.061m49.859-41.576 12.107-9.518c.295-.202.496-.605.496-.992v-.109c0-.387-.201-.697-.387-.884l-1.194-1.193c-.295-.202-.605-.403-.992-.403-.295 0-.698.108-.9.294l-12.602 10.03-12.697-10.03c-.201-.186-.589-.294-.899-.294-.387 0-.589.201-.883.403l-1.287 1.193c-.202.187-.403.59-.403.993 0 .387.202.79.496.992l12.107 9.518-12.107 9.518c-.295.202-.496.605-.496.992 0 .31.202.698.403.9l1.178 1.286c.202.295.605.403.992.403.31 0 .698-.108.9-.294l12.696-10.03 12.603 10.03c.201.186.604.294.899.294.387 0 .79-.108.992-.403l1.194-1.287c.186-.201.387-.589.387-.899 0-.387-.201-.79-.496-.992l-12.107-9.518m122.94 0 12.107-9.518c.295-.202.496-.605.496-.992v-.109c0-.387-.201-.697-.387-.884l-1.194-1.193c-.295-.202-.605-.403-.992-.403-.295 0-.698.108-.9.294l-12.602 10.03-12.697-10.03c-.201-.186-.589-.294-.899-.294-.387 0-.589.201-.883.403l-1.287 1.193c-.202.187-.403.59-.403.993 0 .387.201.79.496.992l12.107 9.518-12.107 9.518c-.295.202-.496.605-.496.992 0 .31.201.698.403.9l1.178 1.286c.202.295.605.403.992.403.31 0 .698-.108.9-.294l12.696-10.03 12.603 10.03c.201.186.604.294.899.294.387 0 .79-.108.992-.403l1.194-1.287c.186-.201.387-.589.387-.899 0-.387-.201-.79-.496-.992l-12.107-9.518m61.47 0 12.107-9.518c.295-.202.496-.605.496-.992v-.109c0-.387-.201-.697-.387-.884l-1.194-1.193c-.295-.202-.605-.403-.992-.403-.295 0-.698.108-.9.294l-12.602 10.03-12.697-10.03c-.201-.186-.589-.294-.899-.294-.387 0-.589.201-.883.403l-1.287 1.193c-.201.187-.403.59-.403.993 0 .387.202.79.496.992l12.107 9.518-12.107 9.518c-.294.202-.496.605-.496.992 0 .31.202.698.403.9l1.178 1.286c.202.295.605.403.992.403.31 0 .698-.108.9-.294l12.696-10.03 12.603 10.03c.201.186.604.294.899.294.387 0 .79-.108.992-.403l1.194-1.287c.186-.201.387-.589.387-.899 0-.387-.201-.79-.496-.992l-12.107-9.518m109.961 41.576c-1.783-3.286-5.55-5.07-10.123-5.07-3.364 0-7.038.993-10.619 2.884-6.542 3.473-10.51 9.317-10.51 14.386 0 1.38.294 2.775.992 4.062 1.783 3.27 5.55 4.96 10.123 4.96 3.364 0 7.038-.883 10.619-2.775 6.542-3.472 10.51-9.332 10.51-14.386 0-1.395-.295-2.774-.992-4.061m98.36 0c-1.783-3.286-5.55-5.07-10.123-5.07-3.364 0-7.038.993-10.619 2.884-6.542 3.473-10.51 9.317-10.51 14.386 0 1.38.294 2.775.992 4.062 1.783 3.27 5.55 4.96 10.123 4.96 3.364 0 7.038-.883 10.619-2.775 6.542-3.472 10.51-9.332 10.51-14.386 0-1.395-.295-2.774-.992-4.061m-11.611-41.576 12.107-9.518c.295-.202.496-.605.496-.992v-.109c0-.387-.201-.697-.387-.884l-1.194-1.193c-.295-.202-.605-.403-.992-.403-.295 0-.698.108-.9.294l-12.602 10.03-12.697-10.03c-.201-.186-.589-.294-.899-.294-.387 0-.589.201-.883.403l-1.287 1.193c-.201.187-.403.59-.403.993 0 .387.202.79.496.992l12.107 9.518-12.107 9.518c-.294.202-.496.605-.496.992 0 .31.202.698.403.9l1.178 1.286c.202.295.605.403.992.403.31 0 .698-.108.9-.294l12.696-10.03 12.603 10.03c.201.186.604.294.899.294.387 0 .79-.108.992-.403l1.194-1.287c.186-.201.387-.589.387-.899 0-.387-.201-.79-.496-.992l-12.107-9.518m98.35 0 12.107-9.518c.295-.202.496-.605.496-.992v-.109c0-.387-.201-.697-.387-.884l-1.194-1.193c-.295-.202-.605-.403-.992-.403-.295 0-.698.108-.9.294l-12.602 10.03-12.697-10.03c-.201-.186-.589-.294-.899-.294-.387 0-.589.201-.883.403l-1.287 1.193c-.201.187-.403.59-.403.993 0 .387.202.79.496.992l12.107 9.518-12.107 9.518c-.294.202-.496.605-.496.992 0 .31.202.698.403.9l1.178 1.286c.202.295.605.403.992.403.31 0 .698-.108.9-.294l12.696-10.03 12.603 10.03c.201.186.604.294.899.294.387 0 .79-.108.992-.403l1.194-1.287c.186-.201.387-.589.387-.899 0-.387-.201-.79-.496-.992l-12.107-9.518m61.47 0 12.107-9.518c.295-.202.496-.605.496-.992v-.109c0-.387-.201-.697-.387-.884l-1.194-1.193c-.295-.202-.605-.403-.992-.403-.295 0-.698.108-.9.294l-12.602 10.03-12.697-10.03c-.201-.186-.589-.294-.899-.294-.387 0-.589.201-.883.403l-1.287 1.193c-.201.187-.403.59-.403.993 0 .387.202.79.496.992l12.107 9.518-12.107 9.518c-.294.202-.496.605-.496.992 0 .31.202.698.403.9l1.178 1.286c.202.295.605.403.992.403.31 0 .698-.108.9-.294l12.696-10.03 12.603 10.03c.201.186.604.294.899.294.387 0 .79-.108.992-.403l1.194-1.287c.186-.201.387-.589.387-.899 0-.387-.201-.79-.496-.992l-12.107-9.518m61.47 0 12.107-9.518c.295-.202.496-.605.496-.992v-.109c0-.387-.201-.697-.387-.884l-1.194-1.193c-.295-.202-.605-.403-.992-.403-.295 0-.698.108-.9.294l-12.602 10.03-12.697-10.03c-.201-.186-.589-.294-.899-.294-.387 0-.589.201-.883.403l-1.287 1.193c-.201.187-.403.59-.403.993 0 .387.202.79.496.992l12.107 9.518-12.107 9.518c-.294.202-.496.605-.496.992 0 .31.202.698.403.9l1.178 1.286c.202.295.605.403.992.403.31 0 .698-.108.9-.294l12.696-10.03 12.603 10.03c.201.186.604.294.899.294.387 0 .79-.108.992-.403l1.194-1.287c.186-.201.387-.589.387-.899 0-.387-.201-.79-.496-.992l-12.107-9.518m134.551 41.576c-1.783-3.286-5.55-5.07-10.123-5.07-3.364 0-7.038.993-10.619 2.884-6.542 3.473-10.51 9.317-10.51 14.386 0 1.38.294 2.775.992 4.062 1.783 3.27 5.55 4.96 10.123 4.96 3.364 0 7.038-.883 10.619-2.775 6.542-3.472 10.51-9.332 10.51-14.386 0-1.395-.295-2.774-.992-4.061m61.47 0c-1.783-3.286-5.55-5.07-10.123-5.07-3.364 0-7.038.993-10.619 2.884-6.542 3.473-10.51 9.317-10.51 14.386 0 1.38.294 2.775.992 4.062 1.783 3.27 5.55 4.96 10.123 4.96 3.364 0 7.038-.883 10.619-2.775 6.542-3.472 10.51-9.332 10.51-14.386 0-1.395-.295-2.774-.992-4.061m61.47 0c-1.783-3.286-5.55-5.07-10.123-5.07-3.364 0-7.038.993-10.619 2.884-6.542 3.473-10.51 9.317-10.51 14.386 0 1.38.294 2.775.992 4.062 1.783 3.27 5.55 4.96 10.123 4.96 3.364 0 7.038-.883 10.619-2.775 6.542-3.472 10.51-9.332 10.51-14.386 0-1.395-.295-2.774-.992-4.061m-11.611-41.576 12.107-9.518c.295-.202.496-.605.496-.992v-.109c0-.387-.201-.697-.387-.884l-1.194-1.193c-.295-.202-.605-.403-.992-.403-.295 0-.698.108-.9.294l-12.602 10.03-12.697-10.03c-.201-.186-.589-.294-.899-.294-.387 0-.589.201-.883.403l-1.287 1.193c-.201.187-.403.59-.403.993 0 .387.202.79.496.992l12.107 9.518-12.107 9.518c-.294.202-.496.605-.496.992 0 .31.202.698.403.9l1.178 1.286c.202.295.605.403.992.403.31 0 .698-.108.9-.294l12.696-10.03 12.603 10.03c.201.186.604.294.899.294.387 0 .79-.108.992-.403l1.194-1.287c.186-.201.387-.589.387-.899 0-.387-.201-.79-.496-.992l-12.107-9.518m73.081 41.576c-1.783-3.286-5.55-5.07-10.123-5.07-3.364 0-7.038.993-10.619 2.884-6.542 3.473-10.51 9.317-10.51 14.386 0 1.38.294 2.775.992 4.062 1.783 3.27 5.55 4.96 10.123 4.96 3.364 0 7.038-.883 10.619-2.775 6.542-3.472 10.51-9.332 10.51-14.386 0-1.395-.295-2.774-.992-4.061m61.47 0c-1.783-3.286-5.55-5.07-10.123-5.07-3.364 0-7.038.993-10.619 2.884-6.542 3.473-10.51 9.317-10.51 14.386 0 1.38.294 2.775.992 4.062 1.783 3.27 5.55 4.96 10.123 4.96 3.364 0 7.038-.883 10.619-2.775 6.542-3.472 10.51-9.332 10.51-14.386 0-1.395-.295-2.774-.992-4.061m98.35 0c-1.783-3.286-5.55-5.07-10.123-5.07-3.364 0-7.038.993-10.619 2.884-6.542 3.473-10.51 9.317-10.51 14.386 0 1.38.294 2.775.992 4.062 1.783 3.27 5.55 4.96 10.123 4.96 3.364 0 7.038-.883 10.619-2.775 6.542-3.472 10.51-9.332 10.51-14.386 0-1.395-.295-2.774-.992-4.061m-11.611-41.576 12.107-9.518c.295-.202.496-.605.496-.992v-.109c0-.387-.201-.697-.387-.884l-1.194-1.193c-.295-.202-.605-.403-.992-.403-.295 0-.698.108-.9.294l-12.602 10.03-12.697-10.03c-.201-.186-.589-.294-.899-.294-.387 0-.589.201-.883.403l-1.287 1.193c-.201.187-.403.59-.403.993 0 .387.202.79.496.992l12.107 9.518-12.107 9.518c-.294.202-.496.605-.496.992 0 .31.202.698.403.9l1.178 1.286c.202.295.605.403.992.403.31 0 .698-.108.9-.294l12.696-10.03 12.603 10.03c.201.186.604.294.899.294.387 0 .79-.108.992-.403l1.194-1.287c.186-.201.387-.589.387-.899 0-.387-.201-.79-.496-.992l-12.107-9.518m232.911 41.576c-1.783-3.286-5.55-5.07-10.123-5.07-3.364 0-7.038.993-10.619 2.884-6.542 3.473-10.51 9.317-10.51 14.386 0 1.38.294 2.775.992 4.062 1.783 3.27 5.55 4.96 10.123 4.96 3.364 0 7.038-.883 10.619-2.775 6.542-3.472 10.51-9.332 10.51-14.386 0-1.395-.295-2.774-.992-4.061m-11.611-41.576 12.107-9.518c.295-.202.496-.605.496-.992v-.109c0-.387-.201-.697-.387-.884l-1.194-1.193c-.295-.202-.605-.403-.992-.403-.295 0-.698.108-.9.294l-12.602 10.03-12.697-10.03c-.201-.186-.589-.294-.899-.294-.387 0-.589.201-.883.403l-1.287 1.193c-.201.187-.403.59-.403.993 0 .387.202.79.496.992l12.107 9.518-12.107 9.518c-.294.202-.496.605-.496.992 0 .31.202.698.403.9l1.178 1.286c.202.295.605.403.992.403.31 0 .698-.108.9-.294l12.696-10.03 12.603 10.03c.201.186.604.294.899.294.387 0 .79-.108.992-.403l1.194-1.287c.186-.201.387-.589.387-.899 0-.387-.201-.79-.496-.992l-12.107-9.518m196.021 41.576c-1.783-3.286-5.55-5.07-10.123-5.07-3.364 0-7.038.993-10.619 2.884-6.542 3.473-10.51 9.317-10.51 14.386 0 1.38.294 2.775.992 4.062 1.783 3.27 5.55 4.96 10.123 4.96 3.364 0 7.038-.883 10.619-2.775 6.542-3.472 10.51-9.332 10.51-14.386 0-1.395-.295-2.774-.992-4.061m49.859-41.576 12.107-9.518c.295-.202.496-.605.496-.992v-.109c0-.387-.201-.697-.387-.884l-1.194-1.193c-.295-.202-.605-.403-.992-.403-.295 0-.698.108-.9.294l-12.602 10.03-12.697-10.03c-.201-.186-.589-.294-.899-.294-.387 0-.589.201-.883.403l-1.287 1.193c-.201.187-.403.59-.403.993 0 .387.202.79.496.992l12.107 9.518-12.107 9.518c-.294.202-.496.605-.496.992 0 .31.202.698.403.9l1.178 1.286c.202.295.605.403.992.403.31 0 .698-.108.9-.294l12.696-10.03 12.603 10.03c.201.186.604.294.899.294.387 0 .79-.108.992-.403l1.194-1.287c.186-.201.387-.589.387-.899 0-.387-.201-.79-.496-.992l-12.107-9.518m134.551 41.576c-1.783-3.286-5.55-5.07-10.123-5.07-3.364 0-7.038.993-10.619 2.884-6.542 3.473-10.51 9.317-10.51 14.386 0 1.38.294 2.775.992 4.062 1.783 3.27 5.55 4.96 10.123 4.96 3.364 0 7.038-.883 10.619-2.775 6.542-3.472 10.51-9.332 10.51-14.386 0-1.395-.295-2.774-.992-4.061m61.47 0c-1.783-3.286-5.55-5.07-10.123-5.07-3.364 0-7.038.993-10.619 2.884-6.542 3.473-10.51 9.317-10.51 14.386 0 1.38.294 2.775.992 4.062 1.783 3.27 5.55 4.96 10.123 4.96 3.364 0 7.038-.883 10.619-2.775 6.542-3.472 10.51-9.332 10.51-14.386 0-1.395-.295-2.774-.992-4.061" style="stroke-width:.992126"/>
  <path class="Clef" d="M48.043 248.37H37.13c-.698 0-1.287.605-1.287 1.287v47.436c0 .682.59 1.287 1.287 1.287h10.913c.698 0 1.287-.605 1.287-1.287v-47.436c0-.682-.59-1.287-1.287-1.287m21.44 0H58.568c-.698 0-1.302.605-1.302 1.287v47.436c0 .682.604 1.287 1.302 1.287h10.913c.698 0 1.287-.605 1.287-1.287v-47.436c0-.682-.59-1.287-1.287-1.287" style="stroke-width:.992126"/>
  <path class="TimeSig" d="M97.765 261.23h17.037v7.394h-8.154c-.775 0-1.41.62-1.41 1.395v1.891c0 .776.635 1.396 1.41 1.396h30.012a1.39 1.39 0 0 0 1.395-1.396v-1.89a1.39 1.39 0 0 0-1.395-1.396h-8.867v-7.394h8.867a1.39 1.39 0 0 0 1.395-1.396v-1.89a1.39 1.39 0 0 0-1.395-1.396h-8.867v-15.843c0-.527-.31-1.008-.775-1.24l-1.21-.605a1.446 1.446 0 0 0-1.58.233l-8.976 8.247a1.45 1.45 0 0 0-.45 1.038v8.17h-11.425s11.038-11.937 22.788-27.578c.853-1.147.357-2.186.17-2.372l-2.154-2.186a1.41 1.41 0 0 0-.992-.418c-.59 0-14.045.03-14.758 0-.713-.016-1.24.604-1.318 1.209 0 0-.527 7.301-3.116 15.378-2.573 8.045-5.487 12.99-8.123 16.587 0 0-.542.977-.186 1.72.341.745.977 1.815.977 1.815s.248.527 1.1.527m0 49.343h17.037v7.394h-8.154c-.775 0-1.41.62-1.41 1.395v1.891c0 .776.635 1.396 1.41 1.396h30.012a1.39 1.39 0 0 0 1.395-1.396v-1.89a1.39 1.39 0 0 0-1.395-1.396h-8.867v-7.394h8.867a1.39 1.39 0 0 0 1.395-1.396v-1.89a1.39 1.39 0 0 0-1.395-1.396h-8.867v-15.843c0-.527-.31-1.008-.775-1.24l-1.21-.605a1.446 1.446 0 0 0-1.58.233l-8.976 8.247a1.45 1.45 0 0 0-.45 1.038v8.17h-11.425s11.038-11.937 22.788-27.578c.853-1.147.357-2.186.17-2.372l-2.154-2.186a1.41 1.41 0 0 0-.992-.418c-.59 0-14.045.03-14.758 0-.713-.016-1.24.604-1.318 1.209 0 0-.527 7.301-3.116 15.378-2.573 8.045-5.487 12.99-8.123 16.587 0 0-.542.977-.186 1.72.341.745.977 1.815.977 1.815s.248.527 1.1.527" style="stroke-width:.992126"/>
  <path class="Rest" d="M520.675 302.876c-.744-.28-1.41.062-1.736.666-.326.605-3.488 6.48-7.875 9.72-1.38 1.008-2.961 1.643-4.511 1.969a7.007 7.007 0 0 0 1.782-4.697c0-3.922-3.178-7.1-7.084-7.1a7.099 7.099 0 0 0-7.1 7.1c0 2.976 1.86 5.55 4.48 6.588 1.52.713 3.41 1.163 5.441 1.163 2.822 0 5.906-.822 8.604-2.806 1.256-.915 2.434-2.108 3.503-3.348l-11.3 35.344 2.62.853 13.967-43.747c.232-.728-.062-1.41-.791-1.705m349.565 0c-.744-.28-1.41.062-1.736.666-.326.605-3.488 6.48-7.875 9.72-1.38 1.008-2.961 1.643-4.511 1.969a7.007 7.007 0 0 0 1.782-4.697c0-3.922-3.178-7.1-7.084-7.1a7.099 7.099 0 0 0-7.1 7.1c0 2.976 1.86 5.55 4.48 6.588 1.52.713 3.41 1.163 5.441 1.163 2.822 0 5.906-.822 8.604-2.806 1.256-.915 2.434-2.108 3.503-3.348l-11.3 35.344 2.62.853 13.967-43.747c.232-.728-.062-1.41-.791-1.705m487.331 0c-.744-.264-1.41.093-1.72.713-.295.605-3.1 6-7.38 9.379-1.333 1.054-2.883 1.736-4.433 2.123a7.078 7.078 0 0 0 1.628-4.759 7.07 7.07 0 0 0-7.317-6.82c-3.907.139-6.976 3.41-6.837 7.316a7.077 7.077 0 0 0 4.698 6.418c1.55.682 3.441 1.039 5.472.977 2.821-.109 5.875-1.039 8.495-3.1 1.224-.962 2.372-2.186 3.395-3.473v.016l-4.465 15.78s0 .016-.015.016v.016c-.465.945-3.69 7.069-7.673 10.215-1.334 1.07-2.884 1.752-4.434 2.124a7.01 7.01 0 0 0 1.628-4.743c-.14-3.922-3.41-6.976-7.317-6.837-3.907.14-6.976 3.41-6.837 7.333.109 2.976 2.047 5.456 4.697 6.417 1.55.667 3.442 1.039 5.473.962a14.524 14.524 0 0 0 8.495-3.085c1.209-.961 2.356-2.17 3.38-3.473l-10.124 36.182 2.651.744 18.525-65.682.868-3.1c.202-.729-.108-1.411-.852-1.659m471.529 0c-.744-.264-1.41.093-1.72.713-.295.605-3.1 6-7.38 9.379-1.333 1.054-2.883 1.736-4.433 2.123a7.078 7.078 0 0 0 1.628-4.759 7.07 7.07 0 0 0-7.317-6.82c-3.907.139-6.976 3.41-6.837 7.316a7.077 7.077 0 0 0 4.698 6.418c1.55.682 3.441 1.039 5.472.977 2.821-.109 5.875-1.039 8.495-3.1 1.224-.962 2.372-2.186 3.395-3.473v.016l-4.465 15.78s0 .016-.015.016v.016c-.465.945-3.69 7.069-7.673 10.215-1.334 1.07-2.884 1.752-4.434 2.124a7.01 7.01 0 0 0 1.628-4.743c-.14-3.922-3.41-6.976-7.317-6.837-3.907.14-6.976 3.41-6.837 7.333.109 2.976 2.047 5.456 4.697 6.417 1.55.667 3.442 1.039 5.473.962a14.524 14.524 0 0 0 8.495-3.085c1.209-.961 2.356-2.17 3.38-3.473l-10.124 36.182 2.651.744 18.525-65.682.868-3.1c.202-.729-.108-1.411-.852-1.659m442.589 0c-.744-.264-1.41.093-1.72.713-.295.605-3.1 6-7.38 9.379-1.333 1.054-2.883 1.736-4.433 2.123a7.078 7.078 0 0 0 1.628-4.759 7.07 7.07 0 0 0-7.317-6.82c-3.907.139-6.976 3.41-6.837 7.316a7.077 7.077 0 0 0 4.697 6.418c1.55.682 3.442 1.039 5.473.977 2.821-.109 5.875-1.039 8.495-3.1 1.224-.962 2.372-2.186 3.395-3.473v.016l-4.465 15.78s0 .016-.015.016v.016c-.465.945-3.69 7.069-7.673 10.215-1.334 1.07-2.884 1.752-4.434 2.124a7.01 7.01 0 0 0 1.628-4.743c-.14-3.922-3.41-6.976-7.317-6.837-3.907.14-6.976 3.41-6.837 7.333.109 2.976 2.047 5.456 4.697 6.417 1.55.667 3.442 1.039 5.473.962a14.524 14.524 0 0 0 8.495-3.085c1.209-.961 2.356-2.17 3.38-3.473l-10.124 36.182 2.651.744 18.525-65.682.868-3.1c.202-.729-.108-1.411-.852-1.659m914.378-.605c-.759-.217-1.394.155-1.689.775-.294.62-2.697 5.441-6.852 8.96-1.317 1.117-2.821 1.845-4.356 2.28a7.008 7.008 0 0 0 1.457-4.79c-.263-3.907-3.658-6.837-7.55-6.574-3.906.264-6.835 3.643-6.572 7.565.202 2.977 2.232 5.38 4.914 6.248 1.566.604 3.473.914 5.503.775a14.543 14.543 0 0 0 8.371-3.395c1.179-.992 2.28-2.264 3.256-3.581l-3.891 15.967c-.527 1.348-3.52 7.75-7.364 11.006-1.317 1.116-2.821 1.845-4.356 2.279a7.024 7.024 0 0 0 1.458-4.806c-.264-3.89-3.659-6.836-7.55-6.557-3.906.264-6.836 3.643-6.573 7.55a7.125 7.125 0 0 0 4.914 6.262c1.566.605 3.488.9 5.504.76a14.415 14.415 0 0 0 8.37-3.38c1.179-.992 2.264-2.247 3.256-3.565l-3.674 14.975c-.403.93-3.503 7.797-7.379 11.084-1.318 1.116-2.821 1.845-4.356 2.279 1.023-1.318 1.566-2.992 1.457-4.79a7.088 7.088 0 0 0-7.55-6.573c-3.906.263-6.836 3.658-6.572 7.565.201 2.976 2.232 5.379 4.914 6.247 1.566.62 3.473.915 5.503.775a14.542 14.542 0 0 0 8.371-3.395c1.178-1.008 2.28-2.248 3.256-3.565l-9.022 36.817 2.666.666 23.036-94.236c.186-.729-.155-1.395-.9-1.628" style="stroke-width:.992126"/>
  <path class="Articulation" d="M385.333 92.159c0 8.34 6.743 15.083 15.083 15.083 8.325 0 15.084-6.743 15.084-15.083 0-8.325-6.759-15.084-15.084-15.084-8.34 0-15.083 6.759-15.083 15.084m15.083-11.906c6.542 0 11.906 5.364 11.906 11.906 0 6.557-5.364 11.905-11.906 11.905-6.557 0-11.905-5.348-11.905-11.905 0-6.542 5.348-11.906 11.905-11.906m182.176 23.02c0 8.34 6.743 15.083 15.083 15.083 8.325 0 15.084-6.743 15.084-15.083 0-8.325-6.759-15.084-15.084-15.084-8.34 0-15.083 6.759-15.083 15.084m15.083-11.906c6.542 0 11.906 5.364 11.906 11.906 0 6.557-5.364 11.905-11.906 11.905-6.557 0-11.905-5.348-11.905-11.905 0-6.542 5.348-11.906 11.905-11.906m531.111-.497c0 8.34 6.743 15.084 15.083 15.084 8.325 0 15.084-6.743 15.084-15.083 0-8.325-6.759-15.084-15.084-15.084-8.34 0-15.083 6.759-15.083 15.084m15.083-11.906c6.542 0 11.906 5.364 11.906 11.906 0 6.557-5.364 11.905-11.906 11.905-6.557 0-11.905-5.348-11.905-11.905 0-6.542 5.348-11.906 11.905-11.906m181.547 11.905c0 8.34 6.743 15.084 15.083 15.084 8.325 0 15.084-6.743 15.084-15.083 0-8.325-6.759-15.084-15.084-15.084-8.34 0-15.083 6.759-15.083 15.084m15.083-11.906c6.542 0 11.906 5.364 11.906 11.906 0 6.557-5.364 11.905-11.906 11.905-6.557 0-11.905-5.348-11.905-11.905 0-6.542 5.348-11.906 11.905-11.906m702.327 11.905c0 8.34 6.743 15.084 15.083 15.084 8.325 0 15.084-6.743 15.084-15.083 0-8.325-6.759-15.084-15.084-15.084-8.34 0-15.083 6.759-15.083 15.084m15.083-11.906c6.542 0 11.906 5.364 11.906 11.906 0 6.557-5.364 11.905-11.906 11.905-6.557 0-11.905-5.348-11.905-11.905 0-6.542 5.348-11.906 11.905-11.906m181.627-6.696c0 8.34 6.743 15.083 15.083 15.083 8.325 0 15.084-6.743 15.084-15.083 0-8.325-6.759-15.084-15.084-15.084-8.34 0-15.083 6.759-15.083 15.084m15.083-11.906c6.542 0 11.906 5.364 11.906 11.906 0 6.557-5.364 11.905-11.906 11.905-6.557 0-11.905-5.348-11.905-11.905 0-6.542 5.348-11.906 11.905-11.906m673.377 30.507c0 8.34 6.743 15.084 15.083 15.084 8.325 0 15.084-6.743 15.084-15.083 0-8.325-6.759-15.084-15.084-15.084-8.34 0-15.083 6.759-15.083 15.084m15.083-11.906c6.542 0 11.906 5.364 11.906 11.906 0 6.557-5.364 11.905-11.906 11.905-6.557 0-11.905-5.348-11.905-11.905 0-6.542 5.348-11.906 11.905-11.906m206.217-6.696c0 8.34 6.743 15.083 15.083 15.083 8.325 0 15.084-6.743 15.084-15.083 0-8.325-6.759-15.084-15.084-15.084-8.34 0-15.083 6.759-15.083 15.084m15.083-11.906c6.542 0 11.906 5.364 11.906 11.906 0 6.557-5.364 11.905-11.906 11.905-6.557 0-11.905-5.348-11.905-11.905 0-6.542 5.348-11.906 11.905-11.906" style="stroke-width:.992126"/>
  <path class="Beam" fill-rule="evenodd" d="M187.653 397.391h199.358v12.402H187.653v-12.402m0-18.602h199.358v12.401H187.653v-12.401m87.391-18.603h57.348v12.402h-57.348v-12.402m393.889 24.804h90.123v12.401h-90.123V384.99m0-18.603h90.123v12.402h-90.123v-12.402m349.563 31.004h253.98v12.402h-253.98v-12.402m196.63-18.602h57.35v12.401h-57.35v-12.401m0-18.603h57.35v12.402h-57.35v-12.402m703.71 24.804h125.67v12.401h-125.67V384.99m0-18.603h32.24v12.402h-32.24v-12.402m418 31.004h248.61v12.402h-248.61v-12.402m0-18.602h248.61v12.401h-248.61v-12.401m0-18.603h32.24v12.402h-32.24v-12.402m187.14 0h-32.25v12.402h32.25v-12.402m181.68 37.205h383.85v12.402h-383.85v-12.402m319.65-18.602h64.2v12.401h-64.2v-12.401m0-18.603h64.2v12.402h-64.2v-12.402m184.41 37.205h248.61v12.402h-248.61v-12.402m0-18.602h248.61v12.401h-248.61v-12.401m0-18.603h32.24v12.402h-32.24v-12.402M217.161 93.245l309.227 31.28v12.465l-309.227-31.28V93.245m196.63 38.493 112.597 11.389v12.465l-112.597-11.39v-12.464m0 18.602 57.977 5.865v12.464l-57.977-5.864V150.34m197.259-25.783h264.906v12.401H611.05v-12.401m174.786 18.602h90.12v12.402h-90.12v-12.402m174.78-31.004h199.36v12.402h-199.36v-12.402m0 18.602h144.74v12.402h-144.74v-12.402m87.39 18.603h57.35v12.401h-57.35V149.36m305.87-37.205h368.11v12.402h-368.11v-12.402m0 18.602h149.63v12.402h-149.63v-12.402m201.52 0h166.59v12.402h-166.59v-12.402m-114.13 18.603h62.24v12.401h-62.24V149.36m114.13 0h166.59v12.401h-166.59V149.36m270.01-37.205h346.96v12.402h-346.96v-12.402m0 18.602h346.96v12.402h-346.96v-12.402m0 18.603h32.24v12.401h-32.24V149.36m187.14 0h-32.25v12.401h32.25V149.36m255.44-56.034 408.44 31.212v12.438l-408.44-31.212V93.326m0 18.602 408.44 31.213v12.438l-408.44-31.213v-12.438m98.36 26.119 64.2 4.906v12.438l-64.2-4.906v-12.438m245.88 18.79 64.2 4.906v12.438l-64.2-4.906v-12.438m122.94-44.682h224.02v12.402h-224.02v-12.402m0 18.602h125.67v12.402h-125.67v-12.402m0 18.603h64.2v12.401h-64.2V149.36m442.59-56.02 433.02 31.2v12.434l-433.02-31.2V93.34m0 18.602 433.02 31.201v12.434l-433.02-31.201v-12.434m187.14 32.087-32.25-2.324v12.434l32.25 2.323v-12.433m181.68 13.09 64.2 4.626v12.434l-64.2-4.626v-12.434"/>
  <path class="Hook" d="M1414.236 397.794c0-.201.9-3.58.992-3.875.093-.403 1.892-6.046 5.55-11.704 2.682-4.17 12.107-16.37 11.813-16.37 0 0 7.348-9.426 7.844-22.23v-2.28c0-6.06-.79-14.586-4.279-23.221-.388-.992-.79-1.984-1.876-1.581-1.1.387-.79 1.58-.496 2.666 1.783 6.96 2.775 14.091 2.775 21.238 0 8.34-2.976 12.51-4.759 15.58-6.557 11.006-15.083 16.37-19.253 17.764-.497.202-.791.59-.791 1.086v22.431c0 .682.59 1.287 1.287 1.287.496 0 1.1-.403 1.193-.79" style="stroke-width:.992126"/>
  <path class="Tempo" d="M120.684 16h-3.297v44.968c-1.14-.671-2.515-1.093-4.093-1.265a12.672 12.672 0 0 0-1.344-.063c-2.719 0-5.656.782-8.391 2.266-3.187 1.719-5.75 4.187-7.172 6.922-1.453 2.765-1.593 5.469-.422 7.64 1.375 2.579 4.391 3.907 7.938 3.907 2.641 0 5.594-.735 8.406-2.25 5.141-2.782 8.36-7.375 8.375-11.375V16m22.297 52.328h30.234v-6.906h-30.234v6.906m0-12.36h30.234v-6.906h-30.234v6.906m83.266-24.609c-4.016.672-7.375.844-13.61.844-5.703 0-7.922-.125-14.406-.844L196.2 49.312l3.297.36.593-2.704c1.141-5.281 1.563-6.062 3.719-6.062.25 0 .61 0 1.031.062 1.672.063 5.391.172 6.829.172.609 0 2.593-.062 5.593-.109l2.328-.063-4.078 6.063-3 4.672c-4.672 7.328-4.672 7.328-6.109 10.625-1.203 2.64-1.688 4.609-1.688 6.469 0 3.609 2.157 5.89 5.516 5.89 3.781 0 5.938-2.344 5.938-6.609-.047-11.094 1.14-15.172 10.078-34.188v-2.531m30.312 26.531-.672 3c-.531 2.391-.89 3.172-1.375 3.469-.593.422-.718.422-4.5.484h-11.578c2.094-1.796 3.656-2.937 6-4.5 8.453-5.453 10.203-6.781 11.938-9 2.047-2.703 3.234-5.875 3.234-8.703 0-6.422-6.297-11.281-14.75-11.281-8.156 0-14.469 5.281-14.469 12.125 0 4.203 2.344 6.906 5.953 6.906 3.11 0 5.094-1.984 5.094-5.109 0-2.578-1.14-4.078-3.906-5.391-.656-.312-.953-.672-.953-1.14 0-1.922 3.234-3.969 6.234-3.969 4.203 0 6.61 2.578 6.61 7.031 0 4.969-1.922 8.516-8.282 15.297-6.718 7.141-9.062 9.828-12.062 14.156v2.813c1.562-.172 2.219-.235 3.125-.235h22.547c1.14 0 1.859.063 3.672.235l1.375-16.188h-3.235"/>
  <path class="NoteDot" d="M1456.396 310.58a4.955 4.955 0 0 0 4.96 4.96 4.955 4.955 0 0 0 4.961-4.96 4.955 4.955 0 0 0-4.96-4.96 4.955 4.955 0 0 0-4.961 4.96m1293.9 0a4.955 4.955 0 0 0 4.96 4.96 4.955 4.955 0 0 0 4.961-4.96 4.955 4.955 0 0 0-4.96-4.96 4.955 4.955 0 0 0-4.961 4.96m565.53 0a4.955 4.955 0 0 0 4.96 4.96 4.955 4.955 0 0 0 4.961-4.96 4.955 4.955 0 0 0-4.96-4.96 4.955 4.955 0 0 0-4.961 4.96m184.41 0a4.955 4.955 0 0 0 4.96 4.96 4.955 4.955 0 0 0 4.961-4.96 4.955 4.955 0 0 0-4.96-4.96 4.955 4.955 0 0 0-4.961 4.96m-307.35-49.606a4.955 4.955 0 0 0 4.96 4.96 4.955 4.955 0 0 0 4.961-4.96 4.955 4.955 0 0 0-4.96-4.96 4.955 4.955 0 0 0-4.961 4.96m0-49.606a4.955 4.955 0 0 0 4.96 4.96 4.955 4.955 0 0 0 4.961-4.96 4.955 4.955 0 0 0-4.96-4.96 4.955 4.955 0 0 0-4.961 4.96" style="stroke-width:.992126"/>
</svg>
