<svg width="2583.088" height="1003.011" viewBox="0 0 2583.088 1003.012" version="1.2" xmlns="http://www.w3.org/2000/svg">
  <path style="fill:#f5d;fill-opacity:1;stroke:#000;stroke-width:0;stroke-linecap:round;stroke-linejoin:round;paint-order:stroke markers fill" d="M2242.267 286.68h321.476v427.626h-321.476z"/>
  <path style="fill:#37c871;fill-opacity:1;stroke:#000;stroke-width:0;stroke-linecap:round;stroke-linejoin:round;paint-order:stroke markers fill" d="M1878.584 286.68h401.437v427.626h-401.437z"/>
  <path style="fill:#ffd42a;fill-opacity:1;stroke:#000;stroke-width:0;stroke-linecap:round;stroke-linejoin:round;paint-order:stroke markers fill" d="M1487.171 286.68h419.889v427.626h-419.889z"/>
  <path style="fill:#ff7f2a;fill-opacity:1;stroke:#000;stroke-width:0;stroke-linecap:round;stroke-linejoin:round;paint-order:stroke markers fill" d="M1270.026 286.68h242.315v427.626h-242.315z"/>
  <path style="fill:#bc5fd3;fill-opacity:1;stroke:#000;stroke-width:0;stroke-linecap:round;stroke-linejoin:round;paint-order:stroke markers fill" d="M930.216 286.68h362.157v427.626H930.216z"/>
  <path style="fill:#ff2a2a;fill-opacity:1;stroke:#000;stroke-width:0;stroke-linecap:round;stroke-linejoin:round;paint-order:stroke markers fill" d="M572.792 286.68h384.121v427.626H572.792z"/>
  <path class="StaffLines" fill="none" stroke="#000" stroke-width="2.73" stroke-linejoin="bevel" d="M350.186 123.444h2216.902m-2216.902 24.8h2216.902m-2216.902 24.8h2216.902m-2216.902 24.8h2216.902m-2216.902 24.8h2216.902M350.186 341.684h2216.902m-2216.902 24.8h2216.902m-2216.902 24.8h2216.902m-2216.902 24.8h2216.902m-2216.902 24.8h2216.902M350.186 540.085h2216.902m-2216.902 24.8h2216.902m-2216.902 24.8h2216.902m-2216.902 24.8h2216.902m-2216.902 24.8h2216.902"/>
  <path class="InstrumentName" d="M79.86 571.235h-1.907l-2 2.95c-3.64-2.66-5.5-3.36-8.953-3.36-4.75 0-8.797 2-12.14 6-3.204 3.81-4.704 8.02-4.704 13.16 0 10.79 7.047 18.45 16.907 18.45 8 0 13.093-4.7 14.25-13.09l-2.36-.41c-1.343 7.45-5.14 11.16-11.297 11.16-7.406 0-10.906-5.11-10.906-15.91 0-5.7.75-9.45 2.453-12.45 1.547-2.8 4.61-4.55 7.86-4.55 3.5 0 6.593 1.84 8.5 5.05.953 1.65 1.64 3.5 2.843 7.45h2.204l-.75-14.45m16.531 12.4c-6.141 0-10.891 5.46-10.891 12.46 0 6.84 4.797 12.34 10.797 12.34 6 0 10.797-5.5 10.797-12.41 0-6.84-4.797-12.39-10.703-12.39m0 2.14c3.5 0 5.453 3.66 5.453 10.25 0 6.66-1.953 10.25-5.547 10.25-3.594 0-5.547-3.59-5.547-10.18 0-6.82 1.891-10.32 5.641-10.32m22.39-1.39-8.656.55v2.16h1.813c1.89.04 2.14.34 2.14 2.5v14.29c-.047.75-.093 1.05-.297 1.3-.343.45-1.296.66-3.453.7h-.203v1.8h12.656v-1.8h-.203c-3.343-.11-3.797-.36-3.797-2.15v-7.39c0-2.46.344-4.71.907-5.86 1.047-2.25 3.297-3.8 5.437-3.8 1.313 0 2.813.7 3.563 1.75.75 1.09 1.093 2.59 1.093 5v10.45c-.046.75-.093 1.05-.296 1.3-.36.45-1.36.66-3.5.7h-.204v1.8h12.657v-1.8h-.203c-3.297-.11-3.75-.36-3.75-2.15v-10.05c0-3.59-.157-4.5-1.047-6.2-1.25-2.39-3.75-3.85-6.75-3.85-3.25 0-5.703 1.5-7.907 4.8v-4.05m30.25 0v-9.9h-2.046c-.5 6.5-2.704 9.79-6.75 10.11v1.93h4.093v12.75c0 3.5.094 4.75.594 5.91.813 2.09 2.813 3.25 5.703 3.25 4.5 0 7.406-3.41 7.406-8.7 0-.3 0-.64-.046-1.14h-2.11c-.14 4.5-1.453 6.79-3.89 6.79-1.157 0-2.157-.61-2.5-1.45-.313-.7-.454-1.95-.454-3.75v-13.66h7.344v-2.14h-7.344m19.641 0-8.859.55v2.16h2.047c1.906.04 2.156.34 2.156 2.5v14.29c-.047.75-.094 1.05-.297 1.3-.359.45-1.359.66-3.5.7h-.203v1.8h13.344v-1.8h-.891c-3.359-.11-3.797-.36-3.797-2.15v-2.71c.047-8.39 3.047-14.79 6.938-15-.688.82-.891 1.32-.891 2.25 0 1.61 1.141 2.75 2.75 2.75 1.844 0 3.047-1.34 3.047-3.34 0-2.45-1.703-4.05-4.344-4.05-3.156 0-5.859 2.5-7.5 6.96v-6.21m34.469 7.21c0-3.16-.547-4.75-2-5.96-1.641-1.36-4.094-2-7.297-2-5.641 0-9.75 2.64-9.75 6.3 0 1.84 1.156 3.05 2.906 3.05 1.594 0 2.703-1.05 2.703-2.55 0-.66-.25-1.34-.75-2.05-.312-.36-.359-.45-.359-.7 0-1 2-1.91 4.406-1.91 1.594 0 3.344.5 4.141 1.25.953.82 1.312 2 1.312 4.25v1.96c-5.203.9-6.859 1.29-9.312 2.25-4.344 1.61-6.391 3.9-6.391 7.11 0 3.59 2.797 5.84 7.25 5.84 3.453 0 6.547-1.41 8.703-3.95.797 2.54 2.047 3.54 4.391 3.54 2.25 0 4.609-1.43 4.609-2.89 0-.36-.203-.61-.5-.61-.203 0-.406.07-.75.21-.703.29-1 .36-1.406.36-1.406 0-1.906-.91-1.906-3.46v-10.04m-4.688 6.09c0 3-.156 3.7-1 5-1.25 1.84-3.5 3.09-5.703 3.09-2.297 0-3.953-1.64-3.953-3.89 0-2.11 1.047-3.61 3.25-4.65 1.547-.71 3.5-1.21 7.406-1.85v2.3m18.891-26.86-8.594.56v2.14h1.75c1.891.05 2.141.36 2.141 2.5v19.46c0 6.95-.297 10.75-.891 12.9h1.891l2.453-3.9c2.047 2.7 4.406 3.95 7.5 3.95 6.203 0 10.75-5.3 10.75-12.55 0-7.2-4.203-12.25-10.203-12.25-3.047 0-4.891 1.05-6.797 3.89v-16.7m5.906 15.36c3.75 0 5.844 3.66 5.844 10.2 0 6.35-2.047 9.89-5.703 9.89-3.953 0-6.297-3.64-6.297-9.79 0-6.71 2.156-10.3 6.156-10.3m35.485 5.41c0-3.16-.547-4.75-2-5.96-1.641-1.36-4.094-2-7.297-2-5.641 0-9.75 2.64-9.75 6.3 0 1.84 1.156 3.05 2.906 3.05 1.594 0 2.703-1.05 2.703-2.55 0-.66-.25-1.34-.75-2.05-.312-.36-.359-.45-.359-.7 0-1 2-1.91 4.406-1.91 1.594 0 3.344.5 4.141 1.25.953.82 1.312 2 1.312 4.25v1.96c-5.203.9-6.859 1.29-9.312 2.25-4.344 1.61-6.391 3.9-6.391 7.11 0 3.59 2.797 5.84 7.25 5.84 3.453 0 6.547-1.41 8.703-3.95.797 2.54 2.047 3.54 4.391 3.54 2.25 0 4.609-1.43 4.609-2.89 0-.36-.203-.61-.5-.61-.203 0-.406.07-.75.21-.703.29-1 .36-1.406.36-1.406 0-1.906-.91-1.906-3.46v-10.04m-4.688 6.09c0 3-.156 3.7-1 5-1.25 1.84-3.5 3.09-5.703 3.09-2.297 0-3.953-1.64-3.953-3.89 0-2.11 1.047-3.61 3.25-4.65 1.547-.71 3.5-1.21 7.406-1.85v2.3m29.438-13.84h-1.75l-1.454 1.79c-1.796-1.4-3.593-2-6.093-2-4.407 0-7.297 2.85-7.297 7.25 0 1.96.64 3.6 1.75 4.6 1.14 1.04 2.297 1.54 5.297 2.25l2.64.61c3.953.93 5.36 1.93 5.36 3.93 0 2.36-2.047 4-4.953 4-4.25 0-7.25-2.68-8.454-7.68h-2v9.43h1.75l1.75-2.04c2.047 1.65 4.297 2.45 6.86 2.45 4.89 0 8.14-3.05 8.14-7.7 0-2.21-.703-3.89-2.093-5.05-1.203-1.05-2.203-1.45-5.25-2.09l-2.5-.57c-2.75-.59-2.75-.59-3.657-1.09-1.093-.5-1.75-1.55-1.75-2.66 0-2.04 1.907-3.43 4.657-3.43 1.89 0 3.453.64 4.843 2 1.11 1.09 1.657 2.09 2.454 4.39h1.75v-8.39m22.937 0h-1.75l-1.453 1.79c-1.797-1.4-3.594-2-6.094-2-4.406 0-7.297 2.85-7.297 7.25 0 1.96.641 3.6 1.75 4.6 1.141 1.04 2.297 1.54 5.297 2.25l2.641.61c3.953.93 5.359 1.93 5.359 3.93 0 2.36-2.047 4-4.953 4-4.25 0-7.25-2.68-8.453-7.68h-2v9.43h1.75l1.75-2.04c2.047 1.65 4.297 2.45 6.859 2.45 4.891 0 8.141-3.05 8.141-7.7 0-2.21-.703-3.89-2.094-5.05-1.203-1.05-2.203-1.45-5.25-2.09l-2.5-.57c-2.75-.59-2.75-.59-3.656-1.09-1.094-.5-1.75-1.55-1.75-2.66 0-2.04 1.906-3.43 4.656-3.43 1.891 0 3.453.64 4.844 2 1.109 1.09 1.656 2.09 2.453 4.39h1.75v-8.39m-97.859-182.811-9.157-23.203c-.25-.656-.406-1.297-.406-1.547 0-.906.86-1.25 3.11-1.25h2v-2.359H188.5v2.359h1c2.313.047 3.063.594 3.86 2.797L206 409.534h2l11.516-29.609c1.5-3.891 2.547-4.797 5.437-4.891h.5v-2.359h-13.547v2.359h.954c2.546 0 4.046 1 4.046 2.594 0 .703-.25 1.797-.593 2.797l-7.75 20.609m26.39-15.547-9.39.547v2.157h2.547c1.89.046 2.14.343 2.14 2.5v14.296c-.047.75-.094 1.047-.297 1.297-.343.453-1.297.657-3.453.703h-.344v1.797h12.954v-1.797h-.36c-3.344-.109-3.797-.359-3.797-2.156v-19.344m-2.343-12.453a2.898 2.898 0 0 0-2.907 2.891c0 1.609 1.297 2.906 2.86 2.906 1.64 0 2.937-1.297 2.937-2.906a2.894 2.894 0 0 0-2.89-2.891m20.375 11.703c-6.141 0-10.891 5.454-10.891 12.454 0 6.843 4.797 12.343 10.797 12.343 6 0 10.797-5.5 10.797-12.406 0-6.844-4.797-12.391-10.703-12.391m0 2.141c3.5 0 5.453 3.656 5.453 10.25 0 6.656-1.953 10.25-5.547 10.25-3.594 0-5.547-3.594-5.547-10.187 0-6.813 1.891-10.313 5.641-10.313m22.593-14.953-9.25.562v2.141h2.453c1.844.047 2.094.359 2.094 2.5v27.859c-.047.75-.094 1.047-.297 1.297-.359.453-1.297.657-3.453.703h-.344v1.797h12.938v-1.797h-.344c-3.344-.109-3.797-.359-3.797-2.156v-32.906m28.125 20.766c0-3.157-.547-4.75-2-5.954-1.64-1.359-4.093-2-7.297-2-5.64 0-9.75 2.641-9.75 6.297 0 1.844 1.157 3.047 2.907 3.047 1.593 0 2.703-1.047 2.703-2.547 0-.656-.25-1.343-.75-2.047-.313-.359-.36-.453-.36-.703 0-1 2-1.906 4.407-1.906 1.593 0 3.343.5 4.14 1.25.953.813 1.313 2 1.313 4.25v1.953c-5.203.906-6.86 1.297-9.313 2.25-4.343 1.61-6.39 3.906-6.39 7.11 0 3.593 2.797 5.843 7.25 5.843 3.453 0 6.547-1.406 8.703-3.953.797 2.547 2.047 3.547 4.39 3.547 2.25 0 4.61-1.437 4.61-2.891 0-.359-.203-.609-.5-.609-.203 0-.406.063-.75.203-.703.297-1 .36-1.406.36-1.407 0-1.907-.907-1.907-3.454v-10.046m-4.687 6.093c0 3-.156 3.703-1 5-1.25 1.844-3.5 3.094-5.703 3.094-2.297 0-3.953-1.641-3.953-3.891 0-2.109 1.046-3.609 3.25-4.656 1.546-.703 3.5-1.203 7.406-1.844v2.297M46.406 150.091h-1.89l-1.953 3c-3.25-2.547-5.453-3.406-9.11-3.406-3.953 0-7.047 1.109-10.203 3.656-4.937 4-7.25 9.047-7.25 15.797 0 5.109 1.453 9.359 4.406 12.609 3.094 3.5 7.704 5.547 12.5 5.547 4.204 0 7.157-1.297 10.407-4.547l1.843 4.5h2.11v-11c0-2.547 0-2.656.297-3.109.453-.547 1.343-.688 4.203-.688h.75v-2.359H36.61v2.359h.953c4.203 0 4.547.25 4.547 3.047 0 2.141-.344 4.094-1 5.297-1.25 2.453-4.454 4.156-7.704 4.156s-6.453-1.656-8.156-4.156c-1.844-2.797-2.64-6.297-2.64-11.656 0-11.141 3.703-17.094 10.64-17.094 5.703 0 9.656 4.094 11.703 12.094h2.157l-.704-14.047M63 149.685l-9.25.562v2.141h2.453c1.844.047 2.094.359 2.094 2.5v27.859c-.047.75-.094 1.047-.297 1.297-.359.453-1.297.656-3.453.703h-.344v1.797h12.938v-1.797h-.344c-3.344-.109-3.797-.359-3.797-2.156v-32.906m18.125 12.812c-6.14 0-10.89 5.453-10.89 12.453 0 6.844 4.796 12.344 10.796 12.344 6 0 10.797-5.5 10.797-12.406 0-6.844-4.797-12.391-10.703-12.391m0 2.141c3.5 0 5.453 3.656 5.453 10.25 0 6.656-1.953 10.25-5.547 10.25-3.593 0-5.546-3.594-5.546-10.188 0-6.812 1.89-10.312 5.64-10.312M112.86 179.2c-1.594 3.594-3.297 5.047-5.891 5.047-4 0-6.5-3.656-6.5-9.5 0-6.109 2.453-10.109 6.141-10.109 1.5 0 2.812.703 2.812 1.5 0 .156-.062.312-.312.609-.797.953-1 1.453-1 2.297 0 1.656 1.25 2.797 3 2.797 1.812 0 3.062-1.391 3.062-3.391 0-3.406-3.359-5.953-7.812-5.953-6.5 0-11.141 5.297-11.141 12.797 0 7.094 4.25 12 10.453 12 4.438 0 7-2.047 9.141-7.344l-1.953-.75m12.203-4.75v-24.765l-9.25.562v2.141h2.39c1.907.047 2.157.359 2.157 2.5v27.906c-.047.703-.094 1-.297 1.25-.36.453-1.297.656-3.453.703h-.204v1.797h12.657v-1.797h-.203c-3.344-.109-3.797-.359-3.797-2.156v-5.047l3.047-2.906 5.953 8.359c.25.391.343.641.343.844 0 .703-.546.906-2.203.906h-.937v1.797h13.203v-1.797c-2.813-.25-3.813-.859-5.859-3.453l-7.094-9.703 2.25-2.203c2.937-2.844 5.047-3.938 8.453-4.344v-1.797h-13.156v1.797h1.547c1.593 0 2.343.297 2.343.953 0 .547-.343 1.141-1.14 1.953l-6.75 6.5m42.031.844c.047-7.5-4.203-12.797-10.297-12.797-6.406 0-11.203 5.547-11.203 13.047 0 7.047 4.547 11.75 11.297 11.75 4.797 0 8.156-2.344 10.203-7.094l-1.75-.953c-2.047 3.844-4.156 5.344-7.5 5.344-2.547 0-4.406-1.047-5.703-3.297-.891-1.5-1.297-3.25-1.25-6h16.203m-16.156-2.156c0-1.547.203-2.641.703-4.047 1.047-3 2.656-4.453 5.109-4.453 3 0 5 2.656 5 6.703 0 1.406-.453 1.797-2.062 1.797h-8.75m27.89-9.891-8.656.547v2.156h1.813c1.89.047 2.14.344 2.14 2.5v14.297c-.047.75-.094 1.047-.297 1.297-.343.453-1.297.656-3.453.703h-.203v1.797h12.656v-1.797h-.203c-3.344-.109-3.797-.359-3.797-2.156V175.2c0-2.453.344-4.703.907-5.859 1.046-2.25 3.296-3.797 5.437-3.797 1.313 0 2.813.703 3.563 1.75.75 1.094 1.093 2.594 1.093 5v10.453c-.047.75-.093 1.047-.297 1.297-.359.453-1.359.656-3.5.703h-.203v1.797h12.657v-1.797h-.204c-3.296-.109-3.75-.359-3.75-2.156v-10.047c0-3.594-.156-4.5-1.046-6.203-1.25-2.391-3.75-3.844-6.75-3.844-3.25 0-5.704 1.5-7.907 4.797v-4.047m40.047-.547h-1.75l-1.453 1.797c-1.797-1.406-3.594-2-6.094-2-4.406 0-7.297 2.844-7.297 7.25 0 1.953.641 3.594 1.75 4.594 1.141 1.047 2.297 1.547 5.297 2.25l2.641.609c3.953.938 5.359 1.938 5.359 3.938 0 2.359-2.047 4-4.953 4-4.25 0-7.25-2.688-8.453-7.688h-2v9.438h1.75l1.75-2.047c2.047 1.656 4.297 2.453 6.859 2.453 4.891 0 8.141-3.047 8.141-7.703 0-2.203-.703-3.891-2.094-5.047-1.203-1.047-2.203-1.453-5.25-2.094l-2.5-.562c-2.75-.594-2.75-.594-3.656-1.094-1.094-.5-1.75-1.547-1.75-2.656 0-2.047 1.906-3.438 4.656-3.438 1.891 0 3.453.641 4.844 2 1.109 1.094 1.656 2.094 2.453 4.391h1.75V162.7m12.844.547-8.641.547v2.156h1.797c1.891.047 2.141.344 2.141 2.5v24.438c-.047.703-.094 1-.297 1.25-.344.453-1.297.656-3.453.703h-.188v1.797h13v-1.797h-.562c-3.344-.094-3.797-.344-3.797-2.141v-9.453c1.656 2.891 3.5 4.047 6.609 4.047 3.047 0 5.547-1.297 7.344-3.75 1.75-2.406 2.75-5.5 2.75-8.75s-1-6.297-2.844-8.703c-1.859-2.391-4.156-3.594-6.953-3.594-3.109 0-5.156 1.297-6.906 4.297v-3.547m6 1.953c3.453 0 5.453 3.438 5.453 9.297 0 6.453-2 10.094-5.594 10.094-3.609 0-5.906-3.703-5.906-9.453 0-6.25 2.25-9.938 6.047-9.938m22.937-1.953-9.39.547v2.156h2.547c1.89.047 2.14.344 2.14 2.5v14.297c-.047.75-.093 1.047-.297 1.297-.343.453-1.296.656-3.453.703h-.343v1.797h12.953v-1.797h-.36c-3.343-.109-3.797-.359-3.797-2.156v-19.344m-2.343-12.453a2.898 2.898 0 0 0-2.907 2.891c0 1.609 1.297 2.906 2.86 2.906 1.64 0 2.937-1.297 2.937-2.906a2.894 2.894 0 0 0-2.89-2.891m31.031 24.5c.047-7.5-4.203-12.797-10.297-12.797-6.406 0-11.203 5.547-11.203 13.047 0 7.047 4.547 11.75 11.297 11.75 4.797 0 8.156-2.344 10.203-7.094l-1.75-.953c-2.047 3.844-4.156 5.344-7.5 5.344-2.547 0-4.406-1.047-5.703-3.297-.891-1.5-1.297-3.25-1.25-6h16.203m-16.156-2.156c0-1.547.203-2.641.703-4.047 1.047-3 2.656-4.453 5.109-4.453 3 0 5 2.656 5 6.703 0 1.406-.453 1.797-2.062 1.797h-8.75m26.89-23.453-9.25.562v2.141h2.453c1.844.047 2.094.359 2.094 2.5v27.859c-.047.75-.094 1.047-.297 1.297-.359.453-1.297.656-3.453.703h-.344v1.797h12.938v-1.797h-.344c-3.344-.109-3.797-.359-3.797-2.156v-32.906"/>
  <path class="TieSegment" stroke="#000" stroke-width="1.74" stroke-linecap="round" stroke-linejoin="round" fill-rule="evenodd" d="M991.528 641.645c11.51 6.44 46.03 6.44 57.53 0-11.5 13.39-46.02 13.39-57.53 0m1012.03 3.84c11.51 6.45 46.03 6.45 57.53 0-11.5 13.39-46.02 13.39-57.53 0M777.616 142.044c9.951-13.392 39.802-13.392 49.752 0-9.95-6.448-39.801-6.448-49.752 0m213.912 24.8c11.51-13.392 46.03-13.392 57.53 0-11.5-6.448-46.02-6.448-57.53 0m1012.03 0c11.51-13.392 46.03-13.392 57.53 0-11.5-6.448-46.02-6.448-57.53 0m245.02-24.8c9.92-13.392 39.68-13.392 49.6 0-9.92-6.448-39.68-6.448-49.6 0"/>
  <path class="BarLine" stroke="#000" stroke-width="4.46" stroke-linejoin="bevel" d="M352.418 538.725v101.92m1158.77-101.92v101.92m1031.72-101.92v101.92"/>
  <path class="BarLine" stroke="#000" stroke-width="13.64" stroke-linejoin="bevel" d="M2560.268 538.725v101.92"/>
  <path class="BarLine" stroke="#000" stroke-width="4.46" stroke-linejoin="bevel" d="M352.418 340.32v199.765m1158.77-199.765v199.765m1031.72-199.765v199.765"/>
  <path class="BarLine" stroke="#000" stroke-width="13.64" stroke-linejoin="bevel" d="M2560.268 340.32v199.765"/>
  <path class="BarLine" stroke="#000" stroke-width="4.46" stroke-linejoin="bevel" d="M352.418 122.08v219.604m1158.77-219.604v101.928m1031.72-101.928v101.928"/>
  <path class="BarLine" stroke="#000" stroke-width="13.64" stroke-linejoin="bevel" d="M2560.268 122.08v101.928"/>
  <path class="Accidental" d="M1364.141 619.042c-.589-3.86-2.976-7.533-8.029-7.533-4.96 0-7.843 3.069-8.339 3.673l.403-31.852c0-.79-.589-1.38-1.395-1.38h-1.178c-.806 0-1.395.59-1.395 1.38l.496 59.628c0 .791.589 1.38 1.395 1.38.186 0 .589-.093.79-.186.388-.202 6.836-3.379 12.199-9.424 3.767-4.278 5.255-9.13 5.255-13.206 0-.884-.093-1.674-.202-2.48m-6.835 3.875c0 1.488-.403 6.045-2.883 9.827-1.69 2.573-5.053 5.254-6.944 6.742l.294-19.344c.202-.899 1.69-3.766 5.658-3.766 3.58 0 3.875 3.363 3.875 5.456v1.085m75.815-41.075c-.589-3.86-2.976-7.533-8.029-7.533-4.96 0-7.843 3.069-8.339 3.673l.403-31.852c0-.79-.589-1.38-1.395-1.38h-1.178c-.806 0-1.395.59-1.395 1.38l.496 59.628c0 .791.589 1.38 1.395 1.38.186 0 .589-.093.79-.186.388-.202 6.836-3.379 12.199-9.424 3.767-4.278 5.255-9.13 5.255-13.206 0-.884-.093-1.674-.202-2.48m-6.835 3.875c0 1.488-.403 6.045-2.883 9.827-1.69 2.573-5.053 5.254-6.944 6.742l.294-19.344c.202-.899 1.69-3.766 5.658-3.766 3.58 0 3.875 3.363 3.875 5.456v1.085m115.47 24.955c.14 0 .248-.03.356-.108a.659.659 0 0 0 .249-.884c-.109-.201-10.246-20.119 0-39.788a.69.69 0 0 0-.248-.884.678.678 0 0 0-.9.17c-.247.342-6.215 8.479-6.215 20.507 0 12.028 5.968 20.352 6.216 20.708.139.17.34.28.542.28m21.484-39.139c-.187-.201-.497-.294-.792-.294-.093 0-.294.093-.387.093l-12.509 3.472v-17.36h-2.774v49.104c0 .79.589 1.287 1.395 1.287h.388l12.508-3.472v17.36h2.666V572.62c0-.388-.186-.884-.496-1.085m-2.17 24.598-11.517 3.178v-16.275l11.517-3.271v16.368m7.681-27.435a.572.572 0 0 0-.356.108.659.659 0 0 0-.249.884c.109.201 10.246 20.119 0 39.788a.689.689 0 0 0 .248.884.662.662 0 0 0 .9-.17c.247-.342 6.215-8.479 6.215-20.507 0-12.028-5.968-20.351-6.216-20.708a.722.722 0 0 0-.542-.28m407.461 50.345c-.589-3.86-2.976-7.533-8.029-7.533-4.96 0-7.843 3.069-8.339 3.673l.403-31.852c0-.79-.589-1.38-1.395-1.38h-1.178c-.806 0-1.395.59-1.395 1.38l.496 59.628c0 .791.589 1.38 1.395 1.38.186 0 .589-.093.79-.186.388-.202 6.836-3.379 12.199-9.424 3.767-4.278 5.255-9.13 5.255-13.206 0-.884-.093-1.674-.202-2.48m-6.835 3.875c0 1.488-.403 6.045-2.883 9.827-1.69 2.573-5.053 5.254-6.944 6.742l.294-19.344c.202-.899 1.69-3.766 5.657-3.766 3.581 0 3.876 3.363 3.876 5.456v1.085m-536.255-251.876c-.589-3.86-2.976-7.533-8.029-7.533-4.96 0-7.843 3.069-8.339 3.673l.403-31.852c0-.79-.589-1.38-1.395-1.38h-1.178c-.806 0-1.395.59-1.395 1.38l.496 59.628c0 .791.589 1.38 1.395 1.38.186 0 .589-.093.79-.186.388-.202 6.836-3.379 12.199-9.424 3.767-4.278 5.255-9.13 5.255-13.206 0-.884-.093-1.674-.202-2.48m-6.835 3.875c0 1.488-.403 6.045-2.883 9.827-1.69 2.573-5.053 5.254-6.944 6.742l.294-19.344c.202-.899 1.69-3.766 5.658-3.766 3.58 0 3.875 3.363 3.875 5.456v1.085m549.925 33.325c-.589-3.86-2.976-7.533-8.029-7.533-4.96 0-7.843 3.069-8.339 3.673l.403-31.852c0-.79-.589-1.38-1.395-1.38h-1.178c-.806 0-1.395.59-1.395 1.38l.496 59.628c0 .791.589 1.38 1.395 1.38.186 0 .589-.093.79-.186.388-.202 6.836-3.379 12.199-9.424 3.767-4.278 5.255-9.13 5.255-13.206 0-.884-.093-1.674-.202-2.48m-6.835 3.875c0 1.488-.403 6.045-2.883 9.827-1.69 2.573-5.053 5.254-6.944 6.742l.294-19.344c.202-.899 1.69-3.766 5.657-3.766 3.581 0 3.876 3.363 3.876 5.456v1.085m435.904-14.183c-.187-.201-.497-.294-.792-.294-.092 0-.294.093-.387.093l-12.508 3.472v-17.36h-2.775v49.104c0 .79.589 1.287 1.395 1.287h.388l12.508-3.472v17.36h2.666v-49.104c0-.388-.186-.884-.496-1.085m-2.17 24.598-11.516 3.178v-16.275l11.516-3.271v16.368m-426.898-244.931c-.589-3.86-2.976-7.533-8.029-7.533-4.96 0-7.843 3.069-8.339 3.673l.403-31.852c0-.79-.589-1.38-1.395-1.38h-1.178c-.806 0-1.395.59-1.395 1.38l.496 59.628c0 .791.589 1.38 1.395 1.38.186 0 .589-.093.79-.186.388-.202 6.836-3.379 12.199-9.424 3.767-4.278 5.255-9.13 5.255-13.206 0-.884-.093-1.674-.202-2.48m-6.835 3.875c0 1.488-.403 6.045-2.883 9.827-1.69 2.573-5.053 5.254-6.944 6.742l.294-19.344c.202-.899 1.69-3.766 5.657-3.766 3.581 0 3.876 3.363 3.876 5.456v1.085m435.904-14.183c-.187-.201-.497-.294-.792-.294-.092 0-.294.093-.387.093l-12.508 3.472v-17.36h-2.775v49.104c0 .79.589 1.287 1.395 1.287h.388l12.508-3.472v17.36h2.666v-49.104c0-.388-.186-.884-.496-1.085m-2.17 24.598-11.516 3.178v-16.275l11.516-3.271v16.368" style="stroke-width:.992001"/>
  <path class="Stem" stroke="#000" stroke-width="2.73" stroke-linejoin="bevel" d="M603.534 568.215v95.87m59.422-58.67v77.27m184.002-83.77v-77.43m154.49 89.83v-83.63m67.2 83.63v-89.83m59.42 77.43v-83.63m178.27 83.63v-77.43m95.07 102.23v-105.82m68.98 68.62v-71.23m142.19 71.23v-71.23m59.27 96.03v-71.23m154.11 71.23v-80.53m187.52 92.93v-83.63m67.2 83.63v-83.63m59.27 46.43v-71.23m148.31 90.13v83.47m125.08-108.27v87.24m59.27-112.04v102.07M603.534 357.417v108.267m59.422-71.067v71.067m95.073-108.267v108.267m59.419-71.067v89.667m95.08-126.867V488.1m59.42-81.083v83.468m96.7-77.575v-96.026m59.42 71.226v-71.226m118.84 96.026v-96.026m29.92 77.733v71.067m95.07-108.267v104.674m68.99-79.874v77.267m171.69-34.174V323.084m59.27 77.426v-77.426m94.84 102.226V323.084m59.27 77.426v-83.626m118.54 71.226v-71.226m68.98 96.026v-96.026m67.2 108.426V298.284m59.27 77.426v-77.426m118.54 102.226V298.284m59.28 89.826v-71.226m125.07 96.026v-79.199m59.27 91.599v-83.626M603.534 188.777v77.267m59.422-139.267V258.89m95.073-94.913v83.467m59.419-83.467v83.467m95.08-133.067V258.89m59.42-70.113v77.267m67.2-77.267v77.267m59.42-89.667v77.267m59.42-102.067v89.667m118.84-52.467v64.867m95.07-89.667v77.267m211.18-52.467v77.267m59.27-89.667v82.513m94.83-94.913v83.467m59.27-71.067v89.667m59.27-139.267v141.227m128.26-79.227v83.467m67.2-83.467v77.267m118.54-89.667v73.134m59.27-85.534v77.267m59.27-77.267v102.067m59.27-89.667v89.667m65.81-77.267v77.267m59.27-89.667v89.667"/>
  <path class="Note" d="M633.418 556.856c-1.782-3.286-5.549-5.068-10.121-5.068-3.364 0-7.038.992-10.618 2.882-6.541 3.472-10.509 9.316-10.509 14.385 0 1.379.295 2.774.992 4.06 1.783 3.271 5.549 4.96 10.121 4.96 3.364 0 7.038-.883 10.618-2.774 6.541-3.472 10.509-9.331 10.509-14.384 0-1.395-.294-2.775-.992-4.061m59.422 37.2c-1.783-3.286-5.549-5.068-10.121-5.068-3.364 0-7.038.992-10.618 2.882-6.541 3.472-10.509 9.316-10.509 14.385 0 1.379.294 2.774.992 4.06 1.783 3.271 5.549 4.96 10.121 4.96 3.364 0 7.038-.883 10.618-2.774 6.541-3.472 10.509-9.331 10.509-14.384 0-1.395-.294-2.775-.992-4.061m154.496 0c-1.782-3.286-5.549-5.068-10.121-5.068-3.364 0-7.038.992-10.618 2.882-6.541 3.472-10.509 9.316-10.509 14.385 0 1.379.295 2.774.992 4.06 1.783 3.271 5.549 4.96 10.121 4.96 3.364 0 7.038-.883 10.618-2.774 6.541-3.472 10.509-9.331 10.509-14.384 0-1.395-.294-2.775-.992-4.061m154.49 12.4c-1.782-3.286-5.549-5.068-10.121-5.068-3.364 0-7.038.992-10.618 2.882-6.541 3.472-10.509 9.316-10.509 14.385 0 1.379.295 2.774.992 4.06 1.783 3.271 5.549 4.96 10.121 4.96 3.364 0 7.038-.883 10.618-2.774 6.541-3.472 10.509-9.331 10.509-14.384 0-1.395-.294-2.775-.992-4.061m67.2 0c-1.782-3.286-5.549-5.068-10.121-5.068-3.364 0-7.037.992-10.618 2.882-6.541 3.472-10.509 9.316-10.509 14.385 0 1.379.294 2.774.992 4.06 1.782 3.271 5.549 4.96 10.121 4.96 3.364 0 7.037-.883 10.618-2.774 6.541-3.472 10.509-9.331 10.509-14.384 0-1.395-.294-2.775-.992-4.061m59.42-12.4c-1.782-3.286-5.549-5.068-10.121-5.068-3.364 0-7.038.992-10.618 2.882-6.541 3.472-10.509 9.316-10.509 14.385 0 1.379.294 2.774.992 4.06 1.782 3.271 5.549 4.96 10.121 4.96 3.364 0 7.037-.883 10.618-2.774 6.541-3.472 10.509-9.331 10.509-14.384 0-1.395-.295-2.775-.992-4.061m178.27 0c-1.782-3.286-5.549-5.068-10.121-5.068-3.364 0-7.038.992-10.618 2.882-6.541 3.472-10.509 9.316-10.509 14.385 0 1.379.294 2.774.992 4.06 1.782 3.271 5.549 4.96 10.121 4.96 3.364 0 7.037-.883 10.618-2.774 6.541-3.472 10.509-9.331 10.509-14.384 0-1.395-.295-2.775-.992-4.061m95.07 24.8c-1.782-3.286-5.549-5.068-10.121-5.068-3.364 0-7.037.992-10.618 2.882-6.541 3.472-10.509 9.316-10.509 14.385 0 1.379.294 2.774.992 4.06 1.782 3.271 5.549 4.96 10.121 4.96 3.364 0 7.037-.883 10.618-2.774 6.541-3.472 10.509-9.331 10.509-14.384 0-1.395-.294-2.775-.992-4.061m68.98-37.2c-1.782-3.286-5.549-5.068-10.121-5.068-3.364 0-7.037.992-10.618 2.882-6.541 3.472-10.509 9.316-10.509 14.385 0 1.379.294 2.774.992 4.06 1.782 3.271 5.549 4.96 10.121 4.96 3.364 0 7.037-.883 10.618-2.774 6.541-3.472 10.509-9.331 10.509-14.384 0-1.395-.294-2.775-.992-4.061m142.19 0c-1.782-3.286-5.549-5.068-10.121-5.068-3.364 0-7.038.992-10.618 2.882-6.541 3.472-10.509 9.316-10.509 14.385 0 1.379.294 2.774.992 4.06 1.782 3.271 5.549 4.96 10.121 4.96 3.364 0 7.037-.883 10.618-2.774 6.541-3.472 10.509-9.331 10.509-14.384 0-1.395-.295-2.775-.992-4.061m59.27 24.8c-1.782-3.286-5.549-5.068-10.121-5.068-3.364 0-7.037.992-10.618 2.882-6.541 3.472-10.509 9.316-10.509 14.385 0 1.379.294 2.774.992 4.06 1.782 3.271 5.549 4.96 10.121 4.96 3.364 0 7.038-.883 10.618-2.774 6.541-3.472 10.509-9.331 10.509-14.384 0-1.395-.294-2.775-.992-4.061m154.11 0c-1.782-3.286-5.549-5.068-10.121-5.068-3.364 0-7.037.992-10.618 2.882-6.541 3.472-10.509 9.316-10.509 14.385 0 1.379.294 2.774.992 4.06 1.782 3.271 5.549 4.96 10.121 4.96 3.364 0 7.037-.883 10.618-2.774 6.541-3.472 10.509-9.331 10.509-14.384 0-1.395-.294-2.775-.992-4.061m187.52 12.4c-1.782-3.286-5.549-5.068-10.121-5.068-3.364 0-7.037.992-10.618 2.882-6.541 3.472-10.509 9.316-10.509 14.385 0 1.379.294 2.774.992 4.06 1.782 3.271 5.549 4.96 10.121 4.96 3.364 0 7.037-.883 10.618-2.774 6.541-3.472 10.509-9.331 10.509-14.384 0-1.395-.294-2.775-.992-4.061m67.2 0c-1.782-3.286-5.549-5.068-10.121-5.068-3.364 0-7.038.992-10.618 2.882-6.541 3.472-10.509 9.316-10.509 14.385 0 1.379.294 2.774.992 4.06 1.782 3.271 5.549 4.96 10.121 4.96 3.364 0 7.038-.883 10.618-2.774 6.541-3.472 10.509-9.331 10.509-14.384 0-1.395-.294-2.775-.992-4.061m59.27-37.2c-1.782-3.286-5.549-5.068-10.121-5.068-3.364 0-7.038.992-10.618 2.882-6.541 3.472-10.509 9.316-10.509 14.385 0 1.379.294 2.774.992 4.06 1.782 3.271 5.549 4.96 10.121 4.96 3.364 0 7.038-.883 10.618-2.774 6.541-3.472 10.509-9.331 10.509-14.384 0-1.395-.295-2.775-.992-4.061m177.82 12.4c-1.782-3.286-5.549-5.068-10.121-5.068-3.364 0-7.038.992-10.618 2.882-6.541 3.472-10.509 9.316-10.509 14.385 0 1.379.294 2.774.992 4.06 1.782 3.271 5.549 4.96 10.121 4.96 3.364 0 7.038-.883 10.618-2.774 6.541-3.472 10.509-9.331 10.509-14.384 0-1.395-.294-2.775-.992-4.061m125.07-24.8c-1.782-3.286-5.549-5.068-10.121-5.068-3.364 0-7.038.992-10.618 2.882-6.541 3.472-10.509 9.316-10.509 14.385 0 1.379.294 2.774.992 4.06 1.782 3.271 5.549 4.96 10.121 4.96 3.364 0 7.037-.883 10.618-2.774 6.541-3.472 10.509-9.331 10.509-14.384 0-1.395-.295-2.775-.992-4.061m59.28-24.8c-1.782-3.286-5.549-5.068-10.121-5.068-3.364 0-7.038.992-10.618 2.882-6.541 3.472-10.509 9.316-10.509 14.385 0 1.379.294 2.774.992 4.06 1.782 3.271 5.549 4.96 10.121 4.96 3.364 0 7.038-.883 10.618-2.774 6.541-3.472 10.509-9.331 10.509-14.384 0-1.395-.294-2.775-.992-4.061M633.418 346.055c-1.782-3.286-5.549-5.068-10.121-5.068-3.364 0-7.038.992-10.618 2.882-6.541 3.472-10.509 9.316-10.509 14.385 0 1.379.295 2.774.992 4.06 1.783 3.271 5.549 4.96 10.121 4.96 3.364 0 7.038-.883 10.618-2.774 6.541-3.472 10.509-9.331 10.509-14.384 0-1.395-.294-2.775-.992-4.061m59.422 37.2c-1.783-3.286-5.549-5.068-10.121-5.068-3.364 0-7.038.992-10.618 2.882-6.541 3.472-10.509 9.316-10.509 14.385 0 1.379.294 2.774.992 4.06 1.783 3.271 5.549 4.96 10.121 4.96 3.364 0 7.038-.883 10.618-2.774 6.541-3.472 10.509-9.331 10.509-14.384 0-1.395-.294-2.775-.992-4.061m95.073-37.2c-1.782-3.286-5.549-5.068-10.121-5.068-3.364 0-7.038.992-10.618 2.882-6.541 3.472-10.509 9.316-10.509 14.385 0 1.379.295 2.774.992 4.06 1.783 3.271 5.549 4.96 10.121 4.96 3.364 0 7.038-.883 10.618-2.774 6.541-3.472 10.509-9.331 10.509-14.384 0-1.395-.294-2.775-.992-4.061m59.423 37.2c-1.782-3.286-5.549-5.068-10.121-5.068-3.364 0-7.038.992-10.618 2.882-6.541 3.472-10.509 9.316-10.509 14.385 0 1.379.295 2.774.992 4.06 1.783 3.271 5.549 4.96 10.121 4.96 3.364 0 7.038-.883 10.618-2.774 6.541-3.472 10.509-9.331 10.509-14.384 0-1.395-.294-2.775-.992-4.061m95.07-37.2c-1.782-3.286-5.549-5.068-10.121-5.068-3.364 0-7.038.992-10.618 2.882-6.541 3.472-10.509 9.316-10.509 14.385 0 1.379.294 2.774.992 4.06 1.783 3.271 5.549 4.96 10.121 4.96 3.364 0 7.038-.883 10.618-2.774 6.541-3.472 10.509-9.331 10.509-14.384 0-1.395-.294-2.775-.992-4.061m59.42 49.6c-1.782-3.286-5.549-5.068-10.121-5.068-3.364 0-7.038.992-10.618 2.882-6.541 3.472-10.509 9.316-10.509 14.385 0 1.379.295 2.774.992 4.06 1.783 3.271 5.549 4.96 10.121 4.96 3.364 0 7.038-.883 10.618-2.774 6.541-3.472 10.509-9.331 10.509-14.384 0-1.395-.294-2.775-.992-4.061m67.2 12.4c-1.782-3.286-5.549-5.068-10.121-5.068-3.364 0-7.037.992-10.618 2.882-6.541 3.472-10.509 9.316-10.509 14.385 0 1.379.294 2.774.992 4.06 1.782 3.271 5.549 4.96 10.121 4.96 3.364 0 7.037-.883 10.618-2.774 6.541-3.472 10.509-9.331 10.509-14.384 0-1.395-.294-2.775-.992-4.061m59.42-24.8c-1.782-3.286-5.549-5.068-10.121-5.068-3.364 0-7.038.992-10.618 2.882-6.541 3.472-10.509 9.316-10.509 14.385 0 1.379.294 2.774.992 4.06 1.782 3.271 5.549 4.96 10.121 4.96 3.364 0 7.037-.883 10.618-2.774 6.541-3.472 10.509-9.331 10.509-14.384 0-1.395-.295-2.775-.992-4.061m118.85 24.8c-1.782-3.286-5.549-5.068-10.121-5.068-3.364 0-7.037.992-10.618 2.882-6.541 3.472-10.509 9.316-10.509 14.385 0 1.379.294 2.774.992 4.06 1.782 3.271 5.549 4.96 10.121 4.96 3.364 0 7.037-.883 10.618-2.774 6.541-3.472 10.509-9.331 10.509-14.384 0-1.395-.294-2.775-.992-4.061m59.42-24.8c-1.782-3.286-5.549-5.068-10.121-5.068-3.364 0-7.038.992-10.618 2.882-6.541 3.472-10.509 9.316-10.509 14.385 0 1.379.294 2.774.992 4.06 1.782 3.271 5.549 4.96 10.121 4.96 3.364 0 7.037-.883 10.618-2.774 6.541-3.472 10.509-9.331 10.509-14.384 0-1.395-.295-2.775-.992-4.061m95.07-37.2c-1.782-3.286-5.549-5.068-10.121-5.068-3.364 0-7.037.992-10.618 2.882-6.541 3.472-10.509 9.316-10.509 14.385 0 1.379.294 2.774.992 4.06 1.782 3.271 5.549 4.96 10.121 4.96 3.364 0 7.037-.883 10.618-2.774 6.541-3.472 10.509-9.331 10.509-14.384 0-1.395-.294-2.775-.992-4.061m68.98 24.8c-1.782-3.286-5.549-5.068-10.121-5.068-3.364 0-7.037.992-10.618 2.882-6.541 3.472-10.509 9.316-10.509 14.385 0 1.379.294 2.774.992 4.06 1.782 3.271 5.549 4.96 10.121 4.96 3.364 0 7.037-.883 10.618-2.774 6.541-3.472 10.509-9.331 10.509-14.384 0-1.395-.294-2.775-.992-4.061m142.19 49.6c-1.782-3.286-5.549-5.068-10.121-5.068-3.364 0-7.038.992-10.618 2.882-6.541 3.472-10.509 9.316-10.509 14.385 0 1.379.294 2.774.992 4.06 1.782 3.271 5.549 4.96 10.121 4.96 3.364 0 7.037-.883 10.618-2.774 6.541-3.472 10.509-9.331 10.509-14.384 0-1.395-.295-2.775-.992-4.061m59.27-24.8c-1.782-3.286-5.549-5.068-10.121-5.068-3.364 0-7.037.992-10.618 2.882-6.541 3.472-10.509 9.316-10.509 14.385 0 1.379.294 2.774.992 4.06 1.782 3.271 5.549 4.96 10.121 4.96 3.364 0 7.038-.883 10.618-2.774 6.541-3.472 10.509-9.331 10.509-14.384 0-1.395-.294-2.775-.992-4.061m94.84 24.8c-1.782-3.286-5.549-5.068-10.121-5.068-3.364 0-7.037.992-10.618 2.882-6.541 3.472-10.509 9.316-10.509 14.385 0 1.379.294 2.774.992 4.06 1.782 3.271 5.549 4.96 10.121 4.96 3.364 0 7.037-.883 10.618-2.774 6.541-3.472 10.509-9.331 10.509-14.384 0-1.395-.294-2.775-.992-4.061m59.27-24.8c-1.782-3.286-5.549-5.068-10.121-5.068-3.364 0-7.037.992-10.618 2.882-6.541 3.472-10.509 9.316-10.509 14.385 0 1.379.294 2.774.992 4.06 1.782 3.271 5.549 4.96 10.121 4.96 3.364 0 7.037-.883 10.618-2.774 6.541-3.472 10.509-9.331 10.509-14.384 0-1.395-.294-2.775-.992-4.061m118.54-12.4c-1.782-3.286-5.549-5.068-10.121-5.068-3.364 0-7.038.992-10.618 2.882-6.541 3.472-10.509 9.316-10.509 14.385 0 1.379.294 2.774.992 4.06 1.782 3.271 5.549 4.96 10.121 4.96 3.364 0 7.037-.883 10.618-2.774 6.541-3.472 10.509-9.331 10.509-14.384 0-1.395-.294-2.775-.992-4.061m68.98 24.8c-1.782-3.286-5.549-5.068-10.121-5.068-3.364 0-7.037.992-10.618 2.882-6.541 3.472-10.509 9.316-10.509 14.385 0 1.379.294 2.774.992 4.06 1.782 3.271 5.549 4.96 10.121 4.96 3.364 0 7.037-.883 10.618-2.774 6.541-3.472 10.509-9.331 10.509-14.384 0-1.395-.294-2.775-.992-4.061m67.2 12.4c-1.782-3.286-5.549-5.068-10.121-5.068-3.364 0-7.038.992-10.618 2.882-6.541 3.472-10.509 9.316-10.509 14.385 0 1.379.294 2.774.992 4.06 1.782 3.271 5.549 4.96 10.121 4.96 3.364 0 7.038-.883 10.618-2.774 6.541-3.472 10.509-9.331 10.509-14.384 0-1.395-.294-2.775-.992-4.061m59.27-49.6c-1.782-3.286-5.549-5.068-10.121-5.068-3.364 0-7.038.992-10.618 2.882-6.541 3.472-10.509 9.316-10.509 14.385 0 1.379.294 2.774.992 4.06 1.782 3.271 5.549 4.96 10.121 4.96 3.364 0 7.038-.883 10.618-2.774 6.541-3.472 10.509-9.331 10.509-14.384 0-1.395-.295-2.775-.992-4.061m118.55 24.8c-1.782-3.286-5.549-5.068-10.121-5.068-3.364 0-7.038.992-10.618 2.882-6.541 3.472-10.509 9.316-10.509 14.385 0 1.379.294 2.774.992 4.06 1.782 3.271 5.549 4.96 10.121 4.96 3.364 0 7.038-.883 10.618-2.774 6.541-3.472 10.509-9.331 10.509-14.384 0-1.395-.294-2.775-.992-4.061m59.27-12.4c-1.782-3.286-5.549-5.068-10.121-5.068-3.364 0-7.038.992-10.618 2.882-6.541 3.472-10.509 9.316-10.509 14.385 0 1.379.294 2.774.992 4.06 1.782 3.271 5.549 4.96 10.121 4.96 3.364 0 7.038-.883 10.618-2.774 6.541-3.472 10.509-9.331 10.509-14.384 0-1.395-.294-2.775-.992-4.061m125.07 24.8c-1.782-3.286-5.549-5.068-10.121-5.068-3.364 0-7.038.992-10.618 2.882-6.541 3.472-10.509 9.316-10.509 14.385 0 1.379.294 2.774.992 4.06 1.782 3.271 5.549 4.96 10.121 4.96 3.364 0 7.037-.883 10.618-2.774 6.541-3.472 10.509-9.331 10.509-14.384 0-1.395-.295-2.775-.992-4.061m59.28 12.4c-1.782-3.286-5.549-5.068-10.121-5.068-3.364 0-7.038.992-10.618 2.882-6.541 3.472-10.509 9.316-10.509 14.385 0 1.379.294 2.774.992 4.06 1.782 3.271 5.549 4.96 10.121 4.96 3.364 0 7.038-.883 10.618-2.774 6.541-3.472 10.509-9.331 10.509-14.384 0-1.395-.294-2.775-.992-4.061M633.418 177.415c-1.782-3.286-5.549-5.068-10.121-5.068-3.364 0-7.038.992-10.618 2.882-6.541 3.472-10.509 9.316-10.509 14.385 0 1.379.295 2.774.992 4.06 1.783 3.271 5.549 4.96 10.121 4.96 3.364 0 7.038-.883 10.618-2.774 6.541-3.472 10.509-9.331 10.509-14.384 0-1.395-.294-2.775-.992-4.061m59.422-62c-1.783-3.286-5.549-5.068-10.121-5.068-3.364 0-7.038.992-10.618 2.882-6.541 3.472-10.509 9.316-10.509 14.385 0 1.379.294 2.774.992 4.06 1.783 3.271 5.549 4.96 10.121 4.96 3.364 0 7.038-.883 10.618-2.774 6.541-3.472 10.509-9.331 10.509-14.384 0-1.395-.294-2.775-.992-4.061m95.073 37.2c-1.782-3.286-5.549-5.068-10.121-5.068-3.364 0-7.038.992-10.618 2.882-6.541 3.472-10.509 9.316-10.509 14.385 0 1.379.295 2.774.992 4.06 1.783 3.271 5.549 4.96 10.121 4.96 3.364 0 7.038-.883 10.618-2.774 6.541-3.472 10.509-9.331 10.509-14.384 0-1.395-.294-2.775-.992-4.061m59.423 0c-1.782-3.286-5.549-5.068-10.121-5.068-3.364 0-7.038.992-10.618 2.882-6.541 3.472-10.509 9.316-10.509 14.385 0 1.379.295 2.774.992 4.06 1.783 3.271 5.549 4.96 10.121 4.96 3.364 0 7.038-.883 10.618-2.774 6.541-3.472 10.509-9.331 10.509-14.384 0-1.395-.294-2.775-.992-4.061m95.07-49.6c-1.782-3.286-5.549-5.068-10.121-5.068-3.364 0-7.038.992-10.618 2.882-6.541 3.472-10.509 9.316-10.509 14.385 0 1.379.294 2.774.992 4.06 1.783 3.271 5.549 4.96 10.121 4.96 3.364 0 7.038-.883 10.618-2.774 6.541-3.472 10.509-9.331 10.509-14.384 0-1.395-.294-2.775-.992-4.061m59.42 74.4c-1.782-3.286-5.549-5.068-10.121-5.068-3.364 0-7.038.992-10.618 2.882-6.541 3.472-10.509 9.316-10.509 14.385 0 1.379.295 2.774.992 4.06 1.783 3.271 5.549 4.96 10.121 4.96 3.364 0 7.038-.883 10.618-2.774 6.541-3.472 10.509-9.331 10.509-14.384 0-1.395-.294-2.775-.992-4.061m67.2 0c-1.782-3.286-5.549-5.068-10.121-5.068-3.364 0-7.037.992-10.618 2.882-6.541 3.472-10.509 9.316-10.509 14.385 0 1.379.294 2.774.992 4.06 1.782 3.271 5.549 4.96 10.121 4.96 3.364 0 7.037-.883 10.618-2.774 6.541-3.472 10.509-9.331 10.509-14.384 0-1.395-.294-2.775-.992-4.061m59.42-12.4c-1.782-3.286-5.549-5.068-10.121-5.068-3.364 0-7.038.992-10.618 2.882-6.541 3.472-10.509 9.316-10.509 14.385 0 1.379.294 2.774.992 4.06 1.782 3.271 5.549 4.96 10.121 4.96 3.364 0 7.037-.883 10.618-2.774 6.541-3.472 10.509-9.331 10.509-14.384 0-1.395-.295-2.775-.992-4.061m59.42-24.8c-1.782-3.286-5.549-5.068-10.121-5.068-3.364 0-7.037.992-10.618 2.882-6.541 3.472-10.509 9.316-10.509 14.385 0 1.379.294 2.774.992 4.06 1.782 3.271 5.549 4.96 10.121 4.96 3.364 0 7.037-.883 10.618-2.774 6.541-3.472 10.509-9.331 10.509-14.384 0-1.395-.294-2.775-.992-4.061m118.85 37.2c-1.782-3.286-5.549-5.068-10.121-5.068-3.364 0-7.038.992-10.618 2.882-6.541 3.472-10.509 9.316-10.509 14.385 0 1.379.294 2.774.992 4.06 1.782 3.271 5.549 4.96 10.121 4.96 3.364 0 7.037-.883 10.618-2.774 6.541-3.472 10.509-9.331 10.509-14.384 0-1.395-.295-2.775-.992-4.061m95.07-24.8c-1.782-3.286-5.549-5.068-10.121-5.068-3.364 0-7.037.992-10.618 2.882-6.541 3.472-10.509 9.316-10.509 14.385 0 1.379.294 2.774.992 4.06 1.782 3.271 5.549 4.96 10.121 4.96 3.364 0 7.037-.883 10.618-2.774 6.541-3.472 10.509-9.331 10.509-14.384 0-1.395-.294-2.775-.992-4.061m211.17 24.8c-1.782-3.286-5.549-5.068-10.121-5.068-3.364 0-7.038.992-10.618 2.882-6.541 3.472-10.509 9.316-10.509 14.385 0 1.379.294 2.774.992 4.06 1.782 3.271 5.549 4.96 10.121 4.96 3.364 0 7.037-.883 10.618-2.774 6.541-3.472 10.509-9.331 10.509-14.384 0-1.395-.295-2.775-.992-4.061m59.27-12.4c-1.782-3.286-5.549-5.068-10.121-5.068-3.364 0-7.037.992-10.618 2.882-6.541 3.472-10.509 9.316-10.509 14.385 0 1.379.294 2.774.992 4.06 1.782 3.271 5.549 4.96 10.121 4.96 3.364 0 7.038-.883 10.618-2.774 6.541-3.472 10.509-9.331 10.509-14.384 0-1.395-.294-2.775-.992-4.061m94.84-12.4c-1.782-3.286-5.549-5.068-10.121-5.068-3.364 0-7.037.992-10.618 2.882-6.541 3.472-10.509 9.316-10.509 14.385 0 1.379.294 2.774.992 4.06 1.782 3.271 5.549 4.96 10.121 4.96 3.364 0 7.037-.883 10.618-2.774 6.541-3.472 10.509-9.331 10.509-14.384 0-1.395-.294-2.775-.992-4.061m59.27 12.4c-1.782-3.286-5.549-5.068-10.121-5.068-3.364 0-7.037.992-10.618 2.882-6.541 3.472-10.509 9.316-10.509 14.385 0 1.379.294 2.774.992 4.06 1.782 3.271 5.549 4.96 10.121 4.96 3.364 0 7.037-.883 10.618-2.774 6.541-3.472 10.509-9.331 10.509-14.384 0-1.395-.294-2.775-.992-4.061m59.27-49.6c-1.782-3.286-5.549-5.068-10.121-5.068-3.364 0-7.037.992-10.618 2.882-6.541 3.472-10.509 9.316-10.509 14.385 0 1.379.294 2.774.992 4.06 1.782 3.271 5.549 4.96 10.121 4.96 3.364 0 7.037-.883 10.618-2.774 6.541-3.472 10.509-9.331 10.509-14.384 0-1.395-.294-2.775-.992-4.061m128.25 62c-1.782-3.286-5.549-5.068-10.121-5.068-3.364 0-7.037.992-10.618 2.882-6.541 3.472-10.509 9.316-10.509 14.385 0 1.379.294 2.774.992 4.06 1.782 3.271 5.549 4.96 10.121 4.96 3.364 0 7.037-.883 10.618-2.774 6.541-3.472 10.509-9.331 10.509-14.384 0-1.395-.294-2.775-.992-4.061m67.2 0c-1.782-3.286-5.549-5.068-10.121-5.068-3.364 0-7.038.992-10.618 2.882-6.541 3.472-10.509 9.316-10.509 14.385 0 1.379.294 2.774.992 4.06 1.782 3.271 5.549 4.96 10.121 4.96 3.364 0 7.038-.883 10.618-2.774 6.541-3.472 10.509-9.331 10.509-14.384 0-1.395-.294-2.775-.992-4.061m118.54-12.4c-1.782-3.286-5.549-5.068-10.121-5.068-3.364 0-7.038.992-10.618 2.882-6.541 3.472-10.509 9.316-10.509 14.385 0 1.379.294 2.774.992 4.06 1.782 3.271 5.549 4.96 10.121 4.96 3.364 0 7.038-.883 10.618-2.774 6.541-3.472 10.509-9.331 10.509-14.384 0-1.395-.295-2.775-.992-4.061m59.28-12.4c-1.782-3.286-5.549-5.068-10.121-5.068-3.364 0-7.038.992-10.618 2.882-6.541 3.472-10.509 9.316-10.509 14.385 0 1.379.294 2.774.992 4.06 1.782 3.271 5.549 4.96 10.121 4.96 3.364 0 7.038-.883 10.618-2.774 6.541-3.472 10.509-9.331 10.509-14.384 0-1.395-.294-2.775-.992-4.061m59.27 0c-1.782-3.286-5.549-5.068-10.121-5.068-3.364 0-7.038.992-10.618 2.882-6.541 3.472-10.509 9.316-10.509 14.385 0 1.379.294 2.774.992 4.06 1.782 3.271 5.549 4.96 10.121 4.96 3.364 0 7.038-.883 10.618-2.774 6.541-3.472 10.509-9.331 10.509-14.384 0-1.395-.294-2.775-.992-4.061m59.27 12.4c-1.782-3.286-5.549-5.068-10.121-5.068-3.364 0-7.038.992-10.618 2.882-6.541 3.472-10.509 9.316-10.509 14.385 0 1.379.294 2.774.992 4.06 1.782 3.271 5.549 4.96 10.121 4.96 3.364 0 7.038-.883 10.618-2.774 6.541-3.472 10.509-9.331 10.509-14.384 0-1.395-.294-2.775-.992-4.061m65.8 12.4c-1.782-3.286-5.549-5.068-10.121-5.068-3.364 0-7.038.992-10.618 2.882-6.541 3.472-10.509 9.316-10.509 14.385 0 1.379.294 2.774.992 4.06 1.782 3.271 5.549 4.96 10.121 4.96 3.364 0 7.037-.883 10.618-2.774 6.541-3.472 10.509-9.331 10.509-14.384 0-1.395-.295-2.775-.992-4.061m59.28-12.4c-1.782-3.286-5.549-5.068-10.121-5.068-3.364 0-7.038.992-10.618 2.882-6.541 3.472-10.509 9.316-10.509 14.385 0 1.379.294 2.774.992 4.06 1.782 3.271 5.549 4.96 10.121 4.96 3.364 0 7.038-.883 10.618-2.774 6.541-3.472 10.509-9.331 10.509-14.384 0-1.395-.294-2.775-.992-4.061" style="stroke-width:.992001"/>
  <path class="Clef" d="M399.693 539.992c-7.548 0-13.594 4.356-13.702 4.356-5.75 4.262-8.029 9.33-8.928 12.802-.496 1.783-.682 3.565-.682 5.255 0 2.387.388 4.557 1.287 6.448 1.193 2.682 3.472 4.557 6.448 5.549 1.193.403 2.48.604 3.766.604 2.185 0 4.464-.604 6.355-1.689 3.069-1.69 4.96-5.254 4.96-9.13 0-3.472-1.798-6.649-4.774-8.525-2.077-1.394-4.061-1.782-5.75-1.782-1.194 0-2.279.186-3.178.496-.992.388-2.666 1.38-3.472 2.077.31-1.891 1.488-4.759 2.588-6.355 1.086-1.581 3.271-3.565 4.96-4.464 2.48-1.38 5.658-1.984 9.13-1.984 10.122 0 15.082 8.138 15.082 24.8 0 9.238-3.472 18.058-6.448 23.916-3.286 6.542-7.642 12.804-11.517 16.276-10.323 9.424-20.041 13.888-20.134 13.888 0 0-1.489.883-1.101 2.371.31.992 1.194 1.194 1.798 1.194.093 0 .388-.093.496-.093.093 0 11.408-4.666 20.429-11.718 5.069-3.658 9.626-7.626 13.594-11.904a73.558 73.558 0 0 0 9.13-12.199c4.355-7.44 6.835-15.175 6.835-21.824 0-8.23-2.17-15.082-6.247-19.933-4.665-5.565-11.702-8.432-20.925-8.432m31.14 12.586c0 2.79 2.185 4.96 4.774 4.96 2.573 0 4.758-2.17 4.758-4.96 0-2.775-2.185-5.053-4.758-5.053-2.589 0-4.774 2.278-4.774 5.053m0 24.505c0 2.775 2.185 5.069 4.774 5.069 2.573 0 4.758-2.294 4.758-5.069 0-2.774-2.185-5.053-4.758-5.053-2.589 0-4.774 2.279-4.774 5.053m-47.911-232.33h-7.145c-.698 0-1.287.604-1.287 1.286v90.288c0 .698.589 1.287 1.287 1.287h7.145c.698 0 1.287-.59 1.287-1.287V346.04c0-.682-.59-1.286-1.287-1.286m35.712 50.499h-1.488c-2.278 0-3.968.202-7.827 2.573 0 0-2.186-4.355-5.456-6.634 3.27-2.294 5.456-6.65 5.456-6.65 3.859 2.372 5.549 2.573 7.827 2.573h1.488c12.106 0 18.058-11.206 18.058-21.917 0-13.888-10.215-21.73-22.227-21.73-10.912 0-15.47 5.455-15.47 5.455-1.782 2.186-2.588 4.557-2.588 6.743 0 1.782.496 3.472 1.488 4.96 1.395 1.984 4.17 3.084 6.758 3.084 1.783 0 3.472-.496 4.666-1.488 1.674-1.488 2.774-3.673 2.774-6.06 0-1.38-.403-2.775-1.1-4.061-1.581-2.883-4.557-3.27-6.138-3.27-.605 0-1.101.093-1.101.093 2.279-1.582 5.363-2.48 8.432-2.48 2.775 0 5.456.697 7.347 2.076 3.472 2.589 4.759 8.045 4.759 15.19 0 7.642-.202 18.74-8.928 18.74-8.727 0-10.71-10.416-10.71-10.416s0-1.38-1.396-1.38c-1.38 0-1.488 1.38-1.488 1.38s-.79 5.069-3.472 11.222c-1.58 3.658-3.968 5.348-5.657 6.045v-43.26c0-.683-.496-1.287-1.194-1.287-.682 0-1.286.604-1.286 1.286v90.288c0 .698.604 1.287 1.286 1.287.698 0 1.194-.59 1.194-1.287v-43.26c1.689.697 4.076 2.387 5.657 6.06 2.682 6.138 3.472 11.3 3.472 11.3s.109 1.286 1.488 1.286c1.395 0 1.395-1.286 1.395-1.286s1.984-10.51 10.71-10.51c8.727 0 8.929 11.114 8.929 18.756 0 7.13-1.287 12.586-4.759 15.174-1.891 1.38-4.572 2.077-7.347 2.077-3.069 0-6.153-.883-8.432-2.48 0 0 .496.109 1.1.109 1.582 0 4.558-.403 6.139-3.286.697-1.287 1.1-2.666 1.1-4.061 0-2.387-1.1-4.557-2.774-6.045-1.194-.992-2.883-1.488-4.666-1.488-2.588 0-5.363 1.085-6.758 3.069a8.832 8.832 0 0 0-1.488 4.96c0 2.185.806 4.557 2.589 6.742 0 0 4.557 5.456 15.469 5.456 12.012 0 22.227-7.827 22.227-21.715 0-10.726-5.952-21.933-18.058-21.933m18.709-203.283c-1.225-5.38-3.844-9.177-4.62-10.2-3.161-4.247-7.145-7.068-11.795-8.416-3.084-.868-6.06-.992-8.463-.806a2313.899 2313.899 0 0 1-2.93-17.205c5.41-6.123 9.006-11.873 11.269-16.136 3.441-6.525 4.573-11.067 4.635-11.268 1.705-5.177 2.061-12.819.96-20.956-.991-7.487-3.068-14.151-5.409-17.375-1.007-1.41-2.061-2.14-3.084-2.14-1.21 0-3.705 1.225-6.572 3.984-2.279 2.17-5.518 6.03-8.06 11.997-2.976 7.006-3.193 16.414-2.837 23.08.372 7.222 1.473 12.864 1.488 12.91.016.094.279 1.582.713 4.124-.217.232-.465.45-.713.697-1.023.992-2.201 2.108-3.58 3.488-.853.852-1.798 1.751-2.79 2.712-8.37 8.076-21.065 20.305-21.065 39.308 0 4.666.899 9.053 2.666 13.036 1.566 3.565 3.844 6.82 6.758 9.672 7.673 7.502 18.182 10.68 25.172 10.525 2.93-.078 5.55-.31 7.92-.76 1.814 9.533 2.946 16.508 2.977 21.809.046 6.463-1.597 10.416-5.456 13.16-2.418 1.72-5.208 2.665-8.277 2.805-2.573.124-4.82-.341-6.231-.744h-.016s-.279-.094-.294-.28c-.016-.185.34-.232.34-.232h.031c1.907-.434 5.441-1.658 7.781-4.929 1.783-2.51 2.651-7.099.822-11.005-1.1-2.371-3.58-5.301-9.16-5.75-2.48-.202-4.728.31-6.712 1.503-1.798 1.07-3.286 2.697-4.325 4.681-2.433 4.666-1.984 10.354 1.116 14.167 2.945 3.596 7.518 5.89 12.912 6.464.852.093 1.69.124 2.526.124 4.402 0 8.758-1.194 12.307-3.38 3.627-2.557 5.735-6.51 6.402-12.09.558-4.603.17-10.477-1.209-18.49-.357-2.078-.899-5.085-1.55-8.805 5.704-1.906 9.827-5.456 13.563-11.268 3.27-5.689 4.2-11.75 2.79-18.012m-33.946 26.01c-4.603-1.21-9.005-3.69-12.725-7.177-1.302-1.209-3.162-3.363-4.619-6.727-1.349-3.146-2.015-6.556-1.953-10.106.062-4.666 1.364-9.455 3.844-14.198 2.898-5.534 7.424-11.02 13.438-16.306a89.21 89.21 0 0 0 4.077-3.813c.76 4.231 1.581 8.881 2.449 13.717-3.813 1.256-8.525 4.387-11.61 9.998-3.518 6.51-3.379 11.997-2.65 15.454.93 4.417 3.441 8.153 6.866 10.23.93.558 5.022 2.666 6.851 2.092a1.16 1.16 0 0 0 .775-.666c.512-1.163-.511-1.798-2.046-2.744a27.275 27.275 0 0 1-1.984-1.317c-3.301-2.465-4.743-6.882-3.673-11.238a12.436 12.436 0 0 1 3.673-6.216c1.643-1.534 3.674-2.62 6.03-3.255 2.03 11.16 4.076 22.228 5.704 30.52.124.682.263 1.349.387 2.015-4.34.93-8.649.837-12.834-.263m11.238-32.938c10.261-.465 14.492 6.913 15.376 11.702.465 2.527.465 6.929-1.07 11.114-1.162 3.146-3.596 7.192-8.695 9.238-.062-.418-.14-.852-.217-1.271-1.535-8.711-3.457-19.623-5.394-30.783m-7.27-70.386c1.767-5.688 4.48-8.912 6.464-10.633 1.736-1.503 3.363-2.216 4.278-2.216.14 0 .263.03.356.062.465.14.992.697 1.457 1.565 2.294 4.247 1.55 10.912.217 15.314-1.612 5.363-4.51 10.928-13.237 20.46-.17-1.1-.325-2.139-.48-3.115-1.24-8.215-.915-15.438.945-21.437" style="stroke-width:.992001"/>
  <path class="KeySig" d="M485.091 606.642c-.589-3.86-2.976-7.533-8.029-7.533-4.96 0-7.843 3.069-8.339 3.673l.403-31.852c0-.79-.589-1.38-1.395-1.38h-1.178c-.806 0-1.395.59-1.395 1.38l.496 59.628c0 .791.589 1.38 1.395 1.38.186 0 .589-.093.79-.186.388-.202 6.836-3.379 12.199-9.424 3.767-4.278 5.255-9.13 5.255-13.206 0-.884-.094-1.674-.202-2.48m-6.836 3.875c0 1.488-.402 6.045-2.882 9.827-1.69 2.573-5.053 5.254-6.944 6.742l.294-19.344c.202-.899 1.69-3.766 5.658-3.766 3.58 0 3.874 3.363 3.874 5.456v1.085m6.836-214.676c-.589-3.86-2.976-7.533-8.029-7.533-4.96 0-7.843 3.069-8.339 3.673l.403-31.852c0-.79-.589-1.38-1.395-1.38h-1.178c-.806 0-1.395.59-1.395 1.38l.496 59.628c0 .791.589 1.38 1.395 1.38.186 0 .589-.093.79-.186.388-.202 6.836-3.379 12.199-9.424 3.767-4.278 5.255-9.13 5.255-13.206 0-.884-.094-1.674-.202-2.48m-6.836 3.875c0 1.488-.402 6.045-2.882 9.827-1.69 2.573-5.053 5.254-6.944 6.742l.294-19.344c.202-.899 1.69-3.766 5.658-3.766 3.58 0 3.874 3.363 3.874 5.456v1.085m6.836-234.515c-.589-3.86-2.976-7.533-8.029-7.533-4.96 0-7.843 3.069-8.339 3.673l.403-31.852c0-.79-.589-1.38-1.395-1.38h-1.178c-.806 0-1.395.59-1.395 1.38l.496 59.628c0 .791.589 1.38 1.395 1.38.186 0 .589-.093.79-.186.388-.202 6.836-3.379 12.199-9.424 3.767-4.278 5.255-9.13 5.255-13.206 0-.884-.094-1.674-.202-2.48m-6.836 3.875c0 1.488-.402 6.045-2.882 9.827-1.69 2.573-5.053 5.254-6.944 6.742l.294-19.344c.202-.899 1.69-3.766 5.658-3.766 3.58 0 3.874 3.363 3.874 5.456v1.085" style="stroke-width:.992001"/>
  <path class="TimeSig" d="M512.293 577.539h17.035v7.393h-8.153c-.776 0-1.411.62-1.411 1.396v1.89c0 .776.635 1.396 1.41 1.396h30.009a1.39 1.39 0 0 0 1.395-1.396v-1.89a1.39 1.39 0 0 0-1.395-1.396h-8.866v-7.393h8.866a1.39 1.39 0 0 0 1.395-1.395v-1.891a1.39 1.39 0 0 0-1.395-1.395h-8.866v-15.841c0-.527-.31-1.008-.775-1.24l-1.21-.605a1.446 1.446 0 0 0-1.58.233l-8.975 8.246c-.279.279-.45.635-.45 1.038v8.169h-11.423s11.036-11.935 22.785-27.575c.853-1.147.357-2.185.17-2.371l-2.154-2.186a1.41 1.41 0 0 0-.992-.418c-.589 0-14.043.03-14.756 0-.713-.016-1.24.604-1.318 1.209 0 0-.526 7.3-3.115 15.376-2.573 8.044-5.487 12.989-8.122 16.585 0 0-.542.977-.186 1.72.341.744.977 1.814.977 1.814s.248.527 1.1.527m0 49.34h17.035v7.393h-8.153c-.776 0-1.411.62-1.411 1.396v1.89c0 .776.635 1.396 1.41 1.396h30.009a1.39 1.39 0 0 0 1.395-1.396v-1.89a1.39 1.39 0 0 0-1.395-1.396h-8.866v-7.393h8.866a1.39 1.39 0 0 0 1.395-1.395v-1.891a1.39 1.39 0 0 0-1.395-1.395h-8.866v-15.841c0-.527-.31-1.008-.775-1.24l-1.21-.605a1.446 1.446 0 0 0-1.58.233l-8.975 8.246c-.279.279-.45.635-.45 1.038v8.169h-11.423s11.036-11.935 22.785-27.575c.853-1.147.357-2.185.17-2.371l-2.154-2.186a1.41 1.41 0 0 0-.992-.418c-.589 0-14.043.031-14.756 0-.713-.016-1.24.604-1.318 1.209 0 0-.526 7.3-3.115 15.376-2.573 8.045-5.487 12.989-8.122 16.585 0 0-.542.977-.186 1.72.341.744.977 1.814.977 1.814s.248.527 1.1.527m0-247.739h17.035v7.394h-8.153c-.776 0-1.411.62-1.411 1.395v1.89c0 .776.635 1.396 1.41 1.396h30.009a1.39 1.39 0 0 0 1.395-1.395v-1.891a1.39 1.39 0 0 0-1.395-1.395h-8.866v-7.394h8.866a1.39 1.39 0 0 0 1.395-1.395v-1.891a1.39 1.39 0 0 0-1.395-1.395h-8.866v-15.841c0-.527-.31-1.008-.775-1.24l-1.21-.605a1.446 1.446 0 0 0-1.58.233l-8.975 8.246c-.279.279-.45.636-.45 1.039v8.168h-11.423s11.036-11.935 22.785-27.574c.853-1.148.357-2.186.17-2.372l-2.154-2.186a1.41 1.41 0 0 0-.992-.418c-.589 0-14.043.03-14.756 0-.713-.016-1.24.604-1.318 1.209 0 0-.526 7.3-3.115 15.376-2.573 8.045-5.487 12.989-8.122 16.585 0 0-.542.977-.186 1.72.341.744.977 1.814.977 1.814s.248.527 1.1.527m0 49.337h17.035v7.394h-8.153c-.776 0-1.411.62-1.411 1.395v1.89c0 .776.635 1.396 1.41 1.396h30.009a1.39 1.39 0 0 0 1.395-1.396v-1.89a1.39 1.39 0 0 0-1.395-1.396h-8.866v-7.393h8.866a1.39 1.39 0 0 0 1.395-1.395v-1.891a1.39 1.39 0 0 0-1.395-1.395h-8.866v-15.841c0-.527-.31-1.008-.775-1.24l-1.21-.605a1.446 1.446 0 0 0-1.58.233l-8.975 8.246c-.279.279-.45.636-.45 1.039v8.168h-11.423s11.036-11.935 22.785-27.574c.853-1.148.357-2.186.17-2.372l-2.154-2.186a1.41 1.41 0 0 0-.992-.418c-.589 0-14.043.03-14.756 0-.713-.016-1.24.604-1.318 1.209 0 0-.526 7.3-3.115 15.376-2.573 8.045-5.487 12.989-8.122 16.585 0 0-.542.977-.186 1.72.341.744.977 1.814.977 1.814s.248.527 1.1.527m0-267.577h17.035v7.394h-8.153c-.776 0-1.411.62-1.411 1.395v1.89c0 .776.635 1.396 1.41 1.396h30.009a1.39 1.39 0 0 0 1.395-1.396v-1.89a1.39 1.39 0 0 0-1.395-1.396h-8.866V160.9h8.866a1.39 1.39 0 0 0 1.395-1.395v-1.891a1.39 1.39 0 0 0-1.395-1.395h-8.866v-15.841c0-.527-.31-1.008-.775-1.24l-1.21-.605a1.446 1.446 0 0 0-1.58.233l-8.975 8.246c-.279.279-.45.635-.45 1.038v8.169h-11.423s11.036-11.935 22.785-27.574c.853-1.148.357-2.186.17-2.372l-2.154-2.186a1.41 1.41 0 0 0-.992-.418c-.589 0-14.043.03-14.756 0-.713-.016-1.24.604-1.318 1.209 0 0-.526 7.3-3.115 15.376-2.573 8.044-5.487 12.989-8.122 16.585 0 0-.542.977-.186 1.72.341.744.977 1.814.977 1.814s.248.527 1.1.527m0 49.336h17.035v7.394h-8.153c-.776 0-1.411.62-1.411 1.395v1.89c0 .776.635 1.396 1.41 1.396h30.009a1.39 1.39 0 0 0 1.395-1.396v-1.89a1.39 1.39 0 0 0-1.395-1.396h-8.866v-7.393h8.866a1.39 1.39 0 0 0 1.395-1.395v-1.891a1.39 1.39 0 0 0-1.395-1.395h-8.866v-15.841c0-.527-.31-1.008-.775-1.24l-1.21-.605a1.446 1.446 0 0 0-1.58.233l-8.975 8.246c-.279.279-.45.635-.45 1.038v8.169h-11.423s11.036-11.935 22.785-27.574c.853-1.148.357-2.186.17-2.372l-2.154-2.186a1.41 1.41 0 0 0-.992-.418c-.589 0-14.043.03-14.756 0-.713-.016-1.24.604-1.318 1.209 0 0-.526 7.3-3.115 15.376-2.573 8.044-5.487 12.989-8.122 16.585 0 0-.542.977-.186 1.72.341.744.977 1.814.977 1.814s.248.527 1.1.527" style="stroke-width:.992001"/>
  <path class="Rest" d="M789.866 569.582c-.744-.264-1.41.093-1.72.712-.295.605-3.1 5.999-7.378 9.378-1.334 1.054-2.884 1.736-4.434 2.123a7.077 7.077 0 0 0 1.628-4.758 7.07 7.07 0 0 0-7.316-6.82c-3.906.14-6.975 3.41-6.835 7.316a7.077 7.077 0 0 0 4.696 6.417c1.55.682 3.441 1.038 5.471.976 2.822-.108 5.875-1.038 8.495-3.1 1.224-.96 2.371-2.185 3.394-3.472v.016l-4.464 15.779s0 .016-.015.016v.015c-.466.946-3.69 7.068-7.673 10.215-1.333 1.07-2.883 1.751-4.433 2.123a7.01 7.01 0 0 0 1.628-4.743c-.14-3.921-3.41-6.975-7.317-6.835-3.906.139-6.975 3.41-6.835 7.331.108 2.976 2.046 5.456 4.696 6.417 1.55.667 3.441 1.039 5.472.961a14.522 14.522 0 0 0 8.494-3.084c1.209-.961 2.356-2.17 3.379-3.472l-10.121 36.177 2.65.744 18.522-65.674.868-3.1c.202-.728-.108-1.41-.852-1.658m154.494 0c-.745-.264-1.411.093-1.721.712-.295.605-3.1 5.999-7.378 9.378-1.334 1.054-2.884 1.736-4.434 2.123a7.077 7.077 0 0 0 1.628-4.758 7.07 7.07 0 0 0-7.316-6.82c-3.906.14-6.975 3.41-6.835 7.316A7.077 7.077 0 0 0 923 583.95c1.55.682 3.441 1.038 5.471.976 2.822-.108 5.875-1.038 8.495-3.1 1.224-.96 2.371-2.185 3.394-3.472v.016l-4.464 15.779s0 .016-.015.016v.015c-.466.946-3.69 7.068-7.673 10.215-1.333 1.07-2.883 1.751-4.433 2.123a7.01 7.01 0 0 0 1.628-4.743c-.14-3.921-3.41-6.975-7.317-6.835-3.906.139-6.975 3.41-6.835 7.331.108 2.976 2.046 5.456 4.696 6.417 1.55.667 3.441 1.039 5.472.961a14.522 14.522 0 0 0 8.494-3.084c1.209-.961 2.356-2.17 3.379-3.472l-10.121 36.177 2.65.744 18.522-65.674.868-3.1c.202-.728-.108-1.41-.852-1.658m304.891 0c-.745-.264-1.411.093-1.721.712-.295.605-3.1 5.999-7.378 9.378-1.333 1.054-2.883 1.736-4.433 2.123a7.077 7.077 0 0 0 1.627-4.758 7.07 7.07 0 0 0-7.316-6.82c-3.906.14-6.975 3.41-6.835 7.316a7.077 7.077 0 0 0 4.696 6.417c1.55.682 3.441 1.038 5.471.976 2.822-.108 5.875-1.038 8.495-3.1 1.224-.96 2.371-2.185 3.394-3.472v.016l-4.464 15.779s0 .016-.015.016v.015c-.465.946-3.689 7.068-7.672 10.215-1.333 1.07-2.883 1.751-4.433 2.123a7.01 7.01 0 0 0 1.627-4.743c-.14-3.921-3.41-6.975-7.316-6.835-3.906.139-6.975 3.41-6.835 7.331.108 2.976 2.046 5.456 4.696 6.417 1.55.667 3.441 1.039 5.472.961a14.522 14.522 0 0 0 8.494-3.084c1.209-.961 2.356-2.17 3.379-3.472l-10.122 36.177 2.65.744 18.523-65.674.868-3.1c.202-.728-.108-1.41-.852-1.658m519.77 0c-.745-.264-1.411.093-1.721.712-.295.605-3.1 5.999-7.378 9.378-1.333 1.054-2.883 1.736-4.433 2.123a7.077 7.077 0 0 0 1.627-4.758 7.07 7.07 0 0 0-7.316-6.82c-3.906.14-6.975 3.41-6.835 7.316a7.077 7.077 0 0 0 4.696 6.417c1.55.682 3.441 1.038 5.471.976 2.822-.108 5.875-1.038 8.495-3.1 1.224-.96 2.371-2.185 3.394-3.472v.016l-4.464 15.779s0 .016-.015.016v.015c-.465.946-3.689 7.068-7.672 10.215-1.333 1.07-2.883 1.751-4.433 2.123a7.01 7.01 0 0 0 1.627-4.743c-.14-3.921-3.41-6.975-7.316-6.835-3.906.139-6.975 3.41-6.835 7.331.108 2.976 2.046 5.456 4.696 6.417 1.55.667 3.441 1.039 5.472.961a14.522 14.522 0 0 0 8.494-3.084c1.209-.961 2.356-2.17 3.379-3.472l-10.122 36.177 2.65.744 18.523-65.674.868-3.1c.202-.728-.108-1.41-.852-1.658m177.81 0c-.745-.264-1.411.093-1.721.712-.295.605-3.1 5.999-7.378 9.378-1.333 1.054-2.883 1.736-4.433 2.123a7.077 7.077 0 0 0 1.627-4.758 7.07 7.07 0 0 0-7.316-6.82c-3.906.14-6.975 3.41-6.835 7.316a7.077 7.077 0 0 0 4.696 6.417c1.55.682 3.441 1.038 5.471.976 2.822-.108 5.875-1.038 8.495-3.1 1.224-.96 2.371-2.185 3.394-3.472v.016l-4.464 15.779s0 .016-.015.016v.015c-.465.946-3.689 7.068-7.673 10.215-1.332 1.07-2.882 1.751-4.432 2.123a7.01 7.01 0 0 0 1.627-4.743c-.14-3.921-3.41-6.975-7.316-6.835-3.906.139-6.975 3.41-6.835 7.331.108 2.976 2.046 5.456 4.696 6.417 1.55.667 3.441 1.039 5.472.961a14.522 14.522 0 0 0 8.494-3.084c1.209-.961 2.356-2.17 3.379-3.472l-10.122 36.177 2.65.744 18.523-65.674.868-3.1c.202-.728-.108-1.41-.852-1.658m314 0c-.745-.264-1.411.093-1.721.712-.295.605-3.1 5.999-7.378 9.378-1.334 1.054-2.884 1.736-4.434 2.123a7.077 7.077 0 0 0 1.628-4.758 7.07 7.07 0 0 0-7.316-6.82c-3.906.14-6.975 3.41-6.835 7.316a7.077 7.077 0 0 0 4.696 6.417c1.55.682 3.441 1.038 5.472.976 2.82-.108 5.874-1.038 8.494-3.1 1.224-.96 2.371-2.185 3.394-3.472v.016l-4.464 15.779s0 .016-.015.016v.015c-.465.946-3.689 7.068-7.672 10.215-1.333 1.07-2.883 1.751-4.433 2.123a7.01 7.01 0 0 0 1.627-4.743c-.14-3.921-3.41-6.975-7.316-6.835-3.906.139-6.975 3.41-6.835 7.331.108 2.976 2.046 5.456 4.696 6.417 1.55.667 3.441 1.039 5.472.961a14.522 14.522 0 0 0 8.494-3.084c1.209-.961 2.356-2.17 3.379-3.472l-10.122 36.177 2.65.744 18.523-65.674.868-3.1c.202-.728-.108-1.41-.852-1.658" style="stroke-width:.992001"/>
  <path class="Beam" fill-rule="evenodd" d="m602.17 657.585 62.15 19.46v12.99l-62.15-19.45v-13m0-18.6 32.24 10.09v13l-32.24-10.09v-13m465.118-123.45 62.15-6.48v12.46l-62.15 6.49v-12.47m0 18.6 32.24-3.36v12.46l-32.24 3.37v-12.47m237.68-18.75 166.79-6.3v12.4l-166.79 6.31v-12.41m95.08 15.01 71.71-2.71v12.4l-71.71 2.71v-12.4m211.17-22.97 62 25.94v13.44l-62-25.94v-13.44m0 18.6 32.24 13.49v13.44l-32.24-13.49v-13.44m468.1 8.48 62-25.94v13.44l-62 25.94v-13.44m0 18.6 32.24-13.49v13.44l-32.24 13.49v-13.44m207.58 129.49 187.07-31.46v12.58l-187.07 31.46v-12.58m125.07-39.63 62-10.43v12.58l-62 10.42v-12.57M602.17 459.484h157.223v12.4H602.17v-12.4m0-18.6h32.24v12.4h-32.24v-12.4m157.223 0h-32.24v12.4h32.24v-12.4m56.695 37.195 157.22 6.31v12.406l-157.22-6.31v-12.406m95.07-14.784 62.15 2.494v12.41l-62.15-2.494v-12.41m156.13-152.611h180.99v12.4h-180.99v-12.4m0 18.6h32.24v12.4h-32.24v-12.4m180.99 0h-32.24v12.4h32.24v-12.4m27.19 130.196 166.78-6.303v12.409l-166.78 6.303V459.48m95.07-22.193 71.71-2.71v12.409l-71.71 2.71v-12.409m240.68-120.403h156.83v12.4h-156.83v-12.4m0 18.6h32.24v12.4h-32.24v-12.4m156.83 0h-32.24v12.4h32.24v-12.4m56.54-24.8h190.26v12.4h-190.26v-12.4m118.55 18.6h71.71v12.4h-71.71v-12.4m136.18-37.2h180.54v12.4h-180.54v-12.4m0 18.6h32.24v12.4h-32.24v-12.4m180.54 0h-32.24v12.4h32.24v-12.4m56.54-.423 187.08 25.167v12.512l-187.08-25.167v-12.512m125.08 35.427 62 8.34v12.512l-62-8.341v-12.511M602.17 259.799l157.223-18.928v12.489L602.17 272.289v-12.49m0-18.6 32.24-3.881v12.489l-32.24 3.882v-12.49m157.223-18.928-32.24 3.881v12.49l32.24-3.882v-12.489m56.695 18.928 157.22 18.929v12.489l-157.22-18.928v-12.49m95.07-7.154 62.15 7.483v12.489l-62.15-7.482v-12.49m126.62 25.666 121.57-25.37v12.667l-121.57 25.37v-12.667m0-18.6 62.15-12.97v12.667l-62.15 12.97v-12.667m237.69 6.281 97.8-12.756v12.505l-97.8 12.756v-12.505m306.24 12.407 156.83-18.929v12.49l-156.83 18.929v-12.49m0-18.6 32.24-3.891v12.49l-32.24 3.891v-12.49m156.83-18.929-32.24 3.891v12.49l32.24-3.891v-12.49m56.55 37.571 190.25 6.29v12.407l-190.25-6.29v-12.407m0-18.6 32.24 1.066v12.406l-32.24-1.065v-12.407m190.25 6.29-32.24-1.066v12.407l32.24 1.066v-12.407m64.47 12.253 180.54-25.18v12.52l-180.54 25.18v-12.52m118.54-35.133 62-8.647v12.52l-62 8.647v-12.52m118.55 35.193h187.07v12.4h-187.07v-12.4m0-18.6h187.07v12.4h-187.07v-12.4"/>
  <path class="Hook" d="M849.06 524.957c-.093-.294-.992-3.767-.992-3.968-.093-.403-.697-.698-1.193-.698-.698 0-1.287.605-1.287 1.287v22.429c0 .496.403.883.79 1.085 4.17 1.286 12.803 6.758 19.251 17.763 1.783 3.069 4.666 7.238 4.666 15.577 0 7.146-1.1 14.679-2.883 21.623-.295 1.1-.589 2.092.496 2.48 1.085.403 1.488-.388 1.891-1.38 3.565-8.742 4.464-17.871 4.464-24.01v-1.89c-.496-12.803-7.843-22.227-7.843-22.227.295 0-9.13-12.199-11.811-16.368-3.658-5.658-5.456-11.3-5.549-11.703m178.804 47.864c-.093-5.161-1.286-10.509-4.758-14.973-4.759-6.153-11.02-9.238-14.787-14.694-3.767-5.456-5.348-16.058-5.348-16.058-.108-.698-.31-1.194-1.488-1.194-1.194 0-1.395.496-1.395 1.194v37.991c0 .201.698.79 1.395.992 2.573.992 10.416 5.859 16.368 14.678 3.565 5.456 4.154 9.13 4.154 12.695v1.1c-.093 2.48-.682 7.533-2.17 11.501-.31.9-.806 2.186.186 2.682s1.597-.59 2.093-1.287c1.782-2.883 4.37-8.137 4.37-13.795a52.61 52.61 0 0 0-.495-7.331c.992-3.58 1.875-8.045 1.875-12.71v-.791m-7.037 1.395c-2.682-3.472-5.658-6.65-10.525-11.516-3.859-3.86-5.657-7.239-6.339-9.812-.109-.202-.109-.604-.202-.899l.093.403c4.464.388 10.525 4.852 14.291 9.424 4.464 5.348 5.348 9.517 5.348 13.392 0 .992 0 1.876-.093 2.868-.589-1.085-1.782-2.868-2.573-3.86m807.233-39.959c-.093-.294-.992-3.767-.992-3.968-.093-.403-.698-.698-1.194-.698-.697 0-1.286.605-1.286 1.287v22.429c0 .496.403.883.79 1.085 4.17 1.286 12.804 6.758 19.252 17.763 1.782 3.069 4.665 7.238 4.665 15.577 0 7.146-1.1 14.679-2.883 21.623-.294 1.1-.589 2.092.496 2.48 1.085.403 1.488-.388 1.891-1.38 3.565-8.742 4.464-17.871 4.464-24.01v-1.89c-.496-12.803-7.843-22.227-7.843-22.227.294 0-9.13-12.199-11.811-16.368-3.658-5.658-5.456-11.3-5.549-11.703m211.834 50.964c-.093-5.161-1.286-10.509-4.758-14.973-4.759-6.154-11.02-9.238-14.787-14.694-3.767-5.456-5.348-16.058-5.348-16.058-.108-.698-.31-1.194-1.488-1.194-1.194 0-1.395.496-1.395 1.194v37.991c0 .201.698.79 1.395.992 2.573.992 10.416 5.859 16.368 14.678 3.565 5.456 4.154 9.13 4.154 12.695v1.1c-.093 2.48-.682 7.533-2.17 11.501-.31.9-.806 2.186.186 2.682s1.596-.59 2.092-1.287c1.783-2.883 4.372-8.137 4.372-13.795a52.61 52.61 0 0 0-.496-7.331c.992-3.58 1.875-8.045 1.875-12.71v-.791m-7.037 1.395c-2.682-3.472-5.658-6.65-10.525-11.516-3.859-3.86-5.657-7.239-6.339-9.812-.109-.202-.109-.604-.202-.899l.093.403c4.464.388 10.525 4.852 14.291 9.424 4.464 5.348 5.348 9.517 5.348 13.392 0 .992 0 1.876-.093 2.868-.589-1.085-1.782-2.868-2.573-3.86" style="stroke-width:.992001"/>
  <path class="Tempo" d="M535.213 16h-3.297v44.969c-1.141-.672-2.516-1.094-4.094-1.266-.437-.047-.89-.062-1.344-.062-2.718 0-5.656.781-8.39 2.265-3.188 1.719-5.75 4.188-7.172 6.922-1.453 2.766-1.594 5.469-.422 7.641 1.375 2.578 4.391 3.906 7.938 3.906 2.64 0 5.593-.734 8.406-2.25 5.14-2.781 8.359-7.375 8.375-11.375V16m22.25 52.328h30.234v-6.906h-30.234v6.906m0-12.359h30.234v-6.906h-30.234v6.906m72.781-24.609h-2.109c-3.782 2.828-8.032 4.031-15.172 4.14v3.36h2.515c5.344 0 5.407.125 5.344 5.046v21.297c0 3.719 0 3.907-.422 4.5-.547.657-1.734.907-4.984.907h-1.922v3.234h23.938V70.61h-1.907c-3.187 0-4.328-.25-4.859-.907-.422-.593-.422-.843-.422-4.5V31.36m29.391 0c-9 0-15.594 9.187-15.594 21.671 0 12.469 6.594 21.657 15.594 21.657 8.828 0 15.547-9.188 15.547-21.36 0-7.078-1.625-12.297-5.172-16.75-2.813-3.406-6.36-5.218-10.375-5.218m-.063 3.125c1.797 0 3.25 1.078 3.906 3 .782 1.984 1.25 8.281 1.25 15.718 0 6.188-.468 12.657-1.015 14.703-.656 2.391-2.094 3.657-4.141 3.657-1.859 0-3.234-1.016-3.953-3-.781-1.985-1.266-8.344-1.266-15.532 0-6.312.485-12.843 1.016-14.89.672-2.391 2.109-3.656 4.203-3.656m41.469 14.703c1.734-.657 2.578-1.078 3.406-1.688 2.344-1.609 3.672-4.078 3.672-6.89 0-5.532-5.219-9.25-13.031-9.25-9.297 0-15.297 4.984-15.297 12.781 0 4.75 2.219 8.219 6.969 10.75-1.86.594-2.641.828-3.672 1.375-3 1.562-4.61 4.312-4.61 7.797 0 6.484 5.813 10.625 14.938 10.625 9.656 0 16.203-5.532 16.203-13.75 0-5.641-2.766-9.36-8.578-11.75m-3.375-1.266c-2.516-.594-4.375-1.141-5.516-1.562-2.75-1.016-4.562-3.469-4.562-6.11 0-3.312 2.765-5.765 6.484-5.765 4.016 0 6.547 2.64 6.547 6.843 0 2.703-1.031 4.985-2.953 6.594m-7.672 8.578c2.453.672 5.453 1.563 6.953 2.047 3.781 1.313 5.219 2.938 5.219 6 0 4.078-3.359 7.016-8.094 7.016-4.859 0-7.797-2.875-7.797-7.672 0-3.188 1.016-5.219 3.719-7.391"/>
  <path class="Bracket" fill="none" stroke="#000" stroke-width="10.91" stroke-linejoin="bevel" d="M336.794 323.828v333.317"/>
  <path class="Bracket" d="M379.357 301.803c-.201-.094-.496-.202-.697-.202-.403 0-.853.155-1.085.496-.202.294-10.122 15.578-29.078 15.578h-15.764c-.806 0-1.395.496-1.395 1.286v10.323h12.105c30.551 0 36.41-25.482 36.503-25.792.031-.093.109-.295.109-.496 0-.496-.31-.9-.698-1.193m0 377.364c.388-.295.698-.698.698-1.194 0-.201-.078-.403-.109-.496-.093-.31-5.952-25.792-36.503-25.792h-12.105v10.323c0 .79.589 1.286 1.395 1.286h15.764c18.956 0 28.876 15.284 29.078 15.578.232.341.682.496 1.085.496.201 0 .496-.108.697-.202" style="stroke-width:.992001"/>
  <text xml:space="preserve" style="font-size:64px;line-height:1.25;font-family:FreeSerif,serif;-inkscape-font-specification:FreeSerif,serif" x="843.615" y="1341.952" transform="translate(-101.42 -546.144)"><tspan x="843.615" y="1341.952" style="fill:#ff2a2a;fill-opacity:1">I</tspan></text>
  <text xml:space="preserve" style="font-size:37.3333px;line-height:1.25;font-family:FreeSerif,serif;-inkscape-font-specification:FreeSerif,serif" x="871.871" y="1308.137" transform="translate(-101.42 -546.144)"><tspan x="871.871" y="1308.137" style="font-size:37.3333px;fill:#ff2a2a;fill-opacity:1">6</tspan></text>
  <text xml:space="preserve" style="font-size:37.3333px;line-height:1.25;font-family:FreeSerif,serif;-inkscape-font-specification:FreeSerif,serif" x="872.091" y="1356.411" transform="translate(-101.42 -546.144)"><tspan x="872.091" y="1356.411" style="font-size:37.3333px;fill:#ff2a2a;fill-opacity:1">4</tspan></text>
  <text xml:space="preserve" style="font-size:64px;line-height:1.25;font-family:FreeSerif,serif;-inkscape-font-specification:FreeSerif,serif" x="1053.368" y="794.047"><tspan x="1053.368" y="794.047" style="fill:#bc5fd3;fill-opacity:1">IV9</tspan></text>
  <text xml:space="preserve" style="font-size:64px;line-height:1.25;font-family:FreeSerif,serif;-inkscape-font-specification:FreeSerif,serif;stroke-width:0;stroke-miterlimit:4;stroke-dasharray:none" x="1447.049" y="1306.692" transform="translate(-136.692 -510.755)"><tspan x="1447.049" y="1306.692" style="fill:#ff7f2a;fill-opacity:1;stroke-width:0;stroke-miterlimit:4;stroke-dasharray:none">VI7</tspan></text>
  <text xml:space="preserve" style="font-size:37.3333px;line-height:1.25;font-family:FreeSerif,serif;-inkscape-font-specification:FreeSerif,serif;stroke-width:0;stroke-miterlimit:4;stroke-dasharray:none" x="1612.855" y="1272.112" transform="translate(-136.692 -510.755)"><tspan x="1612.855" y="1272.112" style="font-size:37.3333px;fill:#ff7f2a;fill-opacity:1;stroke-width:0;stroke-miterlimit:4;stroke-dasharray:none">4</tspan></text>
  <text xml:space="preserve" style="font-size:37.3333px;line-height:1.25;font-family:FreeSerif,serif;-inkscape-font-specification:FreeSerif,serif;stroke-width:0;stroke-miterlimit:4;stroke-dasharray:none" x="1613.071" y="1320.906" transform="translate(-136.692 -510.755)"><tspan x="1613.071" y="1320.906" style="font-size:37.3333px;fill:#ff7f2a;fill-opacity:1;stroke-width:0;stroke-miterlimit:4;stroke-dasharray:none">3</tspan></text>
  <text xml:space="preserve" style="font-size:64px;line-height:1.25;font-family:FreeSerif,serif;-inkscape-font-specification:FreeSerif,serif;stroke:#000;stroke-width:1.2;stroke-miterlimit:4;stroke-dasharray:none;stroke-opacity:1" x="1845.629" y="1305.46" transform="translate(-165.977 -512.535)"><tspan x="1845.629" y="1305.46" style="fill:#ffd42a;fill-opacity:1;stroke:#000;stroke-width:1.2;stroke-miterlimit:4;stroke-dasharray:none;stroke-opacity:1">ii</tspan></text>
  <text xml:space="preserve" style="font-size:37.3333px;line-height:1.25;font-family:FreeSerif,serif;-inkscape-font-specification:FreeSerif,serif;stroke:#000;stroke-width:1.2;stroke-miterlimit:4;stroke-dasharray:none;stroke-opacity:1" x="1886.564" y="1272.541" transform="translate(-165.977 -512.535)"><tspan x="1886.564" y="1272.541" style="font-size:37.3333px;fill:#ffd42a;fill-opacity:1;stroke:#000;stroke-width:1.2;stroke-miterlimit:4;stroke-dasharray:none;stroke-opacity:1">6</tspan></text>
  <text xml:space="preserve" style="font-size:64px;line-height:1.25;font-family:FreeSerif,serif;-inkscape-font-specification:FreeSerif,serif" x="1954.365" y="967.812"><tspan x="1954.365" y="967.812" style="fill:#37c871;fill-opacity:1">(III911)</tspan></text>
  <text xml:space="preserve" style="font-size:64px;line-height:1.25;font-family:FreeSerif,serif;-inkscape-font-specification:FreeSerif,serif" x="2402.32" y="795.561"><tspan x="2402.32" y="795.561" style="fill:#f5d;fill-opacity:1">V</tspan></text>
  <text xml:space="preserve" style="font-size:37.3333px;line-height:1.25;font-family:FreeSerif,serif;-inkscape-font-specification:FreeSerif,serif" x="2270.471" y="1207.301" transform="translate(-118.692 -446.755)"><tspan x="2270.471" y="1207.301" style="font-size:37.3333px;fill:#37c871;fill-opacity:1">4</tspan></text>
  <text xml:space="preserve" style="font-size:37.3333px;line-height:1.25;font-family:FreeSerif,serif;-inkscape-font-specification:FreeSerif,serif" x="2270.471" y="1258.899" transform="translate(-118.692 -446.755)"><tspan x="2270.471" y="1258.899" style="font-size:37.3333px;fill:#37c871;fill-opacity:1">2</tspan></text>
  <text xml:space="preserve" style="font-size:64px;line-height:1.25;font-family:FreeSerif,serif;-inkscape-font-specification:FreeSerif,serif" x="2016.488" y="766.194" transform="translate(2 28)"><tspan x="2016.488" y="766.194" style="fill:#37c871;fill-opacity:1">IV13</tspan></text>
  <text xml:space="preserve" style="font-size:64px;line-height:1.25;font-family:FreeSerif,serif;-inkscape-font-specification:FreeSerif,serif" x="1987.242" y="883.987"><tspan x="1987.242" y="883.987" style="fill:#37c871;fill-opacity:1">It+6III</tspan></text>
  <text xml:space="preserve" style="font-size:37.3333px;line-height:1.25;font-family:FreeSerif,serif;-inkscape-font-specification:FreeSerif,serif" x="2189.901" y="849.064"><tspan x="2189.901" y="849.064" style="font-size:37.3333px;fill:#37c871;fill-opacity:1">4</tspan></text>
  <text xml:space="preserve" style="font-size:37.3333px;line-height:1.25;font-family:FreeSerif,serif;-inkscape-font-specification:FreeSerif,serif" x="2189.901" y="900.662"><tspan x="2189.901" y="900.662" style="font-size:37.3333px;fill:#37c871;fill-opacity:1">2</tspan></text>
  <text xml:space="preserve" style="font-size:74.6667px;line-height:1.25;font-family:FreeSerif,serif;-inkscape-font-specification:FreeSerif,serif" x="1964.362" y="881.462"><tspan x="1964.362" y="881.462" style="fill:#37c871;fill-opacity:1">(</tspan></text>
  <text xml:space="preserve" style="font-size:74.6667px;line-height:1.25;font-family:FreeSerif,serif;-inkscape-font-specification:FreeSerif,serif" x="2211.172" y="881.686"><tspan x="2211.172" y="881.686" style="fill:#37c871;fill-opacity:1">)</tspan></text>
</svg>
