<svg width="2583.088" height="820.532" version="1.2" xmlns="http://www.w3.org/2000/svg">
  <path style="fill:#abc837;fill-opacity:1;stroke:#000;stroke-width:0;stroke-linecap:round;stroke-linejoin:round;paint-order:stroke markers fill" d="M2280.073 255.938h262.973v458.483h-262.973z"/>
  <path style="fill:#37c871;fill-opacity:1;stroke:#000;stroke-width:0;stroke-linecap:round;stroke-linejoin:round;paint-order:stroke markers fill" d="M2016.919 255.938h270.273v458.483h-270.273z"/>
  <path style="fill:#2a7fff;fill-opacity:1;stroke:#000;stroke-width:0;stroke-linecap:round;stroke-linejoin:round;paint-order:stroke markers fill" d="M1615.121 255.938h409.349v458.483h-409.349z"/>
  <path style="fill:#ffd42a;fill-opacity:1;stroke:#000;stroke-width:0;stroke-linecap:round;stroke-linejoin:round;paint-order:stroke markers fill" d="M1390.87 255.938h233.151v458.483H1390.87z"/>
  <path style="fill:#37c871;fill-opacity:1;stroke:#000;stroke-width:0;stroke-linecap:round;stroke-linejoin:round;paint-order:stroke markers fill" d="M1226.358 255.938h175.19v458.483h-175.19z"/>
  <path style="fill:#ff80e5;fill-opacity:1;stroke:#000;stroke-width:0;stroke-linecap:round;stroke-linejoin:round;paint-order:stroke markers fill" d="M1057.199 255.938h174.499v458.483h-174.499z"/>
  <path style="fill:#ff2a2a;fill-opacity:1;stroke:#000;stroke-width:0;stroke-linecap:round;stroke-linejoin:round;paint-order:stroke markers fill" d="M701.763 255.938h362.555v458.483H701.763z"/>
  <path class="StaffLines" fill="none" stroke="#000" stroke-width="2.73" stroke-linejoin="bevel" d="M350.186 96.343h2216.902m-2216.902 24.8h2216.902m-2216.902 24.8h2216.902m-2216.902 24.8h2216.902m-2216.902 24.8h2216.902M350.186 314.583h2216.902m-2216.902 24.8h2216.902m-2216.902 24.8h2216.902m-2216.902 24.8h2216.902m-2216.902 24.8h2216.902M350.186 540.078h2216.902m-2216.902 24.8h2216.902m-2216.902 24.8h2216.902m-2216.902 24.8h2216.902m-2216.902 24.8h2216.902"/>
  <path class="InstrumentName" d="M79.86 571.225h-1.907l-2 2.953c-3.64-2.656-5.5-3.36-8.953-3.36-4.75 0-8.797 2-12.14 6-3.204 3.813-4.704 8.016-4.704 13.157 0 10.797 7.047 18.453 16.907 18.453 8 0 13.093-4.703 14.25-13.094l-2.36-.406c-1.343 7.453-5.14 11.156-11.297 11.156-7.406 0-10.906-5.11-10.906-15.906 0-5.703.75-9.453 2.453-12.453 1.547-2.797 4.61-4.547 7.86-4.547 3.5 0 6.593 1.844 8.5 5.047.953 1.656 1.64 3.5 2.843 7.453h2.204l-.75-14.453m16.531 12.406c-6.141 0-10.891 5.453-10.891 12.453 0 6.844 4.797 12.344 10.797 12.344 6 0 10.797-5.5 10.797-12.406 0-6.844-4.797-12.391-10.703-12.391m0 2.14c3.5 0 5.453 3.657 5.453 10.25 0 6.657-1.953 10.25-5.547 10.25-3.594 0-5.547-3.593-5.547-10.187 0-6.812 1.891-10.312 5.641-10.312m22.39-1.391-8.656.547v2.156h1.813c1.89.047 2.14.344 2.14 2.5v14.297c-.047.75-.093 1.047-.297 1.297-.343.453-1.296.656-3.453.703h-.203v1.797h12.656v-1.797h-.203c-3.343-.11-3.797-.36-3.797-2.156v-7.391c0-2.453.344-4.703.907-5.86 1.047-2.25 3.297-3.796 5.437-3.796 1.313 0 2.813.703 3.563 1.75.75 1.094 1.093 2.594 1.093 5v10.453c-.046.75-.093 1.047-.296 1.297-.36.453-1.36.656-3.5.703h-.204v1.797h12.657v-1.797h-.203c-3.297-.11-3.75-.36-3.75-2.156v-10.047c0-3.594-.157-4.5-1.047-6.203-1.25-2.391-3.75-3.844-6.75-3.844-3.25 0-5.703 1.5-7.907 4.797v-4.047m30.25 0v-9.906h-2.046c-.5 6.5-2.704 9.797-6.75 10.109v1.938h4.093v12.75c0 3.5.094 4.75.594 5.906.813 2.094 2.813 3.25 5.703 3.25 4.5 0 7.406-3.406 7.406-8.703 0-.297 0-.641-.046-1.141h-2.11c-.14 4.5-1.453 6.797-3.89 6.797-1.157 0-2.157-.61-2.5-1.453-.313-.703-.454-1.953-.454-3.75v-13.656h7.344v-2.141h-7.344m19.641 0-8.859.547v2.156h2.047c1.906.047 2.156.344 2.156 2.5v14.297c-.047.75-.094 1.047-.297 1.297-.359.453-1.359.656-3.5.703h-.203v1.797h13.344v-1.797h-.891c-3.359-.11-3.797-.36-3.797-2.156v-2.703c.047-8.391 3.047-14.797 6.938-15-.688.812-.891 1.312-.891 2.25 0 1.609 1.141 2.75 2.75 2.75 1.844 0 3.047-1.344 3.047-3.344 0-2.453-1.703-4.047-4.344-4.047-3.156 0-5.859 2.5-7.5 6.953v-6.203m34.469 7.203c0-3.156-.547-4.75-2-5.953-1.641-1.36-4.094-2-7.297-2-5.641 0-9.75 2.64-9.75 6.297 0 1.844 1.156 3.047 2.906 3.047 1.594 0 2.703-1.047 2.703-2.547 0-.656-.25-1.344-.75-2.047-.312-.36-.359-.453-.359-.703 0-1 2-1.906 4.406-1.906 1.594 0 3.344.5 4.141 1.25.953.812 1.312 2 1.312 4.25v1.953c-5.203.906-6.859 1.297-9.312 2.25-4.344 1.609-6.391 3.906-6.391 7.109 0 3.594 2.797 5.844 7.25 5.844 3.453 0 6.547-1.406 8.703-3.953.797 2.547 2.047 3.547 4.391 3.547 2.25 0 4.609-1.438 4.609-2.891 0-.36-.203-.61-.5-.61-.203 0-.406.063-.75.204-.703.297-1 .359-1.406.359-1.406 0-1.906-.906-1.906-3.453v-10.047m-4.688 6.094c0 3-.156 3.703-1 5-1.25 1.844-3.5 3.094-5.703 3.094-2.297 0-3.953-1.641-3.953-3.891 0-2.11 1.047-3.61 3.25-4.656 1.547-.703 3.5-1.203 7.406-1.844v2.297m18.891-26.86-8.594.563v2.14h1.75c1.891.048 2.141.36 2.141 2.5v19.454c0 6.953-.297 10.75-.891 12.906h1.891l2.453-3.906c2.047 2.703 4.406 3.953 7.5 3.953 6.203 0 10.75-5.297 10.75-12.547 0-7.203-4.203-12.25-10.203-12.25-3.047 0-4.891 1.047-6.797 3.89V570.82m5.906 15.359c3.75 0 5.844 3.656 5.844 10.203 0 6.344-2.047 9.89-5.703 9.89-3.953 0-6.297-3.64-6.297-9.796 0-6.703 2.156-10.297 6.156-10.297m35.485 5.406c0-3.156-.547-4.75-2-5.953-1.641-1.36-4.094-2-7.297-2-5.641 0-9.75 2.64-9.75 6.297 0 1.844 1.156 3.047 2.906 3.047 1.594 0 2.703-1.047 2.703-2.547 0-.656-.25-1.344-.75-2.047-.312-.36-.359-.453-.359-.703 0-1 2-1.906 4.406-1.906 1.594 0 3.344.5 4.141 1.25.953.812 1.312 2 1.312 4.25v1.953c-5.203.906-6.859 1.297-9.312 2.25-4.344 1.609-6.391 3.906-6.391 7.109 0 3.594 2.797 5.844 7.25 5.844 3.453 0 6.547-1.406 8.703-3.953.797 2.547 2.047 3.547 4.391 3.547 2.25 0 4.609-1.438 4.609-2.891 0-.36-.203-.61-.5-.61-.203 0-.406.063-.75.204-.703.297-1 .359-1.406.359-1.406 0-1.906-.906-1.906-3.453v-10.047m-4.688 6.094c0 3-.156 3.703-1 5-1.25 1.844-3.5 3.094-5.703 3.094-2.297 0-3.953-1.641-3.953-3.891 0-2.11 1.047-3.61 3.25-4.656 1.547-.703 3.5-1.203 7.406-1.844v2.297m29.438-13.844h-1.75l-1.454 1.797c-1.796-1.406-3.593-2-6.093-2-4.407 0-7.297 2.844-7.297 7.25 0 1.953.64 3.594 1.75 4.594 1.14 1.047 2.297 1.547 5.297 2.25l2.64.609c3.953.938 5.36 1.938 5.36 3.938 0 2.359-2.047 4-4.953 4-4.25 0-7.25-2.688-8.454-7.688h-2v9.438h1.75l1.75-2.047c2.047 1.656 4.297 2.453 6.86 2.453 4.89 0 8.14-3.047 8.14-7.703 0-2.203-.703-3.891-2.093-5.047-1.203-1.047-2.203-1.453-5.25-2.094l-2.5-.562c-2.75-.594-2.75-.594-3.657-1.094-1.093-.5-1.75-1.547-1.75-2.656 0-2.047 1.907-3.438 4.657-3.438 1.89 0 3.453.64 4.843 2 1.11 1.094 1.657 2.094 2.454 4.39h1.75v-8.39m22.937 0h-1.75l-1.453 1.797c-1.797-1.406-3.594-2-6.094-2-4.406 0-7.297 2.844-7.297 7.25 0 1.953.641 3.594 1.75 4.594 1.141 1.047 2.297 1.547 5.297 2.25l2.641.609c3.953.938 5.359 1.938 5.359 3.938 0 2.359-2.047 4-4.953 4-4.25 0-7.25-2.688-8.453-7.688h-2v9.438h1.75l1.75-2.047c2.047 1.656 4.297 2.453 6.859 2.453 4.891 0 8.141-3.047 8.141-7.703 0-2.203-.703-3.891-2.094-5.047-1.203-1.047-2.203-1.453-5.25-2.094l-2.5-.562c-2.75-.594-2.75-.594-3.656-1.094-1.094-.5-1.75-1.547-1.75-2.656 0-2.047 1.906-3.438 4.656-3.438 1.891 0 3.453.64 4.844 2 1.109 1.094 1.656 2.094 2.453 4.39h1.75v-8.39m-97.859-209.902-9.157-23.203c-.25-.656-.406-1.297-.406-1.547 0-.906.86-1.25 3.11-1.25h2v-2.36H188.5v2.36h1c2.313.047 3.063.594 3.86 2.797L206 382.433h2l11.516-29.61c1.5-3.89 2.547-4.796 5.437-4.89h.5v-2.36h-13.547v2.36h.954c2.546 0 4.046 1 4.046 2.594 0 .703-.25 1.797-.593 2.797l-7.75 20.609m26.39-15.547-9.39.547v2.156h2.547c1.89.047 2.14.344 2.14 2.5v14.297c-.047.75-.094 1.047-.297 1.297-.343.453-1.297.656-3.453.703h-.344v1.797h12.954v-1.797h-.36c-3.344-.11-3.797-.36-3.797-2.156v-19.344m-2.343-12.453a2.898 2.898 0 0 0-2.907 2.89c0 1.61 1.297 2.907 2.86 2.907 1.64 0 2.937-1.297 2.937-2.906a2.894 2.894 0 0 0-2.89-2.891m20.375 11.703c-6.141 0-10.891 5.453-10.891 12.453 0 6.844 4.797 12.344 10.797 12.344 6 0 10.797-5.5 10.797-12.406 0-6.844-4.797-12.391-10.703-12.391m0 2.14c3.5 0 5.453 3.657 5.453 10.25 0 6.657-1.953 10.25-5.547 10.25-3.594 0-5.547-3.593-5.547-10.187 0-6.812 1.891-10.312 5.641-10.312m22.593-14.953-9.25.562v2.14h2.453c1.844.048 2.094.36 2.094 2.5v27.86c-.047.75-.094 1.047-.297 1.297-.359.453-1.297.656-3.453.703h-.344v1.797h12.938v-1.797h-.344c-3.344-.11-3.797-.36-3.797-2.156v-32.906m28.125 20.765c0-3.156-.547-4.75-2-5.953-1.64-1.36-4.093-2-7.297-2-5.64 0-9.75 2.64-9.75 6.297 0 1.844 1.157 3.047 2.907 3.047 1.593 0 2.703-1.047 2.703-2.547 0-.656-.25-1.344-.75-2.047-.313-.36-.36-.453-.36-.703 0-1 2-1.906 4.407-1.906 1.593 0 3.343.5 4.14 1.25.953.812 1.313 2 1.313 4.25v1.953c-5.203.906-6.86 1.297-9.313 2.25-4.343 1.609-6.39 3.906-6.39 7.109 0 3.594 2.797 5.844 7.25 5.844 3.453 0 6.547-1.406 8.703-3.953.797 2.547 2.047 3.547 4.39 3.547 2.25 0 4.61-1.438 4.61-2.891 0-.36-.203-.61-.5-.61-.203 0-.406.063-.75.204-.703.297-1 .359-1.406.359-1.407 0-1.907-.906-1.907-3.453v-10.047m-4.687 6.094c0 3-.156 3.703-1 5-1.25 1.844-3.5 3.094-5.703 3.094-2.297 0-3.953-1.641-3.953-3.891 0-2.11 1.046-3.61 3.25-4.656 1.546-.703 3.5-1.203 7.406-1.844v2.297M46.406 122.99h-1.89l-1.953 3c-3.25-2.547-5.453-3.407-9.11-3.407-3.953 0-7.047 1.11-10.203 3.657-4.937 4-7.25 9.046-7.25 15.796 0 5.11 1.453 9.36 4.406 12.61 3.094 3.5 7.704 5.547 12.5 5.547 4.204 0 7.157-1.297 10.407-4.547l1.843 4.5h2.11v-11c0-2.547 0-2.656.297-3.11.453-.546 1.343-.687 4.203-.687h.75v-2.36H36.61v2.36h.953c4.203 0 4.547.25 4.547 3.047 0 2.14-.344 4.094-1 5.297-1.25 2.453-4.454 4.156-7.704 4.156s-6.453-1.656-8.156-4.156c-1.844-2.797-2.64-6.297-2.64-11.657 0-11.14 3.703-17.093 10.64-17.093 5.703 0 9.656 4.093 11.703 12.093h2.157l-.704-14.046M63 122.583l-9.25.563v2.14h2.453c1.844.047 2.094.36 2.094 2.5v27.86c-.047.75-.094 1.047-.297 1.297-.359.453-1.297.656-3.453.703h-.344v1.797h12.938v-1.797h-.344c-3.344-.11-3.797-.36-3.797-2.156v-32.907m18.125 12.813c-6.14 0-10.89 5.453-10.89 12.453 0 6.844 4.796 12.344 10.796 12.344 6 0 10.797-5.5 10.797-12.407 0-6.843-4.797-12.39-10.703-12.39m0 2.14c3.5 0 5.453 3.657 5.453 10.25 0 6.657-1.953 10.25-5.547 10.25-3.593 0-5.546-3.593-5.546-10.187 0-6.813 1.89-10.313 5.64-10.313m31.735 14.563c-1.594 3.594-3.297 5.047-5.891 5.047-4 0-6.5-3.656-6.5-9.5 0-6.11 2.453-10.11 6.141-10.11 1.5 0 2.812.704 2.812 1.5 0 .157-.062.313-.312.61-.797.953-1 1.453-1 2.297 0 1.656 1.25 2.797 3 2.797 1.812 0 3.062-1.391 3.062-3.391 0-3.406-3.359-5.953-7.812-5.953-6.5 0-11.141 5.297-11.141 12.797 0 7.093 4.25 12 10.453 12 4.438 0 7-2.047 9.141-7.344l-1.953-.75m12.203-4.75v-24.766l-9.25.563v2.14h2.39c1.907.047 2.157.36 2.157 2.5v27.907c-.047.703-.094 1-.297 1.25-.36.453-1.297.656-3.453.703h-.204v1.797h12.657v-1.797h-.203c-3.344-.11-3.797-.36-3.797-2.156v-5.047l3.047-2.907 5.953 8.36c.25.39.343.64.343.844 0 .703-.546.906-2.203.906h-.937v1.797h13.203v-1.797c-2.813-.25-3.813-.86-5.859-3.453l-7.094-9.703 2.25-2.204c2.937-2.843 5.047-3.937 8.453-4.343v-1.797h-13.156v1.797h1.547c1.593 0 2.343.297 2.343.953 0 .547-.343 1.14-1.14 1.953l-6.75 6.5m42.031.844c.047-7.5-4.203-12.797-10.297-12.797-6.406 0-11.203 5.547-11.203 13.047 0 7.047 4.547 11.75 11.297 11.75 4.797 0 8.156-2.344 10.203-7.094l-1.75-.953c-2.047 3.844-4.156 5.344-7.5 5.344-2.547 0-4.406-1.047-5.703-3.297-.891-1.5-1.297-3.25-1.25-6h16.203m-16.156-2.157c0-1.546.203-2.64.703-4.046 1.047-3 2.656-4.454 5.109-4.454 3 0 5 2.657 5 6.704 0 1.406-.453 1.796-2.062 1.796h-8.75m27.89-9.89-8.656.547v2.156h1.813c1.89.047 2.14.344 2.14 2.5v14.297c-.047.75-.094 1.047-.297 1.297-.343.453-1.297.656-3.453.703h-.203v1.797h12.656v-1.797h-.203c-3.344-.11-3.797-.36-3.797-2.156v-7.391c0-2.453.344-4.703.907-5.86 1.046-2.25 3.296-3.796 5.437-3.796 1.313 0 2.813.703 3.563 1.75.75 1.093 1.093 2.593 1.093 5v10.453c-.047.75-.093 1.047-.297 1.297-.359.453-1.359.656-3.5.703h-.203v1.797h12.657v-1.797h-.204c-3.296-.11-3.75-.36-3.75-2.156v-10.047c0-3.594-.156-4.5-1.046-6.203-1.25-2.391-3.75-3.844-6.75-3.844-3.25 0-5.704 1.5-7.907 4.797v-4.047m40.047-.547h-1.75l-1.453 1.797c-1.797-1.406-3.594-2-6.094-2-4.406 0-7.297 2.844-7.297 7.25 0 1.953.641 3.594 1.75 4.594 1.141 1.046 2.297 1.546 5.297 2.25l2.641.609c3.953.937 5.359 1.937 5.359 3.937 0 2.36-2.047 4-4.953 4-4.25 0-7.25-2.687-8.453-7.687h-2v9.437h1.75l1.75-2.046c2.047 1.656 4.297 2.453 6.859 2.453 4.891 0 8.141-3.047 8.141-7.703 0-2.204-.703-3.891-2.094-5.047-1.203-1.047-2.203-1.453-5.25-2.094l-2.5-.563c-2.75-.593-2.75-.593-3.656-1.093-1.094-.5-1.75-1.547-1.75-2.657 0-2.046 1.906-3.437 4.656-3.437 1.891 0 3.453.64 4.844 2 1.109 1.094 1.656 2.094 2.453 4.39h1.75v-8.39m12.844.547-8.641.547v2.156h1.797c1.891.047 2.141.344 2.141 2.5v24.437c-.047.704-.094 1-.297 1.25-.344.454-1.297.657-3.453.704h-.188v1.796h13v-1.796h-.562c-3.344-.094-3.797-.344-3.797-2.141v-9.453c1.656 2.89 3.5 4.047 6.609 4.047 3.047 0 5.547-1.297 7.344-3.75 1.75-2.407 2.75-5.5 2.75-8.75s-1-6.297-2.844-8.703c-1.859-2.391-4.156-3.594-6.953-3.594-3.109 0-5.156 1.297-6.906 4.297v-3.547m6 1.953c3.453 0 5.453 3.437 5.453 9.297 0 6.453-2 10.094-5.594 10.094-3.609 0-5.906-3.704-5.906-9.454 0-6.25 2.25-9.937 6.047-9.937m22.937-1.953-9.39.547v2.156h2.547c1.89.047 2.14.344 2.14 2.5v14.297c-.047.75-.093 1.047-.297 1.297-.343.453-1.296.656-3.453.703h-.343v1.797h12.953v-1.797h-.36c-3.343-.11-3.797-.36-3.797-2.156v-19.344m-2.343-12.453a2.898 2.898 0 0 0-2.907 2.89c0 1.61 1.297 2.907 2.86 2.907 1.64 0 2.937-1.297 2.937-2.907a2.894 2.894 0 0 0-2.89-2.89m31.031 24.5c.047-7.5-4.203-12.797-10.297-12.797-6.406 0-11.203 5.547-11.203 13.047 0 7.047 4.547 11.75 11.297 11.75 4.797 0 8.156-2.344 10.203-7.094l-1.75-.953c-2.047 3.844-4.156 5.344-7.5 5.344-2.547 0-4.406-1.047-5.703-3.297-.891-1.5-1.297-3.25-1.25-6h16.203m-16.156-2.157c0-1.546.203-2.64.703-4.046 1.047-3 2.656-4.454 5.109-4.454 3 0 5 2.657 5 6.704 0 1.406-.453 1.796-2.062 1.796h-8.75m26.89-23.453-9.25.563v2.14h2.453c1.844.047 2.094.36 2.094 2.5v27.86c-.047.75-.094 1.047-.297 1.297-.359.453-1.297.656-3.453.703h-.344v1.797h12.938v-1.797h-.344c-3.344-.11-3.797-.36-3.797-2.156v-32.907"/>
  <path class="TieSegment" stroke="#000" stroke-width="1.74" stroke-linecap="round" stroke-linejoin="round" fill-rule="evenodd" d="M1098.118 657.878c8.1 6.448 32.42 6.448 40.53 0-8.11 13.392-32.43 13.392-40.53 0m0-275.095c8.1-13.392 32.42-13.392 40.53 0-8.11-6.448-32.43-6.448-40.53 0m377.04-49.6c19.29-18.135 77.17-18.135 96.47 0-19.3-11.191-77.18-11.191-96.47 0m311.78 28.644c5.95-13.392 23.8-13.392 29.76 0-5.96-6.448-23.81-6.448-29.76 0m455.57-24.8c9.84-13.392 39.37-13.392 49.21 0-9.84-6.448-39.37-6.448-49.21 0m-767.35-222.084c19.29-18.135 77.17-18.135 96.47 0-19.3-11.191-77.18-11.191-96.47 0m296.63 0c10.27-13.392 41.08-13.392 51.35 0-10.27-6.448-41.08-6.448-51.35 0"/>
  <path class="BarLine" stroke="#000" stroke-width="4.46" stroke-linejoin="bevel" d="M352.418 538.714v101.928m1173.45-101.928v101.928m1017.04-101.928v101.928"/>
  <path class="BarLine" stroke="#000" stroke-width="13.64" stroke-linejoin="bevel" d="M2560.268 538.714v101.928"/>
  <path class="BarLine" stroke="#000" stroke-width="4.46" stroke-linejoin="bevel" d="M352.418 313.219v226.859m1173.45-226.859v226.859m1017.04-226.859v226.859"/>
  <path class="BarLine" stroke="#000" stroke-width="13.64" stroke-linejoin="bevel" d="M2560.268 313.219v226.859"/>
  <path class="BarLine" stroke="#000" stroke-width="4.46" stroke-linejoin="bevel" d="M352.418 94.979v219.604m1173.45-219.604v101.928m1017.04-101.928v101.928"/>
  <path class="BarLine" stroke="#000" stroke-width="13.64" stroke-linejoin="bevel" d="M2560.268 94.979v101.928"/>
  <path class="Accidental" d="M1251.19 608.727c-.187-.201-.497-.294-.792-.294-.092 0-.294.093-.387.093l-12.509 3.472v-17.36h-2.774v49.104c0 .79.589 1.286 1.395 1.286h.388l12.508-3.472v17.36h2.666v-49.104c0-.387-.186-.883-.496-1.085m-2.17 24.599-11.517 3.177v-16.275l11.517-3.27v16.368m67.971-74.199c-.187-.201-.497-.294-.792-.294-.093 0-.294.093-.387.093l-12.509 3.472v-17.36h-2.774v49.104c0 .79.589 1.286 1.395 1.286h.388l12.508-3.472v17.36h2.666v-49.104c0-.387-.186-.883-.496-1.085m-2.17 24.599-11.517 3.177v-16.275l11.517-3.27v16.368m370.441-12.199c-.187-.201-.497-.294-.792-.294-.093 0-.294.093-.387.093l-12.509 3.472v-17.36h-2.774v49.104c0 .79.589 1.287 1.395 1.287h.388l12.508-3.472v17.36h2.666v-49.105c0-.387-.186-.883-.496-1.085m-2.17 24.599-11.517 3.177v-16.275l11.517-3.27v16.368m472.891 12.601c-.187-.201-.497-.294-.792-.294-.092 0-.294.093-.387.093l-12.508 3.472v-17.36h-2.775v49.104c0 .79.589 1.286 1.395 1.286h.388l12.508-3.472v17.36h2.666v-49.104c0-.387-.186-.883-.496-1.085m-2.17 24.599-11.517 3.177v-16.275l11.517-3.27v16.368m192.389-16.957c.605-.109 1.101-.806 1.101-1.395v-5.86c0-.79-.604-1.379-1.395-1.379h-.202l-3.27.698v-14.787h-2.775v15.376l-8.835 1.782v-13.98h-2.774v14.585l-3.875.79c-.589.093-1.085.79-1.085 1.38v5.951-.185c0 .79.589 1.38 1.395 1.38h.294l3.271-.698v16.368l-3.875.806c-.589.093-1.085.79-1.085 1.38v5.75c0 .806.589 1.395 1.395 1.395h.294l3.271-.698v14.787h2.775V644.44l8.834-1.782v13.98h2.775v-14.585l3.767-.697c.604-.093 1.1-.79 1.1-1.38v-5.859c0-.79-.604-1.38-1.395-1.38h-.202l-3.27.683v-16.37l3.767-.682m-15.377 19.53v-16.461l8.835-1.783v16.368l-8.835 1.876M1316.99 321.232c-.187-.201-.497-.294-.792-.294-.093 0-.294.093-.387.093l-12.509 3.472v-17.36h-2.774v49.104c0 .79.589 1.286 1.395 1.286h.388l12.508-3.472v17.36h2.666v-49.104c0-.387-.186-.883-.496-1.085m-2.17 24.599-11.517 3.177v-16.275l11.517-3.27v16.368m370.441 25.001c-.187-.201-.497-.294-.792-.294-.093 0-.294.093-.387.093l-12.509 3.472v-17.36h-2.774v49.104c0 .79.589 1.287 1.395 1.287h.388l12.508-3.472v17.36h2.666v-49.105c0-.387-.186-.883-.496-1.085m-2.17 24.599-11.517 3.177v-16.275l11.517-3.27v16.368m187.881-61.799c-.187-.201-.497-.294-.792-.294-.093 0-.294.093-.387.093l-12.509 3.472v-17.36h-2.774v49.104c0 .79.589 1.287 1.395 1.287h.388l12.508-3.472v17.36h2.666v-49.105c0-.387-.186-.883-.496-1.085m-2.17 24.599-11.517 3.177v-16.275l11.517-3.27v16.368m287.181-36.999c-.187-.201-.497-.294-.792-.294-.092 0-.294.093-.387.093l-12.508 3.472v-17.36h-2.775v49.104c0 .79.589 1.286 1.395 1.286h.388l12.508-3.472v17.36h2.666v-49.104c0-.387-.186-.883-.496-1.085m-2.17 24.599-11.517 3.177v-16.275l11.517-3.27v16.368m192.389-16.957c.605-.109 1.101-.806 1.101-1.395v-5.86c0-.79-.604-1.379-1.395-1.379h-.202l-3.27.698V306.15h-2.775v15.376l-8.835 1.782v-13.98h-2.774v14.585l-3.875.79c-.589.093-1.085.79-1.085 1.38v5.951-.185c0 .79.589 1.38 1.395 1.38h.294l3.271-.698V348.9l-3.875.806c-.589.093-1.085.79-1.085 1.38v5.75c0 .806.589 1.395 1.395 1.395h.294l3.271-.698v14.787h2.775v-15.376l8.834-1.782v13.981h2.775v-14.586l3.767-.697c.604-.093 1.1-.79 1.1-1.38v-5.859c0-.79-.604-1.38-1.395-1.38h-.202l-3.27.683v-16.368l3.767-.682m-15.377 19.53v-16.461l8.835-1.783v16.368l-8.835 1.876M919.87 90.592c-.187-.201-.497-.294-.791-.294-.093 0-.295.093-.388.093l-12.508 3.472v-17.36h-2.775v49.104c0 .79.589 1.286 1.395 1.286h.388l12.508-3.472v17.36h2.666V91.677c0-.387-.186-.883-.496-1.085m-2.17 24.599-11.516 3.177v-16.275l11.516-3.27v16.368m202.37-16.957c.604-.109 1.1-.806 1.1-1.395v-5.86c0-.79-.605-1.379-1.395-1.379h-.201l-3.271.698V75.51h-2.774v15.376l-8.835 1.782V78.69h-2.775v14.585l-3.875.79c-.589.093-1.085.79-1.085 1.38v5.951-.185c0 .79.589 1.38 1.395 1.38h.294l3.271-.698v16.368l-3.875.806c-.589.093-1.085.79-1.085 1.38v5.75c0 .806.589 1.395 1.395 1.395h.294l3.271-.698v14.787h2.775v-15.376l8.835-1.782v13.98h2.774v-14.585l3.767-.697c.604-.093 1.1-.79 1.1-1.38v-5.859c0-.79-.605-1.38-1.395-1.38h-.201l-3.271.683V98.916l3.767-.682m-15.376 19.53v-16.461l8.835-1.783v16.368l-8.835 1.876m212.297-27.172c-.187-.201-.497-.294-.792-.294-.093 0-.294.093-.387.093l-12.509 3.472v-17.36h-2.774v49.104c0 .79.589 1.286 1.395 1.286h.388l12.508-3.472v17.36h2.666V91.677c0-.387-.186-.883-.496-1.085m-2.17 24.599-11.517 3.177v-16.275l11.517-3.27v16.368m304.631-24.599c-.187-.201-.497-.294-.792-.294-.092 0-.294.093-.387.093l-12.509 3.472v-17.36h-2.774v49.104c0 .79.589 1.286 1.395 1.286h.388l12.508-3.472v17.36h2.666V91.677c0-.387-.186-.883-.496-1.085m-2.17 24.599-11.517 3.177v-16.275l11.517-3.27v16.368m253.691-12.199c-.187-.201-.497-.294-.792-.294-.093 0-.294.093-.387.093l-12.509 3.472v-17.36h-2.774v49.104c0 .79.589 1.286 1.395 1.286h.388l12.508-3.472v17.36h2.666v-49.104c0-.387-.186-.883-.496-1.085m-2.17 24.599-11.517 3.177v-16.275l11.517-3.27v16.368m227.709-16.957c.605-.109 1.101-.806 1.101-1.395v-5.86c0-.79-.604-1.379-1.395-1.379h-.202l-3.27.698V87.91h-2.775v15.376l-8.835 1.782V91.09h-2.774v14.585l-3.875.79c-.589.093-1.085.79-1.085 1.38v5.951-.185c0 .79.589 1.38 1.395 1.38h.294l3.271-.698v16.368l-3.875.806c-.589.093-1.085.79-1.085 1.38v5.75c0 .806.589 1.395 1.395 1.395h.294l3.271-.698v14.787h2.774v-15.376l8.835-1.782v13.98h2.775v-14.585l3.766-.697c.605-.093 1.101-.79 1.101-1.38v-5.859c0-.79-.604-1.38-1.395-1.38h-.202l-3.27.683v-16.368l3.766-.682m-15.375 19.53v-16.461l8.834-1.783v16.368l-8.835 1.876m192.007-31.931c.604-.109 1.1-.806 1.1-1.395v-5.86c0-.79-.604-1.379-1.395-1.379h-.202l-3.27.698V75.51h-2.775v15.376l-8.835 1.782V78.69h-2.774v14.585l-3.875.79c-.589.093-1.085.79-1.085 1.38v5.951-.185c0 .79.589 1.38 1.395 1.38h.294l3.271-.698v16.368l-3.875.806c-.589.093-1.085.79-1.085 1.38v5.75c0 .806.589 1.395 1.395 1.395h.294l3.271-.698v14.787h2.775v-15.376l8.834-1.782v13.98h2.775v-14.585l3.767-.697c.604-.093 1.1-.79 1.1-1.38v-5.859c0-.79-.604-1.38-1.395-1.38h-.202l-3.27.683V98.916l3.767-.682m-15.377 19.53v-16.461l8.835-1.783v16.368l-8.835 1.876" style="stroke-width:.992001"/>
  <path class="Stem" stroke="#000" stroke-width="2.73" stroke-linejoin="bevel" d="M761.107 598.904v-65.026m80.321 65.026v-65.026m116 27.826v-71.226m100.4 108.426v-87.76m50.2 124.96V521.478m50.2 114.626V496.678m50.2 77.426v-77.426m80.32 127.026V496.678m65.81 77.426v-83.626m80.32 145.626V494.293m50.2 92.211v-89.826m142.44 71.532v89.668m65.8-64.868v81.229m58.88-56.429v71.068m156.33-40.374v-83.626m58.88 46.426v-71.226m94.21 58.826v-77.426m131.93 102.226V521.478m58.88 77.426v-77.426m131.93 102.226v-83.626m58.88 58.826v-77.426M731.603 367.516v71.067m80.315-108.267v108.267m50.2-71.067v71.067m65.81-108.267v108.267m100.4-71.067v100m50.2-62.8v77.267m79.7-83.774V264.983m50.2 71.226v-71.226m80.32 96.026v-96.026m36.3 77.733v95.867m80.32-71.067v71.067m50.2-83.467v83.467m135.64-89.974v-77.426m65.81 89.826v-83.401m65.81 108.201V284.034m58.87 89.375v-83.626m31.52 90.133v77.267m65.81-102.067v102.067m58.88-77.267v77.267m94.2-89.667v71.067m131.93-95.867v95.867m58.88-71.067v71.067m58.88-71.067v71.067m73.05-95.867v95.867m58.88-71.067v71.067M731.603 99.676v114.467m80.315-77.267v77.267m50.2-114.467v114.467m65.81-102.067v102.067m50.2-114.467v129.967m50.2-55.567v71.067m100.4-133.067v83.467m130.52-95.867v89.667m65.8-77.267v83.467m80.32-95.867v107.313m50.2-70.113v77.267m106.14-77.267v77.267m65.81-102.067v102.067m124.68-77.267v77.267m61.02-77.267v77.267m65.81-89.667v76.578m58.88-101.378v89.667m94.2-52.467v77.267m73.06-89.667v79.368m58.87-91.768v83.467m117.76-83.467v83.467m190.81-58.667v77.267"/>
  <path class="Note" d="M761.487 594.049c-1.782-3.286-5.549-5.069-10.121-5.069-3.364 0-7.038.992-10.618 2.883-6.541 3.472-10.509 9.316-10.509 14.384 0 1.38.294 2.775.992 4.061 1.783 3.271 5.549 4.96 10.121 4.96 3.364 0 7.038-.883 10.618-2.774 6.541-3.472 10.509-9.331 10.509-14.384 0-1.395-.294-2.775-.992-4.061m80.319 0c-1.783-3.286-5.549-5.069-10.121-5.069-3.364 0-7.038.992-10.618 2.883-6.541 3.472-10.509 9.316-10.509 14.384 0 1.38.294 2.775.992 4.061 1.783 3.271 5.549 4.96 10.121 4.96 3.364 0 7.038-.883 10.618-2.774 6.541-3.472 10.509-9.331 10.509-14.384 0-1.395-.294-2.775-.992-4.061m116.01-37.2c-1.783-3.286-5.549-5.069-10.121-5.069-3.364 0-7.038.992-10.618 2.883-6.541 3.472-10.509 9.316-10.509 14.384 0 1.38.294 2.775.992 4.061 1.783 3.271 5.549 4.96 10.121 4.96 3.364 0 7.038-.883 10.618-2.774 6.541-3.472 10.509-9.331 10.509-14.384 0-1.395-.294-2.775-.992-4.061m100.4 37.2c-1.782-3.286-5.549-5.069-10.121-5.069-3.364 0-7.038.992-10.618 2.883-6.541 3.472-10.509 9.316-10.509 14.384 0 1.38.294 2.775.992 4.061 1.782 3.271 5.549 4.96 10.121 4.96 3.364 0 7.037-.883 10.618-2.774 6.541-3.472 10.509-9.331 10.509-14.384 0-1.395-.295-2.775-.992-4.061m50.2 37.2c-1.782-3.286-5.549-5.069-10.121-5.069-3.364 0-7.038.992-10.618 2.883-6.541 3.472-10.509 9.316-10.509 14.384 0 1.38.294 2.775.992 4.061 1.782 3.271 5.549 4.96 10.121 4.96 3.364 0 7.037-.883 10.618-2.774 6.541-3.472 10.509-9.331 10.509-14.384 0-1.395-.294-2.775-.992-4.061m50.2 0c-1.782-3.286-5.549-5.069-10.121-5.069-3.364 0-7.037.992-10.618 2.883-6.541 3.472-10.509 9.316-10.509 14.384 0 1.38.294 2.775.992 4.061 1.782 3.271 5.549 4.96 10.121 4.96 3.364 0 7.037-.883 10.618-2.774 6.541-3.472 10.509-9.331 10.509-14.384 0-1.395-.294-2.775-.992-4.061m50.2-62c-1.782-3.286-5.549-5.069-10.121-5.069-3.364 0-7.037.992-10.618 2.883-6.541 3.472-10.509 9.316-10.509 14.384 0 1.38.294 2.775.992 4.061 1.782 3.271 5.549 4.96 10.121 4.96 3.364 0 7.037-.883 10.618-2.774 6.541-3.472 10.509-9.331 10.509-14.384 0-1.395-.294-2.775-.992-4.061m80.32 49.6c-1.782-3.286-5.549-5.069-10.121-5.069-3.364 0-7.038.992-10.618 2.883-6.541 3.472-10.509 9.316-10.509 14.384 0 1.38.294 2.775.992 4.061 1.782 3.271 5.549 4.96 10.121 4.96 3.364 0 7.037-.883 10.618-2.774 6.541-3.472 10.509-9.331 10.509-14.384 0-1.395-.294-2.775-.992-4.061m65.8-49.6c-1.782-3.286-5.549-5.069-10.121-5.069-3.364 0-7.038.992-10.618 2.883-6.541 3.472-10.509 9.316-10.509 14.384 0 1.38.294 2.775.992 4.061 1.782 3.271 5.549 4.96 10.121 4.96 3.364 0 7.037-.883 10.618-2.774 6.541-3.472 10.509-9.331 10.509-14.384 0-1.395-.295-2.775-.992-4.061m80.32 62c-1.782-3.286-5.549-5.069-10.121-5.069-3.364 0-7.037.992-10.618 2.883-6.541 3.472-10.509 9.316-10.509 14.384 0 1.38.294 2.775.992 4.061 1.782 3.271 5.549 4.96 10.121 4.96 3.364 0 7.037-.883 10.618-2.774 6.541-3.472 10.509-9.331 10.509-14.384 0-1.395-.294-2.775-.992-4.061m50.2-49.6c-1.782-3.286-5.549-5.069-10.121-5.069-3.364 0-7.038.992-10.618 2.883-6.541 3.472-10.509 9.316-10.509 14.384 0 1.38.294 2.775.992 4.061 1.782 3.271 5.549 4.96 10.121 4.96 3.364 0 7.037-.883 10.618-2.774 6.541-3.472 10.509-9.331 10.509-14.384 0-1.395-.295-2.775-.992-4.061m171.94-24.8c-1.782-3.286-5.549-5.069-10.121-5.069-3.364 0-7.038.992-10.618 2.883-6.541 3.472-10.509 9.316-10.509 14.384 0 1.38.294 2.775.992 4.061 1.782 3.271 5.549 4.96 10.121 4.96 3.364 0 7.037-.883 10.618-2.774 6.541-3.472 10.509-9.331 10.509-14.384 0-1.395-.294-2.775-.992-4.061m65.81 24.8c-1.782-3.286-5.549-5.069-10.121-5.069-3.364 0-7.038.992-10.618 2.883-6.541 3.472-10.509 9.316-10.509 14.384 0 1.38.294 2.775.992 4.061 1.782 3.271 5.549 4.96 10.121 4.96 3.364 0 7.037-.883 10.618-2.774 6.541-3.472 10.509-9.331 10.509-14.384 0-1.395-.295-2.775-.992-4.061m58.88 24.8c-1.782-3.286-5.549-5.069-10.121-5.069-3.364 0-7.037.992-10.618 2.883-6.541 3.472-10.509 9.316-10.509 14.384 0 1.38.294 2.775.992 4.061 1.782 3.271 5.549 4.96 10.121 4.96 3.364 0 7.037-.883 10.618-2.774 6.541-3.472 10.509-9.331 10.509-14.384 0-1.395-.294-2.775-.992-4.061m126.83 37.2c-1.782-3.286-5.549-5.069-10.121-5.069-3.364 0-7.038.992-10.618 2.883-6.541 3.472-10.509 9.316-10.509 14.384 0 1.38.294 2.775.992 4.061 1.782 3.271 5.549 4.96 10.121 4.96 3.364 0 7.037-.883 10.618-2.774 6.541-3.472 10.509-9.331 10.509-14.384 0-1.395-.294-2.775-.992-4.061m58.87-37.2c-1.782-3.286-5.549-5.069-10.121-5.069-3.364 0-7.037.992-10.618 2.883-6.541 3.472-10.509 9.316-10.509 14.384 0 1.38.294 2.775.992 4.061 1.782 3.271 5.549 4.96 10.121 4.96 3.364 0 7.037-.883 10.618-2.774 6.541-3.472 10.509-9.331 10.509-14.384 0-1.395-.294-2.775-.992-4.061m94.21-12.4c-1.782-3.286-5.549-5.069-10.121-5.069-3.364 0-7.038.992-10.618 2.883-6.541 3.472-10.509 9.316-10.509 14.384 0 1.38.294 2.775.992 4.061 1.782 3.271 5.549 4.96 10.121 4.96 3.364 0 7.037-.883 10.618-2.774 6.541-3.472 10.509-9.331 10.509-14.384 0-1.395-.295-2.775-.992-4.061m131.93 24.8c-1.782-3.286-5.549-5.069-10.121-5.069-3.364 0-7.038.992-10.618 2.883-6.541 3.472-10.509 9.316-10.509 14.384 0 1.38.294 2.775.992 4.061 1.782 3.271 5.549 4.96 10.121 4.96 3.364 0 7.037-.883 10.618-2.774 6.541-3.472 10.509-9.331 10.509-14.384 0-1.395-.295-2.775-.992-4.061m58.88-24.8c-1.782-3.286-5.549-5.069-10.121-5.069-3.364 0-7.038.992-10.618 2.883-6.541 3.472-10.509 9.316-10.509 14.384 0 1.38.294 2.775.992 4.061 1.782 3.271 5.549 4.96 10.121 4.96 3.364 0 7.038-.883 10.618-2.774 6.541-3.472 10.509-9.331 10.509-14.384 0-1.395-.294-2.775-.992-4.061m131.93 24.8c-1.782-3.286-5.549-5.069-10.121-5.069-3.364 0-7.038.992-10.618 2.883-6.541 3.472-10.509 9.316-10.509 14.384 0 1.38.294 2.775.992 4.061 1.782 3.271 5.549 4.96 10.121 4.96 3.364 0 7.037-.883 10.618-2.774 6.541-3.472 10.509-9.331 10.509-14.384 0-1.395-.295-2.775-.992-4.061m58.88-24.8c-1.782-3.286-5.549-5.069-10.121-5.069-3.364 0-7.038.992-10.618 2.883-6.541 3.472-10.509 9.316-10.509 14.384 0 1.38.294 2.775.992 4.061 1.782 3.271 5.549 4.96 10.121 4.96 3.364 0 7.037-.883 10.618-2.774 6.541-3.472 10.509-9.331 10.509-14.384 0-1.395-.295-2.775-.992-4.061M761.487 356.154c-1.782-3.286-5.549-5.069-10.121-5.069-3.364 0-7.038.992-10.618 2.883-6.541 3.472-10.509 9.316-10.509 14.384 0 1.38.294 2.775.992 4.061 1.783 3.271 5.549 4.96 10.121 4.96 3.364 0 7.038-.883 10.618-2.774 6.541-3.472 10.509-9.331 10.509-14.384 0-1.395-.294-2.775-.992-4.061m80.319-37.2c-1.783-3.286-5.549-5.069-10.121-5.069-3.364 0-7.038.992-10.618 2.883-6.541 3.472-10.509 9.316-10.509 14.384 0 1.38.294 2.775.992 4.061 1.783 3.271 5.549 4.96 10.121 4.96 3.364 0 7.038-.883 10.618-2.774 6.541-3.472 10.509-9.331 10.509-14.384 0-1.395-.294-2.775-.992-4.061m50.2 37.2c-1.782-3.286-5.549-5.069-10.121-5.069-3.364 0-7.038.992-10.618 2.883-6.541 3.472-10.509 9.316-10.509 14.384 0 1.38.294 2.775.992 4.061 1.783 3.271 5.549 4.96 10.121 4.96 3.364 0 7.038-.883 10.618-2.774 6.541-3.472 10.509-9.331 10.509-14.384 0-1.395-.294-2.775-.992-4.061m65.81-37.2c-1.783-3.286-5.549-5.069-10.121-5.069-3.364 0-7.038.992-10.618 2.883-6.541 3.472-10.509 9.316-10.509 14.384 0 1.38.294 2.775.992 4.061 1.783 3.271 5.549 4.96 10.121 4.96 3.364 0 7.038-.883 10.618-2.774 6.541-3.472 10.509-9.331 10.509-14.384 0-1.395-.294-2.775-.992-4.061m100.4 37.2c-1.782-3.286-5.549-5.069-10.121-5.069-3.364 0-7.038.992-10.618 2.883-6.541 3.472-10.509 9.316-10.509 14.384 0 1.38.294 2.775.992 4.061 1.782 3.271 5.549 4.96 10.121 4.96 3.364 0 7.037-.883 10.618-2.774 6.541-3.472 10.509-9.331 10.509-14.384 0-1.395-.295-2.775-.992-4.061m50.2 37.2c-1.782-3.286-5.549-5.069-10.121-5.069-3.364 0-7.038.992-10.618 2.883-6.541 3.472-10.509 9.316-10.509 14.384 0 1.38.294 2.775.992 4.061 1.782 3.271 5.549 4.96 10.121 4.96 3.364 0 7.037-.883 10.618-2.774 6.541-3.472 10.509-9.331 10.509-14.384 0-1.395-.294-2.775-.992-4.061m50.2 0c-1.782-3.286-5.549-5.069-10.121-5.069-3.364 0-7.037.992-10.618 2.883-6.541 3.472-10.509 9.316-10.509 14.384 0 1.38.294 2.775.992 4.061 1.782 3.271 5.549 4.96 10.121 4.96 3.364 0 7.037-.883 10.618-2.774 6.541-3.472 10.509-9.331 10.509-14.384 0-1.395-.294-2.775-.992-4.061m50.2-62c-1.782-3.286-5.549-5.069-10.121-5.069-3.364 0-7.037.992-10.618 2.883-6.541 3.472-10.509 9.316-10.509 14.384 0 1.38.294 2.775.992 4.061 1.782 3.271 5.549 4.96 10.121 4.96 3.364 0 7.037-.883 10.618-2.774 6.541-3.472 10.509-9.331 10.509-14.384 0-1.395-.294-2.775-.992-4.061m80.32 24.8c-1.782-3.286-5.549-5.069-10.121-5.069-3.364 0-7.038.992-10.618 2.883-6.541 3.472-10.509 9.316-10.509 14.384 0 1.38.294 2.775.992 4.061 1.782 3.271 5.549 4.96 10.121 4.96 3.364 0 7.037-.883 10.618-2.774 6.541-3.472 10.509-9.331 10.509-14.384 0-1.395-.294-2.775-.992-4.061m65.8-24.8c-1.782-3.286-5.549-5.069-10.121-5.069-3.364 0-7.038.992-10.618 2.883-6.541 3.472-10.509 9.316-10.509 14.384 0 1.38.294 2.775.992 4.061 1.782 3.271 5.549 4.96 10.121 4.96 3.364 0 7.037-.883 10.618-2.774 6.541-3.472 10.509-9.331 10.509-14.384 0-1.395-.295-2.775-.992-4.061m80.32 24.8c-1.782-3.286-5.549-5.069-10.121-5.069-3.364 0-7.037.992-10.618 2.883-6.541 3.472-10.509 9.316-10.509 14.384 0 1.38.294 2.775.992 4.061 1.782 3.271 5.549 4.96 10.121 4.96 3.364 0 7.037-.883 10.618-2.774 6.541-3.472 10.509-9.331 10.509-14.384 0-1.395-.294-2.775-.992-4.061m50.2-12.4c-1.782-3.286-5.549-5.069-10.121-5.069-3.364 0-7.038.992-10.618 2.883-6.541 3.472-10.509 9.316-10.509 14.384 0 1.38.294 2.775.992 4.061 1.782 3.271 5.549 4.96 10.121 4.96 3.364 0 7.037-.883 10.618-2.774 6.541-3.472 10.509-9.331 10.509-14.384 0-1.395-.295-2.775-.992-4.061m106.14 0c-1.782-3.286-5.549-5.069-10.121-5.069-3.364 0-7.037.992-10.618 2.883-6.541 3.472-10.509 9.316-10.509 14.384 0 1.38.294 2.775.992 4.061 1.782 3.271 5.549 4.96 10.121 4.96 3.364 0 7.037-.883 10.618-2.774 6.541-3.472 10.509-9.331 10.509-14.384 0-1.395-.294-2.775-.992-4.061m65.8 12.4c-1.782-3.286-5.549-5.069-10.121-5.069-3.364 0-7.038.992-10.618 2.883-6.541 3.472-10.509 9.316-10.509 14.384 0 1.38.294 2.775.992 4.061 1.782 3.271 5.549 4.96 10.121 4.96 3.364 0 7.037-.883 10.618-2.774 6.541-3.472 10.509-9.331 10.509-14.384 0-1.395-.294-2.775-.992-4.061m65.81 24.8c-1.782-3.286-5.549-5.069-10.121-5.069-3.364 0-7.038.992-10.618 2.883-6.541 3.472-10.509 9.316-10.509 14.384 0 1.38.294 2.775.992 4.061 1.782 3.271 5.549 4.96 10.121 4.96 3.364 0 7.037-.883 10.618-2.774 6.541-3.472 10.509-9.331 10.509-14.384 0-1.395-.295-2.775-.992-4.061m58.88-12.4c-1.782-3.286-5.549-5.069-10.121-5.069-3.364 0-7.037.992-10.618 2.883-6.541 3.472-10.509 9.316-10.509 14.384 0 1.38.294 2.775.992 4.061 1.782 3.271 5.549 4.96 10.121 4.96 3.364 0 7.037-.883 10.618-2.774 6.541-3.472 10.509-9.331 10.509-14.384 0-1.395-.294-2.775-.992-4.061m61.02 0c-1.782-3.286-5.549-5.069-10.121-5.069-3.364 0-7.037.992-10.618 2.883-6.541 3.472-10.509 9.316-10.509 14.384 0 1.38.294 2.775.992 4.061 1.782 3.271 5.549 4.96 10.121 4.96 3.364 0 7.037-.883 10.618-2.774 6.541-3.472 10.509-9.331 10.509-14.384 0-1.395-.294-2.775-.992-4.061m65.81-24.8c-1.782-3.286-5.549-5.069-10.121-5.069-3.364 0-7.038.992-10.618 2.883-6.541 3.472-10.509 9.316-10.509 14.384 0 1.38.294 2.775.992 4.061 1.782 3.271 5.549 4.96 10.121 4.96 3.364 0 7.037-.883 10.618-2.774 6.541-3.472 10.509-9.331 10.509-14.384 0-1.395-.294-2.775-.992-4.061m58.87 24.8c-1.782-3.286-5.549-5.069-10.121-5.069-3.364 0-7.037.992-10.618 2.883-6.541 3.472-10.509 9.316-10.509 14.384 0 1.38.294 2.775.992 4.061 1.782 3.271 5.549 4.96 10.121 4.96 3.364 0 7.037-.883 10.618-2.774 6.541-3.472 10.509-9.331 10.509-14.384 0-1.395-.294-2.775-.992-4.061m94.21-12.4c-1.782-3.286-5.549-5.069-10.121-5.069-3.364 0-7.038.992-10.618 2.883-6.541 3.472-10.509 9.316-10.509 14.384 0 1.38.294 2.775.992 4.061 1.782 3.271 5.549 4.96 10.121 4.96 3.364 0 7.037-.883 10.618-2.774 6.541-3.472 10.509-9.331 10.509-14.384 0-1.395-.295-2.775-.992-4.061m131.93-24.8c-1.782-3.286-5.549-5.069-10.121-5.069-3.364 0-7.038.992-10.618 2.883-6.541 3.472-10.509 9.316-10.509 14.384 0 1.38.294 2.775.992 4.061 1.782 3.271 5.549 4.96 10.121 4.96 3.364 0 7.037-.883 10.618-2.774 6.541-3.472 10.509-9.331 10.509-14.384 0-1.395-.295-2.775-.992-4.061m58.88 24.8c-1.782-3.286-5.549-5.069-10.121-5.069-3.364 0-7.038.992-10.618 2.883-6.541 3.472-10.509 9.316-10.509 14.384 0 1.38.294 2.775.992 4.061 1.782 3.271 5.549 4.96 10.121 4.96 3.364 0 7.038-.883 10.618-2.774 6.541-3.472 10.509-9.331 10.509-14.384 0-1.395-.294-2.775-.992-4.061m58.88 0c-1.782-3.286-5.549-5.069-10.121-5.069-3.364 0-7.038.992-10.618 2.883-6.541 3.472-10.509 9.316-10.509 14.384 0 1.38.294 2.775.992 4.061 1.782 3.271 5.549 4.96 10.121 4.96 3.364 0 7.038-.883 10.618-2.774 6.541-3.472 10.509-9.331 10.509-14.384 0-1.395-.294-2.775-.992-4.061m73.05-24.8c-1.782-3.286-5.549-5.069-10.121-5.069-3.364 0-7.038.992-10.618 2.883-6.541 3.472-10.509 9.316-10.509 14.384 0 1.38.294 2.775.992 4.061 1.782 3.271 5.549 4.96 10.121 4.96 3.364 0 7.037-.883 10.618-2.774 6.541-3.472 10.509-9.331 10.509-14.384 0-1.395-.295-2.775-.992-4.061m58.88 24.8c-1.782-3.286-5.549-5.069-10.121-5.069-3.364 0-7.038.992-10.618 2.883-6.541 3.472-10.509 9.316-10.509 14.384 0 1.38.294 2.775.992 4.061 1.782 3.271 5.549 4.96 10.121 4.96 3.364 0 7.037-.883 10.618-2.774 6.541-3.472 10.509-9.331 10.509-14.384 0-1.395-.295-2.775-.992-4.061M761.487 88.314c-1.782-3.286-5.549-5.069-10.121-5.069-3.364 0-7.038.992-10.618 2.883-6.541 3.472-10.509 9.316-10.509 14.384 0 1.38.294 2.775.992 4.061 1.783 3.271 5.549 4.96 10.121 4.96 3.364 0 7.038-.883 10.618-2.774 6.541-3.472 10.509-9.331 10.509-14.384 0-1.395-.294-2.775-.992-4.061m80.319 37.2c-1.783-3.286-5.549-5.069-10.121-5.069-3.364 0-7.038.992-10.618 2.883-6.541 3.472-10.509 9.316-10.509 14.384 0 1.38.294 2.775.992 4.061 1.783 3.271 5.549 4.96 10.121 4.96 3.364 0 7.038-.883 10.618-2.774 6.541-3.472 10.509-9.331 10.509-14.384 0-1.395-.294-2.775-.992-4.061m50.2-37.2c-1.782-3.286-5.549-5.069-10.121-5.069-3.364 0-7.038.992-10.618 2.883-6.541 3.472-10.509 9.316-10.509 14.384 0 1.38.294 2.775.992 4.061 1.783 3.271 5.549 4.96 10.121 4.96 3.364 0 7.038-.883 10.618-2.774 6.541-3.472 10.509-9.331 10.509-14.384 0-1.395-.294-2.775-.992-4.061m65.81 12.4c-1.783-3.286-5.549-5.069-10.121-5.069-3.364 0-7.038.992-10.618 2.883-6.541 3.472-10.509 9.316-10.509 14.384 0 1.38.294 2.775.992 4.061 1.783 3.271 5.549 4.96 10.121 4.96 3.364 0 7.038-.883 10.618-2.774 6.541-3.472 10.509-9.331 10.509-14.384 0-1.395-.294-2.775-.992-4.061m50.2-12.4c-1.782-3.286-5.549-5.069-10.121-5.069-3.364 0-7.038.992-10.618 2.883-6.541 3.472-10.509 9.316-10.509 14.384 0 1.38.294 2.775.992 4.061 1.783 3.271 5.549 4.96 10.121 4.96 3.364 0 7.038-.883 10.618-2.774 6.541-3.472 10.509-9.331 10.509-14.384 0-1.395-.295-2.775-.992-4.061m50.2 74.4c-1.782-3.286-5.549-5.069-10.121-5.069-3.364 0-7.038.992-10.618 2.883-6.541 3.472-10.509 9.316-10.509 14.384 0 1.38.294 2.775.992 4.061 1.782 3.271 5.549 4.96 10.121 4.96 3.364 0 7.037-.883 10.618-2.774 6.541-3.472 10.509-9.331 10.509-14.384 0-1.395-.295-2.775-.992-4.061m100.4-62c-1.782-3.286-5.549-5.069-10.121-5.069-3.364 0-7.037.992-10.618 2.883-6.541 3.472-10.509 9.316-10.509 14.384 0 1.38.294 2.775.992 4.061 1.782 3.271 5.549 4.96 10.121 4.96 3.364 0 7.037-.883 10.618-2.774 6.541-3.472 10.509-9.331 10.509-14.384 0-1.395-.294-2.775-.992-4.061m130.52-12.4c-1.782-3.286-5.549-5.069-10.121-5.069-3.364 0-7.038.992-10.618 2.883-6.541 3.472-10.509 9.316-10.509 14.384 0 1.38.294 2.775.992 4.061 1.782 3.271 5.549 4.96 10.121 4.96 3.364 0 7.037-.883 10.618-2.774 6.541-3.472 10.509-9.331 10.509-14.384 0-1.395-.294-2.775-.992-4.061m65.8 12.4c-1.782-3.286-5.549-5.069-10.121-5.069-3.364 0-7.038.992-10.618 2.883-6.541 3.472-10.509 9.316-10.509 14.384 0 1.38.294 2.775.992 4.061 1.782 3.271 5.549 4.96 10.121 4.96 3.364 0 7.037-.883 10.618-2.774 6.541-3.472 10.509-9.331 10.509-14.384 0-1.395-.295-2.775-.992-4.061m80.32-12.4c-1.782-3.286-5.549-5.069-10.121-5.069-3.364 0-7.037.992-10.618 2.883-6.541 3.472-10.509 9.316-10.509 14.384 0 1.38.294 2.775.992 4.061 1.782 3.271 5.549 4.96 10.121 4.96 3.364 0 7.037-.883 10.618-2.774 6.541-3.472 10.509-9.331 10.509-14.384 0-1.395-.294-2.775-.992-4.061m50.2 37.2c-1.782-3.286-5.549-5.069-10.121-5.069-3.364 0-7.038.992-10.618 2.883-6.541 3.472-10.509 9.316-10.509 14.384 0 1.38.294 2.775.992 4.061 1.782 3.271 5.549 4.96 10.121 4.96 3.364 0 7.037-.883 10.618-2.774 6.541-3.472 10.509-9.331 10.509-14.384 0-1.395-.295-2.775-.992-4.061m106.14 0c-1.782-3.286-5.549-5.069-10.121-5.069-3.364 0-7.037.992-10.618 2.883-6.541 3.472-10.509 9.316-10.509 14.384 0 1.38.294 2.775.992 4.061 1.782 3.271 5.549 4.96 10.121 4.96 3.364 0 7.037-.883 10.618-2.774 6.541-3.472 10.509-9.331 10.509-14.384 0-1.395-.294-2.775-.992-4.061m65.8-24.8c-1.782-3.286-5.549-5.069-10.121-5.069-3.364 0-7.038.992-10.618 2.883-6.541 3.472-10.509 9.316-10.509 14.384 0 1.38.294 2.775.992 4.061 1.782 3.271 5.549 4.96 10.121 4.96 3.364 0 7.037-.883 10.618-2.774 6.541-3.472 10.509-9.331 10.509-14.384 0-1.395-.294-2.775-.992-4.061m124.69 24.8c-1.782-3.286-5.549-5.069-10.121-5.069-3.364 0-7.037.992-10.618 2.883-6.541 3.472-10.509 9.316-10.509 14.384 0 1.38.294 2.775.992 4.061 1.782 3.271 5.549 4.96 10.121 4.96 3.364 0 7.037-.883 10.618-2.774 6.541-3.472 10.509-9.331 10.509-14.384 0-1.395-.294-2.775-.992-4.061m61.02 0c-1.782-3.286-5.549-5.069-10.121-5.069-3.364 0-7.037.992-10.618 2.883-6.541 3.472-10.509 9.316-10.509 14.384 0 1.38.294 2.775.992 4.061 1.782 3.271 5.549 4.96 10.121 4.96 3.364 0 7.037-.883 10.618-2.774 6.541-3.472 10.509-9.331 10.509-14.384 0-1.395-.294-2.775-.992-4.061m65.81-12.4c-1.782-3.286-5.549-5.069-10.121-5.069-3.364 0-7.038.992-10.618 2.883-6.541 3.472-10.509 9.316-10.509 14.384 0 1.38.294 2.775.992 4.061 1.782 3.271 5.549 4.96 10.121 4.96 3.364 0 7.037-.883 10.618-2.774 6.541-3.472 10.509-9.331 10.509-14.384 0-1.395-.294-2.775-.992-4.061m58.87-24.8c-1.782-3.286-5.549-5.069-10.121-5.069-3.364 0-7.037.992-10.618 2.883-6.541 3.472-10.509 9.316-10.509 14.384 0 1.38.294 2.775.992 4.061 1.782 3.271 5.549 4.96 10.121 4.96 3.364 0 7.037-.883 10.618-2.774 6.541-3.472 10.509-9.331 10.509-14.384 0-1.395-.294-2.775-.992-4.061m94.21 37.2c-1.782-3.286-5.549-5.069-10.121-5.069-3.364 0-7.038.992-10.618 2.883-6.541 3.472-10.509 9.316-10.509 14.384 0 1.38.294 2.775.992 4.061 1.782 3.271 5.549 4.96 10.121 4.96 3.364 0 7.037-.883 10.618-2.774 6.541-3.472 10.509-9.331 10.509-14.384 0-1.395-.295-2.775-.992-4.061m73.05-12.4c-1.782-3.286-5.549-5.069-10.121-5.069-3.364 0-7.038.992-10.618 2.883-6.541 3.472-10.509 9.316-10.509 14.384 0 1.38.294 2.775.992 4.061 1.782 3.271 5.549 4.96 10.121 4.96 3.364 0 7.037-.883 10.618-2.774 6.541-3.472 10.509-9.331 10.509-14.384 0-1.395-.295-2.775-.992-4.061m58.88-12.4c-1.782-3.286-5.549-5.069-10.121-5.069-3.364 0-7.038.992-10.618 2.883-6.541 3.472-10.509 9.316-10.509 14.384 0 1.38.294 2.775.992 4.061 1.782 3.271 5.549 4.96 10.121 4.96 3.364 0 7.037-.883 10.618-2.774 6.541-3.472 10.509-9.331 10.509-14.384 0-1.395-.295-2.775-.992-4.061m117.76 0c-1.782-3.286-5.549-5.069-10.121-5.069-3.364 0-7.038.992-10.618 2.883-6.541 3.472-10.509 9.316-10.509 14.384 0 1.38.294 2.775.992 4.061 1.782 3.271 5.549 4.96 10.121 4.96 3.364 0 7.038-.883 10.618-2.774 6.541-3.472 10.509-9.331 10.509-14.384 0-1.395-.294-2.775-.992-4.061m190.81 24.8c-1.782-3.286-5.549-5.069-10.121-5.069-3.364 0-7.038.992-10.618 2.883-6.541 3.472-10.509 9.316-10.509 14.384 0 1.38.294 2.775.992 4.061 1.782 3.271 5.549 4.96 10.121 4.96 3.364 0 7.038-.883 10.618-2.774 6.541-3.472 10.509-9.331 10.509-14.384 0-1.395-.294-2.775-.992-4.061" style="stroke-width:.992001"/>
  <path class="Clef" d="M399.693 539.985c-7.548 0-13.594 4.355-13.702 4.355-5.75 4.263-8.029 9.331-8.928 12.803-.496 1.783-.682 3.565-.682 5.255 0 2.387.388 4.557 1.287 6.448 1.193 2.681 3.472 4.557 6.448 5.549 1.193.403 2.48.604 3.766.604 2.185 0 4.464-.604 6.355-1.69 3.069-1.689 4.96-5.254 4.96-9.129 0-3.472-1.798-6.65-4.774-8.525-2.077-1.395-4.061-1.782-5.75-1.782-1.194 0-2.279.186-3.178.496-.992.387-2.666 1.38-3.472 2.077.31-1.891 1.488-4.759 2.588-6.355 1.086-1.581 3.271-3.565 4.96-4.464 2.48-1.38 5.658-1.984 9.13-1.984 10.122 0 15.082 8.137 15.082 24.8 0 9.238-3.472 18.057-6.448 23.916-3.286 6.541-7.642 12.803-11.517 16.275-10.323 9.424-20.041 13.888-20.134 13.888 0 0-1.489.884-1.101 2.372.31.992 1.194 1.193 1.798 1.193.093 0 .388-.092.496-.092.093 0 11.408-4.666 20.429-11.718 5.069-3.658 9.626-7.626 13.594-11.904a73.558 73.558 0 0 0 9.13-12.199c4.355-7.44 6.835-15.175 6.835-21.824 0-8.23-2.17-15.082-6.247-19.933-4.665-5.565-11.702-8.432-20.925-8.432m31.14 12.586c0 2.79 2.185 4.96 4.774 4.96 2.573 0 4.758-2.17 4.758-4.96 0-2.775-2.185-5.053-4.758-5.053-2.589 0-4.774 2.278-4.774 5.053m0 24.506c0 2.774 2.185 5.068 4.774 5.068 2.573 0 4.758-2.294 4.758-5.068 0-2.775-2.185-5.054-4.758-5.054-2.589 0-4.774 2.279-4.774 5.054m-47.911-259.425h-7.145c-.698 0-1.287.604-1.287 1.286v90.288c0 .697.589 1.286 1.287 1.286h7.145c.698 0 1.287-.589 1.287-1.286v-90.288c0-.682-.59-1.286-1.287-1.286m35.712 50.499h-1.488c-2.278 0-3.968.201-7.827 2.573 0 0-2.186-4.356-5.456-6.634 3.27-2.294 5.456-6.65 5.456-6.65 3.859 2.372 5.549 2.573 7.827 2.573h1.488c12.106 0 18.058-11.206 18.058-21.917 0-13.888-10.215-21.73-22.227-21.73-10.912 0-15.47 5.455-15.47 5.455-1.782 2.186-2.588 4.557-2.588 6.743 0 1.782.496 3.472 1.488 4.96 1.395 1.984 4.17 3.084 6.758 3.084 1.783 0 3.472-.496 4.666-1.488 1.674-1.488 2.774-3.673 2.774-6.06 0-1.38-.403-2.775-1.1-4.061-1.581-2.883-4.557-3.27-6.138-3.27-.605 0-1.101.092-1.101.092 2.279-1.58 5.363-2.48 8.432-2.48 2.775 0 5.456.698 7.347 2.077 3.472 2.589 4.759 8.045 4.759 15.19 0 7.642-.202 18.74-8.928 18.74-8.727 0-10.71-10.416-10.71-10.416s0-1.38-1.396-1.38c-1.38 0-1.488 1.38-1.488 1.38s-.79 5.068-3.472 11.222c-1.58 3.658-3.968 5.347-5.657 6.045v-43.26c0-.683-.496-1.287-1.194-1.287-.682 0-1.286.604-1.286 1.286v90.288c0 .698.604 1.286 1.286 1.286.698 0 1.194-.588 1.194-1.286v-43.26c1.689.697 4.076 2.386 5.657 6.06 2.682 6.138 3.472 11.3 3.472 11.3s.109 1.286 1.488 1.286c1.395 0 1.395-1.286 1.395-1.286s1.984-10.51 10.71-10.51c8.727 0 8.929 11.114 8.929 18.756 0 7.13-1.287 12.586-4.759 15.174-1.891 1.38-4.572 2.077-7.347 2.077-3.069 0-6.153-.883-8.432-2.48 0 0 .496.109 1.1.109 1.582 0 4.558-.404 6.139-3.286.697-1.287 1.1-2.666 1.1-4.062 0-2.386-1.1-4.556-2.774-6.044-1.194-.992-2.883-1.488-4.666-1.488-2.588 0-5.363 1.084-6.758 3.068a8.832 8.832 0 0 0-1.488 4.96c0 2.186.806 4.558 2.589 6.743 0 0 4.557 5.456 15.469 5.456 12.012 0 22.227-7.827 22.227-21.715 0-10.726-5.952-21.933-18.058-21.933m18.709-203.283c-1.225-5.378-3.844-9.176-4.62-10.199-3.161-4.247-7.145-7.068-11.795-8.416-3.084-.868-6.06-.992-8.463-.806a2313.899 2313.899 0 0 1-2.93-17.205c5.41-6.123 9.006-11.873 11.269-16.136 3.441-6.525 4.573-11.067 4.635-11.268 1.705-5.177 2.061-12.819.96-20.956-.991-7.487-3.068-14.151-5.409-17.375-1.007-1.41-2.061-2.14-3.084-2.14-1.21 0-3.705 1.225-6.572 3.984-2.279 2.17-5.518 6.03-8.06 11.997-2.976 7.006-3.193 16.414-2.837 23.08.372 7.222 1.473 12.864 1.488 12.91.016.094.279 1.582.713 4.124-.217.232-.465.45-.713.697-1.023.992-2.201 2.108-3.58 3.488-.853.852-1.798 1.751-2.79 2.712-8.37 8.076-21.065 20.305-21.065 39.308 0 4.666.899 9.052 2.666 13.036 1.566 3.565 3.844 6.82 6.758 9.672 7.673 7.502 18.182 10.68 25.172 10.524 2.93-.077 5.55-.31 7.92-.759 1.814 9.532 2.946 16.507 2.977 21.808.046 6.464-1.597 10.416-5.456 13.16-2.418 1.72-5.208 2.666-8.277 2.806-2.573.124-4.82-.342-6.231-.744h-.016s-.279-.094-.294-.28c-.016-.186.34-.232.34-.232h.031c1.907-.434 5.441-1.659 7.781-4.929 1.783-2.511 2.651-7.099.822-11.005-1.1-2.372-3.58-5.301-9.16-5.75-2.48-.202-4.728.31-6.712 1.503-1.798 1.07-3.286 2.697-4.325 4.681-2.433 4.665-1.984 10.354 1.116 14.167 2.945 3.596 7.518 5.89 12.912 6.463.852.094 1.69.124 2.526.124 4.402 0 8.758-1.193 12.307-3.378 3.627-2.558 5.735-6.51 6.402-12.09.558-4.604.17-10.479-1.209-18.492-.357-2.077-.899-5.084-1.55-8.804 5.704-1.907 9.827-5.456 13.563-11.269 3.27-5.688 4.2-11.749 2.79-18.01m-33.946 26.008c-4.603-1.209-9.005-3.689-12.725-7.176-1.302-1.209-3.162-3.364-4.619-6.727-1.349-3.147-2.015-6.557-1.953-10.106.062-4.666 1.364-9.455 3.844-14.198 2.898-5.534 7.424-11.02 13.438-16.306a89.204 89.204 0 0 0 4.077-3.813c.76 4.231 1.581 8.881 2.449 13.717-3.813 1.256-8.525 4.387-11.61 9.998-3.518 6.51-3.379 11.997-2.65 15.453.93 4.418 3.441 8.153 6.866 10.23.93.558 5.022 2.666 6.851 2.093a1.16 1.16 0 0 0 .775-.667c.512-1.162-.511-1.798-2.046-2.743a27.275 27.275 0 0 1-1.984-1.318c-3.301-2.464-4.743-6.882-3.673-11.237a12.436 12.436 0 0 1 3.673-6.216c1.643-1.534 3.674-2.62 6.03-3.255 2.03 11.16 4.076 22.227 5.704 30.52.124.682.263 1.348.387 2.015-4.34.93-8.649.837-12.834-.264m11.238-32.937c10.261-.465 14.492 6.913 15.376 11.702.465 2.527.465 6.929-1.07 11.114-1.162 3.146-3.596 7.192-8.695 9.238a37.06 37.06 0 0 0-.217-1.271c-1.535-8.711-3.457-19.623-5.394-30.783m-7.27-70.386c1.767-5.688 4.48-8.912 6.464-10.633 1.736-1.503 3.363-2.216 4.278-2.216.14 0 .263.03.356.062.465.14.992.697 1.457 1.565 2.294 4.247 1.55 10.912.217 15.314-1.612 5.363-4.51 10.928-13.237 20.46-.17-1.1-.325-2.139-.48-3.115-1.24-8.215-.915-15.438.945-21.437" style="stroke-width:.992001"/>
  <path class="KeySig" d="M612.269 566.769c.604-.109 1.1-.806 1.1-1.395v-5.86c0-.79-.604-1.379-1.395-1.379h-.201l-3.271.698v-14.787h-2.775v15.376l-8.834 1.782v-13.98h-2.775v14.585l-3.875.79c-.589.093-1.085.79-1.085 1.38v5.951-.185c0 .79.589 1.38 1.395 1.38h.295l3.27-.698v16.368l-3.875.806c-.589.093-1.085.79-1.085 1.38v5.75c0 .806.589 1.395 1.395 1.395h.295l3.27-.698v14.787h2.775V594.84l8.834-1.782v13.98h2.775v-14.585l3.767-.697c.604-.093 1.1-.79 1.1-1.38v-5.859c0-.79-.604-1.38-1.395-1.38h-.201l-3.271.683v-16.37l3.767-.682m-15.376 19.53v-16.461l8.834-1.783v16.368l-8.834 1.876m-9.424 30.071c.604-.109 1.1-.806 1.1-1.395v-5.86c0-.79-.604-1.379-1.395-1.379h-.201l-3.271.698v-14.787h-2.775v15.376l-8.834 1.782v-13.98h-2.775v14.585l-3.875.79c-.589.093-1.085.79-1.085 1.38v5.951-.185c0 .79.589 1.38 1.395 1.38h.295l3.27-.698v16.368l-3.875.806c-.589.093-1.085.79-1.085 1.38v5.75c0 .806.589 1.395 1.395 1.395h.295l3.27-.698v14.787h2.775V644.44l8.834-1.782v13.98h2.775v-14.585l3.767-.697c.604-.093 1.1-.79 1.1-1.38v-5.859c0-.79-.604-1.38-1.395-1.38h-.201l-3.271.683v-16.37l3.767-.682m-15.376 19.53v-16.461l8.834-1.783v16.368l-8.834 1.876m-9.424-56.729c.604-.109 1.1-.806 1.1-1.395v-5.86c0-.79-.604-1.379-1.395-1.379h-.201l-3.271.698v-14.787h-2.775v15.376l-8.834 1.782v-13.98h-2.775v14.585l-3.875.79c-.589.093-1.085.79-1.085 1.38v5.951-.185c0 .79.589 1.38 1.395 1.38h.295l3.27-.698v16.368l-3.875.806c-.589.093-1.085.79-1.085 1.38v5.75c0 .806.589 1.395 1.395 1.395h.295l3.27-.698v14.787h2.775V607.24l8.834-1.782v13.98h2.775v-14.585l3.767-.697c.604-.093 1.1-.79 1.1-1.38v-5.859c0-.79-.604-1.38-1.395-1.38h-.201l-3.271.683v-16.37l3.767-.682m-15.376 19.53v-16.461l8.834-1.783v16.368l-8.834 1.876m-9.424-56.729c.604-.109 1.1-.806 1.1-1.395v-5.86c0-.79-.604-1.379-1.395-1.379h-.201l-3.271.698v-14.787h-2.775v15.376l-8.834 1.782v-13.98h-2.775v14.585l-3.875.79c-.589.093-1.085.79-1.085 1.38v5.951-.185c0 .79.589 1.38 1.395 1.38h.295l3.27-.698v16.368l-3.875.806c-.589.093-1.085.79-1.085 1.38v5.75c0 .806.589 1.395 1.395 1.395h.295l3.27-.698v14.787h2.775V570.04l8.834-1.782v13.98h2.775v-14.585l3.767-.697c.604-.093 1.1-.79 1.1-1.38v-5.859c0-.79-.604-1.38-1.395-1.38h-.201l-3.271.683v-16.37l3.767-.682m-15.376 19.53v-16.461l8.834-1.783v16.368l-8.834 1.876m-9.424 30.071c.604-.109 1.1-.806 1.1-1.395v-5.86c0-.79-.604-1.379-1.395-1.379h-.201l-3.271.698v-14.787h-2.775v15.376l-8.834 1.782v-13.98h-2.775v14.585l-3.875.79c-.589.093-1.085.79-1.085 1.38v5.951-.185c0 .79.589 1.38 1.395 1.38h.295l3.27-.698v16.368l-3.875.806c-.589.093-1.085.79-1.085 1.38v5.75c0 .806.589 1.395 1.395 1.395h.295l3.27-.698v14.787h2.775V619.64l8.834-1.782v13.98h2.775v-14.585l3.767-.697c.604-.093 1.1-.79 1.1-1.38v-5.859c0-.79-.604-1.38-1.395-1.38h-.201l-3.271.683v-16.37l3.767-.682m-15.376 19.53v-16.461l8.834-1.783v16.368l-8.834 1.876m-9.424-56.729c.604-.109 1.1-.806 1.1-1.395v-5.86c0-.79-.604-1.379-1.395-1.379h-.201l-3.271.698v-14.787h-2.775v15.376l-8.834 1.782v-13.98h-2.775v14.585l-3.875.79c-.589.093-1.085.79-1.085 1.38v5.951-.185c0 .79.589 1.38 1.395 1.38h.295l3.27-.698v16.368l-3.875.806c-.589.093-1.085.79-1.085 1.38v5.75c0 .806.589 1.395 1.395 1.395h.295l3.27-.698v14.787h2.775V582.44l8.834-1.782v13.98h2.775v-14.585l3.767-.697c.604-.093 1.1-.79 1.1-1.38v-5.859c0-.79-.604-1.38-1.395-1.38h-.201l-3.271.683v-16.37l3.767-.682m-15.376 19.53v-16.461l8.834-1.783v16.368l-8.834 1.876m139.376-245.024c.604-.109 1.1-.806 1.1-1.395v-5.86c0-.79-.604-1.379-1.395-1.379h-.201l-3.271.698V306.15h-2.775v15.376l-8.834 1.782v-13.98h-2.775v14.585l-3.875.79c-.589.093-1.085.79-1.085 1.38v5.951-.185c0 .79.589 1.38 1.395 1.38h.295l3.27-.698V348.9l-3.875.806c-.589.093-1.085.79-1.085 1.38v5.75c0 .806.589 1.395 1.395 1.395h.295l3.27-.698v14.787h2.775v-15.376l8.834-1.782v13.981h2.775v-14.586l3.767-.697c.604-.093 1.1-.79 1.1-1.38v-5.859c0-.79-.604-1.38-1.395-1.38h-.201l-3.271.683v-16.368l3.767-.682m-15.376 19.53v-16.461l8.834-1.783v16.368l-8.834 1.876m-9.424 30.07c.604-.109 1.1-.806 1.1-1.395v-5.86c0-.79-.604-1.379-1.395-1.379h-.201l-3.271.698V355.75h-2.775v15.376l-8.834 1.782v-13.98h-2.775v14.585l-3.875.79c-.589.093-1.085.79-1.085 1.38v5.951-.185c0 .79.589 1.38 1.395 1.38h.295l3.27-.698V398.5l-3.875.806c-.589.093-1.085.79-1.085 1.38v5.75c0 .806.589 1.395 1.395 1.395h.295l3.27-.698v14.787h2.775v-15.376l8.834-1.782v13.981h2.775v-14.586l3.767-.697c.604-.093 1.1-.79 1.1-1.38v-5.859c0-.79-.604-1.38-1.395-1.38h-.201l-3.271.683v-16.368l3.767-.682m-15.376 19.53v-16.461l8.834-1.783v16.368l-8.834 1.876m-9.424-56.73c.604-.109 1.1-.806 1.1-1.395v-5.86c0-.79-.604-1.379-1.395-1.379h-.201l-3.271.698V318.55h-2.775v15.376l-8.834 1.782v-13.98h-2.775v14.585l-3.875.79c-.589.093-1.085.79-1.085 1.38v5.951-.185c0 .79.589 1.38 1.395 1.38h.295l3.27-.698V361.3l-3.875.806c-.589.093-1.085.79-1.085 1.38v5.75c0 .806.589 1.395 1.395 1.395h.295l3.27-.698v14.787h2.775v-15.376l8.834-1.782v13.981h2.775v-14.586l3.767-.697c.604-.093 1.1-.79 1.1-1.38v-5.859c0-.79-.604-1.38-1.395-1.38h-.201l-3.271.683v-16.368l3.767-.682m-15.376 19.53v-16.461l8.834-1.783v16.368l-8.834 1.876m-9.424-56.73c.604-.109 1.1-.806 1.1-1.395v-5.86c0-.79-.604-1.379-1.395-1.379h-.201l-3.271.698V281.35h-2.775v15.376l-8.834 1.782v-13.98h-2.775v14.585l-3.875.79c-.589.093-1.085.79-1.085 1.38v5.951-.185c0 .79.589 1.38 1.395 1.38h.295l3.27-.698V324.1l-3.875.806c-.589.093-1.085.79-1.085 1.38v5.75c0 .806.589 1.395 1.395 1.395h.295l3.27-.698v14.787h2.775v-15.376l8.834-1.782v13.981h2.775v-14.586l3.767-.697c.604-.093 1.1-.79 1.1-1.38v-5.859c0-.79-.604-1.38-1.395-1.38h-.201l-3.271.683v-16.368l3.767-.682m-15.376 19.53v-16.461l8.834-1.783v16.368l-8.834 1.876m-9.424 30.07c.604-.109 1.1-.806 1.1-1.395v-5.86c0-.79-.604-1.379-1.395-1.379h-.201l-3.271.698V330.95h-2.775v15.376l-8.834 1.782v-13.98h-2.775v14.585l-3.875.79c-.589.093-1.085.79-1.085 1.38v5.951-.185c0 .79.589 1.38 1.395 1.38h.295l3.27-.698V373.7l-3.875.806c-.589.093-1.085.79-1.085 1.38v5.75c0 .806.589 1.395 1.395 1.395h.295l3.27-.698v14.787h2.775v-15.376l8.834-1.782v13.981h2.775v-14.586l3.767-.697c.604-.093 1.1-.79 1.1-1.38v-5.859c0-.79-.604-1.38-1.395-1.38h-.201l-3.271.683v-16.368l3.767-.682m-15.376 19.53v-16.461l8.834-1.783v16.368l-8.834 1.876m-9.424-56.73c.604-.109 1.1-.806 1.1-1.395v-5.86c0-.79-.604-1.379-1.395-1.379h-.201l-3.271.698V293.75h-2.775v15.376l-8.834 1.782v-13.98h-2.775v14.585l-3.875.79c-.589.093-1.085.79-1.085 1.38v5.951-.185c0 .79.589 1.38 1.395 1.38h.295l3.27-.698V336.5l-3.875.806c-.589.093-1.085.79-1.085 1.38v5.75c0 .806.589 1.395 1.395 1.395h.295l3.27-.698v14.787h2.775v-15.376l8.834-1.782v13.981h2.775v-14.586l3.767-.697c.604-.093 1.1-.79 1.1-1.38v-5.859c0-.79-.604-1.38-1.395-1.38h-.201l-3.271.683v-16.368l3.767-.682m-15.376 19.53v-16.461l8.834-1.783v16.368l-8.834 1.876m139.376-237.77c.604-.109 1.1-.806 1.1-1.395v-5.86c0-.79-.604-1.379-1.395-1.379h-.201l-3.271.698V75.51h-2.775v15.376l-8.834 1.782V78.69h-2.775v14.585l-3.875.79c-.589.093-1.085.79-1.085 1.38v5.951-.185c0 .79.589 1.38 1.395 1.38h.295l3.27-.698v16.368l-3.875.806c-.589.093-1.085.79-1.085 1.38v5.75c0 .806.589 1.395 1.395 1.395h.295l3.27-.698v14.787h2.775v-15.376l8.834-1.782v13.98h2.775v-14.585l3.767-.697c.604-.093 1.1-.79 1.1-1.38v-5.859c0-.79-.604-1.38-1.395-1.38h-.201l-3.271.683V98.916l3.767-.682m-15.376 19.53v-16.461l8.834-1.783v16.368l-8.834 1.876m-9.424 30.07c.604-.109 1.1-.806 1.1-1.395v-5.86c0-.79-.604-1.379-1.395-1.379h-.201l-3.271.698V125.11h-2.775v15.376l-8.834 1.782v-13.98h-2.775v14.585l-3.875.79c-.589.093-1.085.79-1.085 1.38v5.951-.185c0 .79.589 1.38 1.395 1.38h.295l3.27-.698v16.368l-3.875.806c-.589.093-1.085.79-1.085 1.38v5.75c0 .806.589 1.395 1.395 1.395h.295l3.27-.698v14.787h2.775v-15.376l8.834-1.782v13.98h2.775v-14.585l3.767-.697c.604-.093 1.1-.79 1.1-1.38v-5.859c0-.79-.604-1.38-1.395-1.38h-.201l-3.271.683v-16.368l3.767-.682m-15.376 19.53v-16.461l8.834-1.783v16.368l-8.834 1.876m-9.424-56.729c.604-.109 1.1-.806 1.1-1.395v-5.86c0-.79-.604-1.379-1.395-1.379h-.201l-3.271.698V87.91h-2.775v15.376l-8.834 1.782V91.09h-2.775v14.585l-3.875.79c-.589.093-1.085.79-1.085 1.38v5.951-.185c0 .79.589 1.38 1.395 1.38h.295l3.27-.698v16.368l-3.875.806c-.589.093-1.085.79-1.085 1.38v5.75c0 .806.589 1.395 1.395 1.395h.295l3.27-.698v14.787h2.775v-15.376l8.834-1.782v13.98h2.775v-14.585l3.767-.697c.604-.093 1.1-.79 1.1-1.38v-5.859c0-.79-.604-1.38-1.395-1.38h-.201l-3.271.683v-16.368l3.767-.682m-15.376 19.53v-16.461l8.834-1.783v16.368l-8.834 1.876m-9.424-56.731c.604-.109 1.1-.806 1.1-1.395v-5.86c0-.79-.604-1.379-1.395-1.379h-.201l-3.271.698V50.71h-2.775v15.376l-8.834 1.782V53.89h-2.775v14.585l-3.875.79c-.589.093-1.085.79-1.085 1.38v5.951-.185c0 .79.589 1.38 1.395 1.38h.295l3.27-.698V93.46l-3.875.806c-.589.093-1.085.79-1.085 1.38v5.75c0 .806.589 1.395 1.395 1.395h.295l3.27-.698v14.787h2.775v-15.376l8.834-1.782v13.98h2.775V99.118l3.767-.697c.604-.093 1.1-.79 1.1-1.38v-5.859c0-.79-.604-1.38-1.395-1.38h-.201l-3.271.683V74.116l3.767-.682m-15.376 19.53V76.503l8.834-1.783v16.368l-8.834 1.876m-9.424 30.07c.604-.109 1.1-.806 1.1-1.395v-5.86c0-.79-.604-1.379-1.395-1.379h-.201l-3.271.698V100.31h-2.775v15.376l-8.834 1.782v-13.98h-2.775v14.585l-3.875.79c-.589.093-1.085.79-1.085 1.38v5.951-.185c0 .79.589 1.38 1.395 1.38h.295l3.27-.698v16.368l-3.875.806c-.589.093-1.085.79-1.085 1.38v5.75c0 .806.589 1.395 1.395 1.395h.295l3.27-.698v14.787h2.775v-15.376l8.834-1.782v13.98h2.775v-14.585l3.767-.697c.604-.093 1.1-.79 1.1-1.38v-5.859c0-.79-.604-1.38-1.395-1.38h-.201l-3.271.683v-16.368l3.767-.682m-15.376 19.53v-16.461l8.834-1.783v16.368l-8.834 1.876m-9.424-56.729c.604-.109 1.1-.806 1.1-1.395v-5.86c0-.79-.604-1.379-1.395-1.379h-.201l-3.271.698V63.11h-2.775v15.376l-8.834 1.782V66.29h-2.775v14.585l-3.875.79c-.589.093-1.085.79-1.085 1.38v5.951-.185c0 .79.589 1.38 1.395 1.38h.295l3.27-.698v16.368l-3.875.806c-.589.093-1.085.79-1.085 1.38v5.75c0 .806.589 1.395 1.395 1.395h.295l3.27-.698v14.787h2.775v-15.376l8.834-1.782v13.98h2.775v-14.585l3.767-.697c.604-.093 1.1-.79 1.1-1.38v-5.859c0-.79-.604-1.38-1.395-1.38h-.201l-3.271.683V86.516l3.767-.682m-15.376 19.53V88.903l8.834-1.783v16.368l-8.834 1.876" style="stroke-width:.992001"/>
  <path class="TimeSig" d="M640.362 577.534h17.035v7.393h-8.153c-.776 0-1.411.62-1.411 1.395v1.891c0 .775.635 1.395 1.41 1.395h30.009a1.39 1.39 0 0 0 1.395-1.395v-1.89a1.39 1.39 0 0 0-1.395-1.396h-8.866v-7.393h8.866a1.39 1.39 0 0 0 1.395-1.395v-1.891a1.39 1.39 0 0 0-1.395-1.395h-8.866v-15.841c0-.527-.31-1.008-.775-1.24l-1.21-.605a1.446 1.446 0 0 0-1.58.233l-8.975 8.246c-.279.279-.45.635-.45 1.038v8.169h-11.423s11.036-11.935 22.785-27.575c.853-1.147.357-2.185.17-2.371l-2.154-2.186a1.41 1.41 0 0 0-.992-.418c-.589 0-14.043.03-14.756 0-.713-.016-1.24.604-1.318 1.209 0 0-.526 7.3-3.115 15.376-2.573 8.044-5.487 12.989-8.122 16.585 0 0-.542.976-.186 1.72.341.744.977 1.814.977 1.814s.248.527 1.1.527m0 49.336h17.035v7.393h-8.153c-.776 0-1.411.62-1.411 1.395v1.891c0 .775.635 1.395 1.41 1.395h30.009a1.39 1.39 0 0 0 1.395-1.395v-1.89a1.39 1.39 0 0 0-1.395-1.396h-8.866v-7.393h8.866a1.39 1.39 0 0 0 1.395-1.395v-1.891a1.39 1.39 0 0 0-1.395-1.395h-8.866v-15.841c0-.527-.31-1.008-.775-1.24l-1.21-.605a1.446 1.446 0 0 0-1.58.233l-8.975 8.246c-.279.279-.45.635-.45 1.038v8.169h-11.423s11.036-11.935 22.785-27.575c.853-1.147.357-2.185.17-2.371l-2.154-2.186a1.41 1.41 0 0 0-.992-.418c-.589 0-14.043.03-14.756 0-.713-.016-1.24.604-1.318 1.209 0 0-.526 7.3-3.115 15.376-2.573 8.044-5.487 12.989-8.122 16.585 0 0-.542.976-.186 1.72.341.744.977 1.814.977 1.814s.248.527 1.1.527m0-274.831h17.035v7.393h-8.153c-.776 0-1.411.62-1.411 1.395v1.891c0 .775.635 1.395 1.41 1.395h30.009a1.39 1.39 0 0 0 1.395-1.395v-1.89a1.39 1.39 0 0 0-1.395-1.396h-8.866v-7.393h8.866a1.39 1.39 0 0 0 1.395-1.395v-1.891a1.39 1.39 0 0 0-1.395-1.395h-8.866v-15.841c0-.527-.31-1.008-.775-1.24l-1.21-.605a1.446 1.446 0 0 0-1.58.233l-8.975 8.246c-.279.279-.45.635-.45 1.038v8.169h-11.423s11.036-11.935 22.785-27.575c.853-1.147.357-2.185.17-2.371l-2.154-2.186a1.41 1.41 0 0 0-.992-.418c-.589 0-14.043.03-14.756 0-.713-.016-1.24.604-1.318 1.209 0 0-.526 7.3-3.115 15.376-2.573 8.044-5.487 12.989-8.122 16.585 0 0-.542.976-.186 1.72.341.744.977 1.814.977 1.814s.248.527 1.1.527m0 49.336h17.035v7.393h-8.153c-.776 0-1.411.62-1.411 1.395v1.891c0 .775.635 1.395 1.41 1.395h30.009a1.39 1.39 0 0 0 1.395-1.395v-1.89a1.39 1.39 0 0 0-1.395-1.396h-8.866v-7.393h8.866a1.39 1.39 0 0 0 1.395-1.395v-1.891a1.39 1.39 0 0 0-1.395-1.395h-8.866v-15.841c0-.527-.31-1.008-.775-1.24l-1.21-.605a1.446 1.446 0 0 0-1.58.233l-8.975 8.246c-.279.279-.45.635-.45 1.038v8.169h-11.423s11.036-11.935 22.785-27.575c.853-1.147.357-2.185.17-2.371l-2.154-2.186a1.41 1.41 0 0 0-.992-.418c-.589 0-14.043.03-14.756 0-.713-.016-1.24.604-1.318 1.209 0 0-.526 7.3-3.115 15.376-2.573 8.044-5.487 12.989-8.122 16.585 0 0-.542.976-.186 1.72.341.744.977 1.814.977 1.814s.248.527 1.1.527m0-267.577h17.035v7.393h-8.153c-.776 0-1.411.62-1.411 1.395v1.891c0 .775.635 1.395 1.41 1.395h30.009a1.39 1.39 0 0 0 1.395-1.395v-1.89a1.39 1.39 0 0 0-1.395-1.396h-8.866v-7.393h8.866a1.39 1.39 0 0 0 1.395-1.395v-1.891a1.39 1.39 0 0 0-1.395-1.395h-8.866v-15.841c0-.527-.31-1.008-.775-1.24l-1.21-.605a1.446 1.446 0 0 0-1.58.233l-8.975 8.246c-.279.279-.45.635-.45 1.038v8.169h-11.423s11.036-11.935 22.785-27.575c.853-1.147.357-2.185.17-2.371l-2.154-2.186a1.41 1.41 0 0 0-.992-.418c-.589 0-14.043.03-14.756 0-.713-.016-1.24.604-1.318 1.209 0 0-.526 7.3-3.115 15.376-2.573 8.044-5.487 12.989-8.122 16.585 0 0-.542.976-.186 1.72.341.744.977 1.814.977 1.814s.248.527 1.1.527m0 49.337h17.035v7.393h-8.153c-.776 0-1.411.62-1.411 1.395v1.891c0 .775.635 1.395 1.41 1.395h30.009a1.39 1.39 0 0 0 1.395-1.395v-1.89a1.39 1.39 0 0 0-1.395-1.396h-8.866v-7.393h8.866a1.39 1.39 0 0 0 1.395-1.395v-1.891a1.39 1.39 0 0 0-1.395-1.395h-8.866v-15.841c0-.527-.31-1.008-.775-1.24l-1.21-.605a1.446 1.446 0 0 0-1.58.233l-8.975 8.246c-.279.279-.45.635-.45 1.038v8.169h-11.423s11.036-11.935 22.785-27.575c.853-1.147.357-2.185.17-2.371l-2.154-2.186a1.41 1.41 0 0 0-.992-.418c-.589 0-14.043.03-14.756 0-.713-.016-1.24.604-1.318 1.209 0 0-.526 7.3-3.115 15.376-2.573 8.044-5.487 12.989-8.122 16.585 0 0-.542.976-.186 1.72.341.744.977 1.814.977 1.814s.248.527 1.1.527" style="stroke-width:.992001"/>
  <path class="Rest" d="M1593.55 569.574c-.745-.263-1.411.093-1.721.713-.295.605-3.1 5.999-7.378 9.378-1.333 1.054-2.883 1.736-4.433 2.123a7.077 7.077 0 0 0 1.627-4.758 7.07 7.07 0 0 0-7.316-6.82c-3.906.14-6.975 3.41-6.835 7.316a7.077 7.077 0 0 0 4.696 6.417c1.55.682 3.441 1.038 5.471.976 2.822-.108 5.875-1.038 8.495-3.1 1.224-.96 2.371-2.185 3.394-3.472v.016l-4.464 15.779s0 .015-.015.015v.016c-.465.945-3.689 7.068-7.672 10.214-1.333 1.07-2.883 1.752-4.433 2.124a7.01 7.01 0 0 0 1.627-4.743c-.14-3.922-3.41-6.975-7.316-6.836-3.906.14-6.975 3.41-6.835 7.332.108 2.976 2.046 5.456 4.696 6.417 1.55.666 3.441 1.038 5.472.961a14.522 14.522 0 0 0 8.494-3.085c1.209-.96 2.356-2.17 3.379-3.472l-10.122 36.178 2.65.744 18.523-65.674.868-3.1c.202-.729-.108-1.41-.852-1.659m251.51 0c-.745-.263-1.411.093-1.721.713-.295.605-3.1 5.999-7.378 9.378-1.333 1.054-2.883 1.736-4.433 2.123a7.077 7.077 0 0 0 1.627-4.758 7.07 7.07 0 0 0-7.316-6.82c-3.906.14-6.975 3.41-6.835 7.316a7.077 7.077 0 0 0 4.696 6.417c1.55.682 3.441 1.038 5.471.976 2.822-.108 5.875-1.038 8.495-3.1 1.224-.96 2.371-2.185 3.394-3.472v.016l-4.464 15.779s0 .015-.015.015v.016c-.465.945-3.689 7.068-7.672 10.214-1.333 1.07-2.883 1.752-4.433 2.124a7.01 7.01 0 0 0 1.627-4.743c-.14-3.922-3.41-6.975-7.316-6.836-3.906.14-6.975 3.41-6.835 7.332.108 2.976 2.046 5.456 4.696 6.417 1.55.666 3.441 1.038 5.472.961a14.522 14.522 0 0 0 8.494-3.085c1.209-.96 2.356-2.17 3.379-3.472l-10.122 36.178 2.65.744 18.523-65.674.868-3.1c.202-.729-.108-1.41-.852-1.659m468.58 0c-.745-.263-1.411.093-1.721.713-.295.605-3.1 5.999-7.378 9.378-1.334 1.054-2.884 1.736-4.434 2.123a7.077 7.077 0 0 0 1.628-4.758 7.07 7.07 0 0 0-7.316-6.82c-3.906.14-6.975 3.41-6.835 7.316a7.077 7.077 0 0 0 4.696 6.417c1.55.682 3.441 1.038 5.471.976 2.822-.108 5.875-1.038 8.495-3.1 1.224-.96 2.371-2.185 3.394-3.472v.016l-4.464 15.779s0 .015-.015.015v.016c-.465.945-3.689 7.068-7.672 10.214-1.333 1.07-2.883 1.752-4.433 2.124a7.01 7.01 0 0 0 1.627-4.743c-.14-3.922-3.41-6.975-7.316-6.836-3.906.14-6.975 3.41-6.835 7.332.108 2.976 2.046 5.456 4.696 6.417 1.55.666 3.441 1.038 5.472.961a14.522 14.522 0 0 0 8.494-3.085c1.209-.96 2.356-2.17 3.379-3.472l-10.122 36.178 2.65.744 18.523-65.674.868-3.1c.202-.729-.108-1.41-.852-1.659" style="stroke-width:.992001"/>
  <path class="Articulation" d="M743.628 629.63c1.519 1.503 3.968 1.503 5.471 0a3.854 3.854 0 0 0 0-5.472 3.854 3.854 0 0 0-5.471 0c-1.504 1.503-1.504 3.952 0 5.471m80.322.001c1.519 1.503 3.968 1.503 5.471 0a3.854 3.854 0 0 0 0-5.472 3.854 3.854 0 0 0-5.471 0c-1.504 1.503-1.504 3.952 0 5.471m367-24.799c1.518 1.503 3.967 1.503 5.471 0a3.854 3.854 0 0 0 0-5.472 3.854 3.854 0 0 0-5.471 0c-1.504 1.503-1.504 3.952 0 5.471m146.13.001c1.519 1.503 3.968 1.503 5.471 0a3.854 3.854 0 0 0 0-5.472 3.854 3.854 0 0 0-5.471 0c-1.504 1.503-1.504 3.952 0 5.471m612.85 49.601c1.518 1.503 3.967 1.503 5.471 0a3.854 3.854 0 0 0 0-5.472 3.854 3.854 0 0 0-5.471 0c-1.504 1.503-1.504 3.952 0 5.471m94.21-24.799c1.518 1.503 3.967 1.503 5.471 0a3.854 3.854 0 0 0 0-5.472 3.854 3.854 0 0 0-5.471 0c-1.504 1.503-1.504 3.952 0 5.471m381.61.001c1.518 1.503 3.967 1.503 5.471 0a3.854 3.854 0 0 0 0-5.472 3.854 3.854 0 0 0-5.471 0c-1.504 1.503-1.504 3.952 0 5.471" style="stroke-width:.992001"/>
  <path class="Beam" fill-rule="evenodd" d="M759.743 527.678h83.045v12.4h-83.045v-12.4m196.325-44.092 153.33 31.562v12.66l-153.33-31.562v-12.66m100.4 39.267 52.93 10.895v12.66l-52.93-10.895v-12.66m100.4-32.375h133.25v12.4h-133.25v-12.4m0 18.6h32.24v12.4h-32.24v-12.4m133.25 0h-32.24v12.4h32.24v-12.4m63.07-24.938 133.25 6.33v12.415l-133.25-6.33V484.14m80.32 22.417 52.93 2.514v12.414l-52.93-2.514v-12.414m192.64 144.932 127.41 31.679v12.777l-127.41-31.678v-12.778m0-18.6 127.41 31.679v12.777l-127.41-31.678v-12.778m281.02-73.589 61.61-25.95v13.456l-61.61 25.949V559.3m0 18.6 32.24-13.58v13.455l-32.24 13.58V577.9m153.08-62.622h193.54v12.4h-193.54v-12.4m131.93 18.6h61.61v12.4h-61.61v-12.4m190.81.56 61.61-19.462v13.004l-61.61 19.462v-13.004m0 18.6 32.24-10.185v13.004l-32.24 10.185v-13.004M730.239 432.383h133.249v12.4H730.239v-12.4m80.319-18.6h52.93v12.4h-52.93v-12.4m116.01 18.347 153.32 44.187v12.905l-153.32-44.187V432.13m100.4 10.334 52.92 15.253v12.905l-52.92-15.253v-12.905m129.9-183.681h133.25v12.4h-133.25v-12.4m0 18.6h32.24v12.4h-32.24v-12.4m133.25 0h-32.24v12.4h32.24v-12.4m33.57 155h133.25v12.4h-133.25v-12.4m80.32-18.6h52.93v12.4h-52.93v-12.4m185.84-149.096 193.22 18.866v12.459l-193.22-18.866v-12.46m0 18.601 193.22 18.866v12.459l-193.22-18.866v-12.46m222.01 167.697h127.41v12.4h-127.41v-12.4m0-18.6h68.53v12.4h-68.53v-12.4m218.89 0h193.54v12.4h-193.54v-12.4m131.93-18.6h61.61v12.4h-61.61v-12.4m117.76 18.6h134.65v12.4h-134.65v-12.4m0-18.6h75.78v12.4h-75.78v-12.4M730.239 207.943h133.249v12.4H730.239v-12.4m80.319-18.6h52.93v12.4h-52.93v-12.4m116.01 18.311 103.12 31.842v12.978l-103.12-31.842v-12.978m0-18.6 52.92 16.342v12.978l-52.92-16.342v-12.978m200.8.282 133.24-6.33v12.414l-133.24 6.33v-12.414m133.24-24.93-32.24 1.532v12.414l32.24-1.532v-12.414m63.08 24.874 133.25 18.989v12.525l-133.25-18.99V189.28m80.32-7.154 52.93 7.543v12.525l-52.93-7.542v-12.526m156.34 25.817h193.21v12.4h-193.21v-12.4m0-18.6h32.24v12.4h-32.24v-12.4m193.21 0h-32.24v12.4h32.24v-12.4m58.3 18.477 127.41-25.341v12.643l-127.41 25.342V207.82m0-18.6 68.53-13.63v12.643l-68.53 13.63v-12.642m218.89 18.659 134.66-18.983v12.522l-134.66 18.985V207.88m0-18.6 75.78-10.682v12.522l-75.78 10.684V189.28m249.69.033 193.53 18.866v12.459l-193.53-18.866v-12.46m193.53.267-32.24-3.142v12.458l32.24 3.143v-12.46"/>
  <path class="NoteDot" d="M1171.998 108.743a4.955 4.955 0 0 0 4.96 4.96 4.955 4.955 0 0 0 4.96-4.96 4.955 4.955 0 0 0-4.96-4.96 4.955 4.955 0 0 0-4.96 4.96m1153.07 0a4.955 4.955 0 0 0 4.96 4.96 4.955 4.955 0 0 0 4.96-4.96 4.955 4.955 0 0 0-4.96-4.96 4.955 4.955 0 0 0-4.96 4.96" style="stroke-width:.992001"/>
  <path class="Bracket" fill="none" stroke="#000" stroke-width="10.91" stroke-linejoin="bevel" d="M336.794 296.727v360.407"/>
  <path class="Bracket" d="M379.357 274.701c-.201-.093-.496-.201-.697-.201-.403 0-.853.155-1.085.496-.202.294-10.122 15.577-29.078 15.577h-15.764c-.806 0-1.395.496-1.395 1.287v10.323h12.105c30.551 0 36.41-25.482 36.503-25.792.031-.093.109-.295.109-.496 0-.496-.31-.9-.698-1.194m0 404.459c.388-.295.698-.698.698-1.194 0-.202-.078-.403-.109-.496-.093-.31-5.952-25.792-36.503-25.792h-12.105V662c0 .79.589 1.286 1.395 1.286h15.764c18.956 0 28.876 15.283 29.078 15.578.232.34.682.496 1.085.496.201 0 .496-.109.697-.202" style="stroke-width:.992001"/>
  <text xml:space="preserve" style="font-size:64px;line-height:1.25;font-family:FreeSerif,serif;-inkscape-font-specification:FreeSerif,serif" x="1049.025" y="1076.838" transform="translate(-188.944 -289.128)"><tspan x="1049.025" y="1076.838" style="fill:#ff2a2a;fill-opacity:1">I</tspan></text>
  <text xml:space="preserve" style="font-size:37.3333px;line-height:1.25;font-family:FreeSerif,serif;-inkscape-font-specification:FreeSerif,serif" x="1076.129" y="1041.676" transform="translate(-188.944 -289.128)"><tspan x="1076.129" y="1041.676" style="font-size:37.3333px;fill:#ff2a2a;fill-opacity:1">6</tspan></text>
  <text xml:space="preserve" style="font-size:37.3333px;line-height:1.25;font-family:FreeSerif,serif;-inkscape-font-specification:FreeSerif,serif" x="1076.539" y="1093.66" transform="translate(-188.944 -289.128)"><tspan x="1076.539" y="1093.66" style="font-size:37.3333px;fill:#ff2a2a;fill-opacity:1">4</tspan></text>
  <text xml:space="preserve" style="font-size:64px;line-height:1.25;font-family:FreeSerif,serif;-inkscape-font-specification:FreeSerif,serif" x="1294.595" y="1077.655" transform="translate(-198.692 -289.856)"><tspan x="1294.595" y="1077.655" style="fill:#ff80e5;fill-opacity:1">vii</tspan></text>
  <text xml:space="preserve" style="font-size:37.3333px;line-height:1.25;font-family:FreeSerif,serif;-inkscape-font-specification:FreeSerif,serif" x="1385.884" y="1042.95" transform="translate(-198.692 -289.856)"><tspan x="1385.884" y="1042.95" style="font-size:37.3333px;fill:#ff80e5;fill-opacity:1">6</tspan></text>
  <text xml:space="preserve" style="font-size:64px;line-height:1.25;font-family:FreeSerif,serif;-inkscape-font-specification:FreeSerif,serif" x="1271.88" y="787.799"><tspan x="1271.88" y="787.799" style="fill:#37c871;fill-opacity:1">III</tspan></text>
  <text xml:space="preserve" style="font-size:64px;line-height:1.25;font-family:FreeSerif,serif;-inkscape-font-specification:FreeSerif,serif;stroke-width:1.2;stroke-miterlimit:4;stroke-dasharray:none" x="1435.688" y="787.799"><tspan x="1435.688" y="787.799" style="fill:#ffd42a;fill-opacity:1;stroke:#000;stroke-width:1.2;stroke-miterlimit:4;stroke-dasharray:none;stroke-opacity:1">ii4</tspan></text>
  <text xml:space="preserve" style="font-size:64px;line-height:1.25;font-family:FreeSerif,serif;-inkscape-font-specification:FreeSerif,serif" x="1785.54" y="787.799"><tspan x="1785.54" y="787.799" style="fill:#2a7fff;fill-opacity:1">iv9</tspan></text>
  <text xml:space="preserve" style="font-size:64px;line-height:1.25;font-family:FreeSerif,serif;-inkscape-font-specification:FreeSerif,serif" x="2295.038" y="1077.663" transform="translate(-194.692 -289.856)"><tspan x="2295.038" y="1077.663" style="fill:#37c871;fill-opacity:1">III</tspan></text>
  <text xml:space="preserve" style="font-size:37.3333px;line-height:1.25;font-family:FreeSerif,serif;-inkscape-font-specification:FreeSerif,serif" x="2385.777" y="1042.95" transform="translate(-194.692 -289.856)"><tspan x="2385.777" y="1042.95" style="font-size:37.3333px;fill:#37c871;fill-opacity:1">6</tspan></text>
  <text xml:space="preserve" style="font-size:64px;line-height:1.25;font-family:FreeSerif,serif;-inkscape-font-specification:FreeSerif,serif" x="2392.994" y="787.799"><tspan x="2392.994" y="787.799" style="fill:#abc837;fill-opacity:1">iii</tspan></text>
  <text xml:space="preserve" style="font-size:64px;line-height:1.25;font-family:FreeSerif,serif;-inkscape-font-specification:FreeSerif,serif" x="730.318" y="68.688"><tspan x="730.318" y="68.688">1</tspan></text>
  <text xml:space="preserve" style="font-size:64px;line-height:1.25;font-family:FreeSerif,serif;-inkscape-font-specification:FreeSerif,serif" x="811.121" y="68.769"><tspan x="811.121" y="68.769">5</tspan></text>
  <text xml:space="preserve" style="font-size:64px;line-height:1.25;font-family:FreeSerif,serif;-inkscape-font-specification:FreeSerif,serif" x="862.285" y="68.769"><tspan x="862.285" y="68.769">1</tspan></text>
  <text xml:space="preserve" style="font-size:64px;line-height:1.25;font-family:FreeSerif,serif;-inkscape-font-specification:FreeSerif,serif" x="913.246" y="68.769"><tspan x="913.246" y="68.769" style="fill:#2a7fff;fill-opacity:1">7</tspan></text>
  <text xml:space="preserve" style="font-size:64px;line-height:1.25;font-family:FreeSerif,serif;-inkscape-font-specification:FreeSerif,serif" x="979.75" y="68.769"><tspan x="979.75" y="68.769">1</tspan></text>
  <text xml:space="preserve" style="font-size:64px;line-height:1.25;font-family:FreeSerif,serif;-inkscape-font-specification:FreeSerif,serif" x="1026.743" y="68.769"><tspan x="1026.743" y="68.769" style="fill:#ff7f2a;fill-opacity:1">2</tspan></text>
  <text xml:space="preserve" style="font-size:64px;line-height:1.25;font-family:FreeSerif,serif;-inkscape-font-specification:FreeSerif,serif" x="1067.734" y="68.769"><tspan x="1067.734" y="68.769">3</tspan></text>
  <text xml:space="preserve" style="font-size:64px;line-height:1.25;font-family:FreeSerif,serif;-inkscape-font-specification:FreeSerif,serif" x="1129.984" y="68.769"><tspan x="1129.984" y="68.769">1</tspan></text>
  <text xml:space="preserve" style="font-size:64px;line-height:1.25;font-family:FreeSerif,serif;-inkscape-font-specification:FreeSerif,serif" x="1256.418" y="68.769"><tspan x="1256.418" y="68.769" style="fill:#ff7f2a;fill-opacity:1">6</tspan></text>
  <text xml:space="preserve" style="font-size:64px;line-height:1.25;font-family:FreeSerif,serif;-inkscape-font-specification:FreeSerif,serif" x="1326.377" y="68.769"><tspan x="1326.377" y="68.769">5</tspan></text>
  <text xml:space="preserve" style="font-size:64px;line-height:1.25;font-family:FreeSerif,serif;-inkscape-font-specification:FreeSerif,serif" x="1392.204" y="68.608"><tspan x="1392.204" y="68.608" style="fill:#ff7f2a;fill-opacity:1">7</tspan></text>
  <text xml:space="preserve" style="font-size:64px;line-height:1.25;font-family:FreeSerif,serif;-inkscape-font-specification:FreeSerif,serif" x="1458.811" y="68.769"><tspan x="1458.811" y="68.769">4</tspan></text>
  <text xml:space="preserve" style="font-size:64px;line-height:1.25;font-family:FreeSerif,serif;-inkscape-font-specification:FreeSerif,serif" x="1624.932" y="68.769"><tspan x="1624.932" y="68.769" style="fill:#ff7f2a;fill-opacity:1">4</tspan></text>
  <text xml:space="preserve" style="font-size:64px;line-height:1.25;font-family:FreeSerif,serif;-inkscape-font-specification:FreeSerif,serif" x="1750.839" y="68.769"><tspan x="1750.839" y="68.769">2</tspan></text>
  <text xml:space="preserve" style="font-size:64px;line-height:1.25;font-family:FreeSerif,serif;-inkscape-font-specification:FreeSerif,serif" x="1863.648" y="68.769"><tspan x="1863.648" y="68.769">3</tspan></text>
  <text xml:space="preserve" style="font-size:64px;line-height:1.25;font-family:FreeSerif,serif;-inkscape-font-specification:FreeSerif,serif" x="1939.268" y="68.769"><tspan x="1939.268" y="68.769">5</tspan></text>
  <text xml:space="preserve" style="font-size:64px;line-height:1.25;font-family:FreeSerif,serif;-inkscape-font-specification:FreeSerif,serif" x="2032.484" y="68.769"><tspan x="2032.484" y="68.769">3</tspan></text>
  <text xml:space="preserve" style="font-size:64px;line-height:1.25;font-family:FreeSerif,serif;-inkscape-font-specification:FreeSerif,serif" x="2084.35" y="68.769"><tspan x="2084.35" y="68.769" style="fill:#ff7f2a;fill-opacity:1">4</tspan></text>
  <text xml:space="preserve" style="font-size:64px;line-height:1.25;font-family:FreeSerif,serif;-inkscape-font-specification:FreeSerif,serif" x="2165.302" y="68.769"><tspan x="2165.302" y="68.769">5</tspan></text>
  <text xml:space="preserve" style="font-size:64px;line-height:1.25;font-family:FreeSerif,serif;-inkscape-font-specification:FreeSerif,serif" x="2282.327" y="68.769"><tspan x="2282.327" y="68.769">5</tspan></text>
  <text xml:space="preserve" style="font-size:64px;line-height:1.25;font-family:FreeSerif,serif;-inkscape-font-specification:FreeSerif,serif" x="2457.156" y="68.769"><tspan x="2457.156" y="68.769">3</tspan></text>
</svg>
