<svg width="2459.182" height="389.409" version="1.2" xmlns="http://www.w3.org/2000/svg">
  <path class="StaffLines" fill="none" stroke="#000" stroke-width="2.73" stroke-linejoin="bevel" d="M16 174.738h2427.182M16 199.538h2427.182M16 224.338h2427.182M16 249.138h2427.182M16 273.938h2427.182"/>
  <path class="Symbol" d="M274.028 261.445c0 7.734 3.968 13.981 10.323 18.042l.496-.682c-3.379-2.588-4.572-4.076-5.657-7.254-.992-2.868-1.488-6.045-1.488-10.215 0-7.827 1.085-11.997 7.145-17.065l-.403-.682c-6.541 4.464-10.416 9.517-10.416 17.856m46.717-.108c0 4.169-.496 7.347-1.488 10.214-1.194 3.178-2.387 4.666-5.751 7.254l.589.682c6.355-3.968 10.214-10.416 10.214-18.042 0-8.246-3.859-13.594-10.416-17.856l-.387.682c6.138 4.96 7.239 9.238 7.239 17.065m1729.137.109c0 7.734 3.968 13.981 10.323 18.042l.496-.682c-3.379-2.588-4.572-4.076-5.657-7.254-.992-2.868-1.488-6.045-1.488-10.215 0-7.827 1.085-11.997 7.145-17.065l-.403-.682c-6.541 4.464-10.416 9.517-10.416 17.856m46.713-.108c0 4.169-.495 7.347-1.487 10.214-1.194 3.178-2.388 4.666-5.751 7.254l.589.682c6.355-3.968 10.214-10.416 10.214-18.042 0-8.246-3.859-13.594-10.415-17.856l-.388.682c6.138 4.96 7.239 9.238 7.239 17.065m-1610.48-49.491c0 7.734 3.968 13.981 10.323 18.042l.496-.682c-3.379-2.588-4.573-4.076-5.658-7.254-.992-2.867-1.488-6.045-1.488-10.214 0-7.828 1.085-11.998 7.146-17.066l-.403-.682c-6.541 4.464-10.416 9.517-10.416 17.856m46.717-.108c0 4.169-.496 7.347-1.488 10.214-1.193 3.178-2.387 4.666-5.75 7.254l.589.682c6.355-3.968 10.214-10.416 10.214-18.042 0-8.246-3.859-13.594-10.416-17.856l-.387.682c6.138 4.96 7.238 9.238 7.238 17.065m8.525.109c0 7.734 3.968 13.981 10.323 18.042l.496-.682c-3.379-2.588-4.573-4.076-5.658-7.254-.992-2.867-1.488-6.045-1.488-10.214 0-7.828 1.085-11.998 7.146-17.066l-.403-.682c-6.541 4.464-10.416 9.517-10.416 17.856m46.718-.108c0 4.169-.496 7.347-1.488 10.214-1.194 3.178-2.387 4.666-5.751 7.254l.589.682c6.355-3.968 10.214-10.416 10.214-18.042 0-8.246-3.859-13.594-10.415-17.856l-.388.682c6.138 4.96 7.239 9.238 7.239 17.065m138.856.109c0 7.734 3.968 13.981 10.323 18.042l.496-.682c-3.379-2.588-4.573-4.076-5.658-7.254-.992-2.867-1.488-6.045-1.488-10.214 0-7.828 1.085-11.998 7.146-17.066l-.403-.682c-6.541 4.464-10.416 9.517-10.416 17.856m46.723-.108c0 4.169-.496 7.347-1.488 10.214-1.193 3.178-2.387 4.666-5.75 7.254l.589.682c6.355-3.968 10.214-10.416 10.214-18.042 0-8.246-3.859-13.594-10.416-17.856l-.387.682c6.138 4.96 7.238 9.238 7.238 17.065m23.977.109c0 7.734 3.968 13.981 10.323 18.042l.496-.682c-3.379-2.588-4.573-4.076-5.658-7.254-.992-2.867-1.488-6.045-1.488-10.214 0-7.828 1.085-11.998 7.146-17.066l-.403-.682c-6.541 4.464-10.416 9.517-10.416 17.856m46.714-.108c0 4.169-.496 7.347-1.488 10.214-1.194 3.178-2.387 4.666-5.751 7.254l.589.682c6.355-3.968 10.214-10.416 10.214-18.042 0-8.246-3.859-13.594-10.415-17.856l-.388.682c6.138 4.96 7.239 9.238 7.239 17.065m1205.536.109c0 7.734 3.968 13.981 10.323 18.042l.496-.682c-3.379-2.588-4.572-4.076-5.657-7.254-.992-2.867-1.488-6.045-1.488-10.214 0-7.828 1.085-11.998 7.145-17.066l-.403-.682c-6.541 4.464-10.416 9.517-10.416 17.856m46.713-.108c0 4.169-.495 7.347-1.487 10.214-1.194 3.178-2.388 4.666-5.751 7.254l.589.682c6.355-3.968 10.214-10.416 10.214-18.042 0-8.246-3.859-13.594-10.415-17.856l-.388.682c6.138 4.96 7.239 9.238 7.239 17.065m8.526.109c0 7.734 3.968 13.981 10.323 18.042l.496-.682c-3.379-2.588-4.572-4.076-5.657-7.254-.993-2.867-1.489-6.045-1.489-10.214 0-7.828 1.086-11.998 7.146-17.066l-.403-.682c-6.541 4.464-10.416 9.517-10.416 17.856m46.723-.108c0 4.169-.495 7.347-1.487 10.214-1.194 3.178-2.388 4.666-5.751 7.254l.589.682c6.355-3.968 10.214-10.416 10.214-18.042 0-8.246-3.859-13.594-10.415-17.856l-.388.682c6.138 4.96 7.239 9.238 7.239 17.065" style="stroke-width:.992"/>
  <path class="SlurSegment" stroke="#000" stroke-width="1.74" stroke-linecap="round" stroke-linejoin="round" fill-rule="evenodd" d="M1001.782 234.258c13.1 10.121 39.32 10.121 52.42 0-13.1 17.065-39.32 17.065-52.42 0m229.64 0c13.11 10.121 39.32 10.121 52.43 0-13.11 17.065-39.32 17.065-52.43 0"/>
  <path class="BarLine" stroke="#000" stroke-width="4.46" stroke-linejoin="bevel" d="M1340.662 173.374v101.928m1078.34-101.928v101.928"/>
  <path class="BarLine" stroke="#000" stroke-width="13.64" stroke-linejoin="bevel" d="M2436.362 173.374v101.928"/>
  <path class="StemSlash" stroke="#000" stroke-width="2.73" stroke-linejoin="bevel" d="m1031.332 171.018-31.58 19.84m261.23-19.84-31.59 19.84"/>
  <path class="LedgerLine" stroke="#000" stroke-width="3.97" stroke-linejoin="bevel" d="M870.462 149.938h49.59"/>
  <path class="Stem" stroke="#000" stroke-width="2.73" stroke-linejoin="bevel" d="M188.996 264.872v102.066m97.207-102.066v102.066m70.696-102.066v102.066m70.696-72.187v53.587m382.207-83.466v102.066m70.7-72.187v72.187m70.7-102.066v102.066m88.25-72.187v72.187m70.7-102.066v92.766m70.69-92.766v83.466m320.3-83.466v102.066m62.33-102.066v83.466m62.32-53.587v72.187m124.65-102.066v89.666m62.32-89.666v83.466m186.97-83.466v102.066m62.33-102.066v83.466m99.67-53.587v59.787m124.65-89.666v64.866M218.5 166.326v-65.988m97.207 108.426v-83.626M457.1 208.764V81.738m70.696 127.026V89.019m55.242 119.745V94.708m44.185 163.656V99.258m70.699 159.106V106.538m70.69 102.226V81.738m70.7 127.026V69.338m70.7 139.426V56.938m158.95 151.826v-77.426"/>
  <path class="Stem" stroke="#000" stroke-width="1.91" stroke-linejoin="bevel" d="M1012.112 209.716v-58.538"/>
  <path class="Stem" stroke="#000" stroke-width="2.73" stroke-linejoin="bevel" d="M1298.602 208.764v-77.426"/>
  <path class="Stem" stroke="#000" stroke-width="1.91" stroke-linejoin="bevel" d="M1241.752 209.716v-58.538"/>
  <path class="Stem" stroke="#000" stroke-width="2.73" stroke-linejoin="bevel" d="M1406.002 166.326v-65.988m62.33 108.426v-83.626m186.97 41.188v-65.988m62.32 108.426v-83.626m186.97 83.626V81.738m62.32 127.026V88.12m124.65 120.644V100.882m55.24 107.882V106.538m44.43 102.226V100.338m62.33 108.426V108.605m124.64 100.159v-83.626"/>
  <path class="Note" d="M218.88 253.509c-1.783-3.286-5.549-5.068-10.121-5.068-3.364 0-7.038.992-10.618 2.882-6.541 3.472-10.509 9.316-10.509 14.384 0 1.38.294 2.775.992 4.061 1.782 3.271 5.549 4.96 10.121 4.96 3.364 0 7.038-.883 10.618-2.774 6.541-3.472 10.509-9.331 10.509-14.384 0-1.395-.295-2.775-.992-4.061m85.598 32.829 12.105-9.517c.295-.202.496-.604.496-.992v-.108c0-.388-.201-.698-.387-.884l-1.194-1.194c-.294-.201-.604-.402-.992-.402-.294 0-.698.108-.899.294l-12.601 10.028-12.695-10.028c-.202-.186-.589-.294-.899-.294-.388 0-.589.201-.883.402l-1.287 1.194c-.202.186-.403.589-.403.992 0 .388.201.79.496.992l12.105 9.517-12.105 9.517c-.295.202-.496.604-.496.992 0 .31.201.698.403.899l1.178 1.287c.201.294.604.402.992.402.31 0 .698-.108.899-.294l12.695-10.028 12.601 10.028c.201.186.605.294.899.294.388 0 .79-.108.992-.402l1.194-1.287c.186-.201.387-.589.387-.899 0-.388-.201-.79-.496-.992l-12.105-9.517" style="stroke-width:.992"/>
  <path class="Note" d="M316.087 253.509c-1.783-3.286-5.549-5.068-10.121-5.068-3.364 0-7.038.992-10.618 2.882-6.541 3.472-10.509 9.316-10.509 14.384 0 1.38.294 2.775.992 4.061 1.782 3.271 5.549 4.96 10.121 4.96 3.364 0 7.038-.883 10.618-2.774 6.541-3.472 10.509-9.331 10.509-14.384 0-1.395-.295-2.775-.992-4.061m70.696 0c-1.783-3.286-5.549-5.068-10.121-5.068-3.364 0-7.038.992-10.618 2.882-6.541 3.472-10.509 9.316-10.509 14.384 0 1.38.294 2.775.992 4.061 1.782 3.271 5.549 4.96 10.121 4.96 3.364 0 7.038-.883 10.618-2.774 6.541-3.472 10.509-9.331 10.509-14.384 0-1.395-.295-2.775-.992-4.061m59.087 32.829 12.105-9.517c.295-.202.496-.604.496-.992v-.108c0-.388-.201-.698-.387-.884l-1.194-1.194c-.294-.201-.604-.402-.992-.402-.294 0-.698.108-.899.294l-12.601 10.028-12.695-10.028c-.202-.186-.589-.294-.899-.294-.388 0-.589.201-.883.402l-1.287 1.194c-.202.186-.403.589-.403.992 0 .388.201.79.496.992l12.105 9.517-12.105 9.517c-.295.202-.496.604-.496.992 0 .31.201.698.403.899l1.178 1.287c.201.294.604.402.992.402.31 0 .698-.108.899-.294l12.695-10.028 12.601 10.028c.201.186.605.294.899.294.388 0 .79-.108.992-.402l1.194-1.287c.186-.201.387-.589.387-.899 0-.388-.201-.79-.496-.992l-12.105-9.517m393.82-32.829c-1.783-3.286-5.549-5.068-10.121-5.068-3.364 0-7.038.992-10.618 2.882-6.541 3.472-10.509 9.316-10.509 14.384 0 1.38.294 2.775.992 4.061 1.782 3.271 5.549 4.96 10.121 4.96 3.364 0 7.038-.883 10.618-2.774 6.541-3.472 10.509-9.331 10.509-14.384 0-1.395-.295-2.775-.992-4.061m59.09 32.829 12.106-9.517c.295-.202.496-.604.496-.992v-.108c0-.388-.201-.698-.387-.884l-1.194-1.194c-.294-.201-.604-.402-.992-.402-.294 0-.698.108-.899.294l-12.601 10.028-12.695-10.028c-.202-.186-.589-.294-.899-.294-.388 0-.589.201-.883.402l-1.287 1.194c-.202.186-.403.589-.403.992 0 .388.201.79.496.992l12.105 9.517-12.105 9.517c-.295.202-.496.604-.496.992 0 .31.201.698.403.899l1.178 1.287c.202.294.605.402.992.402.31 0 .697-.108.899-.294l12.695-10.029 12.601 10.029c.201.186.605.294.899.294.388 0 .79-.108.992-.402l1.194-1.287c.186-.201.387-.589.387-.899 0-.388-.201-.79-.496-.992l-12.105-9.517m82.299-32.829c-1.783-3.286-5.549-5.068-10.121-5.068-3.364 0-7.038.992-10.618 2.882-6.541 3.472-10.509 9.316-10.509 14.384 0 1.38.294 2.775.992 4.061 1.782 3.271 5.549 4.96 10.121 4.96 3.364 0 7.038-.883 10.618-2.774 6.541-3.472 10.509-9.331 10.509-14.384 0-1.395-.295-2.775-.992-4.061m76.65 32.829 12.106-9.517c.294-.202.496-.604.496-.992v-.108c0-.388-.202-.698-.388-.884l-1.193-1.194c-.295-.201-.605-.402-.992-.402-.295 0-.698.108-.899.294l-12.601 10.028-12.695-10.028c-.202-.186-.589-.294-.899-.294-.388 0-.589.201-.883.402l-1.287 1.194c-.201.186-.403.589-.403.992 0 .388.202.79.496.992l12.106 9.517-12.106 9.517c-.294.202-.496.604-.496.992 0 .31.202.698.403.899l1.178 1.287c.202.294.605.402.992.402.31 0 .698-.108.899-.294l12.694-10.028 12.602 10.028c.202.186.605.294.899.294.388 0 .79-.108.992-.402l1.194-1.287c.186-.201.387-.589.387-.899 0-.388-.202-.79-.496-.992l-12.105-9.517m82.299-32.829c-1.782-3.286-5.549-5.068-10.121-5.068-3.364 0-7.038.992-10.618 2.882-6.541 3.472-10.509 9.316-10.509 14.384 0 1.38.294 2.775.992 4.061 1.782 3.271 5.549 4.96 10.121 4.96 3.364 0 7.037-.883 10.618-2.774 6.541-3.472 10.509-9.331 10.509-14.384 0-1.395-.294-2.775-.992-4.061m70.7 0c-1.782-3.286-5.549-5.068-10.121-5.068-3.364 0-7.037.992-10.618 2.882-6.541 3.472-10.509 9.316-10.509 14.384 0 1.38.294 2.775.992 4.061 1.782 3.271 5.549 4.96 10.121 4.96 3.364 0 7.037-.883 10.618-2.774 6.541-3.472 10.509-9.331 10.509-14.384 0-1.395-.294-2.775-.992-4.061m308.69 32.829 12.106-9.517c.294-.202.496-.604.496-.992v-.108c0-.388-.202-.698-.388-.884l-1.193-1.194c-.295-.201-.605-.402-.992-.402-.295 0-.698.108-.899.294l-12.601 10.028-12.695-10.028c-.202-.186-.589-.294-.899-.294-.388 0-.589.201-.883.402l-1.287 1.194c-.201.186-.403.589-.403.992 0 .388.202.79.496.992l12.106 9.517-12.106 9.517c-.294.202-.496.604-.496.992 0 .31.202.698.403.899l1.178 1.287c.202.294.605.402.992.402.31 0 .698-.108.899-.294l12.695-10.028 12.601 10.028c.202.186.605.294.899.294.388 0 .79-.108.992-.402l1.194-1.287c.186-.201.387-.589.387-.899 0-.388-.201-.79-.496-.992l-12.105-9.517" style="stroke-width:.992"/>
  <path class="Note" d="M1531.03 253.509c-1.782-3.286-5.549-5.068-10.121-5.068-3.364 0-7.038.992-10.618 2.882-6.541 3.472-10.509 9.316-10.509 14.384 0 1.38.294 2.775.992 4.061 1.782 3.271 5.549 4.96 10.121 4.96 3.364 0 7.037-.883 10.618-2.774 6.541-3.472 10.509-9.331 10.509-14.384 0-1.395-.294-2.775-.992-4.061m62.32 0c-1.782-3.286-5.549-5.068-10.121-5.068-3.364 0-7.038.992-10.618 2.882-6.541 3.472-10.509 9.316-10.509 14.384 0 1.38.294 2.775.992 4.061 1.782 3.271 5.549 4.96 10.121 4.96 3.364 0 7.037-.883 10.618-2.774 6.541-3.472 10.509-9.331 10.509-14.384 0-1.395-.295-2.775-.992-4.061m50.72 32.829 12.106-9.517c.294-.202.496-.604.496-.992v-.108c0-.388-.202-.698-.388-.884l-1.193-1.194c-.294-.201-.605-.402-.992-.402-.294 0-.698.108-.899.294l-12.601 10.028-12.695-10.028c-.202-.186-.589-.294-.899-.294-.388 0-.589.201-.883.402l-1.287 1.194c-.201.186-.403.589-.403.992 0 .388.202.79.496.992l12.106 9.517-12.106 9.517c-.294.202-.496.604-.496.992 0 .31.202.698.403.899l1.178 1.287c.202.294.605.402.992.402.31 0 .698-.108.899-.294l12.695-10.028 12.601 10.028c.202.186.605.294.899.294.388 0 .79-.108.992-.402l1.194-1.287c.186-.201.387-.589.387-.899 0-.388-.201-.79-.496-.992l-12.105-9.517m136.249-32.829c-1.782-3.286-5.549-5.068-10.121-5.068-3.364 0-7.038.992-10.618 2.882-6.541 3.472-10.509 9.316-10.509 14.384 0 1.38.294 2.775.992 4.061 1.782 3.271 5.549 4.96 10.121 4.96 3.364 0 7.037-.883 10.618-2.774 6.541-3.472 10.509-9.331 10.509-14.384 0-1.395-.294-2.775-.992-4.061m62.33 0c-1.782-3.286-5.549-5.068-10.121-5.068-3.364 0-7.037.992-10.618 2.882-6.541 3.472-10.509 9.316-10.509 14.384 0 1.38.294 2.775.992 4.061 1.782 3.271 5.549 4.96 10.121 4.96 3.364 0 7.037-.883 10.618-2.774 6.541-3.472 10.509-9.331 10.509-14.384 0-1.395-.294-2.775-.992-4.061m175.36 32.829 12.106-9.517c.294-.202.496-.604.496-.992v-.108c0-.388-.202-.698-.388-.884l-1.193-1.194c-.294-.201-.605-.402-.992-.402-.294 0-.698.108-.899.294l-12.601 10.028-12.695-10.028c-.202-.186-.589-.294-.899-.294-.387 0-.589.201-.883.402l-1.287 1.194c-.201.186-.403.589-.403.992 0 .388.202.79.496.992l12.106 9.517-12.106 9.517c-.294.202-.496.604-.496.992 0 .31.202.698.403.899l1.178 1.287c.202.294.605.402.992.402.31 0 .698-.108.899-.294l12.695-10.028 12.601 10.028c.202.186.605.294.899.294.388 0 .79-.108.992-.402l1.194-1.287c.186-.201.387-.589.387-.899 0-.388-.201-.79-.496-.992l-12.105-9.517" style="stroke-width:.992"/>
  <path class="Note" d="M2029.62 253.509c-1.782-3.286-5.549-5.068-10.121-5.068-3.364 0-7.038.992-10.618 2.882-6.541 3.472-10.509 9.316-10.509 14.384 0 1.38.294 2.775.992 4.061 1.782 3.271 5.549 4.96 10.121 4.96 3.364 0 7.037-.883 10.618-2.774 6.541-3.472 10.509-9.331 10.509-14.384 0-1.395-.295-2.775-.992-4.061m62.32 0c-1.782-3.286-5.549-5.068-10.121-5.068-3.364 0-7.038.992-10.618 2.882-6.541 3.472-10.509 9.316-10.509 14.384 0 1.38.294 2.775.992 4.061 1.782 3.271 5.549 4.96 10.121 4.96 3.364 0 7.038-.883 10.618-2.774 6.541-3.472 10.509-9.331 10.509-14.384 0-1.395-.294-2.775-.992-4.061m88.06 32.829 12.106-9.517c.294-.202.496-.604.496-.992v-.108c0-.388-.201-.698-.387-.884l-1.194-1.194c-.294-.201-.604-.402-.992-.402-.294 0-.697.108-.899.294l-12.601 10.028-12.695-10.028c-.201-.186-.589-.294-.899-.294-.387 0-.589.201-.883.402l-1.287 1.194c-.201.186-.403.589-.403.992 0 .388.202.79.496.992l12.106 9.517-12.106 9.517c-.294.202-.496.604-.496.992 0 .31.202.698.403.899l1.178 1.287c.202.294.605.402.992.402.31 0 .698-.108.899-.294l12.695-10.028 12.601 10.028c.202.186.605.294.899.294.388 0 .79-.108.992-.402l1.194-1.287c.186-.201.387-.589.387-.899 0-.388-.201-.79-.496-.992l-12.105-9.517m136.259-32.829c-1.782-3.286-5.549-5.068-10.121-5.068-3.364 0-7.038.992-10.618 2.882-6.541 3.472-10.509 9.316-10.509 14.384 0 1.38.294 2.775.992 4.061 1.783 3.271 5.549 4.96 10.122 4.96 3.363 0 7.037-.883 10.617-2.774 6.541-3.472 10.509-9.331 10.509-14.384 0-1.395-.294-2.775-.992-4.061M207.27 174.738l12.106-9.517c.295-.202.496-.604.496-.992v-.108c0-.388-.201-.698-.387-.884l-1.194-1.194c-.294-.201-.604-.402-.992-.402-.294 0-.698.108-.899.294l-12.601 10.029-12.695-10.03c-.202-.185-.589-.293-.899-.293-.388 0-.589.201-.883.402l-1.287 1.194c-.201.186-.403.589-.403.992 0 .388.202.79.496.992l12.105 9.517-12.105 9.517c-.294.201-.496.604-.496.992 0 .31.202.698.403.899l1.178 1.287c.202.294.605.402.992.402.31 0 .698-.108.899-.294l12.695-10.029 12.601 10.03c.201.185.605.293.899.293.388 0 .79-.108.992-.402l1.194-1.287c.186-.201.387-.589.387-.899 0-.388-.201-.79-.496-.992l-12.105-9.517m108.816 29.171c-1.783-3.286-5.549-5.068-10.121-5.068-3.364 0-7.038.992-10.618 2.882-6.541 3.472-10.509 9.316-10.509 14.384 0 1.38.294 2.775.992 4.061 1.782 3.271 5.549 4.96 10.121 4.96 3.364 0 7.038-.883 10.618-2.774 6.541-3.472 10.509-9.331 10.509-14.384 0-1.395-.295-2.775-.992-4.061m141.392 0c-1.783-3.286-5.549-5.068-10.121-5.068-3.364 0-7.038.992-10.618 2.882-6.541 3.472-10.509 9.316-10.509 14.384 0 1.38.294 2.775.992 4.061 1.782 3.271 5.549 4.96 10.121 4.96 3.364 0 7.038-.883 10.618-2.774 6.541-3.472 10.509-9.331 10.509-14.384 0-1.395-.295-2.775-.992-4.061m-11.609-29.171 12.105-9.517c.295-.202.496-.604.496-.992v-.108c0-.388-.201-.698-.387-.884l-1.194-1.194c-.294-.201-.604-.402-.992-.402-.294 0-.698.108-.899.294l-12.601 10.029-12.695-10.03c-.202-.185-.589-.293-.899-.293-.388 0-.589.201-.883.402l-1.287 1.194c-.202.186-.403.589-.403.992 0 .388.201.79.496.992l12.105 9.517-12.105 9.517c-.295.201-.496.604-.496.992 0 .31.201.698.403.899l1.178 1.287c.201.294.604.402.992.402.31 0 .698-.108.899-.294l12.695-10.029 12.601 10.029c.201.186.605.294.899.294.388 0 .79-.108.992-.402l1.194-1.287c.186-.201.387-.589.387-.899 0-.388-.201-.79-.496-.992l-12.105-9.517m82.305 29.171c-1.783-3.286-5.549-5.068-10.121-5.068-3.364 0-7.038.992-10.618 2.882-6.541 3.472-10.509 9.316-10.509 14.384 0 1.38.294 2.775.992 4.061 1.782 3.271 5.549 4.96 10.121 4.96 3.364 0 7.038-.883 10.618-2.774 6.541-3.472 10.509-9.331 10.509-14.384 0-1.395-.295-2.775-.992-4.061m55.242 0c-1.783-3.286-5.549-5.068-10.121-5.068-3.364 0-7.038.992-10.618 2.882-6.541 3.472-10.509 9.316-10.509 14.384 0 1.38.294 2.775.992 4.061 1.782 3.271 5.549 4.96 10.121 4.96 3.364 0 7.038-.883 10.618-2.774 6.541-3.472 10.509-9.331 10.509-14.384 0-1.395-.295-2.775-.992-4.061m44.186 49.6c-1.783-3.286-5.549-5.068-10.121-5.068-3.364 0-7.038.992-10.618 2.882-6.541 3.472-10.509 9.316-10.509 14.384 0 1.38.294 2.775.992 4.061 1.782 3.271 5.549 4.96 10.121 4.96 3.364 0 7.038-.883 10.618-2.774 6.541-3.472 10.509-9.331 10.509-14.384 0-1.395-.295-2.775-.992-4.061m70.696 0c-1.783-3.286-5.549-5.068-10.121-5.068-3.364 0-7.038.992-10.618 2.882-6.541 3.472-10.509 9.316-10.509 14.384 0 1.38.294 2.775.992 4.061 1.782 3.271 5.549 4.96 10.121 4.96 3.364 0 7.038-.883 10.618-2.774 6.541-3.472 10.509-9.331 10.509-14.384 0-1.395-.295-2.775-.992-4.061m70.691-49.6c-1.783-3.286-5.549-5.068-10.121-5.068-3.364 0-7.038.992-10.618 2.882-6.541 3.472-10.509 9.316-10.509 14.384 0 1.38.294 2.775.992 4.061 1.782 3.271 5.549 4.96 10.121 4.96 3.364 0 7.038-.883 10.618-2.774 6.541-3.472 10.509-9.331 10.509-14.384 0-1.395-.295-2.775-.992-4.061m-11.61-29.171 12.106-9.517c.295-.202.496-.604.496-.992v-.108c0-.388-.201-.698-.387-.884l-1.194-1.194c-.294-.201-.604-.402-.992-.402-.294 0-.698.108-.899.294l-12.601 10.029-12.695-10.03c-.202-.185-.589-.293-.899-.293-.388 0-.589.201-.883.402l-1.287 1.194c-.202.186-.403.589-.403.992 0 .388.202.79.496.992l12.105 9.517-12.105 9.517c-.294.201-.496.604-.496.992 0 .31.202.698.403.899l1.178 1.287c.202.294.605.402.992.402.31 0 .698-.108.899-.294l12.695-10.029 12.601 10.03c.201.185.605.293.899.293.388 0 .79-.108.992-.402l1.194-1.287c.186-.201.387-.589.387-.899 0-.388-.201-.79-.496-.992l-12.105-9.517m82.309 29.171c-1.783-3.286-5.549-5.068-10.121-5.068-3.364 0-7.038.992-10.618 2.882-6.541 3.472-10.509 9.316-10.509 14.384 0 1.38.294 2.775.992 4.061 1.782 3.271 5.549 4.96 10.121 4.96 3.364 0 7.038-.883 10.618-2.774 6.541-3.472 10.509-9.331 10.509-14.384 0-1.395-.295-2.775-.992-4.061m70.7 0c-1.783-3.286-5.549-5.068-10.121-5.068-3.364 0-7.038.992-10.618 2.882-6.541 3.472-10.509 9.316-10.509 14.384 0 1.38.294 2.775.992 4.061 1.782 3.271 5.549 4.96 10.121 4.96 3.364 0 7.038-.883 10.618-2.774 6.541-3.472 10.509-9.331 10.509-14.384 0-1.395-.295-2.775-.992-4.061m-11.61-66.371 12.106-9.517c.295-.201.496-.604.496-.992v-.108c0-.388-.201-.698-.387-.884l-1.194-1.194c-.294-.201-.604-.402-.992-.402-.294 0-.698.108-.899.294l-12.601 10.028-12.695-10.028c-.202-.186-.589-.294-.899-.294-.388 0-.589.201-.883.402l-1.287 1.194c-.202.186-.403.589-.403.992 0 .388.201.79.496.992l12.105 9.517-12.105 9.517c-.295.201-.496.604-.496.992 0 .31.201.698.403.899l1.178 1.287c.202.294.605.402.992.402.31 0 .697-.108.899-.294l12.695-10.029 12.601 10.029c.201.186.605.294.899.294.388 0 .79-.108.992-.402l1.194-1.287c.186-.201.387-.589.387-.899 0-.388-.201-.79-.496-.992l-12.105-9.517m170.559 66.371c-1.782-3.286-5.549-5.068-10.121-5.068-3.364 0-7.038.992-10.618 2.882-6.541 3.472-10.509 9.316-10.509 14.384 0 1.38.294 2.775.992 4.061 1.782 3.271 5.549 4.96 10.121 4.96 3.364 0 7.037-.883 10.618-2.774 6.541-3.472 10.509-9.331 10.509-14.384 0-1.395-.295-2.775-.992-4.061" style="stroke-width:.992"/>
  <path class="Note" d="M1012.376 206.318c-1.248-2.3-3.885-3.548-7.085-3.548-2.355 0-4.926.694-7.433 2.018-4.578 2.43-7.356 6.52-7.356 10.069 0 .965.206 1.942.694 2.842 1.248 2.29 3.885 3.472 7.085 3.472 2.355 0 4.926-.618 7.433-1.942 4.578-2.43 7.356-6.532 7.356-10.069 0-.976-.206-1.942-.694-2.842" style="stroke-width:.6944"/>
  <path class="Note" d="M1298.98 203.909c-1.782-3.286-5.549-5.068-10.121-5.068-3.364 0-7.037.992-10.618 2.882-6.541 3.472-10.509 9.316-10.509 14.384 0 1.38.294 2.775.992 4.061 1.782 3.271 5.549 4.96 10.121 4.96 3.364 0 7.037-.883 10.618-2.774 6.541-3.472 10.509-9.331 10.509-14.384 0-1.395-.294-2.775-.992-4.061" style="stroke-width:.992"/>
  <path class="Note" d="M1242.016 206.318c-1.248-2.3-3.885-3.548-7.085-3.548-2.355 0-4.926.694-7.433 2.018-4.578 2.43-7.356 6.52-7.356 10.069 0 .965.206 1.942.694 2.842 1.248 2.29 3.885 3.472 7.085 3.472 2.355 0 4.926-.618 7.433-1.942 4.578-2.43 7.356-6.532 7.356-10.069 0-.976-.206-1.942-.694-2.842" style="stroke-width:.6944"/>
  <path class="Note" d="m1394.77 174.738 12.106-9.517c.294-.202.496-.604.496-.992v-.108c0-.388-.202-.698-.388-.884l-1.193-1.194c-.294-.201-.605-.402-.992-.402-.294 0-.698.108-.899.294l-12.601 10.029-12.695-10.029c-.202-.186-.589-.294-.899-.294-.387 0-.589.201-.883.402l-1.287 1.194c-.201.186-.403.589-.403.992 0 .388.202.79.496.992l12.106 9.517-12.106 9.517c-.294.202-.496.604-.496.992 0 .31.202.698.403.899l1.178 1.287c.202.294.605.402.992.402.31 0 .698-.108.899-.294l12.695-10.028 12.601 10.028c.202.186.605.294.899.294.388 0 .79-.108.992-.402l1.194-1.287c.186-.201.387-.589.387-.899 0-.388-.201-.79-.496-.992l-12.105-9.517m73.939 29.171c-1.782-3.286-5.549-5.068-10.121-5.068-3.364 0-7.037.992-10.618 2.882-6.541 3.472-10.509 9.316-10.509 14.384 0 1.38.294 2.775.992 4.061 1.782 3.271 5.549 4.96 10.121 4.96 3.364 0 7.037-.883 10.618-2.774 6.541-3.472 10.509-9.331 10.509-14.384 0-1.395-.294-2.775-.992-4.061m175.36-29.171 12.106-9.517c.294-.202.496-.604.496-.992v-.108c0-.388-.202-.698-.388-.884l-1.193-1.194c-.294-.201-.605-.402-.992-.402-.294 0-.698.108-.899.294l-12.601 10.029-12.695-10.029c-.202-.186-.589-.294-.899-.294-.388 0-.589.201-.883.402l-1.287 1.194c-.201.186-.403.589-.403.992 0 .388.202.79.496.992l12.106 9.517-12.106 9.517c-.294.202-.496.604-.496.992 0 .31.202.698.403.899l1.178 1.287c.202.294.605.402.992.402.31 0 .698-.108.899-.294l12.695-10.028 12.601 10.028c.202.186.605.294.899.294.388 0 .79-.108.992-.402l1.194-1.287c.186-.201.387-.589.387-.899 0-.388-.201-.79-.496-.992l-12.105-9.517M1718 203.909c-1.782-3.286-5.549-5.068-10.121-5.068-3.364 0-7.037.992-10.618 2.882-6.541 3.472-10.509 9.316-10.509 14.384 0 1.38.294 2.775.992 4.061 1.782 3.271 5.549 4.96 10.121 4.96 3.364 0 7.037-.883 10.618-2.774 6.541-3.472 10.509-9.331 10.509-14.384 0-1.395-.294-2.775-.992-4.061m186.97 0c-1.782-3.286-5.549-5.068-10.121-5.068-3.364 0-7.037.992-10.618 2.882-6.541 3.472-10.509 9.316-10.509 14.384 0 1.38.294 2.775.992 4.061 1.782 3.271 5.549 4.96 10.121 4.96 3.364 0 7.037-.883 10.618-2.774 6.541-3.472 10.509-9.331 10.509-14.384 0-1.395-.294-2.775-.992-4.061m-11.61-29.171 12.106-9.517c.294-.202.496-.604.496-.992v-.108c0-.388-.202-.698-.388-.884l-1.193-1.194c-.295-.201-.605-.402-.992-.402-.294 0-.698.108-.899.294l-12.601 10.029-12.695-10.029c-.202-.186-.589-.294-.899-.294-.388 0-.589.201-.883.402l-1.287 1.194c-.201.186-.403.589-.403.992 0 .388.202.79.496.992l12.106 9.517-12.106 9.517c-.294.202-.496.604-.496.992 0 .31.202.698.403.899l1.178 1.287c.202.294.605.402.992.402.31 0 .698-.108.899-.294l12.695-10.028 12.601 10.028c.202.186.605.294.899.294.388 0 .79-.108.992-.402l1.194-1.287c.186-.201.387-.589.387-.899 0-.388-.201-.79-.496-.992l-12.105-9.517m73.929 29.171c-1.782-3.286-5.549-5.068-10.121-5.068-3.364 0-7.038.992-10.618 2.882-6.541 3.472-10.509 9.316-10.509 14.384 0 1.38.294 2.775.992 4.061 1.782 3.271 5.549 4.96 10.121 4.96 3.364 0 7.037-.883 10.618-2.774 6.541-3.472 10.509-9.331 10.509-14.384 0-1.395-.294-2.775-.992-4.061m124.65 0c-1.782-3.286-5.549-5.068-10.121-5.068-3.364 0-7.038.992-10.618 2.882-6.541 3.472-10.509 9.316-10.509 14.384 0 1.38.294 2.775.992 4.061 1.782 3.271 5.549 4.96 10.121 4.96 3.364 0 7.038-.883 10.618-2.774 6.541-3.472 10.509-9.331 10.509-14.384 0-1.395-.294-2.775-.992-4.061m55.24 0c-1.782-3.286-5.549-5.068-10.121-5.068-3.364 0-7.038.992-10.618 2.882-6.541 3.472-10.509 9.316-10.509 14.384 0 1.38.294 2.775.992 4.061 1.782 3.271 5.549 4.96 10.121 4.96 3.364 0 7.038-.883 10.618-2.774 6.541-3.472 10.509-9.331 10.509-14.384 0-1.395-.294-2.775-.992-4.061m44.43 0c-1.782-3.286-5.549-5.068-10.121-5.068-3.364 0-7.038.992-10.618 2.882-6.541 3.472-10.509 9.316-10.509 14.384 0 1.38.294 2.775.992 4.061 1.783 3.271 5.549 4.96 10.122 4.96 3.363 0 7.037-.883 10.617-2.774 6.541-3.472 10.509-9.331 10.509-14.384 0-1.395-.294-2.775-.992-4.061M2180 174.738l12.106-9.517c.294-.202.496-.604.496-.992v-.108c0-.388-.201-.698-.387-.884l-1.194-1.194c-.294-.201-.604-.402-.992-.402-.294 0-.697.108-.899.294l-12.601 10.029-12.695-10.029c-.201-.186-.589-.294-.899-.294-.387 0-.589.201-.883.402l-1.287 1.194c-.201.186-.403.589-.403.992 0 .388.202.79.496.992l12.106 9.517-12.106 9.517c-.294.202-.496.604-.496.992 0 .31.202.698.403.899l1.178 1.287c.202.294.605.402.992.402.31 0 .698-.108.899-.294l12.695-10.028 12.601 10.028c.202.186.605.294.899.294.388 0 .79-.108.992-.402l1.194-1.287c.186-.201.387-.589.387-.899 0-.388-.201-.79-.496-.992l-12.105-9.517m73.939 29.171c-1.782-3.286-5.549-5.068-10.121-5.068-3.364 0-7.038.992-10.618 2.882-6.541 3.472-10.509 9.316-10.509 14.384 0 1.38.294 2.775.992 4.061 1.782 3.271 5.549 4.96 10.121 4.96 3.364 0 7.038-.883 10.618-2.774 6.541-3.472 10.509-9.331 10.509-14.384 0-1.395-.294-2.775-.992-4.061m124.65 0c-1.782-3.286-5.549-5.068-10.121-5.068-3.364 0-7.038.992-10.618 2.882-6.541 3.472-10.509 9.316-10.509 14.384 0 1.38.294 2.775.992 4.061 1.783 3.271 5.549 4.96 10.122 4.96 3.363 0 7.037-.883 10.617-2.774 6.541-3.472 10.509-9.331 10.509-14.384 0-1.395-.294-2.775-.992-4.061" style="stroke-width:.992"/>
  <path class="Clef" d="M48.039 199.337H37.127c-.698 0-1.287.604-1.287 1.286v47.43c0 .682.589 1.286 1.287 1.286h10.912c.697 0 1.286-.604 1.286-1.286v-47.43c0-.682-.589-1.286-1.286-1.286m21.436 0H58.563c-.698 0-1.302.604-1.302 1.286v47.43c0 .682.604 1.286 1.302 1.286h10.912c.698 0 1.286-.604 1.286-1.286v-47.43c0-.682-.588-1.286-1.286-1.286" style="stroke-width:.992"/>
  <path class="TimeSig" d="M97.755 212.194h17.034v7.393h-8.152c-.776 0-1.411.62-1.411 1.396v1.89c0 .776.635 1.396 1.41 1.396h30.009a1.39 1.39 0 0 0 1.394-1.396v-1.89a1.39 1.39 0 0 0-1.394-1.396h-8.866v-7.393h8.866a1.39 1.39 0 0 0 1.394-1.395v-1.891a1.39 1.39 0 0 0-1.394-1.395h-8.866v-15.841c0-.527-.31-1.008-.776-1.24l-1.208-.605a1.446 1.446 0 0 0-1.582.233l-8.974 8.246c-.279.279-.45.635-.45 1.038v8.169h-11.423s11.036-11.935 22.785-27.574c.852-1.148.356-2.186.17-2.372l-2.154-2.186a1.41 1.41 0 0 0-.992-.418c-.589 0-14.043.03-14.756 0-.713-.016-1.24.604-1.318 1.209 0 0-.526 7.3-3.115 15.376-2.573 8.044-5.487 12.989-8.122 16.585 0 0-.542.976-.186 1.72.341.744.977 1.814.977 1.814s.248.527 1.1.527m0 49.337h17.034v7.393h-8.152c-.776 0-1.411.62-1.411 1.396v1.89c0 .776.635 1.396 1.41 1.396h30.009a1.39 1.39 0 0 0 1.394-1.396v-1.89a1.39 1.39 0 0 0-1.394-1.396h-8.866v-7.393h8.866a1.39 1.39 0 0 0 1.394-1.395v-1.891a1.39 1.39 0 0 0-1.394-1.395h-8.866v-15.841c0-.527-.31-1.007-.776-1.24l-1.208-.605a1.446 1.446 0 0 0-1.582.233l-8.974 8.246c-.279.279-.45.635-.45 1.038v8.169h-11.423s11.036-11.935 22.785-27.574c.852-1.148.356-2.186.17-2.372l-2.154-2.186a1.41 1.41 0 0 0-.992-.418c-.589 0-14.043.031-14.756 0-.713-.016-1.24.604-1.318 1.209 0 0-.526 7.3-3.115 15.376-2.573 8.045-5.487 12.989-8.122 16.585 0 0-.542.977-.186 1.72.341.744.977 1.814.977 1.814s.248.527 1.1.527" style="stroke-width:.992"/>
  <path class="Rest" d="M770.943 253.835c-.744-.264-1.41.093-1.72.712-.295.605-3.1 5.999-7.378 9.378-1.334 1.054-2.884 1.736-4.434 2.124a7.077 7.077 0 0 0 1.628-4.759 7.07 7.07 0 0 0-7.316-6.82c-3.906.14-6.975 3.41-6.836 7.316a7.077 7.077 0 0 0 4.697 6.417c1.55.682 3.441 1.038 5.471.977 2.822-.109 5.875-1.039 8.494-3.1 1.225-.962 2.372-2.186 3.395-3.473v.016l-4.464 15.779s0 .015-.015.015v.016c-.466.945-3.69 7.068-7.673 10.214-1.333 1.07-2.883 1.752-4.433 2.124a7.01 7.01 0 0 0 1.628-4.743c-.14-3.922-3.41-6.975-7.317-6.836-3.906.14-6.975 3.41-6.835 7.332.108 2.976 2.046 5.456 4.696 6.417 1.55.666 3.441 1.038 5.472.961a14.522 14.522 0 0 0 8.494-3.085c1.209-.96 2.356-2.17 3.379-3.472l-10.121 36.178 2.65.744 18.522-65.674.868-3.1c.202-.728-.108-1.41-.852-1.658m630.709 0c-.744-.28-1.41.062-1.736.666-.325.604-3.487 6.479-7.874 9.718-1.379 1.008-2.96 1.643-4.51 1.969a7.006 7.006 0 0 0 1.782-4.697c0-3.921-3.177-7.098-7.083-7.098a7.098 7.098 0 0 0-7.099 7.098c0 2.976 1.86 5.55 4.48 6.588 1.518.713 3.41 1.162 5.44 1.162 2.821 0 5.905-.821 8.602-2.805 1.256-.914 2.434-2.108 3.503-3.348l-11.299 35.34 2.62.853 13.965-43.742c.232-.728-.062-1.41-.79-1.704m498.59 0c-.744-.28-1.411.062-1.736.666-.326.604-3.488 6.479-7.875 9.718-1.379 1.008-2.96 1.643-4.51 1.969a7.006 7.006 0 0 0 1.782-4.697c0-3.921-3.177-7.098-7.083-7.098a7.098 7.098 0 0 0-7.099 7.098c0 2.976 1.86 5.55 4.48 6.588 1.518.713 3.41 1.162 5.44 1.162 2.821 0 5.905-.821 8.602-2.805 1.256-.914 2.434-2.108 3.503-3.348l-11.299 35.34 2.62.853 13.965-43.742c.232-.728-.062-1.41-.79-1.704" style="stroke-width:.992"/>
  <path class="Beam" fill-rule="evenodd" d="M187.632 360.738h170.631v12.4H187.632v-12.4m97.207-18.6h73.424v12.4h-73.424v-12.4m523.603 18.6h144.12v12.4h-144.12v-12.4m0-18.6h144.12v12.4h-144.12v-12.4m229.65 18.547 144.12-18.959v12.507l-144.12 18.959v-12.507m0-18.6 73.42-9.659v12.507l-73.42 9.659v-12.507m461.69 18.383 65.05-19.414v12.94l-65.05 19.415v-12.941m0-18.6 65.05-19.414v12.94l-65.05 19.415v-12.941m124.65 18.84 189.7-18.872v12.462l-189.7 18.871v-12.461m124.64-31 65.06-6.472v12.462l-65.06 6.471v-12.461m249.3 30.76 65.05-19.414v12.94l-65.05 19.415v-12.941m0-18.6 65.05-19.414v12.94l-65.05 19.415v-12.941m161.99 6.349 127.38-25.343v12.643l-127.38 25.343v-12.643M217.136 93.244l99.935 25.496v12.797l-99.935-25.496V93.244m238.6-18.019 243.546 25.081v12.465L455.736 87.69V75.225m0 18.6 243.546 25.081v12.465L455.736 106.29V93.825m70.696 25.88 57.97 5.97v12.466l-57.97-5.97v-12.466m240.82-43.783 144.12-25.278v12.589l-144.12 25.279v-12.59m0 18.6 73.42-12.878v12.589l-73.42 12.879v-12.59m300.34 30.616h232.38v12.4h-232.38v-12.4m232.38 18.6h-32.24v12.4h32.24v-12.4m104.67-51.158 65.05 25.886v13.345l-65.05-25.885V92.58m0 18.6 32.24 12.829v13.346l-32.24-12.829V111.18m249.29-18.6 65.05 25.886v13.345l-65.05-25.885V92.58m0 18.6 32.24 12.829v13.346l-32.24-12.829V111.18m249.3-35.953 244.94 25.079v12.465l-244.94-25.079V75.227m0 18.6 32.24 3.301v12.465l-32.24-3.301V93.827m186.97 19.143 57.97 5.936v12.465l-57.97-5.936V112.97m0 18.6 57.97 5.936v12.465l-57.97-5.936V131.57m99.67-37.848 189.7 25.162v12.509l-189.7-25.162V93.722m0 18.6 32.24 4.277v12.508l-32.24-4.276v-12.509m189.7 25.162-32.24-4.276v12.508l32.24 4.277v-12.509"/>
  <path class="Hook" d="M1013.582 153.608c-.065-.206-.694-2.636-.694-2.777-.065-.282-.488-.488-.835-.488a.92.92 0 0 0-.901.9v15.7c0 .347.282.619.553.76 2.919.9 8.962 4.73 13.476 12.434 1.248 2.148 3.266 5.067 3.266 10.904 0 5.002-.77 10.275-2.018 15.136-.206.77-.412 1.464.347 1.736.76.282 1.042-.272 1.324-.966 2.495-6.12 3.125-12.51 3.125-16.807v-1.323c-.348-8.962-5.49-15.56-5.49-15.56.206 0-6.391-8.538-8.268-11.457-2.56-3.96-3.82-7.91-3.885-8.192m229.65 0c-.065-.206-.694-2.636-.694-2.777-.065-.282-.488-.488-.835-.488a.92.92 0 0 0-.901.9v15.7c0 .347.282.619.553.76 2.919.9 8.962 4.73 13.476 12.434 1.248 2.148 3.266 5.067 3.266 10.904 0 5.002-.77 10.275-2.018 15.136-.206.77-.412 1.464.347 1.736.76.282 1.042-.272 1.324-.966 2.495-6.12 3.125-12.51 3.125-16.807v-1.323c-.348-8.962-5.49-15.56-5.49-15.56.206 0-6.391-8.538-8.268-11.457-2.56-3.96-3.82-7.91-3.885-8.192" style="stroke-width:.6944"/>
  <path class="Tempo" d="M120.675 16h-3.297v44.969c-1.141-.672-2.516-1.094-4.094-1.266a12.674 12.674 0 0 0-1.344-.062c-2.719 0-5.656.781-8.39 2.265-3.188 1.719-5.75 4.188-7.172 6.922-1.453 2.766-1.594 5.469-.422 7.641 1.375 2.578 4.39 3.906 7.937 3.906 2.641 0 5.594-.734 8.407-2.25 5.14-2.781 8.359-7.375 8.375-11.375V16m22.25 52.328h30.234v-6.906h-30.234v6.906m0-12.359h30.234v-6.906h-30.234v6.906m72.781-24.61h-2.11c-3.781 2.829-8.031 4.032-15.171 4.141v3.359h2.515c5.344 0 5.406.125 5.344 5.047v21.297c0 3.719 0 3.906-.422 4.5-.547.656-1.734.906-4.984.906h-1.922v3.235h23.937v-3.235h-1.906c-3.187 0-4.328-.25-4.859-.906-.422-.594-.422-.844-.422-4.5V31.359m29.39 0c-9 0-15.593 9.188-15.593 21.672 0 12.469 6.593 21.657 15.593 21.657 8.829 0 15.547-9.188 15.547-21.36 0-7.078-1.625-12.297-5.172-16.75-2.812-3.406-6.359-5.219-10.375-5.219m-.062 3.125c1.797 0 3.25 1.079 3.906 3 .781 1.985 1.25 8.282 1.25 15.719 0 6.188-.469 12.656-1.015 14.703-.657 2.391-2.094 3.657-4.141 3.657-1.859 0-3.234-1.016-3.953-3-.781-1.985-1.266-8.344-1.266-15.532 0-6.312.485-12.843 1.016-14.89.672-2.391 2.109-3.657 4.203-3.657m41.469 14.704c1.734-.657 2.578-1.079 3.406-1.688 2.344-1.609 3.672-4.078 3.672-6.891 0-5.531-5.219-9.25-13.031-9.25-9.297 0-15.297 4.985-15.297 12.782 0 4.75 2.218 8.218 6.968 10.75-1.859.593-2.64.828-3.671 1.375-3 1.562-4.61 4.312-4.61 7.797 0 6.484 5.813 10.625 14.938 10.625 9.656 0 16.203-5.532 16.203-13.75 0-5.641-2.766-9.36-8.578-11.75m-3.375-1.266c-2.516-.594-4.375-1.141-5.516-1.563-2.75-1.015-4.562-3.468-4.562-6.109 0-3.312 2.765-5.766 6.484-5.766 4.016 0 6.547 2.641 6.547 6.844 0 2.703-1.031 4.985-2.953 6.594m-7.672 8.578c2.453.672 5.453 1.563 6.953 2.047 3.781 1.312 5.219 2.937 5.219 6 0 4.078-3.36 7.016-8.094 7.016-4.859 0-7.797-2.875-7.797-7.672 0-3.188 1.016-5.219 3.719-7.391"/>
  <path class="NoteDot" d="M1082.722 211.938a4.955 4.955 0 0 0 4.96 4.96 4.955 4.955 0 0 0 4.96-4.96 4.955 4.955 0 0 0-4.96-4.96 4.955 4.955 0 0 0-4.96 4.96m399.37 0a4.955 4.955 0 0 0 4.96 4.96 4.955 4.955 0 0 0 4.96-4.96 4.955 4.955 0 0 0-4.96-4.96 4.955 4.955 0 0 0-4.96 4.96m249.29 0a4.955 4.955 0 0 0 4.96 4.96 4.955 4.955 0 0 0 4.96-4.96 4.955 4.955 0 0 0-4.96-4.96 4.955 4.955 0 0 0-4.96 4.96" style="stroke-width:.992"/>
</svg>
