<svg width="2583.088" height="817.273" version="1.2" xmlns="http://www.w3.org/2000/svg">
  <path style="fill:#916f7c;fill-opacity:1;stroke:#000;stroke-width:0;stroke-linecap:round;stroke-linejoin:round;stroke-miterlimit:4;stroke-dasharray:none;stroke-opacity:1;paint-order:stroke markers fill" d="M2058.592 283.415h483.197v427.161h-483.197z"/>
  <path style="fill:#ff7f2a;fill-opacity:1;stroke:#000;stroke-width:0;stroke-linecap:round;stroke-linejoin:round;stroke-miterlimit:4;stroke-dasharray:none;stroke-opacity:1;paint-order:stroke markers fill" d="M1901.216 283.415h162.41v427.161h-162.41z"/>
  <path style="fill:#ff2a7f;fill-opacity:1;stroke:#000;stroke-width:0;stroke-linecap:round;stroke-linejoin:round;stroke-miterlimit:4;stroke-dasharray:none;stroke-opacity:1;paint-order:stroke markers fill" d="M1729.027 283.415h175.964v427.161h-175.964z"/>
  <path style="fill:#abc837;fill-opacity:1;stroke:#000;stroke-width:0;stroke-linecap:round;stroke-linejoin:round;stroke-miterlimit:4;stroke-dasharray:none;stroke-opacity:1;paint-order:stroke markers fill" d="M1480.164 283.415h254.203v427.161h-254.203z"/>
  <path style="fill:#37c871;fill-opacity:1;stroke:#000;stroke-width:0;stroke-linecap:round;stroke-linejoin:round;stroke-miterlimit:4;stroke-dasharray:none;stroke-opacity:1;paint-order:stroke markers fill" d="M1245.235 283.415h239.962v427.161h-239.962z"/>
  <path style="fill:#f5d;fill-opacity:1;stroke:#000;stroke-width:0;stroke-linecap:round;stroke-linejoin:round;stroke-miterlimit:4;stroke-dasharray:none;stroke-opacity:1;paint-order:stroke markers fill" d="M1023.776 283.415h226.799v427.161h-226.799z"/>
  <path style="fill:#ff2a2a;fill-opacity:1;stroke:#000;stroke-width:0;stroke-linecap:round;stroke-linejoin:round;stroke-miterlimit:4;stroke-dasharray:none;stroke-opacity:1;paint-order:stroke markers fill" d="M695.102 283.415h334.013v427.161H695.102z"/>
  <path class="StaffLines" fill="none" stroke="#000" stroke-width="2.73" stroke-linejoin="bevel" d="M350.186 121.485h2216.902m-2216.902 24.8h2216.902m-2216.902 24.8h2216.902m-2216.902 24.8h2216.902m-2216.902 24.8h2216.902m-2216.902 124h2216.902m-2216.902 24.8h2216.902m-2216.902 24.8h2216.902m-2216.902 24.8h2216.902m-2216.902 24.8h2216.902M350.186 564.636h2216.902m-2216.902 24.8h2216.902m-2216.902 24.8h2216.902m-2216.902 24.8h2216.902m-2216.902 24.8h2216.902"/>
  <path class="InstrumentName" d="M79.86 595.786h-1.907l-2 2.95c-3.64-2.65-5.5-3.36-8.953-3.36-4.75 0-8.797 2-12.14 6-3.204 3.82-4.704 8.02-4.704 13.16 0 10.8 7.047 18.45 16.907 18.45 8 0 13.093-4.7 14.25-13.09l-2.36-.41c-1.343 7.46-5.14 11.16-11.297 11.16-7.406 0-10.906-5.11-10.906-15.91 0-5.7.75-9.45 2.453-12.45 1.547-2.8 4.61-4.55 7.86-4.55 3.5 0 6.593 1.85 8.5 5.05.953 1.66 1.64 3.5 2.843 7.45h2.204l-.75-14.45m16.531 12.41c-6.141 0-10.891 5.45-10.891 12.45 0 6.84 4.797 12.34 10.797 12.34 6 0 10.797-5.5 10.797-12.4 0-6.85-4.797-12.39-10.703-12.39m0 2.14c3.5 0 5.453 3.65 5.453 10.25 0 6.65-1.953 10.25-5.547 10.25-3.594 0-5.547-3.6-5.547-10.19 0-6.81 1.891-10.31 5.641-10.31m22.39-1.39-8.656.54v2.16h1.813c1.89.05 2.14.34 2.14 2.5v14.3c-.047.75-.093 1.04-.297 1.29-.343.46-1.296.66-3.453.71h-.203v1.79h12.656v-1.79h-.203c-3.343-.11-3.797-.36-3.797-2.16v-7.39c0-2.45.344-4.7.907-5.86 1.047-2.25 3.297-3.8 5.437-3.8 1.313 0 2.813.71 3.563 1.75.75 1.1 1.093 2.6 1.093 5v10.46c-.046.75-.093 1.04-.296 1.29-.36.46-1.36.66-3.5.71h-.204v1.79h12.657v-1.79h-.203c-3.297-.11-3.75-.36-3.75-2.16v-10.05c0-3.59-.157-4.5-1.047-6.2-1.25-2.39-3.75-3.84-6.75-3.84-3.25 0-5.703 1.5-7.907 4.79v-4.04m30.25 0v-9.91h-2.046c-.5 6.5-2.704 9.8-6.75 10.11v1.94h4.093v12.75c0 3.5.094 4.75.594 5.9.813 2.1 2.813 3.25 5.703 3.25 4.5 0 7.406-3.4 7.406-8.7 0-.3 0-.64-.046-1.14h-2.11c-.14 4.5-1.453 6.8-3.89 6.8-1.157 0-2.157-.61-2.5-1.46-.313-.7-.454-1.95-.454-3.75v-13.65h7.344v-2.14h-7.344m19.641 0-8.859.54v2.16h2.047c1.906.05 2.156.34 2.156 2.5v14.3c-.047.75-.094 1.04-.297 1.29-.359.46-1.359.66-3.5.71h-.203v1.79h13.344v-1.79h-.891c-3.359-.11-3.797-.36-3.797-2.16v-2.7c.047-8.39 3.047-14.8 6.938-15-.688.81-.891 1.31-.891 2.25 0 1.61 1.141 2.75 2.75 2.75 1.844 0 3.047-1.35 3.047-3.35 0-2.45-1.703-4.04-4.344-4.04-3.156 0-5.859 2.5-7.5 6.95v-6.2m34.469 7.2c0-3.16-.547-4.75-2-5.95-1.641-1.36-4.094-2-7.297-2-5.641 0-9.75 2.64-9.75 6.29 0 1.85 1.156 3.05 2.906 3.05 1.594 0 2.703-1.05 2.703-2.55 0-.65-.25-1.34-.75-2.04-.312-.36-.359-.46-.359-.71 0-1 2-1.9 4.406-1.9 1.594 0 3.344.5 4.141 1.25.953.81 1.312 2 1.312 4.25v1.95c-5.203.91-6.859 1.3-9.312 2.25-4.344 1.61-6.391 3.91-6.391 7.11 0 3.59 2.797 5.84 7.25 5.84 3.453 0 6.547-1.4 8.703-3.95.797 2.55 2.047 3.55 4.391 3.55 2.25 0 4.609-1.44 4.609-2.89 0-.36-.203-.61-.5-.61-.203 0-.406.06-.75.2-.703.3-1 .36-1.406.36-1.406 0-1.906-.91-1.906-3.45v-10.05m-4.688 6.09c0 3-.156 3.71-1 5-1.25 1.85-3.5 3.1-5.703 3.1-2.297 0-3.953-1.64-3.953-3.89 0-2.11 1.047-3.61 3.25-4.66 1.547-.7 3.5-1.2 7.406-1.84v2.29m18.891-26.86-8.594.57v2.14h1.75c1.891.04 2.141.36 2.141 2.5v19.45c0 6.95-.297 10.75-.891 12.91h1.891l2.453-3.91c2.047 2.7 4.406 3.95 7.5 3.95 6.203 0 10.75-5.29 10.75-12.54 0-7.21-4.203-12.25-10.203-12.25-3.047 0-4.891 1.04-6.797 3.89v-16.71m5.906 15.36c3.75 0 5.844 3.66 5.844 10.21 0 6.34-2.047 9.89-5.703 9.89-3.953 0-6.297-3.64-6.297-9.8 0-6.7 2.156-10.3 6.156-10.3m35.485 5.41c0-3.16-.547-4.75-2-5.95-1.641-1.36-4.094-2-7.297-2-5.641 0-9.75 2.64-9.75 6.29 0 1.85 1.156 3.05 2.906 3.05 1.594 0 2.703-1.05 2.703-2.55 0-.65-.25-1.34-.75-2.04-.312-.36-.359-.46-.359-.71 0-1 2-1.9 4.406-1.9 1.594 0 3.344.5 4.141 1.25.953.81 1.312 2 1.312 4.25v1.95c-5.203.91-6.859 1.3-9.312 2.25-4.344 1.61-6.391 3.91-6.391 7.11 0 3.59 2.797 5.84 7.25 5.84 3.453 0 6.547-1.4 8.703-3.95.797 2.55 2.047 3.55 4.391 3.55 2.25 0 4.609-1.44 4.609-2.89 0-.36-.203-.61-.5-.61-.203 0-.406.06-.75.2-.703.3-1 .36-1.406.36-1.406 0-1.906-.91-1.906-3.45v-10.05m-4.688 6.09c0 3-.156 3.71-1 5-1.25 1.85-3.5 3.1-5.703 3.1-2.297 0-3.953-1.64-3.953-3.89 0-2.11 1.047-3.61 3.25-4.66 1.547-.7 3.5-1.2 7.406-1.84v2.29m29.438-13.84h-1.75l-1.454 1.8c-1.796-1.41-3.593-2-6.093-2-4.407 0-7.297 2.84-7.297 7.25 0 1.95.64 3.59 1.75 4.59 1.14 1.05 2.297 1.55 5.297 2.25l2.64.61c3.953.94 5.36 1.94 5.36 3.94 0 2.36-2.047 4-4.953 4-4.25 0-7.25-2.69-8.454-7.69h-2v9.44h1.75l1.75-2.05c2.047 1.66 4.297 2.45 6.86 2.45 4.89 0 8.14-3.04 8.14-7.7 0-2.2-.703-3.89-2.093-5.05-1.203-1.04-2.203-1.45-5.25-2.09l-2.5-.56c-2.75-.6-2.75-.6-3.657-1.1-1.093-.5-1.75-1.54-1.75-2.65 0-2.05 1.907-3.44 4.657-3.44 1.89 0 3.453.64 4.843 2 1.11 1.09 1.657 2.09 2.454 4.39h1.75v-8.39m22.937 0h-1.75l-1.453 1.8c-1.797-1.41-3.594-2-6.094-2-4.406 0-7.297 2.84-7.297 7.25 0 1.95.641 3.59 1.75 4.59 1.141 1.05 2.297 1.55 5.297 2.25l2.641.61c3.953.94 5.359 1.94 5.359 3.94 0 2.36-2.047 4-4.953 4-4.25 0-7.25-2.69-8.453-7.69h-2v9.44h1.75l1.75-2.05c2.047 1.66 4.297 2.45 6.859 2.45 4.891 0 8.141-3.04 8.141-7.7 0-2.2-.703-3.89-2.094-5.05-1.203-1.04-2.203-1.45-5.25-2.09l-2.5-.56c-2.75-.6-2.75-.6-3.656-1.1-1.094-.5-1.75-1.54-1.75-2.65 0-2.05 1.906-3.44 4.656-3.44 1.891 0 3.453.64 4.844 2 1.109 1.09 1.656 2.09 2.453 4.39h1.75v-8.39m-97.859-204.361-9.157-23.203c-.25-.656-.406-1.297-.406-1.547 0-.906.86-1.25 3.11-1.25h2v-2.36H188.5v2.36h1c2.313.047 3.063.594 3.86 2.797L206 412.535h2l11.516-29.61c1.5-3.89 2.547-4.796 5.437-4.89h.5v-2.36h-13.547v2.36h.954c2.546 0 4.046 1 4.046 2.594 0 .703-.25 1.797-.593 2.797l-7.75 20.609m26.39-15.547-9.39.547v2.157h2.547c1.89.046 2.14.343 2.14 2.5v14.296c-.047.75-.094 1.047-.297 1.297-.343.453-1.297.657-3.453.703h-.344v1.797h12.954v-1.797h-.36c-3.344-.11-3.797-.36-3.797-2.156v-19.344m-2.343-12.453a2.898 2.898 0 0 0-2.907 2.89c0 1.61 1.297 2.907 2.86 2.907 1.64 0 2.937-1.297 2.937-2.906a2.894 2.894 0 0 0-2.89-2.891m20.375 11.703c-6.141 0-10.891 5.454-10.891 12.454 0 6.843 4.797 12.343 10.797 12.343 6 0 10.797-5.5 10.797-12.406 0-6.844-4.797-12.391-10.703-12.391m0 2.14c3.5 0 5.453 3.657 5.453 10.25 0 6.657-1.953 10.25-5.547 10.25-3.594 0-5.547-3.593-5.547-10.186 0-6.813 1.891-10.313 5.641-10.313m22.593-14.953-9.25.562v2.14h2.453c1.844.048 2.094.36 2.094 2.5v27.86c-.047.75-.094 1.047-.297 1.297-.359.453-1.297.657-3.453.703h-.344v1.797h12.938v-1.797h-.344c-3.344-.11-3.797-.36-3.797-2.156v-32.906m28.125 20.766c0-3.157-.547-4.75-2-5.954-1.64-1.36-4.093-2-7.297-2-5.64 0-9.75 2.64-9.75 6.297 0 1.844 1.157 3.047 2.907 3.047 1.593 0 2.703-1.047 2.703-2.547 0-.656-.25-1.343-.75-2.047-.313-.36-.36-.453-.36-.703 0-1 2-1.906 4.407-1.906 1.593 0 3.343.5 4.14 1.25.953.813 1.313 2 1.313 4.25v1.953c-5.203.906-6.86 1.297-9.313 2.25-4.343 1.61-6.39 3.906-6.39 7.11 0 3.593 2.797 5.843 7.25 5.843 3.453 0 6.547-1.406 8.703-3.953.797 2.547 2.047 3.547 4.39 3.547 2.25 0 4.61-1.437 4.61-2.891 0-.36-.203-.61-.5-.61-.203 0-.406.064-.75.204-.703.297-1 .36-1.406.36-1.407 0-1.907-.907-1.907-3.454v-10.046m-4.687 6.093c0 3-.156 3.703-1 5-1.25 1.844-3.5 3.094-5.703 3.094-2.297 0-3.953-1.641-3.953-3.891 0-2.11 1.046-3.61 3.25-4.656 1.546-.703 3.5-1.203 7.406-1.844v2.297M46.406 148.132h-1.89l-1.953 3c-3.25-2.547-5.453-3.406-9.11-3.406-3.953 0-7.047 1.109-10.203 3.656-4.937 4-7.25 9.047-7.25 15.797 0 5.109 1.453 9.359 4.406 12.609 3.094 3.5 7.704 5.547 12.5 5.547 4.204 0 7.157-1.297 10.407-4.547l1.843 4.5h2.11v-11c0-2.547 0-2.656.297-3.11.453-.546 1.343-.687 4.203-.687h.75v-2.36H36.61v2.36h.953c4.203 0 4.547.25 4.547 3.047 0 2.14-.344 4.094-1 5.297-1.25 2.453-4.454 4.156-7.704 4.156s-6.453-1.656-8.156-4.156c-1.844-2.797-2.64-6.297-2.64-11.656 0-11.141 3.703-17.094 10.64-17.094 5.703 0 9.656 4.094 11.703 12.094h2.157l-.704-14.047M63 147.726l-9.25.562v2.14h2.453c1.844.048 2.094.36 2.094 2.5v27.86c-.047.75-.094 1.047-.297 1.297-.359.453-1.297.656-3.453.703h-.344v1.797h12.938v-1.797h-.344c-3.344-.11-3.797-.36-3.797-2.156v-32.906m18.125 12.812c-6.14 0-10.89 5.453-10.89 12.453 0 6.844 4.796 12.344 10.796 12.344 6 0 10.797-5.5 10.797-12.406 0-6.844-4.797-12.391-10.703-12.391m0 2.14c3.5 0 5.453 3.657 5.453 10.25 0 6.657-1.953 10.25-5.547 10.25-3.593 0-5.546-3.593-5.546-10.187 0-6.812 1.89-10.312 5.64-10.312m31.735 14.562c-1.594 3.594-3.297 5.047-5.891 5.047-4 0-6.5-3.656-6.5-9.5 0-6.11 2.453-10.11 6.141-10.11 1.5 0 2.812.704 2.812 1.5 0 .157-.062.313-.312.61-.797.953-1 1.453-1 2.297 0 1.656 1.25 2.797 3 2.797 1.812 0 3.062-1.391 3.062-3.391 0-3.406-3.359-5.953-7.812-5.953-6.5 0-11.141 5.297-11.141 12.797 0 7.094 4.25 12 10.453 12 4.438 0 7-2.047 9.141-7.344l-1.953-.75m12.203-4.75v-24.765l-9.25.562v2.14h2.39c1.907.048 2.157.36 2.157 2.5v27.907c-.047.703-.094 1-.297 1.25-.36.453-1.297.656-3.453.703h-.204v1.797h12.657v-1.797h-.203c-3.344-.11-3.797-.36-3.797-2.156v-5.047l3.047-2.906 5.953 8.359c.25.39.343.64.343.844 0 .703-.546.906-2.203.906h-.937v1.797h13.203v-1.797c-2.813-.25-3.813-.86-5.859-3.453l-7.094-9.703 2.25-2.203c2.937-2.844 5.047-3.938 8.453-4.344v-1.797h-13.156v1.797h1.547c1.593 0 2.343.297 2.343.953 0 .547-.343 1.14-1.14 1.953l-6.75 6.5m42.031.844c.047-7.5-4.203-12.797-10.297-12.797-6.406 0-11.203 5.547-11.203 13.047 0 7.047 4.547 11.75 11.297 11.75 4.797 0 8.156-2.344 10.203-7.094l-1.75-.953c-2.047 3.844-4.156 5.344-7.5 5.344-2.547 0-4.406-1.047-5.703-3.297-.891-1.5-1.297-3.25-1.25-6h16.203m-16.156-2.156c0-1.547.203-2.641.703-4.047 1.047-3 2.656-4.453 5.109-4.453 3 0 5 2.656 5 6.703 0 1.406-.453 1.797-2.062 1.797h-8.75m27.89-9.891-8.656.547v2.156h1.813c1.89.047 2.14.344 2.14 2.5v14.297c-.047.75-.094 1.047-.297 1.297-.343.453-1.297.656-3.453.703h-.203v1.797h12.656v-1.797h-.203c-3.344-.11-3.797-.36-3.797-2.156v-7.391c0-2.453.344-4.703.907-5.86 1.046-2.25 3.296-3.796 5.437-3.796 1.313 0 2.813.703 3.563 1.75.75 1.094 1.093 2.594 1.093 5v10.453c-.047.75-.093 1.047-.297 1.297-.359.453-1.359.656-3.5.703h-.203v1.797h12.657v-1.797h-.204c-3.296-.11-3.75-.36-3.75-2.156v-10.047c0-3.594-.156-4.5-1.046-6.203-1.25-2.391-3.75-3.844-6.75-3.844-3.25 0-5.704 1.5-7.907 4.797v-4.047m40.047-.547h-1.75l-1.453 1.797c-1.797-1.406-3.594-2-6.094-2-4.406 0-7.297 2.844-7.297 7.25 0 1.953.641 3.594 1.75 4.594 1.141 1.047 2.297 1.547 5.297 2.25l2.641.609c3.953.938 5.359 1.938 5.359 3.938 0 2.359-2.047 4-4.953 4-4.25 0-7.25-2.688-8.453-7.688h-2v9.438h1.75l1.75-2.047c2.047 1.656 4.297 2.453 6.859 2.453 4.891 0 8.141-3.047 8.141-7.703 0-2.203-.703-3.891-2.094-5.047-1.203-1.047-2.203-1.453-5.25-2.094l-2.5-.562c-2.75-.594-2.75-.594-3.656-1.094-1.094-.5-1.75-1.547-1.75-2.656 0-2.047 1.906-3.438 4.656-3.438 1.891 0 3.453.64 4.844 2 1.109 1.094 1.656 2.094 2.453 4.39h1.75v-8.39m12.844.547-8.641.547v2.156h1.797c1.891.047 2.141.344 2.141 2.5v24.437c-.047.704-.094 1-.297 1.25-.344.454-1.297.657-3.453.704h-.188v1.797h13v-1.797h-.562c-3.344-.094-3.797-.344-3.797-2.141v-9.453c1.656 2.89 3.5 4.047 6.609 4.047 3.047 0 5.547-1.297 7.344-3.75 1.75-2.406 2.75-5.5 2.75-8.75s-1-6.297-2.844-8.703c-1.859-2.391-4.156-3.594-6.953-3.594-3.109 0-5.156 1.297-6.906 4.297v-3.547m6 1.953c3.453 0 5.453 3.438 5.453 9.297 0 6.453-2 10.094-5.594 10.094-3.609 0-5.906-3.703-5.906-9.453 0-6.25 2.25-9.938 6.047-9.938m22.937-1.953-9.39.547v2.156h2.547c1.89.047 2.14.344 2.14 2.5v14.297c-.047.75-.093 1.047-.297 1.297-.343.453-1.296.656-3.453.703h-.343v1.797h12.953v-1.797h-.36c-3.343-.11-3.797-.36-3.797-2.156v-19.344m-2.343-12.453a2.898 2.898 0 0 0-2.907 2.89c0 1.61 1.297 2.907 2.86 2.907 1.64 0 2.937-1.297 2.937-2.906a2.894 2.894 0 0 0-2.89-2.891m31.031 24.5c.047-7.5-4.203-12.797-10.297-12.797-6.406 0-11.203 5.547-11.203 13.047 0 7.047 4.547 11.75 11.297 11.75 4.797 0 8.156-2.344 10.203-7.094l-1.75-.953c-2.047 3.844-4.156 5.344-7.5 5.344-2.547 0-4.406-1.047-5.703-3.297-.891-1.5-1.297-3.25-1.25-6h16.203m-16.156-2.156c0-1.547.203-2.641.703-4.047 1.047-3 2.656-4.453 5.109-4.453 3 0 5 2.656 5 6.703 0 1.406-.453 1.797-2.062 1.797h-8.75m26.89-23.453-9.25.562v2.14h2.453c1.844.048 2.094.36 2.094 2.5v27.86c-.047.75-.094 1.047-.297 1.297-.359.453-1.297.656-3.453.703h-.344v1.797h12.938v-1.797h-.344c-3.344-.11-3.797-.36-3.797-2.156v-32.906"/>
  <path class="TieSegment" stroke="#000" stroke-width="1.74" stroke-linecap="round" stroke-linejoin="round" fill-rule="evenodd" d="M1060.948 645.236c8.06 6.45 32.23 6.45 40.29 0-8.06 13.39-32.23 13.39-40.29 0m477.56 0c19.29 11.19 77.17 11.19 96.46 0-19.29 18.14-77.17 18.14-96.46 0m-477.56-232.351c8.06-13.392 32.23-13.392 40.29 0-8.06-6.448-32.23-6.448-40.29 0m477.56-17.399c19.29-18.134 77.17-18.134 96.46 0-19.29-11.19-77.17-11.19-96.46 0m301.17-3.557c5.95-13.392 23.81-13.392 29.76 0-5.95-6.448-23.81-6.448-29.76 0m-958.59-289.044c8.06-13.392 32.23-13.392 40.29 0-8.06-6.448-32.23-6.448-40.29 0m179.86 0c8.06-13.392 32.23-13.392 40.29 0-8.06-6.448-32.23-6.448-40.29 0m477.56 37.2c19.29-18.135 77.17-18.135 96.46 0-19.29-11.191-77.17-11.191-96.46 0m286.02 0c10.27-13.392 41.08-13.392 51.35 0-10.27-6.448-41.08-6.448-51.35 0"/>
  <path class="BarLine" stroke="#000" stroke-width="4.46" stroke-linejoin="bevel" d="M352.418 563.276v101.93m1236.8-101.93v101.93m953.69-101.93v101.93"/>
  <path class="BarLine" stroke="#000" stroke-width="13.64" stroke-linejoin="bevel" d="M2560.268 563.276v101.93"/>
  <path class="BarLine" stroke="#000" stroke-width="4.46" stroke-linejoin="bevel" d="M352.418 343.32v221.316m1236.8-221.316v221.316m953.69-221.316v221.316"/>
  <path class="BarLine" stroke="#000" stroke-width="13.64" stroke-linejoin="bevel" d="M2560.268 343.32v221.316"/>
  <path class="BarLine" stroke="#000" stroke-width="4.46" stroke-linejoin="bevel" d="M352.418 120.12v224.565m1236.8-224.565v101.93m953.69-101.93v101.93"/>
  <path class="BarLine" stroke="#000" stroke-width="13.64" stroke-linejoin="bevel" d="M2560.268 120.12v101.93"/>
  <path class="Accidental" d="M1796.88 583.685c-.187-.201-.497-.294-.792-.294-.092 0-.294.093-.387.093l-12.509 3.472v-17.36h-2.774V618.7c0 .79.589 1.286 1.395 1.286h.388l12.508-3.472v17.36h2.666V584.77c0-.387-.186-.883-.496-1.085m-2.17 24.599-11.517 3.177v-16.275l11.517-3.27v16.368m129.001-49.399c-.187-.201-.497-.294-.792-.294-.092 0-.294.093-.387.093l-12.509 3.472v-17.36h-2.774V593.9c0 .79.589 1.286 1.395 1.286h.388l12.508-3.472v17.36h2.666V559.97c0-.387-.186-.883-.496-1.085m-2.17 24.599-11.517 3.177v-16.275l11.517-3.27v16.368m542.409 7.843c.605-.109 1.101-.806 1.101-1.395v-5.86c0-.79-.604-1.379-1.395-1.379h-.202l-3.27.698v-14.787h-2.775v15.376l-8.835 1.782v-13.98h-2.774v14.585l-3.875.79c-.589.093-1.085.79-1.085 1.38v5.951-.185c0 .79.589 1.38 1.395 1.38h.294l3.271-.698v16.368l-3.875.806c-.589.093-1.085.79-1.085 1.38v5.75c0 .806.589 1.395 1.395 1.395h.294l3.271-.698v14.787h2.775v-15.376l8.834-1.782v13.981h2.775V617.01l3.767-.697c.604-.093 1.1-.79 1.1-1.38v-5.859c0-.79-.604-1.38-1.395-1.38h-.202l-3.27.683v-16.368l3.767-.682m-15.377 19.53v-16.461l8.835-1.783v16.368l-8.835 1.876M1272.08 400.934c-.187-.201-.497-.294-.792-.294-.093 0-.294.093-.387.093l-12.509 3.472v-17.36h-2.774v49.104c0 .79.589 1.286 1.395 1.286h.388l12.508-3.472v17.36h2.666V402.02c0-.387-.186-.883-.496-1.085m-2.17 24.599-11.517 3.177v-16.275l11.517-3.27v16.368m67.981-74.2c-.187-.201-.497-.294-.792-.294-.092 0-.294.093-.387.093l-12.509 3.472v-17.36h-2.774v49.104c0 .79.589 1.287 1.395 1.287h.388l12.508-3.472v17.36h2.666v-49.105c0-.387-.186-.883-.496-1.085m-2.17 24.599-11.517 3.177v-16.275l11.517-3.27v16.368m174.539 32.643c.605-.109 1.101-.806 1.101-1.395v-5.86c0-.79-.605-1.379-1.395-1.379h-.202l-3.27.698v-14.787h-2.775v15.376l-8.835 1.782v-13.98h-2.774v14.585l-3.875.79c-.589.093-1.085.79-1.085 1.38v5.951-.185c0 .79.589 1.38 1.395 1.38h.294l3.271-.698v16.368l-3.875.806c-.589.093-1.085.79-1.085 1.38v5.75c0 .806.589 1.395 1.395 1.395h.294l3.271-.698v14.787h2.775v-15.376l8.834-1.782v13.981h2.775v-14.586l3.767-.697c.604-.093 1.1-.79 1.1-1.38v-5.859c0-.79-.605-1.38-1.395-1.38h-.202l-3.27.683v-16.368l3.767-.682m-15.377 19.53v-16.461l8.835-1.783v16.368l-8.835 1.876m428.828-64.372c-.187-.201-.497-.294-.792-.294-.092 0-.294.093-.387.093l-12.509 3.472v-17.36h-2.774v49.104c0 .79.589 1.287 1.395 1.287h.388l12.508-3.472v17.36h2.666v-49.105c0-.387-.186-.883-.496-1.085m-2.17 24.599-11.517 3.177v-16.275l11.517-3.27v16.368M983.34 115.734c-.187-.201-.497-.294-.791-.294-.093 0-.295.093-.388.093l-12.508 3.472v-17.36h-2.775v49.104c0 .79.589 1.286 1.395 1.286h.388l12.508-3.472v17.36h2.666V116.82c0-.387-.186-.883-.496-1.085m-2.17 24.599-11.516 3.177v-16.275l11.516-3.27v16.368m224.509-16.958c.605-.109 1.101-.806 1.101-1.395v-5.86c0-.79-.605-1.379-1.395-1.379h-.202l-3.27.698v-14.787h-2.775v15.376l-8.834 1.782v-13.98h-2.775v14.585l-3.875.79c-.589.093-1.085.79-1.085 1.38v5.951-.185c0 .79.589 1.38 1.395 1.38h.294l3.271-.698v16.368l-3.875.806c-.589.093-1.085.79-1.085 1.38v5.75c0 .806.589 1.395 1.395 1.395h.294l3.271-.698v14.787h2.775v-15.376l8.834-1.782v13.98h2.775V149.06l3.767-.697c.604-.093 1.1-.79 1.1-1.38v-5.859c0-.79-.605-1.38-1.395-1.38h-.202l-3.27.683v-16.368l3.767-.682m-15.377 19.53v-16.461l8.836-1.783v16.368l-8.835 1.876m147.587-27.173c-.187-.201-.497-.294-.792-.294-.092 0-.294.093-.387.093l-12.509 3.472v-17.36h-2.774v49.104c0 .79.589 1.286 1.395 1.286h.388l12.508-3.472v17.36h2.666V116.82c0-.387-.186-.883-.496-1.085m-2.17 24.599-11.517 3.177v-16.275l11.517-3.27v16.368m395.351-24.6c-.187-.201-.497-.294-.792-.294-.093 0-.294.093-.387.093l-12.509 3.472v-17.36h-2.774v49.104c0 .79.589 1.286 1.395 1.286h.388l12.508-3.472v17.36h2.666V116.82c0-.387-.186-.883-.496-1.085m-2.17 24.599-11.517 3.177v-16.275l11.517-3.27v16.368m194.811-12.2c-.187-.201-.497-.294-.792-.294-.092 0-.294.093-.387.093l-12.509 3.472v-17.36h-2.774v49.104c0 .79.589 1.287 1.395 1.287h.388l12.508-3.472v17.36h2.666v-49.105c0-.387-.186-.883-.496-1.085m-2.17 24.599-11.517 3.177v-16.275l11.517-3.27v16.368m240.489-16.957c.605-.109 1.101-.806 1.101-1.395v-5.86c0-.79-.604-1.379-1.395-1.379h-.202l-3.27.698v-14.787h-2.775v15.376l-8.835 1.782v-13.98h-2.774v14.585l-3.875.79c-.589.093-1.085.79-1.085 1.38v5.951-.185c0 .79.589 1.38 1.395 1.38h.294l3.271-.698v16.368l-3.875.806c-.589.093-1.085.79-1.085 1.38v5.75c0 .806.589 1.395 1.395 1.395h.294l3.271-.698v14.787h2.774v-15.376l8.835-1.782v13.98h2.775V161.46l3.766-.697c.605-.093 1.101-.79 1.101-1.38v-5.859c0-.79-.604-1.38-1.395-1.38h-.202l-3.27.683v-16.368l3.766-.682m-15.375 19.53v-16.461l8.834-1.783v16.368l-8.835 1.876m192.307-31.931c.604-.109 1.1-.806 1.1-1.395v-5.86c0-.79-.604-1.379-1.395-1.379h-.202l-3.27.698v-14.787h-2.775v15.376l-8.834 1.782v-13.98h-2.775v14.585l-3.875.79c-.589.093-1.085.79-1.085 1.38v5.951-.185c0 .79.589 1.38 1.395 1.38h.294l3.271-.698v16.368l-3.875.806c-.589.093-1.085.79-1.085 1.38v5.75c0 .806.589 1.395 1.395 1.395h.294l3.271-.698v14.787h2.775v-15.376l8.834-1.782v13.98h2.775V149.06l3.767-.697c.604-.093 1.1-.79 1.1-1.38v-5.859c0-.79-.604-1.38-1.395-1.38h-.202l-3.27.683v-16.368l3.767-.682m-15.376 19.53v-16.461l8.834-1.783v16.368l-8.834 1.876" style="stroke-width:.992001"/>
  <path class="Stem" stroke="#000" stroke-width="2.73" stroke-linejoin="bevel" d="M761.107 623.466v-77.43m49.961 127.03v-108.43m129.9 108.43v-102.23m79.94 77.43v-96.5m49.96 71.7v-83.63m49.96 83.63v-83.63m49.96 120.83v-128.38m73.05 66.38v-77.43m131.61 89.83v-71.23m99.92 96.03v-92.45m73.06 80.05v-77.43m106.13 77.43v-83.63m114.08 96.03v-96.03m65.81 58.83v-77.43m97.32 59.14v77.26m51.94-64.86v71.06m112.61-3.17v-89.83m51.94 65.03v-73.29m103.87 60.89v-77.43m51.94 89.83v-89.83m124.99 77.43v-93.08m73.05 68.28v-77.43M731.603 397.618v71.067m49.961-108.267v108.267m79.934-71.067v71.067m49.96-108.267v108.267m79.94-71.067v97.778m49.96-60.578v77.268m79.47-83.776V295.086m49.96 71.224v-71.225m73.05 96.025v-96.025m65.81 120.825V295.086m36.3 77.732v114.467m49.96-89.667v98.618m49.96-73.818v82.778m73.05-82.778v95.868m135.64-102.376v-89.825m114.08 102.225V322.154m65.81 81.356v-83.625m31.52 90.133v83.468m65.8-108.268v90.942m51.94-115.742v102.067m112.61-34.175V326.086m51.94 77.424v-85.69m51.93 98.09V309.553m51.94 81.557v-89.825m22.44 108.733v77.267m73.05-102.067v92.919m51.94-80.519v74.015m73.05-98.815v89.667M731.603 124.818v114.467m49.961-77.267v77.267m79.934-114.467v114.467m49.96-114.467v89.667m79.94-77.267v77.267m49.96-89.667v89.667m49.96-89.667v145.467m49.97-71.067v71.067m73.05-133.067v133.067m65.8-145.467v145.467m65.81-133.067v83.467m49.96-95.867v101.239m123.01-64.039v77.267m106.14-77.267v77.267m114.08-102.067v102.067m65.8-77.267v77.267m61.03-77.267v77.267m65.8-89.667v75.807m51.94-100.607v89.667m83.1-52.467v64.867m103.88-77.267v71.067m103.88-83.467v83.467m73.05-83.467v90.328m124.99-65.528v77.267"/>
  <path class="Note" d="M761.487 618.607c-1.782-3.286-5.549-5.069-10.121-5.069-3.364 0-7.038.992-10.618 2.883-6.541 3.472-10.509 9.316-10.509 14.384 0 1.38.294 2.775.992 4.061 1.783 3.271 5.549 4.96 10.121 4.96 3.364 0 7.038-.883 10.618-2.774 6.541-3.472 10.509-9.331 10.509-14.384 0-1.395-.294-2.775-.992-4.061m49.961 49.6c-1.782-3.286-5.549-5.069-10.121-5.069-3.364 0-7.038.992-10.618 2.883-6.541 3.472-10.509 9.316-10.509 14.384 0 1.38.294 2.775.992 4.061 1.783 3.271 5.549 4.96 10.121 4.96 3.364 0 7.038-.883 10.618-2.774 6.541-3.472 10.509-9.331 10.509-14.384 0-1.395-.294-2.775-.992-4.061m129.898 0c-1.782-3.286-5.549-5.069-10.121-5.069-3.364 0-7.038.992-10.618 2.883-6.541 3.472-10.509 9.316-10.509 14.384 0 1.38.295 2.775.992 4.061 1.783 3.271 5.549 4.96 10.121 4.96 3.364 0 7.038-.883 10.618-2.774 6.541-3.472 10.509-9.331 10.509-14.384 0-1.395-.294-2.775-.992-4.061m79.94-24.8c-1.782-3.286-5.549-5.069-10.121-5.069-3.364 0-7.037.992-10.618 2.883-6.541 3.472-10.509 9.316-10.509 14.384 0 1.38.294 2.775.992 4.061 1.783 3.271 5.549 4.96 10.121 4.96 3.364 0 7.037-.883 10.618-2.774 6.541-3.472 10.509-9.331 10.509-14.384 0-1.395-.294-2.775-.992-4.061m49.96-24.8c-1.782-3.286-5.549-5.069-10.121-5.069-3.364 0-7.037.992-10.618 2.883-6.541 3.472-10.509 9.316-10.509 14.384 0 1.38.294 2.775.992 4.061 1.782 3.271 5.549 4.96 10.121 4.96 3.364 0 7.037-.883 10.618-2.774 6.541-3.472 10.509-9.331 10.509-14.384 0-1.395-.294-2.775-.992-4.061m49.96 0c-1.782-3.286-5.549-5.069-10.121-5.069-3.364 0-7.038.992-10.618 2.883-6.541 3.472-10.509 9.316-10.509 14.384 0 1.38.294 2.775.992 4.061 1.782 3.271 5.549 4.96 10.121 4.96 3.364 0 7.037-.883 10.618-2.774 6.541-3.472 10.509-9.331 10.509-14.384 0-1.395-.295-2.775-.992-4.061m49.96 37.2c-1.782-3.286-5.549-5.069-10.121-5.069-3.364 0-7.038.992-10.618 2.883-6.541 3.472-10.509 9.316-10.509 14.384 0 1.38.294 2.775.992 4.061 1.782 3.271 5.549 4.96 10.121 4.96 3.364 0 7.037-.883 10.618-2.774 6.541-3.472 10.509-9.331 10.509-14.384 0-1.395-.294-2.775-.992-4.061m73.05-62c-1.782-3.286-5.549-5.069-10.121-5.069-3.364 0-7.038.992-10.618 2.883-6.541 3.472-10.509 9.316-10.509 14.384 0 1.38.294 2.775.992 4.061 1.782 3.271 5.549 4.96 10.121 4.96 3.364 0 7.037-.883 10.618-2.774 6.541-3.472 10.509-9.331 10.509-14.384 0-1.395-.295-2.775-.992-4.061m131.61 12.4c-1.782-3.286-5.549-5.069-10.121-5.069-3.364 0-7.037.992-10.618 2.883-6.541 3.472-10.509 9.316-10.509 14.384 0 1.38.294 2.775.992 4.061 1.782 3.271 5.549 4.96 10.121 4.96 3.364 0 7.037-.883 10.618-2.774 6.541-3.472 10.509-9.331 10.509-14.384 0-1.395-.294-2.775-.992-4.061m99.93 24.8c-1.782-3.286-5.549-5.069-10.121-5.069-3.364 0-7.037.992-10.618 2.883-6.541 3.472-10.509 9.316-10.509 14.384 0 1.38.294 2.775.992 4.061 1.782 3.271 5.549 4.96 10.121 4.96 3.364 0 7.037-.883 10.618-2.774 6.541-3.472 10.509-9.331 10.509-14.384 0-1.395-.294-2.775-.992-4.061m73.05-12.4c-1.782-3.286-5.549-5.069-10.121-5.069-3.364 0-7.037.992-10.618 2.883-6.541 3.472-10.509 9.316-10.509 14.384 0 1.38.294 2.775.992 4.061 1.782 3.271 5.549 4.96 10.121 4.96 3.364 0 7.037-.883 10.618-2.774 6.541-3.472 10.509-9.331 10.509-14.384 0-1.395-.294-2.775-.992-4.061m106.13 0c-1.782-3.286-5.549-5.069-10.121-5.069-3.364 0-7.038.992-10.618 2.883-6.541 3.472-10.509 9.316-10.509 14.384 0 1.38.294 2.775.992 4.061 1.782 3.271 5.549 4.96 10.121 4.96 3.364 0 7.037-.883 10.618-2.774 6.541-3.472 10.509-9.331 10.509-14.384 0-1.395-.295-2.775-.992-4.061m114.08 12.4c-1.782-3.286-5.549-5.069-10.121-5.069-3.364 0-7.037.992-10.618 2.883-6.541 3.472-10.509 9.316-10.509 14.384 0 1.38.294 2.775.992 4.061 1.782 3.271 5.549 4.96 10.121 4.96 3.364 0 7.037-.883 10.618-2.774 6.541-3.472 10.509-9.331 10.509-14.384 0-1.395-.294-2.775-.992-4.061m65.81-37.2c-1.782-3.286-5.549-5.069-10.121-5.069-3.364 0-7.037.992-10.618 2.883-6.541 3.472-10.509 9.316-10.509 14.384 0 1.38.294 2.775.992 4.061 1.782 3.271 5.549 4.96 10.121 4.96 3.364 0 7.037-.883 10.618-2.774 6.541-3.472 10.509-9.331 10.509-14.384 0-1.395-.294-2.775-.992-4.061m126.83-24.8c-1.782-3.286-5.549-5.069-10.121-5.069-3.364 0-7.038.992-10.618 2.883-6.541 3.472-10.509 9.316-10.509 14.384 0 1.38.294 2.775.992 4.061 1.782 3.271 5.549 4.96 10.121 4.96 3.364 0 7.037-.883 10.618-2.774 6.541-3.472 10.509-9.331 10.509-14.384 0-1.395-.294-2.775-.992-4.061m51.94 12.4c-1.782-3.286-5.549-5.069-10.121-5.069-3.364 0-7.037.992-10.618 2.883-6.541 3.472-10.509 9.316-10.509 14.384 0 1.38.294 2.775.992 4.061 1.782 3.271 5.549 4.96 10.121 4.96 3.364 0 7.037-.883 10.618-2.774 6.541-3.472 10.509-9.331 10.509-14.384 0-1.395-.294-2.775-.992-4.061m83.1 74.4c-1.782-3.286-5.549-5.069-10.121-5.069-3.364 0-7.038.992-10.618 2.883-6.541 3.472-10.509 9.316-10.509 14.384 0 1.38.294 2.775.992 4.061 1.782 3.271 5.549 4.96 10.121 4.96 3.364 0 7.037-.883 10.618-2.774 6.541-3.472 10.509-9.331 10.509-14.384 0-1.395-.295-2.775-.992-4.061m51.94-24.8c-1.782-3.286-5.549-5.069-10.121-5.069-3.364 0-7.038.992-10.618 2.883-6.541 3.472-10.509 9.316-10.509 14.384 0 1.38.294 2.775.992 4.061 1.782 3.271 5.549 4.96 10.121 4.96 3.364 0 7.037-.883 10.618-2.774 6.541-3.472 10.509-9.331 10.509-14.384 0-1.395-.295-2.775-.992-4.061m103.87-12.4c-1.782-3.286-5.549-5.069-10.121-5.069-3.364 0-7.038.992-10.618 2.883-6.541 3.472-10.509 9.316-10.509 14.384 0 1.38.294 2.775.992 4.061 1.782 3.271 5.549 4.96 10.121 4.96 3.364 0 7.037-.883 10.618-2.774 6.541-3.472 10.509-9.331 10.509-14.384 0-1.395-.295-2.775-.992-4.061m51.94 12.4c-1.782-3.286-5.549-5.069-10.121-5.069-3.364 0-7.038.992-10.618 2.883-6.541 3.472-10.509 9.316-10.509 14.384 0 1.38.294 2.775.992 4.061 1.782 3.271 5.549 4.96 10.121 4.96 3.364 0 7.037-.883 10.618-2.774 6.541-3.472 10.509-9.331 10.509-14.384 0-1.395-.295-2.775-.992-4.061m124.99-12.4c-1.782-3.286-5.549-5.069-10.121-5.069-3.364 0-7.038.992-10.618 2.883-6.541 3.472-10.509 9.316-10.509 14.384 0 1.38.294 2.775.992 4.061 1.782 3.271 5.549 4.96 10.121 4.96 3.364 0 7.038-.883 10.618-2.774 6.541-3.472 10.509-9.331 10.509-14.384 0-1.395-.294-2.775-.992-4.061m73.06-24.8c-1.782-3.286-5.549-5.069-10.121-5.069-3.364 0-7.038.992-10.618 2.883-6.541 3.472-10.509 9.316-10.509 14.384 0 1.38.294 2.775.992 4.061 1.782 3.271 5.549 4.96 10.121 4.96 3.364 0 7.038-.883 10.618-2.774 6.541-3.472 10.509-9.331 10.509-14.384 0-1.395-.294-2.775-.992-4.061M761.487 386.256c-1.782-3.286-5.549-5.069-10.121-5.069-3.364 0-7.038.992-10.618 2.883-6.541 3.472-10.509 9.316-10.509 14.384 0 1.38.294 2.775.992 4.061 1.783 3.271 5.549 4.96 10.121 4.96 3.364 0 7.038-.883 10.618-2.774 6.541-3.472 10.509-9.331 10.509-14.384 0-1.395-.294-2.775-.992-4.061m49.961-37.2c-1.782-3.286-5.549-5.069-10.121-5.069-3.364 0-7.038.992-10.618 2.883-6.541 3.472-10.509 9.316-10.509 14.384 0 1.38.294 2.775.992 4.061 1.783 3.271 5.549 4.96 10.121 4.96 3.364 0 7.038-.883 10.618-2.774 6.541-3.472 10.509-9.331 10.509-14.384 0-1.395-.294-2.775-.992-4.061m79.938 37.2c-1.782-3.286-5.549-5.069-10.121-5.069-3.364 0-7.038.992-10.618 2.883-6.541 3.472-10.509 9.316-10.509 14.384 0 1.38.294 2.775.992 4.061 1.783 3.271 5.549 4.96 10.121 4.96 3.364 0 7.038-.883 10.618-2.774 6.541-3.472 10.509-9.331 10.509-14.384 0-1.395-.294-2.775-.992-4.061m49.96-37.2c-1.782-3.286-5.549-5.069-10.121-5.069-3.364 0-7.038.992-10.618 2.883-6.541 3.472-10.509 9.316-10.509 14.384 0 1.38.295 2.775.992 4.061 1.783 3.271 5.549 4.96 10.121 4.96 3.364 0 7.038-.883 10.618-2.774 6.541-3.472 10.509-9.331 10.509-14.384 0-1.395-.294-2.775-.992-4.061m79.94 37.2c-1.782-3.286-5.549-5.069-10.121-5.069-3.364 0-7.037.992-10.618 2.883-6.541 3.472-10.509 9.316-10.509 14.384 0 1.38.294 2.775.992 4.061 1.783 3.271 5.549 4.96 10.121 4.96 3.364 0 7.037-.883 10.618-2.774 6.541-3.472 10.509-9.331 10.509-14.384 0-1.395-.294-2.775-.992-4.061m49.96 37.2c-1.782-3.286-5.549-5.069-10.121-5.069-3.364 0-7.037.992-10.618 2.883-6.541 3.472-10.509 9.316-10.509 14.384 0 1.38.294 2.775.992 4.061 1.782 3.271 5.549 4.96 10.121 4.96 3.364 0 7.037-.883 10.618-2.774 6.541-3.472 10.509-9.331 10.509-14.384 0-1.395-.294-2.775-.992-4.061m49.96 0c-1.782-3.286-5.549-5.069-10.121-5.069-3.364 0-7.038.992-10.618 2.883-6.541 3.472-10.509 9.316-10.509 14.384 0 1.38.294 2.775.992 4.061 1.782 3.271 5.549 4.96 10.121 4.96 3.364 0 7.037-.883 10.618-2.774 6.541-3.472 10.509-9.331 10.509-14.384 0-1.395-.295-2.775-.992-4.061m49.96-62c-1.782-3.286-5.549-5.069-10.121-5.069-3.364 0-7.038.992-10.618 2.883-6.541 3.472-10.509 9.316-10.509 14.384 0 1.38.294 2.775.992 4.061 1.782 3.271 5.549 4.96 10.121 4.96 3.364 0 7.037-.883 10.618-2.774 6.541-3.472 10.509-9.331 10.509-14.384 0-1.395-.294-2.775-.992-4.061m73.05 24.8c-1.782-3.286-5.549-5.069-10.121-5.069-3.364 0-7.038.992-10.618 2.883-6.541 3.472-10.509 9.316-10.509 14.384 0 1.38.294 2.775.992 4.061 1.782 3.271 5.549 4.96 10.121 4.96 3.364 0 7.037-.883 10.618-2.774 6.541-3.472 10.509-9.331 10.509-14.384 0-1.395-.295-2.775-.992-4.061m65.81 24.8c-1.782-3.286-5.549-5.069-10.121-5.069-3.364 0-7.037.992-10.618 2.883-6.541 3.472-10.509 9.316-10.509 14.384 0 1.38.294 2.775.992 4.061 1.782 3.271 5.549 4.96 10.121 4.96 3.364 0 7.037-.883 10.618-2.774 6.541-3.472 10.509-9.331 10.509-14.384 0-1.395-.294-2.775-.992-4.061m65.8-49.6c-1.782-3.286-5.549-5.069-10.121-5.069-3.364 0-7.037.992-10.618 2.883-6.541 3.472-10.509 9.316-10.509 14.384 0 1.38.294 2.775.992 4.061 1.782 3.271 5.549 4.96 10.121 4.96 3.364 0 7.037-.883 10.618-2.774 6.541-3.472 10.509-9.331 10.509-14.384 0-1.395-.294-2.775-.992-4.061m49.96 24.8c-1.782-3.286-5.549-5.069-10.121-5.069-3.364 0-7.037.992-10.618 2.883-6.541 3.472-10.509 9.316-10.509 14.384 0 1.38.294 2.775.992 4.061 1.782 3.271 5.549 4.96 10.121 4.96 3.364 0 7.037-.883 10.618-2.774 6.541-3.472 10.509-9.331 10.509-14.384 0-1.395-.294-2.775-.992-4.061m49.97 24.8c-1.782-3.286-5.549-5.069-10.121-5.069-3.364 0-7.037.992-10.618 2.883-6.541 3.472-10.509 9.316-10.509 14.384 0 1.38.294 2.775.992 4.061 1.782 3.271 5.549 4.96 10.121 4.96 3.364 0 7.037-.883 10.618-2.774 6.541-3.472 10.509-9.331 10.509-14.384 0-1.395-.294-2.775-.992-4.061m73.05 0c-1.782-3.286-5.549-5.069-10.121-5.069-3.364 0-7.037.992-10.618 2.883-6.541 3.472-10.509 9.316-10.509 14.384 0 1.38.294 2.775.992 4.061 1.782 3.271 5.549 4.96 10.121 4.96 3.364 0 7.037-.883 10.618-2.774 6.541-3.472 10.509-9.331 10.509-14.384 0-1.395-.294-2.775-.992-4.061m106.13 0c-1.782-3.286-5.549-5.069-10.121-5.069-3.364 0-7.038.992-10.618 2.883-6.541 3.472-10.509 9.316-10.509 14.384 0 1.38.294 2.775.992 4.061 1.782 3.271 5.549 4.96 10.121 4.96 3.364 0 7.037-.883 10.618-2.774 6.541-3.472 10.509-9.331 10.509-14.384 0-1.395-.295-2.775-.992-4.061m114.08 12.4c-1.782-3.286-5.549-5.069-10.121-5.069-3.364 0-7.037.992-10.618 2.883-6.541 3.472-10.509 9.316-10.509 14.384 0 1.38.294 2.775.992 4.061 1.782 3.271 5.549 4.96 10.121 4.96 3.364 0 7.037-.883 10.618-2.774 6.541-3.472 10.509-9.331 10.509-14.384 0-1.395-.294-2.775-.992-4.061m65.81-24.8c-1.782-3.286-5.549-5.069-10.121-5.069-3.364 0-7.037.992-10.618 2.883-6.541 3.472-10.509 9.316-10.509 14.384 0 1.38.294 2.775.992 4.061 1.782 3.271 5.549 4.96 10.121 4.96 3.364 0 7.037-.883 10.618-2.774 6.541-3.472 10.509-9.331 10.509-14.384 0-1.395-.294-2.775-.992-4.061m61.02 0c-1.782-3.286-5.549-5.069-10.121-5.069-3.364 0-7.037.992-10.618 2.883-6.541 3.472-10.509 9.316-10.509 14.384 0 1.38.294 2.775.992 4.061 1.782 3.271 5.549 4.96 10.121 4.96 3.364 0 7.037-.883 10.618-2.774 6.541-3.472 10.509-9.331 10.509-14.384 0-1.395-.294-2.775-.992-4.061m65.81-24.8c-1.782-3.286-5.549-5.069-10.121-5.069-3.364 0-7.038.992-10.618 2.883-6.541 3.472-10.509 9.316-10.509 14.384 0 1.38.294 2.775.992 4.061 1.782 3.271 5.549 4.96 10.121 4.96 3.364 0 7.037-.883 10.618-2.774 6.541-3.472 10.509-9.331 10.509-14.384 0-1.395-.294-2.775-.992-4.061m51.94-24.8c-1.782-3.286-5.549-5.069-10.121-5.069-3.364 0-7.037.992-10.618 2.883-6.541 3.472-10.509 9.316-10.509 14.384 0 1.38.294 2.775.992 4.061 1.782 3.271 5.549 4.96 10.121 4.96 3.364 0 7.037-.883 10.618-2.774 6.541-3.472 10.509-9.331 10.509-14.384 0-1.395-.294-2.775-.992-4.061m83.1 74.4c-1.782-3.286-5.549-5.069-10.121-5.069-3.364 0-7.038.992-10.618 2.883-6.541 3.472-10.509 9.316-10.509 14.384 0 1.38.294 2.775.992 4.061 1.782 3.271 5.549 4.96 10.121 4.96 3.364 0 7.037-.883 10.618-2.774 6.541-3.472 10.509-9.331 10.509-14.384 0-1.395-.295-2.775-.992-4.061m51.94-24.8c-1.782-3.286-5.549-5.069-10.121-5.069-3.364 0-7.038.992-10.618 2.883-6.541 3.472-10.509 9.316-10.509 14.384 0 1.38.294 2.775.992 4.061 1.782 3.271 5.549 4.96 10.121 4.96 3.364 0 7.037-.883 10.618-2.774 6.541-3.472 10.509-9.331 10.509-14.384 0-1.395-.295-2.775-.992-4.061m51.94 12.4c-1.782-3.286-5.549-5.069-10.121-5.069-3.364 0-7.038.992-10.618 2.883-6.541 3.472-10.509 9.316-10.509 14.384 0 1.38.294 2.775.992 4.061 1.782 3.271 5.549 4.96 10.121 4.96 3.364 0 7.038-.883 10.618-2.774 6.541-3.472 10.509-9.331 10.509-14.384 0-1.395-.295-2.775-.992-4.061m51.93-24.8c-1.782-3.286-5.549-5.069-10.121-5.069-3.364 0-7.038.992-10.618 2.883-6.541 3.472-10.509 9.316-10.509 14.384 0 1.38.294 2.775.992 4.061 1.782 3.271 5.549 4.96 10.121 4.96 3.364 0 7.037-.883 10.618-2.774 6.541-3.472 10.509-9.331 10.509-14.384 0-1.395-.295-2.775-.992-4.061m51.94 12.4c-1.782-3.286-5.549-5.069-10.121-5.069-3.364 0-7.038.992-10.618 2.883-6.541 3.472-10.509 9.316-10.509 14.384 0 1.38.294 2.775.992 4.061 1.782 3.271 5.549 4.96 10.121 4.96 3.364 0 7.037-.883 10.618-2.774 6.541-3.472 10.509-9.331 10.509-14.384 0-1.395-.295-2.775-.992-4.061m73.05-24.8c-1.782-3.286-5.549-5.069-10.121-5.069-3.364 0-7.038.992-10.618 2.883-6.541 3.472-10.509 9.316-10.509 14.384 0 1.38.294 2.775.992 4.061 1.782 3.271 5.549 4.96 10.121 4.96 3.364 0 7.038-.883 10.618-2.774 6.541-3.472 10.509-9.331 10.509-14.384 0-1.395-.294-2.775-.992-4.061m51.94 12.4c-1.782-3.286-5.549-5.069-10.121-5.069-3.364 0-7.038.992-10.618 2.883-6.541 3.472-10.509 9.316-10.509 14.384 0 1.38.294 2.775.992 4.061 1.782 3.271 5.549 4.96 10.121 4.96 3.364 0 7.038-.883 10.618-2.774 6.541-3.472 10.509-9.331 10.509-14.384 0-1.395-.294-2.775-.992-4.061m73.06-24.8c-1.782-3.286-5.549-5.069-10.121-5.069-3.364 0-7.038.992-10.618 2.883-6.541 3.472-10.509 9.316-10.509 14.384 0 1.38.294 2.775.992 4.061 1.782 3.271 5.549 4.96 10.121 4.96 3.364 0 7.038-.883 10.618-2.774 6.541-3.472 10.509-9.331 10.509-14.384 0-1.395-.294-2.775-.992-4.061m-1741.009-248c-1.782-3.286-5.549-5.069-10.121-5.069-3.364 0-7.038.992-10.618 2.883-6.541 3.472-10.509 9.316-10.509 14.384 0 1.38.294 2.775.992 4.061 1.783 3.271 5.549 4.96 10.121 4.96 3.364 0 7.038-.883 10.618-2.774 6.541-3.472 10.509-9.331 10.509-14.384 0-1.395-.294-2.775-.992-4.061m49.961 37.2c-1.782-3.286-5.549-5.069-10.121-5.069-3.364 0-7.038.992-10.618 2.883-6.541 3.472-10.509 9.316-10.509 14.384 0 1.38.294 2.775.992 4.061 1.783 3.271 5.549 4.96 10.121 4.96 3.364 0 7.038-.883 10.618-2.774 6.541-3.472 10.509-9.331 10.509-14.384 0-1.395-.294-2.775-.992-4.061m79.938-37.2c-1.782-3.286-5.549-5.069-10.121-5.069-3.364 0-7.038.992-10.618 2.883-6.541 3.472-10.509 9.316-10.509 14.384 0 1.38.294 2.775.992 4.061 1.783 3.271 5.549 4.96 10.121 4.96 3.364 0 7.038-.883 10.618-2.774 6.541-3.472 10.509-9.331 10.509-14.384 0-1.395-.294-2.775-.992-4.061m49.96 0c-1.782-3.286-5.549-5.069-10.121-5.069-3.364 0-7.038.992-10.618 2.883-6.541 3.472-10.509 9.316-10.509 14.384 0 1.38.295 2.775.992 4.061 1.783 3.271 5.549 4.96 10.121 4.96 3.364 0 7.038-.883 10.618-2.774 6.541-3.472 10.509-9.331 10.509-14.384 0-1.395-.294-2.775-.992-4.061m79.94 12.4c-1.782-3.286-5.549-5.069-10.121-5.069-3.364 0-7.037.992-10.618 2.883-6.541 3.472-10.509 9.316-10.509 14.384 0 1.38.294 2.775.992 4.061 1.783 3.271 5.549 4.96 10.121 4.96 3.364 0 7.037-.883 10.618-2.774 6.541-3.472 10.509-9.331 10.509-14.384 0-1.395-.294-2.775-.992-4.061m49.96-12.4c-1.782-3.286-5.549-5.069-10.121-5.069-3.364 0-7.037.992-10.618 2.883-6.541 3.472-10.509 9.316-10.509 14.384 0 1.38.294 2.775.992 4.061 1.782 3.271 5.549 4.96 10.121 4.96 3.364 0 7.037-.883 10.618-2.774 6.541-3.472 10.509-9.331 10.509-14.384 0-1.395-.294-2.775-.992-4.061m49.96 0c-1.782-3.286-5.549-5.069-10.121-5.069-3.364 0-7.038.992-10.618 2.883-6.541 3.472-10.509 9.316-10.509 14.384 0 1.38.294 2.775.992 4.061 1.782 3.271 5.549 4.96 10.121 4.96 3.364 0 7.037-.883 10.618-2.774 6.541-3.472 10.509-9.331 10.509-14.384 0-1.395-.295-2.775-.992-4.061m49.96 74.4c-1.782-3.286-5.549-5.069-10.121-5.069-3.364 0-7.038.992-10.618 2.883-6.541 3.472-10.509 9.316-10.509 14.384 0 1.38.294 2.775.992 4.061 1.782 3.271 5.549 4.96 10.121 4.96 3.364 0 7.037-.883 10.618-2.774 6.541-3.472 10.509-9.331 10.509-14.384 0-1.395-.294-2.775-.992-4.061m73.05-62c-1.782-3.286-5.549-5.069-10.121-5.069-3.364 0-7.038.992-10.618 2.883-6.541 3.472-10.509 9.316-10.509 14.384 0 1.38.294 2.775.992 4.061 1.782 3.271 5.549 4.96 10.121 4.96 3.364 0 7.037-.883 10.618-2.774 6.541-3.472 10.509-9.331 10.509-14.384 0-1.395-.295-2.775-.992-4.061m65.81-12.4c-1.782-3.286-5.549-5.069-10.121-5.069-3.364 0-7.037.992-10.618 2.883-6.541 3.472-10.509 9.316-10.509 14.384 0 1.38.294 2.775.992 4.061 1.782 3.271 5.549 4.96 10.121 4.96 3.364 0 7.037-.883 10.618-2.774 6.541-3.472 10.509-9.331 10.509-14.384 0-1.395-.294-2.775-.992-4.061m65.8 12.4c-1.782-3.286-5.549-5.069-10.121-5.069-3.364 0-7.037.992-10.618 2.883-6.541 3.472-10.509 9.316-10.509 14.384 0 1.38.294 2.775.992 4.061 1.782 3.271 5.549 4.96 10.121 4.96 3.364 0 7.037-.883 10.618-2.774 6.541-3.472 10.509-9.331 10.509-14.384 0-1.395-.294-2.775-.992-4.061m49.96-12.4c-1.782-3.286-5.549-5.069-10.121-5.069-3.364 0-7.037.992-10.618 2.883-6.541 3.472-10.509 9.316-10.509 14.384 0 1.38.294 2.775.992 4.061 1.782 3.271 5.549 4.96 10.121 4.96 3.364 0 7.037-.883 10.618-2.774 6.541-3.472 10.509-9.331 10.509-14.384 0-1.395-.294-2.775-.992-4.061m123.02 37.2c-1.782-3.286-5.549-5.069-10.121-5.069-3.364 0-7.037.992-10.618 2.883-6.541 3.472-10.509 9.316-10.509 14.384 0 1.38.294 2.775.992 4.061 1.782 3.271 5.549 4.96 10.121 4.96 3.364 0 7.037-.883 10.618-2.774 6.541-3.472 10.509-9.331 10.509-14.384 0-1.395-.294-2.775-.992-4.061m106.13 0c-1.782-3.286-5.549-5.069-10.121-5.069-3.364 0-7.038.992-10.618 2.883-6.541 3.472-10.509 9.316-10.509 14.384 0 1.38.294 2.775.992 4.061 1.782 3.271 5.549 4.96 10.121 4.96 3.364 0 7.037-.883 10.618-2.774 6.541-3.472 10.509-9.331 10.509-14.384 0-1.395-.295-2.775-.992-4.061m114.08-24.8c-1.782-3.286-5.549-5.069-10.121-5.069-3.364 0-7.037.992-10.618 2.883-6.541 3.472-10.509 9.316-10.509 14.384 0 1.38.294 2.775.992 4.061 1.782 3.271 5.549 4.96 10.121 4.96 3.364 0 7.037-.883 10.618-2.774 6.541-3.472 10.509-9.331 10.509-14.384 0-1.395-.294-2.775-.992-4.061m65.81 24.8c-1.782-3.286-5.549-5.069-10.121-5.069-3.364 0-7.037.992-10.618 2.883-6.541 3.472-10.509 9.316-10.509 14.384 0 1.38.294 2.775.992 4.061 1.782 3.271 5.549 4.96 10.121 4.96 3.364 0 7.037-.883 10.618-2.774 6.541-3.472 10.509-9.331 10.509-14.384 0-1.395-.294-2.775-.992-4.061m61.02 0c-1.782-3.286-5.549-5.069-10.121-5.069-3.364 0-7.037.992-10.618 2.883-6.541 3.472-10.509 9.316-10.509 14.384 0 1.38.294 2.775.992 4.061 1.782 3.271 5.549 4.96 10.121 4.96 3.364 0 7.037-.883 10.618-2.774 6.541-3.472 10.509-9.331 10.509-14.384 0-1.395-.294-2.775-.992-4.061m65.81-12.4c-1.782-3.286-5.549-5.069-10.121-5.069-3.364 0-7.038.992-10.618 2.883-6.541 3.472-10.509 9.316-10.509 14.384 0 1.38.294 2.775.992 4.061 1.782 3.271 5.549 4.96 10.121 4.96 3.364 0 7.037-.883 10.618-2.774 6.541-3.472 10.509-9.331 10.509-14.384 0-1.395-.294-2.775-.992-4.061m51.94-24.8c-1.782-3.286-5.549-5.069-10.121-5.069-3.364 0-7.037.992-10.618 2.883-6.541 3.472-10.509 9.316-10.509 14.384 0 1.38.294 2.775.992 4.061 1.782 3.271 5.549 4.96 10.121 4.96 3.364 0 7.037-.883 10.618-2.774 6.541-3.472 10.509-9.331 10.509-14.384 0-1.395-.294-2.775-.992-4.061m83.1 37.2c-1.782-3.286-5.549-5.069-10.121-5.069-3.364 0-7.038.992-10.618 2.883-6.541 3.472-10.509 9.316-10.509 14.384 0 1.38.294 2.775.992 4.061 1.782 3.271 5.549 4.96 10.121 4.96 3.364 0 7.037-.883 10.618-2.774 6.541-3.472 10.509-9.331 10.509-14.384 0-1.395-.295-2.775-.992-4.061m103.88-12.4c-1.782-3.286-5.549-5.069-10.121-5.069-3.364 0-7.038.992-10.618 2.883-6.541 3.472-10.509 9.316-10.509 14.384 0 1.38.294 2.775.992 4.061 1.782 3.271 5.549 4.96 10.121 4.96 3.364 0 7.038-.883 10.618-2.774 6.541-3.472 10.509-9.331 10.509-14.384 0-1.395-.295-2.775-.992-4.061m103.87-12.4c-1.782-3.286-5.549-5.069-10.121-5.069-3.364 0-7.038.992-10.618 2.883-6.541 3.472-10.509 9.316-10.509 14.384 0 1.38.294 2.775.992 4.061 1.782 3.271 5.549 4.96 10.121 4.96 3.364 0 7.037-.883 10.618-2.774 6.541-3.472 10.509-9.331 10.509-14.384 0-1.395-.295-2.775-.992-4.061m73.05 0c-1.782-3.286-5.549-5.069-10.121-5.069-3.364 0-7.038.992-10.618 2.883-6.541 3.472-10.509 9.316-10.509 14.384 0 1.38.294 2.775.992 4.061 1.782 3.271 5.549 4.96 10.121 4.96 3.364 0 7.038-.883 10.618-2.774 6.541-3.472 10.509-9.331 10.509-14.384 0-1.395-.294-2.775-.992-4.061m125 24.8c-1.782-3.286-5.549-5.069-10.121-5.069-3.364 0-7.038.992-10.618 2.883-6.541 3.472-10.509 9.316-10.509 14.384 0 1.38.294 2.775.992 4.061 1.782 3.271 5.549 4.96 10.121 4.96 3.364 0 7.038-.883 10.618-2.774 6.541-3.472 10.509-9.331 10.509-14.384 0-1.395-.294-2.775-.992-4.061" style="stroke-width:.992001"/>
  <path class="Clef" d="M399.693 564.543c-7.548 0-13.594 4.355-13.702 4.355-5.75 4.263-8.029 9.331-8.928 12.803-.496 1.783-.682 3.565-.682 5.255 0 2.387.388 4.557 1.287 6.448 1.193 2.681 3.472 4.557 6.448 5.549 1.193.403 2.48.604 3.766.604 2.185 0 4.464-.604 6.355-1.69 3.069-1.689 4.96-5.254 4.96-9.129 0-3.472-1.798-6.65-4.774-8.525-2.077-1.395-4.061-1.782-5.75-1.782-1.194 0-2.279.186-3.178.496-.992.387-2.666 1.38-3.472 2.077.31-1.891 1.488-4.759 2.588-6.355 1.086-1.581 3.271-3.565 4.96-4.464 2.48-1.38 5.658-1.984 9.13-1.984 10.122 0 15.082 8.137 15.082 24.8 0 9.238-3.472 18.057-6.448 23.916-3.286 6.541-7.642 12.803-11.517 16.275-10.323 9.424-20.041 13.888-20.134 13.888 0 0-1.489.884-1.101 2.372.31.992 1.194 1.193 1.798 1.193.093 0 .388-.092.496-.092.093 0 11.408-4.666 20.429-11.718 5.069-3.658 9.626-7.626 13.594-11.904a73.558 73.558 0 0 0 9.13-12.199c4.355-7.44 6.835-15.175 6.835-21.824 0-8.23-2.17-15.082-6.247-19.933-4.665-5.565-11.702-8.432-20.925-8.432m31.14 12.586c0 2.79 2.185 4.96 4.774 4.96 2.573 0 4.758-2.17 4.758-4.96 0-2.775-2.185-5.053-4.758-5.053-2.589 0-4.774 2.278-4.774 5.053m0 24.505c0 2.775 2.185 5.069 4.774 5.069 2.573 0 4.758-2.294 4.758-5.069 0-2.774-2.185-5.053-4.758-5.053-2.589 0-4.774 2.279-4.774 5.053m-47.911-253.88h-7.145c-.698 0-1.287.604-1.287 1.286v90.288c0 .697.589 1.286 1.287 1.286h7.145c.698 0 1.287-.589 1.287-1.286V349.04c0-.682-.59-1.286-1.287-1.286m35.712 50.499h-1.488c-2.278 0-3.968.201-7.827 2.573 0 0-2.186-4.356-5.456-6.634 3.27-2.294 5.456-6.65 5.456-6.65 3.859 2.372 5.549 2.573 7.827 2.573h1.488c12.106 0 18.058-11.206 18.058-21.917 0-13.888-10.215-21.73-22.227-21.73-10.912 0-15.47 5.455-15.47 5.455-1.782 2.186-2.588 4.557-2.588 6.743 0 1.782.496 3.472 1.488 4.96 1.395 1.984 4.17 3.084 6.758 3.084 1.783 0 3.472-.496 4.666-1.488 1.674-1.488 2.774-3.673 2.774-6.06 0-1.38-.403-2.775-1.1-4.061-1.581-2.883-4.557-3.27-6.138-3.27-.605 0-1.101.092-1.101.092 2.279-1.58 5.363-2.48 8.432-2.48 2.775 0 5.456.698 7.347 2.077 3.472 2.589 4.759 8.045 4.759 15.19 0 7.642-.202 18.74-8.928 18.74-8.727 0-10.71-10.416-10.71-10.416s0-1.38-1.396-1.38c-1.38 0-1.488 1.38-1.488 1.38s-.79 5.068-3.472 11.222c-1.58 3.658-3.968 5.347-5.657 6.045v-43.26c0-.683-.496-1.287-1.194-1.287-.682 0-1.286.604-1.286 1.286v90.288c0 .698.604 1.286 1.286 1.286.698 0 1.194-.588 1.194-1.286v-43.26c1.689.697 4.076 2.386 5.657 6.06 2.682 6.138 3.472 11.3 3.472 11.3s.109 1.286 1.488 1.286c1.395 0 1.395-1.286 1.395-1.286s1.984-10.51 10.71-10.51c8.727 0 8.929 11.114 8.929 18.756 0 7.13-1.287 12.586-4.759 15.174-1.891 1.38-4.572 2.077-7.347 2.077-3.069 0-6.153-.883-8.432-2.48 0 0 .496.109 1.1.109 1.582 0 4.558-.404 6.139-3.286.697-1.287 1.1-2.666 1.1-4.062 0-2.386-1.1-4.556-2.774-6.044-1.194-.992-2.883-1.488-4.666-1.488-2.588 0-5.363 1.084-6.758 3.068a8.832 8.832 0 0 0-1.488 4.96c0 2.186.806 4.558 2.589 6.743 0 0 4.557 5.456 15.469 5.456 12.012 0 22.227-7.827 22.227-21.715 0-10.726-5.952-21.933-18.058-21.933m18.709-208.243c-1.225-5.378-3.844-9.176-4.62-10.199-3.161-4.247-7.145-7.068-11.795-8.416-3.084-.868-6.06-.992-8.463-.806a2313.987 2313.987 0 0 1-2.93-17.205c5.41-6.123 9.006-11.873 11.269-16.136 3.441-6.525 4.573-11.067 4.635-11.268 1.705-5.177 2.061-12.819.96-20.956-.991-7.487-3.068-14.151-5.409-17.375-1.007-1.41-2.061-2.14-3.084-2.14-1.21 0-3.705 1.225-6.572 3.984-2.279 2.17-5.518 6.03-8.06 11.997-2.976 7.006-3.193 16.414-2.837 23.08.372 7.222 1.473 12.864 1.488 12.91.016.094.279 1.582.713 4.124-.217.232-.465.45-.713.697-1.023.992-2.201 2.108-3.58 3.488-.853.852-1.798 1.751-2.79 2.712-8.37 8.076-21.065 20.305-21.065 39.308 0 4.666.899 9.052 2.666 13.036 1.566 3.565 3.844 6.82 6.758 9.672 7.673 7.502 18.182 10.68 25.172 10.524 2.93-.077 5.55-.31 7.92-.759 1.814 9.532 2.946 16.507 2.977 21.808.046 6.464-1.597 10.416-5.456 13.16-2.418 1.72-5.208 2.666-8.277 2.805-2.573.125-4.82-.34-6.231-.744h-.016s-.279-.093-.294-.279c-.016-.186.34-.232.34-.232h.031c1.907-.434 5.441-1.659 7.781-4.929 1.783-2.511 2.651-7.099.822-11.005-1.1-2.372-3.58-5.301-9.16-5.75-2.48-.202-4.728.31-6.712 1.503-1.798 1.07-3.286 2.697-4.325 4.681-2.433 4.665-1.984 10.354 1.116 14.167 2.945 3.596 7.518 5.89 12.912 6.463.852.094 1.69.124 2.526.124 4.402 0 8.758-1.193 12.307-3.378 3.627-2.558 5.735-6.51 6.402-12.09.558-4.604.17-10.479-1.209-18.492-.357-2.077-.899-5.084-1.55-8.804 5.704-1.907 9.827-5.456 13.563-11.269 3.27-5.688 4.2-11.749 2.79-18.01m-33.946 26.008c-4.603-1.209-9.005-3.689-12.725-7.176-1.302-1.209-3.162-3.364-4.619-6.727-1.349-3.147-2.015-6.557-1.953-10.106.062-4.666 1.364-9.455 3.844-14.198 2.898-5.534 7.424-11.02 13.438-16.306a89.204 89.204 0 0 0 4.077-3.813c.76 4.231 1.581 8.881 2.449 13.717-3.813 1.256-8.525 4.387-11.61 9.998-3.518 6.51-3.379 11.997-2.65 15.453.93 4.418 3.441 8.153 6.866 10.23.93.558 5.022 2.666 6.851 2.093a1.16 1.16 0 0 0 .775-.667c.512-1.162-.511-1.798-2.046-2.743a27.275 27.275 0 0 1-1.984-1.318c-3.301-2.464-4.743-6.882-3.673-11.237a12.436 12.436 0 0 1 3.673-6.216c1.643-1.534 3.674-2.62 6.03-3.255 2.03 11.16 4.076 22.227 5.704 30.52.124.682.263 1.348.387 2.015-4.34.93-8.649.837-12.834-.264m11.238-32.937c10.261-.465 14.492 6.913 15.376 11.702.465 2.527.465 6.929-1.07 11.114-1.162 3.146-3.596 7.192-8.695 9.238a37.06 37.06 0 0 0-.217-1.271c-1.535-8.711-3.457-19.623-5.394-30.783m-7.27-70.386c1.767-5.688 4.48-8.912 6.464-10.633 1.736-1.503 3.363-2.216 4.278-2.216.14 0 .263.03.356.062.465.14.992.697 1.457 1.565 2.294 4.247 1.55 10.912.217 15.314-1.612 5.363-4.51 10.928-13.237 20.46-.17-1.1-.325-2.139-.48-3.115-1.24-8.215-.915-15.438.945-21.437" style="stroke-width:.992001"/>
  <path class="KeySig" d="M612.269 591.327c.604-.109 1.1-.806 1.1-1.395v-5.86c0-.79-.604-1.379-1.395-1.379h-.201l-3.271.698v-14.787h-2.775v15.376l-8.834 1.782v-13.98h-2.775v14.585l-3.875.79c-.589.093-1.085.79-1.085 1.38v5.951-.185c0 .79.589 1.38 1.395 1.38h.295l3.27-.698v16.368l-3.875.806c-.589.093-1.085.79-1.085 1.38v5.75c0 .806.589 1.395 1.395 1.395h.295l3.27-.698v14.787h2.775v-15.376l8.834-1.782v13.981h2.775V617.01l3.767-.697c.604-.093 1.1-.79 1.1-1.38v-5.859c0-.79-.604-1.38-1.395-1.38h-.201l-3.271.683v-16.368l3.767-.682m-15.376 19.53v-16.461l8.834-1.783v16.368l-8.834 1.876m-9.424 30.07c.604-.109 1.1-.806 1.1-1.395v-5.86c0-.79-.604-1.379-1.395-1.379h-.201l-3.271.698v-14.787h-2.775v15.376l-8.834 1.782v-13.98h-2.775v14.585l-3.875.79c-.589.093-1.085.79-1.085 1.38v5.951-.185c0 .79.589 1.38 1.395 1.38h.295l3.27-.698v16.368l-3.875.806c-.589.093-1.085.79-1.085 1.38v5.75c0 .806.589 1.395 1.395 1.395h.295l3.27-.698v14.787h2.775v-15.376l8.834-1.782v13.98h2.775V666.61l3.767-.697c.604-.093 1.1-.79 1.1-1.38v-5.859c0-.79-.604-1.38-1.395-1.38h-.201l-3.271.683v-16.368l3.767-.682m-15.376 19.53v-16.461l8.834-1.783v16.368l-8.834 1.876m-9.424-56.73c.604-.109 1.1-.806 1.1-1.395v-5.86c0-.79-.604-1.379-1.395-1.379h-.201l-3.271.698v-14.787h-2.775v15.376l-8.834 1.782v-13.98h-2.775v14.585l-3.875.79c-.589.093-1.085.79-1.085 1.38v5.951-.185c0 .79.589 1.38 1.395 1.38h.295l3.27-.698v16.368l-3.875.806c-.589.093-1.085.79-1.085 1.38v5.75c0 .806.589 1.395 1.395 1.395h.295l3.27-.698v14.787h2.775v-15.376l8.834-1.782v13.981h2.775V629.41l3.767-.697c.604-.093 1.1-.79 1.1-1.38v-5.859c0-.79-.604-1.38-1.395-1.38h-.201l-3.271.683v-16.368l3.767-.682m-15.376 19.53v-16.461l8.834-1.783v16.368l-8.834 1.876m-9.424-56.73c.604-.109 1.1-.806 1.1-1.395v-5.86c0-.79-.604-1.379-1.395-1.379h-.201l-3.271.698v-14.787h-2.775v15.376l-8.834 1.782v-13.98h-2.775v14.585l-3.875.79c-.589.093-1.085.79-1.085 1.38v5.951-.185c0 .79.589 1.38 1.395 1.38h.295l3.27-.698v16.368l-3.875.806c-.589.093-1.085.79-1.085 1.38v5.75c0 .806.589 1.395 1.395 1.395h.295l3.27-.698v14.787h2.775v-15.376l8.834-1.782v13.981h2.775V592.21l3.767-.697c.604-.093 1.1-.79 1.1-1.38v-5.859c0-.79-.604-1.38-1.395-1.38h-.201l-3.271.683v-16.368l3.767-.682m-15.376 19.53v-16.461l8.834-1.783v16.368l-8.834 1.876m-9.424 30.07c.604-.109 1.1-.806 1.1-1.395v-5.86c0-.79-.604-1.379-1.395-1.379h-.201l-3.271.698v-14.787h-2.775v15.376l-8.834 1.782v-13.98h-2.775v14.585l-3.875.79c-.589.093-1.085.79-1.085 1.38v5.951-.185c0 .79.589 1.38 1.395 1.38h.295l3.27-.698v16.368l-3.875.806c-.589.093-1.085.79-1.085 1.38v5.75c0 .806.589 1.395 1.395 1.395h.295l3.27-.698v14.787h2.775v-15.376l8.834-1.782v13.981h2.775V641.81l3.767-.697c.604-.093 1.1-.79 1.1-1.38v-5.859c0-.79-.604-1.38-1.395-1.38h-.201l-3.271.683v-16.368l3.767-.682m-15.376 19.53v-16.461l8.834-1.783v16.368l-8.834 1.876m-9.424-56.73c.604-.109 1.1-.806 1.1-1.395v-5.86c0-.79-.604-1.379-1.395-1.379h-.201l-3.271.698v-14.787h-2.775v15.376l-8.834 1.782v-13.98h-2.775v14.585l-3.875.79c-.589.093-1.085.79-1.085 1.38v5.951-.185c0 .79.589 1.38 1.395 1.38h.295l3.27-.698v16.368l-3.875.806c-.589.093-1.085.79-1.085 1.38v5.75c0 .806.589 1.395 1.395 1.395h.295l3.27-.698v14.787h2.775v-15.376l8.834-1.782v13.981h2.775V604.61l3.767-.697c.604-.093 1.1-.79 1.1-1.38v-5.859c0-.79-.604-1.38-1.395-1.38h-.201l-3.271.683v-16.368l3.767-.682m-15.376 19.53v-16.461l8.834-1.783v16.368l-8.834 1.876m139.376-239.481c.604-.109 1.1-.806 1.1-1.395v-5.86c0-.79-.604-1.379-1.395-1.379h-.201l-3.271.698v-14.787h-2.775v15.376l-8.834 1.782v-13.98h-2.775v14.585l-3.875.79c-.589.093-1.085.79-1.085 1.38v5.951-.185c0 .79.589 1.38 1.395 1.38h.295l3.27-.698v16.368l-3.875.806c-.589.093-1.085.79-1.085 1.38v5.75c0 .806.589 1.395 1.395 1.395h.295l3.27-.698v14.787h2.775v-15.376l8.834-1.782v13.981h2.775v-14.586l3.767-.697c.604-.093 1.1-.79 1.1-1.38v-5.859c0-.79-.604-1.38-1.395-1.38h-.201l-3.271.683v-16.368l3.767-.682m-15.376 19.53v-16.461l8.834-1.783v16.368l-8.834 1.876m-9.424 30.07c.604-.109 1.1-.806 1.1-1.395v-5.86c0-.79-.604-1.379-1.395-1.379h-.201l-3.271.698v-14.787h-2.775v15.376l-8.834 1.782v-13.98h-2.775v14.585l-3.875.79c-.589.093-1.085.79-1.085 1.38v5.951-.185c0 .79.589 1.38 1.395 1.38h.295l3.27-.698v16.368l-3.875.806c-.589.093-1.085.79-1.085 1.38v5.75c0 .806.589 1.395 1.395 1.395h.295l3.27-.698v14.787h2.775v-15.376l8.834-1.782v13.981h2.775v-14.586l3.767-.697c.604-.093 1.1-.79 1.1-1.38v-5.859c0-.79-.604-1.38-1.395-1.38h-.201l-3.271.683v-16.368l3.767-.682m-15.376 19.53v-16.461l8.834-1.783v16.368l-8.834 1.876m-9.424-56.73c.604-.109 1.1-.806 1.1-1.395v-5.86c0-.79-.604-1.379-1.395-1.379h-.201l-3.271.698v-14.787h-2.775v15.376l-8.834 1.782v-13.98h-2.775v14.585l-3.875.79c-.589.093-1.085.79-1.085 1.38v5.951-.185c0 .79.589 1.38 1.395 1.38h.295l3.27-.698v16.368l-3.875.806c-.589.093-1.085.79-1.085 1.38v5.75c0 .806.589 1.395 1.395 1.395h.295l3.27-.698v14.787h2.775v-15.376l8.834-1.782v13.981h2.775v-14.586l3.767-.697c.604-.093 1.1-.79 1.1-1.38v-5.859c0-.79-.604-1.38-1.395-1.38h-.201l-3.271.683v-16.368l3.767-.682m-15.376 19.53v-16.461l8.834-1.783v16.368l-8.834 1.876m-9.424-56.73c.604-.109 1.1-.806 1.1-1.395v-5.86c0-.79-.604-1.379-1.395-1.379h-.201l-3.271.698v-14.787h-2.775v15.376l-8.834 1.782v-13.98h-2.775v14.585l-3.875.79c-.589.093-1.085.79-1.085 1.38v5.951-.185c0 .79.589 1.38 1.395 1.38h.295l3.27-.698v16.368l-3.875.806c-.589.093-1.085.79-1.085 1.38v5.75c0 .806.589 1.395 1.395 1.395h.295l3.27-.698v14.787h2.775v-15.376l8.834-1.782v13.981h2.775v-14.586l3.767-.697c.604-.093 1.1-.79 1.1-1.38v-5.859c0-.79-.604-1.38-1.395-1.38h-.201l-3.271.683v-16.368l3.767-.682m-15.376 19.53v-16.461l8.834-1.783v16.368l-8.834 1.876m-9.424 30.07c.604-.109 1.1-.806 1.1-1.395v-5.86c0-.79-.604-1.379-1.395-1.379h-.201l-3.271.698v-14.787h-2.775v15.376l-8.834 1.782v-13.98h-2.775v14.585l-3.875.79c-.589.093-1.085.79-1.085 1.38v5.951-.185c0 .79.589 1.38 1.395 1.38h.295l3.27-.698v16.368l-3.875.806c-.589.093-1.085.79-1.085 1.38v5.75c0 .806.589 1.395 1.395 1.395h.295l3.27-.698v14.787h2.775v-15.376l8.834-1.782v13.981h2.775v-14.586l3.767-.697c.604-.093 1.1-.79 1.1-1.38v-5.859c0-.79-.604-1.38-1.395-1.38h-.201l-3.271.683v-16.368l3.767-.682m-15.376 19.53v-16.461l8.834-1.783v16.368l-8.834 1.876m-9.424-56.73c.604-.109 1.1-.806 1.1-1.395v-5.86c0-.79-.604-1.379-1.395-1.379h-.201l-3.271.698v-14.787h-2.775v15.376l-8.834 1.782v-13.98h-2.775v14.585l-3.875.79c-.589.093-1.085.79-1.085 1.38v5.951-.185c0 .79.589 1.38 1.395 1.38h.295l3.27-.698v16.368l-3.875.806c-.589.093-1.085.79-1.085 1.38v5.75c0 .806.589 1.395 1.395 1.395h.295l3.27-.698v14.787h2.775v-15.376l8.834-1.782v13.981h2.775v-14.586l3.767-.697c.604-.093 1.1-.79 1.1-1.38v-5.859c0-.79-.604-1.38-1.395-1.38h-.201l-3.271.683v-16.368l3.767-.682m-15.376 19.53v-16.461l8.834-1.783v16.368l-8.834 1.876m139.376-242.73c.604-.109 1.1-.806 1.1-1.395v-5.86c0-.79-.604-1.379-1.395-1.379h-.201l-3.271.698v-14.787h-2.775v15.376l-8.834 1.782v-13.98h-2.775v14.585l-3.875.79c-.589.093-1.085.79-1.085 1.38v5.951-.185c0 .79.589 1.38 1.395 1.38h.295l3.27-.698v16.368l-3.875.806c-.589.093-1.085.79-1.085 1.38v5.75c0 .806.589 1.395 1.395 1.395h.295l3.27-.698v14.787h2.775v-15.376l8.834-1.782v13.98h2.775V149.06l3.767-.697c.604-.093 1.1-.79 1.1-1.38v-5.859c0-.79-.604-1.38-1.395-1.38h-.201l-3.271.683v-16.368l3.767-.682m-15.376 19.53v-16.461l8.834-1.783v16.368l-8.834 1.876m-9.424 30.069c.604-.109 1.1-.806 1.1-1.395v-5.86c0-.79-.604-1.379-1.395-1.379h-.201l-3.271.698v-14.787h-2.775v15.376l-8.834 1.782v-13.98h-2.775v14.585l-3.875.79c-.589.093-1.085.79-1.085 1.38v5.951-.185c0 .79.589 1.38 1.395 1.38h.295l3.27-.698v16.368l-3.875.806c-.589.093-1.085.79-1.085 1.38v5.75c0 .806.589 1.395 1.395 1.395h.295l3.27-.698v14.787h2.775v-15.376l8.834-1.782v13.98h2.775V198.66l3.767-.697c.604-.093 1.1-.79 1.1-1.38v-5.859c0-.79-.604-1.38-1.395-1.38h-.201l-3.271.683v-16.368l3.767-.682m-15.376 19.53v-16.461l8.834-1.783v16.368l-8.834 1.876m-9.424-56.731c.604-.109 1.1-.806 1.1-1.395v-5.86c0-.79-.604-1.379-1.395-1.379h-.201l-3.271.698v-14.787h-2.775v15.376l-8.834 1.782v-13.98h-2.775v14.585l-3.875.79c-.589.093-1.085.79-1.085 1.38v5.951-.185c0 .79.589 1.38 1.395 1.38h.295l3.27-.698v16.368l-3.875.806c-.589.093-1.085.79-1.085 1.38v5.75c0 .806.589 1.395 1.395 1.395h.295l3.27-.698v14.787h2.775v-15.376l8.834-1.782v13.98h2.775V161.46l3.767-.697c.604-.093 1.1-.79 1.1-1.38v-5.859c0-.79-.604-1.38-1.395-1.38h-.201l-3.271.683v-16.368l3.767-.682m-15.376 19.53v-16.461l8.834-1.783v16.368l-8.834 1.876m-9.424-56.731c.604-.109 1.1-.806 1.1-1.395v-5.86c0-.79-.604-1.379-1.395-1.379h-.201l-3.271.698V75.853h-2.775v15.376l-8.834 1.782v-13.98h-2.775v14.585l-3.875.79c-.589.093-1.085.79-1.085 1.38v5.951-.185c0 .79.589 1.38 1.395 1.38h.295l3.27-.698v16.368l-3.875.806c-.589.093-1.085.79-1.085 1.38v5.75c0 .806.589 1.395 1.395 1.395h.295l3.27-.698v14.787h2.775v-15.376l8.834-1.782v13.98h2.775V124.26l3.767-.697c.604-.093 1.1-.79 1.1-1.38v-5.859c0-.79-.604-1.38-1.395-1.38h-.201l-3.271.683V99.258l3.767-.682m-15.376 19.53v-16.461l8.834-1.783v16.368l-8.834 1.876m-9.424 30.07c.604-.109 1.1-.806 1.1-1.395v-5.86c0-.79-.604-1.379-1.395-1.379h-.201l-3.271.698v-14.787h-2.775v15.376l-8.834 1.782v-13.98h-2.775v14.585l-3.875.79c-.589.093-1.085.79-1.085 1.38v5.951-.185c0 .79.589 1.38 1.395 1.38h.295l3.27-.698v16.368l-3.875.806c-.589.093-1.085.79-1.085 1.38v5.75c0 .806.589 1.395 1.395 1.395h.295l3.27-.698v14.787h2.775v-15.376l8.834-1.782v13.98h2.775V173.86l3.767-.697c.604-.093 1.1-.79 1.1-1.38v-5.859c0-.79-.604-1.38-1.395-1.38h-.201l-3.271.683v-16.368l3.767-.682m-15.376 19.53v-16.461l8.834-1.783v16.368l-8.834 1.876m-9.424-56.731c.604-.109 1.1-.806 1.1-1.395v-5.86c0-.79-.604-1.379-1.395-1.379h-.201l-3.271.698V88.253h-2.775v15.376l-8.834 1.782v-13.98h-2.775v14.585l-3.875.79c-.589.093-1.085.79-1.085 1.38v5.951-.185c0 .79.589 1.38 1.395 1.38h.295l3.27-.698v16.368l-3.875.806c-.589.093-1.085.79-1.085 1.38v5.75c0 .806.589 1.395 1.395 1.395h.295l3.27-.698v14.787h2.775v-15.376l8.834-1.782v13.98h2.775V136.66l3.767-.697c.604-.093 1.1-.79 1.1-1.38v-5.859c0-.79-.604-1.38-1.395-1.38h-.201l-3.271.683v-16.368l3.767-.682m-15.376 19.53v-16.461l8.834-1.783v16.368l-8.834 1.876" style="stroke-width:.992001"/>
  <path class="TimeSig" d="M640.362 602.09h17.035v7.393h-8.153c-.776 0-1.411.62-1.411 1.395v1.891c0 .775.635 1.395 1.41 1.395h30.009a1.39 1.39 0 0 0 1.395-1.395v-1.89a1.39 1.39 0 0 0-1.395-1.396h-8.866v-7.393h8.866a1.39 1.39 0 0 0 1.395-1.395v-1.891a1.39 1.39 0 0 0-1.395-1.395h-8.866v-15.841c0-.527-.31-1.008-.775-1.24l-1.21-.605a1.446 1.446 0 0 0-1.58.233l-8.975 8.246c-.279.279-.45.635-.45 1.038v8.169h-11.423s11.036-11.935 22.785-27.575c.853-1.147.357-2.185.17-2.371l-2.154-2.186a1.41 1.41 0 0 0-.992-.418c-.589 0-14.043.03-14.756 0-.713-.016-1.24.604-1.318 1.209 0 0-.526 7.3-3.115 15.376-2.573 8.044-5.487 12.989-8.122 16.585 0 0-.542.976-.186 1.72.341.744.977 1.814.977 1.814s.248.527 1.1.527m0 49.34h17.035v7.393h-8.153c-.776 0-1.411.62-1.411 1.395v1.891c0 .775.635 1.395 1.41 1.395h30.009a1.39 1.39 0 0 0 1.395-1.395v-1.89a1.39 1.39 0 0 0-1.395-1.396h-8.866v-7.393h8.866a1.39 1.39 0 0 0 1.395-1.395v-1.891a1.39 1.39 0 0 0-1.395-1.395h-8.866v-15.841c0-.527-.31-1.008-.775-1.24l-1.21-.605a1.446 1.446 0 0 0-1.58.233l-8.975 8.246c-.279.279-.45.635-.45 1.038v8.169h-11.423s11.036-11.935 22.785-27.575c.853-1.147.357-2.185.17-2.371l-2.154-2.186a1.41 1.41 0 0 0-.992-.418c-.589 0-14.043.03-14.756 0-.713-.016-1.24.604-1.318 1.209 0 0-.526 7.3-3.115 15.376-2.573 8.044-5.487 12.989-8.122 16.585 0 0-.542.976-.186 1.72.341.744.977 1.814.977 1.814s.248.527 1.1.527m0-269.29h17.035v7.394h-8.153c-.776 0-1.411.62-1.411 1.395v1.891c0 .775.635 1.395 1.41 1.395h30.009a1.39 1.39 0 0 0 1.395-1.395v-1.89a1.39 1.39 0 0 0-1.395-1.396h-8.866v-7.393h8.866a1.39 1.39 0 0 0 1.395-1.395v-1.891a1.39 1.39 0 0 0-1.395-1.395h-8.866v-15.841c0-.527-.31-1.008-.775-1.24l-1.21-.605a1.446 1.446 0 0 0-1.58.233l-8.975 8.246c-.279.279-.45.635-.45 1.038v8.169h-11.423s11.036-11.935 22.785-27.575c.853-1.147.357-2.185.17-2.371l-2.154-2.186a1.41 1.41 0 0 0-.992-.418c-.589 0-14.043.03-14.756 0-.713-.016-1.24.604-1.318 1.209 0 0-.526 7.3-3.115 15.376-2.573 8.044-5.487 12.989-8.122 16.585 0 0-.542.976-.186 1.72.341.744.977 1.814.977 1.814s.248.527 1.1.527m0 49.337h17.035v7.393h-8.153c-.776 0-1.411.62-1.411 1.395v1.891c0 .775.635 1.395 1.41 1.395h30.009a1.39 1.39 0 0 0 1.395-1.395v-1.89a1.39 1.39 0 0 0-1.395-1.396h-8.866v-7.393h8.866a1.39 1.39 0 0 0 1.395-1.395v-1.891a1.39 1.39 0 0 0-1.395-1.395h-8.866v-15.841c0-.527-.31-1.008-.775-1.24l-1.21-.605a1.446 1.446 0 0 0-1.58.233l-8.975 8.246c-.279.279-.45.635-.45 1.038v8.169h-11.423s11.036-11.935 22.785-27.575c.853-1.147.357-2.185.17-2.371l-2.154-2.186a1.41 1.41 0 0 0-.992-.418c-.589 0-14.043.03-14.756 0-.713-.016-1.24.604-1.318 1.209 0 0-.526 7.3-3.115 15.376-2.573 8.044-5.487 12.989-8.122 16.585 0 0-.542.976-.186 1.72.341.744.977 1.814.977 1.814s.248.527 1.1.527m0-272.538h17.035v7.394h-8.153c-.776 0-1.411.62-1.411 1.395v1.891c0 .775.635 1.395 1.41 1.395h30.009a1.39 1.39 0 0 0 1.395-1.395v-1.89a1.39 1.39 0 0 0-1.395-1.396h-8.866v-7.393h8.866a1.39 1.39 0 0 0 1.395-1.395v-1.891a1.39 1.39 0 0 0-1.395-1.395h-8.866v-15.841c0-.527-.31-1.008-.775-1.24l-1.21-.605a1.446 1.446 0 0 0-1.58.233l-8.975 8.246c-.279.279-.45.635-.45 1.038v8.169h-11.423s11.036-11.935 22.785-27.575c.853-1.147.357-2.185.17-2.371l-2.154-2.186a1.41 1.41 0 0 0-.992-.418c-.589 0-14.043.03-14.756 0-.713-.016-1.24.604-1.318 1.209 0 0-.526 7.3-3.115 15.376-2.573 8.044-5.487 12.989-8.122 16.585 0 0-.542.976-.186 1.72.341.744.977 1.814.977 1.814s.248.527 1.1.527m0 49.336h17.035v7.393h-8.153c-.776 0-1.411.62-1.411 1.395v1.891c0 .775.635 1.395 1.41 1.395h30.009a1.39 1.39 0 0 0 1.395-1.395v-1.89a1.39 1.39 0 0 0-1.395-1.396h-8.866v-7.393h8.866a1.39 1.39 0 0 0 1.395-1.395v-1.891a1.39 1.39 0 0 0-1.395-1.395h-8.866v-15.841c0-.527-.31-1.008-.775-1.24l-1.21-.605a1.446 1.446 0 0 0-1.58.233l-8.975 8.246c-.279.279-.45.635-.45 1.038v8.169h-11.423s11.036-11.935 22.785-27.575c.853-1.147.357-2.185.17-2.371l-2.154-2.186a1.41 1.41 0 0 0-.992-.418c-.589 0-14.043.03-14.756 0-.713-.016-1.24.604-1.318 1.209 0 0-.526 7.3-3.115 15.376-2.573 8.044-5.487 12.989-8.122 16.585 0 0-.542.976-.186 1.72.341.744.977 1.814.977 1.814s.248.527 1.1.527" style="stroke-width:.992001"/>
  <path class="Rest" d="M893.34 594.132c-.745-.263-1.411.093-1.721.713-.295.605-3.1 5.999-7.378 9.378-1.334 1.054-2.884 1.736-4.434 2.123a7.077 7.077 0 0 0 1.628-4.758 7.07 7.07 0 0 0-7.316-6.82c-3.906.14-6.975 3.41-6.835 7.316a7.077 7.077 0 0 0 4.696 6.417c1.55.682 3.441 1.038 5.471.976 2.822-.108 5.875-1.038 8.495-3.1 1.224-.96 2.371-2.185 3.394-3.472v.016l-4.464 15.779s0 .015-.015.015v.016c-.466.945-3.69 7.068-7.673 10.214-1.333 1.07-2.883 1.752-4.433 2.124a7.01 7.01 0 0 0 1.628-4.743c-.14-3.922-3.41-6.975-7.317-6.836-3.906.14-6.975 3.41-6.835 7.332.108 2.976 2.046 5.456 4.696 6.417 1.55.666 3.441 1.038 5.472.961a14.522 14.522 0 0 0 8.494-3.085c1.209-.96 2.356-2.17 3.379-3.472l-10.121 36.178 2.65.744 18.522-65.674.868-3.1c.202-.729-.108-1.41-.852-1.659m825.691 0c-.745-.263-1.411.093-1.721.713-.295.605-3.1 5.999-7.378 9.378-1.333 1.054-2.883 1.736-4.433 2.123a7.077 7.077 0 0 0 1.627-4.758 7.07 7.07 0 0 0-7.316-6.82c-3.906.14-6.975 3.41-6.835 7.316a7.077 7.077 0 0 0 4.696 6.417c1.55.682 3.441 1.038 5.471.976 2.822-.108 5.875-1.038 8.495-3.1 1.224-.96 2.371-2.185 3.394-3.472v.016l-4.464 15.779s0 .015-.015.015v.016c-.465.945-3.689 7.068-7.672 10.214-1.333 1.07-2.883 1.752-4.433 2.124a7.01 7.01 0 0 0 1.627-4.743c-.14-3.922-3.41-6.975-7.316-6.836-3.906.14-6.975 3.41-6.835 7.332.108 2.976 2.046 5.456 4.696 6.417 1.55.666 3.441 1.038 5.472.961a14.522 14.522 0 0 0 8.494-3.085c1.209-.96 2.356-2.17 3.379-3.472l-10.122 36.178 2.65.744 18.523-65.674.868-3.1c.202-.729-.108-1.41-.852-1.659m178.77 0c-.745-.263-1.411.093-1.721.713-.295.605-3.1 5.999-7.378 9.378-1.333 1.054-2.883 1.736-4.433 2.123a7.077 7.077 0 0 0 1.627-4.758 7.07 7.07 0 0 0-7.316-6.82c-3.906.14-6.975 3.41-6.835 7.316a7.077 7.077 0 0 0 4.696 6.417c1.55.682 3.441 1.038 5.471.976 2.822-.108 5.875-1.038 8.495-3.1 1.224-.96 2.371-2.185 3.394-3.472v.016l-4.464 15.779s0 .015-.015.015v.016c-.465.945-3.689 7.068-7.672 10.214-1.333 1.07-2.883 1.752-4.433 2.124a7.01 7.01 0 0 0 1.627-4.743c-.14-3.922-3.41-6.975-7.316-6.836-3.906.14-6.975 3.41-6.835 7.332.108 2.976 2.046 5.456 4.696 6.417 1.55.666 3.441 1.038 5.472.961a14.522 14.522 0 0 0 8.494-3.085c1.209-.96 2.356-2.17 3.379-3.472l-10.122 36.178 2.65.744 18.523-65.674.868-3.1c.202-.729-.108-1.41-.852-1.659" style="stroke-width:.992001"/>
  <path class="Articulation" d="M1226.36 629.394c1.519 1.504 3.968 1.504 5.471 0a3.854 3.854 0 0 0 0-5.471 3.854 3.854 0 0 0-5.471 0c-1.504 1.503-1.504 3.952 0 5.471m131.61 24.8c1.518 1.504 3.967 1.504 5.471 0a3.854 3.854 0 0 0 0-5.471 3.854 3.854 0 0 0-5.471 0c-1.504 1.503-1.504 3.952 0 5.471m637.76-99.22a3.854 3.854 0 0 0 5.471 0 3.854 3.854 0 0 0 0-5.471c-1.504-1.504-3.953-1.504-5.471 0-1.504 1.519-1.504 3.968 0 5.471m135.04 124.02c1.518 1.504 3.967 1.504 5.471 0a3.854 3.854 0 0 0 0-5.471 3.854 3.854 0 0 0-5.471 0c-1.504 1.503-1.504 3.952 0 5.471m155.82 0c1.518 1.504 3.967 1.504 5.471 0a3.854 3.854 0 0 0 0-5.471 3.854 3.854 0 0 0-5.471 0c-1.504 1.503-1.504 3.952 0 5.471" style="stroke-width:.992001"/>
  <path class="Beam" fill-rule="evenodd" d="m759.743 538.406 52.685 19.62v13.23l-52.685-19.62v-13.23m0 18.6 32.241 12v13.24l-32.241-12.01v-13.23m179.855 8.11 132.63-31.65v12.75l-132.63 31.65v-12.75m79.94-.48 52.69-12.57v12.75l-52.69 12.57v-12.75m99.92-30.66 125.74-19.01v12.54l-125.74 19.02v-12.55m0 18.6 52.69-7.96v12.54l-52.69 7.97v-12.55m254.63-19.04 175.7 6.3v12.41l-175.7-6.3v-12.41m99.92 22.18 75.78 2.72v12.41l-75.78-2.72v-12.41m293.27-21.55 68.53-19.37v12.89l-68.53 19.37v-12.89m0 18.6 68.53-19.37v12.89l-68.53 19.37v-12.89m163.13 98.63 54.66 6.52v12.49l-54.66-6.52v-12.49m0-18.6 32.24 3.85v12.49l-32.24-3.85v-12.49m164.54-67.8 158.55-25.24v12.56l-158.55 25.24v-12.56m0 18.6 32.24-5.13v12.55l-32.24 5.14v-12.56m158.55-25.24-32.24 5.14v12.55l32.24-5.13v-12.56m49.21-18.22 200.77-25.15v12.5l-200.77 25.14v-12.49m124.99 2.94 75.78-9.49v12.5l-75.78 9.49v-12.5M730.239 462.485h132.629v12.4H730.239v-12.4m0-18.6h32.24v12.4h-32.24v-12.4m132.629 0h-32.24v12.4h32.24v-12.4m47.23 18.264 132.63 44.307v13.08l-132.63-44.314v-13.073m79.94 8.107 52.69 17.6v13.08l-52.69-17.606v-13.074m129.42-181.371h191.55v12.4h-191.55v-12.4m0 18.6h191.55v12.4h-191.55v-12.4m225.12 173.502 175.7 31.489v12.6l-175.7-31.49v-12.6m0-18.599 175.7 31.489v12.6l-175.7-31.492v-12.597m308.62-142.411 182.61-6.294v12.407l-182.61 6.294v-12.407m114.08 14.668 68.53-2.362v12.407l-68.53 2.362v-12.407m97.32 152.43 120.47-31.718v12.822l-120.47 31.718v-12.822m0-18.6 68.54-18.044v12.823l-68.54 18.044v-12.823m230.35-148.234 158.55-25.233v12.556l-158.55 25.234V320.24m0 18.6 158.55-25.233v12.556l-158.55 25.234V338.84m178.25 142.197 200.77-25.142v12.497l-200.77 25.144v-12.5m0-18.599 200.77-25.142v12.497l-200.77 25.142v-12.497M730.239 233.085h132.629v12.4H730.239v-12.4m0-18.6h32.24v12.4h-32.24v-12.4m132.629 0h-32.24v12.4h32.24v-12.4m47.23-6.2h132.63v12.4h-132.63v-12.4m79.94-18.6h52.69v12.4h-52.69v-12.4m99.92 74.4h191.55v12.4h-191.55v-12.4m0-18.6h191.55v12.4h-191.55v-12.4m254.62-31.036 175.7 18.894v12.47l-175.7-18.892v-12.472m0-18.6 32.24 3.467v12.472l-32.24-3.467v-12.472m175.7 18.894-32.24-3.467v12.47l32.24 3.468v-12.471m103.41 18.342h182.61v12.4h-182.61v-12.4m114.08-18.6h68.53v12.4h-68.53v-12.4m126.83 18.464 120.47-25.375v12.673l-120.47 25.374v-12.672m0-18.6 68.54-14.435v12.672l-68.54 14.435v-12.672m200.85 6.325 106.6-6.363v12.422l-106.6 6.363v-12.422m207.75-6.216 200.77 18.856v12.455l-200.77-18.857v-12.454m0-18.6 32.24 3.028v12.454l-32.24-3.028v-12.454m200.77 18.856-32.24-3.028v12.455l32.24 3.028v-12.455"/>
  <path class="Hook" d="M1680.974 584.972c-.093-5.162-1.286-10.509-4.758-14.973-4.759-6.154-11.02-9.238-14.787-14.694-3.767-5.456-5.348-16.058-5.348-16.058-.108-.698-.31-1.194-1.488-1.194-1.194 0-1.395.496-1.395 1.194v37.99c0 .202.697.791 1.395.992 2.573.992 10.416 5.86 16.368 14.679 3.565 5.456 4.154 9.13 4.154 12.695v1.1c-.093 2.48-.682 7.533-2.17 11.501-.31.9-.806 2.185.186 2.681s1.596-.588 2.092-1.286c1.783-2.883 4.372-8.138 4.372-13.795a52.61 52.61 0 0 0-.496-7.331c.992-3.581 1.875-8.045 1.875-12.71v-.791m-7.037 1.395c-2.682-3.472-5.658-6.65-10.525-11.517-3.859-3.859-5.657-7.238-6.339-9.811-.109-.202-.109-.605-.202-.9l.093.404c4.464.387 10.525 4.851 14.291 9.424 4.464 5.347 5.348 9.517 5.348 13.392 0 .992 0 1.875-.093 2.867-.589-1.085-1.782-2.867-2.573-3.859" style="stroke-width:.992001"/>
  <path class="Bracket" fill="none" stroke="#000" stroke-width="10.91" stroke-linejoin="bevel" d="M336.794 326.829v354.867"/>
  <path class="Bracket" d="M379.357 304.803c-.201-.093-.496-.201-.697-.201-.403 0-.853.155-1.085.496-.202.294-10.122 15.577-29.078 15.577h-15.764c-.806 0-1.395.496-1.395 1.287v10.323h12.105c30.551 0 36.41-25.482 36.503-25.792.031-.093.109-.295.109-.496 0-.496-.31-.9-.698-1.194m0 398.914c.388-.294.698-.697.698-1.193 0-.202-.078-.403-.109-.496-.093-.31-5.952-25.792-36.503-25.792h-12.105v10.323c0 .79.589 1.286 1.395 1.286h15.764c18.956 0 28.876 15.283 29.078 15.578.232.34.682.496 1.085.496.201 0 .496-.109.697-.202" style="stroke-width:.992001"/>
  <text xml:space="preserve" style="font-size:64px;line-height:1.25;font-family:FreeSerif,serif;-inkscape-font-specification:FreeSerif,serif" x="854.15" y="782.074"><tspan x="854.15" y="782.074" style="fill:#ff2a2a;fill-opacity:1">I</tspan></text>
  <text xml:space="preserve" style="font-size:64px;line-height:1.25;font-family:FreeSerif,serif;-inkscape-font-specification:FreeSerif,serif" x="1279.66" y="1294.788" transform="translate(-174.692 -512.714)"><tspan x="1279.66" y="1294.788" style="fill:#f5d;fill-opacity:1">V</tspan></text>
  <text xml:space="preserve" style="font-size:37.3333px;line-height:1.25;font-family:FreeSerif,serif;-inkscape-font-specification:FreeSerif,serif" x="1329.494" y="1260.303" transform="translate(-174.692 -512.714)"><tspan x="1329.494" y="1260.303" style="font-size:37.3333px;fill:#f5d;fill-opacity:1">6</tspan></text>
  <text xml:space="preserve" style="font-size:37.3333px;line-height:1.25;font-family:FreeSerif,serif;-inkscape-font-specification:FreeSerif,serif" x="1329.494" y="1310.137" transform="translate(-174.692 -512.714)"><tspan x="1329.494" y="1310.137" style="font-size:37.3333px;fill:#f5d;fill-opacity:1">4</tspan></text>
  <text xml:space="preserve" style="font-size:64px;line-height:1.25;font-family:FreeSerif,serif;-inkscape-font-specification:FreeSerif,serif" x="1246.799" y="782.073"><tspan x="1246.799" y="782.073" style="fill:#37c871;fill-opacity:1">III911</tspan></text>
  <text xml:space="preserve" style="font-size:64px;line-height:1.25;font-family:FreeSerif,serif;-inkscape-font-specification:FreeSerif,serif" x="1779.47" y="1294.792" transform="translate(-202.692 -512.714)"><tspan x="1779.47" y="1294.792" style="fill:#abc837;fill-opacity:1">iii</tspan></text>
  <text xml:space="preserve" style="font-size:37.3333px;line-height:1.25;font-family:FreeSerif,serif;-inkscape-font-specification:FreeSerif,serif" x="1833.585" y="1258.701" transform="translate(-202.692 -512.714)"><tspan x="1833.585" y="1258.701" style="font-size:37.3333px;fill:#abc837;fill-opacity:1">6</tspan></text>
  <text xml:space="preserve" style="font-size:64px;line-height:1.25;font-family:FreeSerif,serif;-inkscape-font-specification:FreeSerif,serif" x="1934.895" y="1294.843" transform="translate(-184.692 -512.714)"><tspan x="1934.895" y="1294.843" style="fill:#ff2a7f;fill-opacity:1">VII</tspan></text>
  <text xml:space="preserve" style="font-size:37.3333px;line-height:1.25;font-family:FreeSerif,serif;-inkscape-font-specification:FreeSerif,serif" x="2052.602" y="1258.38" transform="translate(-184.692 -512.714)"><tspan x="2052.602" y="1258.38" style="font-size:37.3333px;fill:#ff2a7f;fill-opacity:1">6</tspan></text>
  <text xml:space="preserve" style="font-size:37.3333px;line-height:1.25;font-family:FreeSerif,serif;-inkscape-font-specification:FreeSerif,serif" x="2052.081" y="1310.832" transform="translate(-184.692 -512.714)"><tspan x="2052.081" y="1310.832" style="font-size:37.3333px;fill:#ff2a7f;fill-opacity:1">4</tspan></text>
  <text xml:space="preserve" style="font-size:64px;line-height:1.25;font-family:FreeSerif,serif;-inkscape-font-specification:FreeSerif,serif" x="2130.764" y="1294.788" transform="translate(-200.692 -512.714)"><tspan x="2130.764" y="1294.788" style="fill:#ff7f2a;fill-opacity:1">VI</tspan></text>
  <text xml:space="preserve" style="font-size:37.3333px;line-height:1.25;font-family:FreeSerif,serif;-inkscape-font-specification:FreeSerif,serif" x="2225.532" y="1257.234" transform="translate(-200.692 -512.714)"><tspan x="2225.532" y="1257.234" style="font-size:37.3333px;fill:#ff7f2a;fill-opacity:1">6</tspan></text>
  <text xml:space="preserve" style="font-size:64px;line-height:1.25;font-family:FreeSerif,serif;-inkscape-font-specification:FreeSerif,serif" x="2418.823" y="1294.788" transform="translate(-194.692 -512.714)"><tspan x="2418.823" y="1294.788" style="fill:#916f7c;fill-opacity:1">vii7</tspan></text>
  <text xml:space="preserve" style="font-size:37.3333px;line-height:1.25;font-family:FreeSerif,serif;-inkscape-font-specification:FreeSerif,serif" x="2544.088" y="1258.493" transform="translate(-194.692 -512.714)"><tspan x="2544.088" y="1258.493" style="font-size:37.3333px;fill:#916f7c;fill-opacity:1">6</tspan></text>
  <text xml:space="preserve" style="font-size:37.3333px;line-height:1.25;font-family:FreeSerif,serif;-inkscape-font-specification:FreeSerif,serif" x="2544.609" y="1310.091" transform="translate(-194.692 -512.714)"><tspan x="2544.609" y="1310.091" style="font-size:37.3333px;fill:#916f7c;fill-opacity:1">5</tspan></text>
  <text xml:space="preserve" style="font-size:64px;line-height:1.25;font-family:FreeSerif,serif;-inkscape-font-specification:FreeSerif,serif" x="729.037" y="69.808"><tspan x="729.037" y="69.808">1</tspan></text>
  <text xml:space="preserve" style="font-size:64px;line-height:1.25;font-family:FreeSerif,serif;-inkscape-font-specification:FreeSerif,serif" x="785.896" y="68.572"><tspan x="785.896" y="68.572">5</tspan></text>
  <text xml:space="preserve" style="font-size:64px;line-height:1.25;font-family:FreeSerif,serif;-inkscape-font-specification:FreeSerif,serif" x="858.147" y="69.056"><tspan x="858.147" y="69.056">1</tspan></text>
  <text xml:space="preserve" style="font-size:64px;line-height:1.25;font-family:FreeSerif,serif;-inkscape-font-specification:FreeSerif,serif" x="971.732" y="68.828"><tspan x="971.732" y="68.828" style="fill:#2a7fff">7</tspan></text>
  <text xml:space="preserve" style="font-size:64px;line-height:1.25;font-family:FreeSerif,serif;-inkscape-font-specification:FreeSerif,serif" x="1041.363" y="69.053"><tspan x="1041.363" y="69.053" style="fill:#ff7f2a">4</tspan></text>
  <text xml:space="preserve" style="font-size:64px;line-height:1.25;font-family:FreeSerif,serif;-inkscape-font-specification:FreeSerif,serif" x="1141.701" y="68.383"><tspan x="1141.701" y="68.383">5</tspan></text>
  <text xml:space="preserve" style="font-size:64px;line-height:1.25;font-family:FreeSerif,serif;-inkscape-font-specification:FreeSerif,serif" x="1214.672" y="69.718"><tspan x="1214.672" y="69.718">3</tspan></text>
  <text xml:space="preserve" style="font-size:64px;line-height:1.25;font-family:FreeSerif,serif;-inkscape-font-specification:FreeSerif,serif" x="1279.856" y="68.828"><tspan x="1279.856" y="68.828" style="fill:#ff7f2a">6</tspan></text>
  <text xml:space="preserve" style="font-size:64px;line-height:1.25;font-family:FreeSerif,serif;-inkscape-font-specification:FreeSerif,serif" x="1395.74" y="68.825"><tspan x="1395.74" y="68.825" style="fill:#ff7f2a">6</tspan></text>
  <text xml:space="preserve" style="font-size:64px;line-height:1.25;font-family:FreeSerif,serif;-inkscape-font-specification:FreeSerif,serif" x="1804.023" y="68.755"><tspan x="1804.023" y="68.755" style="fill:#ff7f2a">6</tspan></text>
  <text xml:space="preserve" style="font-size:64px;line-height:1.25;font-family:FreeSerif,serif;-inkscape-font-specification:FreeSerif,serif" x="1345.494" y="69.718"><tspan x="1345.494" y="69.718">5</tspan></text>
  <text xml:space="preserve" style="font-size:64px;line-height:1.25;font-family:FreeSerif,serif;-inkscape-font-specification:FreeSerif,serif" x="1502.546" y="68.828"><tspan x="1502.546" y="68.828">3</tspan></text>
  <text xml:space="preserve" style="font-size:64px;line-height:1.25;font-family:FreeSerif,serif;-inkscape-font-specification:FreeSerif,serif" x="1737.611" y="69.718"><tspan x="1737.611" y="69.718">1</tspan></text>
  <text xml:space="preserve" style="font-size:64px;line-height:1.25;font-family:FreeSerif,serif;-inkscape-font-specification:FreeSerif,serif" x="1928.89" y="69.548"><tspan x="1928.89" y="69.548">1</tspan></text>
  <text xml:space="preserve" style="font-size:64px;line-height:1.25;font-family:FreeSerif,serif;-inkscape-font-specification:FreeSerif,serif" x="1984.875" y="69.718"><tspan x="1984.875" y="69.718">3</tspan></text>
  <text xml:space="preserve" style="font-size:64px;line-height:1.25;font-family:FreeSerif,serif;-inkscape-font-specification:FreeSerif,serif" x="2053.41" y="68.608"><tspan x="2053.41" y="68.608" style="fill:#ff7f2a;fill-opacity:1">6</tspan></text>
  <text xml:space="preserve" style="font-size:64px;line-height:1.25;font-family:FreeSerif,serif;-inkscape-font-specification:FreeSerif,serif" x="2456.516" y="69.033"><tspan x="2456.516" y="69.033" style="fill:#ff7f2a;fill-opacity:1">6</tspan></text>
  <text xml:space="preserve" style="font-size:64px;line-height:1.25;font-family:FreeSerif,serif;-inkscape-font-specification:FreeSerif,serif" x="2151.791" y="69.718"><tspan x="2151.791" y="69.718" style="fill:#2a7fff;fill-opacity:1">7</tspan></text>
  <text xml:space="preserve" style="font-size:64px;line-height:1.25;font-family:FreeSerif,serif;-inkscape-font-specification:FreeSerif,serif" x="2255.199" y="69.718"><tspan x="2255.199" y="69.718" style="fill:#2a7fff;fill-opacity:1">1</tspan></text>
  <text xml:space="preserve" style="font-size:64px;line-height:1.25;font-family:FreeSerif,serif;-inkscape-font-specification:FreeSerif,serif" x="2347.239" y="69.718"><tspan x="2347.239" y="69.718">1</tspan></text>
</svg>
