<svg width="3814.318" height="1099.33" version="1.2" xmlns="http://www.w3.org/2000/svg">
  <path class="StaffLines" fill="none" stroke="#000" stroke-width="2.73" stroke-linejoin="bevel" d="M350.19 123.45h3448.128M350.19 148.254h3448.128M350.19 173.057h3448.128M350.19 197.86h3448.128M350.19 222.663h3448.128M350.19 326.836h3448.128M350.19 351.639h3448.128M350.19 376.443h3448.128M350.19 401.246h3448.128"/>
  <circle style="fill:#ff2a7f;fill-opacity:.47451;stroke:#000;stroke-width:4;stroke-linecap:round;stroke-linejoin:round;stroke-miterlimit:4;stroke-dasharray:none;stroke-opacity:1;paint-order:stroke markers fill" cx="3674.419" cy="377.37" r="46.297"/>
  <path class="StaffLines" fill="none" stroke="#000" stroke-width="2.73" stroke-linejoin="bevel" d="M350.19 426.049h3448.128M350.19 537.663h3448.128M350.19 562.466h3448.128M350.19 587.269h3448.128M350.19 612.073h3448.128M350.19 636.876h3448.128M350.19 723.687h3448.128M350.19 748.49h3448.128M350.19 773.29h3448.128M350.19 798.1h3448.128M350.19 822.9h3448.128M350.19 909.71h3448.128M350.19 934.51h3448.128M350.19 959.32h3448.128M350.19 984.12h3448.128m-3448.128 24.8h3448.128"/>
  <path class="InstrumentName" d="M79.86 940.86h-1.907l-2 2.96c-3.64-2.66-5.5-3.36-8.953-3.36-4.75 0-8.797 2-12.14 6-3.204 3.81-4.704 8.01-4.704 13.15 0 10.8 7.047 18.46 16.907 18.46 8 0 13.093-4.71 14.25-13.1l-2.36-.4c-1.343 7.45-5.14 11.15-11.297 11.15-7.406 0-10.906-5.11-10.906-15.9 0-5.71.75-9.46 2.453-12.46 1.547-2.79 4.61-4.54 7.86-4.54 3.5 0 6.593 1.84 8.5 5.04.953 1.66 1.64 3.5 2.843 7.46h2.204l-.75-14.46m16.531 12.41c-6.141 0-10.891 5.45-10.891 12.45 0 6.85 4.797 12.35 10.797 12.35 6 0 10.797-5.5 10.797-12.41 0-6.84-4.797-12.39-10.703-12.39m0 2.14c3.5 0 5.453 3.66 5.453 10.25 0 6.66-1.953 10.25-5.547 10.25-3.594 0-5.547-3.59-5.547-10.19 0-6.81 1.891-10.31 5.641-10.31m22.39-1.39-8.656.55v2.15h1.813c1.89.05 2.14.35 2.14 2.5v14.3c-.047.75-.093 1.05-.297 1.3-.343.45-1.296.65-3.453.7h-.203v1.8h12.656v-1.8h-.203c-3.343-.11-3.797-.36-3.797-2.16v-7.39c0-2.45.344-4.7.907-5.86 1.047-2.25 3.297-3.79 5.437-3.79 1.313 0 2.813.7 3.563 1.75.75 1.09 1.093 2.59 1.093 5v10.45c-.046.75-.093 1.05-.296 1.3-.36.45-1.36.65-3.5.7h-.204v1.8h12.657v-1.8h-.203c-3.297-.11-3.75-.36-3.75-2.16v-10.04c0-3.6-.157-4.5-1.047-6.21-1.25-2.39-3.75-3.84-6.75-3.84-3.25 0-5.703 1.5-7.907 4.8v-4.05m30.25 0v-9.91h-2.046c-.5 6.5-2.704 9.8-6.75 10.11v1.94h4.093v12.75c0 3.5.094 4.75.594 5.91.813 2.09 2.813 3.25 5.703 3.25 4.5 0 7.406-3.41 7.406-8.71 0-.29 0-.64-.046-1.14h-2.11c-.14 4.5-1.453 6.8-3.89 6.8-1.157 0-2.157-.61-2.5-1.45-.313-.71-.454-1.96-.454-3.75v-13.66h7.344v-2.14h-7.344m19.641 0-8.859.55v2.15h2.047c1.906.05 2.156.35 2.156 2.5v14.3c-.047.75-.094 1.05-.297 1.3-.359.45-1.359.65-3.5.7h-.203v1.8h13.344v-1.8h-.891c-3.359-.11-3.797-.36-3.797-2.16v-2.7c.047-8.39 3.047-14.8 6.938-15-.688.81-.891 1.31-.891 2.25 0 1.61 1.141 2.75 2.75 2.75 1.844 0 3.047-1.34 3.047-3.34 0-2.46-1.703-4.05-4.344-4.05-3.156 0-5.859 2.5-7.5 6.95v-6.2m34.469 7.2c0-3.15-.547-4.75-2-5.95-1.641-1.36-4.094-2-7.297-2-5.641 0-9.75 2.64-9.75 6.3 0 1.84 1.156 3.04 2.906 3.04 1.594 0 2.703-1.04 2.703-2.54 0-.66-.25-1.35-.75-2.05-.312-.36-.359-.45-.359-.7 0-1 2-1.91 4.406-1.91 1.594 0 3.344.5 4.141 1.25.953.81 1.312 2 1.312 4.25v1.95c-5.203.91-6.859 1.3-9.312 2.25-4.344 1.61-6.391 3.91-6.391 7.11 0 3.6 2.797 5.85 7.25 5.85 3.453 0 6.547-1.41 8.703-3.96.797 2.55 2.047 3.55 4.391 3.55 2.25 0 4.609-1.44 4.609-2.89 0-.36-.203-.61-.5-.61-.203 0-.406.06-.75.2-.703.3-1 .36-1.406.36-1.406 0-1.906-.9-1.906-3.45v-10.05m-4.688 6.1c0 3-.156 3.7-1 5-1.25 1.84-3.5 3.09-5.703 3.09-2.297 0-3.953-1.64-3.953-3.89 0-2.11 1.047-3.61 3.25-4.66 1.547-.7 3.5-1.2 7.406-1.84v2.3m18.891-26.86-8.594.56v2.14h1.75c1.891.05 2.141.36 2.141 2.5v19.45c0 6.96-.297 10.75-.891 12.91h1.891l2.453-3.91c2.047 2.71 4.406 3.96 7.5 3.96 6.203 0 10.75-5.3 10.75-12.55 0-7.2-4.203-12.25-10.203-12.25-3.047 0-4.891 1.05-6.797 3.89v-16.7m5.906 15.36c3.75 0 5.844 3.65 5.844 10.2 0 6.34-2.047 9.89-5.703 9.89-3.953 0-6.297-3.64-6.297-9.8 0-6.7 2.156-10.29 6.156-10.29m35.485 5.4c0-3.15-.547-4.75-2-5.95-1.641-1.36-4.094-2-7.297-2-5.641 0-9.75 2.64-9.75 6.3 0 1.84 1.156 3.04 2.906 3.04 1.594 0 2.703-1.04 2.703-2.54 0-.66-.25-1.35-.75-2.05-.312-.36-.359-.45-.359-.7 0-1 2-1.91 4.406-1.91 1.594 0 3.344.5 4.141 1.25.953.81 1.312 2 1.312 4.25v1.95c-5.203.91-6.859 1.3-9.312 2.25-4.344 1.61-6.391 3.91-6.391 7.11 0 3.6 2.797 5.85 7.25 5.85 3.453 0 6.547-1.41 8.703-3.96.797 2.55 2.047 3.55 4.391 3.55 2.25 0 4.609-1.44 4.609-2.89 0-.36-.203-.61-.5-.61-.203 0-.406.06-.75.2-.703.3-1 .36-1.406.36-1.406 0-1.906-.9-1.906-3.45v-10.05m-4.688 6.1c0 3-.156 3.7-1 5-1.25 1.84-3.5 3.09-5.703 3.09-2.297 0-3.953-1.64-3.953-3.89 0-2.11 1.047-3.61 3.25-4.66 1.547-.7 3.5-1.2 7.406-1.84v2.3m29.438-13.85h-1.75l-1.454 1.8c-1.796-1.41-3.593-2-6.093-2-4.407 0-7.297 2.84-7.297 7.25 0 1.95.64 3.59 1.75 4.59 1.14 1.05 2.297 1.55 5.297 2.25l2.64.61c3.953.94 5.36 1.94 5.36 3.94 0 2.36-2.047 4-4.953 4-4.25 0-7.25-2.69-8.454-7.69h-2v9.44h1.75l1.75-2.05c2.047 1.66 4.297 2.46 6.86 2.46 4.89 0 8.14-3.05 8.14-7.71 0-2.2-.703-3.89-2.093-5.04-1.203-1.05-2.203-1.46-5.25-2.1l-2.5-.56c-2.75-.59-2.75-.59-3.657-1.09-1.093-.5-1.75-1.55-1.75-2.66 0-2.05 1.907-3.44 4.657-3.44 1.89 0 3.453.64 4.843 2 1.11 1.1 1.657 2.1 2.454 4.39h1.75v-8.39m22.937 0h-1.75l-1.453 1.8c-1.797-1.41-3.594-2-6.094-2-4.406 0-7.297 2.84-7.297 7.25 0 1.95.641 3.59 1.75 4.59 1.141 1.05 2.297 1.55 5.297 2.25l2.641.61c3.953.94 5.359 1.94 5.359 3.94 0 2.36-2.047 4-4.953 4-4.25 0-7.25-2.69-8.453-7.69h-2v9.44h1.75l1.75-2.05c2.047 1.66 4.297 2.46 6.859 2.46 4.891 0 8.141-3.05 8.141-7.71 0-2.2-.703-3.89-2.094-5.04-1.203-1.05-2.203-1.46-5.25-2.1l-2.5-.56c-2.75-.59-2.75-.59-3.656-1.09-1.094-.5-1.75-1.55-1.75-2.66 0-2.05 1.906-3.44 4.656-3.44 1.891 0 3.453.64 4.844 2 1.109 1.1 1.656 2.1 2.453 4.39h1.75v-8.39M77.563 783.04l-9.157-23.2c-.25-.66-.406-1.3-.406-1.55 0-.9.86-1.25 3.11-1.25h2v-2.36H57.5v2.36h1c2.313.05 3.063.6 3.86 2.8L75 791.54h2l11.516-29.61c1.5-3.89 2.547-4.79 5.437-4.89h.5v-2.36H80.906v2.36h.954c2.546 0 4.046 1 4.046 2.6 0 .7-.25 1.79-.593 2.79l-7.75 20.61m26.39-15.54-9.39.54v2.16h2.547c1.89.05 2.14.34 2.14 2.5V787c-.047.75-.094 1.04-.297 1.29-.343.46-1.297.66-3.453.71h-.344v1.79h12.954V789h-.36c-3.344-.11-3.797-.36-3.797-2.16V767.5m-2.343-12.46a2.9 2.9 0 0 0-2.907 2.89c0 1.61 1.297 2.91 2.86 2.91a2.91 2.91 0 0 0 2.937-2.91c0-1.59-1.297-2.89-2.89-2.89m20.375 11.71c-6.141 0-10.891 5.45-10.891 12.45 0 6.84 4.797 12.34 10.797 12.34 6 0 10.797-5.5 10.797-12.4 0-6.85-4.797-12.39-10.703-12.39m0 2.14c3.5 0 5.453 3.65 5.453 10.25 0 6.65-1.953 10.25-5.547 10.25-3.594 0-5.547-3.6-5.547-10.19 0-6.81 1.891-10.31 5.641-10.31m22.593-14.96-9.25.57v2.14h2.453c1.844.04 2.094.36 2.094 2.5V787c-.047.75-.094 1.04-.297 1.29-.359.46-1.297.66-3.453.71h-.344v1.79h12.938V789h-.344c-3.344-.11-3.797-.36-3.797-2.16v-32.91m18.125 12.82c-6.14 0-10.89 5.45-10.89 12.45 0 6.84 4.797 12.34 10.797 12.34 6 0 10.796-5.5 10.796-12.4 0-6.85-4.796-12.39-10.703-12.39m0 2.14c3.5 0 5.453 3.65 5.453 10.25 0 6.65-1.953 10.25-5.546 10.25-3.594 0-5.547-3.6-5.547-10.19 0-6.81 1.89-10.31 5.64-10.31m22.391-1.39-8.656.54v2.16h1.812c1.891.05 2.141.34 2.141 2.5V787c-.047.75-.094 1.04-.297 1.29-.344.46-1.297.66-3.453.71h-.203v1.79h12.656V789h-.203c-3.344-.11-3.797-.36-3.797-2.16v-7.39c0-2.45.344-4.7.906-5.86 1.047-2.25 3.297-3.8 5.438-3.8 1.312 0 2.812.71 3.562 1.75.75 1.1 1.094 2.6 1.094 5V787c-.047.75-.094 1.04-.297 1.29-.359.46-1.359.66-3.5.71h-.203v1.79h12.656V789h-.203c-3.297-.11-3.75-.36-3.75-2.16v-10.05c0-3.59-.156-4.5-1.047-6.2-1.25-2.39-3.75-3.84-6.75-3.84-3.25 0-5.703 1.5-7.906 4.79v-4.04m39.891 15.95c-1.594 3.59-3.297 5.05-5.891 5.05-4 0-6.5-3.66-6.5-9.5 0-6.11 2.453-10.11 6.141-10.11 1.5 0 2.812.7 2.812 1.5 0 .15-.062.31-.312.61-.797.95-1 1.45-1 2.29 0 1.66 1.25 2.8 3 2.8 1.812 0 3.062-1.39 3.062-3.39 0-3.41-3.359-5.95-7.812-5.95-6.5 0-11.141 5.29-11.141 12.79 0 7.1 4.25 12 10.453 12 4.438 0 7-2.04 9.141-7.34l-1.953-.75m26.093-3.91c.047-7.5-4.203-12.79-10.297-12.79-6.406 0-11.203 5.54-11.203 13.04 0 7.05 4.547 11.75 11.297 11.75 4.797 0 8.156-2.34 10.203-7.09l-1.75-.95c-2.047 3.84-4.156 5.34-7.5 5.34-2.547 0-4.406-1.05-5.703-3.3-.89-1.5-1.297-3.25-1.25-6h16.203m-16.156-2.15c0-1.55.203-2.64.703-4.05 1.047-3 2.656-4.45 5.11-4.45 3 0 5 2.65 5 6.7 0 1.41-.454 1.8-2.063 1.8h-8.75m26.891-23.46-9.25.57v2.14h2.453c1.844.04 2.094.36 2.094 2.5V787c-.047.75-.094 1.04-.297 1.29-.36.46-1.297.66-3.453.71h-.344v1.79h12.937V789h-.343c-3.344-.11-3.797-.36-3.797-2.16v-32.91m15.734 0-9.25.57v2.14h2.453c1.844.04 2.094.36 2.094 2.5V787c-.047.75-.094 1.04-.297 1.29-.359.46-1.297.66-3.453.71h-.344v1.79h12.938V789h-.344c-3.344-.11-3.797-.36-3.797-2.16v-32.91m18.125 12.82c-6.141 0-10.891 5.45-10.891 12.45 0 6.84 4.797 12.34 10.797 12.34 6 0 10.797-5.5 10.797-12.4 0-6.85-4.797-12.39-10.703-12.39m0 2.14c3.5 0 5.453 3.65 5.453 10.25 0 6.65-1.953 10.25-5.547 10.25-3.593 0-5.547-3.6-5.547-10.19 0-6.81 1.891-10.31 5.641-10.31m-87.109-171.871-9.157-23.203c-.25-.656-.406-1.297-.406-1.547 0-.906.86-1.25 3.11-1.25h2v-2.359H188.5v2.359h1c2.313.047 3.063.594 3.86 2.797L206 605.519h2l11.516-29.609c1.5-3.891 2.547-4.797 5.437-4.891h.5v-2.359h-13.547v2.359h.954c2.546 0 4.046 1 4.046 2.594 0 .703-.25 1.797-.593 2.797l-7.75 20.609m26.39-15.547-9.39.547v2.157h2.547c1.89.046 2.14.343 2.14 2.5v14.296c-.047.75-.094 1.047-.297 1.297-.343.453-1.297.657-3.453.703h-.344v1.797h12.954v-1.797h-.36c-3.344-.109-3.797-.359-3.797-2.156v-19.344m-2.343-12.453a2.898 2.898 0 0 0-2.907 2.891c0 1.609 1.297 2.906 2.86 2.906 1.64 0 2.937-1.297 2.937-2.906a2.894 2.894 0 0 0-2.89-2.891m20.375 11.703c-6.141 0-10.891 5.454-10.891 12.454 0 6.843 4.797 12.343 10.797 12.343 6 0 10.797-5.5 10.797-12.406 0-6.844-4.797-12.391-10.703-12.391m0 2.141c3.5 0 5.453 3.656 5.453 10.25 0 6.656-1.953 10.25-5.547 10.25-3.594 0-5.547-3.594-5.547-10.187 0-6.813 1.891-10.313 5.641-10.313m22.593-14.953-9.25.562v2.141h2.453c1.844.047 2.094.359 2.094 2.5v27.859c-.047.75-.094 1.047-.297 1.297-.359.453-1.297.657-3.453.703h-.344v1.797h12.938v-1.797h-.344c-3.344-.109-3.797-.359-3.797-2.156V567.91m28.125 20.766c0-3.157-.547-4.75-2-5.954-1.64-1.359-4.093-2-7.297-2-5.64 0-9.75 2.641-9.75 6.297 0 1.844 1.157 3.047 2.907 3.047 1.593 0 2.703-1.047 2.703-2.547 0-.656-.25-1.343-.75-2.047-.313-.359-.36-.453-.36-.703 0-1 2-1.906 4.407-1.906 1.593 0 3.343.5 4.14 1.25.953.813 1.313 2 1.313 4.25v1.953c-5.203.906-6.86 1.297-9.313 2.25-4.343 1.61-6.39 3.906-6.39 7.11 0 3.593 2.797 5.843 7.25 5.843 3.453 0 6.547-1.406 8.703-3.953.797 2.547 2.047 3.547 4.39 3.547 2.25 0 4.61-1.437 4.61-2.891 0-.359-.203-.609-.5-.609-.203 0-.406.063-.75.203-.703.297-1 .36-1.406.36-1.407 0-1.907-.907-1.907-3.454v-10.046m-4.687 6.093c0 3-.156 3.703-1 5-1.25 1.844-3.5 3.094-5.703 3.094-2.297 0-3.953-1.641-3.953-3.891 0-2.109 1.046-3.609 3.25-4.656 1.546-.703 3.5-1.203 7.406-1.844v2.297M190.563 386.193l-9.157-23.204c-.25-.656-.406-1.296-.406-1.546 0-.907.86-1.25 3.11-1.25h2v-2.36H170.5v2.36h1c2.313.046 3.063.593 3.86 2.796L188 394.693h2l11.516-29.61c1.5-3.89 2.547-4.797 5.437-4.89h.5v-2.36h-13.547v2.36h.954c2.546 0 4.046 1 4.046 2.593 0 .703-.25 1.797-.593 2.797l-7.75 20.61m26.39-15.547-9.39.547v2.156h2.547c1.89.047 2.14.344 2.14 2.5v14.297c-.047.75-.094 1.047-.297 1.297-.343.453-1.297.656-3.453.703h-.344v1.797h12.954v-1.797h-.36c-3.344-.11-3.797-.36-3.797-2.157v-19.343m-2.343-12.453a2.897 2.897 0 0 0-2.907 2.89c0 1.61 1.297 2.906 2.86 2.906 1.64 0 2.937-1.296 2.937-2.906a2.893 2.893 0 0 0-2.89-2.89m20.375 11.703c-6.141 0-10.891 5.453-10.891 12.453 0 6.844 4.797 12.344 10.797 12.344 6 0 10.797-5.5 10.797-12.407 0-6.843-4.797-12.39-10.703-12.39m0 2.14c3.5 0 5.453 3.657 5.453 10.25 0 6.657-1.953 10.25-5.547 10.25-3.594 0-5.547-3.593-5.547-10.187 0-6.813 1.891-10.313 5.641-10.313m22.593-14.953-9.25.563v2.14h2.453c1.844.047 2.094.36 2.094 2.5v27.86c-.047.75-.094 1.047-.297 1.297-.359.453-1.297.656-3.453.703h-.344v1.797h12.938v-1.797h-.344c-3.344-.11-3.797-.36-3.797-2.157v-32.906m15.828 13.563-9.39.547v2.156h2.547c1.89.047 2.14.344 2.14 2.5v14.297c-.047.75-.093 1.047-.297 1.297-.343.453-1.296.656-3.453.703h-.343v1.797h12.953v-1.797h-.36c-3.343-.11-3.797-.36-3.797-2.157v-19.343m-2.343-12.453a2.897 2.897 0 0 0-2.907 2.89c0 1.61 1.297 2.906 2.86 2.906 1.64 0 2.937-1.296 2.937-2.906a2.893 2.893 0 0 0-2.89-2.89m17.781 12.453-8.656.547v2.156H282c1.891.047 2.141.344 2.141 2.5v14.297c-.047.75-.094 1.047-.297 1.297-.344.453-1.297.656-3.453.703h-.203v1.797h12.656v-1.797h-.203c-3.344-.11-3.797-.36-3.797-2.157v-7.39c0-2.453.344-4.703.906-5.86 1.047-2.25 3.297-3.796 5.438-3.796 1.312 0 2.812.703 3.562 1.75.75 1.093 1.094 2.593 1.094 5v10.453c-.047.75-.094 1.047-.297 1.297-.359.453-1.359.656-3.5.703h-.203v1.797H308.5v-1.797h-.203c-3.297-.11-3.75-.36-3.75-2.157v-10.046c0-3.594-.156-4.5-1.047-6.204-1.25-2.39-3.75-3.843-6.75-3.843-3.25 0-5.703 1.5-7.906 4.797v-4.047M46.406 150.104h-1.89l-1.953 3c-3.25-2.547-5.453-3.407-9.11-3.407-3.953 0-7.047 1.11-10.203 3.657-4.937 4-7.25 9.047-7.25 15.797 0 5.109 1.453 9.359 4.406 12.609 3.094 3.5 7.704 5.547 12.5 5.547 4.204 0 7.157-1.297 10.407-4.547l1.843 4.5h2.11v-11c0-2.547 0-2.656.297-3.109.453-.547 1.343-.688 4.203-.688h.75v-2.359H36.61v2.359h.953c4.203 0 4.547.25 4.547 3.047 0 2.141-.344 4.094-1 5.297-1.25 2.453-4.454 4.156-7.704 4.156s-6.453-1.656-8.156-4.156c-1.844-2.797-2.64-6.297-2.64-11.656 0-11.141 3.703-17.094 10.64-17.094 5.703 0 9.656 4.094 11.703 12.094h2.157l-.704-14.047M63 149.697l-9.25.563v2.141h2.453c1.844.046 2.094.359 2.094 2.5v27.859c-.047.75-.094 1.047-.297 1.297-.359.453-1.297.656-3.453.703h-.344v1.797h12.938v-1.797h-.344c-3.344-.109-3.797-.359-3.797-2.156v-32.907m18.125 12.813c-6.14 0-10.89 5.453-10.89 12.453 0 6.844 4.796 12.344 10.796 12.344 6 0 10.797-5.5 10.797-12.406 0-6.844-4.797-12.391-10.703-12.391m0 2.141c3.5 0 5.453 3.656 5.453 10.25 0 6.656-1.953 10.25-5.547 10.25-3.593 0-5.546-3.594-5.546-10.188 0-6.812 1.89-10.312 5.64-10.312m31.735 14.562c-1.594 3.594-3.297 5.047-5.891 5.047-4 0-6.5-3.656-6.5-9.5 0-6.109 2.453-10.109 6.141-10.109 1.5 0 2.812.703 2.812 1.5 0 .156-.062.312-.312.609-.797.953-1 1.453-1 2.297 0 1.656 1.25 2.797 3 2.797 1.812 0 3.062-1.391 3.062-3.391 0-3.406-3.359-5.953-7.812-5.953-6.5 0-11.141 5.297-11.141 12.797 0 7.094 4.25 12 10.453 12 4.438 0 7-2.047 9.141-7.344l-1.953-.75m12.203-4.75v-24.766l-9.25.563v2.141h2.39c1.907.046 2.157.359 2.157 2.5v27.906c-.047.703-.094 1-.297 1.25-.36.453-1.297.656-3.453.703h-.204v1.797h12.657v-1.797h-.203c-3.344-.109-3.797-.359-3.797-2.156v-5.047l3.047-2.906 5.953 8.359c.25.391.343.641.343.844 0 .703-.546.906-2.203.906h-.937v1.797h13.203v-1.797c-2.813-.25-3.813-.859-5.859-3.453l-7.094-9.703 2.25-2.203c2.937-2.844 5.047-3.938 8.453-4.344v-1.797h-13.156v1.797h1.547c1.593 0 2.343.297 2.343.953 0 .547-.343 1.141-1.14 1.953l-6.75 6.5m42.031.844c.047-7.5-4.203-12.797-10.297-12.797-6.406 0-11.203 5.547-11.203 13.047 0 7.047 4.547 11.75 11.297 11.75 4.797 0 8.156-2.344 10.203-7.094l-1.75-.953c-2.047 3.844-4.156 5.344-7.5 5.344-2.547 0-4.406-1.047-5.703-3.297-.891-1.5-1.297-3.25-1.25-6h16.203m-16.156-2.156c0-1.547.203-2.641.703-4.047 1.047-3 2.656-4.453 5.109-4.453 3 0 5 2.656 5 6.703 0 1.406-.453 1.797-2.062 1.797h-8.75m27.89-9.891-8.656.547v2.156h1.813c1.89.047 2.14.344 2.14 2.5v14.297c-.047.75-.094 1.047-.297 1.297-.343.453-1.297.656-3.453.703h-.203v1.797h12.656v-1.797h-.203c-3.344-.109-3.797-.359-3.797-2.156v-7.391c0-2.453.344-4.703.907-5.859 1.046-2.25 3.296-3.797 5.437-3.797 1.313 0 2.813.703 3.563 1.75.75 1.094 1.093 2.594 1.093 5v10.453c-.047.75-.093 1.047-.297 1.297-.359.453-1.359.656-3.5.703h-.203v1.797h12.657v-1.797h-.204c-3.296-.109-3.75-.359-3.75-2.156v-10.047c0-3.594-.156-4.5-1.046-6.203-1.25-2.391-3.75-3.844-6.75-3.844-3.25 0-5.704 1.5-7.907 4.797v-4.047m40.047-.547h-1.75l-1.453 1.797c-1.797-1.406-3.594-2-6.094-2-4.406 0-7.297 2.844-7.297 7.25 0 1.953.641 3.594 1.75 4.594 1.141 1.047 2.297 1.547 5.297 2.25l2.641.609c3.953.938 5.359 1.938 5.359 3.938 0 2.359-2.047 4-4.953 4-4.25 0-7.25-2.688-8.453-7.688h-2v9.438h1.75l1.75-2.047c2.047 1.656 4.297 2.453 6.859 2.453 4.891 0 8.141-3.047 8.141-7.703 0-2.203-.703-3.891-2.094-5.047-1.203-1.047-2.203-1.453-5.25-2.094l-2.5-.562c-2.75-.594-2.75-.594-3.656-1.094-1.094-.5-1.75-1.547-1.75-2.656 0-2.047 1.906-3.438 4.656-3.438 1.891 0 3.453.641 4.844 2 1.109 1.094 1.656 2.094 2.453 4.391h1.75v-8.391m12.844.547-8.641.547v2.156h1.797c1.891.047 2.141.344 2.141 2.5v24.438c-.047.703-.094 1-.297 1.25-.344.453-1.297.656-3.453.703h-.188v1.797h13v-1.797h-.562c-3.344-.094-3.797-.344-3.797-2.141v-9.453c1.656 2.891 3.5 4.047 6.609 4.047 3.047 0 5.547-1.297 7.344-3.75 1.75-2.406 2.75-5.5 2.75-8.75s-1-6.297-2.844-8.703c-1.859-2.391-4.156-3.594-6.953-3.594-3.109 0-5.156 1.297-6.906 4.297v-3.547m6 1.953c3.453 0 5.453 3.438 5.453 9.297 0 6.453-2 10.094-5.594 10.094-3.609 0-5.906-3.703-5.906-9.453 0-6.25 2.25-9.938 6.047-9.938m22.937-1.953-9.39.547v2.156h2.547c1.89.047 2.14.344 2.14 2.5v14.297c-.047.75-.093 1.047-.297 1.297-.343.453-1.296.656-3.453.703h-.343v1.797h12.953v-1.797h-.36c-3.343-.109-3.797-.359-3.797-2.156V163.26m-2.343-12.453a2.898 2.898 0 0 0-2.907 2.89c0 1.61 1.297 2.907 2.86 2.907 1.64 0 2.937-1.297 2.937-2.907a2.894 2.894 0 0 0-2.89-2.89m31.031 24.5c.047-7.5-4.203-12.797-10.297-12.797-6.406 0-11.203 5.547-11.203 13.047 0 7.047 4.547 11.75 11.297 11.75 4.797 0 8.156-2.344 10.203-7.094l-1.75-.953c-2.047 3.844-4.156 5.344-7.5 5.344-2.547 0-4.406-1.047-5.703-3.297-.891-1.5-1.297-3.25-1.25-6h16.203m-16.156-2.156c0-1.547.203-2.641.703-4.047 1.047-3 2.656-4.453 5.109-4.453 3 0 5 2.656 5 6.703 0 1.406-.453 1.797-2.062 1.797h-8.75m26.89-23.454-9.25.563v2.141h2.453c1.844.046 2.094.359 2.094 2.5v27.859c-.047.75-.094 1.047-.297 1.297-.359.453-1.297.656-3.453.703h-.344v1.797h12.938v-1.797h-.344c-3.344-.109-3.797-.359-3.797-2.156v-32.907"/>
  <path class="TieSegment" stroke="#000" stroke-width="1.74" stroke-linecap="round" stroke-linejoin="round" fill-rule="evenodd" d="M1675.768 104.848c16.68-16.148 66.71-16.148 83.39 0-16.68-9.204-66.71-9.204-83.39 0m372.26 0c31.24-27.209 124.93-27.209 156.16 0-31.23-20.264-124.92-20.264-156.16 0"/>
  <path class="BarLine" stroke="#000" stroke-width="4.46" stroke-linejoin="bevel" d="M352.422 908.35v101.94m1769.956-101.94v101.94m1651.75-101.94v101.94"/>
  <path class="BarLine" stroke="#000" stroke-width="13.64" stroke-linejoin="bevel" d="M3791.498 908.35v101.94"/>
  <path class="BarLine" stroke="#000" stroke-width="4.46" stroke-linejoin="bevel" d="M352.422 722.323V909.71m1769.956-187.387V909.71m1651.75-187.387V909.71"/>
  <path class="BarLine" stroke="#000" stroke-width="13.64" stroke-linejoin="bevel" d="M3791.498 722.323V909.71"/>
  <path class="BarLine" stroke="#000" stroke-width="4.46" stroke-linejoin="bevel" d="M352.422 536.299v187.388m1769.956-187.388v187.388m1651.75-187.388v187.388"/>
  <path class="BarLine" stroke="#000" stroke-width="13.64" stroke-linejoin="bevel" d="M3791.498 536.299v187.388"/>
  <path class="BarLine" stroke="#000" stroke-width="4.46" stroke-linejoin="bevel" d="M352.422 325.472v212.191m1769.956-212.191v212.191m1651.75-212.191v212.191"/>
  <path class="BarLine" stroke="#000" stroke-width="13.64" stroke-linejoin="bevel" d="M3791.498 325.472v212.191"/>
  <path class="BarLine" stroke="#000" stroke-width="4.46" stroke-linejoin="bevel" d="M352.422 122.086v204.75m1769.956-204.75v101.941m1651.75-101.941v101.941"/>
  <path class="BarLine" stroke="#000" stroke-width="13.64" stroke-linejoin="bevel" d="M3791.498 122.086v101.941"/>
  <path class="Accidental" d="M1368.322 948.81c.604-.109 1.1-.806 1.1-1.396v-5.86c0-.79-.605-1.379-1.395-1.379h-.202l-3.27.698v-14.79h-2.775v15.379l-8.836 1.782v-13.982h-2.775v14.587l-3.876.79c-.589.094-1.085.791-1.085 1.38v5.953-.186c0 .79.59 1.38 1.395 1.38h.295l3.27-.698v16.37l-3.875.806c-.589.093-1.085.79-1.085 1.38v5.751c0 .806.59 1.395 1.395 1.395h.295l3.27-.697v14.789h2.776v-15.378l8.836-1.783v13.983h2.774v-14.588l3.767-.697c.605-.093 1.101-.79 1.101-1.38v-5.86c0-.79-.605-1.38-1.395-1.38h-.202l-3.27.683v-16.37l3.766-.682m-15.377 19.532V951.88l8.836-1.783v16.37l-8.836 1.876m573.778-56.743c.604-.109 1.1-.806 1.1-1.396v-5.86c0-.79-.604-1.379-1.395-1.379h-.202l-3.27.698v-14.79h-2.775v15.379l-8.836 1.782v-13.982h-2.775v14.587l-3.876.79c-.589.094-1.085.791-1.085 1.38v5.953-.186c0 .79.59 1.38 1.395 1.38h.295l3.27-.698v16.37l-3.875.806c-.589.093-1.085.79-1.085 1.38v5.751c0 .806.59 1.395 1.395 1.395h.295l3.27-.697v14.789h2.776v-15.378l8.836-1.783v13.983h2.774v-14.588l3.767-.697c.605-.093 1.101-.79 1.101-1.38v-5.86c0-.79-.605-1.38-1.395-1.38h-.202l-3.27.683v-16.37l3.767-.682m-15.378 19.532V914.67l8.836-1.783v16.37l-8.836 1.876m340.293 49.177c.14 0 .248-.031.356-.109a.659.659 0 0 0 .248-.883c-.108-.202-10.246-20.122 0-39.794a.69.69 0 0 0-.248-.884.678.678 0 0 0-.899.17c-.248.342-6.216 8.48-6.216 20.51 0 12.03 5.968 20.354 6.216 20.71.14.171.341.28.543.28m21.484-39.143c-.186-.201-.496-.294-.79-.294-.094 0-.295.093-.388.093l-12.51 3.472v-17.362h-2.775v49.11c0 .79.59 1.287 1.395 1.287h.388l12.51-3.473v17.363h2.666v-49.11c0-.388-.186-.884-.496-1.086m-2.17 24.602-11.518 3.178V952.67l11.518-3.271v16.37m7.689-27.439a.573.573 0 0 0-.356.109.659.659 0 0 0-.249.883c.109.202 10.247 20.122 0 39.794a.69.69 0 0 0 .249.884.662.662 0 0 0 .899-.17c.248-.342 6.216-8.48 6.216-20.51 0-12.03-5.968-20.354-6.216-20.71a.723.723 0 0 0-.543-.28m367.737 4.77c.14 0 .248-.031.356-.109a.659.659 0 0 0 .248-.883c-.108-.202-10.246-20.122 0-39.794a.69.69 0 0 0-.248-.884.678.678 0 0 0-.899.17c-.248.342-6.216 8.48-6.216 20.51 0 12.03 5.968 20.354 6.216 20.71.14.171.341.28.543.28m21.494-39.143c-.186-.201-.496-.294-.79-.294-.094 0-.295.093-.388.093l-12.51 3.472v-17.362h-2.775v49.11c0 .79.59 1.287 1.395 1.287h.388l12.51-3.473v17.363h2.666v-49.11c0-.388-.186-.884-.496-1.086m-2.17 24.602-11.518 3.178V915.46l11.518-3.271v16.37m7.689-27.439a.573.573 0 0 0-.356.109.659.659 0 0 0-.249.883c.109.202 10.247 20.122 0 39.794a.69.69 0 0 0 .249.884.662.662 0 0 0 .899-.17c.248-.342 6.216-8.48 6.216-20.51 0-12.03-5.968-20.354-6.216-20.71a.723.723 0 0 0-.543-.28M1368.322 725.578c.604-.109 1.1-.806 1.1-1.396v-5.86c0-.79-.605-1.379-1.395-1.379h-.202l-3.27.698v-14.79h-2.775v15.379l-8.836 1.782V706.03h-2.775v14.587l-3.876.79c-.589.094-1.085.791-1.085 1.38v5.953-.186c0 .79.59 1.38 1.395 1.38h.295l3.27-.698v16.37l-3.875.806c-.589.093-1.085.79-1.085 1.38v5.751c0 .806.59 1.395 1.395 1.395h.295l3.27-.697v14.789h2.776v-15.378l8.836-1.783v13.983h2.774v-14.588l3.767-.697c.605-.093 1.101-.79 1.101-1.38v-5.86c0-.79-.605-1.38-1.395-1.38h-.202l-3.27.683v-16.37l3.766-.682m-15.377 19.532v-16.463l8.836-1.783v16.37l-8.836 1.876m800.003 11.968c.14 0 .248-.031.356-.109a.659.659 0 0 0 .248-.883c-.108-.202-10.246-20.122 0-39.794a.689.689 0 0 0-.248-.884.678.678 0 0 0-.899.17c-.248.342-6.216 8.48-6.216 20.51 0 12.03 5.968 20.354 6.216 20.71.14.171.341.28.543.28m21.484-39.143c-.186-.201-.496-.294-.79-.294-.094 0-.295.093-.388.093l-12.51 3.472v-17.362h-2.775v49.11c0 .79.59 1.287 1.395 1.287h.388l12.51-3.473v17.363h2.666v-49.11c0-.388-.186-.884-.496-1.086m-2.17 24.602-11.518 3.178v-16.277l11.518-3.271v16.37m7.689-27.439a.573.573 0 0 0-.356.109.659.659 0 0 0-.249.883c.109.202 10.247 20.122 0 39.794a.69.69 0 0 0 .249.884.662.662 0 0 0 .899-.17c.248-.342 6.216-8.48 6.216-20.51 0-12.03-5.968-20.354-6.216-20.71a.723.723 0 0 0-.543-.28" style="stroke-width:.992126"/>
  <circle style="fill:#6f0;fill-opacity:.47451;stroke:#000;stroke-width:4;stroke-linecap:round;stroke-linejoin:round;stroke-miterlimit:4;stroke-dasharray:none;stroke-opacity:1;paint-order:stroke markers fill" cx="3569.554" cy="761.991" r="43.623"/>
  <path class="Accidental" d="M3567.231 750.38c.605-.109 1.101-.806 1.101-1.396v-5.86c0-.79-.604-1.379-1.395-1.379h-.202l-3.27.698v-14.79h-2.775v15.379l-8.836 1.782v-13.982h-2.775v14.587l-3.876.79c-.589.094-1.085.791-1.085 1.38v5.953-.186c0 .79.59 1.38 1.395 1.38h.295l3.27-.698v16.37l-3.875.806c-.589.093-1.085.79-1.085 1.38v5.751c0 .806.59 1.395 1.395 1.395h.295l3.27-.697v14.789h2.776v-15.378l8.836-1.783v13.983h2.775v-14.588l3.766-.697c.605-.093 1.101-.79 1.101-1.38v-5.86c0-.79-.604-1.38-1.395-1.38h-.202l-3.27.683v-16.37l3.766-.682m-15.378 19.532V753.45l8.837-1.783v16.37l-8.837 1.876M1926.722 564.358c.604-.109 1.1-.806 1.1-1.396v-5.86c0-.79-.604-1.379-1.395-1.379h-.202l-3.27.698v-14.79h-2.775v15.379l-8.836 1.782V544.81h-2.775v14.587l-3.876.79c-.589.094-1.085.791-1.085 1.38v5.953-.186c0 .79.59 1.38 1.395 1.38h.295l3.27-.698v16.37l-3.875.806c-.589.093-1.085.79-1.085 1.38v5.751c0 .806.59 1.395 1.395 1.395h.295l3.27-.697v14.789h2.776v-15.378l8.836-1.783v13.983h2.774v-14.588l3.767-.697c.605-.093 1.101-.79 1.101-1.38v-5.86c0-.79-.605-1.38-1.395-1.38h-.202l-3.27.683v-16.37l3.767-.682m-15.378 19.532v-16.463l8.836-1.783v16.37l-8.836 1.876m-449.963-242.761c.605-.109 1.101-.806 1.101-1.396v-5.86c0-.79-.605-1.379-1.395-1.379h-.202l-3.27.698v-14.79h-2.775v15.379l-8.836 1.782v-13.982h-2.775v14.587l-3.876.79c-.589.094-1.085.791-1.085 1.38v5.953-.186c0 .79.59 1.38 1.395 1.38h.295l3.27-.698v16.37l-3.875.806c-.589.093-1.085.79-1.085 1.38v5.751c0 .806.59 1.395 1.395 1.395h.295l3.27-.697v14.789h2.775v-15.378l8.837-1.783v13.983h2.774v-14.588l3.767-.697c.605-.093 1.101-.79 1.101-1.38v-5.86c0-.79-.605-1.38-1.395-1.38h-.202l-3.27.683v-16.37l3.766-.682m-15.378 19.532v-16.463l8.837-1.783v16.37l-8.836 1.876m706.943 11.968c.14 0 .248-.031.356-.109a.659.659 0 0 0 .248-.883c-.108-.202-10.246-20.122 0-39.794a.689.689 0 0 0-.248-.884.678.678 0 0 0-.899.17c-.248.342-6.216 8.48-6.216 20.51 0 12.03 5.968 20.354 6.216 20.71.14.171.341.28.543.28m21.484-39.143c-.186-.201-.496-.294-.79-.294-.094 0-.295.093-.388.093l-12.51 3.472v-17.362h-2.775v49.11c0 .79.59 1.287 1.395 1.287h.388l12.51-3.473v17.363h2.666v-49.11c0-.388-.186-.884-.496-1.086m-2.17 24.602-11.518 3.178v-16.277l11.518-3.271v16.37m7.689-27.438a.573.573 0 0 0-.356.108.659.659 0 0 0-.249.883c.109.202 10.247 20.122 0 39.794a.69.69 0 0 0 .249.884.662.662 0 0 0 .899-.17c.248-.342 6.216-8.48 6.216-20.51 0-12.03-5.968-20.354-6.216-20.71a.723.723 0 0 0-.543-.28m1485.971 35.284c.605-.109 1.101-.806 1.101-1.396v-5.86c0-.79-.604-1.379-1.395-1.379h-.202l-3.27.698v-14.79h-2.775v15.379l-8.836 1.782v-13.982h-2.775v14.587l-3.876.79c-.589.094-1.085.791-1.085 1.38v5.953-.186c0 .79.59 1.38 1.395 1.38h.295l3.27-.698v16.37l-3.875.806c-.589.093-1.085.79-1.085 1.38v5.751c0 .806.59 1.395 1.395 1.395h.295l3.27-.697v14.789h2.776v-15.378l8.836-1.783v13.983h2.775v-14.588l3.766-.697c.605-.093 1.101-.79 1.101-1.38v-5.86c0-.79-.604-1.38-1.395-1.38h-.202l-3.27.683v-16.37l3.766-.682m-15.377 19.532v-16.463l8.836-1.783v16.37l-8.837 1.876M1368.322 100.539c.604-.109 1.1-.806 1.1-1.396v-5.86c0-.79-.605-1.379-1.395-1.379h-.202l-3.27.698v-14.79h-2.775v15.379l-8.836 1.782V80.991h-2.775v14.587l-3.876.79c-.589.094-1.085.791-1.085 1.38v5.953-.186c0 .79.59 1.38 1.395 1.38h.295l3.27-.698v16.37l-3.875.806c-.589.093-1.085.79-1.085 1.38v5.751c0 .806.59 1.395 1.395 1.395h.295l3.27-.697v14.789h2.776v-15.378l8.836-1.783v13.983h2.774v-14.588l3.767-.697c.605-.093 1.101-.79 1.101-1.38v-5.86c0-.79-.605-1.38-1.395-1.38h-.202l-3.27.683v-16.37l3.766-.682m-15.377 19.532v-16.463l8.836-1.783v16.37l-8.836 1.876m898.693 11.968c.14 0 .248-.031.356-.109a.659.659 0 0 0 .248-.883c-.108-.202-10.246-20.122 0-39.794a.69.69 0 0 0-.248-.884.678.678 0 0 0-.899.17c-.248.342-6.216 8.48-6.216 20.51 0 12.03 5.968 20.354 6.216 20.71.14.171.341.28.543.28m21.484-39.143c-.186-.201-.496-.294-.79-.294-.094 0-.295.093-.388.093l-12.51 3.472V78.805h-2.775v49.11c0 .79.59 1.287 1.395 1.287h.388l12.51-3.473v17.363h2.666v-49.11c0-.388-.186-.884-.496-1.086m-2.17 24.602-11.518 3.178v-16.277l11.518-3.271v16.37m7.689-27.438a.573.573 0 0 0-.356.108.659.659 0 0 0-.249.883c.109.202 10.247 20.122 0 39.794a.69.69 0 0 0 .249.884.662.662 0 0 0 .899-.17c.248-.342 6.216-8.48 6.216-20.51 0-12.03-5.968-20.354-6.216-20.71a.723.723 0 0 0-.543-.28" style="stroke-width:.992126"/>
  <path class="LedgerLine" stroke="#000" stroke-width="3.97" stroke-linejoin="bevel" d="M3171.098 698.884h49.6m-641.72-396.851h49.6M1553.068 98.647h49.59m1667.13 0h49.6m147.77 0h49.6"/>
  <path class="Stem" stroke="#000" stroke-width="2.73" stroke-linejoin="bevel" d="M632.441 962.65v71.08m186.137-71.08v71.08m215.64-65.19v-83.63m93.07 96.03V878.71m93.06 89.83v-96.03m93.07 71.23V866.3m63.56 96.35v71.08m186.13-71.08v71.08m186.13-71.08v71.08m186.14-108.28v91.74m93.06-79.34v71.07m195.34-65.18V860.1m98.69 96.04v-93.97m98.69 118.77v-116.7m98.68 91.9V866.3m69.18 83.95v77.28m98.69-102.08v95.87m98.69-120.68v114.48m98.68-89.67v83.47m98.69-95.88v71.08m197.38-71.08v71.08m197.37-71.08v164.09m197.37-77.28v77.28m98.69-77.28v77.28M632.441 751.82v71.08m186.137-71.08v71.08m186.13-95.88v71.08m93.07-83.481v91.741m93.06-79.34v87.61m93.07-62.81v71.08m93.07-83.48v77.28m186.13-77.28v77.28m186.13-77.28V841.5m93.07-114.48v106.21m93.07-93.81v85.55m93.06-110.351V816.7m165.84-77.28v77.28m197.37-77.28v77.28m197.37-77.28v77.28m98.69-89.68v91.75m98.69-79.35v81.41m98.68-69.01v71.08m98.69-58.68v77.28m98.69-102.08v95.88m98.69-133.083V829.1m98.68-89.68v83.48m98.69-58.68v77.28m98.69-102.08V841.5m98.68-77.28v77.28m98.69-102.08V841.5M661.949 608.898v-89.837m93.067 102.238V516.994m93.062 91.904v-93.971m93.07 81.569V512.86m93.07 96.038v-71.235m186.13 71.235v-71.235m186.14 58.833V512.86m186.13 71.235V512.86m93.07 83.636V512.86m93.06 96.038v-114.64m93.07 102.238V494.258m93.07 77.435v-77.435m93.06 89.837v-89.837m136.33 83.943v77.277m98.68-102.08v95.879m98.69-120.682v114.481m98.69-89.678v83.478m98.68-58.675v83.478m98.69-71.076v71.076m98.69-83.478v83.478m98.68-95.879v95.879m128.2-65.183v-77.435m197.37 89.837v-93.971m98.69 69.168V512.86m98.69 83.636v-77.435m98.68 89.837v-83.637m98.69 108.44V531.462m98.69 89.837v-83.636M632.441 367.375v83.477m186.137-83.477v95.879m93.06-71.076v77.276m93.07-102.079v77.276m93.07-64.875v73.143m93.06-85.544v93.812m93.07-69.009v77.276m93.07-89.678v89.678m93.06-114.481v116.548m93.07-91.745v93.812m93.07-81.41v83.477m93.06-95.879v89.678m93.07-77.276v77.276m93.07-102.079v102.079m93.06-114.481v114.481m165.84-114.481v71.076m197.37-71.076v71.076m98.69-95.879v95.879m98.68-120.682v120.682m98.69-95.879v95.879m98.69-71.076v71.076m98.68-83.478v83.478m98.69-95.879v139.284m98.69-102.079v102.079m98.69-77.276v77.276m98.68-139.284v139.284m98.69-126.883v83.478m98.69-71.076v79.344m98.68-66.942v75.209m98.69-62.808v71.076M632.441 126.784v71.076m93.067-83.478v77.277m279.2-64.875v89.678m186.13-77.276v77.276m93.07-89.678v89.678m93.07-102.08v77.277m186.13-102.08v106.214m93.07-69.009v71.076m93.06-71.076v89.678m93.07-77.276v77.276m186.13-89.678v89.678m165.84-89.678v89.678m98.68-102.08v105.181m98.69-80.377v83.477m197.37-108.281v83.478m98.69-46.273v71.076m296.06-95.879v89.678m197.38-102.08v85.545m98.68-97.946v89.678m98.69-52.473v77.276m98.69-126.883v117.582m98.68-92.779v83.478"/>
  <path class="Note" d="M662.329 951.29c-1.783-3.286-5.55-5.07-10.123-5.07-3.364 0-7.038.993-10.619 2.884-6.541 3.473-10.51 9.317-10.51 14.386 0 1.38.295 2.775.992 4.062 1.783 3.27 5.55 4.96 10.123 4.96 3.364 0 7.038-.883 10.619-2.775 6.542-3.472 10.51-9.332 10.51-14.386 0-1.395-.294-2.774-.992-4.061m186.131 0c-1.783-3.286-5.55-5.07-10.123-5.07-3.364 0-7.038.993-10.619 2.884-6.541 3.473-10.51 9.317-10.51 14.386 0 1.38.295 2.775.992 4.062 1.783 3.27 5.55 4.96 10.123 4.96 3.364 0 7.038-.883 10.619-2.775 6.542-3.472 10.51-9.332 10.51-14.386 0-1.395-.294-2.774-.992-4.061m186.14 12.4c-1.783-3.286-5.55-5.07-10.123-5.07-3.364 0-7.038.993-10.619 2.884-6.542 3.473-10.51 9.317-10.51 14.386 0 1.38.294 2.775.992 4.062 1.783 3.27 5.55 4.96 10.123 4.96 3.364 0 7.038-.883 10.619-2.775 6.542-3.472 10.51-9.332 10.51-14.386 0-1.395-.295-2.774-.992-4.061m93.06 12.4c-1.783-3.286-5.55-5.07-10.123-5.07-3.364 0-7.038.993-10.619 2.884-6.541 3.473-10.51 9.317-10.51 14.386 0 1.38.295 2.775.992 4.062 1.783 3.27 5.55 4.96 10.123 4.96 3.364 0 7.038-.883 10.619-2.775 6.542-3.472 10.51-9.332 10.51-14.386 0-1.395-.295-2.774-.992-4.061m93.07-12.4c-1.783-3.286-5.55-5.07-10.123-5.07-3.364 0-7.038.993-10.619 2.884-6.542 3.473-10.51 9.317-10.51 14.386 0 1.38.294 2.775.992 4.062 1.783 3.27 5.55 4.96 10.123 4.96 3.364 0 7.038-.883 10.619-2.775 6.542-3.472 10.51-9.332 10.51-14.386 0-1.395-.295-2.774-.992-4.061m93.07-24.8c-1.783-3.286-5.55-5.07-10.123-5.07-3.364 0-7.038.993-10.619 2.884-6.542 3.473-10.51 9.317-10.51 14.386 0 1.38.294 2.775.992 4.062 1.783 3.27 5.55 4.96 10.123 4.96 3.364 0 7.038-.883 10.619-2.775 6.542-3.472 10.51-9.332 10.51-14.386 0-1.395-.295-2.774-.992-4.061m93.06 12.4c-1.783-3.286-5.55-5.07-10.123-5.07-3.364 0-7.038.993-10.619 2.884-6.542 3.473-10.51 9.317-10.51 14.386 0 1.38.294 2.775.992 4.062 1.783 3.27 5.55 4.96 10.123 4.96 3.364 0 7.038-.883 10.619-2.775 6.542-3.472 10.51-9.332 10.51-14.386 0-1.395-.295-2.774-.992-4.061m186.14 0c-1.783-3.286-5.55-5.07-10.123-5.07-3.364 0-7.038.993-10.619 2.884-6.542 3.473-10.51 9.317-10.51 14.386 0 1.38.294 2.775.992 4.062 1.783 3.27 5.55 4.96 10.123 4.96 3.364 0 7.038-.883 10.619-2.775 6.542-3.472 10.51-9.332 10.51-14.386 0-1.395-.295-2.774-.992-4.061m186.13 0c-1.783-3.286-5.55-5.07-10.123-5.07-3.364 0-7.038.993-10.619 2.884-6.541 3.473-10.51 9.317-10.51 14.386 0 1.38.295 2.775.992 4.062 1.783 3.27 5.55 4.96 10.123 4.96 3.364 0 7.038-.883 10.619-2.775 6.542-3.472 10.51-9.332 10.51-14.386 0-1.395-.295-2.774-.992-4.061m186.13-37.21c-1.783-3.286-5.55-5.07-10.123-5.07-3.364 0-7.038.993-10.619 2.884-6.542 3.473-10.51 9.317-10.51 14.386 0 1.38.294 2.775.992 4.062 1.783 3.27 5.55 4.96 10.123 4.96 3.364 0 7.038-.883 10.619-2.775 6.542-3.472 10.51-9.332 10.51-14.386 0-1.395-.295-2.774-.992-4.061m93.07 12.4c-1.783-3.286-5.55-5.07-10.123-5.07-3.364 0-7.038.993-10.619 2.884-6.542 3.473-10.51 9.317-10.51 14.386 0 1.38.294 2.775.992 4.062 1.783 3.27 5.55 4.96 10.123 4.96 3.364 0 7.038-.883 10.619-2.775 6.542-3.472 10.51-9.332 10.51-14.386 0-1.395-.295-2.774-.992-4.061m165.83 12.41c-1.783-3.286-5.55-5.07-10.123-5.07-3.364 0-7.038.993-10.619 2.884-6.542 3.473-10.51 9.317-10.51 14.386 0 1.38.294 2.775.992 4.062 1.783 3.27 5.55 4.96 10.123 4.96 3.364 0 7.038-.883 10.619-2.775 6.542-3.472 10.51-9.332 10.51-14.386 0-1.395-.295-2.774-.992-4.061m98.69 12.4c-1.783-3.286-5.55-5.07-10.123-5.07-3.364 0-7.038.993-10.619 2.884-6.542 3.473-10.51 9.317-10.51 14.386 0 1.38.294 2.775.992 4.062 1.783 3.27 5.55 4.96 10.123 4.96 3.364 0 7.038-.883 10.619-2.775 6.542-3.472 10.51-9.332 10.51-14.386 0-1.395-.295-2.774-.992-4.061m98.69 24.8c-1.783-3.286-5.55-5.07-10.123-5.07-3.364 0-7.038.993-10.619 2.884-6.542 3.473-10.51 9.317-10.51 14.386 0 1.38.294 2.775.992 4.062 1.783 3.27 5.55 4.96 10.123 4.96 3.364 0 7.038-.883 10.619-2.775 6.542-3.472 10.51-9.332 10.51-14.386 0-1.395-.295-2.774-.992-4.061m98.68-24.8c-1.783-3.286-5.55-5.07-10.123-5.07-3.364 0-7.038.993-10.619 2.884-6.542 3.473-10.51 9.317-10.51 14.386 0 1.38.294 2.775.992 4.062 1.783 3.27 5.55 4.96 10.123 4.96 3.364 0 7.038-.883 10.619-2.775 6.542-3.472 10.51-9.332 10.51-14.386 0-1.395-.295-2.774-.992-4.061m98.69-12.4c-1.783-3.286-5.55-5.07-10.123-5.07-3.364 0-7.038.993-10.619 2.884-6.542 3.473-10.51 9.317-10.51 14.386 0 1.38.294 2.775.992 4.062 1.783 3.27 5.55 4.96 10.123 4.96 3.364 0 7.038-.883 10.619-2.775 6.542-3.472 10.51-9.332 10.51-14.386 0-1.395-.295-2.774-.992-4.061m98.69-24.81c-1.783-3.286-5.55-5.07-10.123-5.07-3.364 0-7.038.993-10.619 2.884-6.542 3.473-10.51 9.317-10.51 14.386 0 1.38.294 2.775.992 4.062 1.783 3.27 5.55 4.96 10.123 4.96 3.364 0 7.038-.883 10.619-2.775 6.542-3.472 10.51-9.332 10.51-14.386 0-1.395-.295-2.774-.992-4.061m98.68-24.8c-1.783-3.286-5.55-5.07-10.123-5.07-3.364 0-7.038.993-10.619 2.884-6.542 3.473-10.51 9.317-10.51 14.386 0 1.38.294 2.775.992 4.062 1.783 3.27 5.55 4.96 10.123 4.96 3.364 0 7.038-.883 10.619-2.775 6.542-3.472 10.51-9.332 10.51-14.386 0-1.395-.295-2.774-.992-4.061m98.69 24.8c-1.783-3.286-5.55-5.07-10.123-5.07-3.364 0-7.038.993-10.619 2.884-6.542 3.473-10.51 9.317-10.51 14.386 0 1.38.294 2.775.992 4.062 1.783 3.27 5.55 4.96 10.123 4.96 3.364 0 7.038-.883 10.619-2.775 6.542-3.472 10.51-9.332 10.51-14.386 0-1.395-.295-2.774-.992-4.061m98.69-12.4c-1.783-3.286-5.55-5.07-10.123-5.07-3.364 0-7.038.993-10.619 2.884-6.542 3.473-10.51 9.317-10.51 14.386 0 1.38.294 2.775.992 4.062 1.783 3.27 5.55 4.96 10.123 4.96 3.364 0 7.038-.883 10.619-2.775 6.542-3.472 10.51-9.332 10.51-14.386 0-1.395-.295-2.774-.992-4.061m197.37 0c-1.783-3.286-5.55-5.07-10.123-5.07-3.364 0-7.038.993-10.619 2.884-6.542 3.473-10.51 9.317-10.51 14.386 0 1.38.294 2.775.992 4.062 1.783 3.27 5.55 4.96 10.123 4.96 3.364 0 7.038-.883 10.619-2.775 6.542-3.472 10.51-9.332 10.51-14.386 0-1.395-.295-2.774-.992-4.061m197.37 0c-1.783-3.286-5.55-5.07-10.123-5.07-3.364 0-7.038.993-10.619 2.884-6.542 3.473-10.51 9.317-10.51 14.386 0 1.38.294 2.775.992 4.062 1.783 3.27 5.55 4.96 10.123 4.96 3.364 0 7.038-.883 10.619-2.775 6.542-3.472 10.51-9.332 10.51-14.386 0-1.395-.295-2.774-.992-4.061m197.38 86.81c-1.783-3.286-5.55-5.07-10.123-5.07-3.364 0-7.038.993-10.619 2.884-6.542 3.473-10.51 9.317-10.51 14.386 0 1.38.294 2.775.992 4.062 1.783 3.27 5.55 4.96 10.123 4.96 3.364 0 7.038-.883 10.619-2.775 6.542-3.472 10.51-9.332 10.51-14.386 0-1.395-.295-2.774-.992-4.061m98.69 0c-1.783-3.286-5.55-5.07-10.123-5.07-3.364 0-7.038.993-10.619 2.884-6.542 3.473-10.51 9.317-10.51 14.386 0 1.38.294 2.775.992 4.062 1.783 3.27 5.55 4.96 10.123 4.96 3.364 0 7.038-.883 10.619-2.775 6.542-3.472 10.51-9.332 10.51-14.386 0-1.395-.295-2.774-.992-4.061M662.329 740.46c-1.783-3.286-5.55-5.07-10.123-5.07-3.364 0-7.038.993-10.619 2.884-6.541 3.473-10.51 9.317-10.51 14.386 0 1.38.295 2.775.992 4.062 1.783 3.27 5.55 4.96 10.123 4.96 3.364 0 7.038-.883 10.619-2.775 6.542-3.472 10.51-9.332 10.51-14.386 0-1.395-.294-2.774-.992-4.061m186.131 0c-1.783-3.286-5.55-5.07-10.123-5.07-3.364 0-7.038.993-10.619 2.884-6.541 3.473-10.51 9.317-10.51 14.386 0 1.38.295 2.775.992 4.062 1.783 3.27 5.55 4.96 10.123 4.96 3.364 0 7.038-.883 10.619-2.775 6.542-3.472 10.51-9.332 10.51-14.386 0-1.395-.294-2.774-.992-4.061m186.14-24.803c-1.783-3.286-5.55-5.07-10.123-5.07-3.364 0-7.038.993-10.619 2.884-6.542 3.473-10.51 9.317-10.51 14.386 0 1.38.294 2.775.992 4.062 1.783 3.27 5.55 4.96 10.123 4.96 3.364 0 7.038-.883 10.619-2.775 6.542-3.472 10.51-9.332 10.51-14.386 0-1.395-.295-2.774-.992-4.061m93.06-12.402c-1.783-3.286-5.55-5.07-10.123-5.07-3.364 0-7.038.993-10.619 2.884-6.541 3.473-10.51 9.317-10.51 14.386 0 1.38.295 2.775.992 4.062 1.783 3.27 5.55 4.96 10.123 4.96 3.364 0 7.038-.883 10.619-2.775 6.542-3.472 10.51-9.332 10.51-14.386 0-1.395-.295-2.774-.992-4.061m93.07 12.402c-1.783-3.286-5.55-5.07-10.123-5.07-3.364 0-7.038.993-10.619 2.884-6.542 3.473-10.51 9.317-10.51 14.386 0 1.38.294 2.775.992 4.062 1.783 3.27 5.55 4.96 10.123 4.96 3.364 0 7.038-.883 10.619-2.775 6.542-3.472 10.51-9.332 10.51-14.386 0-1.395-.295-2.774-.992-4.061m93.07 24.803c-1.783-3.286-5.55-5.07-10.123-5.07-3.364 0-7.038.993-10.619 2.884-6.542 3.473-10.51 9.317-10.51 14.386 0 1.38.294 2.775.992 4.062 1.783 3.27 5.55 4.96 10.123 4.96 3.364 0 7.038-.883 10.619-2.775 6.542-3.472 10.51-9.332 10.51-14.386 0-1.395-.295-2.774-.992-4.061m93.06-12.402c-1.783-3.286-5.55-5.07-10.123-5.07-3.364 0-7.038.993-10.619 2.884-6.542 3.473-10.51 9.317-10.51 14.386 0 1.38.294 2.775.992 4.062 1.783 3.27 5.55 4.96 10.123 4.96 3.364 0 7.038-.883 10.619-2.775 6.542-3.472 10.51-9.332 10.51-14.386 0-1.395-.295-2.774-.992-4.061m186.14 0c-1.783-3.286-5.55-5.07-10.123-5.07-3.364 0-7.038.993-10.619 2.884-6.542 3.473-10.51 9.317-10.51 14.386 0 1.38.294 2.775.992 4.062 1.783 3.27 5.55 4.96 10.123 4.96 3.364 0 7.038-.883 10.619-2.775 6.542-3.472 10.51-9.332 10.51-14.386 0-1.395-.295-2.774-.992-4.061m186.13 0c-1.783-3.286-5.55-5.07-10.123-5.07-3.364 0-7.038.993-10.619 2.884-6.541 3.473-10.51 9.317-10.51 14.386 0 1.38.295 2.775.992 4.062 1.783 3.27 5.55 4.96 10.123 4.96 3.364 0 7.038-.883 10.619-2.775 6.542-3.472 10.51-9.332 10.51-14.386 0-1.395-.295-2.774-.992-4.061m93.07-12.401c-1.783-3.286-5.55-5.07-10.123-5.07-3.364 0-7.038.993-10.619 2.884-6.542 3.473-10.51 9.317-10.51 14.386 0 1.38.294 2.775.992 4.062 1.783 3.27 5.55 4.96 10.123 4.96 3.364 0 7.038-.883 10.619-2.775 6.542-3.472 10.51-9.332 10.51-14.386 0-1.395-.295-2.774-.992-4.061m93.06 12.401c-1.783-3.286-5.55-5.07-10.123-5.07-3.364 0-7.038.993-10.619 2.884-6.542 3.473-10.51 9.317-10.51 14.386 0 1.38.294 2.775.992 4.062 1.783 3.27 5.55 4.96 10.123 4.96 3.364 0 7.038-.883 10.619-2.775 6.542-3.472 10.51-9.332 10.51-14.386 0-1.395-.295-2.774-.992-4.061m93.07-24.803c-1.783-3.286-5.55-5.07-10.123-5.07-3.364 0-7.038.993-10.619 2.884-6.542 3.473-10.51 9.317-10.51 14.386 0 1.38.294 2.775.992 4.062 1.783 3.27 5.55 4.96 10.123 4.96 3.364 0 7.038-.883 10.619-2.775 6.542-3.472 10.51-9.332 10.51-14.386 0-1.395-.295-2.774-.992-4.061m165.83 24.803c-1.783-3.286-5.55-5.07-10.123-5.07-3.364 0-7.038.993-10.619 2.884-6.542 3.473-10.51 9.317-10.51 14.386 0 1.38.294 2.775.992 4.062 1.783 3.27 5.55 4.96 10.123 4.96 3.364 0 7.038-.883 10.619-2.775 6.542-3.472 10.51-9.332 10.51-14.386 0-1.395-.295-2.774-.992-4.061m197.38 0c-1.783-3.286-5.55-5.07-10.123-5.07-3.364 0-7.038.993-10.619 2.884-6.542 3.473-10.51 9.317-10.51 14.386 0 1.38.294 2.775.992 4.062 1.783 3.27 5.55 4.96 10.123 4.96 3.364 0 7.038-.883 10.619-2.775 6.542-3.472 10.51-9.332 10.51-14.386 0-1.395-.295-2.774-.992-4.061m197.37 0c-1.783-3.286-5.55-5.07-10.123-5.07-3.364 0-7.038.993-10.619 2.884-6.542 3.473-10.51 9.317-10.51 14.386 0 1.38.294 2.775.992 4.062 1.783 3.27 5.55 4.96 10.123 4.96 3.364 0 7.038-.883 10.619-2.775 6.542-3.472 10.51-9.332 10.51-14.386 0-1.395-.295-2.774-.992-4.061m98.69-12.401c-1.783-3.286-5.55-5.07-10.123-5.07-3.364 0-7.038.993-10.619 2.884-6.542 3.473-10.51 9.317-10.51 14.386 0 1.38.294 2.775.992 4.062 1.783 3.27 5.55 4.96 10.123 4.96 3.364 0 7.038-.883 10.619-2.775 6.542-3.472 10.51-9.332 10.51-14.386 0-1.395-.295-2.774-.992-4.061m98.68 12.401c-1.783-3.286-5.55-5.07-10.123-5.07-3.364 0-7.038.993-10.619 2.884-6.542 3.473-10.51 9.317-10.51 14.386 0 1.38.294 2.775.992 4.062 1.783 3.27 5.55 4.96 10.123 4.96 3.364 0 7.038-.883 10.619-2.775 6.542-3.472 10.51-9.332 10.51-14.386 0-1.395-.295-2.774-.992-4.061m98.69 12.402c-1.783-3.286-5.55-5.07-10.123-5.07-3.364 0-7.038.993-10.619 2.884-6.542 3.473-10.51 9.317-10.51 14.386 0 1.38.294 2.775.992 4.062 1.783 3.27 5.55 4.96 10.123 4.96 3.364 0 7.038-.883 10.619-2.775 6.542-3.472 10.51-9.332 10.51-14.386 0-1.395-.295-2.774-.992-4.061m98.69 12.4c-1.783-3.286-5.55-5.07-10.123-5.07-3.364 0-7.038.993-10.619 2.884-6.542 3.473-10.51 9.317-10.51 14.386 0 1.38.294 2.775.992 4.062 1.783 3.27 5.55 4.96 10.123 4.96 3.364 0 7.038-.883 10.619-2.775 6.542-3.472 10.51-9.332 10.51-14.386 0-1.395-.295-2.774-.992-4.061m98.68-24.802c-1.783-3.286-5.55-5.07-10.123-5.07-3.364 0-7.038.993-10.619 2.884-6.542 3.473-10.51 9.317-10.51 14.386 0 1.38.294 2.775.992 4.062 1.783 3.27 5.55 4.96 10.123 4.96 3.364 0 7.038-.883 10.619-2.775 6.542-3.472 10.51-9.332 10.51-14.386 0-1.395-.295-2.774-.992-4.061m98.69-37.204c-1.783-3.286-5.55-5.07-10.123-5.07-3.364 0-7.038.993-10.619 2.884-6.542 3.473-10.51 9.317-10.51 14.386 0 1.38.294 2.775.992 4.062 1.783 3.27 5.55 4.96 10.123 4.96 3.364 0 7.038-.883 10.619-2.775 6.542-3.472 10.51-9.332 10.51-14.386 0-1.395-.295-2.774-.992-4.061m98.69 37.204c-1.783-3.286-5.55-5.07-10.123-5.07-3.364 0-7.038.993-10.619 2.884-6.542 3.473-10.51 9.317-10.51 14.386 0 1.38.294 2.775.992 4.062 1.783 3.27 5.55 4.96 10.123 4.96 3.364 0 7.038-.883 10.619-2.775 6.542-3.472 10.51-9.332 10.51-14.386 0-1.395-.295-2.774-.992-4.061m98.68 24.802c-1.783-3.286-5.55-5.07-10.123-5.07-3.364 0-7.038.993-10.619 2.884-6.542 3.473-10.51 9.317-10.51 14.386 0 1.38.294 2.775.992 4.062 1.783 3.27 5.55 4.96 10.123 4.96 3.364 0 7.038-.883 10.619-2.775 6.542-3.472 10.51-9.332 10.51-14.386 0-1.395-.295-2.774-.992-4.061m98.69-24.802c-1.783-3.286-5.55-5.07-10.123-5.07-3.364 0-7.038.993-10.619 2.884-6.542 3.473-10.51 9.317-10.51 14.386 0 1.38.294 2.775.992 4.062 1.783 3.27 5.55 4.96 10.123 4.96 3.364 0 7.038-.883 10.619-2.775 6.542-3.472 10.51-9.332 10.51-14.386 0-1.395-.295-2.774-.992-4.061m98.69 24.802c-1.783-3.286-5.55-5.07-10.123-5.07-3.364 0-7.038.993-10.619 2.884-6.542 3.473-10.51 9.317-10.51 14.386 0 1.38.294 2.775.992 4.062 1.783 3.27 5.55 4.96 10.123 4.96 3.364 0 7.038-.883 10.619-2.775 6.542-3.472 10.51-9.332 10.51-14.386 0-1.395-.295-2.774-.992-4.061m98.69-24.802c-1.783-3.286-5.55-5.07-10.123-5.07-3.364 0-7.038.993-10.619 2.884-6.542 3.473-10.51 9.317-10.51 14.386 0 1.38.294 2.775.992 4.062 1.783 3.27 5.55 4.96 10.123 4.96 3.364 0 7.038-.883 10.619-2.775 6.542-3.472 10.51-9.332 10.51-14.386 0-1.395-.295-2.774-.992-4.061M662.329 604.043c-1.783-3.286-5.55-5.07-10.123-5.07-3.364 0-7.038.993-10.619 2.884-6.541 3.473-10.51 9.317-10.51 14.386 0 1.38.295 2.775.992 4.062 1.783 3.27 5.55 4.96 10.123 4.96 3.364 0 7.038-.883 10.619-2.775 6.542-3.472 10.51-9.332 10.51-14.386 0-1.395-.294-2.774-.992-4.061m93.067 12.401c-1.783-3.286-5.55-5.07-10.123-5.07-3.364 0-7.038.993-10.619 2.884-6.541 3.473-10.51 9.317-10.51 14.386 0 1.38.295 2.775.992 4.062 1.783 3.27 5.55 4.96 10.123 4.96 3.364 0 7.038-.883 10.619-2.775 6.542-3.472 10.51-9.332 10.51-14.386 0-1.395-.294-2.774-.992-4.061m93.064-12.401c-1.783-3.286-5.55-5.07-10.123-5.07-3.364 0-7.038.993-10.619 2.884-6.541 3.473-10.51 9.317-10.51 14.386 0 1.38.295 2.775.992 4.062 1.783 3.27 5.55 4.96 10.123 4.96 3.364 0 7.038-.883 10.619-2.775 6.542-3.472 10.51-9.332 10.51-14.386 0-1.395-.294-2.774-.992-4.061m93.07-12.402c-1.783-3.286-5.55-5.07-10.123-5.07-3.364 0-7.038.993-10.619 2.884-6.541 3.473-10.51 9.317-10.51 14.386 0 1.38.295 2.775.992 4.062 1.783 3.27 5.55 4.96 10.123 4.96 3.364 0 7.038-.883 10.619-2.775 6.542-3.472 10.51-9.332 10.51-14.386 0-1.395-.294-2.774-.992-4.061m93.07 12.402c-1.783-3.286-5.55-5.07-10.123-5.07-3.364 0-7.038.993-10.619 2.884-6.542 3.473-10.51 9.317-10.51 14.386 0 1.38.294 2.775.992 4.062 1.783 3.27 5.55 4.96 10.123 4.96 3.364 0 7.038-.883 10.619-2.775 6.542-3.472 10.51-9.332 10.51-14.386 0-1.395-.295-2.774-.992-4.061m186.13 0c-1.783-3.286-5.55-5.07-10.123-5.07-3.364 0-7.038.993-10.619 2.884-6.542 3.473-10.51 9.317-10.51 14.386 0 1.38.294 2.775.992 4.062 1.783 3.27 5.55 4.96 10.123 4.96 3.364 0 7.038-.883 10.619-2.775 6.542-3.472 10.51-9.332 10.51-14.386 0-1.395-.295-2.774-.992-4.061m186.13-12.402c-1.783-3.286-5.55-5.07-10.123-5.07-3.364 0-7.038.993-10.619 2.884-6.542 3.473-10.51 9.317-10.51 14.386 0 1.38.294 2.775.992 4.062 1.783 3.27 5.55 4.96 10.123 4.96 3.364 0 7.038-.883 10.619-2.775 6.542-3.472 10.51-9.332 10.51-14.386 0-1.395-.295-2.774-.992-4.061M1593 579.239c-1.783-3.286-5.55-5.07-10.123-5.07-3.364 0-7.038.993-10.619 2.884-6.542 3.473-10.51 9.317-10.51 14.386 0 1.38.294 2.775.992 4.062 1.783 3.27 5.55 4.96 10.123 4.96 3.364 0 7.038-.883 10.619-2.775 6.542-3.472 10.51-9.332 10.51-14.386 0-1.395-.295-2.774-.992-4.061m93.06 12.402c-1.783-3.286-5.55-5.07-10.123-5.07-3.364 0-7.038.993-10.619 2.884-6.542 3.473-10.51 9.317-10.51 14.386 0 1.38.294 2.775.992 4.062 1.783 3.27 5.55 4.96 10.123 4.96 3.364 0 7.038-.883 10.619-2.775 6.542-3.472 10.51-9.332 10.51-14.386 0-1.395-.295-2.774-.992-4.061m93.07 12.402c-1.783-3.286-5.55-5.07-10.123-5.07-3.364 0-7.038.993-10.619 2.884-6.541 3.473-10.51 9.317-10.51 14.386 0 1.38.295 2.775.992 4.062 1.783 3.27 5.55 4.96 10.123 4.96 3.364 0 7.038-.883 10.619-2.775 6.542-3.472 10.51-9.332 10.51-14.386 0-1.395-.295-2.774-.992-4.061m93.07-12.402c-1.783-3.286-5.55-5.07-10.123-5.07-3.364 0-7.038.993-10.619 2.884-6.542 3.473-10.51 9.317-10.51 14.386 0 1.38.294 2.775.992 4.062 1.783 3.27 5.55 4.96 10.123 4.96 3.364 0 7.038-.883 10.619-2.775 6.542-3.472 10.51-9.332 10.51-14.386 0-1.395-.295-2.774-.992-4.061m93.06-24.803c-1.783-3.286-5.55-5.07-10.123-5.07-3.364 0-7.038.993-10.619 2.884-6.542 3.473-10.51 9.317-10.51 14.386 0 1.38.294 2.775.992 4.062 1.783 3.27 5.55 4.96 10.123 4.96 3.364 0 7.038-.883 10.619-2.775 6.542-3.472 10.51-9.332 10.51-14.386 0-1.395-.295-2.774-.992-4.061m93.07 12.401c-1.783-3.286-5.55-5.07-10.123-5.07-3.364 0-7.038.993-10.619 2.884-6.542 3.473-10.51 9.317-10.51 14.386 0 1.38.294 2.775.992 4.062 1.783 3.27 5.55 4.96 10.123 4.96 3.364 0 7.038-.883 10.619-2.775 6.542-3.472 10.51-9.332 10.51-14.386 0-1.395-.295-2.774-.992-4.061m165.83-12.401c-1.783-3.286-5.55-5.07-10.123-5.07-3.364 0-7.038.993-10.619 2.884-6.542 3.473-10.51 9.317-10.51 14.386 0 1.38.294 2.775.992 4.062 1.783 3.27 5.55 4.96 10.123 4.96 3.364 0 7.038-.883 10.619-2.775 6.542-3.472 10.51-9.332 10.51-14.386 0-1.395-.295-2.774-.992-4.061m98.69-24.803c-1.783-3.286-5.55-5.07-10.123-5.07-3.364 0-7.038.993-10.619 2.884-6.542 3.473-10.51 9.317-10.51 14.386 0 1.38.294 2.775.992 4.062 1.783 3.27 5.55 4.96 10.123 4.96 3.364 0 7.038-.883 10.619-2.775 6.542-3.472 10.51-9.332 10.51-14.386 0-1.395-.295-2.774-.992-4.061m98.69-24.804c-1.783-3.286-5.55-5.07-10.123-5.07-3.364 0-7.038.993-10.619 2.884-6.542 3.473-10.51 9.317-10.51 14.386 0 1.38.294 2.775.992 4.062 1.783 3.27 5.55 4.96 10.123 4.96 3.364 0 7.038-.883 10.619-2.775 6.542-3.472 10.51-9.332 10.51-14.386 0-1.395-.295-2.774-.992-4.061m98.68 24.804c-1.783-3.286-5.55-5.07-10.123-5.07-3.364 0-7.038.993-10.619 2.884-6.542 3.473-10.51 9.317-10.51 14.386 0 1.38.294 2.775.992 4.062 1.783 3.27 5.55 4.96 10.123 4.96 3.364 0 7.038-.883 10.619-2.775 6.542-3.472 10.51-9.332 10.51-14.386 0-1.395-.295-2.774-.992-4.061m98.69 24.803c-1.783-3.286-5.55-5.07-10.123-5.07-3.364 0-7.038.993-10.619 2.884-6.542 3.473-10.51 9.317-10.51 14.386 0 1.38.294 2.775.992 4.062 1.783 3.27 5.55 4.96 10.123 4.96 3.364 0 7.038-.883 10.619-2.775 6.542-3.472 10.51-9.332 10.51-14.386 0-1.395-.295-2.774-.992-4.061m98.69 12.401c-1.783-3.286-5.55-5.07-10.123-5.07-3.364 0-7.038.993-10.619 2.884-6.542 3.473-10.51 9.317-10.51 14.386 0 1.38.294 2.775.992 4.062 1.783 3.27 5.55 4.96 10.123 4.96 3.364 0 7.038-.883 10.619-2.775 6.542-3.472 10.51-9.332 10.51-14.386 0-1.395-.295-2.774-.992-4.061m98.68-12.401c-1.783-3.286-5.55-5.07-10.123-5.07-3.364 0-7.038.993-10.619 2.884-6.542 3.473-10.51 9.317-10.51 14.386 0 1.38.294 2.775.992 4.062 1.783 3.27 5.55 4.96 10.123 4.96 3.364 0 7.038-.883 10.619-2.775 6.542-3.472 10.51-9.332 10.51-14.386 0-1.395-.295-2.774-.992-4.061m98.69-12.402c-1.783-3.286-5.55-5.07-10.123-5.07-3.364 0-7.038.993-10.619 2.884-6.542 3.473-10.51 9.317-10.51 14.386 0 1.38.294 2.775.992 4.062 1.783 3.27 5.55 4.96 10.123 4.96 3.364 0 7.038-.883 10.619-2.775 6.542-3.472 10.51-9.332 10.51-14.386 0-1.395-.295-2.774-.992-4.061m98.69 37.205c-1.783-3.286-5.55-5.07-10.123-5.07-3.364 0-7.038.993-10.619 2.884-6.542 3.473-10.51 9.317-10.51 14.386 0 1.38.294 2.775.992 4.062 1.783 3.27 5.55 4.96 10.123 4.96 3.364 0 7.038-.883 10.619-2.775 6.542-3.472 10.51-9.332 10.51-14.386 0-1.395-.295-2.774-.992-4.061m197.37 12.402c-1.783-3.286-5.55-5.07-10.123-5.07-3.364 0-7.038.993-10.619 2.884-6.542 3.473-10.51 9.317-10.51 14.386 0 1.38.294 2.775.992 4.062 1.783 3.27 5.55 4.96 10.123 4.96 3.364 0 7.038-.883 10.619-2.775 6.542-3.472 10.51-9.332 10.51-14.386 0-1.395-.295-2.774-.992-4.061m98.69-24.804c-1.783-3.286-5.55-5.07-10.123-5.07-3.364 0-7.038.993-10.619 2.884-6.542 3.473-10.51 9.317-10.51 14.386 0 1.38.294 2.775.992 4.062 1.783 3.27 5.55 4.96 10.123 4.96 3.364 0 7.038-.883 10.619-2.775 6.542-3.472 10.51-9.332 10.51-14.386 0-1.395-.295-2.774-.992-4.061m98.68 12.402c-1.783-3.286-5.55-5.07-10.123-5.07-3.364 0-7.038.993-10.619 2.884-6.542 3.473-10.51 9.317-10.51 14.386 0 1.38.294 2.775.992 4.062 1.783 3.27 5.55 4.96 10.123 4.96 3.364 0 7.038-.883 10.619-2.775 6.542-3.472 10.51-9.332 10.51-14.386 0-1.395-.295-2.774-.992-4.061m98.69 12.402c-1.783-3.286-5.55-5.07-10.123-5.07-3.364 0-7.038.993-10.619 2.884-6.542 3.473-10.51 9.317-10.51 14.386 0 1.38.294 2.775.992 4.062 1.783 3.27 5.55 4.96 10.123 4.96 3.364 0 7.038-.883 10.619-2.775 6.542-3.472 10.51-9.332 10.51-14.386 0-1.395-.295-2.774-.992-4.061m98.69 24.803c-1.783-3.286-5.55-5.07-10.123-5.07-3.364 0-7.038.993-10.619 2.884-6.542 3.473-10.51 9.317-10.51 14.386 0 1.38.294 2.775.992 4.062 1.783 3.27 5.55 4.96 10.123 4.96 3.364 0 7.038-.883 10.619-2.775 6.542-3.472 10.51-9.332 10.51-14.386 0-1.395-.295-2.774-.992-4.061m98.69-12.402c-1.783-3.286-5.55-5.07-10.123-5.07-3.364 0-7.038.993-10.619 2.884-6.542 3.473-10.51 9.317-10.51 14.386 0 1.38.294 2.775.992 4.062 1.783 3.27 5.55 4.96 10.123 4.96 3.364 0 7.038-.883 10.619-2.775 6.542-3.472 10.51-9.332 10.51-14.386 0-1.395-.295-2.774-.992-4.061M662.329 356.011c-1.783-3.286-5.55-5.07-10.123-5.07-3.364 0-7.038.993-10.619 2.884-6.541 3.473-10.51 9.317-10.51 14.386 0 1.38.295 2.775.992 4.062 1.783 3.27 5.55 4.96 10.123 4.96 3.364 0 7.038-.883 10.619-2.775 6.542-3.472 10.51-9.332 10.51-14.386 0-1.395-.294-2.774-.992-4.061m186.131 0c-1.783-3.286-5.55-5.07-10.123-5.07-3.364 0-7.038.993-10.619 2.884-6.541 3.473-10.51 9.317-10.51 14.386 0 1.38.295 2.775.992 4.062 1.783 3.27 5.55 4.96 10.123 4.96 3.364 0 7.038-.883 10.619-2.775 6.542-3.472 10.51-9.332 10.51-14.386 0-1.395-.294-2.774-.992-4.061m93.07 24.803c-1.783-3.286-5.55-5.07-10.123-5.07-3.364 0-7.038.993-10.619 2.884-6.541 3.473-10.51 9.317-10.51 14.386 0 1.38.295 2.775.992 4.062 1.783 3.27 5.55 4.96 10.123 4.96 3.364 0 7.038-.883 10.619-2.775 6.542-3.472 10.51-9.332 10.51-14.386 0-1.395-.294-2.774-.992-4.061m93.07-24.803c-1.783-3.286-5.55-5.07-10.123-5.07-3.364 0-7.038.993-10.619 2.884-6.542 3.473-10.51 9.317-10.51 14.386 0 1.38.294 2.775.992 4.062 1.783 3.27 5.55 4.96 10.123 4.96 3.364 0 7.038-.883 10.619-2.775 6.542-3.472 10.51-9.332 10.51-14.386 0-1.395-.295-2.774-.992-4.061m93.06 12.402c-1.783-3.286-5.55-5.07-10.123-5.07-3.364 0-7.038.993-10.619 2.884-6.541 3.473-10.51 9.317-10.51 14.386 0 1.38.295 2.775.992 4.062 1.783 3.27 5.55 4.96 10.123 4.96 3.364 0 7.038-.883 10.619-2.775 6.542-3.472 10.51-9.332 10.51-14.386 0-1.395-.295-2.774-.992-4.061m93.07-12.402c-1.783-3.286-5.55-5.07-10.123-5.07-3.364 0-7.038.993-10.619 2.884-6.542 3.473-10.51 9.317-10.51 14.386 0 1.38.294 2.775.992 4.062 1.783 3.27 5.55 4.96 10.123 4.96 3.364 0 7.038-.883 10.619-2.775 6.542-3.472 10.51-9.332 10.51-14.386 0-1.395-.295-2.774-.992-4.061m93.07 24.803c-1.783-3.286-5.55-5.07-10.123-5.07-3.364 0-7.038.993-10.619 2.884-6.542 3.473-10.51 9.317-10.51 14.386 0 1.38.294 2.775.992 4.062 1.783 3.27 5.55 4.96 10.123 4.96 3.364 0 7.038-.883 10.619-2.775 6.542-3.472 10.51-9.332 10.51-14.386 0-1.395-.295-2.774-.992-4.061m93.06-12.401c-1.783-3.286-5.55-5.07-10.123-5.07-3.364 0-7.038.993-10.619 2.884-6.542 3.473-10.51 9.317-10.51 14.386 0 1.38.294 2.775.992 4.062 1.783 3.27 5.55 4.96 10.123 4.96 3.364 0 7.038-.883 10.619-2.775 6.542-3.472 10.51-9.332 10.51-14.386 0-1.395-.295-2.774-.992-4.061m93.07-24.804c-1.783-3.286-5.55-5.07-10.123-5.07-3.364 0-7.038.993-10.619 2.884-6.542 3.473-10.51 9.317-10.51 14.386 0 1.38.294 2.775.992 4.062 1.783 3.27 5.55 4.96 10.123 4.96 3.364 0 7.038-.883 10.619-2.775 6.542-3.472 10.51-9.332 10.51-14.386 0-1.395-.295-2.774-.992-4.061m93.07 24.804c-1.783-3.286-5.55-5.07-10.123-5.07-3.364 0-7.038.993-10.619 2.884-6.542 3.473-10.51 9.317-10.51 14.386 0 1.38.294 2.775.992 4.062 1.783 3.27 5.55 4.96 10.123 4.96 3.364 0 7.038-.883 10.619-2.775 6.542-3.472 10.51-9.332 10.51-14.386 0-1.395-.295-2.774-.992-4.061m93.06 12.401c-1.783-3.286-5.55-5.07-10.123-5.07-3.364 0-7.038.993-10.619 2.884-6.542 3.473-10.51 9.317-10.51 14.386 0 1.38.294 2.775.992 4.062 1.783 3.27 5.55 4.96 10.123 4.96 3.364 0 7.038-.883 10.619-2.775 6.542-3.472 10.51-9.332 10.51-14.386 0-1.395-.295-2.774-.992-4.061m93.07-12.401c-1.783-3.286-5.55-5.07-10.123-5.07-3.364 0-7.038.993-10.619 2.884-6.541 3.473-10.51 9.317-10.51 14.386 0 1.38.295 2.775.992 4.062 1.783 3.27 5.55 4.96 10.123 4.96 3.364 0 7.038-.883 10.619-2.775 6.542-3.472 10.51-9.332 10.51-14.386 0-1.395-.295-2.774-.992-4.061m93.07 12.401c-1.783-3.286-5.55-5.07-10.123-5.07-3.364 0-7.038.993-10.619 2.884-6.542 3.473-10.51 9.317-10.51 14.386 0 1.38.294 2.775.992 4.062 1.783 3.27 5.55 4.96 10.123 4.96 3.364 0 7.038-.883 10.619-2.775 6.542-3.472 10.51-9.332 10.51-14.386 0-1.395-.295-2.774-.992-4.061m93.06-24.803c-1.783-3.286-5.55-5.07-10.123-5.07-3.364 0-7.038.993-10.619 2.884-6.542 3.473-10.51 9.317-10.51 14.386 0 1.38.294 2.775.992 4.062 1.783 3.27 5.55 4.96 10.123 4.96 3.364 0 7.038-.883 10.619-2.775 6.542-3.472 10.51-9.332 10.51-14.386 0-1.395-.295-2.774-.992-4.061m93.07-12.402c-1.783-3.286-5.55-5.07-10.123-5.07-3.364 0-7.038.993-10.619 2.884-6.542 3.473-10.51 9.317-10.51 14.386 0 1.38.294 2.775.992 4.062 1.783 3.27 5.55 4.96 10.123 4.96 3.364 0 7.038-.883 10.619-2.775 6.542-3.472 10.51-9.332 10.51-14.386 0-1.395-.295-2.774-.992-4.061m165.83 0c-1.783-3.286-5.55-5.07-10.123-5.07-3.364 0-7.038.993-10.619 2.884-6.542 3.473-10.51 9.317-10.51 14.386 0 1.38.294 2.775.992 4.062 1.783 3.27 5.55 4.96 10.123 4.96 3.364 0 7.038-.883 10.619-2.775 6.542-3.472 10.51-9.332 10.51-14.386 0-1.395-.295-2.774-.992-4.061m197.38 0c-1.783-3.286-5.55-5.07-10.123-5.07-3.364 0-7.038.993-10.619 2.884-6.542 3.473-10.51 9.317-10.51 14.386 0 1.38.294 2.775.992 4.062 1.783 3.27 5.55 4.96 10.123 4.96 3.364 0 7.038-.883 10.619-2.775 6.542-3.472 10.51-9.332 10.51-14.386 0-1.395-.295-2.774-.992-4.061m98.68-24.803c-1.783-3.286-5.55-5.07-10.123-5.07-3.364 0-7.038.993-10.619 2.884-6.542 3.473-10.51 9.317-10.51 14.386 0 1.38.294 2.775.992 4.062 1.783 3.27 5.55 4.96 10.123 4.96 3.364 0 7.038-.883 10.619-2.775 6.542-3.472 10.51-9.332 10.51-14.386 0-1.395-.295-2.774-.992-4.061m98.69-24.803c-1.783-3.286-5.55-5.07-10.123-5.07-3.364 0-7.038.993-10.619 2.884-6.542 3.473-10.51 9.317-10.51 14.386 0 1.38.294 2.775.992 4.062 1.783 3.27 5.55 4.96 10.123 4.96 3.364 0 7.038-.883 10.619-2.775 6.542-3.472 10.51-9.332 10.51-14.386 0-1.395-.295-2.774-.992-4.061m98.69 24.803c-1.783-3.286-5.55-5.07-10.123-5.07-3.364 0-7.038.993-10.619 2.884-6.542 3.473-10.51 9.317-10.51 14.386 0 1.38.294 2.775.992 4.062 1.783 3.27 5.55 4.96 10.123 4.96 3.364 0 7.038-.883 10.619-2.775 6.542-3.472 10.51-9.332 10.51-14.386 0-1.395-.295-2.774-.992-4.061m98.68 24.803c-1.783-3.286-5.55-5.07-10.123-5.07-3.364 0-7.038.993-10.619 2.884-6.542 3.473-10.51 9.317-10.51 14.386 0 1.38.294 2.775.992 4.062 1.783 3.27 5.55 4.96 10.123 4.96 3.364 0 7.038-.883 10.619-2.775 6.542-3.472 10.51-9.332 10.51-14.386 0-1.395-.295-2.774-.992-4.061m98.69-12.401c-1.783-3.286-5.55-5.07-10.123-5.07-3.364 0-7.038.993-10.619 2.884-6.542 3.473-10.51 9.317-10.51 14.386 0 1.38.294 2.775.992 4.062 1.783 3.27 5.55 4.96 10.123 4.96 3.364 0 7.038-.883 10.619-2.775 6.542-3.472 10.51-9.332 10.51-14.385 0-1.396-.295-2.775-.992-4.062m98.69-12.402c-1.783-3.286-5.55-5.07-10.123-5.07-3.364 0-7.038.993-10.619 2.884-6.542 3.473-10.51 9.317-10.51 14.386 0 1.38.294 2.775.992 4.062 1.783 3.27 5.55 4.96 10.123 4.96 3.364 0 7.038-.883 10.619-2.775 6.542-3.472 10.51-9.332 10.51-14.386 0-1.395-.295-2.774-.992-4.061m98.68 37.205c-1.783-3.286-5.55-5.07-10.123-5.07-3.364 0-7.038.993-10.619 2.884-6.542 3.473-10.51 9.317-10.51 14.386 0 1.38.294 2.775.992 4.062 1.783 3.27 5.55 4.96 10.123 4.96 3.364 0 7.038-.883 10.619-2.775 6.542-3.472 10.51-9.332 10.51-14.386 0-1.395-.295-2.774-.992-4.061m98.69 24.803c-1.783-3.286-5.55-5.07-10.123-5.07-3.364 0-7.038.993-10.619 2.884-6.542 3.473-10.51 9.317-10.51 14.386 0 1.38.294 2.775.992 4.062 1.783 3.27 5.55 4.96 10.123 4.96 3.364 0 7.038-.883 10.619-2.775 6.542-3.472 10.51-9.332 10.51-14.386 0-1.395-.295-2.774-.992-4.061m98.69-62.008c-1.783-3.286-5.55-5.07-10.123-5.07-3.364 0-7.038.993-10.619 2.884-6.542 3.473-10.51 9.317-10.51 14.386 0 1.38.294 2.775.992 4.062 1.783 3.27 5.55 4.96 10.123 4.96 3.364 0 7.038-.883 10.619-2.775 6.542-3.472 10.51-9.332 10.51-14.386 0-1.395-.295-2.774-.992-4.061m98.68 12.402c-1.783-3.286-5.55-5.07-10.123-5.07-3.364 0-7.038.993-10.619 2.884-6.542 3.473-10.51 9.317-10.51 14.386 0 1.38.294 2.775.992 4.062 1.783 3.27 5.55 4.96 10.123 4.96 3.364 0 7.038-.883 10.619-2.775 6.542-3.472 10.51-9.332 10.51-14.385 0-1.396-.295-2.775-.992-4.062m98.69 12.401c-1.783-3.286-5.55-5.07-10.123-5.07-3.364 0-7.038.993-10.619 2.884-6.542 3.473-10.51 9.317-10.51 14.386 0 1.38.294 2.775.992 4.062 1.783 3.27 5.55 4.96 10.123 4.96 3.364 0 7.038-.883 10.619-2.775 6.542-3.472 10.51-9.332 10.51-14.386 0-1.395-.295-2.774-.992-4.061m98.69 12.402c-1.783-3.286-5.55-5.07-10.123-5.07-3.364 0-7.038.993-10.619 2.884-6.542 3.473-10.51 9.317-10.51 14.386 0 1.38.294 2.775.992 4.062 1.783 3.27 5.55 4.96 10.123 4.96 3.364 0 7.038-.883 10.619-2.775 6.542-3.472 10.51-9.332 10.51-14.386 0-1.395-.295-2.774-.992-4.061m98.69 12.402c-1.783-3.286-5.55-5.07-10.123-5.07-3.364 0-7.038.993-10.619 2.884-6.542 3.473-10.51 9.317-10.51 14.386 0 1.38.294 2.775.992 4.062 1.783 3.27 5.55 4.96 10.123 4.96 3.364 0 7.038-.883 10.619-2.775 6.542-3.472 10.51-9.332 10.51-14.386 0-1.395-.295-2.774-.992-4.061M662.329 115.42c-1.783-3.286-5.55-5.07-10.123-5.07-3.364 0-7.038.993-10.619 2.884-6.541 3.473-10.51 9.317-10.51 14.386 0 1.38.295 2.775.992 4.062 1.783 3.27 5.55 4.96 10.123 4.96 3.364 0 7.038-.883 10.619-2.775 6.542-3.472 10.51-9.332 10.51-14.386 0-1.395-.294-2.774-.992-4.061m93.067-12.401c-1.783-3.286-5.55-5.07-10.123-5.07-3.364 0-7.038.993-10.619 2.884-6.541 3.473-10.51 9.317-10.51 14.386 0 1.38.295 2.775.992 4.062 1.783 3.27 5.55 4.96 10.123 4.96 3.364 0 7.038-.883 10.619-2.775 6.542-3.472 10.51-9.332 10.51-14.385 0-1.396-.294-2.775-.992-4.062M1034.6 115.42c-1.783-3.286-5.55-5.07-10.123-5.07-3.364 0-7.038.993-10.619 2.884-6.542 3.473-10.51 9.317-10.51 14.386 0 1.38.294 2.775.992 4.062 1.783 3.27 5.55 4.96 10.123 4.96 3.364 0 7.038-.883 10.619-2.775 6.542-3.472 10.51-9.332 10.51-14.386 0-1.395-.295-2.774-.992-4.061m186.13 12.402c-1.783-3.286-5.55-5.07-10.123-5.07-3.364 0-7.038.993-10.619 2.884-6.542 3.473-10.51 9.317-10.51 14.386 0 1.38.294 2.775.992 4.062 1.783 3.27 5.55 4.96 10.123 4.96 3.364 0 7.038-.883 10.619-2.775 6.542-3.472 10.51-9.332 10.51-14.386 0-1.395-.295-2.774-.992-4.061m93.07-12.402c-1.783-3.286-5.55-5.07-10.123-5.07-3.364 0-7.038.993-10.619 2.884-6.542 3.473-10.51 9.317-10.51 14.386 0 1.38.294 2.775.992 4.062 1.783 3.27 5.55 4.96 10.123 4.96 3.364 0 7.038-.883 10.619-2.775 6.542-3.472 10.51-9.332 10.51-14.386 0-1.395-.295-2.774-.992-4.061m93.06-12.401c-1.783-3.286-5.55-5.07-10.123-5.07-3.364 0-7.038.993-10.619 2.884-6.542 3.473-10.51 9.317-10.51 14.386 0 1.38.294 2.775.992 4.062 1.783 3.27 5.55 4.96 10.123 4.96 3.364 0 7.038-.883 10.619-2.775 6.542-3.472 10.51-9.332 10.51-14.385 0-1.396-.295-2.775-.992-4.062M1593 78.216c-1.783-3.286-5.55-5.07-10.123-5.07-3.364 0-7.038.993-10.619 2.884-6.542 3.473-10.51 9.317-10.51 14.386 0 1.38.294 2.775.992 4.062 1.783 3.27 5.55 4.96 10.123 4.96 3.364 0 7.038-.883 10.619-2.775 6.542-3.472 10.51-9.332 10.51-14.386 0-1.395-.295-2.774-.992-4.061m93.06 37.204c-1.783-3.286-5.55-5.07-10.123-5.07-3.364 0-7.038.993-10.619 2.884-6.542 3.473-10.51 9.317-10.51 14.386 0 1.38.294 2.775.992 4.062 1.783 3.27 5.55 4.96 10.123 4.96 3.364 0 7.038-.883 10.619-2.775 6.542-3.472 10.51-9.332 10.51-14.386 0-1.395-.295-2.774-.992-4.061m93.07 0c-1.783-3.286-5.55-5.07-10.123-5.07-3.364 0-7.038.993-10.619 2.884-6.541 3.473-10.51 9.317-10.51 14.386 0 1.38.295 2.775.992 4.062 1.783 3.27 5.55 4.96 10.123 4.96 3.364 0 7.038-.883 10.619-2.775 6.542-3.472 10.51-9.332 10.51-14.386 0-1.395-.295-2.774-.992-4.061m93.07 12.402c-1.783-3.286-5.55-5.07-10.123-5.07-3.364 0-7.038.993-10.619 2.884-6.542 3.473-10.51 9.317-10.51 14.386 0 1.38.294 2.775.992 4.062 1.783 3.27 5.55 4.96 10.123 4.96 3.364 0 7.038-.883 10.619-2.775 6.542-3.472 10.51-9.332 10.51-14.386 0-1.395-.295-2.774-.992-4.061m186.13-12.402c-1.783-3.286-5.55-5.07-10.123-5.07-3.364 0-7.038.993-10.619 2.884-6.542 3.473-10.51 9.317-10.51 14.386 0 1.38.294 2.775.992 4.062 1.783 3.27 5.55 4.96 10.123 4.96 3.364 0 7.038-.883 10.619-2.775 6.542-3.472 10.51-9.332 10.51-14.386 0-1.395-.295-2.774-.992-4.061m165.83 0c-1.783-3.286-5.55-5.07-10.123-5.07-3.364 0-7.038.993-10.619 2.884-6.542 3.473-10.51 9.317-10.51 14.386 0 1.38.294 2.775.992 4.062 1.783 3.27 5.55 4.96 10.123 4.96 3.364 0 7.038-.883 10.619-2.775 6.542-3.472 10.51-9.332 10.51-14.386 0-1.395-.295-2.774-.992-4.061m98.69-12.401c-1.783-3.286-5.55-5.07-10.123-5.07-3.364 0-7.038.993-10.619 2.884-6.542 3.473-10.51 9.317-10.51 14.386 0 1.38.294 2.775.992 4.062 1.783 3.27 5.55 4.96 10.123 4.96 3.364 0 7.038-.883 10.619-2.775 6.542-3.472 10.51-9.332 10.51-14.385 0-1.396-.295-2.775-.992-4.062m98.69 24.803c-1.783-3.286-5.55-5.07-10.123-5.07-3.364 0-7.038.993-10.619 2.884-6.542 3.473-10.51 9.317-10.51 14.386 0 1.38.294 2.775.992 4.062 1.783 3.27 5.55 4.96 10.123 4.96 3.364 0 7.038-.883 10.619-2.775 6.542-3.472 10.51-9.332 10.51-14.386 0-1.395-.295-2.774-.992-4.061m197.37-24.803c-1.783-3.286-5.55-5.07-10.123-5.07-3.364 0-7.038.993-10.619 2.884-6.542 3.473-10.51 9.317-10.51 14.386 0 1.38.294 2.775.992 4.062 1.783 3.27 5.55 4.96 10.123 4.96 3.364 0 7.038-.883 10.619-2.775 6.542-3.472 10.51-9.332 10.51-14.385 0-1.396-.295-2.775-.992-4.062m98.69 37.205c-1.783-3.286-5.55-5.07-10.123-5.07-3.364 0-7.038.993-10.619 2.884-6.542 3.473-10.51 9.317-10.51 14.386 0 1.38.294 2.775.992 4.062 1.783 3.27 5.55 4.96 10.123 4.96 3.364 0 7.038-.883 10.619-2.775 6.542-3.472 10.51-9.332 10.51-14.385 0-1.396-.295-2.775-.992-4.062m296.06-24.804c-1.783-3.286-5.55-5.07-10.123-5.07-3.364 0-7.038.993-10.619 2.884-6.542 3.473-10.51 9.317-10.51 14.386 0 1.38.294 2.775.992 4.062 1.783 3.27 5.55 4.96 10.123 4.96 3.364 0 7.038-.883 10.619-2.775 6.542-3.472 10.51-9.332 10.51-14.386 0-1.395-.295-2.774-.992-4.061m197.37-12.401c-1.783-3.286-5.55-5.07-10.123-5.07-3.364 0-7.038.993-10.619 2.884-6.542 3.473-10.51 9.317-10.51 14.386 0 1.38.294 2.775.992 4.062 1.783 3.27 5.55 4.96 10.123 4.96 3.364 0 7.038-.883 10.619-2.775 6.542-3.472 10.51-9.332 10.51-14.385 0-1.396-.295-2.775-.992-4.062m98.69-12.402c-1.783-3.286-5.55-5.07-10.123-5.07-3.364 0-7.038.993-10.619 2.884-6.542 3.473-10.51 9.317-10.51 14.386 0 1.38.294 2.775.992 4.062 1.783 3.27 5.55 4.96 10.123 4.96 3.364 0 7.038-.883 10.619-2.775 6.542-3.472 10.51-9.332 10.51-14.386 0-1.395-.295-2.774-.992-4.061m98.68 37.205c-1.783-3.286-5.55-5.07-10.123-5.07-3.364 0-7.038.993-10.619 2.884-6.542 3.473-10.51 9.317-10.51 14.386 0 1.38.294 2.775.992 4.062 1.783 3.27 5.55 4.96 10.123 4.96 3.364 0 7.038-.883 10.619-2.775 6.542-3.472 10.51-9.332 10.51-14.386 0-1.395-.295-2.774-.992-4.061m98.69-49.606c-1.783-3.286-5.55-5.07-10.123-5.07-3.364 0-7.038.993-10.619 2.884-6.542 3.473-10.51 9.317-10.51 14.386 0 1.38.294 2.775.992 4.062 1.783 3.27 5.55 4.96 10.123 4.96 3.364 0 7.038-.883 10.619-2.775 6.542-3.472 10.51-9.332 10.51-14.386 0-1.395-.295-2.774-.992-4.061m98.69 24.803c-1.783-3.286-5.55-5.07-10.123-5.07-3.364 0-7.038.993-10.619 2.884-6.542 3.473-10.51 9.317-10.51 14.386 0 1.38.294 2.775.992 4.062 1.783 3.27 5.55 4.96 10.123 4.96 3.364 0 7.038-.883 10.619-2.775 6.542-3.472 10.51-9.332 10.51-14.385 0-1.396-.295-2.775-.992-4.062" style="stroke-width:.992126"/>
  <path class="Clef" d="M399.702 909.614c-7.55 0-13.595 4.356-13.703 4.356-5.752 4.263-8.03 9.332-8.93 12.805-.496 1.782-.682 3.565-.682 5.255 0 2.387.388 4.557 1.287 6.449 1.194 2.681 3.472 4.557 6.449 5.55 1.193.402 2.48.604 3.767.604a13.04 13.04 0 0 0 6.356-1.69c3.069-1.69 4.96-5.255 4.96-9.13 0-3.473-1.798-6.65-4.774-8.527-2.078-1.395-4.062-1.782-5.752-1.782-1.193 0-2.278.186-3.178.496-.992.387-2.666 1.38-3.472 2.077.31-1.891 1.488-4.76 2.589-6.356 1.085-1.581 3.27-3.565 4.96-4.464 2.48-1.38 5.659-1.985 9.131-1.985 10.123 0 15.084 8.139 15.084 24.803 0 9.24-3.473 18.06-6.45 23.92-3.286 6.542-7.642 12.805-11.517 16.277-10.325 9.425-20.044 13.89-20.137 13.89 0 0-1.489.883-1.101 2.372.31.992 1.194 1.193 1.798 1.193.093 0 .388-.093.496-.093.093 0 11.41-4.666 20.432-11.72 5.07-3.658 9.627-7.626 13.595-11.905a73.567 73.567 0 0 0 9.13-12.2c4.357-7.44 6.837-15.176 6.837-21.827 0-8.231-2.17-15.083-6.247-19.935-4.666-5.565-11.704-8.433-20.928-8.433m31.144 12.587c0 2.79 2.185 4.961 4.774 4.961 2.574 0 4.76-2.17 4.76-4.96 0-2.775-2.186-5.054-4.76-5.054-2.589 0-4.774 2.279-4.774 5.053m0 24.509c0 2.775 2.185 5.07 4.774 5.07 2.574 0 4.76-2.295 4.76-5.07 0-2.775-2.186-5.054-4.76-5.054-2.589 0-4.774 2.28-4.774 5.054m-31.144-223.116c-7.55 0-13.595 4.356-13.703 4.356-5.752 4.263-8.03 9.332-8.93 12.805-.496 1.782-.682 3.565-.682 5.255 0 2.387.388 4.557 1.287 6.449 1.194 2.681 3.472 4.557 6.449 5.55 1.193.402 2.48.604 3.767.604a13.04 13.04 0 0 0 6.356-1.69c3.069-1.69 4.96-5.255 4.96-9.13 0-3.473-1.798-6.65-4.774-8.527-2.078-1.395-4.062-1.782-5.752-1.782-1.193 0-2.278.186-3.178.496-.992.387-2.666 1.38-3.472 2.077.31-1.891 1.488-4.76 2.589-6.356 1.085-1.581 3.27-3.565 4.96-4.464 2.48-1.38 5.659-1.985 9.131-1.985 10.123 0 15.084 8.139 15.084 24.803 0 9.24-3.473 18.06-6.45 23.92-3.286 6.542-7.642 12.805-11.517 16.277-10.325 9.425-20.044 13.89-20.137 13.89 0 0-1.489.883-1.101 2.372.31.992 1.194 1.193 1.798 1.193.093 0 .388-.093.496-.093.093 0 11.41-4.666 20.432-11.72 5.07-3.658 9.627-7.626 13.595-11.905a73.567 73.567 0 0 0 9.13-12.2c4.357-7.44 6.837-15.176 6.837-21.827 0-8.231-2.17-15.083-6.247-19.935-4.666-5.565-11.704-8.433-20.928-8.433m31.144 12.587c0 2.79 2.185 4.961 4.774 4.961 2.574 0 4.76-2.17 4.76-4.96 0-2.775-2.186-5.054-4.76-5.054-2.589 0-4.774 2.279-4.774 5.053m0 24.509c0 2.775 2.185 5.07 4.774 5.07 2.574 0 4.76-2.295 4.76-5.07 0-2.775-2.186-5.054-4.76-5.054-2.589 0-4.774 2.28-4.774 5.054M382.93 540.732h-7.147c-.698 0-1.287.605-1.287 1.287v90.299c0 .697.59 1.286 1.287 1.286h7.146c.698 0 1.287-.589 1.287-1.286v-90.3c0-.681-.59-1.286-1.287-1.286m35.717 50.506h-1.489c-2.278 0-3.968.201-7.828 2.573 0 0-2.186-4.356-5.457-6.635 3.271-2.294 5.457-6.65 5.457-6.65 3.86 2.371 5.55 2.573 7.828 2.573h1.489c12.107 0 18.06-11.208 18.06-21.92 0-13.89-10.216-21.734-22.23-21.734-10.914 0-15.471 5.457-15.471 5.457-1.783 2.186-2.59 4.558-2.59 6.743 0 1.783.497 3.473 1.489 4.961 1.395 1.984 4.17 3.085 6.759 3.085 1.783 0 3.472-.496 4.666-1.488 1.674-1.488 2.775-3.674 2.775-6.062 0-1.38-.403-2.774-1.1-4.061-1.582-2.883-4.558-3.27-6.14-3.27-.604 0-1.1.092-1.1.092 2.279-1.581 5.363-2.48 8.433-2.48 2.775 0 5.456.697 7.348 2.077 3.472 2.589 4.759 8.046 4.759 15.192 0 7.642-.202 18.742-8.93 18.742-8.727 0-10.711-10.417-10.711-10.417s0-1.38-1.395-1.38c-1.38 0-1.489 1.38-1.489 1.38s-.79 5.069-3.472 11.223c-1.581 3.658-3.968 5.348-5.658 6.046v-43.266c0-.682-.496-1.287-1.194-1.287-.682 0-1.286.605-1.286 1.287v90.299c0 .697.604 1.286 1.286 1.286.698 0 1.194-.589 1.194-1.286v-43.266c1.69.697 4.077 2.387 5.658 6.061 2.682 6.139 3.472 11.301 3.472 11.301s.109 1.287 1.489 1.287c1.395 0 1.395-1.287 1.395-1.287s1.984-10.51 10.712-10.51c8.727 0 8.929 11.115 8.929 18.757 0 7.131-1.287 12.588-4.76 15.177-1.89 1.38-4.572 2.077-7.347 2.077-3.07 0-6.154-.884-8.433-2.48 0 0 .496.108 1.1.108 1.582 0 4.558-.403 6.14-3.286.697-1.287 1.1-2.667 1.1-4.062 0-2.387-1.1-4.558-2.775-6.046-1.194-.992-2.883-1.488-4.666-1.488-2.589 0-5.364 1.085-6.759 3.07a8.833 8.833 0 0 0-1.488 4.96c0 2.186.806 4.558 2.589 6.743 0 0 4.557 5.457 15.47 5.457 12.015 0 22.23-7.828 22.23-21.718 0-10.728-5.952-21.935-18.06-21.935m18.712-195.868c-1.225-5.378-3.845-9.176-4.62-10.2-3.163-4.247-7.147-7.068-11.797-8.417-3.085-.868-6.061-.992-8.464-.806a2314.654 2314.654 0 0 1-2.93-17.207c5.41-6.124 9.007-11.875 11.27-16.138 3.441-6.526 4.573-11.068 4.635-11.27 1.705-5.178 2.062-12.82.961-20.959-.992-7.487-3.07-14.152-5.41-17.377-1.008-1.41-2.062-2.14-3.085-2.14-1.21 0-3.705 1.225-6.573 3.984-2.279 2.17-5.519 6.03-8.06 11.999-2.977 7.007-3.194 16.417-2.838 23.082.372 7.224 1.473 12.867 1.489 12.914.015.093.279 1.58.713 4.123-.217.233-.465.45-.713.698-1.024.992-2.202 2.108-3.581 3.488-.853.852-1.799 1.751-2.79 2.713-8.372 8.076-21.068 20.307-21.068 39.312 0 4.667.9 9.054 2.666 13.038 1.566 3.565 3.845 6.82 6.76 9.673 7.673 7.503 18.183 10.68 25.174 10.526 2.93-.078 5.55-.31 7.922-.76 1.814 9.534 2.945 16.51 2.976 21.811.047 6.465-1.596 10.418-5.456 13.162-2.419 1.72-5.209 2.666-8.278 2.805-2.574.124-4.822-.34-6.232-.744h-.016s-.279-.093-.294-.279c-.016-.186.34-.232.34-.232h.032c1.907-.434 5.441-1.659 7.782-4.93 1.782-2.511 2.65-7.1.821-11.006-1.1-2.372-3.58-5.302-9.161-5.751-2.48-.202-4.728.31-6.713 1.503-1.798 1.07-3.286 2.698-4.325 4.682-2.433 4.666-1.984 10.355 1.116 14.169 2.946 3.596 7.519 5.89 12.914 6.464.852.093 1.69.124 2.526.124 4.403 0 8.759-1.194 12.309-3.38 3.627-2.557 5.736-6.51 6.402-12.091.558-4.604.17-10.48-1.209-18.494-.356-2.077-.899-5.085-1.55-8.805 5.705-1.907 9.828-5.457 13.564-11.27 3.271-5.69 4.201-11.75 2.79-18.013m-33.949 26.012c-4.604-1.21-9.006-3.69-12.727-7.177-1.302-1.21-3.162-3.364-4.62-6.728-1.348-3.147-2.015-6.558-1.953-10.107.062-4.667 1.364-9.457 3.845-14.2 2.899-5.535 7.425-11.022 13.44-16.308a89.216 89.216 0 0 0 4.077-3.814c.76 4.232 1.581 8.883 2.45 13.72-3.814 1.255-8.527 4.386-11.612 9.998-3.519 6.511-3.38 11.999-2.65 15.456.93 4.418 3.44 8.154 6.867 10.23.93.559 5.022 2.667 6.852 2.094a1.16 1.16 0 0 0 .775-.667c.511-1.163-.512-1.798-2.046-2.744a27.278 27.278 0 0 1-1.985-1.317c-3.302-2.465-4.743-6.883-3.674-11.24a12.438 12.438 0 0 1 3.674-6.216c1.643-1.534 3.674-2.62 6.03-3.255 2.031 11.161 4.078 22.23 5.705 30.523.124.682.264 1.349.388 2.016-4.34.93-8.65.837-12.836-.264m11.24-32.942c10.261-.465 14.493 6.914 15.377 11.704.465 2.527.465 6.93-1.07 11.115-1.162 3.147-3.596 7.193-8.696 9.24-.062-.42-.14-.853-.217-1.272-1.535-8.712-3.457-19.625-5.395-30.787m-7.27-70.394c1.767-5.69 4.48-8.914 6.464-10.634 1.736-1.504 3.364-2.217 4.279-2.217.14 0 .263.03.356.062.465.14.992.697 1.457 1.565 2.295 4.248 1.55 10.914.217 15.316-1.612 5.364-4.51 10.93-13.238 20.463-.17-1.1-.326-2.14-.48-3.116-1.241-8.216-.916-15.44.945-21.44m29.981-126.061c-1.225-5.38-3.845-9.177-4.62-10.2-3.163-4.248-7.147-7.07-11.797-8.418-3.085-.868-6.061-.992-8.464-.806a2314.654 2314.654 0 0 1-2.93-17.207c5.41-6.124 9.007-11.875 11.27-16.138 3.441-6.526 4.573-11.068 4.635-11.27 1.705-5.178 2.062-12.82.961-20.959-.992-7.487-3.07-14.152-5.41-17.377-1.008-1.41-2.062-2.14-3.085-2.14-1.21 0-3.705 1.225-6.573 3.984-2.279 2.17-5.519 6.03-8.06 11.999-2.977 7.007-3.194 16.417-2.838 23.082.372 7.224 1.473 12.867 1.489 12.914.015.093.279 1.58.713 4.123-.217.233-.465.45-.713.698-1.024.992-2.202 2.108-3.581 3.488-.853.852-1.799 1.751-2.79 2.713-8.372 8.076-21.068 20.307-21.068 39.312 0 4.667.9 9.054 2.666 13.038 1.566 3.565 3.845 6.82 6.76 9.673 7.673 7.503 18.183 10.68 25.174 10.526 2.93-.078 5.55-.31 7.922-.76 1.814 9.534 2.945 16.51 2.976 21.811.047 6.465-1.596 10.418-5.456 13.162-2.419 1.72-5.209 2.666-8.278 2.805-2.574.124-4.822-.34-6.232-.744h-.016s-.279-.093-.294-.279c-.016-.186.34-.232.34-.232h.032c1.907-.434 5.441-1.659 7.782-4.93 1.782-2.511 2.65-7.1.821-11.006-1.1-2.372-3.58-5.302-9.161-5.751-2.48-.202-4.728.31-6.713 1.503-1.798 1.07-3.286 2.698-4.325 4.682-2.433 4.666-1.984 10.355 1.116 14.169 2.946 3.596 7.519 5.89 12.914 6.464.852.093 1.69.124 2.526.124 4.403 0 8.759-1.194 12.309-3.38 3.627-2.557 5.736-6.51 6.402-12.091.558-4.604.17-10.48-1.209-18.494-.356-2.077-.899-5.085-1.55-8.805 5.705-1.907 9.828-5.457 13.564-11.27 3.271-5.69 4.201-11.75 2.79-18.013m-33.949 26.012c-4.604-1.21-9.006-3.69-12.727-7.177-1.302-1.21-3.162-3.364-4.62-6.728-1.348-3.147-2.015-6.558-1.953-10.107.062-4.667 1.364-9.457 3.845-14.2 2.899-5.535 7.425-11.022 13.44-16.308a89.216 89.216 0 0 0 4.077-3.814c.76 4.232 1.581 8.883 2.45 13.72-3.814 1.255-8.527 4.386-11.612 9.998-3.519 6.511-3.38 11.999-2.65 15.456.93 4.418 3.44 8.154 6.867 10.231.93.558 5.022 2.666 6.852 2.093a1.16 1.16 0 0 0 .775-.667c.511-1.163-.512-1.798-2.046-2.744a27.278 27.278 0 0 1-1.985-1.317c-3.302-2.465-4.743-6.883-3.674-11.24a12.438 12.438 0 0 1 3.674-6.216c1.643-1.534 3.674-2.62 6.03-3.255 2.031 11.161 4.078 22.23 5.705 30.523.124.682.264 1.349.388 2.016-4.34.93-8.65.837-12.836-.264m11.24-32.942c10.261-.465 14.493 6.914 15.377 11.704.465 2.527.465 6.93-1.07 11.115-1.162 3.147-3.596 7.193-8.696 9.24-.062-.42-.14-.853-.217-1.272-1.535-8.712-3.457-19.625-5.395-30.787m-7.27-70.394c1.767-5.69 4.48-8.914 6.464-10.634 1.736-1.504 3.364-2.217 4.279-2.217.14 0 .263.03.356.062.465.14.992.697 1.457 1.565 2.295 4.248 1.55 10.914.217 15.316-1.612 5.364-4.51 10.93-13.238 20.463-.17-1.1-.326-2.14-.48-3.116-1.241-8.216-.916-15.44.945-21.44" style="stroke-width:.992126"/>
  <path class="KeySig" d="M513.091 961.21c.605-.109 1.101-.806 1.101-1.396v-5.86c0-.79-.604-1.379-1.395-1.379h-.202l-3.27.698v-14.79h-2.775v15.379l-8.837 1.782v-13.982h-2.774v14.587l-3.876.79c-.589.094-1.085.791-1.085 1.38v5.953-.186c0 .79.59 1.38 1.395 1.38h.295l3.27-.698v16.37l-3.875.806c-.589.093-1.085.79-1.085 1.38v5.751c0 .806.59 1.395 1.395 1.395h.295l3.27-.697v14.789h2.775v-15.378l8.837-1.783v13.983h2.774v-14.588l3.767-.697c.605-.093 1.101-.79 1.101-1.38v-5.86c0-.79-.604-1.38-1.395-1.38h-.202l-3.27.683v-16.37l3.766-.682m-15.378 19.532V964.28l8.837-1.783v16.37l-8.837 1.876M488.288 924c.605-.109 1.101-.806 1.101-1.396v-5.86c0-.79-.604-1.379-1.395-1.379h-.202l-3.27.698v-14.79h-2.775v15.379l-8.837 1.782v-13.982h-2.774v14.587l-3.876.79c-.589.094-1.085.791-1.085 1.38v5.953-.186c0 .79.59 1.38 1.395 1.38h.295l3.27-.698v16.37l-3.875.806c-.589.093-1.085.79-1.085 1.38v5.751c0 .806.59 1.395 1.395 1.395h.295l3.27-.697v14.789h2.775v-15.378l8.837-1.783v13.983h2.774v-14.588l3.767-.697c.605-.093 1.101-.79 1.101-1.38v-5.86c0-.79-.604-1.38-1.395-1.38h-.202l-3.27.683v-16.37l3.766-.682m-15.378 19.532V927.07l8.837-1.783v16.37l-8.837 1.876m40.181-168.353c.605-.109 1.101-.806 1.101-1.396v-5.86c0-.79-.604-1.379-1.395-1.379h-.202l-3.27.698v-14.79h-2.775v15.379l-8.837 1.782v-13.982h-2.774v14.587l-3.876.79c-.589.094-1.085.791-1.085 1.38v5.953-.186c0 .79.59 1.38 1.395 1.38h.295l3.27-.698v16.37l-3.875.806c-.589.093-1.085.79-1.085 1.38v5.751c0 .806.59 1.395 1.395 1.395h.295l3.27-.697v14.789h2.775v-15.378l8.837-1.783v13.983h2.774v-14.588l3.767-.697c.605-.093 1.101-.79 1.101-1.38v-5.86c0-.79-.604-1.38-1.395-1.38h-.202l-3.27.683v-16.37l3.766-.682m-15.378 19.532V778.25l8.837-1.783v16.37l-8.837 1.876m-9.425-56.733c.605-.109 1.101-.806 1.101-1.396v-5.86c0-.79-.604-1.379-1.395-1.379h-.202l-3.27.698v-14.79h-2.775v15.379l-8.837 1.782v-13.982h-2.774v14.587l-3.876.79c-.589.094-1.085.791-1.085 1.38v5.953-.186c0 .79.59 1.38 1.395 1.38h.295l3.27-.698v16.37l-3.875.806c-.589.093-1.085.79-1.085 1.38v5.751c0 .806.59 1.395 1.395 1.395h.295l3.27-.697v14.789h2.775v-15.378l8.837-1.783v13.983h2.774v-14.588l3.767-.697c.605-.093 1.101-.79 1.101-1.38v-5.86c0-.79-.604-1.38-1.395-1.38h-.202l-3.27.683v-16.37l3.766-.682m-15.378 19.532V741.05l8.837-1.783v16.37l-8.837 1.876m40.181-180.754c.605-.109 1.101-.806 1.101-1.396v-5.86c0-.79-.604-1.379-1.395-1.379h-.202l-3.27.698v-14.79h-2.775v15.379l-8.837 1.782v-13.982h-2.774v14.587l-3.876.79c-.589.094-1.085.791-1.085 1.38v5.953-.186c0 .79.59 1.38 1.395 1.38h.295l3.27-.698v16.37l-3.875.806c-.589.093-1.085.79-1.085 1.38v5.751c0 .806.59 1.395 1.395 1.395h.295l3.27-.697v14.789h2.775v-15.378l8.837-1.783v13.983h2.774v-14.588l3.767-.697c.605-.093 1.101-.79 1.101-1.38v-5.86c0-.79-.604-1.38-1.395-1.38h-.202l-3.27.683v-16.37l3.766-.682m-15.378 19.532v-16.463l8.837-1.783v16.37l-8.837 1.876m-9.425-56.736c.605-.109 1.101-.806 1.101-1.396v-5.86c0-.79-.604-1.379-1.395-1.379h-.202l-3.27.698v-14.79h-2.775v15.379l-8.837 1.782v-13.982h-2.774v14.587l-3.876.79c-.589.094-1.085.791-1.085 1.38v5.953-.186c0 .79.59 1.38 1.395 1.38h.295l3.27-.698v16.37l-3.875.806c-.589.093-1.085.79-1.085 1.38v5.751c0 .806.59 1.395 1.395 1.395h.295l3.27-.697v14.789h2.775v-15.378l8.837-1.783v13.983h2.774V565.24l3.767-.697c.605-.093 1.101-.79 1.101-1.38v-5.86c0-.79-.604-1.38-1.395-1.38h-.202l-3.27.683v-16.37l3.766-.682m-15.378 19.532v-16.463l8.837-1.783v16.37l-8.837 1.876m40.181-205.556c.605-.108 1.101-.805 1.101-1.395v-5.86c0-.79-.604-1.379-1.395-1.379h-.202l-3.27.698v-14.79h-2.775v15.379l-8.837 1.782v-13.982h-2.774v14.587l-3.876.79c-.589.094-1.085.791-1.085 1.38v5.953-.186c0 .79.59 1.38 1.395 1.38h.295l3.27-.698v16.37l-3.875.806c-.589.093-1.085.79-1.085 1.38v5.751c0 .806.59 1.395 1.395 1.395h.295l3.27-.697v14.789h2.775v-15.378l8.837-1.783v13.983h2.774v-14.588l3.767-.697c.605-.093 1.101-.79 1.101-1.38v-5.86c0-.79-.604-1.38-1.395-1.38h-.202l-3.27.683v-16.37l3.766-.682m-15.378 19.532V356.6l8.837-1.783v16.37l-8.837 1.876m-9.425-56.737c.605-.109 1.101-.806 1.101-1.396v-5.86c0-.79-.604-1.379-1.395-1.379h-.202l-3.27.698v-14.79h-2.775v15.379l-8.837 1.782v-13.982h-2.774v14.587l-3.876.79c-.589.094-1.085.791-1.085 1.38v5.953-.186c0 .79.59 1.38 1.395 1.38h.295l3.27-.698v16.37l-3.875.806c-.589.093-1.085.79-1.085 1.38v5.751c0 .806.59 1.395 1.395 1.395h.295l3.27-.697v14.789h2.775V344.4l8.837-1.783V356.6h2.774v-14.588l3.767-.697c.605-.093 1.101-.79 1.101-1.38v-5.86c0-.79-.604-1.38-1.395-1.38h-.202l-3.27.683v-16.37l3.766-.682m-15.378 19.532v-16.463l8.837-1.783v16.37l-8.837 1.876m40.181-185.713c.605-.109 1.101-.806 1.101-1.396v-5.86c0-.79-.604-1.379-1.395-1.379h-.202l-3.27.698v-14.79h-2.775v15.379l-8.837 1.782v-13.982h-2.774v14.587l-3.876.79c-.589.094-1.085.791-1.085 1.38v5.953-.186c0 .79.59 1.38 1.395 1.38h.295l3.27-.698v16.37l-3.875.806c-.589.093-1.085.79-1.085 1.38v5.751c0 .806.59 1.395 1.395 1.395h.295l3.27-.697v14.789h2.775v-15.378l8.837-1.783v13.983h2.774V175.83l3.767-.697c.605-.093 1.101-.79 1.101-1.38v-5.86c0-.79-.604-1.38-1.395-1.38h-.202l-3.27.683v-16.37l3.766-.682m-15.378 19.532v-16.463l8.837-1.783v16.37l-8.837 1.876m-9.425-56.736c.605-.109 1.101-.806 1.101-1.396v-5.86c0-.79-.604-1.379-1.395-1.379h-.202l-3.27.698v-14.79h-2.775v15.379l-8.837 1.782V93.392h-2.774v14.587l-3.876.79c-.589.094-1.085.791-1.085 1.38v5.953-.186c0 .79.59 1.38 1.395 1.38h.295l3.27-.698v16.37l-3.875.806c-.589.093-1.085.79-1.085 1.38v5.751c0 .806.59 1.395 1.395 1.395h.295l3.27-.697v14.789h2.775v-15.378l8.837-1.783v13.983h2.774v-14.588l3.767-.697c.605-.093 1.101-.79 1.101-1.38v-5.86c0-.79-.604-1.38-1.395-1.38h-.202l-3.27.683v-16.37l3.766-.682m-15.378 19.532V116.01l8.837-1.783v16.37l-8.837 1.876" style="stroke-width:.992126"/>
  <path class="TimeSig" d="M541.19 947.176h17.036v7.394h-8.154c-.775 0-1.41.62-1.41 1.395v1.891c0 .776.635 1.396 1.41 1.396h30.012a1.39 1.39 0 0 0 1.395-1.396v-1.89a1.39 1.39 0 0 0-1.395-1.396h-8.867v-7.394h8.867a1.39 1.39 0 0 0 1.395-1.396v-1.89a1.39 1.39 0 0 0-1.395-1.396h-8.867v-15.843c0-.527-.31-1.008-.775-1.24l-1.21-.605a1.446 1.446 0 0 0-1.58.233l-8.976 8.247a1.45 1.45 0 0 0-.45 1.038v8.17h-11.425s11.038-11.937 22.788-27.578c.853-1.147.357-2.186.17-2.372l-2.154-2.186a1.41 1.41 0 0 0-.992-.418c-.59 0-14.045.03-14.758 0-.713-.016-1.24.604-1.318 1.209 0 0-.527 7.301-3.116 15.378-2.573 8.045-5.487 12.99-8.123 16.587 0 0-.542.977-.186 1.72.341.745.977 1.815.977 1.815s.248.527 1.1.527m.001 49.34h17.036v7.394h-8.154c-.775 0-1.41.62-1.41 1.395v1.891c0 .776.635 1.396 1.41 1.396h30.012a1.39 1.39 0 0 0 1.395-1.396v-1.89a1.39 1.39 0 0 0-1.395-1.396h-8.867v-7.394h8.867a1.39 1.39 0 0 0 1.395-1.396v-1.89a1.39 1.39 0 0 0-1.395-1.396h-8.867v-15.843c0-.527-.31-1.008-.775-1.24l-1.21-.605a1.446 1.446 0 0 0-1.58.233l-8.976 8.247a1.45 1.45 0 0 0-.45 1.038v8.17h-11.425s11.038-11.937 22.788-27.578c.853-1.147.357-2.186.17-2.372l-2.154-2.186a1.41 1.41 0 0 0-.992-.418c-.59 0-14.045.03-14.758 0-.713-.016-1.24.604-1.318 1.209 0 0-.527 7.301-3.116 15.378-2.573 8.045-5.487 12.99-8.123 16.587 0 0-.542.977-.186 1.72.341.745.977 1.815.977 1.815s.248.527 1.1.527m.001-235.37h17.036v7.394h-8.154c-.775 0-1.41.62-1.41 1.395v1.891c0 .776.635 1.396 1.41 1.396h30.012a1.39 1.39 0 0 0 1.395-1.396v-1.89a1.39 1.39 0 0 0-1.395-1.396h-8.867v-7.394h8.867a1.39 1.39 0 0 0 1.395-1.396v-1.89a1.39 1.39 0 0 0-1.395-1.396h-8.867v-15.843c0-.527-.31-1.008-.775-1.24l-1.21-.605a1.446 1.446 0 0 0-1.58.233l-8.976 8.247a1.45 1.45 0 0 0-.45 1.038v8.17h-11.425s11.038-11.937 22.788-27.578c.853-1.147.357-2.186.17-2.372l-2.154-2.186a1.41 1.41 0 0 0-.992-.418c-.59 0-14.045.03-14.758 0-.713-.016-1.24.604-1.318 1.209 0 0-.527 7.301-3.116 15.378-2.573 8.045-5.487 12.99-8.123 16.587 0 0-.542.977-.186 1.72.341.745.977 1.815.977 1.815s.248.527 1.1.527m.001 49.34h17.036v7.394h-8.154c-.775 0-1.41.62-1.41 1.395v1.891c0 .776.635 1.396 1.41 1.396h30.012a1.39 1.39 0 0 0 1.395-1.396v-1.89a1.39 1.39 0 0 0-1.395-1.396h-8.867v-7.394h8.867a1.39 1.39 0 0 0 1.395-1.396v-1.89a1.39 1.39 0 0 0-1.395-1.396h-8.867v-15.843c0-.527-.31-1.008-.775-1.24l-1.21-.605a1.446 1.446 0 0 0-1.58.233l-8.976 8.247a1.45 1.45 0 0 0-.45 1.038v8.17h-11.425s11.038-11.937 22.788-27.578c.853-1.147.357-2.186.17-2.372l-2.154-2.186a1.41 1.41 0 0 0-.992-.418c-.59 0-14.045.03-14.758 0-.713-.016-1.24.604-1.318 1.209 0 0-.527 7.301-3.116 15.378-2.573 8.045-5.487 12.99-8.123 16.587 0 0-.542.977-.186 1.72.341.745.977 1.815.977 1.815s.248.527 1.1.527m.001-235.362h17.036v7.394h-8.154c-.775 0-1.41.62-1.41 1.395v1.891c0 .776.635 1.396 1.41 1.396h30.012a1.39 1.39 0 0 0 1.395-1.396v-1.89a1.39 1.39 0 0 0-1.395-1.396h-8.867v-7.394h8.867a1.39 1.39 0 0 0 1.395-1.396v-1.89a1.39 1.39 0 0 0-1.395-1.396h-8.867v-15.843c0-.527-.31-1.008-.775-1.24l-1.21-.605a1.446 1.446 0 0 0-1.58.233l-8.976 8.247a1.45 1.45 0 0 0-.45 1.038v8.17h-11.425s11.038-11.937 22.788-27.578c.853-1.147.357-2.186.17-2.372l-2.154-2.186a1.41 1.41 0 0 0-.992-.418c-.59 0-14.045.03-14.758 0-.713-.016-1.24.604-1.318 1.209 0 0-.527 7.301-3.116 15.378-2.573 8.045-5.487 12.99-8.123 16.587 0 0-.542.977-.186 1.72.341.745.977 1.815.977 1.815s.248.527 1.1.527m.001 49.343h17.036v7.394h-8.154c-.775 0-1.41.62-1.41 1.395v1.891c0 .776.635 1.396 1.41 1.396h30.012a1.39 1.39 0 0 0 1.395-1.396v-1.89a1.39 1.39 0 0 0-1.395-1.396h-8.867v-7.394h8.867a1.39 1.39 0 0 0 1.395-1.396v-1.89a1.39 1.39 0 0 0-1.395-1.396h-8.867v-15.843c0-.527-.31-1.008-.775-1.24l-1.21-.605a1.446 1.446 0 0 0-1.58.233l-8.976 8.247a1.45 1.45 0 0 0-.45 1.038v8.17h-11.425s11.038-11.937 22.788-27.578c.853-1.147.357-2.186.17-2.372l-2.154-2.186a1.41 1.41 0 0 0-.992-.418c-.59 0-14.045.03-14.758 0-.713-.016-1.24.604-1.318 1.209 0 0-.527 7.301-3.116 15.378-2.573 8.045-5.487 12.99-8.123 16.587 0 0-.542.977-.186 1.72.341.745.977 1.815.977 1.815s.248.527 1.1.527m.001-260.17h17.036v7.394h-8.154c-.775 0-1.41.62-1.41 1.395v1.891c0 .776.635 1.396 1.41 1.396h30.012a1.39 1.39 0 0 0 1.395-1.396v-1.89a1.39 1.39 0 0 0-1.395-1.396h-8.867v-7.394h8.867a1.39 1.39 0 0 0 1.395-1.396v-1.89a1.39 1.39 0 0 0-1.395-1.396h-8.867v-15.843c0-.527-.31-1.008-.775-1.24l-1.21-.605a1.446 1.446 0 0 0-1.58.233l-8.976 8.247a1.45 1.45 0 0 0-.45 1.038v8.17h-11.425s11.038-11.937 22.788-27.578c.853-1.147.357-2.186.17-2.372l-2.154-2.186a1.41 1.41 0 0 0-.992-.418c-.59 0-14.045.03-14.758 0-.713-.016-1.24.604-1.318 1.209 0 0-.527 7.301-3.116 15.378-2.573 8.045-5.487 12.99-8.123 16.587 0 0-.542.977-.186 1.72.341.745.977 1.815.977 1.815s.248.527 1.1.527m.001 49.343h17.036v7.394h-8.154c-.775 0-1.41.62-1.41 1.395v1.891c0 .776.635 1.396 1.41 1.396h30.012a1.39 1.39 0 0 0 1.395-1.396v-1.89a1.39 1.39 0 0 0-1.395-1.396h-8.867v-7.394h8.867a1.39 1.39 0 0 0 1.395-1.396v-1.89a1.39 1.39 0 0 0-1.395-1.396h-8.867v-15.843c0-.527-.31-1.008-.775-1.24l-1.21-.605a1.446 1.446 0 0 0-1.58.233l-8.976 8.247a1.45 1.45 0 0 0-.45 1.038v8.17h-11.425s11.038-11.937 22.788-27.578c.853-1.147.357-2.186.17-2.372l-2.154-2.186a1.41 1.41 0 0 0-.992-.418c-.59 0-14.045.03-14.758 0-.713-.016-1.24.604-1.318 1.209 0 0-.527 7.301-3.116 15.378-2.573 8.045-5.487 12.99-8.123 16.587 0 0-.542.977-.186 1.72.341.745.977 1.815.977 1.815s.248.527 1.1.527m.001-252.73h17.036v7.395h-8.154c-.775 0-1.41.62-1.41 1.395v1.891c0 .776.635 1.396 1.41 1.396h30.012a1.39 1.39 0 0 0 1.395-1.396v-1.89a1.39 1.39 0 0 0-1.395-1.396h-8.867v-7.394h8.867a1.39 1.39 0 0 0 1.395-1.396v-1.89a1.39 1.39 0 0 0-1.395-1.396h-8.867v-15.843c0-.527-.31-1.008-.775-1.24l-1.21-.605a1.446 1.446 0 0 0-1.58.233l-8.976 8.247a1.45 1.45 0 0 0-.45 1.038v8.17h-11.425s11.038-11.937 22.788-27.578c.853-1.147.357-2.186.17-2.372l-2.154-2.186a1.41 1.41 0 0 0-.992-.418c-.59 0-14.045.03-14.758 0-.713-.016-1.24.604-1.318 1.209 0 0-.527 7.301-3.116 15.378-2.573 8.045-5.487 12.99-8.123 16.587 0 0-.542.977-.186 1.72.341.745.977 1.815.977 1.815s.248.527 1.1.527m.001 49.343h17.036v7.394h-8.154c-.775 0-1.41.62-1.41 1.395v1.891c0 .776.635 1.396 1.41 1.396h30.012a1.39 1.39 0 0 0 1.395-1.396v-1.89a1.39 1.39 0 0 0-1.395-1.396h-8.867v-7.394h8.867a1.39 1.39 0 0 0 1.395-1.396v-1.89a1.39 1.39 0 0 0-1.395-1.396h-8.867v-15.843c0-.527-.31-1.008-.775-1.24l-1.21-.605a1.446 1.446 0 0 0-1.58.233l-8.976 8.247a1.45 1.45 0 0 0-.45 1.038v8.17h-11.425s11.038-11.937 22.788-27.578c.853-1.147.357-2.186.17-2.372l-2.154-2.186a1.41 1.41 0 0 0-.992-.418c-.59 0-14.045.03-14.758 0-.713-.016-1.24.604-1.318 1.209 0 0-.527 7.301-3.116 15.378-2.573 8.045-5.487 12.99-8.123 16.587 0 0-.542.977-.186 1.72.341.745.977 1.815.977 1.815s.248.527 1.1.527" style="stroke-width:.992126"/>
  <path class="Beam" fill-rule="evenodd" d="M631.077 1027.53h188.861v12.4H631.077v-12.4m401.771-148.66 281.93-18.78v12.43l-281.93 18.78v-12.43m0 18.61 281.93-18.79v12.43l-281.93 18.79v-12.43m342.76 130.05h188.86v12.4h-188.86v-12.4m372.27-.03 281.93-25.04v12.45l-281.93 25.04v-12.45m186.13-35.14 95.8-8.51v12.45l-95.8 8.51v-12.45m288.41-138.52 298.79 6.26v12.41l-298.79-6.26v-12.41m0 18.61 298.79 6.26v12.4l-298.79-6.26v-12.4m365.24 148.86 298.79-18.77v12.42l-298.79 18.78v-12.43m0-18.6 298.79-18.77v12.42l-298.79 18.78v-12.43m394.75-24.79h200.1v12.4h-200.1v-12.4m394.74 93.01h298.79v12.4h-298.79v-12.4m197.38-18.6h101.41v12.4h-101.41v-12.4M631.077 816.7h188.861v12.4H631.077v-12.4m372.271-24.83 281.92 25.05v12.45l-281.92-25.05v-12.45m0-18.6 281.92 25.04v12.45l-281.92-25.04v-12.45m372.26 37.23h188.86v12.4h-188.86v-12.4m372.27 24.78 281.93-25.05v12.45l-281.93 25.05v-12.45m0-18.61 281.93-25.04v12.45l-281.93 25.04v-12.45m445.03-6.17h200.1v12.4h-200.1v-12.4m394.75 0 298.79 6.25v12.41l-298.79-6.26v-12.4m0-18.61 298.79 6.26v12.41l-298.79-6.26v-12.41m394.75 43.4 298.79-18.78v12.43l-298.79 18.77v-12.42m0-18.6 298.79-18.78v12.43l-298.79 18.77v-12.42m394.74 18.61h298.79v12.4h-298.79v-12.4m0-18.6h298.79v12.4h-298.79v-12.4M660.585 512.919l281.933-6.261v12.404l-281.933 6.262v-12.405m0 18.602 281.933-6.261v12.405l-281.933 6.261v-12.405m372.263-.059h188.87v12.402h-188.87v-12.402m372.27-24.803h281.93v12.402h-281.93v-12.402m186.13 18.602h95.8v12.402h-95.8v-12.402m186.14-37.204h281.93v12.401h-281.93v-12.401m0 18.602h281.93v12.402h-281.93v-12.402m415.52 142.606 298.79-18.774v12.426l-298.79 18.774v-12.426m0-18.602 298.79-18.774v12.426l-298.79 18.774v-12.426m394.75 24.815h298.79v12.402h-298.79v-12.402m0-18.602h298.79v12.401h-298.79v-12.401m424.26-123.96 298.78-6.258v12.404l-298.78 6.258v-12.404m197.37 14.468 101.41-2.124v12.404l-101.41 2.125v-12.405m197.37-14.708 298.79 18.774v12.426l-298.79-18.774v-12.426m0 18.603 298.79 18.773v12.426l-298.79-18.773v-12.426M631.077 444.638l281.931 18.784v12.429l-281.931-18.784v-12.429m186.131-6.201 95.8 6.382v12.429l-95.8-6.382v-12.429m186.14-.011 281.92 25.046v12.45l-281.92-25.046v-12.45m0-18.602 281.92 25.045v12.451l-281.92-25.046v-12.45m372.26 43.428 281.93 6.261v12.405l-281.93-6.261v-12.405m0-18.602 281.93 6.261v12.405l-281.93-6.262V444.65m372.27 18.604h281.93v12.401h-281.93v-12.401m0-18.603h281.93v12.402h-281.93v-12.402m445.03-24.803h298.79v12.402h-298.79v-12.402m197.38-18.602h101.41v12.401h-101.41v-12.401m197.37 18.602h298.79v12.402h-298.79v-12.402m0-18.602h298.79v12.401h-298.79v-12.401m394.75 62.008h298.79v12.401h-298.79v-12.401m0-18.603h298.79v12.402h-298.79v-12.402m394.74-24.825 298.79 25.032v12.445l-298.79-25.032v-12.445m0-18.602 298.79 25.032v12.445l-298.79-25.032v-12.445M631.077 191.645l95.795-6.382v12.429l-95.795 6.382v-12.429m0-18.602 32.244-2.148v12.429l-32.244 2.148v-12.429m372.271 37.218h281.92v12.402h-281.92v-12.402m186.13-18.602h95.79v12.402h-95.79v-12.402m186.13-6.202 281.93 6.261v12.405l-281.93-6.262v-12.404m186.14-14.469 95.79 2.128v12.404l-95.79-2.127v-12.405m186.13 39.273h281.93v12.402h-281.93v-12.402m0-18.602h32.24v12.402h-32.24v-12.402m281.93 0h-32.25v12.402h32.25v-12.402m163.1 18.599 200.1 6.287v12.408l-200.1-6.287v-12.408m0-18.602 101.42 3.186v12.408l-101.42-3.186v-12.408m394.75-.19 101.41 25.489v12.787l-101.41-25.488v-12.788m0-18.602 32.24 8.104v12.787l-32.24-8.104v-12.787m394.75 37.376 298.79-25.032v12.445l-298.79 25.032V210.24m197.37-35.138 101.42-8.496v12.445l-101.42 8.496v-12.445m197.37 35.132 200.11-18.859v12.456l-200.11 18.86v-12.457m0-18.602 101.42-9.559v12.457l-101.42 9.558v-12.456"/>
  <path class="Tempo" d="M564.108 16h-3.297v44.969c-1.141-.672-2.516-1.094-4.094-1.265a12.64 12.64 0 0 0-1.343-.063c-2.719 0-5.657.781-8.391 2.266-3.188 1.718-5.75 4.187-7.172 6.922-1.453 2.765-1.594 5.468-.422 7.64 1.375 2.578 4.391 3.906 7.938 3.906 2.64 0 5.593-.734 8.406-2.25 5.141-2.781 8.359-7.375 8.375-11.375V16m22.266 52.329h30.234v-6.907h-30.234v6.907m0-12.36h30.234v-6.906h-30.234v6.906m83.281-24.609c-4.031.672-7.391.844-13.625.844-5.703 0-7.922-.125-14.406-.844l-2.032 17.953 3.297.359.594-2.703c1.141-5.281 1.562-6.062 3.719-6.062.25 0 .609 0 1.031.062 1.672.063 5.391.172 6.828.172.609 0 2.594-.062 5.594-.109l2.328-.063-4.078 6.063-3 4.672c-4.672 7.328-4.672 7.328-6.11 10.625-1.203 2.64-1.687 4.609-1.687 6.468 0 3.61 2.156 5.891 5.516 5.891 3.781 0 5.937-2.344 5.937-6.609-.047-11.094 1.141-15.172 10.094-34.188V31.36m30.297 26.531-.672 3c-.531 2.391-.891 3.172-1.375 3.469-.594.422-.719.422-4.5.484h-11.578c2.093-1.797 3.656-2.937 6-4.5 8.453-5.453 10.203-6.781 11.937-9 2.047-2.703 3.235-5.875 3.235-8.703 0-6.422-6.297-11.281-14.75-11.281-8.157 0-14.469 5.281-14.469 12.125 0 4.203 2.344 6.906 5.953 6.906 3.109 0 5.094-1.984 5.094-5.109 0-2.578-1.141-4.078-3.907-5.391-.656-.312-.953-.672-.953-1.141 0-1.921 3.235-3.968 6.235-3.968 4.203 0 6.609 2.578 6.609 7.031 0 4.969-1.922 8.516-8.281 15.297-6.719 7.14-9.063 9.828-12.063 14.156v2.813c1.563-.172 2.219-.235 3.125-.235h22.547c1.141 0 1.86.063 3.672.235l1.375-16.188h-3.234"/>
  <path class="NoteDot" d="M768.782 111.049a4.955 4.955 0 0 0 4.96 4.96 4.955 4.955 0 0 0 4.961-4.96 4.955 4.955 0 0 0-4.96-4.96 4.955 4.955 0 0 0-4.961 4.96m1962.196 24.803a4.955 4.955 0 0 0 4.96 4.96 4.955 4.955 0 0 0 4.961-4.96 4.955 4.955 0 0 0-4.96-4.96 4.955 4.955 0 0 0-4.961 4.96" style="stroke-width:.992126"/>
  <path class="Bracket" fill="none" stroke="#000" stroke-width="10.91" stroke-linejoin="bevel" d="M336.796 308.978v717.802"/>
  <path class="Bracket" d="M379.364 286.95c-.201-.093-.496-.202-.698-.202-.403 0-.852.156-1.085.497-.201.294-10.122 15.58-29.081 15.58h-15.766c-.806 0-1.395.495-1.395 1.286v10.324h12.107c30.554 0 36.414-25.485 36.507-25.795.031-.093.109-.295.109-.496 0-.496-.31-.9-.698-1.194m0 761.855c.388-.294.698-.698.698-1.194 0-.201-.078-.403-.109-.496-.093-.31-5.953-25.795-36.507-25.795h-12.107v10.325c0 .79.59 1.286 1.395 1.286H348.5c18.959 0 28.88 15.285 29.081 15.58.233.34.682.496 1.085.496.202 0 .497-.109.698-.202" style="stroke-width:.992126"/>
  <text xml:space="preserve" style="font-size:64px;line-height:1.25;font-family:FreeSerif,serif;-inkscape-font-specification:FreeSerif,serif" x="3646.037" y="303.696"><tspan x="3646.037" y="303.696" style="fill:#ff2a7f;fill-opacity:1">9</tspan></text>
  <text xml:space="preserve" style="font-size:64px;line-height:1.25;font-family:FreeSerif,serif;-inkscape-font-specification:FreeSerif,serif;fill:#66b800;fill-opacity:1" x="3542.843" y="697.925"><tspan x="3542.843" y="697.925" style="fill:#66b800;fill-opacity:1">5</tspan></text>
</svg>
