<svg width="2583.088" height="886.494" version="1.2" xmlns="http://www.w3.org/2000/svg">
  <path style="fill:#795971;fill-opacity:1;stroke:#000;stroke-width:0;stroke-linecap:round;stroke-linejoin:round;stroke-miterlimit:4;stroke-dasharray:none;paint-order:stroke markers fill" d="M2138.873 264.762h405.432v442.989h-405.432z"/>
  <path style="fill:#ff2ad4;fill-opacity:1;stroke:#000;stroke-width:0;stroke-linecap:round;stroke-linejoin:round;stroke-miterlimit:4;stroke-dasharray:none;paint-order:stroke markers fill" d="M1801.998 264.762h336.875v442.989h-336.875z"/>
  <path style="fill:#37c871;fill-opacity:1;stroke:#000;stroke-width:0;stroke-linecap:round;stroke-linejoin:round;stroke-miterlimit:4;stroke-dasharray:none;paint-order:stroke markers fill" d="M1623.089 264.762h178.91v442.989h-178.91z"/>
  <path style="fill:#bc5fd3;fill-opacity:1;stroke:#000;stroke-width:0;stroke-linecap:round;stroke-linejoin:round;stroke-miterlimit:4;stroke-dasharray:none;paint-order:stroke markers fill" d="M1473.328 264.762h149.761v442.99h-149.761z"/>
  <path style="fill:#83ffbc;fill-opacity:1;stroke:#000;stroke-width:0;stroke-linecap:round;stroke-linejoin:round;stroke-miterlimit:4;stroke-dasharray:none;paint-order:stroke markers fill" d="M1284.973 264.762h188.355v442.99h-188.355z"/>
  <path style="fill:#f5d;fill-opacity:1;stroke:#000;stroke-width:0;stroke-linecap:round;stroke-linejoin:round;stroke-miterlimit:4;stroke-dasharray:none;paint-order:stroke markers fill" d="M1185.133 264.762h99.84v442.99h-99.84z"/>
  <path style="fill:#2affd5;fill-opacity:1;stroke:#000;stroke-width:0;stroke-linecap:round;stroke-linejoin:round;stroke-miterlimit:4;stroke-dasharray:none;paint-order:stroke markers fill" d="M978.74 264.762h206.393v442.99H978.74z"/>
  <path style="fill:#ff2a2a;fill-opacity:1;stroke:#000;stroke-width:0;stroke-linecap:round;stroke-linejoin:round;stroke-miterlimit:4;stroke-dasharray:none;paint-order:stroke markers fill" d="M694.321 264.762H978.74v442.989H694.321z"/>
  <path class="StaffLines" fill="none" stroke="#000" stroke-width="2.73" stroke-linejoin="bevel" d="M350.186 104.775h2216.902m-2216.902 24.8h2216.902m-2216.902 24.8h2216.902m-2216.902 24.8h2216.902m-2216.902 24.8h2216.902M350.186 323.015h2216.902m-2216.902 24.8h2216.902m-2216.902 24.8h2216.902m-2216.902 24.8h2216.902m-2216.902 24.8h2216.902M350.186 540.49h2216.902m-2216.902 24.8h2216.902m-2216.902 24.8h2216.902m-2216.902 24.8h2216.902m-2216.902 24.8h2216.902"/>
  <path class="InstrumentName" d="M79.86 571.637h-1.907l-2 2.954c-3.64-2.657-5.5-3.36-8.953-3.36-4.75 0-8.797 2-12.14 6-3.204 3.813-4.704 8.016-4.704 13.156 0 10.797 7.047 18.454 16.907 18.454 8 0 13.093-4.704 14.25-13.094l-2.36-.406c-1.343 7.453-5.14 11.156-11.297 11.156-7.406 0-10.906-5.11-10.906-15.906 0-5.704.75-9.454 2.453-12.454 1.547-2.796 4.61-4.546 7.86-4.546 3.5 0 6.593 1.843 8.5 5.046.953 1.657 1.64 3.5 2.843 7.454h2.204l-.75-14.454m16.531 12.407c-6.141 0-10.891 5.453-10.891 12.453 0 6.844 4.797 12.344 10.797 12.344 6 0 10.797-5.5 10.797-12.407 0-6.843-4.797-12.39-10.703-12.39m0 2.14c3.5 0 5.453 3.657 5.453 10.25 0 6.657-1.953 10.25-5.547 10.25-3.594 0-5.547-3.593-5.547-10.187 0-6.813 1.891-10.313 5.641-10.313m22.39-1.39-8.656.547v2.156h1.813c1.89.047 2.14.344 2.14 2.5v14.297c-.047.75-.093 1.047-.297 1.297-.343.453-1.296.656-3.453.703h-.203v1.797h12.656v-1.797h-.203c-3.343-.11-3.797-.36-3.797-2.157v-7.39c0-2.453.344-4.703.907-5.86 1.047-2.25 3.297-3.796 5.437-3.796 1.313 0 2.813.703 3.563 1.75.75 1.093 1.093 2.593 1.093 5v10.453c-.046.75-.093 1.047-.296 1.297-.36.453-1.36.656-3.5.703h-.204v1.797h12.657v-1.797h-.203c-3.297-.11-3.75-.36-3.75-2.157V594.09c0-3.594-.157-4.5-1.047-6.204-1.25-2.39-3.75-3.843-6.75-3.843-3.25 0-5.703 1.5-7.907 4.797v-4.047m30.25 0v-9.907h-2.046c-.5 6.5-2.704 9.797-6.75 10.11v1.937h4.093v12.75c0 3.5.094 4.75.594 5.907.813 2.093 2.813 3.25 5.703 3.25 4.5 0 7.406-3.407 7.406-8.704 0-.296 0-.64-.046-1.14h-2.11c-.14 4.5-1.453 6.797-3.89 6.797-1.157 0-2.157-.61-2.5-1.453-.313-.704-.454-1.954-.454-3.75v-13.657h7.344v-2.14h-7.344m19.641 0-8.859.547v2.156h2.047c1.906.047 2.156.344 2.156 2.5v14.298c-.047.75-.094 1.047-.297 1.297-.359.453-1.359.656-3.5.703h-.203v1.797h13.344v-1.797h-.891c-3.359-.11-3.797-.36-3.797-2.157v-2.703c.047-8.39 3.047-14.797 6.938-15-.688.813-.891 1.313-.891 2.25 0 1.61 1.141 2.75 2.75 2.75 1.844 0 3.047-1.343 3.047-3.343 0-2.454-1.703-4.047-4.344-4.047-3.156 0-5.859 2.5-7.5 6.953v-6.203m34.469 7.203c0-3.156-.547-4.75-2-5.953-1.641-1.36-4.094-2-7.297-2-5.641 0-9.75 2.64-9.75 6.297 0 1.843 1.156 3.046 2.906 3.046 1.594 0 2.703-1.046 2.703-2.546 0-.657-.25-1.344-.75-2.047-.312-.36-.359-.453-.359-.703 0-1 2-1.907 4.406-1.907 1.594 0 3.344.5 4.141 1.25.953.813 1.312 2 1.312 4.25v1.953c-5.203.907-6.859 1.297-9.312 2.25-4.344 1.61-6.391 3.907-6.391 7.11 0 3.594 2.797 5.844 7.25 5.844 3.453 0 6.547-1.407 8.703-3.954.797 2.547 2.047 3.547 4.391 3.547 2.25 0 4.609-1.437 4.609-2.89 0-.36-.203-.61-.5-.61-.203 0-.406.063-.75.203-.703.297-1 .36-1.406.36-1.406 0-1.906-.906-1.906-3.453v-10.047m-4.688 6.094c0 3-.156 3.703-1 5-1.25 1.843-3.5 3.093-5.703 3.093-2.297 0-3.953-1.64-3.953-3.89 0-2.11 1.047-3.61 3.25-4.657 1.547-.703 3.5-1.203 7.406-1.843v2.297m18.891-26.86-8.594.563v2.14h1.75c1.891.047 2.141.36 2.141 2.5v19.453c0 6.954-.297 10.75-.891 12.907h1.891l2.453-3.907c2.047 2.704 4.406 3.954 7.5 3.954 6.203 0 10.75-5.297 10.75-12.547 0-7.203-4.203-12.25-10.203-12.25-3.047 0-4.891 1.047-6.797 3.89V571.23m5.906 15.36c3.75 0 5.844 3.656 5.844 10.203 0 6.343-2.047 9.89-5.703 9.89-3.953 0-6.297-3.64-6.297-9.797 0-6.703 2.156-10.296 6.156-10.296m35.485 5.406c0-3.156-.547-4.75-2-5.953-1.641-1.36-4.094-2-7.297-2-5.641 0-9.75 2.64-9.75 6.297 0 1.843 1.156 3.046 2.906 3.046 1.594 0 2.703-1.046 2.703-2.546 0-.657-.25-1.344-.75-2.047-.312-.36-.359-.453-.359-.703 0-1 2-1.907 4.406-1.907 1.594 0 3.344.5 4.141 1.25.953.813 1.312 2 1.312 4.25v1.953c-5.203.907-6.859 1.297-9.312 2.25-4.344 1.61-6.391 3.907-6.391 7.11 0 3.594 2.797 5.844 7.25 5.844 3.453 0 6.547-1.407 8.703-3.954.797 2.547 2.047 3.547 4.391 3.547 2.25 0 4.609-1.437 4.609-2.89 0-.36-.203-.61-.5-.61-.203 0-.406.063-.75.203-.703.297-1 .36-1.406.36-1.406 0-1.906-.906-1.906-3.453v-10.047m-4.688 6.094c0 3-.156 3.703-1 5-1.25 1.843-3.5 3.093-5.703 3.093-2.297 0-3.953-1.64-3.953-3.89 0-2.11 1.047-3.61 3.25-4.657 1.547-.703 3.5-1.203 7.406-1.843v2.297m29.438-13.844h-1.75l-1.454 1.797c-1.796-1.407-3.593-2-6.093-2-4.407 0-7.297 2.843-7.297 7.25 0 1.953.64 3.593 1.75 4.593 1.14 1.047 2.297 1.547 5.297 2.25l2.64.61c3.953.937 5.36 1.937 5.36 3.937 0 2.36-2.047 4-4.953 4-4.25 0-7.25-2.687-8.454-7.687h-2v9.437h1.75l1.75-2.047c2.047 1.657 4.297 2.454 6.86 2.454 4.89 0 8.14-3.047 8.14-7.704 0-2.203-.703-3.89-2.093-5.046-1.203-1.047-2.203-1.454-5.25-2.094l-2.5-.563c-2.75-.593-2.75-.593-3.657-1.093-1.093-.5-1.75-1.547-1.75-2.657 0-2.047 1.907-3.437 4.657-3.437 1.89 0 3.453.64 4.843 2 1.11 1.094 1.657 2.094 2.454 4.39h1.75v-8.39m22.937 0h-1.75l-1.453 1.797c-1.797-1.407-3.594-2-6.094-2-4.406 0-7.297 2.843-7.297 7.25 0 1.953.641 3.593 1.75 4.593 1.141 1.047 2.297 1.547 5.297 2.25l2.641.61c3.953.937 5.359 1.937 5.359 3.937 0 2.36-2.047 4-4.953 4-4.25 0-7.25-2.687-8.453-7.687h-2v9.437h1.75l1.75-2.047c2.047 1.657 4.297 2.454 6.859 2.454 4.891 0 8.141-3.047 8.141-7.704 0-2.203-.703-3.89-2.094-5.046-1.203-1.047-2.203-1.454-5.25-2.094l-2.5-.563c-2.75-.593-2.75-.593-3.656-1.093-1.094-.5-1.75-1.547-1.75-2.657 0-2.047 1.906-3.437 4.656-3.437 1.891 0 3.453.64 4.844 2 1.109 1.094 1.656 2.094 2.453 4.39h1.75v-8.39m-97.859-201.881-9.157-23.203c-.25-.656-.406-1.297-.406-1.547 0-.906.86-1.25 3.11-1.25h2v-2.36H188.5v2.36h1c2.313.047 3.063.594 3.86 2.797L206 390.865h2l11.516-29.61c1.5-3.89 2.547-4.796 5.437-4.89h.5v-2.36h-13.547v2.36h.954c2.546 0 4.046 1 4.046 2.594 0 .703-.25 1.797-.593 2.797l-7.75 20.609m26.39-15.547-9.39.547v2.156h2.547c1.89.047 2.14.344 2.14 2.5v14.297c-.047.75-.094 1.047-.297 1.297-.343.453-1.297.656-3.453.703h-.344v1.797h12.954v-1.797h-.36c-3.344-.11-3.797-.36-3.797-2.156v-19.344m-2.343-12.453a2.898 2.898 0 0 0-2.907 2.89c0 1.61 1.297 2.907 2.86 2.907 1.64 0 2.937-1.297 2.937-2.906a2.894 2.894 0 0 0-2.89-2.891m20.375 11.703c-6.141 0-10.891 5.453-10.891 12.453 0 6.844 4.797 12.344 10.797 12.344 6 0 10.797-5.5 10.797-12.406 0-6.844-4.797-12.391-10.703-12.391m0 2.14c3.5 0 5.453 3.657 5.453 10.25 0 6.657-1.953 10.25-5.547 10.25-3.594 0-5.547-3.593-5.547-10.187 0-6.812 1.891-10.312 5.641-10.312m22.593-14.953-9.25.562v2.14h2.453c1.844.048 2.094.36 2.094 2.5v27.86c-.047.75-.094 1.047-.297 1.297-.359.453-1.297.656-3.453.703h-.344v1.797h12.938v-1.797h-.344c-3.344-.11-3.797-.36-3.797-2.156v-32.906m28.125 20.765c0-3.156-.547-4.75-2-5.953-1.64-1.36-4.093-2-7.297-2-5.64 0-9.75 2.64-9.75 6.297 0 1.844 1.157 3.047 2.907 3.047 1.593 0 2.703-1.047 2.703-2.547 0-.656-.25-1.344-.75-2.047-.313-.36-.36-.453-.36-.703 0-1 2-1.906 4.407-1.906 1.593 0 3.343.5 4.14 1.25.953.812 1.313 2 1.313 4.25v1.953c-5.203.906-6.86 1.297-9.313 2.25-4.343 1.609-6.39 3.906-6.39 7.109 0 3.594 2.797 5.844 7.25 5.844 3.453 0 6.547-1.406 8.703-3.953.797 2.547 2.047 3.547 4.39 3.547 2.25 0 4.61-1.438 4.61-2.891 0-.36-.203-.61-.5-.61-.203 0-.406.063-.75.204-.703.297-1 .359-1.406.359-1.407 0-1.907-.906-1.907-3.453V374.02m-4.687 6.094c0 3-.156 3.703-1 5-1.25 1.844-3.5 3.094-5.703 3.094-2.297 0-3.953-1.641-3.953-3.891 0-2.11 1.046-3.61 3.25-4.656 1.546-.703 3.5-1.203 7.406-1.844v2.297M46.406 131.422h-1.89l-1.953 3c-3.25-2.547-5.453-3.407-9.11-3.407-3.953 0-7.047 1.11-10.203 3.657-4.937 4-7.25 9.046-7.25 15.796 0 5.11 1.453 9.36 4.406 12.61 3.094 3.5 7.704 5.547 12.5 5.547 4.204 0 7.157-1.297 10.407-4.547l1.843 4.5h2.11v-11c0-2.547 0-2.656.297-3.11.453-.546 1.343-.687 4.203-.687h.75v-2.36H36.61v2.36h.953c4.203 0 4.547.25 4.547 3.047 0 2.14-.344 4.094-1 5.297-1.25 2.453-4.454 4.156-7.704 4.156s-6.453-1.656-8.156-4.156c-1.844-2.797-2.64-6.297-2.64-11.657 0-11.14 3.703-17.093 10.64-17.093 5.703 0 9.656 4.093 11.703 12.093h2.157l-.704-14.046M63 131.015l-9.25.563v2.14h2.453c1.844.047 2.094.36 2.094 2.5v27.86c-.047.75-.094 1.047-.297 1.297-.359.453-1.297.656-3.453.703h-.344v1.797h12.938v-1.797h-.344c-3.344-.11-3.797-.36-3.797-2.156v-32.907m18.125 12.813c-6.14 0-10.89 5.453-10.89 12.453 0 6.844 4.796 12.344 10.796 12.344 6 0 10.797-5.5 10.797-12.407 0-6.843-4.797-12.39-10.703-12.39m0 2.14c3.5 0 5.453 3.657 5.453 10.25 0 6.657-1.953 10.25-5.547 10.25-3.593 0-5.546-3.593-5.546-10.187 0-6.813 1.89-10.313 5.64-10.313m31.735 14.563c-1.594 3.594-3.297 5.047-5.891 5.047-4 0-6.5-3.656-6.5-9.5 0-6.11 2.453-10.11 6.141-10.11 1.5 0 2.812.704 2.812 1.5 0 .157-.062.313-.312.61-.797.953-1 1.453-1 2.297 0 1.656 1.25 2.797 3 2.797 1.812 0 3.062-1.391 3.062-3.391 0-3.406-3.359-5.953-7.812-5.953-6.5 0-11.141 5.297-11.141 12.797 0 7.093 4.25 12 10.453 12 4.438 0 7-2.047 9.141-7.344l-1.953-.75m12.203-4.75v-24.766l-9.25.563v2.14h2.39c1.907.047 2.157.36 2.157 2.5v27.907c-.047.703-.094 1-.297 1.25-.36.453-1.297.656-3.453.703h-.204v1.797h12.657v-1.797h-.203c-3.344-.11-3.797-.36-3.797-2.156v-5.047l3.047-2.907 5.953 8.36c.25.39.343.64.343.844 0 .703-.546.906-2.203.906h-.937v1.797h13.203v-1.797c-2.813-.25-3.813-.86-5.859-3.453l-7.094-9.703 2.25-2.204c2.937-2.843 5.047-3.937 8.453-4.343v-1.797h-13.156v1.797h1.547c1.593 0 2.343.297 2.343.953 0 .547-.343 1.14-1.14 1.953l-6.75 6.5m42.031.844c.047-7.5-4.203-12.797-10.297-12.797-6.406 0-11.203 5.547-11.203 13.047 0 7.047 4.547 11.75 11.297 11.75 4.797 0 8.156-2.344 10.203-7.094l-1.75-.953c-2.047 3.844-4.156 5.344-7.5 5.344-2.547 0-4.406-1.047-5.703-3.297-.891-1.5-1.297-3.25-1.25-6h16.203m-16.156-2.157c0-1.546.203-2.64.703-4.046 1.047-3 2.656-4.454 5.109-4.454 3 0 5 2.657 5 6.704 0 1.406-.453 1.796-2.062 1.796h-8.75m27.89-9.89-8.656.547v2.156h1.813c1.89.047 2.14.344 2.14 2.5v14.297c-.047.75-.094 1.047-.297 1.297-.343.453-1.297.656-3.453.703h-.203v1.797h12.656v-1.797h-.203c-3.344-.11-3.797-.36-3.797-2.156v-7.391c0-2.453.344-4.703.907-5.86 1.046-2.25 3.296-3.796 5.437-3.796 1.313 0 2.813.703 3.563 1.75.75 1.093 1.093 2.593 1.093 5v10.453c-.047.75-.093 1.047-.297 1.297-.359.453-1.359.656-3.5.703h-.203v1.797h12.657v-1.797h-.204c-3.296-.11-3.75-.36-3.75-2.156v-10.047c0-3.594-.156-4.5-1.046-6.203-1.25-2.391-3.75-3.844-6.75-3.844-3.25 0-5.704 1.5-7.907 4.797v-4.047m40.047-.547h-1.75l-1.453 1.797c-1.797-1.406-3.594-2-6.094-2-4.406 0-7.297 2.844-7.297 7.25 0 1.953.641 3.594 1.75 4.594 1.141 1.046 2.297 1.546 5.297 2.25l2.641.609c3.953.937 5.359 1.937 5.359 3.937 0 2.36-2.047 4-4.953 4-4.25 0-7.25-2.687-8.453-7.687h-2v9.437h1.75l1.75-2.046c2.047 1.656 4.297 2.453 6.859 2.453 4.891 0 8.141-3.047 8.141-7.703 0-2.204-.703-3.891-2.094-5.047-1.203-1.047-2.203-1.453-5.25-2.094l-2.5-.563c-2.75-.593-2.75-.593-3.656-1.093-1.094-.5-1.75-1.547-1.75-2.657 0-2.046 1.906-3.437 4.656-3.437 1.891 0 3.453.64 4.844 2 1.109 1.094 1.656 2.094 2.453 4.39h1.75v-8.39m12.844.547-8.641.547v2.156h1.797c1.891.047 2.141.344 2.141 2.5v24.437c-.047.704-.094 1-.297 1.25-.344.454-1.297.657-3.453.704h-.188v1.796h13v-1.796h-.562c-3.344-.094-3.797-.344-3.797-2.141v-9.453c1.656 2.89 3.5 4.047 6.609 4.047 3.047 0 5.547-1.297 7.344-3.75 1.75-2.407 2.75-5.5 2.75-8.75s-1-6.297-2.844-8.703c-1.859-2.391-4.156-3.594-6.953-3.594-3.109 0-5.156 1.297-6.906 4.297v-3.547m6 1.953c3.453 0 5.453 3.437 5.453 9.297 0 6.453-2 10.094-5.594 10.094-3.609 0-5.906-3.704-5.906-9.454 0-6.25 2.25-9.937 6.047-9.937m22.937-1.953-9.39.547v2.156h2.547c1.89.047 2.14.344 2.14 2.5v14.297c-.047.75-.093 1.047-.297 1.297-.343.453-1.296.656-3.453.703h-.343v1.797h12.953v-1.797h-.36c-3.343-.11-3.797-.36-3.797-2.156v-19.344m-2.343-12.453a2.898 2.898 0 0 0-2.907 2.89c0 1.61 1.297 2.907 2.86 2.907 1.64 0 2.937-1.297 2.937-2.907a2.894 2.894 0 0 0-2.89-2.89m31.031 24.5c.047-7.5-4.203-12.797-10.297-12.797-6.406 0-11.203 5.547-11.203 13.047 0 7.047 4.547 11.75 11.297 11.75 4.797 0 8.156-2.344 10.203-7.094l-1.75-.953c-2.047 3.844-4.156 5.344-7.5 5.344-2.547 0-4.406-1.047-5.703-3.297-.891-1.5-1.297-3.25-1.25-6h16.203m-16.156-2.157c0-1.546.203-2.64.703-4.046 1.047-3 2.656-4.454 5.109-4.454 3 0 5 2.657 5 6.704 0 1.406-.453 1.796-2.062 1.796h-8.75m26.89-23.453-9.25.563v2.14h2.453c1.844.047 2.094.36 2.094 2.5v27.86c-.047.75-.094 1.047-.297 1.297-.359.453-1.297.656-3.453.703h-.344v1.797h12.938v-1.797h-.344c-3.344-.11-3.797-.36-3.797-2.156v-32.907"/>
  <path class="TieSegment" stroke="#000" stroke-width="1.74" stroke-linecap="round" stroke-linejoin="round" fill-rule="evenodd" d="M1062.808 621.09c8.12 6.449 32.47 6.449 40.59 0-8.12 13.393-32.47 13.393-40.59 0m201.04-534.915c11.23-13.392 44.91-13.392 56.14 0-11.23-6.448-44.91-6.448-56.14 0m232.13 0c19.3-18.135 77.18-18.135 96.47 0-19.29-11.191-77.17-11.191-96.47 0"/>
  <path class="BarLine" stroke="#000" stroke-width="4.46" stroke-linejoin="bevel" d="M352.418 539.126v101.929m1194.28-101.929v101.929m996.21-101.929v101.929"/>
  <path class="BarLine" stroke="#000" stroke-width="13.64" stroke-linejoin="bevel" d="M2560.268 539.126v101.929"/>
  <path class="BarLine" stroke="#000" stroke-width="4.46" stroke-linejoin="bevel" d="M352.418 321.65v218.84m1194.28-218.84v218.84m996.21-218.84v218.84"/>
  <path class="BarLine" stroke="#000" stroke-width="13.64" stroke-linejoin="bevel" d="M2560.268 321.65v218.84"/>
  <path class="BarLine" stroke="#000" stroke-width="4.46" stroke-linejoin="bevel" d="M352.418 103.41v219.605m1194.28-219.605v101.93m996.21-101.93v101.93"/>
  <path class="BarLine" stroke="#000" stroke-width="13.64" stroke-linejoin="bevel" d="M2560.268 103.41v101.93"/>
  <path class="Accidental" d="M1302.01 559.54c-.187-.201-.497-.294-.792-.294-.093 0-.294.093-.387.093l-12.509 3.472v-17.36h-2.774v49.104c0 .79.589 1.286 1.395 1.286h.388l12.508-3.472v17.36h2.666v-49.104c0-.387-.186-.883-.496-1.085m-2.17 24.599-11.517 3.177v-16.275l11.517-3.27v16.368m340.441 25.001c-.187-.201-.497-.294-.792-.294-.093 0-.294.093-.387.093l-12.509 3.472v-17.36h-2.774v49.104c0 .79.589 1.286 1.395 1.286h.388l12.508-3.472v17.36h2.666v-49.104c0-.387-.186-.883-.496-1.085m-2.17 24.599-11.517 3.177v-16.275l11.517-3.27v16.368m224.381-61.799c-.187-.201-.497-.294-.792-.294-.093 0-.294.093-.387.093l-12.509 3.472v-17.36h-2.774v49.104c0 .79.589 1.286 1.395 1.286h.388l12.508-3.472v17.36h2.666v-49.104c0-.387-.186-.883-.496-1.085m-2.17 24.599-11.517 3.177v-16.275l11.517-3.27v16.368m187.87 20.243c.604-.109 1.1-.806 1.1-1.395v-5.86c0-.79-.604-1.379-1.395-1.379h-.201l-3.271.698v-14.787h-2.774v15.376l-8.835 1.782v-13.98h-2.775v14.585l-3.875.79c-.589.093-1.085.79-1.085 1.38v5.951-.185c0 .79.589 1.38 1.395 1.38h.295l3.27-.698v16.368l-3.875.806c-.589.093-1.085.79-1.085 1.38v5.75c0 .806.589 1.395 1.395 1.395h.295l3.27-.698v14.787h2.775v-15.376l8.835-1.782v13.98h2.774v-14.585l3.767-.697c.604-.093 1.1-.79 1.1-1.38v-5.859c0-.79-.604-1.38-1.395-1.38h-.201l-3.271.683v-16.368l3.767-.682m-15.376 19.53V619.85l8.835-1.783v16.368l-8.835 1.876m245.437-27.171c-.187-.201-.497-.294-.792-.294-.092 0-.294.093-.387.093l-12.508 3.472v-17.36h-2.775v49.104c0 .79.589 1.286 1.395 1.286h.388l12.508-3.472v17.36h2.666v-49.104c0-.387-.186-.883-.496-1.085m-2.17 24.599-11.517 3.177v-16.275l11.517-3.27v16.368M1302.01 329.664c-.187-.201-.497-.294-.792-.294-.093 0-.294.093-.387.093l-12.509 3.472v-17.36h-2.774v49.104c0 .79.589 1.286 1.395 1.286h.388l12.508-3.472v17.36h2.666V330.75c0-.387-.186-.883-.496-1.085m-2.17 24.599-11.517 3.177v-16.275l11.517-3.27v16.368m340.441-12.2c-.187-.201-.497-.294-.792-.294-.093 0-.294.093-.387.093l-12.509 3.472v-17.36h-2.774v49.104c0 .79.589 1.286 1.395 1.286h.388l12.508-3.472v17.36h2.666V343.15c0-.387-.186-.883-.496-1.085m-2.17 24.599-11.517 3.177v-16.275l11.517-3.27v16.368m640.141 12.6c-.187-.201-.497-.294-.792-.294-.092 0-.294.093-.387.093l-12.508 3.472v-17.36h-2.775v49.104c0 .79.589 1.286 1.395 1.286h.388l12.508-3.472v17.36h2.666V380.35c0-.387-.186-.883-.496-1.085m-2.17 24.599-11.517 3.177v-16.275l11.517-3.27v16.368M984.9 99.024c-.187-.201-.497-.294-.791-.294-.093 0-.295.093-.388.093l-12.508 3.472v-17.36h-2.775v49.104c0 .79.589 1.286 1.395 1.286h.388l12.508-3.472v17.36h2.666V100.11c0-.387-.186-.883-.496-1.085m-2.17 24.599-11.516 3.177v-16.275l11.516-3.27v16.368m202.62-16.958c.604-.109 1.1-.806 1.1-1.395v-5.86c0-.79-.605-1.379-1.395-1.379h-.202l-3.27.698V83.943h-2.775v15.376l-8.834 1.782v-13.98h-2.775v14.585l-3.875.79c-.589.093-1.085.79-1.085 1.38v5.951-.185c0 .79.589 1.38 1.395 1.38h.294l3.271-.698v16.368l-3.875.806c-.589.093-1.085.79-1.085 1.38v5.75c0 .806.589 1.395 1.395 1.395h.294l3.271-.698v14.787h2.775v-15.376l8.835-1.782v13.98h2.774V132.35l3.767-.697c.604-.093 1.1-.79 1.1-1.38v-5.859c0-.79-.605-1.38-1.395-1.38h-.202l-3.27.683v-16.368l3.767-.682m-15.376 19.53v-16.461l8.835-1.783v16.368l-8.835 1.876m197.837-27.173c-.187-.201-.497-.294-.792-.294-.093 0-.294.093-.387.093l-12.509 3.472v-17.36h-2.774v49.104c0 .79.589 1.286 1.395 1.286h.388l12.508-3.472v17.36h2.666V100.11c0-.387-.186-.883-.496-1.085m-2.17 24.599-11.517 3.177v-16.275l11.517-3.27v16.368m340.441-24.6c-.187-.201-.497-.294-.792-.294-.093 0-.294.093-.387.093l-12.509 3.472v-17.36h-2.774v49.104c0 .79.589 1.286 1.395 1.286h.388l12.508-3.472v17.36h2.666V100.11c0-.387-.186-.883-.496-1.085m-2.17 24.599-11.517 3.177v-16.275l11.517-3.27v16.368m158.581-12.2c-.187-.201-.497-.294-.792-.294-.093 0-.294.093-.387.093l-12.509 3.472v-17.36h-2.774v49.104c0 .79.589 1.286 1.395 1.286h.388l12.508-3.472v17.36h2.666V112.51c0-.387-.186-.883-.496-1.085m-2.17 24.599-11.517 3.177v-16.275l11.517-3.27v16.368m351.519-16.958c.605-.109 1.101-.806 1.101-1.395v-5.86c0-.79-.604-1.379-1.395-1.379h-.202l-3.27.698V96.343h-2.775v15.376l-8.835 1.782v-13.98h-2.774v14.585l-3.875.79c-.589.093-1.085.79-1.085 1.38v5.951-.185c0 .79.589 1.38 1.395 1.38h.294l3.271-.698v16.368l-3.875.806c-.589.093-1.085.79-1.085 1.38v5.75c0 .806.589 1.395 1.395 1.395h.294l3.271-.698v14.787h2.774v-15.376l8.835-1.782v13.98h2.775V144.75l3.766-.697c.605-.093 1.101-.79 1.101-1.38v-5.859c0-.79-.604-1.38-1.395-1.38h-.202l-3.27.683v-16.368l3.766-.682m-15.376 19.53v-16.461l8.835-1.783v16.368l-8.835 1.876m154.236-31.931c.605-.109 1.101-.806 1.101-1.395v-5.86c0-.79-.604-1.379-1.395-1.379h-.202l-3.27.698V83.943h-2.775v15.376l-8.835 1.782v-13.98h-2.774v14.585l-3.875.79c-.589.093-1.085.79-1.085 1.38v5.951-.185c0 .79.589 1.38 1.395 1.38h.294l3.271-.698v16.368l-3.875.806c-.589.093-1.085.79-1.085 1.38v5.75c0 .806.589 1.395 1.395 1.395h.294l3.271-.698v14.787h2.775v-15.376l8.834-1.782v13.98h2.775V132.35l3.767-.697c.604-.093 1.1-.79 1.1-1.38v-5.859c0-.79-.604-1.38-1.395-1.38h-.202l-3.27.683v-16.368l3.767-.682m-15.377 19.53v-16.461l8.835-1.783v16.368l-8.835 1.876" style="stroke-width:.992001"/>
  <path class="Stem" stroke="#000" stroke-width="2.73" stroke-linejoin="bevel" d="M761.107 599.316V521.89m50.261 127.026V540.49m130.68 108.426V546.69m80.41 65.026v-84.102m50.27 71.702V515.69m50.26 83.626V515.69m50.26 120.826V506.39m50.26 68.126V497.09m116.06 77.426V497.09m116.07 102.226v-84.92m50.26 97.32V521.89m106.14 65.026V515.69m65.8 108.426V518.79m65.81 80.526V521.89m61.09 46.734v89.667m65.81-64.867v76.26m56.62-63.86v73.663m56.63-61.263v71.067m102.55-65.175V521.89m90.6 77.426V521.89m73.06 89.826V521.89m65.8 102.226V521.89m73.05 89.826V509.735m56.63 89.581v-99.003m56.62 74.203V490.89M731.603 375.948v71.067m50.261-108.267v108.267m80.414-71.067v71.067m50.26-108.267v108.267m80.42-71.067v97.775m50.26-60.575v77.267m50.26-114.467v71.067m100.52-95.867v95.867m50.26-71.067v71.067m65.81-95.867v120.667m65.8-95.867v95.867m50.27-71.067v71.067m50.26-108.267v108.267m106.13-83.467v83.467m65.81-108.267v105.167m65.8-92.767v89.667m90.6-126.867v102.067m65.81-77.267v88.66m56.62-76.26v86.064m56.63-73.664v83.467m102.55-77.575v-96.025m90.6 71.225v-71.225m73.06 83.625v-83.625m36.3 102.533v71.067m73.05-83.467v71.312m56.62-83.712v74.289m56.63-99.089v89.667M731.603 108.108v95.867m50.261-58.667v77.267m130.674-114.467v89.667m80.42-77.267v77.267m50.26-89.667v89.667m50.26-15.267v71.067m100.52-133.067v112.4m50.26-124.8v114.467m65.81-114.467v89.667m65.8-77.267v77.267m100.53-89.667v89.667m106.13-89.667v114.467m65.81-77.267v77.267m65.8-102.067v102.067m90.6-77.267v83.467m65.81-95.867v89.667m186.3-114.467v114.467m90.6-77.267v77.267m73.05-89.667v89.667m65.81-102.067v83.467m73.05-83.467v93.945m56.62-69.145v77.267"/>
  <path class="Note" d="M761.487 594.462c-1.782-3.286-5.549-5.069-10.121-5.069-3.364 0-7.038.992-10.618 2.883-6.541 3.472-10.509 9.316-10.509 14.384 0 1.38.294 2.775.992 4.061 1.783 3.27 5.549 4.96 10.121 4.96 3.364 0 7.038-.883 10.618-2.774 6.541-3.472 10.509-9.331 10.509-14.384 0-1.395-.294-2.775-.992-4.061m50.261 49.6c-1.783-3.286-5.549-5.069-10.121-5.069-3.364 0-7.038.992-10.618 2.883-6.541 3.472-10.509 9.316-10.509 14.384 0 1.38.294 2.775.992 4.061 1.783 3.27 5.549 4.96 10.121 4.96 3.364 0 7.038-.883 10.618-2.774 6.541-3.472 10.509-9.331 10.509-14.384 0-1.395-.294-2.775-.992-4.061m130.678 0c-1.783-3.286-5.549-5.069-10.121-5.069-3.364 0-7.038.992-10.618 2.883-6.541 3.472-10.509 9.316-10.509 14.384 0 1.38.294 2.775.992 4.061 1.783 3.27 5.549 4.96 10.121 4.96 3.364 0 7.038-.883 10.618-2.774 6.541-3.472 10.509-9.331 10.509-14.384 0-1.395-.294-2.775-.992-4.061m80.42-37.2c-1.782-3.286-5.549-5.069-10.121-5.069-3.364 0-7.037.992-10.618 2.883-6.541 3.472-10.509 9.316-10.509 14.384 0 1.38.295 2.775.992 4.061 1.783 3.27 5.549 4.96 10.121 4.96 3.364 0 7.037-.883 10.618-2.774 6.541-3.472 10.509-9.331 10.509-14.384 0-1.395-.294-2.775-.992-4.061m50.26-12.4c-1.782-3.286-5.549-5.069-10.121-5.069-3.364 0-7.037.992-10.618 2.883-6.541 3.472-10.509 9.316-10.509 14.384 0 1.38.294 2.775.992 4.061 1.782 3.27 5.549 4.96 10.121 4.96 3.364 0 7.037-.883 10.618-2.774 6.541-3.472 10.509-9.331 10.509-14.384 0-1.395-.294-2.775-.992-4.061m50.26 0c-1.782-3.286-5.549-5.069-10.121-5.069-3.364 0-7.037.992-10.618 2.883-6.541 3.472-10.509 9.316-10.509 14.384 0 1.38.294 2.775.992 4.061 1.782 3.27 5.549 4.96 10.121 4.96 3.364 0 7.037-.883 10.618-2.774 6.541-3.472 10.509-9.331 10.509-14.384 0-1.395-.294-2.775-.992-4.061m50.26 37.2c-1.782-3.286-5.549-5.069-10.121-5.069-3.364 0-7.038.992-10.618 2.883-6.541 3.472-10.509 9.316-10.509 14.384 0 1.38.294 2.775.992 4.061 1.782 3.27 5.549 4.96 10.121 4.96 3.364 0 7.037-.883 10.618-2.774 6.541-3.472 10.509-9.331 10.509-14.384 0-1.395-.294-2.775-.992-4.061m50.26-62c-1.782-3.286-5.549-5.069-10.121-5.069-3.364 0-7.038.992-10.618 2.883-6.541 3.472-10.509 9.316-10.509 14.384 0 1.38.294 2.775.992 4.061 1.782 3.27 5.549 4.96 10.121 4.96 3.364 0 7.037-.883 10.618-2.774 6.541-3.472 10.509-9.331 10.509-14.384 0-1.395-.294-2.775-.992-4.061m116.07 0c-1.782-3.286-5.549-5.069-10.121-5.069-3.364 0-7.038.992-10.618 2.883-6.541 3.472-10.509 9.316-10.509 14.384 0 1.38.294 2.775.992 4.061 1.782 3.27 5.549 4.96 10.121 4.96 3.364 0 7.037-.883 10.618-2.774 6.541-3.472 10.509-9.331 10.509-14.384 0-1.395-.295-2.775-.992-4.061m116.06 24.8c-1.782-3.286-5.549-5.069-10.121-5.069-3.364 0-7.037.992-10.618 2.883-6.541 3.472-10.509 9.316-10.509 14.384 0 1.38.294 2.775.992 4.061 1.782 3.27 5.549 4.96 10.121 4.96 3.364 0 7.037-.883 10.618-2.774 6.541-3.472 10.509-9.331 10.509-14.384 0-1.395-.294-2.775-.992-4.061m50.26 12.4c-1.782-3.286-5.549-5.069-10.121-5.069-3.364 0-7.037.992-10.618 2.883-6.541 3.472-10.509 9.316-10.509 14.384 0 1.38.294 2.775.992 4.061 1.782 3.27 5.549 4.96 10.121 4.96 3.364 0 7.037-.883 10.618-2.774 6.541-3.472 10.509-9.331 10.509-14.384 0-1.395-.294-2.775-.992-4.061m106.14-24.8c-1.782-3.286-5.549-5.069-10.121-5.069-3.364 0-7.038.992-10.618 2.883-6.541 3.472-10.509 9.316-10.509 14.384 0 1.38.294 2.775.992 4.061 1.782 3.27 5.549 4.96 10.121 4.96 3.364 0 7.037-.883 10.618-2.774 6.541-3.472 10.509-9.331 10.509-14.384 0-1.395-.294-2.775-.992-4.061m65.8 37.2c-1.782-3.286-5.549-5.069-10.121-5.069-3.364 0-7.038.992-10.618 2.883-6.541 3.472-10.509 9.316-10.509 14.384 0 1.38.294 2.775.992 4.061 1.782 3.27 5.549 4.96 10.121 4.96 3.364 0 7.037-.883 10.618-2.774 6.541-3.472 10.509-9.331 10.509-14.384 0-1.395-.295-2.775-.992-4.061m65.81-24.8c-1.782-3.286-5.549-5.069-10.121-5.069-3.364 0-7.037.992-10.618 2.883-6.541 3.472-10.509 9.316-10.509 14.384 0 1.38.294 2.775.992 4.061 1.782 3.27 5.549 4.96 10.121 4.96 3.364 0 7.037-.883 10.618-2.774 6.541-3.472 10.509-9.331 10.509-14.384 0-1.395-.294-2.775-.992-4.061m90.6-37.2c-1.782-3.286-5.549-5.069-10.121-5.069-3.364 0-7.038.992-10.618 2.883-6.541 3.472-10.509 9.316-10.509 14.384 0 1.38.294 2.775.992 4.061 1.782 3.27 5.549 4.96 10.121 4.96 3.364 0 7.037-.883 10.618-2.774 6.541-3.472 10.509-9.331 10.509-14.384 0-1.395-.294-2.775-.992-4.061m65.8 24.8c-1.782-3.286-5.549-5.069-10.121-5.069-3.364 0-7.038.992-10.618 2.883-6.541 3.472-10.509 9.316-10.509 14.384 0 1.38.294 2.775.992 4.061 1.782 3.27 5.549 4.96 10.121 4.96 3.364 0 7.037-.883 10.618-2.774 6.541-3.472 10.509-9.331 10.509-14.384 0-1.395-.294-2.775-.992-4.061m56.63 12.4c-1.782-3.286-5.549-5.069-10.121-5.069-3.364 0-7.037.992-10.618 2.883-6.541 3.472-10.509 9.316-10.509 14.384 0 1.38.294 2.775.992 4.061 1.782 3.27 5.549 4.96 10.121 4.96 3.364 0 7.037-.883 10.618-2.774 6.541-3.472 10.509-9.331 10.509-14.384 0-1.395-.294-2.775-.992-4.061m56.62 12.4c-1.782-3.286-5.549-5.069-10.121-5.069-3.364 0-7.038.992-10.618 2.883-6.541 3.472-10.509 9.316-10.509 14.384 0 1.38.294 2.775.992 4.061 1.782 3.27 5.549 4.96 10.121 4.96 3.364 0 7.037-.883 10.618-2.774 6.541-3.472 10.509-9.331 10.509-14.384 0-1.395-.294-2.775-.992-4.061m73.06 12.4c-1.782-3.286-5.549-5.069-10.121-5.069-3.364 0-7.038.992-10.618 2.883-6.541 3.472-10.509 9.316-10.509 14.384 0 1.38.294 2.775.992 4.061 1.782 3.27 5.549 4.96 10.121 4.96 3.364 0 7.037-.883 10.618-2.774 6.541-3.472 10.509-9.331 10.509-14.384 0-1.395-.295-2.775-.992-4.061m90.6-24.8c-1.782-3.286-5.549-5.069-10.121-5.069-3.364 0-7.038.992-10.618 2.883-6.541 3.472-10.509 9.316-10.509 14.384 0 1.38.294 2.775.992 4.061 1.782 3.27 5.549 4.96 10.121 4.96 3.364 0 7.037-.883 10.618-2.774 6.541-3.472 10.509-9.331 10.509-14.384 0-1.395-.295-2.775-.992-4.061m73.05 12.4c-1.782-3.286-5.549-5.069-10.121-5.069-3.364 0-7.038.992-10.618 2.883-6.541 3.472-10.509 9.316-10.509 14.384 0 1.38.294 2.775.992 4.061 1.782 3.27 5.549 4.96 10.121 4.96 3.364 0 7.037-.883 10.618-2.774 6.541-3.472 10.509-9.331 10.509-14.384 0-1.395-.295-2.775-.992-4.061m65.8 12.4c-1.782-3.286-5.549-5.069-10.121-5.069-3.364 0-7.038.992-10.618 2.883-6.541 3.472-10.509 9.316-10.509 14.384 0 1.38.294 2.775.992 4.061 1.782 3.27 5.549 4.96 10.121 4.96 3.364 0 7.038-.883 10.618-2.774 6.541-3.472 10.509-9.331 10.509-14.384 0-1.395-.294-2.775-.992-4.061m73.05-12.4c-1.782-3.286-5.549-5.069-10.121-5.069-3.364 0-7.038.992-10.618 2.883-6.541 3.472-10.509 9.316-10.509 14.384 0 1.38.294 2.775.992 4.061 1.782 3.27 5.549 4.96 10.121 4.96 3.364 0 7.037-.883 10.618-2.774 6.541-3.472 10.509-9.331 10.509-14.384 0-1.395-.295-2.775-.992-4.061m56.63-12.4c-1.782-3.286-5.549-5.069-10.121-5.069-3.364 0-7.038.992-10.618 2.883-6.541 3.472-10.509 9.316-10.509 14.384 0 1.38.294 2.775.992 4.061 1.782 3.27 5.549 4.96 10.121 4.96 3.364 0 7.037-.883 10.618-2.774 6.541-3.472 10.509-9.331 10.509-14.384 0-1.395-.295-2.775-.992-4.061m56.63-24.8c-1.782-3.286-5.549-5.069-10.121-5.069-3.364 0-7.038.992-10.618 2.883-6.541 3.472-10.509 9.316-10.509 14.384 0 1.38.294 2.775.992 4.061 1.782 3.27 5.549 4.96 10.121 4.96 3.364 0 7.038-.883 10.618-2.774 6.541-3.472 10.509-9.331 10.509-14.384 0-1.395-.294-2.775-.992-4.061M761.487 364.586c-1.782-3.286-5.549-5.069-10.121-5.069-3.364 0-7.038.992-10.618 2.883-6.541 3.472-10.509 9.316-10.509 14.384 0 1.38.294 2.775.992 4.061 1.783 3.27 5.549 4.96 10.121 4.96 3.364 0 7.038-.883 10.618-2.774 6.541-3.472 10.509-9.331 10.509-14.384 0-1.395-.294-2.775-.992-4.061m50.261-37.2c-1.783-3.286-5.549-5.069-10.121-5.069-3.364 0-7.038.992-10.618 2.883-6.541 3.472-10.509 9.316-10.509 14.384 0 1.38.294 2.775.992 4.061 1.783 3.27 5.549 4.96 10.121 4.96 3.364 0 7.038-.883 10.618-2.774 6.541-3.472 10.509-9.331 10.509-14.384 0-1.395-.294-2.775-.992-4.061m80.418 37.2c-1.783-3.286-5.549-5.069-10.121-5.069-3.364 0-7.038.992-10.618 2.883-6.541 3.472-10.509 9.316-10.509 14.384 0 1.38.294 2.775.992 4.061 1.783 3.27 5.549 4.96 10.121 4.96 3.364 0 7.038-.883 10.618-2.774 6.541-3.472 10.509-9.331 10.509-14.384 0-1.395-.294-2.775-.992-4.061m50.26-37.2c-1.783-3.286-5.549-5.069-10.121-5.069-3.364 0-7.038.992-10.618 2.883-6.541 3.472-10.509 9.316-10.509 14.384 0 1.38.294 2.775.992 4.061 1.783 3.27 5.549 4.96 10.121 4.96 3.364 0 7.038-.883 10.618-2.774 6.541-3.472 10.509-9.331 10.509-14.384 0-1.395-.294-2.775-.992-4.061m80.42 37.2c-1.782-3.286-5.549-5.069-10.121-5.069-3.364 0-7.037.992-10.618 2.883-6.541 3.472-10.509 9.316-10.509 14.384 0 1.38.295 2.775.992 4.061 1.783 3.27 5.549 4.96 10.121 4.96 3.364 0 7.037-.883 10.618-2.774 6.541-3.472 10.509-9.331 10.509-14.384 0-1.395-.294-2.775-.992-4.061m50.26 37.2c-1.782-3.286-5.549-5.069-10.121-5.069-3.364 0-7.037.992-10.618 2.883-6.541 3.472-10.509 9.316-10.509 14.384 0 1.38.294 2.775.992 4.061 1.782 3.27 5.549 4.96 10.121 4.96 3.364 0 7.037-.883 10.618-2.774 6.541-3.472 10.509-9.331 10.509-14.384 0-1.395-.294-2.775-.992-4.061m50.26-37.2c-1.782-3.286-5.549-5.069-10.121-5.069-3.364 0-7.037.992-10.618 2.883-6.541 3.472-10.509 9.316-10.509 14.384 0 1.38.294 2.775.992 4.061 1.782 3.27 5.549 4.96 10.121 4.96 3.364 0 7.037-.883 10.618-2.774 6.541-3.472 10.509-9.331 10.509-14.384 0-1.395-.294-2.775-.992-4.061m100.52-24.8c-1.782-3.286-5.549-5.069-10.121-5.069-3.364 0-7.038.992-10.618 2.883-6.541 3.472-10.509 9.316-10.509 14.384 0 1.38.294 2.775.992 4.061 1.782 3.27 5.549 4.96 10.121 4.96 3.364 0 7.037-.883 10.618-2.774 6.541-3.472 10.509-9.331 10.509-14.384 0-1.395-.294-2.775-.992-4.061m50.26 24.8c-1.782-3.286-5.549-5.069-10.121-5.069-3.364 0-7.038.992-10.618 2.883-6.541 3.472-10.509 9.316-10.509 14.384 0 1.38.294 2.775.992 4.061 1.782 3.27 5.549 4.96 10.121 4.96 3.364 0 7.037-.883 10.618-2.774 6.541-3.472 10.509-9.331 10.509-14.384 0-1.395-.294-2.775-.992-4.061m65.81-24.8c-1.782-3.286-5.549-5.069-10.121-5.069-3.364 0-7.038.992-10.618 2.883-6.541 3.472-10.509 9.316-10.509 14.384 0 1.38.294 2.775.992 4.061 1.782 3.27 5.549 4.96 10.121 4.96 3.364 0 7.037-.883 10.618-2.774 6.541-3.472 10.509-9.331 10.509-14.384 0-1.395-.295-2.775-.992-4.061m65.8 24.8c-1.782-3.286-5.549-5.069-10.121-5.069-3.364 0-7.037.992-10.618 2.883-6.541 3.472-10.509 9.316-10.509 14.384 0 1.38.294 2.775.992 4.061 1.782 3.27 5.549 4.96 10.121 4.96 3.364 0 7.037-.883 10.618-2.774 6.541-3.472 10.509-9.331 10.509-14.384 0-1.395-.294-2.775-.992-4.061m50.26 24.8c-1.782-3.286-5.549-5.069-10.121-5.069-3.364 0-7.037.992-10.618 2.883-6.541 3.472-10.509 9.316-10.509 14.384 0 1.38.294 2.775.992 4.061 1.782 3.27 5.549 4.96 10.121 4.96 3.364 0 7.037-.883 10.618-2.774 6.541-3.472 10.509-9.331 10.509-14.384 0-1.395-.294-2.775-.992-4.061m50.26-37.2c-1.782-3.286-5.549-5.069-10.121-5.069-3.364 0-7.037.992-10.618 2.883-6.541 3.472-10.509 9.316-10.509 14.384 0 1.38.294 2.775.992 4.061 1.782 3.27 5.549 4.96 10.121 4.96 3.364 0 7.037-.883 10.618-2.774 6.541-3.472 10.509-9.331 10.509-14.384 0-1.395-.294-2.775-.992-4.061m106.14 24.8c-1.782-3.286-5.549-5.069-10.121-5.069-3.364 0-7.038.992-10.618 2.883-6.541 3.472-10.509 9.316-10.509 14.384 0 1.38.294 2.775.992 4.061 1.782 3.27 5.549 4.96 10.121 4.96 3.364 0 7.037-.883 10.618-2.774 6.541-3.472 10.509-9.331 10.509-14.384 0-1.395-.294-2.775-.992-4.061m65.8-24.8c-1.782-3.286-5.549-5.069-10.121-5.069-3.364 0-7.038.992-10.618 2.883-6.541 3.472-10.509 9.316-10.509 14.384 0 1.38.294 2.775.992 4.061 1.782 3.27 5.549 4.96 10.121 4.96 3.364 0 7.037-.883 10.618-2.774 6.541-3.472 10.509-9.331 10.509-14.384 0-1.395-.295-2.775-.992-4.061m65.81 12.4c-1.782-3.286-5.549-5.069-10.121-5.069-3.364 0-7.037.992-10.618 2.883-6.541 3.472-10.509 9.316-10.509 14.384 0 1.38.294 2.775.992 4.061 1.782 3.27 5.549 4.96 10.121 4.96 3.364 0 7.037-.883 10.618-2.774 6.541-3.472 10.509-9.331 10.509-14.384 0-1.395-.294-2.775-.992-4.061m90.6-37.2c-1.782-3.286-5.549-5.069-10.121-5.069-3.364 0-7.038.992-10.618 2.883-6.541 3.472-10.509 9.316-10.509 14.384 0 1.38.294 2.775.992 4.061 1.782 3.27 5.549 4.96 10.121 4.96 3.364 0 7.037-.883 10.618-2.774 6.541-3.472 10.509-9.331 10.509-14.384 0-1.395-.294-2.775-.992-4.061m65.8 24.8c-1.782-3.286-5.549-5.069-10.121-5.069-3.364 0-7.038.992-10.618 2.883-6.541 3.472-10.509 9.316-10.509 14.384 0 1.38.294 2.775.992 4.061 1.782 3.27 5.549 4.96 10.121 4.96 3.364 0 7.037-.883 10.618-2.774 6.541-3.472 10.509-9.331 10.509-14.384 0-1.395-.294-2.775-.992-4.061m56.63 12.4c-1.782-3.286-5.549-5.069-10.121-5.069-3.364 0-7.037.992-10.618 2.883-6.541 3.472-10.509 9.316-10.509 14.384 0 1.38.294 2.775.992 4.061 1.782 3.27 5.549 4.96 10.121 4.96 3.364 0 7.037-.883 10.618-2.774 6.541-3.472 10.509-9.331 10.509-14.384 0-1.395-.294-2.775-.992-4.061m56.62 12.4c-1.782-3.286-5.549-5.069-10.121-5.069-3.364 0-7.038.992-10.618 2.883-6.541 3.472-10.509 9.316-10.509 14.384 0 1.38.294 2.775.992 4.061 1.782 3.27 5.549 4.96 10.121 4.96 3.364 0 7.037-.883 10.618-2.774 6.541-3.472 10.509-9.331 10.509-14.384 0-1.395-.294-2.775-.992-4.061m73.06 12.4c-1.782-3.286-5.549-5.069-10.121-5.069-3.364 0-7.038.992-10.618 2.883-6.541 3.472-10.509 9.316-10.509 14.384 0 1.38.294 2.775.992 4.061 1.782 3.27 5.549 4.96 10.121 4.96 3.364 0 7.037-.883 10.618-2.774 6.541-3.472 10.509-9.331 10.509-14.384 0-1.395-.295-2.775-.992-4.061m90.6-24.8c-1.782-3.286-5.549-5.069-10.121-5.069-3.364 0-7.038.992-10.618 2.883-6.541 3.472-10.509 9.316-10.509 14.384 0 1.38.294 2.775.992 4.061 1.782 3.27 5.549 4.96 10.121 4.96 3.364 0 7.037-.883 10.618-2.774 6.541-3.472 10.509-9.331 10.509-14.384 0-1.395-.295-2.775-.992-4.061m73.05 12.4c-1.782-3.286-5.549-5.069-10.121-5.069-3.364 0-7.038.992-10.618 2.883-6.541 3.472-10.509 9.316-10.509 14.384 0 1.38.294 2.775.992 4.061 1.782 3.27 5.549 4.96 10.121 4.96 3.364 0 7.037-.883 10.618-2.774 6.541-3.472 10.509-9.331 10.509-14.384 0-1.395-.295-2.775-.992-4.061m65.8 12.4c-1.782-3.286-5.549-5.069-10.121-5.069-3.364 0-7.038.992-10.618 2.883-6.541 3.472-10.509 9.316-10.509 14.384 0 1.38.294 2.775.992 4.061 1.782 3.27 5.549 4.96 10.121 4.96 3.364 0 7.038-.883 10.618-2.774 6.541-3.472 10.509-9.331 10.509-14.384 0-1.395-.294-2.775-.992-4.061m73.05-12.4c-1.782-3.286-5.549-5.069-10.121-5.069-3.364 0-7.038.992-10.618 2.883-6.541 3.472-10.509 9.316-10.509 14.384 0 1.38.294 2.775.992 4.061 1.782 3.27 5.549 4.96 10.121 4.96 3.364 0 7.037-.883 10.618-2.774 6.541-3.472 10.509-9.331 10.509-14.384 0-1.395-.295-2.775-.992-4.061m56.63-12.4c-1.782-3.286-5.549-5.069-10.121-5.069-3.364 0-7.038.992-10.618 2.883-6.541 3.472-10.509 9.316-10.509 14.384 0 1.38.294 2.775.992 4.061 1.782 3.27 5.549 4.96 10.121 4.96 3.364 0 7.037-.883 10.618-2.774 6.541-3.472 10.509-9.331 10.509-14.384 0-1.395-.295-2.775-.992-4.061m56.63-24.8c-1.782-3.286-5.549-5.069-10.121-5.069-3.364 0-7.038.992-10.618 2.883-6.541 3.472-10.509 9.316-10.509 14.384 0 1.38.294 2.775.992 4.061 1.782 3.27 5.549 4.96 10.121 4.96 3.364 0 7.038-.883 10.618-2.774 6.541-3.472 10.509-9.331 10.509-14.384 0-1.395-.294-2.775-.992-4.061M761.487 96.746c-1.782-3.286-5.549-5.069-10.121-5.069-3.364 0-7.038.992-10.618 2.883-6.541 3.472-10.509 9.316-10.509 14.384 0 1.38.294 2.775.992 4.061 1.783 3.27 5.549 4.96 10.121 4.96 3.364 0 7.038-.883 10.618-2.774 6.541-3.472 10.509-9.331 10.509-14.384 0-1.395-.294-2.775-.992-4.061m50.261 37.2c-1.783-3.286-5.549-5.069-10.121-5.069-3.364 0-7.038.992-10.618 2.883-6.541 3.472-10.509 9.316-10.509 14.384 0 1.38.294 2.775.992 4.061 1.783 3.27 5.549 4.96 10.121 4.96 3.364 0 7.038-.883 10.618-2.774 6.541-3.472 10.509-9.331 10.509-14.384 0-1.395-.294-2.775-.992-4.061m130.678-37.2c-1.783-3.286-5.549-5.069-10.121-5.069-3.364 0-7.038.992-10.618 2.883-6.541 3.472-10.509 9.316-10.509 14.384 0 1.38.294 2.775.992 4.061 1.783 3.27 5.549 4.96 10.121 4.96 3.364 0 7.038-.883 10.618-2.774 6.541-3.472 10.509-9.331 10.509-14.384 0-1.395-.294-2.775-.992-4.061m80.42 12.4c-1.782-3.286-5.549-5.069-10.121-5.069-3.364 0-7.037.992-10.618 2.883-6.541 3.472-10.509 9.316-10.509 14.384 0 1.38.295 2.775.992 4.061 1.783 3.27 5.549 4.96 10.121 4.96 3.364 0 7.037-.883 10.618-2.774 6.541-3.472 10.509-9.331 10.509-14.384 0-1.395-.294-2.775-.992-4.061m50.26-12.4c-1.782-3.286-5.549-5.069-10.121-5.069-3.364 0-7.037.992-10.618 2.883-6.541 3.472-10.509 9.316-10.509 14.384 0 1.38.294 2.775.992 4.061 1.782 3.27 5.549 4.96 10.121 4.96 3.364 0 7.037-.883 10.618-2.774 6.541-3.472 10.509-9.331 10.509-14.384 0-1.395-.294-2.775-.992-4.061m50.26 74.4c-1.782-3.286-5.549-5.069-10.121-5.069-3.364 0-7.037.992-10.618 2.883-6.541 3.472-10.509 9.316-10.509 14.384 0 1.38.294 2.775.992 4.061 1.782 3.27 5.549 4.96 10.121 4.96 3.364 0 7.037-.883 10.618-2.774 6.541-3.472 10.509-9.331 10.509-14.384 0-1.395-.294-2.775-.992-4.061m100.52-62c-1.782-3.286-5.549-5.069-10.121-5.069-3.364 0-7.038.992-10.618 2.883-6.541 3.472-10.509 9.316-10.509 14.384 0 1.38.294 2.775.992 4.061 1.782 3.27 5.549 4.96 10.121 4.96 3.364 0 7.037-.883 10.618-2.774 6.541-3.472 10.509-9.331 10.509-14.384 0-1.395-.294-2.775-.992-4.061m50.26-12.4c-1.782-3.286-5.549-5.069-10.121-5.069-3.364 0-7.038.992-10.618 2.883-6.541 3.472-10.509 9.316-10.509 14.384 0 1.38.294 2.775.992 4.061 1.782 3.27 5.549 4.96 10.121 4.96 3.364 0 7.037-.883 10.618-2.774 6.541-3.472 10.509-9.331 10.509-14.384 0-1.395-.294-2.775-.992-4.061m65.81 0c-1.782-3.286-5.549-5.069-10.121-5.069-3.364 0-7.038.992-10.618 2.883-6.541 3.472-10.509 9.316-10.509 14.384 0 1.38.294 2.775.992 4.061 1.782 3.27 5.549 4.96 10.121 4.96 3.364 0 7.037-.883 10.618-2.774 6.541-3.472 10.509-9.331 10.509-14.384 0-1.395-.295-2.775-.992-4.061m65.8 12.4c-1.782-3.286-5.549-5.069-10.121-5.069-3.364 0-7.037.992-10.618 2.883-6.541 3.472-10.509 9.316-10.509 14.384 0 1.38.294 2.775.992 4.061 1.782 3.27 5.549 4.96 10.121 4.96 3.364 0 7.037-.883 10.618-2.774 6.541-3.472 10.509-9.331 10.509-14.384 0-1.395-.294-2.775-.992-4.061m100.52-12.4c-1.782-3.286-5.549-5.069-10.121-5.069-3.364 0-7.037.992-10.618 2.883-6.541 3.472-10.509 9.316-10.509 14.384 0 1.38.294 2.775.992 4.061 1.782 3.27 5.549 4.96 10.121 4.96 3.364 0 7.037-.883 10.618-2.774 6.541-3.472 10.509-9.331 10.509-14.384 0-1.395-.294-2.775-.992-4.061m106.14 0c-1.782-3.286-5.549-5.069-10.121-5.069-3.364 0-7.038.992-10.618 2.883-6.541 3.472-10.509 9.316-10.509 14.384 0 1.38.294 2.775.992 4.061 1.782 3.27 5.549 4.96 10.121 4.96 3.364 0 7.037-.883 10.618-2.774 6.541-3.472 10.509-9.331 10.509-14.384 0-1.395-.294-2.775-.992-4.061m65.8 37.2c-1.782-3.286-5.549-5.069-10.121-5.069-3.364 0-7.038.992-10.618 2.883-6.541 3.472-10.509 9.316-10.509 14.384 0 1.38.294 2.775.992 4.061 1.782 3.27 5.549 4.96 10.121 4.96 3.364 0 7.037-.883 10.618-2.774 6.541-3.472 10.509-9.331 10.509-14.384 0-1.395-.295-2.775-.992-4.061m65.81-24.8c-1.782-3.286-5.549-5.069-10.121-5.069-3.364 0-7.037.992-10.618 2.883-6.541 3.472-10.509 9.316-10.509 14.384 0 1.38.294 2.775.992 4.061 1.782 3.27 5.549 4.96 10.121 4.96 3.364 0 7.037-.883 10.618-2.774 6.541-3.472 10.509-9.331 10.509-14.384 0-1.395-.294-2.775-.992-4.061m90.6 24.8c-1.782-3.286-5.549-5.069-10.121-5.069-3.364 0-7.038.992-10.618 2.883-6.541 3.472-10.509 9.316-10.509 14.384 0 1.38.294 2.775.992 4.061 1.782 3.27 5.549 4.96 10.121 4.96 3.364 0 7.037-.883 10.618-2.774 6.541-3.472 10.509-9.331 10.509-14.384 0-1.395-.294-2.775-.992-4.061m65.8-12.4c-1.782-3.286-5.549-5.069-10.121-5.069-3.364 0-7.038.992-10.618 2.883-6.541 3.472-10.509 9.316-10.509 14.384 0 1.38.294 2.775.992 4.061 1.782 3.27 5.549 4.96 10.121 4.96 3.364 0 7.037-.883 10.618-2.774 6.541-3.472 10.509-9.331 10.509-14.384 0-1.395-.294-2.775-.992-4.061m186.31-24.8c-1.782-3.286-5.549-5.069-10.121-5.069-3.364 0-7.038.992-10.618 2.883-6.541 3.472-10.509 9.316-10.509 14.384 0 1.38.294 2.775.992 4.061 1.782 3.27 5.549 4.96 10.121 4.96 3.364 0 7.037-.883 10.618-2.774 6.541-3.472 10.509-9.331 10.509-14.384 0-1.395-.295-2.775-.992-4.061m90.6 37.2c-1.782-3.286-5.549-5.069-10.121-5.069-3.364 0-7.038.992-10.618 2.883-6.541 3.472-10.509 9.316-10.509 14.384 0 1.38.294 2.775.992 4.061 1.782 3.27 5.549 4.96 10.121 4.96 3.364 0 7.037-.883 10.618-2.774 6.541-3.472 10.509-9.331 10.509-14.384 0-1.395-.295-2.775-.992-4.061m73.05-12.4c-1.782-3.286-5.549-5.069-10.121-5.069-3.364 0-7.038.992-10.618 2.883-6.541 3.472-10.509 9.316-10.509 14.384 0 1.38.294 2.775.992 4.061 1.782 3.27 5.549 4.96 10.121 4.96 3.364 0 7.037-.883 10.618-2.774 6.541-3.472 10.509-9.331 10.509-14.384 0-1.395-.295-2.775-.992-4.061m65.8-12.4c-1.782-3.286-5.549-5.069-10.121-5.069-3.364 0-7.038.992-10.618 2.883-6.541 3.472-10.509 9.316-10.509 14.384 0 1.38.294 2.775.992 4.061 1.782 3.27 5.549 4.96 10.121 4.96 3.364 0 7.038-.883 10.618-2.774 6.541-3.472 10.509-9.331 10.509-14.384 0-1.395-.294-2.775-.992-4.061m73.05 0c-1.782-3.286-5.549-5.069-10.121-5.069-3.364 0-7.038.992-10.618 2.883-6.541 3.472-10.509 9.316-10.509 14.384 0 1.38.294 2.775.992 4.061 1.782 3.27 5.549 4.96 10.121 4.96 3.364 0 7.037-.883 10.618-2.774 6.541-3.472 10.509-9.331 10.509-14.384 0-1.395-.295-2.775-.992-4.061m56.63 24.8c-1.782-3.286-5.549-5.069-10.121-5.069-3.364 0-7.038.992-10.618 2.883-6.541 3.472-10.509 9.316-10.509 14.384 0 1.38.294 2.775.992 4.061 1.782 3.27 5.549 4.96 10.121 4.96 3.364 0 7.037-.883 10.618-2.774 6.541-3.472 10.509-9.331 10.509-14.384 0-1.395-.295-2.775-.992-4.061" style="stroke-width:.992001"/>
  <path class="Clef" d="M399.693 540.398c-7.548 0-13.594 4.355-13.702 4.355-5.75 4.263-8.029 9.331-8.928 12.803-.496 1.783-.682 3.565-.682 5.255 0 2.387.388 4.557 1.287 6.448 1.193 2.681 3.472 4.557 6.448 5.549 1.193.403 2.48.604 3.766.604 2.185 0 4.464-.604 6.355-1.69 3.069-1.689 4.96-5.254 4.96-9.129 0-3.472-1.798-6.65-4.774-8.525-2.077-1.395-4.061-1.782-5.75-1.782-1.194 0-2.279.186-3.178.496-.992.387-2.666 1.38-3.472 2.077.31-1.891 1.488-4.759 2.588-6.355 1.086-1.581 3.271-3.565 4.96-4.464 2.48-1.38 5.658-1.984 9.13-1.984 10.122 0 15.082 8.137 15.082 24.8 0 9.238-3.472 18.057-6.448 23.916-3.286 6.541-7.642 12.803-11.517 16.275-10.323 9.424-20.041 13.888-20.134 13.888 0 0-1.489.884-1.101 2.372.31.992 1.194 1.193 1.798 1.193.093 0 .388-.093.496-.093.093 0 11.408-4.665 20.429-11.718 5.069-3.658 9.626-7.626 13.594-11.904a73.558 73.558 0 0 0 9.13-12.198c4.355-7.44 6.835-15.175 6.835-21.824 0-8.23-2.17-15.082-6.247-19.933-4.665-5.565-11.702-8.432-20.925-8.432m31.14 12.586c0 2.79 2.185 4.96 4.774 4.96 2.573 0 4.758-2.17 4.758-4.96 0-2.775-2.185-5.053-4.758-5.053-2.589 0-4.774 2.278-4.774 5.053m0 24.505c0 2.775 2.185 5.069 4.774 5.069 2.573 0 4.758-2.294 4.758-5.069 0-2.774-2.185-5.053-4.758-5.053-2.589 0-4.774 2.279-4.774 5.053m-47.911-251.405h-7.145c-.698 0-1.287.604-1.287 1.286v90.288c0 .697.589 1.286 1.287 1.286h7.145c.698 0 1.287-.589 1.287-1.286V327.37c0-.682-.59-1.286-1.287-1.286m35.712 50.499h-1.488c-2.278 0-3.968.201-7.827 2.573 0 0-2.186-4.356-5.456-6.634 3.27-2.294 5.456-6.65 5.456-6.65 3.859 2.372 5.549 2.573 7.827 2.573h1.488c12.106 0 18.058-11.206 18.058-21.917 0-13.888-10.215-21.73-22.227-21.73-10.912 0-15.47 5.455-15.47 5.455-1.782 2.186-2.588 4.557-2.588 6.743 0 1.782.496 3.472 1.488 4.96 1.395 1.984 4.17 3.084 6.758 3.084 1.783 0 3.472-.496 4.666-1.488 1.674-1.488 2.774-3.673 2.774-6.06 0-1.38-.403-2.775-1.1-4.061-1.581-2.883-4.557-3.27-6.138-3.27-.605 0-1.101.092-1.101.092 2.279-1.58 5.363-2.48 8.432-2.48 2.775 0 5.456.698 7.347 2.077 3.472 2.589 4.759 8.045 4.759 15.19 0 7.642-.202 18.74-8.928 18.74-8.727 0-10.71-10.416-10.71-10.416s0-1.38-1.396-1.38c-1.38 0-1.488 1.38-1.488 1.38s-.79 5.068-3.472 11.222c-1.58 3.658-3.968 5.347-5.657 6.045v-43.26c0-.683-.496-1.287-1.194-1.287-.682 0-1.286.604-1.286 1.286v90.288c0 .697.604 1.286 1.286 1.286.698 0 1.194-.589 1.194-1.286v-43.26c1.689.697 4.076 2.386 5.657 6.06 2.682 6.138 3.472 11.3 3.472 11.3s.109 1.286 1.488 1.286c1.395 0 1.395-1.287 1.395-1.287s1.984-10.509 10.71-10.509c8.727 0 8.929 11.114 8.929 18.755 0 7.13-1.287 12.586-4.759 15.175-1.891 1.38-4.572 2.077-7.347 2.077-3.069 0-6.153-.884-8.432-2.48 0 0 .496.108 1.1.108 1.582 0 4.558-.403 6.139-3.286.697-1.286 1.1-2.666 1.1-4.06 0-2.388-1.1-4.558-2.774-6.046-1.194-.992-2.883-1.488-4.666-1.488-2.588 0-5.363 1.085-6.758 3.07a8.832 8.832 0 0 0-1.488 4.96c0 2.185.806 4.556 2.589 6.742 0 0 4.557 5.456 15.469 5.456 12.012 0 22.227-7.828 22.227-21.716 0-10.726-5.952-21.932-18.058-21.932M437.343 173.3c-1.225-5.378-3.844-9.176-4.62-10.199-3.161-4.247-7.145-7.068-11.795-8.416-3.084-.868-6.06-.992-8.463-.806a2313.899 2313.899 0 0 1-2.93-17.205c5.41-6.123 9.006-11.873 11.269-16.136 3.441-6.525 4.573-11.067 4.635-11.268 1.705-5.177 2.061-12.819.96-20.956-.991-7.487-3.068-14.151-5.409-17.375-1.007-1.411-2.061-2.14-3.084-2.14-1.21 0-3.705 1.225-6.572 3.984-2.279 2.17-5.518 6.03-8.06 11.997-2.976 7.006-3.193 16.414-2.837 23.08.372 7.222 1.473 12.864 1.488 12.91.016.094.279 1.582.713 4.124-.217.232-.465.45-.713.697-1.023.992-2.201 2.108-3.58 3.488-.853.852-1.798 1.751-2.79 2.712-8.37 8.076-21.065 20.305-21.065 39.308 0 4.666.899 9.052 2.666 13.036 1.566 3.565 3.844 6.82 6.758 9.672 7.673 7.502 18.182 10.68 25.172 10.524 2.93-.077 5.55-.31 7.92-.76 1.814 9.533 2.946 16.508 2.977 21.81.046 6.463-1.597 10.415-5.456 13.159-2.418 1.72-5.208 2.666-8.277 2.805-2.573.124-4.82-.34-6.231-.744h-.016s-.279-.093-.294-.279c-.016-.186.34-.232.34-.232h.031c1.907-.434 5.441-1.659 7.781-4.93 1.783-2.51 2.651-7.098.822-11.004-1.1-2.372-3.58-5.301-9.16-5.75-2.48-.202-4.728.31-6.712 1.503-1.798 1.07-3.286 2.697-4.325 4.68-2.433 4.666-1.984 10.355 1.116 14.168 2.945 3.596 7.518 5.89 12.912 6.463.852.093 1.69.124 2.526.124 4.402 0 8.758-1.193 12.307-3.379 3.627-2.557 5.735-6.51 6.402-12.09.558-4.603.17-10.478-1.209-18.491-.357-2.077-.899-5.084-1.55-8.804 5.704-1.907 9.827-5.456 13.563-11.269 3.27-5.688 4.2-11.749 2.79-18.01m-33.946 26.008c-4.603-1.209-9.005-3.689-12.725-7.176-1.302-1.21-3.162-3.364-4.619-6.727-1.349-3.147-2.015-6.557-1.953-10.106.062-4.666 1.364-9.455 3.844-14.198 2.898-5.534 7.424-11.02 13.438-16.306a89.204 89.204 0 0 0 4.077-3.813c.76 4.231 1.581 8.881 2.449 13.717-3.813 1.256-8.525 4.387-11.61 9.998-3.518 6.51-3.379 11.997-2.65 15.453.93 4.418 3.441 8.153 6.866 10.23.93.558 5.022 2.666 6.851 2.093a1.16 1.16 0 0 0 .775-.667c.512-1.162-.511-1.798-2.046-2.743a27.275 27.275 0 0 1-1.984-1.318c-3.301-2.464-4.743-6.882-3.673-11.237a12.436 12.436 0 0 1 3.673-6.216c1.643-1.534 3.674-2.62 6.03-3.255 2.03 11.16 4.076 22.227 5.704 30.52.124.682.263 1.348.387 2.015-4.34.93-8.649.837-12.834-.264m11.238-32.937c10.261-.465 14.492 6.913 15.376 11.702.465 2.527.465 6.929-1.07 11.114-1.162 3.146-3.596 7.192-8.695 9.238a36.35 36.35 0 0 0-.217-1.271c-1.535-8.711-3.457-19.623-5.394-30.783m-7.27-70.386c1.767-5.688 4.48-8.912 6.464-10.633 1.736-1.503 3.363-2.216 4.278-2.216.14 0 .263.03.356.062.465.14.992.697 1.457 1.565 2.294 4.247 1.55 10.912.217 15.314-1.612 5.363-4.51 10.928-13.237 20.46-.17-1.1-.325-2.139-.48-3.115-1.24-8.215-.915-15.438.945-21.437" style="stroke-width:.992001"/>
  <path class="KeySig" d="M612.269 567.182c.604-.109 1.1-.806 1.1-1.395v-5.86c0-.79-.604-1.379-1.395-1.379h-.201l-3.271.698v-14.787h-2.775v15.376l-8.834 1.782v-13.98h-2.775v14.585l-3.875.79c-.589.093-1.085.79-1.085 1.38v5.951-.185c0 .79.589 1.38 1.395 1.38h.295l3.27-.698v16.368l-3.875.806c-.589.093-1.085.79-1.085 1.38v5.75c0 .806.589 1.395 1.395 1.395h.295l3.27-.698v14.787h2.775v-15.376l8.834-1.782v13.98h2.775v-14.585l3.767-.697c.604-.093 1.1-.79 1.1-1.38v-5.859c0-.79-.604-1.38-1.395-1.38h-.201l-3.271.683v-16.368l3.767-.682m-15.376 19.53V570.25l8.834-1.783v16.368l-8.834 1.876m-9.424 30.071c.604-.109 1.1-.806 1.1-1.395v-5.86c0-.79-.604-1.379-1.395-1.379h-.201l-3.271.698v-14.787h-2.775v15.376l-8.834 1.782v-13.98h-2.775v14.585l-3.875.79c-.589.093-1.085.79-1.085 1.38v5.951-.185c0 .79.589 1.38 1.395 1.38h.295l3.27-.698v16.368l-3.875.806c-.589.093-1.085.79-1.085 1.38v5.75c0 .806.589 1.395 1.395 1.395h.295l3.27-.698v14.787h2.775v-15.376l8.834-1.782v13.98h2.775v-14.585l3.767-.697c.604-.093 1.1-.79 1.1-1.38v-5.859c0-.79-.604-1.38-1.395-1.38h-.201l-3.271.683v-16.368l3.767-.682m-15.376 19.53V619.85l8.834-1.783v16.368l-8.834 1.876m-9.424-56.729c.604-.109 1.1-.806 1.1-1.395v-5.86c0-.79-.604-1.379-1.395-1.379h-.201l-3.271.698v-14.787h-2.775v15.376l-8.834 1.782v-13.98h-2.775v14.585l-3.875.79c-.589.093-1.085.79-1.085 1.38v5.951-.185c0 .79.589 1.38 1.395 1.38h.295l3.27-.698v16.368l-3.875.806c-.589.093-1.085.79-1.085 1.38v5.75c0 .806.589 1.395 1.395 1.395h.295l3.27-.698v14.787h2.775v-15.376l8.834-1.782v13.98h2.775v-14.585l3.767-.697c.604-.093 1.1-.79 1.1-1.38v-5.859c0-.79-.604-1.38-1.395-1.38h-.201l-3.271.683v-16.368l3.767-.682m-15.376 19.53V582.65l8.834-1.783v16.368l-8.834 1.876m-9.424-56.729c.604-.109 1.1-.806 1.1-1.395v-5.86c0-.79-.604-1.379-1.395-1.379h-.201l-3.271.698v-14.787h-2.775v15.376l-8.834 1.782v-13.98h-2.775v14.585l-3.875.79c-.589.093-1.085.79-1.085 1.38v5.951-.185c0 .79.589 1.38 1.395 1.38h.295l3.27-.698v16.368l-3.875.806c-.589.093-1.085.79-1.085 1.38v5.75c0 .806.589 1.395 1.395 1.395h.295l3.27-.698v14.787h2.775v-15.376l8.834-1.782v13.98h2.775v-14.585l3.767-.697c.604-.093 1.1-.79 1.1-1.38v-5.859c0-.79-.604-1.38-1.395-1.38h-.201l-3.271.683v-16.368l3.767-.682m-15.376 19.53V545.45l8.834-1.783v16.368l-8.834 1.876m-9.424 30.071c.604-.109 1.1-.806 1.1-1.395v-5.86c0-.79-.604-1.379-1.395-1.379h-.201l-3.271.698v-14.787h-2.775v15.376l-8.834 1.782v-13.98h-2.775v14.585l-3.875.79c-.589.093-1.085.79-1.085 1.38v5.951-.185c0 .79.589 1.38 1.395 1.38h.295l3.27-.698v16.368l-3.875.806c-.589.093-1.085.79-1.085 1.38v5.75c0 .806.589 1.395 1.395 1.395h.295l3.27-.698v14.787h2.775v-15.376l8.834-1.782v13.98h2.775v-14.585l3.767-.697c.604-.093 1.1-.79 1.1-1.38v-5.859c0-.79-.604-1.38-1.395-1.38h-.201l-3.271.683v-16.368l3.767-.682m-15.376 19.53V595.05l8.834-1.783v16.368l-8.834 1.876m-9.424-56.729c.604-.109 1.1-.806 1.1-1.395v-5.86c0-.79-.604-1.379-1.395-1.379h-.201l-3.271.698v-14.787h-2.775v15.376l-8.834 1.782v-13.98h-2.775v14.585l-3.875.79c-.589.093-1.085.79-1.085 1.38v5.951-.185c0 .79.589 1.38 1.395 1.38h.295l3.27-.698v16.368l-3.875.806c-.589.093-1.085.79-1.085 1.38v5.75c0 .806.589 1.395 1.395 1.395h.295l3.27-.698v14.787h2.775v-15.376l8.834-1.782v13.98h2.775v-14.585l3.767-.697c.604-.093 1.1-.79 1.1-1.38v-5.859c0-.79-.604-1.38-1.395-1.38h-.201l-3.271.683v-16.368l3.767-.682m-15.376 19.53V557.85l8.834-1.783v16.368l-8.834 1.876m139.376-237.005c.604-.109 1.1-.806 1.1-1.395v-5.86c0-.79-.604-1.379-1.395-1.379h-.201l-3.271.698v-14.787h-2.775v15.376l-8.834 1.782v-13.98h-2.775v14.585l-3.875.79c-.589.093-1.085.79-1.085 1.38v5.951-.185c0 .79.589 1.38 1.395 1.38h.295l3.27-.698v16.368l-3.875.806c-.589.093-1.085.79-1.085 1.38v5.75c0 .806.589 1.395 1.395 1.395h.295l3.27-.698v14.787h2.775v-15.376l8.834-1.782v13.98h2.775V362.99l3.767-.697c.604-.093 1.1-.79 1.1-1.38v-5.859c0-.79-.604-1.38-1.395-1.38h-.201l-3.271.683v-16.368l3.767-.682m-15.376 19.53v-16.461l8.834-1.783v16.368l-8.834 1.876m-9.424 30.069c.604-.109 1.1-.806 1.1-1.395v-5.86c0-.79-.604-1.379-1.395-1.379h-.201l-3.271.698v-14.787h-2.775v15.376l-8.834 1.782v-13.98h-2.775v14.585l-3.875.79c-.589.093-1.085.79-1.085 1.38v5.951-.185c0 .79.589 1.38 1.395 1.38h.295l3.27-.698v16.368l-3.875.806c-.589.093-1.085.79-1.085 1.38v5.75c0 .806.589 1.395 1.395 1.395h.295l3.27-.698v14.787h2.775v-15.376l8.834-1.782v13.98h2.775V412.59l3.767-.697c.604-.093 1.1-.79 1.1-1.38v-5.859c0-.79-.604-1.38-1.395-1.38h-.201l-3.271.683v-16.368l3.767-.682m-15.376 19.53v-16.461l8.834-1.783v16.368l-8.834 1.876m-9.424-56.731c.604-.109 1.1-.806 1.1-1.395v-5.86c0-.79-.604-1.379-1.395-1.379h-.201l-3.271.698v-14.787h-2.775v15.376l-8.834 1.782v-13.98h-2.775v14.585l-3.875.79c-.589.093-1.085.79-1.085 1.38v5.951-.185c0 .79.589 1.38 1.395 1.38h.295l3.27-.698v16.368l-3.875.806c-.589.093-1.085.79-1.085 1.38v5.75c0 .806.589 1.395 1.395 1.395h.295l3.27-.698v14.787h2.775v-15.376l8.834-1.782v13.98h2.775V375.39l3.767-.697c.604-.093 1.1-.79 1.1-1.38v-5.859c0-.79-.604-1.38-1.395-1.38h-.201l-3.271.683v-16.368l3.767-.682m-15.376 19.53v-16.461l8.834-1.783v16.368l-8.834 1.876m-9.424-56.731c.604-.109 1.1-.806 1.1-1.395v-5.86c0-.79-.604-1.379-1.395-1.379h-.201l-3.271.698v-14.787h-2.775v15.376l-8.834 1.782v-13.98h-2.775v14.585l-3.875.79c-.589.093-1.085.79-1.085 1.38v5.951-.185c0 .79.589 1.38 1.395 1.38h.295l3.27-.698v16.368l-3.875.806c-.589.093-1.085.79-1.085 1.38v5.75c0 .806.589 1.395 1.395 1.395h.295l3.27-.698v14.787h2.775v-15.376l8.834-1.782v13.98h2.775V338.19l3.767-.697c.604-.093 1.1-.79 1.1-1.38v-5.859c0-.79-.604-1.38-1.395-1.38h-.201l-3.271.683v-16.368l3.767-.682m-15.376 19.53v-16.461l8.834-1.783v16.368l-8.834 1.876m-9.424 30.069c.604-.109 1.1-.806 1.1-1.395v-5.86c0-.79-.604-1.379-1.395-1.379h-.201l-3.271.698v-14.787h-2.775v15.376l-8.834 1.782v-13.98h-2.775v14.585l-3.875.79c-.589.093-1.085.79-1.085 1.38v5.951-.185c0 .79.589 1.38 1.395 1.38h.295l3.27-.698v16.368l-3.875.806c-.589.093-1.085.79-1.085 1.38v5.75c0 .806.589 1.395 1.395 1.395h.295l3.27-.698v14.787h2.775v-15.376l8.834-1.782v13.98h2.775V387.79l3.767-.697c.604-.093 1.1-.79 1.1-1.38v-5.859c0-.79-.604-1.38-1.395-1.38h-.201l-3.271.683v-16.368l3.767-.682m-15.376 19.53v-16.461l8.834-1.783v16.368l-8.834 1.876m-9.424-56.731c.604-.109 1.1-.806 1.1-1.395v-5.86c0-.79-.604-1.379-1.395-1.379h-.201l-3.271.698v-14.787h-2.775v15.376l-8.834 1.782v-13.98h-2.775v14.585l-3.875.79c-.589.093-1.085.79-1.085 1.38v5.951-.185c0 .79.589 1.38 1.395 1.38h.295l3.27-.698v16.368l-3.875.806c-.589.093-1.085.79-1.085 1.38v5.75c0 .806.589 1.395 1.395 1.395h.295l3.27-.698v14.787h2.775v-15.376l8.834-1.782v13.98h2.775V350.59l3.767-.697c.604-.093 1.1-.79 1.1-1.38v-5.859c0-.79-.604-1.38-1.395-1.38h-.201l-3.271.683v-16.368l3.767-.682m-15.376 19.53v-16.461l8.834-1.783v16.368l-8.834 1.876m139.376-237.771c.604-.109 1.1-.806 1.1-1.395v-5.86c0-.79-.604-1.379-1.395-1.379h-.201l-3.271.698V83.943h-2.775v15.376l-8.834 1.782v-13.98h-2.775v14.585l-3.875.79c-.589.093-1.085.79-1.085 1.38v5.951-.185c0 .79.589 1.38 1.395 1.38h.295l3.27-.698v16.368l-3.875.806c-.589.093-1.085.79-1.085 1.38v5.75c0 .806.589 1.395 1.395 1.395h.295l3.27-.698v14.787h2.775v-15.376l8.834-1.782v13.98h2.775V132.35l3.767-.697c.604-.093 1.1-.79 1.1-1.38v-5.859c0-.79-.604-1.38-1.395-1.38h-.201l-3.271.683v-16.368l3.767-.682m-15.376 19.53v-16.461l8.834-1.783v16.368l-8.834 1.876m-9.424 30.069c.604-.109 1.1-.806 1.1-1.395v-5.86c0-.79-.604-1.379-1.395-1.379h-.201l-3.271.698v-14.787h-2.775v15.376l-8.834 1.782v-13.98h-2.775v14.585l-3.875.79c-.589.093-1.085.79-1.085 1.38v5.951-.185c0 .79.589 1.38 1.395 1.38h.295l3.27-.698v16.368l-3.875.806c-.589.093-1.085.79-1.085 1.38v5.75c0 .806.589 1.395 1.395 1.395h.295l3.27-.698v14.787h2.775v-15.376l8.834-1.782v13.98h2.775V181.95l3.767-.697c.604-.093 1.1-.79 1.1-1.38v-5.859c0-.79-.604-1.38-1.395-1.38h-.201l-3.271.683v-16.368l3.767-.682m-15.376 19.53v-16.461l8.834-1.783v16.368l-8.834 1.876m-9.424-56.731c.604-.109 1.1-.806 1.1-1.395v-5.86c0-.79-.604-1.379-1.395-1.379h-.201l-3.271.698V96.343h-2.775v15.376l-8.834 1.782v-13.98h-2.775v14.585l-3.875.79c-.589.093-1.085.79-1.085 1.38v5.951-.185c0 .79.589 1.38 1.395 1.38h.295l3.27-.698v16.368l-3.875.806c-.589.093-1.085.79-1.085 1.38v5.75c0 .806.589 1.395 1.395 1.395h.295l3.27-.698v14.787h2.775v-15.376l8.834-1.782v13.98h2.775V144.75l3.767-.697c.604-.093 1.1-.79 1.1-1.38v-5.859c0-.79-.604-1.38-1.395-1.38h-.201l-3.271.683v-16.368l3.767-.682m-15.376 19.53v-16.461l8.834-1.783v16.368l-8.834 1.876m-9.424-56.731c.604-.109 1.1-.806 1.1-1.395v-5.86c0-.79-.604-1.379-1.395-1.379h-.201l-3.271.698V59.143h-2.775v15.376l-8.834 1.782v-13.98h-2.775v14.585l-3.875.79c-.589.093-1.085.79-1.085 1.38v5.951-.185c0 .79.589 1.38 1.395 1.38h.295l3.27-.698v16.368l-3.875.806c-.589.093-1.085.79-1.085 1.38v5.75c0 .806.589 1.395 1.395 1.395h.295l3.27-.698v14.787h2.775v-15.376l8.834-1.782v13.98h2.775V107.55l3.767-.697c.604-.093 1.1-.79 1.1-1.38v-5.859c0-.79-.604-1.38-1.395-1.38h-.201l-3.271.683V82.548l3.767-.682m-15.376 19.53V84.935l8.834-1.783V99.52l-8.834 1.876m-9.424 30.07c.604-.109 1.1-.806 1.1-1.395v-5.86c0-.79-.604-1.379-1.395-1.379h-.201l-3.271.698v-14.787h-2.775v15.376l-8.834 1.782v-13.98h-2.775v14.585l-3.875.79c-.589.093-1.085.79-1.085 1.38v5.951-.185c0 .79.589 1.38 1.395 1.38h.295l3.27-.698v16.368l-3.875.806c-.589.093-1.085.79-1.085 1.38v5.75c0 .806.589 1.395 1.395 1.395h.295l3.27-.698v14.787h2.775v-15.376l8.834-1.782v13.98h2.775V157.15l3.767-.697c.604-.093 1.1-.79 1.1-1.38v-5.859c0-.79-.604-1.38-1.395-1.38h-.201l-3.271.683v-16.368l3.767-.682m-15.376 19.53v-16.461l8.834-1.783v16.368l-8.834 1.876m-9.424-56.731c.604-.109 1.1-.806 1.1-1.395v-5.86c0-.79-.604-1.379-1.395-1.379h-.201l-3.271.698V71.543h-2.775v15.376l-8.834 1.782v-13.98h-2.775v14.585l-3.875.79c-.589.093-1.085.79-1.085 1.38v5.951-.185c0 .79.589 1.38 1.395 1.38h.295l3.27-.698v16.368l-3.875.806c-.589.093-1.085.79-1.085 1.38v5.75c0 .806.589 1.395 1.395 1.395h.295l3.27-.698v14.787h2.775v-15.376l8.834-1.782v13.98h2.775V119.95l3.767-.697c.604-.093 1.1-.79 1.1-1.38v-5.859c0-.79-.604-1.38-1.395-1.38h-.201l-3.271.683V94.948l3.767-.682m-15.376 19.53V97.335l8.834-1.783v16.368l-8.834 1.876" style="stroke-width:.992001"/>
  <path class="TimeSig" d="M640.362 577.946h17.035v7.393h-8.153c-.776 0-1.411.62-1.411 1.395v1.891c0 .775.635 1.395 1.41 1.395h30.009a1.39 1.39 0 0 0 1.395-1.395v-1.89a1.39 1.39 0 0 0-1.395-1.396h-8.866v-7.393h8.866a1.39 1.39 0 0 0 1.395-1.395v-1.891a1.39 1.39 0 0 0-1.395-1.395h-8.866v-15.841c0-.527-.31-1.008-.775-1.24l-1.21-.605a1.446 1.446 0 0 0-1.58.233l-8.975 8.246c-.279.279-.45.635-.45 1.038v8.169h-11.423s11.036-11.935 22.785-27.575c.853-1.147.357-2.185.17-2.371l-2.154-2.186a1.41 1.41 0 0 0-.992-.418c-.589 0-14.043.03-14.756 0-.713-.016-1.24.604-1.318 1.209 0 0-.526 7.3-3.115 15.376-2.573 8.044-5.487 12.989-8.122 16.585 0 0-.542.976-.186 1.72.341.744.977 1.814.977 1.814s.248.527 1.1.527m0 49.337h17.035v7.393h-8.153c-.776 0-1.411.62-1.411 1.395v1.891c0 .775.635 1.395 1.41 1.395h30.009a1.39 1.39 0 0 0 1.395-1.395v-1.89a1.39 1.39 0 0 0-1.395-1.396h-8.866v-7.393h8.866a1.39 1.39 0 0 0 1.395-1.395v-1.891a1.39 1.39 0 0 0-1.395-1.395h-8.866V606.76c0-.527-.31-1.008-.775-1.24l-1.21-.605a1.446 1.446 0 0 0-1.58.233l-8.975 8.246c-.279.279-.45.635-.45 1.038v8.169h-11.423s11.036-11.935 22.785-27.575c.853-1.147.357-2.185.17-2.371l-2.154-2.186a1.41 1.41 0 0 0-.992-.418c-.589 0-14.043.03-14.756 0-.713-.016-1.24.604-1.318 1.209 0 0-.526 7.3-3.115 15.376-2.573 8.044-5.487 12.989-8.122 16.585 0 0-.542.976-.186 1.72.341.744.977 1.814.977 1.814s.248.527 1.1.527m0-266.812h17.035v7.394h-8.153c-.776 0-1.411.62-1.411 1.395v1.891c0 .775.635 1.395 1.41 1.395h30.009a1.39 1.39 0 0 0 1.395-1.395v-1.89a1.39 1.39 0 0 0-1.395-1.396h-8.866v-7.393h8.866a1.39 1.39 0 0 0 1.395-1.395v-1.891a1.39 1.39 0 0 0-1.395-1.395h-8.866v-15.841c0-.527-.31-1.008-.775-1.24l-1.21-.605a1.446 1.446 0 0 0-1.58.233l-8.975 8.246c-.279.279-.45.635-.45 1.038v8.169h-11.423s11.036-11.935 22.785-27.575c.853-1.147.357-2.185.17-2.371l-2.154-2.186a1.41 1.41 0 0 0-.992-.418c-.589 0-14.043.03-14.756 0-.713-.016-1.24.604-1.318 1.209 0 0-.526 7.3-3.115 15.376-2.573 8.044-5.487 12.989-8.122 16.585 0 0-.542.976-.186 1.72.341.744.977 1.814.977 1.814s.248.527 1.1.527m0 49.336h17.035v7.393h-8.153c-.776 0-1.411.62-1.411 1.395v1.891c0 .775.635 1.395 1.41 1.395h30.009a1.39 1.39 0 0 0 1.395-1.395v-1.89a1.39 1.39 0 0 0-1.395-1.396h-8.866v-7.393h8.866a1.39 1.39 0 0 0 1.395-1.395v-1.891a1.39 1.39 0 0 0-1.395-1.395h-8.866v-15.841c0-.527-.31-1.008-.775-1.24l-1.21-.605a1.446 1.446 0 0 0-1.58.233l-8.975 8.246c-.279.279-.45.635-.45 1.038v8.169h-11.423s11.036-11.935 22.785-27.575c.853-1.147.357-2.185.17-2.371l-2.154-2.186a1.41 1.41 0 0 0-.992-.418c-.589 0-14.043.03-14.756 0-.713-.016-1.24.604-1.318 1.209 0 0-.526 7.3-3.115 15.376-2.573 8.044-5.487 12.989-8.122 16.585 0 0-.542.976-.186 1.72.341.744.977 1.814.977 1.814s.248.527 1.1.527m0-267.577h17.035v7.393h-8.153c-.776 0-1.411.62-1.411 1.395v1.891c0 .775.635 1.395 1.41 1.395h30.009a1.39 1.39 0 0 0 1.395-1.395v-1.89a1.39 1.39 0 0 0-1.395-1.396h-8.866v-7.393h8.866a1.39 1.39 0 0 0 1.395-1.395v-1.891a1.39 1.39 0 0 0-1.395-1.395h-8.866v-15.841c0-.527-.31-1.008-.775-1.24l-1.21-.605a1.446 1.446 0 0 0-1.58.233l-8.975 8.246c-.279.279-.45.635-.45 1.038v8.169h-11.423s11.036-11.935 22.785-27.575c.853-1.147.357-2.185.17-2.371l-2.154-2.186a1.41 1.41 0 0 0-.992-.418c-.589 0-14.043.03-14.756 0-.713-.016-1.24.604-1.318 1.209 0 0-.526 7.3-3.115 15.376-2.573 8.044-5.487 12.989-8.122 16.585 0 0-.542.976-.186 1.72.341.744.977 1.814.977 1.814s.248.527 1.1.527m0 49.337h17.035v7.393h-8.153c-.776 0-1.411.62-1.411 1.395v1.891c0 .775.635 1.395 1.41 1.395h30.009a1.39 1.39 0 0 0 1.395-1.395v-1.89a1.39 1.39 0 0 0-1.395-1.396h-8.866v-7.393h8.866a1.39 1.39 0 0 0 1.395-1.395v-1.891a1.39 1.39 0 0 0-1.395-1.395h-8.866v-15.841c0-.527-.31-1.008-.775-1.24l-1.21-.605a1.446 1.446 0 0 0-1.58.233l-8.975 8.246c-.279.279-.45.635-.45 1.038v8.169h-11.423s11.036-11.935 22.785-27.575c.853-1.147.357-2.185.17-2.371l-2.154-2.186a1.41 1.41 0 0 0-.992-.418c-.589 0-14.043.03-14.756 0-.713-.016-1.24.604-1.318 1.209 0 0-.526 7.3-3.115 15.376-2.573 8.044-5.487 12.989-8.122 16.585 0 0-.542.976-.186 1.72.341.744.977 1.814.977 1.814s.248.527 1.1.527" style="stroke-width:.992001"/>
  <path class="Rest" d="M894.12 569.987c-.745-.263-1.411.093-1.721.713-.295.605-3.1 5.999-7.378 9.378-1.333 1.054-2.883 1.736-4.433 2.123a7.077 7.077 0 0 0 1.627-4.758 7.07 7.07 0 0 0-7.316-6.82c-3.906.14-6.975 3.41-6.835 7.316a7.077 7.077 0 0 0 4.696 6.417c1.55.682 3.441 1.038 5.471.976 2.822-.108 5.875-1.038 8.495-3.1 1.224-.96 2.371-2.185 3.394-3.472v.016l-4.464 15.779s0 .015-.015.015v.016c-.466.945-3.69 7.068-7.673 10.214-1.333 1.07-2.883 1.752-4.433 2.124a7.01 7.01 0 0 0 1.628-4.743c-.14-3.922-3.41-6.975-7.317-6.836-3.906.14-6.975 3.41-6.835 7.332.108 2.976 2.046 5.456 4.696 6.417 1.55.666 3.441 1.038 5.472.96a14.522 14.522 0 0 0 8.494-3.084c1.209-.96 2.356-2.17 3.379-3.472l-10.121 36.177 2.65.744 18.522-65.673.868-3.1c.202-.729-.108-1.41-.852-1.659" style="stroke-width:.992001"/>
  <path class="Articulation" d="M1206.03 605.241c1.519 1.504 3.968 1.504 5.471 0a3.854 3.854 0 0 0 0-5.471 3.854 3.854 0 0 0-5.471 0c-1.504 1.503-1.504 3.952 0 5.471m116.06 0c1.519 1.504 3.968 1.504 5.471 0a3.854 3.854 0 0 0 0-5.471 3.854 3.854 0 0 0-5.471 0c-1.504 1.503-1.504 3.952 0 5.471m404.08 24.8c1.518 1.504 3.967 1.504 5.471 0a3.854 3.854 0 0 0 0-5.471 3.854 3.854 0 0 0-5.471 0c-1.504 1.503-1.504 3.952 0 5.471" style="stroke-width:.992001"/>
  <path class="Beam" fill-rule="evenodd" d="m759.743 514.27 52.985 19.61v13.22l-52.985-19.608V514.27m0 18.6 32.241 11.93v13.223l-32.241-11.931V532.87m180.935 8.096 133.41-31.648v12.745l-133.41 31.647v-12.744m80.42-.477 52.99-12.571v12.745l-52.99 12.57v-12.744m100.52-30.599 103.25-19.105v12.61l-103.25 19.105v-12.61m0 18.6 52.99-9.805v12.61l-52.99 9.806V528.49m216.59-38.075 169.05 25.207v12.537l-169.05-25.207v-12.537m116.07 35.905 52.98 7.902v12.537l-52.98-7.901V526.32m156.39-16.965 134.34 6.329v12.413l-134.34-6.328v-12.414m0 18.6 68.54 3.229v12.413l-68.54-3.228v-12.414m192.71 124.043 181.78 31.473v12.584l-181.78-31.472v-12.585m0-18.6 181.78 31.473v12.584l-181.78-31.472v-12.585m281.61-117.708h166.38v12.4h-166.38v-12.4m90.6 18.6h75.78v12.4h-75.78v-12.4m138.86-18.231 189.03-31.454v12.57l-189.03 31.455v-12.571m0 18.6 189.03-31.454v12.57l-189.03 31.455v-12.571M730.239 440.815h133.409v12.4H730.239v-12.4m0-18.6h32.24v12.4h-32.24v-12.4m133.409 0h-32.24v12.4h32.24v-12.4m47.53 18.267 133.41 44.306v13.066l-133.41-44.306v-13.066m80.42 8.108 52.99 17.598v13.066l-52.99-17.598V448.59m100.52-7.775h153.51v12.4h-153.51v-12.4m100.52-18.6h52.99v12.4h-52.99v-12.4m116.07 43.4h169.05v12.4h-169.05v-12.4m0-18.6h169.05v12.4h-169.05v-12.4m272.46 18.593 134.34-6.328v12.413l-134.34 6.329v-12.414m0-18.6 68.53-3.228v12.413l-68.53 3.229v-12.414m222.21-12.485 181.78 31.472v12.585l-181.78-31.473v-12.584m0-18.6 181.78 31.472v12.585l-181.78-31.473v-12.584m281.61-123.908h166.38v12.4h-166.38v-12.4m90.6 18.6h75.78v12.4h-75.78v-12.4m109.35 154.915 189.03-31.454v12.57l-189.03 31.454v-12.57m0-18.6 189.03-31.454v12.57l-189.03 31.454v-12.57M730.239 197.364l52.989 19.609v13.222l-52.989-19.61v-13.221m0-18.6 32.24 11.93v13.223l-32.24-11.931v-13.222m180.939 12.811h133.41v12.4h-133.41v-12.4m80.42-18.6h52.99v12.4h-52.99v-12.4m100.52 74.27 153.51-31.561v12.66l-153.51 31.56v-12.66m100.52-39.266 52.99-10.894v12.66l-52.99 10.894v-12.66m116.07-16.403h169.05v12.4h-169.05v-12.4m0-18.6h32.24v12.4h-32.24v-12.4m169.05 0h-32.24v12.4h32.24v-12.4m103.41 43.4h134.34v12.4h-134.34v-12.4m0-18.6h68.53v12.4h-68.53v-12.4m222.21 24.772 68.53-6.457v12.455l-68.53 6.457v-12.455m0-18.6 32.24-3.037v12.455l-32.24 3.037v-12.455m252.11 12.428h166.38v12.4h-166.38v-12.4m90.6-18.6h75.78v12.4h-75.78v-12.4m138.85-.065 132.41 18.993v12.527l-132.41-18.992V197.71m0-18.6 75.78 10.87v12.528l-75.78-10.87V179.11"/>
  <path class="NoteDot" d="M825.128 141.975a4.955 4.955 0 0 0 4.96 4.96 4.955 4.955 0 0 0 4.96-4.96 4.955 4.955 0 0 0-4.96-4.96 4.955 4.955 0 0 0-4.96 4.96m1088.69-24.8a4.955 4.955 0 0 0 4.96 4.96 4.955 4.955 0 0 0 4.96-4.96 4.955 4.955 0 0 0-4.96-4.96 4.955 4.955 0 0 0-4.96 4.96" style="stroke-width:.992001"/>
  <path class="Bracket" fill="none" stroke="#000" stroke-width="10.91" stroke-linejoin="bevel" d="M336.794 305.159v352.388"/>
  <path class="Bracket" d="M379.357 283.133c-.201-.093-.496-.201-.697-.201-.403 0-.853.155-1.085.496-.202.294-10.122 15.577-29.078 15.577h-15.764c-.806 0-1.395.496-1.395 1.287v10.323h12.105c30.551 0 36.41-25.482 36.503-25.792.031-.093.109-.295.109-.496 0-.496-.31-.9-.698-1.194m0 396.439c.388-.294.698-.697.698-1.193 0-.202-.078-.403-.109-.496-.093-.31-5.952-25.792-36.503-25.792h-12.105v10.323c0 .79.589 1.286 1.395 1.286h15.764c18.956 0 28.876 15.283 29.078 15.578.232.34.682.496 1.085.496.201 0 .496-.109.697-.202" style="stroke-width:.992001"/>
  <text xml:space="preserve" style="font-size:64px;line-height:1.25;font-family:FreeSerif,serif;-inkscape-font-specification:FreeSerif,serif" x="822.988" y="775.572"><tspan x="822.988" y="775.572" style="fill:#ff2a2a;fill-opacity:1">I</tspan></text>
  <text xml:space="preserve" style="font-size:64px;line-height:1.25;font-family:FreeSerif,serif;-inkscape-font-specification:FreeSerif,serif;stroke-width:1.2;stroke-miterlimit:4;stroke-dasharray:none" x="1245.844" y="1057.134" transform="translate(-196.692 -281.424)"><tspan x="1245.844" y="1057.134" style="fill:#2affd5;fill-opacity:1;stroke:#000;stroke-width:1.2;stroke-miterlimit:4;stroke-dasharray:none;stroke-opacity:1">v7</tspan></text>
  <text xml:space="preserve" style="font-size:37.3333px;line-height:1.25;font-family:FreeSerif,serif;-inkscape-font-specification:FreeSerif,serif;stroke-width:1.2;stroke-miterlimit:4;stroke-dasharray:none" x="1312.091" y="1019.268" transform="translate(-196.692 -281.424)"><tspan x="1312.091" y="1019.268" style="font-size:37.3333px;fill:#2affd5;fill-opacity:1;stroke:#000;stroke-width:1.2;stroke-miterlimit:4;stroke-dasharray:none;stroke-opacity:1">4</tspan></text>
  <text xml:space="preserve" style="font-size:37.3333px;line-height:1.25;font-family:FreeSerif,serif;-inkscape-font-specification:FreeSerif,serif;stroke-width:1.2;stroke-miterlimit:4;stroke-dasharray:none" x="1311.246" y="1073.21" transform="translate(-196.692 -281.424)"><tspan x="1311.246" y="1073.21" style="font-size:37.3333px;fill:#2affd5;fill-opacity:1;stroke:#000;stroke-width:1.2;stroke-miterlimit:4;stroke-dasharray:none;stroke-opacity:1">3</tspan></text>
  <text xml:space="preserve" style="font-size:64px;line-height:1.25;font-family:FreeSerif,serif;-inkscape-font-specification:FreeSerif,serif" x="1408.501" y="1057.134" transform="translate(-204.692 -281.424)"><tspan x="1408.501" y="1057.134" style="fill:#f5d;fill-opacity:1">V</tspan></text>
  <text xml:space="preserve" style="font-size:37.3333px;line-height:1.25;font-family:FreeSerif,serif;-inkscape-font-specification:FreeSerif,serif;word-spacing:0" x="1457.719" y="1019.705" transform="translate(-204.692 -281.424)"><tspan x="1457.719" y="1019.705" style="font-size:37.3333px;fill:#f5d;fill-opacity:1">6</tspan></text>
  <text xml:space="preserve" style="font-size:64px;line-height:1.25;font-family:FreeSerif,serif;-inkscape-font-specification:FreeSerif,serif;fill:#83ffbc;fill-opacity:1;stroke-width:1.2;stroke-miterlimit:4;stroke-dasharray:none" x="1556.756" y="1057.134" transform="translate(-222.692 -281.424)"><tspan x="1556.756" y="1057.134" style="fill:#83ffbc;fill-opacity:1;stroke:#000;stroke-width:1.2;stroke-miterlimit:4;stroke-dasharray:none;stroke-opacity:1">iii</tspan></text>
  <text xml:space="preserve" style="font-size:37.3333px;line-height:1.25;font-family:FreeSerif,serif;-inkscape-font-specification:FreeSerif,serif;stroke-width:1.2;stroke-miterlimit:4;stroke-dasharray:none" x="1635.155" y="1019.694" transform="translate(-222.692 -281.424)"><tspan x="1635.155" y="1019.694" style="font-size:37.3333px;fill:#83ffbc;fill-opacity:1;stroke:#000;stroke-width:1.2;stroke-miterlimit:4;stroke-dasharray:none;stroke-opacity:1">6</tspan></text>
  <text xml:space="preserve" style="font-size:64px;line-height:1.25;font-family:FreeSerif,serif;-inkscape-font-specification:FreeSerif,serif" x="1516.477" y="775.71"><tspan x="1516.477" y="775.71" style="fill:#bc5fd3;fill-opacity:1">IV</tspan></text>
  <text xml:space="preserve" style="font-size:64px;line-height:1.25;font-family:FreeSerif,serif;-inkscape-font-specification:FreeSerif,serif" x="1666.979" y="775.71"><tspan x="1666.979" y="775.71" style="fill:#37c871;fill-opacity:1">III</tspan></text>
  <text xml:space="preserve" style="font-size:64px;line-height:1.25;font-family:FreeSerif,serif;-inkscape-font-specification:FreeSerif,serif" x="1866.093" y="775.71"><tspan x="1866.093" y="775.71" style="fill:#ff2ad4;fill-opacity:1">V7vi</tspan></text>
  <text xml:space="preserve" style="font-size:64px;line-height:1.25;font-family:FreeSerif,serif;-inkscape-font-specification:FreeSerif,serif;stroke-width:1.2;stroke-miterlimit:4;stroke-dasharray:none" x="1344.22" y="849.6"><tspan x="1344.22" y="849.6" style="fill:#83ffbc;fill-opacity:1;stroke:#000;stroke-width:1.2;stroke-miterlimit:4;stroke-dasharray:none;stroke-opacity:1">(v)</tspan></text>
  <text xml:space="preserve" style="font-size:64px;line-height:1.25;font-family:FreeSerif,serif;-inkscape-font-specification:FreeSerif,serif" x="2265.878" y="775.71"><tspan x="2265.878" y="775.71" style="fill:#795971;fill-opacity:1">III+9</tspan></text>
  <text xml:space="preserve" style="font-size:64px;line-height:1.25;font-family:FreeSerif,serif;-inkscape-font-specification:FreeSerif,serif" x="2463.212" y="1133.718" transform="translate(-197.582 -282.57)"><tspan x="2463.212" y="1133.718" style="fill:#795971;fill-opacity:1">III+</tspan></text>
  <text xml:space="preserve" style="font-size:37.3333px;line-height:1.25;font-family:FreeSerif,serif;-inkscape-font-specification:FreeSerif,serif" x="2586.916" y="1096.343" transform="translate(-197.582 -282.57)"><tspan x="2586.916" y="1096.343" style="font-size:37.3333px;fill:#795971;fill-opacity:1">6</tspan></text>
  <text xml:space="preserve" style="font-size:64px;line-height:1.25;font-family:FreeSerif,serif;-inkscape-font-specification:FreeSerif,serif" x="609.782" y="775.71"><tspan x="609.782" y="775.71">F:</tspan></text>
  <text xml:space="preserve" style="font-size:64px;line-height:1.25;font-family:FreeSerif,serif;-inkscape-font-specification:FreeSerif,serif" x="2071.833" y="851.668"><tspan x="2071.833" y="851.668">D:</tspan></text>
  <text xml:space="preserve" style="font-size:64px;line-height:1.25;font-family:FreeSerif,serif;-inkscape-font-specification:FreeSerif,serif" x="609.864" y="851.294"><tspan x="609.864" y="851.294">F:</tspan></text>
  <text xml:space="preserve" style="font-size:64px;line-height:1.25;font-family:FreeSerif,serif;-inkscape-font-specification:FreeSerif,serif" x="729.809" y="68.623"><tspan x="729.809" y="68.623">1</tspan></text>
  <text xml:space="preserve" style="font-size:64px;line-height:1.25;font-family:FreeSerif,serif;-inkscape-font-specification:FreeSerif,serif" x="787.085" y="68.608"><tspan x="787.085" y="68.608">5</tspan></text>
  <text xml:space="preserve" style="font-size:64px;line-height:1.25;font-family:FreeSerif,serif;-inkscape-font-specification:FreeSerif,serif" x="911.229" y="68.608"><tspan x="911.229" y="68.608">1</tspan></text>
  <text xml:space="preserve" style="font-size:64px;line-height:1.25;font-family:FreeSerif,serif;-inkscape-font-specification:FreeSerif,serif" x="972.539" y="68.608"><tspan x="972.539" y="68.608">3</tspan></text>
  <text xml:space="preserve" style="font-size:64px;line-height:1.25;font-family:FreeSerif,serif;-inkscape-font-specification:FreeSerif,serif" x="1044.767" y="68.608"><tspan x="1044.767" y="68.608" style="fill:#ff7f2a;fill-opacity:1">4</tspan></text>
  <text xml:space="preserve" style="font-size:64px;line-height:1.25;font-family:FreeSerif,serif;-inkscape-font-specification:FreeSerif,serif" x="1094.766" y="68.608"><tspan x="1094.766" y="68.608">5</tspan></text>
  <text xml:space="preserve" style="font-size:64px;line-height:1.25;font-family:FreeSerif,serif;-inkscape-font-specification:FreeSerif,serif" x="1195.543" y="68.608"><tspan x="1195.543" y="68.608">3</tspan></text>
  <text xml:space="preserve" style="font-size:64px;line-height:1.25;font-family:FreeSerif,serif;-inkscape-font-specification:FreeSerif,serif" x="1243.377" y="68.608"><tspan x="1243.377" y="68.608" style="fill:#ff7f2a;fill-opacity:1">4</tspan></text>
  <text xml:space="preserve" style="font-size:64px;line-height:1.25;font-family:FreeSerif,serif;-inkscape-font-specification:FreeSerif,serif" x="1293.387" y="68.608"><tspan x="1293.387" y="68.608" style="fill:#ff7f2a;fill-opacity:1">6</tspan></text>
  <text xml:space="preserve" style="font-size:64px;line-height:1.25;font-family:FreeSerif,serif;-inkscape-font-specification:FreeSerif,serif" x="1363.682" y="68.608"><tspan x="1363.682" y="68.608">5</tspan></text>
  <text xml:space="preserve" style="font-size:64px;line-height:1.25;font-family:FreeSerif,serif;-inkscape-font-specification:FreeSerif,serif" x="1477.418" y="68.608"><tspan x="1477.418" y="68.608">5</tspan></text>
  <text xml:space="preserve" style="font-size:64px;line-height:1.25;font-family:FreeSerif,serif;-inkscape-font-specification:FreeSerif,serif" x="1648.551" y="68.608"><tspan x="1648.551" y="68.608">3</tspan></text>
  <text xml:space="preserve" style="font-size:64px;line-height:1.25;font-family:FreeSerif,serif;-inkscape-font-specification:FreeSerif,serif" x="1716.285" y="68.608"><tspan x="1716.285" y="68.608">5</tspan></text>
  <text xml:space="preserve" style="font-size:64px;line-height:1.25;font-family:FreeSerif,serif;-inkscape-font-specification:FreeSerif,serif" x="1786.677" y="68.608"><tspan x="1786.677" y="68.608" style="fill:#ff7f2a;fill-opacity:1">2</tspan></text>
  <text xml:space="preserve" style="font-size:64px;line-height:1.25;font-family:FreeSerif,serif;-inkscape-font-specification:FreeSerif,serif" x="1871.192" y="68.608"><tspan x="1871.192" y="68.608">3</tspan></text>
  <text xml:space="preserve" style="font-size:64px;line-height:1.25;font-family:FreeSerif,serif;-inkscape-font-specification:FreeSerif,serif;fill:#000;fill-opacity:1" x="2039.837" y="68.608"><tspan x="2039.837" y="68.608" style="fill:#000;fill-opacity:1">5</tspan></text>
  <text xml:space="preserve" style="font-size:64px;line-height:1.25;font-family:FreeSerif,serif;-inkscape-font-specification:FreeSerif,serif" x="2148.394" y="68.608"><tspan x="2148.394" y="68.608">3</tspan></text>
  <text xml:space="preserve" style="font-size:64px;line-height:1.25;font-family:FreeSerif,serif;-inkscape-font-specification:FreeSerif,serif" x="2197.145" y="68.608"><tspan x="2197.145" y="68.608" style="fill:#ff7f2a;fill-opacity:1">4</tspan></text>
  <text xml:space="preserve" style="font-size:64px;line-height:1.25;font-family:FreeSerif,serif;-inkscape-font-specification:FreeSerif,serif" x="2287.896" y="68.608"><tspan x="2287.896" y="68.608" style="fill:#2a7fff;fill-opacity:1">5</tspan></text>
  <text xml:space="preserve" style="font-size:64px;line-height:1.25;font-family:FreeSerif,serif;-inkscape-font-specification:FreeSerif,serif" x="2341.747" y="68.608"><tspan x="2341.747" y="68.608">5</tspan></text>
  <text xml:space="preserve" style="font-size:64px;line-height:1.25;font-family:FreeSerif,serif;-inkscape-font-specification:FreeSerif,serif" x="2419.635" y="68.608"><tspan x="2419.635" y="68.608">3</tspan></text>
</svg>
