<svg width="2459.182" height="456.428" version="1.2" xmlns="http://www.w3.org/2000/svg">
  <path class="StaffLines" fill="none" stroke="#000" stroke-width="2.73" stroke-linejoin="bevel" d="M16 228.899h2427.182M16 253.699h2427.182M16 278.499h2427.182M16 303.299h2427.182M16 328.099h2427.182"/>
  <path class="Symbol" d="M1137.062 266.006c0 7.734 3.968 13.981 10.323 18.042l.496-.682c-3.379-2.588-4.572-4.076-5.657-7.254-.992-2.868-1.488-6.045-1.488-10.215 0-7.827 1.084-11.997 7.145-17.065l-.403-.682c-6.541 4.464-10.416 9.517-10.416 17.856m46.723-.109c0 4.17-.496 7.347-1.488 10.215-1.193 3.178-2.387 4.666-5.75 7.254l.589.682c6.355-3.968 10.214-10.416 10.214-18.042 0-8.246-3.859-13.594-10.416-17.856l-.387.682c6.138 4.96 7.238 9.238 7.238 17.065m39.017.109c0 7.734 3.968 13.981 10.323 18.042l.496-.682c-3.379-2.588-4.572-4.076-5.657-7.254-.992-2.868-1.488-6.045-1.488-10.215 0-7.827 1.084-11.997 7.145-17.065l-.403-.682c-6.541 4.464-10.416 9.517-10.416 17.856m46.713-.109c0 4.17-.496 7.347-1.488 10.215-1.193 3.178-2.387 4.666-5.75 7.254l.589.682c6.355-3.968 10.214-10.416 10.214-18.042 0-8.246-3.859-13.594-10.416-17.856l-.387.682c6.138 4.96 7.238 9.238 7.238 17.065m450.557.109c0 7.734 3.968 13.981 10.323 18.042l.496-.682c-3.379-2.588-4.572-4.076-5.657-7.254-.992-2.868-1.488-6.045-1.488-10.215 0-7.827 1.084-11.997 7.145-17.065l-.403-.682c-6.541 4.464-10.416 9.517-10.416 17.856m46.713-.109c0 4.17-.496 7.347-1.488 10.215-1.193 3.178-2.387 4.666-5.75 7.254l.589.682c6.355-3.968 10.214-10.416 10.214-18.042 0-8.246-3.859-13.594-10.416-17.856l-.387.682c6.138 4.96 7.238 9.238 7.238 17.065m501.997.109c0 7.734 3.968 13.981 10.323 18.042l.496-.682c-3.379-2.588-4.572-4.076-5.657-7.254-.992-2.868-1.488-6.045-1.488-10.215 0-7.827 1.085-11.997 7.145-17.065l-.403-.682c-6.541 4.464-10.416 9.517-10.416 17.856m46.713-.109c0 4.17-.495 7.347-1.487 10.215-1.194 3.178-2.387 4.666-5.751 7.254l.589.682c6.355-3.968 10.214-10.416 10.214-18.042 0-8.246-3.859-13.594-10.415-17.856l-.388.682c6.138 4.96 7.239 9.238 7.239 17.065" style="stroke-width:.992"/>
  <path class="BarLine" fill="none" stroke="#000" stroke-width="4.46" stroke-linejoin="bevel" d="M2419.002 227.535v101.928"/>
  <path class="BarLine" fill="none" stroke="#000" stroke-width="13.64" stroke-linejoin="bevel" d="M2436.362 227.535v101.928"/>
  <path class="Stem" fill="none" stroke="#000" stroke-width="2.73" stroke-linejoin="bevel" d="M188.996 319.033v77.266m137.178-77.266v77.266m548.708-77.266v77.266m274.36-77.266v77.266m308.65-77.266v83.466m411.53-83.466v77.266m411.53-77.266v77.266M218.5 208.087v-72.188m274.356 196.188V135.899m137.177 72.188v-72.188m137.179 196.188V173.099m274.35 89.826v-89.826m137.18 89.826v-89.826m85.74 89.826v-89.826m85.73 89.826V135.899m274.36 196.188V135.899m137.18 127.026V135.899m169.66 196.188V185.499m104.69 77.426v-77.426m137.18 77.426v-77.426m137.18 77.426v-77.426"/>
  <path class="Note" d="M218.88 307.67c-1.783-3.286-5.549-5.068-10.121-5.068-3.364 0-7.038.992-10.618 2.882-6.541 3.473-10.509 9.316-10.509 14.385 0 1.379.294 2.774.992 4.06 1.782 3.271 5.549 4.96 10.121 4.96 3.364 0 7.038-.883 10.618-2.774 6.541-3.472 10.509-9.331 10.509-14.384 0-1.395-.295-2.775-.992-4.061m137.178 0c-1.783-3.286-5.549-5.068-10.121-5.068-3.364 0-7.038.992-10.618 2.882-6.541 3.473-10.509 9.316-10.509 14.385 0 1.379.294 2.774.992 4.06 1.782 3.271 5.549 4.96 10.121 4.96 3.364 0 7.038-.883 10.618-2.774 6.541-3.472 10.509-9.331 10.509-14.384 0-1.395-.295-2.775-.992-4.061m548.712 0c-1.783-3.286-5.549-5.068-10.121-5.068-3.364 0-7.038.992-10.618 2.882-6.541 3.473-10.509 9.316-10.509 14.385 0 1.379.294 2.774.992 4.06 1.782 3.271 5.549 4.96 10.121 4.96 3.364 0 7.038-.883 10.618-2.774 6.541-3.472 10.509-9.331 10.509-14.384 0-1.395-.295-2.775-.992-4.061m274.35 0c-1.782-3.286-5.549-5.068-10.121-5.068-3.364 0-7.038.992-10.618 2.882-6.541 3.473-10.509 9.316-10.509 14.385 0 1.379.294 2.774.992 4.06 1.782 3.271 5.549 4.96 10.121 4.96 3.364 0 7.037-.883 10.618-2.774 6.541-3.472 10.509-9.331 10.509-14.384 0-1.395-.295-2.775-.992-4.061m308.65 0c-1.782-3.286-5.549-5.068-10.121-5.068-3.364 0-7.037.992-10.618 2.882-6.541 3.473-10.509 9.316-10.509 14.385 0 1.379.294 2.774.992 4.06 1.782 3.271 5.549 4.96 10.121 4.96 3.364 0 7.037-.883 10.618-2.774 6.541-3.472 10.509-9.331 10.509-14.384 0-1.395-.294-2.775-.992-4.061m411.54 0c-1.782-3.286-5.549-5.068-10.121-5.068-3.364 0-7.038.992-10.618 2.882-6.541 3.473-10.509 9.316-10.509 14.385 0 1.379.294 2.774.992 4.06 1.782 3.271 5.549 4.96 10.121 4.96 3.364 0 7.037-.883 10.618-2.774 6.541-3.472 10.509-9.331 10.509-14.384 0-1.395-.294-2.775-.992-4.061m411.53 0c-1.782-3.286-5.549-5.068-10.121-5.068-3.364 0-7.038.992-10.618 2.882-6.541 3.473-10.509 9.316-10.509 14.385 0 1.379.294 2.774.992 4.06 1.783 3.271 5.549 4.96 10.122 4.96 3.363 0 7.037-.883 10.617-2.774 6.541-3.472 10.509-9.331 10.509-14.384 0-1.395-.294-2.775-.992-4.061M207.27 216.499l12.106-9.517c.295-.202.496-.604.496-.992v-.108c0-.388-.201-.698-.387-.884l-1.194-1.194c-.294-.201-.604-.402-.992-.402-.294 0-.698.108-.899.294l-12.601 10.029-12.695-10.029c-.202-.186-.589-.294-.899-.294-.388 0-.589.201-.883.402l-1.287 1.194c-.201.186-.403.589-.403.992 0 .388.202.79.496.992l12.105 9.517-12.105 9.517c-.294.202-.496.604-.496.992 0 .31.202.698.403.899l1.178 1.287c.202.294.605.402.992.402.31 0 .698-.108.899-.294l12.695-10.028 12.601 10.028c.201.186.605.294.899.294.388 0 .79-.108.992-.402l1.194-1.287c.186-.201.387-.589.387-.899 0-.388-.201-.79-.496-.992l-12.105-9.517m274.355 124 12.105-9.517c.295-.202.496-.604.496-.992v-.108c0-.388-.201-.698-.387-.884l-1.194-1.194c-.294-.201-.604-.402-.992-.402-.294 0-.698.108-.899.294l-12.601 10.028-12.695-10.028c-.202-.186-.589-.294-.899-.294-.388 0-.589.201-.883.402l-1.287 1.194c-.202.186-.403.589-.403.992 0 .388.201.79.496.992l12.105 9.517-12.105 9.517c-.295.202-.496.604-.496.992 0 .31.201.698.403.899l1.178 1.287c.202.294.605.402.992.402.31 0 .698-.108.899-.294l12.695-10.028 12.601 10.028c.201.186.605.294.899.294.388 0 .79-.108.992-.402l1.194-1.287c.186-.201.387-.589.387-.899 0-.388-.201-.79-.496-.992l-12.105-9.517m137.178-124 12.105-9.517c.295-.202.496-.604.496-.992v-.108c0-.388-.201-.698-.387-.884l-1.194-1.194c-.294-.201-.604-.402-.992-.402-.294 0-.698.108-.899.294l-12.601 10.029-12.695-10.029c-.202-.186-.589-.294-.899-.294-.388 0-.589.201-.884.402l-1.286 1.194c-.202.186-.403.589-.403.992 0 .388.201.79.496.992l12.105 9.517-12.105 9.517c-.295.202-.496.604-.496.992 0 .31.201.698.403.899l1.178 1.287c.201.294.604.402.992.402.31 0 .697-.108.899-.294l12.695-10.028 12.601 10.028c.201.186.605.294.899.294.388 0 .79-.108.992-.402l1.194-1.287c.186-.201.387-.589.387-.899 0-.388-.201-.79-.496-.992l-12.105-9.517m137.176 124 12.106-9.517c.295-.202.496-.604.496-.992v-.108c0-.388-.201-.698-.387-.884L767 327.804c-.294-.201-.604-.402-.992-.402-.294 0-.698.108-.899.294l-12.601 10.028-12.695-10.028c-.202-.186-.589-.294-.899-.294-.388 0-.589.201-.883.402l-1.287 1.194c-.202.186-.403.589-.403.992 0 .388.201.79.496.992l12.105 9.517-12.105 9.517c-.294.202-.496.604-.496.992 0 .31.202.698.403.899l1.178 1.287c.202.294.605.402.992.402.31 0 .698-.108.899-.294l12.695-10.029 12.601 10.029c.201.186.605.294.899.294.388 0 .79-.108.992-.402l1.194-1.287c.186-.201.387-.589.387-.899 0-.388-.201-.79-.496-.992l-12.105-9.517m11.61-82.429c-1.783-3.286-5.549-5.068-10.121-5.068-3.364 0-7.038.992-10.618 2.882-6.541 3.472-10.509 9.316-10.509 14.385 0 1.379.294 2.774.992 4.06 1.782 3.271 5.549 4.96 10.121 4.96 3.364 0 7.038-.883 10.618-2.774 6.541-3.472 10.509-9.331 10.509-14.384 0-1.395-.295-2.775-.992-4.061m274.36 0c-1.782-3.286-5.549-5.068-10.121-5.068-3.364 0-7.037.992-10.618 2.882-6.541 3.473-10.509 9.316-10.509 14.385 0 1.379.295 2.774.992 4.06 1.783 3.271 5.549 4.96 10.122 4.96 3.363 0 7.037-.883 10.617-2.774 6.541-3.472 10.509-9.331 10.509-14.384 0-1.395-.294-2.775-.992-4.061m137.17 0c-1.782-3.286-5.549-5.068-10.121-5.068-3.364 0-7.038.992-10.618 2.882-6.541 3.473-10.509 9.316-10.509 14.385 0 1.379.294 2.774.992 4.06 1.782 3.271 5.549 4.96 10.121 4.96 3.364 0 7.037-.883 10.618-2.774 6.541-3.472 10.509-9.331 10.509-14.384 0-1.395-.295-2.775-.992-4.061m85.74 0c-1.782-3.286-5.549-5.068-10.121-5.068-3.364 0-7.038.992-10.618 2.882-6.541 3.473-10.509 9.316-10.509 14.385 0 1.379.294 2.774.992 4.06 1.782 3.271 5.549 4.96 10.121 4.96 3.364 0 7.037-.883 10.618-2.774 6.541-3.472 10.509-9.331 10.509-14.384 0-1.395-.295-2.775-.992-4.061m85.74 0c-1.782-3.286-5.549-5.068-10.121-5.068-3.364 0-7.038.992-10.618 2.882-6.541 3.473-10.509 9.316-10.509 14.385 0 1.379.294 2.774.992 4.06 1.782 3.271 5.549 4.96 10.121 4.96 3.364 0 7.037-.883 10.618-2.774 6.541-3.472 10.509-9.331 10.509-14.384 0-1.395-.295-2.775-.992-4.061m-11.61-41.571 12.106-9.517c.294-.202.496-.604.496-.992v-.108c0-.388-.202-.698-.388-.884l-1.193-1.194c-.294-.201-.605-.402-.992-.402-.294 0-.698.108-.899.294l-12.601 10.029-12.695-10.029c-.202-.186-.589-.294-.899-.294-.387 0-.589.201-.883.402l-1.287 1.194c-.201.186-.403.589-.403.992 0 .388.202.79.496.992l12.106 9.517-12.106 9.517c-.294.202-.496.604-.496.992 0 .31.202.698.403.899l1.178 1.287c.202.294.605.402.992.402.31 0 .698-.108.899-.294l12.695-10.028 12.601 10.028c.202.186.605.294.899.294.388 0 .79-.108.992-.402l1.194-1.287c.186-.201.387-.589.387-.899 0-.388-.201-.79-.496-.992l-12.105-9.517m274.349 124 12.106-9.517c.294-.202.496-.604.496-.992v-.108c0-.388-.202-.698-.388-.884l-1.193-1.194c-.295-.201-.605-.402-.992-.402-.294 0-.698.108-.899.294l-12.601 10.028-12.695-10.028c-.202-.186-.589-.294-.899-.294-.388 0-.589.201-.883.402l-1.287 1.194c-.201.186-.403.589-.403.992 0 .388.202.79.496.992l12.106 9.517-12.106 9.517c-.294.202-.496.604-.496.992 0 .31.202.698.403.899l1.178 1.287c.202.294.605.402.992.402.31 0 .698-.108.899-.294l12.695-10.028 12.601 10.028c.202.186.605.294.899.294.388 0 .79-.108.992-.402l1.194-1.287c.186-.201.387-.589.387-.899 0-.388-.201-.79-.496-.992l-12.105-9.517m148.789-82.429c-1.782-3.286-5.549-5.068-10.121-5.068-3.364 0-7.037.992-10.618 2.882-6.541 3.473-10.509 9.316-10.509 14.385 0 1.379.294 2.774.992 4.06 1.782 3.271 5.549 4.96 10.121 4.96 3.364 0 7.038-.883 10.618-2.774 6.541-3.472 10.509-9.331 10.509-14.384 0-1.395-.294-2.775-.992-4.061m-11.61-41.571 12.106-9.517c.294-.202.496-.604.496-.992v-.108c0-.388-.202-.698-.388-.884l-1.193-1.194c-.294-.201-.605-.402-.992-.402-.294 0-.698.108-.899.294l-12.601 10.029-12.695-10.029c-.202-.186-.589-.294-.899-.294-.387 0-.589.201-.883.402l-1.287 1.194c-.201.186-.403.589-.403.992 0 .388.202.79.496.992l12.106 9.517-12.106 9.517c-.294.202-.496.604-.496.992 0 .31.202.698.403.899l1.178 1.287c.202.294.605.402.992.402.31 0 .698-.108.899-.294l12.695-10.028 12.601 10.028c.202.186.605.294.899.294.388 0 .79-.108.992-.402l1.194-1.287c.186-.201.387-.589.387-.899 0-.388-.201-.79-.496-.992l-12.105-9.517m169.659 124 12.106-9.517c.294-.202.496-.604.496-.992v-.108c0-.388-.202-.698-.388-.884l-1.193-1.194c-.295-.201-.605-.402-.992-.402-.295 0-.698.108-.899.294l-12.601 10.028-12.695-10.028c-.202-.186-.589-.294-.899-.294-.388 0-.589.201-.883.402l-1.287 1.194c-.201.186-.403.589-.403.992 0 .388.202.79.496.992l12.106 9.517-12.106 9.517c-.294.202-.496.604-.496.992 0 .31.202.698.403.899l1.178 1.287c.202.294.605.402.992.402.31 0 .698-.108.899-.294l12.695-10.028 12.601 10.028c.202.186.605.294.899.294.388 0 .79-.108.992-.402l1.194-1.287c.186-.201.387-.589.387-.899 0-.388-.201-.79-.496-.992l-12.105-9.517m116.299-82.429c-1.782-3.286-5.549-5.068-10.121-5.068-3.364 0-7.037.992-10.618 2.882-6.541 3.473-10.509 9.316-10.509 14.385 0 1.379.294 2.774.992 4.06 1.782 3.271 5.549 4.96 10.121 4.96 3.364 0 7.037-.883 10.618-2.774 6.541-3.472 10.509-9.331 10.509-14.384 0-1.395-.294-2.775-.992-4.061m137.18 0c-1.782-3.286-5.549-5.068-10.121-5.068-3.364 0-7.038.992-10.618 2.882-6.541 3.473-10.509 9.316-10.509 14.385 0 1.379.294 2.774.992 4.06 1.782 3.271 5.549 4.96 10.121 4.96 3.364 0 7.038-.883 10.618-2.774 6.541-3.472 10.509-9.331 10.509-14.384 0-1.395-.294-2.775-.992-4.061m137.18 0c-1.782-3.286-5.549-5.068-10.121-5.068-3.364 0-7.038.992-10.618 2.882-6.541 3.473-10.509 9.316-10.509 14.385 0 1.379.294 2.774.992 4.06 1.783 3.271 5.549 4.96 10.122 4.96 3.363 0 7.037-.883 10.617-2.774 6.541-3.472 10.509-9.331 10.509-14.384 0-1.395-.294-2.775-.992-4.061" style="stroke-width:.992"/>
  <path class="Clef" d="M48.039 253.498H37.127c-.698 0-1.287.604-1.287 1.286v47.43c0 .682.589 1.286 1.287 1.286h10.912c.697 0 1.286-.604 1.286-1.286v-47.43c0-.682-.589-1.286-1.286-1.286m21.436 0H58.563c-.698 0-1.302.604-1.302 1.286v47.43c0 .682.604 1.286 1.302 1.286h10.912c.698 0 1.286-.604 1.286-1.286v-47.43c0-.682-.588-1.286-1.286-1.286" style="stroke-width:.992"/>
  <path class="TimeSig" d="M97.755 266.355h17.034v7.393h-8.152c-.776 0-1.411.62-1.411 1.396v1.89c0 .776.635 1.396 1.41 1.396h30.009a1.39 1.39 0 0 0 1.394-1.396v-1.89a1.39 1.39 0 0 0-1.394-1.396h-8.866v-7.393h8.866a1.39 1.39 0 0 0 1.394-1.395v-1.891a1.39 1.39 0 0 0-1.394-1.395h-8.866v-15.841c0-.527-.31-1.007-.776-1.24l-1.208-.604a1.446 1.446 0 0 0-1.582.232l-8.974 8.246c-.279.279-.45.635-.45 1.038v8.169h-11.423s11.036-11.935 22.785-27.574c.852-1.148.356-2.186.17-2.372l-2.154-2.186a1.41 1.41 0 0 0-.992-.418c-.589 0-14.043.031-14.756 0-.713-.016-1.24.604-1.318 1.209 0 0-.526 7.3-3.115 15.376-2.573 8.045-5.487 12.989-8.122 16.585 0 0-.542.977-.186 1.72.341.744.977 1.814.977 1.814s.248.527 1.1.527m0 49.337h17.034v7.393h-8.152c-.776 0-1.411.62-1.411 1.396v1.89c0 .776.635 1.396 1.41 1.396h30.009a1.39 1.39 0 0 0 1.394-1.396v-1.89a1.39 1.39 0 0 0-1.394-1.396h-8.866v-7.393h8.866a1.39 1.39 0 0 0 1.394-1.395v-1.891a1.39 1.39 0 0 0-1.394-1.395h-8.866V295.17c0-.527-.31-1.008-.776-1.24l-1.208-.605a1.446 1.446 0 0 0-1.582.233l-8.974 8.246c-.279.279-.45.636-.45 1.039v8.168h-11.423s11.036-11.935 22.785-27.574c.852-1.148.356-2.186.17-2.372l-2.154-2.186a1.41 1.41 0 0 0-.992-.418c-.589 0-14.043.031-14.756 0-.713-.016-1.24.604-1.318 1.209 0 0-.526 7.3-3.115 15.376-2.573 8.044-5.487 12.989-8.122 16.585 0 0-.542.977-.186 1.72.341.744.977 1.814.977 1.814s.248.527 1.1.527" style="stroke-width:.992"/>
  <path class="Rest" d="M769.543 369.996c-.744-.264-1.41.093-1.72.712-.295.605-3.1 5.999-7.378 9.378-1.334 1.054-2.884 1.736-4.434 2.124a7.077 7.077 0 0 0 1.628-4.759 7.07 7.07 0 0 0-7.316-6.82c-3.906.14-6.975 3.41-6.836 7.316a7.077 7.077 0 0 0 4.697 6.417c1.55.682 3.441 1.038 5.471.977 2.822-.109 5.875-1.039 8.494-3.1 1.225-.962 2.372-2.186 3.395-3.473v.016l-4.464 15.779s0 .015-.015.015v.016c-.466.945-3.69 7.068-7.673 10.214-1.333 1.07-2.883 1.752-4.433 2.124a7.01 7.01 0 0 0 1.628-4.743c-.14-3.922-3.41-6.975-7.317-6.836-3.906.14-6.975 3.41-6.835 7.332.108 2.976 2.046 5.456 4.696 6.417 1.55.666 3.441 1.038 5.472.961a14.522 14.522 0 0 0 8.494-3.085c1.209-.96 2.356-2.17 3.379-3.472l-10.121 36.178 2.65.744 18.522-65.674.868-3.1c.202-.728-.108-1.41-.852-1.658m583.01-62c-.744-.264-1.41.093-1.72.712-.295.605-3.1 5.999-7.378 9.378-1.333 1.054-2.883 1.736-4.433 2.124a7.077 7.077 0 0 0 1.627-4.759 7.07 7.07 0 0 0-7.316-6.82c-3.906.14-6.975 3.41-6.835 7.316a7.077 7.077 0 0 0 4.696 6.417c1.55.682 3.441 1.038 5.472.977 2.82-.109 5.874-1.039 8.494-3.1 1.224-.962 2.371-2.186 3.394-3.473v.016l-4.464 15.779s0 .016-.015.016v.015c-.465.946-3.689 7.068-7.672 10.215-1.333 1.07-2.883 1.751-4.433 2.123a7.01 7.01 0 0 0 1.627-4.743c-.14-3.921-3.41-6.975-7.316-6.835-3.906.139-6.975 3.41-6.835 7.331.108 2.976 2.046 5.456 4.696 6.417 1.55.667 3.441 1.039 5.472.961a14.522 14.522 0 0 0 8.494-3.084c1.209-.961 2.356-2.17 3.379-3.472l-10.122 36.177 2.65.744 18.523-65.674.868-3.1c.202-.728-.108-1.41-.852-1.658" style="stroke-width:.992"/>
  <path class="Articulation" d="M188.682 108.418c0 8.338 6.742 15.081 15.081 15.081 8.324 0 15.082-6.742 15.082-15.081 0-8.324-6.758-15.082-15.082-15.082-8.339 0-15.081 6.758-15.081 15.082m15.081-11.904c6.542 0 11.904 5.362 11.904 11.904 0 6.556-5.362 11.903-11.904 11.903-6.556 0-11.904-5.347-11.904-11.903 0-6.542 5.348-11.904 11.904-11.904m396.452 11.904c0 8.338 6.742 15.081 15.081 15.081 8.324 0 15.082-6.742 15.082-15.081 0-8.324-6.758-15.082-15.082-15.082-8.339 0-15.081 6.758-15.081 15.082m15.081-11.904c6.542 0 11.904 5.362 11.904 11.904 0 6.556-5.362 11.903-11.904 11.903-6.556 0-11.904-5.347-11.904-11.903 0-6.542 5.348-11.904 11.904-11.904m705.106 11.904c0 8.338 6.742 15.081 15.082 15.081 8.323 0 15.081-6.742 15.081-15.081 0-8.324-6.758-15.082-15.082-15.082-8.338 0-15.081 6.758-15.081 15.082m15.082-11.904c6.54 0 11.904 5.362 11.904 11.904 0 6.556-5.363 11.903-11.904 11.903-6.557 0-11.904-5.347-11.904-11.903 0-6.542 5.347-11.904 11.904-11.904m396.448 11.904c0 8.338 6.742 15.081 15.082 15.081 8.323 0 15.081-6.742 15.081-15.081 0-8.324-6.758-15.082-15.082-15.082-8.338 0-15.081 6.758-15.081 15.082m15.082-11.904c6.54 0 11.904 5.362 11.904 11.904 0 6.556-5.363 11.903-11.904 11.903-6.557 0-11.904-5.347-11.904-11.903 0-6.542 5.347-11.904 11.904-11.904" style="stroke-width:.992"/>
  <path class="Beam" fill-rule="evenodd" d="M187.632 390.099h139.906v12.4H187.632v-12.4m0-18.6h32.24v12.4h-32.24v-12.4m685.89 18.6h277.08v12.4h-277.08v-12.4m277.08-18.6h-32.24v12.4h32.24v-12.4m717.46 18.6h414.26v12.4h-414.26v-12.4m414.26-18.6h-32.24v12.4h32.24v-12.4m-2065.186-241.8h414.261v12.4H217.136v-12.4m274.356 18.6h139.905v12.4H491.492v-12.4m274.35 18.6h500v12.4h-500v-12.4m274.36 18.6h225.64v12.4h-225.64v-12.4m137.18 18.6h88.46v12.4h-88.46v-12.4m171.47-74.4h414.26v12.4h-414.26v-12.4m274.36 18.6h139.9v12.4h-139.9v-12.4m306.83 31h381.78v12.4h-381.78v-12.4m0 18.6h381.78v12.4h-381.78v-12.4"/>
  <path class="Hook" d="M1459.002 402.902c0-.202.899-3.58.992-3.875.093-.403 1.891-6.045 5.549-11.703 2.682-4.169 12.105-16.368 11.811-16.368 0 0 7.347-9.424 7.843-22.226v-2.279c0-6.06-.79-14.585-4.278-23.22-.388-.991-.79-1.983-1.876-1.58-1.1.387-.79 1.581-.496 2.666 1.783 6.96 2.775 14.09 2.775 21.235 0 8.339-2.976 12.508-4.759 15.578-6.556 11.004-15.081 16.368-19.25 17.762-.497.202-.791.59-.791 1.086v22.428c0 .682.589 1.287 1.286 1.287.496 0 1.101-.403 1.194-.791" style="stroke-width:.992"/>
  <path class="Tempo" d="M120.675 16h-3.297v44.968c-1.141-.671-2.516-1.093-4.094-1.265a12.672 12.672 0 0 0-1.344-.063c-2.719 0-5.656.782-8.39 2.266-3.188 1.719-5.75 4.187-7.172 6.922-1.453 2.765-1.594 5.469-.422 7.64 1.375 2.579 4.39 3.907 7.937 3.907 2.641 0 5.594-.735 8.407-2.25 5.14-2.782 8.359-7.375 8.375-11.375V16m22.265 52.328h30.235v-6.906H142.94v6.906m0-12.36h30.235v-6.906H142.94v6.906m72.781-24.609h-2.109c-3.781 2.828-8.031 4.031-15.172 4.141v3.359h2.516c5.344 0 5.406.125 5.344 5.047v21.297c0 3.719 0 3.906-.422 4.5-.547.656-1.735.906-4.985.906h-1.922v3.234h23.938v-3.234h-1.906c-3.188 0-4.328-.25-4.875-.906-.407-.594-.407-.844-.407-4.5V31.359m29.391 0c-9 0-15.594 9.188-15.594 21.672 0 12.469 6.594 21.656 15.594 21.656 8.828 0 15.547-9.187 15.547-21.359 0-7.078-1.625-12.297-5.172-16.75-2.812-3.406-6.359-5.219-10.375-5.219m-.062 3.125c1.796 0 3.25 1.078 3.906 3 .781 1.984 1.25 8.281 1.25 15.719 0 6.187-.469 12.656-1.016 14.703-.656 2.391-2.094 3.656-4.14 3.656-1.86 0-3.235-1.015-3.954-3-.781-1.984-1.265-8.344-1.265-15.531 0-6.313.484-12.844 1.015-14.891.672-2.39 2.11-3.656 4.204-3.656m41.453 14.703c1.75-.656 2.593-1.078 3.422-1.687 2.343-1.61 3.671-4.078 3.671-6.891 0-5.531-5.218-9.25-13.031-9.25-9.297 0-15.297 4.984-15.297 12.781 0 4.75 2.219 8.219 6.969 10.75-1.859.594-2.641.828-3.672 1.375-3 1.563-4.609 4.313-4.609 7.797 0 6.485 5.812 10.625 14.937 10.625 9.657 0 16.203-5.531 16.203-13.75 0-5.64-2.765-9.359-8.593-11.75m-3.36-1.265c-2.515-.594-4.375-1.141-5.515-1.563-2.75-1.016-4.563-3.469-4.563-6.109 0-3.313 2.766-5.766 6.485-5.766 4.015 0 6.546 2.641 6.546 6.844 0 2.703-1.031 4.984-2.953 6.594m-7.672 8.578c2.454.672 5.454 1.562 6.954 2.047 3.781 1.312 5.218 2.937 5.218 6 0 4.078-3.359 7.015-8.093 7.015-4.86 0-7.797-2.875-7.797-7.672 0-3.187 1.015-5.218 3.718-7.39"/>
  <path class="NoteDot" d="M369.442 315.699a4.955 4.955 0 0 0 4.96 4.96 4.955 4.955 0 0 0 4.96-4.96 4.955 4.955 0 0 0-4.96-4.96 4.955 4.955 0 0 0-4.96 4.96m1131.72 0a4.955 4.955 0 0 0 4.96 4.96 4.955 4.955 0 0 0 4.96-4.96 4.955 4.955 0 0 0-4.96-4.96 4.955 4.955 0 0 0-4.96 4.96m411.53 0a4.955 4.955 0 0 0 4.96 4.96 4.955 4.955 0 0 0 4.96-4.96 4.955 4.955 0 0 0-4.96-4.96 4.955 4.955 0 0 0-4.96 4.96" style="stroke-width:.992"/>
</svg>
