<svg width="2459.182" height="294.902" version="1.2" xmlns="http://www.w3.org/2000/svg">
  <path class="StaffLines" fill="none" stroke="#000" stroke-width="2.73" stroke-linejoin="bevel" d="M16 123.443h2427.182M16 148.243h2427.182M16 173.043h2427.182M16 197.843h2427.182M16 222.643h2427.182"/>
  <path class="TieSegment" stroke="#000" stroke-width="1.74" stroke-linecap="round" stroke-linejoin="round" fill-rule="evenodd" d="M557.042 170.687c11.273-13.392 45.094-13.392 56.367 0-11.273-6.448-45.094-6.448-56.367 0m237.73 29.512c11.28 6.448 45.1 6.448 56.37 0-11.27 13.392-45.09 13.392-56.37 0m1008.9-54.312c12.81-13.392 51.25-13.392 64.06 0-12.81-6.448-51.25-6.448-64.06 0m265.42 79.112c12.81 6.448 51.24 6.448 64.05 0-12.81 13.392-51.24 13.392-64.05 0"/>
  <path class="BarLine" stroke="#000" stroke-width="4.46" stroke-linejoin="bevel" d="M1291.152 122.079v101.928m1127.85-101.928v101.928"/>
  <path class="BarLine" stroke="#000" stroke-width="13.64" stroke-linejoin="bevel" d="M2436.362 122.079v101.928"/>
  <path class="Accidental" d="M1775.432 162.534c.605-.108 1.101-.806 1.101-1.395v-5.859c0-.79-.605-1.38-1.395-1.38h-.202l-3.27.698v-14.787h-2.775v15.376l-8.835 1.783v-13.982h-2.774v14.586l-3.875.79c-.589.093-1.085.791-1.085 1.38v5.952-.186c0 .79.589 1.38 1.395 1.38h.294l3.271-.698v16.368l-3.875.806c-.589.093-1.085.79-1.085 1.38v5.75c0 .806.589 1.395 1.395 1.395h.294l3.271-.697v14.786h2.775v-15.376l8.834-1.782v13.981h2.775v-14.585l3.767-.698c.604-.093 1.1-.79 1.1-1.38v-5.858c0-.791-.605-1.38-1.395-1.38h-.202l-3.27.682v-16.368l3.767-.682m-15.377 19.53v-16.461l8.835-1.783v16.368l-8.835 1.876m502.567-27.172c-.186-.201-.496-.294-.79-.294-.094 0-.295.093-.388.093l-12.508 3.472v-17.36h-2.775v49.104c0 .79.589 1.287 1.395 1.287h.388l12.508-3.472v17.36h2.666v-49.104c0-.388-.186-.884-.496-1.085m-2.17 24.598-11.517 3.178v-16.275l11.517-3.271v16.368" style="stroke-width:.992"/>
  <path class="Stem" stroke="#000" stroke-width="2.73" stroke-linejoin="bevel" d="M365.758 176.377v71.066m66.037-95.866v105.405m105.66-55.805v71.066m95.541-77.574V80.043m105.656 77.426V80.043m66.04 89.826V80.043m66.04 89.826V98.643m66.04 83.626v-71.226m66.03 96.026v-83.626m105.66 46.426V98.643m105.66 96.026v-71.226m142.37 46.426V98.643m73.72 83.626v-74.087m117.96 86.487v-71.226m44.23 65.334v83.466m73.72-120.666v118.282m117.96-93.482v89.666m103.24-96.174V98.643m117.96 83.626v-68.364m73.72 80.764v-71.226m73.73 71.226V98.643m73.73 83.626V98.643m73.72 71.226V98.643m73.73 83.626V98.643"/>
  <path class="Note" d="M395.642 165.014c-1.783-3.286-5.549-5.068-10.121-5.068-3.364 0-7.038.992-10.618 2.882-6.541 3.473-10.509 9.316-10.509 14.385 0 1.379.294 2.774.992 4.06 1.782 3.271 5.549 4.96 10.121 4.96 3.364 0 7.038-.883 10.618-2.774 6.541-3.472 10.509-9.331 10.509-14.384 0-1.395-.295-2.775-.992-4.061m66.037-24.8c-1.783-3.286-5.549-5.068-10.121-5.068-3.364 0-7.038.992-10.618 2.882-6.541 3.473-10.509 9.316-10.509 14.385 0 1.379.294 2.774.992 4.06 1.782 3.271 5.549 4.96 10.121 4.96 3.364 0 7.038-.883 10.618-2.774 6.541-3.472 10.509-9.331 10.509-14.384 0-1.395-.295-2.775-.992-4.061m105.66 49.6c-1.783-3.286-5.549-5.068-10.121-5.068-3.364 0-7.038.992-10.618 2.882-6.541 3.473-10.509 9.316-10.509 14.385 0 1.379.294 2.774.992 4.06 1.782 3.271 5.549 4.96 10.121 4.96 3.364 0 7.038-.883 10.618-2.774 6.541-3.472 10.509-9.331 10.509-14.384 0-1.395-.295-2.775-.992-4.061m66.037 0c-1.783-3.286-5.549-5.068-10.121-5.068-3.364 0-7.038.992-10.618 2.882-6.541 3.473-10.509 9.316-10.509 14.385 0 1.379.294 2.774.992 4.06 1.782 3.271 5.549 4.96 10.121 4.96 3.364 0 7.038-.883 10.618-2.774 6.541-3.472 10.509-9.331 10.509-14.384 0-1.395-.295-2.775-.992-4.061m105.664-37.2c-1.783-3.286-5.549-5.068-10.121-5.068-3.364 0-7.038.992-10.618 2.882-6.541 3.472-10.509 9.316-10.509 14.385 0 1.379.294 2.774.992 4.06 1.782 3.271 5.549 4.96 10.121 4.96 3.364 0 7.038-.883 10.618-2.774 6.541-3.472 10.509-9.331 10.509-14.384 0-1.395-.295-2.775-.992-4.061m66.03 12.4c-1.783-3.286-5.549-5.068-10.121-5.068-3.364 0-7.038.992-10.618 2.882-6.541 3.472-10.509 9.316-10.509 14.385 0 1.379.294 2.774.992 4.06 1.782 3.271 5.549 4.96 10.121 4.96 3.364 0 7.038-.883 10.618-2.774 6.541-3.472 10.509-9.331 10.509-14.384 0-1.395-.295-2.775-.992-4.061m66.04 0c-1.783-3.286-5.549-5.068-10.121-5.068-3.364 0-7.038.992-10.618 2.882-6.541 3.472-10.509 9.316-10.509 14.385 0 1.379.294 2.774.992 4.06 1.782 3.271 5.549 4.96 10.121 4.96 3.364 0 7.038-.883 10.618-2.774 6.541-3.472 10.509-9.331 10.509-14.384 0-1.395-.295-2.775-.992-4.061m66.04 12.4c-1.783-3.286-5.549-5.068-10.121-5.068-3.364 0-7.038.992-10.618 2.882-6.541 3.472-10.509 9.316-10.509 14.385 0 1.379.294 2.774.992 4.06 1.782 3.271 5.549 4.96 10.121 4.96 3.364 0 7.038-.883 10.618-2.774 6.541-3.472 10.509-9.331 10.509-14.384 0-1.395-.295-2.774-.992-4.061m66.03 24.8c-1.782-3.286-5.549-5.068-10.121-5.068-3.364 0-7.038.992-10.618 2.882-6.541 3.472-10.509 9.316-10.509 14.385 0 1.379.294 2.774.992 4.06 1.782 3.271 5.549 4.96 10.121 4.96 3.364 0 7.038-.883 10.618-2.774 6.541-3.472 10.509-9.331 10.509-14.384 0-1.395-.294-2.775-.992-4.061m105.66-37.2c-1.782-3.286-5.549-5.068-10.121-5.068-3.364 0-7.038.992-10.618 2.882-6.541 3.473-10.509 9.316-10.509 14.385 0 1.379.294 2.774.992 4.06 1.782 3.271 5.549 4.96 10.121 4.96 3.364 0 7.037-.883 10.618-2.774 6.541-3.472 10.509-9.331 10.509-14.384 0-1.395-.295-2.775-.992-4.061m105.66 24.8c-1.782-3.286-5.549-5.068-10.121-5.068-3.364 0-7.037.992-10.618 2.882-6.541 3.473-10.509 9.316-10.509 14.385 0 1.379.294 2.774.992 4.06 1.782 3.271 5.549 4.96 10.121 4.96 3.364 0 7.037-.883 10.618-2.774 6.541-3.472 10.509-9.331 10.509-14.384 0-1.395-.294-2.775-.992-4.061m142.37-24.8c-1.782-3.286-5.549-5.068-10.121-5.068-3.364 0-7.038.992-10.618 2.882-6.541 3.473-10.509 9.316-10.509 14.385 0 1.379.294 2.774.992 4.06 1.782 3.271 5.549 4.96 10.121 4.96 3.364 0 7.037-.883 10.618-2.774 6.541-3.472 10.509-9.331 10.509-14.384 0-1.395-.295-2.775-.992-4.061m73.72 12.4c-1.782-3.286-5.549-5.068-10.121-5.068-3.364 0-7.038.992-10.618 2.882-6.541 3.472-10.509 9.316-10.509 14.384 0 1.38.294 2.775.992 4.061 1.782 3.271 5.549 4.96 10.121 4.96 3.364 0 7.037-.883 10.618-2.774 6.541-3.472 10.509-9.331 10.509-14.384 0-1.395-.295-2.775-.992-4.061m117.97 12.4c-1.782-3.286-5.549-5.068-10.121-5.068-3.364 0-7.038.992-10.618 2.882-6.541 3.473-10.509 9.316-10.509 14.385 0 1.379.294 2.774.992 4.06 1.782 3.271 5.549 4.96 10.121 4.96 3.364 0 7.037-.883 10.618-2.774 6.541-3.472 10.509-9.331 10.509-14.384 0-1.395-.294-2.775-.992-4.061m73.72-12.4c-1.782-3.286-5.549-5.068-10.121-5.068-3.364 0-7.038.992-10.618 2.882-6.541 3.472-10.509 9.316-10.509 14.384 0 1.38.294 2.775.992 4.061 1.782 3.271 5.549 4.96 10.121 4.96 3.364 0 7.037-.883 10.618-2.774 6.541-3.472 10.509-9.331 10.509-14.384 0-1.395-.294-2.775-.992-4.061m73.73-37.2c-1.782-3.286-5.549-5.068-10.121-5.068-3.364 0-7.037.992-10.618 2.882-6.541 3.473-10.509 9.316-10.509 14.385 0 1.379.294 2.774.992 4.06 1.782 3.271 5.549 4.96 10.121 4.96 3.364 0 7.037-.883 10.618-2.774 6.541-3.472 10.509-9.331 10.509-14.384 0-1.395-.294-2.775-.992-4.061m117.96 24.8c-1.782-3.286-5.549-5.068-10.121-5.068-3.364 0-7.037.992-10.618 2.882-6.541 3.473-10.509 9.316-10.509 14.385 0 1.379.294 2.774.992 4.06 1.782 3.271 5.549 4.96 10.121 4.96 3.364 0 7.037-.883 10.618-2.774 6.541-3.472 10.509-9.331 10.509-14.384 0-1.395-.294-2.775-.992-4.061m73.73 0c-1.782-3.286-5.549-5.068-10.121-5.068-3.364 0-7.037.992-10.618 2.882-6.541 3.473-10.509 9.316-10.509 14.385 0 1.379.294 2.774.992 4.06 1.782 3.271 5.549 4.96 10.121 4.96 3.364 0 7.037-.883 10.618-2.774 6.541-3.472 10.509-9.331 10.509-14.384 0-1.395-.294-2.775-.992-4.061m117.96 12.4c-1.782-3.286-5.549-5.068-10.121-5.068-3.364 0-7.037.992-10.618 2.882-6.541 3.472-10.509 9.316-10.509 14.384 0 1.38.294 2.775.992 4.061 1.782 3.271 5.549 4.96 10.121 4.96 3.364 0 7.037-.883 10.618-2.774 6.541-3.472 10.509-9.331 10.509-14.384 0-1.395-.294-2.775-.992-4.061m73.73 12.4c-1.782-3.286-5.549-5.068-10.121-5.068-3.364 0-7.038.992-10.618 2.882-6.541 3.473-10.509 9.316-10.509 14.385 0 1.379.294 2.774.992 4.06 1.782 3.271 5.549 4.96 10.121 4.96 3.364 0 7.038-.883 10.618-2.774 6.541-3.472 10.509-9.331 10.509-14.384 0-1.395-.294-2.775-.992-4.061m73.72 0c-1.782-3.286-5.549-5.068-10.121-5.068-3.364 0-7.038.992-10.618 2.882-6.541 3.473-10.509 9.316-10.509 14.385 0 1.379.294 2.774.992 4.06 1.783 3.271 5.549 4.96 10.122 4.96 3.363 0 7.037-.883 10.617-2.774 6.541-3.472 10.509-9.331 10.509-14.384 0-1.395-.294-2.775-.992-4.061m73.73-12.4c-1.782-3.286-5.549-5.068-10.121-5.068-3.364 0-7.038.992-10.618 2.882-6.541 3.472-10.509 9.316-10.509 14.384 0 1.38.294 2.775.992 4.061 1.783 3.271 5.549 4.96 10.122 4.96 3.363 0 7.037-.883 10.617-2.774 6.541-3.472 10.509-9.331 10.509-14.384 0-1.395-.294-2.775-.992-4.061m73.72-12.4c-1.782-3.286-5.549-5.068-10.121-5.068-3.364 0-7.038.992-10.618 2.882-6.541 3.473-10.509 9.316-10.509 14.385 0 1.379.294 2.774.992 4.06 1.782 3.271 5.549 4.96 10.121 4.96 3.364 0 7.038-.883 10.618-2.774 6.541-3.472 10.509-9.331 10.509-14.384 0-1.395-.294-2.775-.992-4.061m73.73 12.4c-1.782-3.286-5.549-5.068-10.121-5.068-3.364 0-7.038.992-10.618 2.882-6.541 3.472-10.509 9.316-10.509 14.384 0 1.38.294 2.775.992 4.061 1.782 3.271 5.549 4.96 10.121 4.96 3.364 0 7.038-.883 10.618-2.774 6.541-3.472 10.509-9.331 10.509-14.384 0-1.395-.294-2.775-.992-4.061" style="stroke-width:.992"/>
  <path class="Clef" d="M98.693 191.969c-1.225-5.379-3.844-9.177-4.62-10.2-3.162-4.247-7.145-7.067-11.795-8.416-3.085-.868-6.06-.992-8.463-.806a2314.24 2314.24 0 0 1-2.93-17.205c5.41-6.122 9.006-11.873 11.269-16.136 3.441-6.525 4.573-11.066 4.635-11.268 1.704-5.177 2.061-12.818.96-20.956-.992-7.486-3.068-14.151-5.409-17.375-1.007-1.41-2.061-2.14-3.085-2.14-1.208 0-3.704 1.225-6.572 3.984-2.278 2.17-5.518 6.03-8.06 11.997-2.976 7.006-3.192 16.414-2.836 23.08.372 7.222 1.472 12.864 1.488 12.911.016.093.279 1.581.713 4.123-.217.232-.465.45-.713.698-1.023.992-2.201 2.108-3.58 3.487-.853.853-1.798 1.751-2.79 2.713-8.37 8.075-21.065 20.304-21.065 39.308 0 4.665.899 9.052 2.666 13.035 1.566 3.565 3.844 6.82 6.758 9.672 7.673 7.502 18.181 10.68 25.172 10.525 2.93-.078 5.55-.31 7.92-.76 1.814 9.532 2.945 16.508 2.977 21.808.046 6.464-1.597 10.416-5.456 13.16-2.418 1.72-5.208 2.666-8.278 2.806-2.572.124-4.82-.342-6.23-.744h-.016s-.279-.093-.294-.28c-.016-.186.34-.232.34-.232h.032c1.906-.434 5.44-1.658 7.78-4.929 1.783-2.511 2.651-7.099.822-11.005-1.1-2.372-3.58-5.301-9.16-5.75-2.48-.202-4.728.31-6.712 1.503-1.798 1.07-3.286 2.697-4.324 4.681-2.434 4.666-1.984 10.354 1.116 14.167 2.944 3.596 7.517 5.89 12.911 6.463.853.093 1.69.124 2.527.124 4.402 0 8.757-1.193 12.306-3.378 3.628-2.558 5.736-6.51 6.402-12.09.558-4.604.17-10.478-1.209-18.492-.357-2.077-.899-5.084-1.55-8.804 5.704-1.906 9.827-5.456 13.563-11.268 3.27-5.689 4.2-11.75 2.79-18.012m-33.946 26.01c-4.603-1.21-9.005-3.69-12.725-7.177-1.302-1.209-3.162-3.363-4.619-6.727-1.348-3.147-2.015-6.556-1.953-10.106.062-4.665 1.364-9.455 3.844-14.198 2.899-5.534 7.425-11.02 13.439-16.306a89.206 89.206 0 0 0 4.076-3.813c.76 4.231 1.581 8.881 2.449 13.717-3.813 1.256-8.525 4.387-11.61 9.998-3.518 6.51-3.379 11.997-2.65 15.453.93 4.418 3.441 8.154 6.867 10.23.93.559 5.022 2.667 6.85 2.093a1.16 1.16 0 0 0 .776-.666c.511-1.163-.512-1.798-2.046-2.744a27.274 27.274 0 0 1-1.984-1.317c-3.302-2.465-4.744-6.882-3.674-11.238a12.436 12.436 0 0 1 3.674-6.215c1.642-1.535 3.673-2.62 6.029-3.256 2.03 11.16 4.077 22.228 5.704 30.52.124.682.263 1.348.387 2.015-4.34.93-8.648.837-12.834-.263m11.238-32.938c10.261-.465 14.492 6.913 15.376 11.703.465 2.526.465 6.928-1.07 11.113-1.162 3.146-3.596 7.192-8.695 9.238a36.33 36.33 0 0 0-.217-1.271 12576.45 12576.45 0 0 1-5.394-30.783m-7.27-70.386c1.768-5.688 4.48-8.912 6.464-10.632 1.736-1.504 3.364-2.217 4.278-2.217.14 0 .264.03.356.062.466.14.992.697 1.458 1.565 2.294 4.248 1.55 10.912.216 15.314-1.612 5.364-4.51 10.928-13.236 20.46-.171-1.1-.326-2.138-.481-3.115-1.24-8.215-.915-15.438.945-21.437" style="stroke-width:.992"/>
  <path class="KeySig" d="M246.424 174.934c.604-.108 1.1-.806 1.1-1.395v-5.859c0-.79-.604-1.38-1.395-1.38h-.201l-3.271.698v-14.787h-2.775v15.376l-8.835 1.783v-13.982h-2.774v14.586l-3.875.79c-.589.093-1.085.791-1.085 1.38v5.952-.186c0 .79.589 1.38 1.395 1.38h.294l3.271-.698v16.368l-3.875.806c-.589.093-1.085.79-1.085 1.38v5.75c0 .806.589 1.395 1.395 1.395h.294l3.271-.697v14.786h2.775v-15.376l8.834-1.782v13.981h2.775v-14.585l3.767-.698c.604-.093 1.1-.79 1.1-1.38v-5.858c0-.791-.604-1.38-1.395-1.38h-.201l-3.271.682v-16.368l3.767-.682m-15.376 19.53v-16.461l8.834-1.782v16.367l-8.834 1.876m-9.424-56.73c.604-.108 1.1-.806 1.1-1.395v-5.859c0-.79-.604-1.38-1.395-1.38h-.201l-3.271.698v-14.787h-2.775v15.376l-8.834 1.783v-13.982h-2.775v14.586l-3.875.79c-.589.093-1.085.791-1.085 1.38v5.952-.186c0 .79.589 1.38 1.395 1.38h.295l3.27-.698v16.368l-3.875.806c-.589.093-1.085.79-1.085 1.38v5.75c0 .806.589 1.395 1.395 1.395h.295l3.27-.697v14.786h2.775v-15.376l8.834-1.782v13.981h2.775v-14.585l3.767-.698c.604-.093 1.1-.79 1.1-1.38v-5.859c0-.79-.604-1.379-1.395-1.379h-.201l-3.271.682v-16.368l3.767-.682m-15.376 19.53v-16.461l8.834-1.782v16.368l-8.834 1.875m-9.424-56.73c.604-.108 1.1-.806 1.1-1.395V93.28c0-.79-.604-1.38-1.395-1.38h-.201l-3.271.698V77.81h-2.775v15.376l-8.835 1.783V80.988h-2.774v14.586l-3.875.79c-.589.094-1.085.791-1.085 1.38v5.952-.186c0 .79.589 1.38 1.395 1.38h.294l3.271-.698v16.368l-3.875.806c-.589.093-1.085.79-1.085 1.38v5.75c0 .806.589 1.395 1.395 1.395h.294l3.271-.697v14.786h2.775v-15.376l8.834-1.782v13.981h2.775v-14.585l3.767-.698c.604-.093 1.1-.79 1.1-1.38v-5.859c0-.79-.604-1.379-1.395-1.379h-.201l-3.271.682v-16.368l3.767-.682m-15.377 19.53v-16.461l8.835-1.782v16.367l-8.835 1.876m-9.423 30.07c.604-.108 1.1-.806 1.1-1.395v-5.859c0-.79-.604-1.38-1.395-1.38h-.201l-3.271.698v-14.787h-2.775v15.376l-8.835 1.783v-13.982h-2.774v14.586l-3.875.79c-.589.093-1.085.791-1.085 1.38v5.952-.186c0 .79.589 1.38 1.395 1.38h.294l3.271-.698v16.368l-3.875.806c-.589.093-1.085.79-1.085 1.38v5.75c0 .806.589 1.395 1.395 1.395h.294l3.271-.697v14.786h2.775v-15.376l8.834-1.782v13.981h2.775v-14.585l3.767-.698c.604-.093 1.1-.79 1.1-1.38v-5.859c0-.79-.604-1.379-1.395-1.379h-.201l-3.271.682v-16.368l3.767-.682m-15.376 19.53v-16.461l8.834-1.783v16.368l-8.834 1.876m-9.424-56.73c.604-.108 1.1-.806 1.1-1.395v-5.859c0-.79-.604-1.38-1.395-1.38h-.201l-3.271.698V90.211h-2.775v15.376l-8.834 1.783V93.388h-2.775v14.586l-3.875.79c-.589.093-1.085.791-1.085 1.38v5.952-.186c0 .79.589 1.38 1.395 1.38h.295l3.27-.698v16.368l-3.875.806c-.589.093-1.085.79-1.085 1.38v5.75c0 .806.589 1.395 1.395 1.395h.295l3.27-.697v14.786h2.775v-15.376l8.834-1.782v13.981h2.775v-14.585l3.767-.698c.604-.093 1.1-.79 1.1-1.38v-5.858c0-.791-.604-1.38-1.395-1.38h-.201l-3.271.682v-16.368l3.767-.682m-15.376 19.53v-16.461l8.834-1.782v16.367l-8.834 1.876" style="stroke-width:.992"/>
  <path class="TimeSig" d="M274.517 160.899h17.034v7.393H283.4c-.776 0-1.411.62-1.411 1.396v1.89c0 .776.635 1.396 1.41 1.396h30.009a1.39 1.39 0 0 0 1.394-1.396v-1.89a1.39 1.39 0 0 0-1.394-1.396h-8.866V160.9h8.866a1.39 1.39 0 0 0 1.394-1.395v-1.891a1.39 1.39 0 0 0-1.394-1.395h-8.866v-15.841c0-.527-.31-1.008-.776-1.24l-1.208-.605a1.446 1.446 0 0 0-1.582.233l-8.974 8.246c-.279.279-.45.635-.45 1.038v8.169h-11.423s11.036-11.935 22.785-27.574c.852-1.148.356-2.186.17-2.372l-2.154-2.186a1.41 1.41 0 0 0-.992-.418c-.589 0-14.043.03-14.756 0-.713-.016-1.24.604-1.318 1.209 0 0-.526 7.3-3.115 15.376-2.573 8.044-5.487 12.989-8.122 16.585 0 0-.542.976-.186 1.72.341.744.977 1.814.977 1.814s.248.527 1.1.527m-.001 49.336h17.034v7.393H283.4c-.776 0-1.411.62-1.411 1.396v1.89c0 .776.635 1.396 1.41 1.396h30.009a1.39 1.39 0 0 0 1.394-1.396v-1.89a1.39 1.39 0 0 0-1.394-1.396h-8.866v-7.393h8.866a1.39 1.39 0 0 0 1.394-1.395v-1.891a1.39 1.39 0 0 0-1.394-1.395h-8.866v-15.841c0-.527-.31-1.008-.776-1.24l-1.208-.605a1.446 1.446 0 0 0-1.582.233l-8.974 8.246c-.279.279-.45.635-.45 1.038v8.169h-11.423s11.036-11.935 22.785-27.574c.852-1.148.356-2.186.17-2.372l-2.154-2.186a1.41 1.41 0 0 0-.992-.418c-.589 0-14.043.03-14.756 0-.713-.016-1.24.604-1.318 1.209 0 0-.526 7.3-3.115 15.376-2.573 8.044-5.487 12.989-8.122 16.585 0 0-.542.976-.186 1.72.341.744.977 1.814.977 1.814s.248.527 1.1.527" style="stroke-width:.992"/>
  <path class="Beam" fill-rule="evenodd" d="m364.394 241.179 174.425 25.194v12.529l-174.425-25.194v-12.529m0-18.6 32.24 4.657v12.529l-32.24-4.657v-12.529m174.425 25.194-32.24-4.657v12.529l32.24 4.657v-12.529m92.813-173.93h174.43v12.4h-174.43v-12.4m105.66 18.6h68.77v12.4h-68.77v-12.4m132.07-.62 134.81 25.312v12.617l-134.81-25.312V91.823m0 18.6 68.77 12.912v12.617l-68.77-12.912v-12.617m237.74-18.788 108.39 25.44v12.737l-108.39-25.44V91.635m248.02.404 194.42 25.153v12.503l-194.42-25.153V92.039m0 18.6 32.24 4.171v12.503l-32.24-4.171v-12.503m194.42 25.153-32.24-4.171v12.503l32.24 4.171v-12.503m41.49 130.248 194.42-6.288v12.406l-194.42 6.289V266.04m0-18.6 32.24-1.043v12.407l-32.24 1.043V247.44m194.42-6.288-32.24 1.043v12.406l32.24-1.043v-12.406m100.5-149.113 194.42 25.153v12.503l-194.42-25.153V92.039m117.96 33.861 76.46 9.892v12.503l-76.46-9.891V125.9m147.46-33.457h223.9v12.4h-223.9v-12.4m0 18.6h223.9v12.4h-223.9v-12.4"/>
  <path class="Tempo" d="M297.437 16h-3.297v44.968c-1.141-.671-2.516-1.093-4.094-1.265a12.672 12.672 0 0 0-1.344-.063c-2.719 0-5.656.782-8.39 2.266-3.188 1.719-5.75 4.187-7.172 6.922-1.453 2.765-1.594 5.469-.422 7.64 1.375 2.579 4.39 3.907 7.937 3.907 2.641 0 5.594-.735 8.407-2.25 5.14-2.782 8.359-7.375 8.375-11.375V16m22.296 52.328h30.235v-6.906h-30.235v6.906m0-12.36h30.235v-6.906h-30.235v6.906m72.782-24.609h-2.11c-3.781 2.828-8.031 4.031-15.172 4.141v3.359h2.516c5.344 0 5.406.125 5.344 5.047v21.297c0 3.719 0 3.906-.422 4.5-.547.656-1.75.906-4.984.906h-1.922v3.234h23.937v-3.234h-1.922c-3.172 0-4.312-.25-4.859-.906-.406-.594-.406-.844-.406-4.5V31.359m29.39 0c-9 0-15.593 9.188-15.593 21.672 0 12.469 6.593 21.656 15.593 21.656 8.813 0 15.532-9.187 15.532-21.359 0-7.078-1.61-12.297-5.157-16.75-2.812-3.406-6.359-5.219-10.375-5.219m-.062 3.125c1.797 0 3.234 1.078 3.906 3 .781 1.984 1.25 8.281 1.25 15.719 0 6.187-.469 12.656-1.016 14.703-.656 2.391-2.093 3.656-4.14 3.656-1.86 0-3.235-1.015-3.953-3-.782-1.984-1.266-8.344-1.266-15.531 0-6.313.484-12.844 1.016-14.891.672-2.39 2.109-3.656 4.203-3.656m41.453 14.703c1.75-.656 2.594-1.078 3.422-1.687 2.344-1.61 3.656-4.078 3.656-6.891 0-5.531-5.219-9.25-13.016-9.25-9.296 0-15.296 4.984-15.296 12.781 0 4.75 2.218 8.219 6.968 10.75-1.875.594-2.64.828-3.672 1.375-3 1.563-4.609 4.313-4.609 7.797 0 6.485 5.813 10.625 14.938 10.625 9.656 0 16.187-5.531 16.187-13.75 0-5.64-2.75-9.359-8.578-11.75m-3.359-1.265c-2.516-.594-4.375-1.141-5.516-1.563-2.766-1.016-4.563-3.469-4.563-6.109 0-3.313 2.766-5.766 6.485-5.766 4.015 0 6.547 2.641 6.547 6.844 0 2.703-1.032 4.984-2.953 6.594m-7.672 8.578c2.453.672 5.453 1.562 6.953 2.047 3.781 1.312 5.219 2.937 5.219 6 0 4.078-3.36 7.015-8.094 7.015-4.86 0-7.797-2.875-7.797-7.672 0-3.187 1.016-5.218 3.719-7.39"/>
</svg>
