<svg width="968.706" height="372.89" version="1.2" xmlns="http://www.w3.org/2000/svg">
  <path class="StaffLines" fill="none" stroke="#000" stroke-width="2.73" stroke-linejoin="bevel" d="M16 81.108h936.706M16 105.912h936.706M16 130.715h936.706M16 155.518h936.706M16 180.321h936.706"/>
  <path class="Symbol" d="M334.356 205.031c0 7.735 3.969 13.983 10.324 18.044l.496-.682c-3.379-2.589-4.573-4.077-5.658-7.255-.992-2.868-1.488-6.045-1.488-10.216 0-7.828 1.085-11.998 7.146-17.067l-.403-.682c-6.542 4.464-10.417 9.518-10.417 17.858m46.723-.109c0 4.17-.496 7.348-1.488 10.216-1.194 3.178-2.388 4.666-5.751 7.255l.589.682c6.355-3.968 10.215-10.417 10.215-18.044 0-8.247-3.86-13.595-10.417-17.858l-.387.682c6.138 4.96 7.239 9.239 7.239 17.067m389.417 12.511c0 7.735 3.969 13.983 10.324 18.044l.496-.682c-3.38-2.589-4.573-4.077-5.658-7.255-.992-2.868-1.488-6.045-1.488-10.216 0-7.828 1.085-11.998 7.146-17.067l-.403-.682c-6.542 4.464-10.417 9.518-10.417 17.858m51.494-.109c0 4.17-.496 7.348-1.488 10.216-1.194 3.178-2.388 4.666-5.751 7.255l.589.682c6.355-3.968 10.215-10.417 10.215-18.044 0-8.247-3.86-13.595-10.417-17.858l-.387.682c6.138 4.96 7.239 9.239 7.239 17.067" style="stroke-width:.992126"/>
  <path class="BarLine" fill="none" stroke="#000" stroke-width="4.46" stroke-linejoin="bevel" d="M423.419 79.744v101.941M714.306 79.744v101.941m214.22-101.941v101.941"/>
  <path class="BarLine" fill="none" stroke="#000" stroke-width="13.64" stroke-linejoin="bevel" d="M945.886 79.744v101.941"/>
  <path class="Accidental" d="M524.957 124.963c-.186-.201-.496-.294-.79-.294-.094 0-.295.093-.388.093l-12.51 3.472v-17.362h-2.775v49.11c0 .79.59 1.287 1.395 1.287h.388l12.51-3.473v17.363h2.666v-49.11c0-.388-.186-.884-.496-1.086m-2.17 24.602-11.518 3.178v-16.277l11.518-3.271v16.37m13.138-74.208c-.186-.201-.496-.294-.79-.294-.094 0-.295.093-.388.093l-12.51 3.472V61.266h-2.775v49.11c0 .79.59 1.287 1.395 1.287h.388l12.51-3.473v17.363h2.666v-49.11c0-.388-.186-.884-.496-1.086m-2.17 24.602-11.518 3.178V86.86l11.518-3.271v16.37M752.2 124.963c-.187-.201-.497-.294-.791-.294-.094 0-.295.093-.388.093l-12.51 3.472v-17.362h-2.775v49.11c0 .79.59 1.287 1.395 1.287h.388l12.51-3.473v17.363h2.666v-49.11c0-.388-.186-.884-.496-1.086m-2.17 24.602-11.518 3.178v-16.277l11.518-3.271v16.37M774.62 87.76c-.187-.202-.497-.295-.791-.295-.094 0-.295.093-.388.093l-12.51 3.472V73.668h-2.775v49.11c0 .79.59 1.287 1.395 1.287h.388l12.51-3.473v17.363h2.666v-49.11c0-.388-.186-.884-.496-1.086m-2.17 24.602-11.518 3.178V99.262l11.518-3.271v16.37" style="stroke-width:.992126"/>
  <path class="LedgerLine" fill="none" stroke="#000" stroke-width="3.97" stroke-linejoin="bevel" d="M336.488 205.124h49.598m386.54 0h54.37"/>
  <path class="Stem" fill="none" stroke="#000" stroke-width="2.73" stroke-linejoin="bevel" d="M376.041 201.949V16m83.219 80.844v129.983m84.727-129.983v120.682m84.727-108.281v117.582"/>
  <path class="Note" d="M376.421 197.094c-1.783-3.286-5.55-5.07-10.123-5.07-3.364 0-7.038.993-10.619 2.884-6.541 3.473-10.51 9.317-10.51 14.386 0 1.38.295 2.775.992 4.062 1.783 3.27 5.55 4.96 10.123 4.96 3.364 0 7.038-.883 10.619-2.775 6.542-3.472 10.51-9.332 10.51-14.386 0-1.395-.294-2.774-.992-4.061m0-86.811c-1.783-3.286-5.55-5.07-10.123-5.07-3.364 0-7.038.993-10.619 2.884-6.541 3.473-10.51 9.317-10.51 14.386 0 1.38.295 2.775.992 4.062 1.783 3.27 5.55 4.96 10.123 4.96 3.364 0 7.038-.883 10.619-2.775 6.542-3.472 10.51-9.332 10.51-14.385 0-1.396-.294-2.775-.992-4.062m0-37.205c-1.783-3.286-5.55-5.07-10.123-5.07-3.364 0-7.038.993-10.619 2.884-6.541 3.473-10.51 9.317-10.51 14.386 0 1.38.295 2.775.992 4.062 1.783 3.27 5.55 4.96 10.123 4.96 3.364 0 7.038-.883 10.619-2.775 6.542-3.472 10.51-9.332 10.51-14.386 0-1.395-.294-2.774-.992-4.061m112.726 74.41c-1.783-3.286-5.55-5.07-10.123-5.07-3.364 0-7.038.993-10.619 2.884-6.541 3.473-10.51 9.317-10.51 14.386 0 1.38.295 2.775.992 4.062 1.783 3.27 5.55 4.96 10.123 4.96 3.364 0 7.038-.883 10.619-2.775 6.542-3.472 10.51-9.332 10.51-14.386 0-1.395-.294-2.774-.992-4.061" style="stroke-width:.992126"/>
  <path class="Note" d="M489.147 122.685c-1.783-3.286-5.55-5.07-10.123-5.07-3.364 0-7.038.993-10.619 2.884-6.541 3.473-10.51 9.317-10.51 14.386 0 1.38.295 2.775.992 4.062 1.783 3.27 5.55 4.96 10.123 4.96 3.364 0 7.038-.883 10.619-2.775 6.542-3.472 10.51-9.332 10.51-14.386 0-1.395-.294-2.774-.992-4.061m0-37.205c-1.783-3.286-5.55-5.07-10.123-5.07-3.364 0-7.038.993-10.619 2.884-6.541 3.473-10.51 9.317-10.51 14.386 0 1.38.295 2.775.992 4.062 1.783 3.27 5.55 4.96 10.123 4.96 3.364 0 7.038-.883 10.619-2.775 6.542-3.472 10.51-9.332 10.51-14.386 0-1.395-.294-2.774-.992-4.061m84.727 49.606c-1.783-3.286-5.55-5.07-10.123-5.07-3.364 0-7.038.993-10.619 2.884-6.541 3.473-10.51 9.317-10.51 14.386 0 1.38.295 2.775.992 4.062 1.783 3.27 5.55 4.96 10.123 4.96 3.364 0 7.038-.883 10.619-2.775 6.542-3.472 10.51-9.332 10.51-14.385 0-1.396-.294-2.775-.992-4.062" style="stroke-width:.992126"/>
  <path class="Note" d="M573.874 110.283c-1.783-3.286-5.55-5.07-10.123-5.07-3.364 0-7.038.993-10.619 2.884-6.541 3.473-10.51 9.317-10.51 14.386 0 1.38.295 2.775.992 4.062 1.783 3.27 5.55 4.96 10.123 4.96 3.364 0 7.038-.883 10.619-2.775 6.542-3.472 10.51-9.332 10.51-14.385 0-1.396-.294-2.775-.992-4.062" style="stroke-width:.992126"/>
  <path class="Note" d="M573.874 85.48c-1.783-3.286-5.55-5.07-10.123-5.07-3.364 0-7.038.993-10.619 2.884-6.541 3.473-10.51 9.317-10.51 14.386 0 1.38.295 2.775.992 4.062 1.783 3.27 5.55 4.96 10.123 4.96 3.364 0 7.038-.883 10.619-2.775 6.542-3.472 10.51-9.332 10.51-14.386 0-1.395-.294-2.774-.992-4.061m84.727 62.008c-1.783-3.286-5.55-5.07-10.123-5.07-3.364 0-7.038.993-10.619 2.884-6.542 3.473-10.51 9.317-10.51 14.386 0 1.38.295 2.775.992 4.062 1.783 3.27 5.55 4.96 10.123 4.96 3.364 0 7.038-.883 10.619-2.775 6.542-3.472 10.51-9.332 10.51-14.386 0-1.395-.294-2.774-.992-4.061m-29.508-37.205c-1.783-3.286-5.55-5.07-10.123-5.07-3.364 0-7.038.993-10.619 2.884-6.541 3.473-10.51 9.317-10.51 14.386 0 1.38.295 2.775.992 4.062 1.783 3.27 5.55 4.96 10.123 4.96 3.364 0 7.038-.883 10.619-2.775 6.542-3.472 10.51-9.332 10.51-14.385 0-1.396-.294-2.775-.992-4.062" style="stroke-width:.992126"/>
  <path class="Note" d="M658.601 97.882c-1.783-3.286-5.55-5.07-10.123-5.07-3.364 0-7.038.993-10.619 2.884-6.542 3.473-10.51 9.317-10.51 14.386 0 1.38.295 2.775.992 4.062 1.783 3.27 5.55 4.96 10.123 4.96 3.364 0 7.038-.883 10.619-2.775 6.542-3.472 10.51-9.332 10.51-14.385 0-1.396-.294-2.775-.992-4.062M799.872 204.04c-13.688 0-18.556 6.944-18.556 13.393 0 6.449 4.868 13.394 18.556 13.394s18.447-6.945 18.447-13.394-4.759-13.394-18.447-13.394m-8.232 9.022c-.108-.403-.108-.79-.108-1.193 0-.79.201-1.581.604-2.279.683-.992 1.876-1.69 3.364-1.984 1.287-.295 1.985-.496 4.573-.496h.093c3.969 0 5.256 3.674 6.356 7.44l.295.993c.79 2.573 1.193 4.759 1.193 6.449 0 1.193-.201 2.278-.604 3.069-.59 1.1-1.581 1.798-3.271 2.186-.9.201-2.387.294-2.387.294-.496 0-.884.109-1.287.109-3.178 0-5.162-1.194-6.542-5.457-1.194-3.674-1.395-4.759-2.279-9.13m8.232-58.63c-13.688 0-18.556 6.945-18.556 13.394s4.868 13.394 18.556 13.394 18.447-6.945 18.447-13.394-4.759-13.394-18.447-13.394m-8.232 9.022c-.108-.403-.108-.79-.108-1.193 0-.79.201-1.581.604-2.279.683-.992 1.876-1.69 3.364-1.984 1.287-.295 1.985-.496 4.573-.496h.093c3.969 0 5.256 3.674 6.356 7.44l.295.993c.79 2.573 1.193 4.759 1.193 6.449 0 1.193-.201 2.278-.604 3.069-.59 1.1-1.581 1.798-3.271 2.186-.9.201-2.387.294-2.387.294-.496 0-.884.109-1.287.109-3.178 0-5.162-1.194-6.542-5.457-1.194-3.674-1.395-4.759-2.279-9.13" style="stroke-width:.992126"/>
  <path class="Note" d="M799.872 129.63c-13.688 0-18.556 6.944-18.556 13.393 0 6.449 4.868 13.394 18.556 13.394s18.447-6.945 18.447-13.394-4.759-13.394-18.447-13.394m-8.232 9.022c-.108-.403-.108-.79-.108-1.193 0-.79.201-1.581.604-2.279.683-.992 1.876-1.69 3.364-1.984 1.287-.295 1.985-.496 4.573-.496h.093c3.969 0 5.256 3.674 6.356 7.44l.295.993c.79 2.573 1.193 4.759 1.193 6.449 0 1.193-.201 2.278-.604 3.069-.59 1.1-1.581 1.798-3.271 2.186-.9.201-2.387.294-2.387.294-.496 0-.884.109-1.287.109-3.178 0-5.162-1.194-6.542-5.457-1.194-3.674-1.395-4.759-2.279-9.13" style="stroke-width:.992126"/>
  <path class="Note" d="M799.872 104.826c-13.688 0-18.556 6.945-18.556 13.394s4.868 13.394 18.556 13.394 18.447-6.945 18.447-13.394-4.759-13.394-18.447-13.394m-8.232 9.022c-.108-.403-.108-.79-.108-1.193 0-.79.201-1.581.604-2.279.683-.992 1.876-1.69 3.364-1.984 1.287-.295 1.985-.496 4.573-.496h.093c3.969 0 5.256 3.674 6.356 7.44l.295.993c.79 2.573 1.193 4.759 1.193 6.449 0 1.193-.201 2.278-.604 3.069-.59 1.1-1.581 1.798-3.271 2.186-.9.201-2.387.294-2.387.294-.496 0-.884.109-1.287.109-3.178 0-5.162-1.194-6.542-5.457-1.194-3.674-1.395-4.759-2.279-9.13" style="stroke-width:.992126"/>
  <path class="Note" d="M834.142 92.425c-13.688 0-18.556 6.945-18.556 13.394s4.868 13.394 18.556 13.394 18.447-6.945 18.447-13.394-4.759-13.394-18.447-13.394m-8.232 9.022c-.108-.403-.108-.79-.108-1.193 0-.79.201-1.581.604-2.279.683-.992 1.876-1.69 3.364-1.984 1.287-.295 1.985-.496 4.573-.496h.093c3.969 0 5.256 3.674 6.356 7.44l.295.993c.79 2.573 1.193 4.759 1.193 6.449 0 1.193-.201 2.278-.604 3.069-.59 1.1-1.581 1.798-3.271 2.186-.9.201-2.387.294-2.387.294-.496 0-.884.109-1.287.109-3.178 0-5.162-1.194-6.542-5.457-1.194-3.674-1.395-4.759-2.279-9.13m-449.489 33.638c-1.783-3.286-5.55-5.07-10.123-5.07-3.364 0-7.038.993-10.619 2.884-6.541 3.473-10.51 9.317-10.51 14.386 0 1.38.295 2.775.992 4.062 1.783 3.27 5.55 4.96 10.123 4.96 3.364 0 7.038-.883 10.619-2.775 6.542-3.472 10.51-9.332 10.51-14.385 0-1.396-.294-2.775-.992-4.062" style="stroke-width:.992126"/>
  <path class="Clef" d="M98.704 149.643c-1.225-5.38-3.845-9.177-4.62-10.2-3.163-4.248-7.147-7.07-11.797-8.418-3.085-.868-6.061-.992-8.464-.806a2314.456 2314.456 0 0 1-2.93-17.207c5.41-6.124 9.007-11.875 11.27-16.138 3.441-6.526 4.573-11.068 4.635-11.27 1.705-5.178 2.062-12.82.961-20.959-.992-7.487-3.07-14.152-5.41-17.377-1.008-1.41-2.062-2.14-3.085-2.14-1.21 0-3.705 1.225-6.573 3.984-2.279 2.17-5.519 6.03-8.06 11.999-2.977 7.007-3.194 16.417-2.838 23.082.372 7.224 1.473 12.867 1.489 12.914.015.093.279 1.58.713 4.123-.217.233-.465.45-.713.698-1.024.992-2.202 2.108-3.581 3.488-.853.852-1.799 1.751-2.79 2.713-8.372 8.076-21.068 20.307-21.068 39.312 0 4.667.9 9.054 2.666 13.038 1.566 3.565 3.845 6.82 6.76 9.673 7.673 7.503 18.183 10.68 25.174 10.526 2.93-.078 5.55-.31 7.922-.76 1.814 9.534 2.945 16.51 2.976 21.811.047 6.465-1.596 10.418-5.456 13.162-2.419 1.72-5.21 2.666-8.278 2.805-2.574.124-4.822-.34-6.232-.744h-.016s-.279-.093-.294-.279c-.016-.186.34-.232.34-.232h.032c1.907-.434 5.441-1.659 7.782-4.93 1.782-2.511 2.65-7.1.821-11.006-1.1-2.372-3.58-5.302-9.161-5.751-2.48-.202-4.728.31-6.713 1.503-1.798 1.07-3.286 2.698-4.325 4.682-2.433 4.666-1.984 10.355 1.116 14.169 2.946 3.596 7.519 5.89 12.914 6.464.852.093 1.69.124 2.526.124 4.403 0 8.759-1.194 12.309-3.38 3.627-2.557 5.736-6.51 6.402-12.091.558-4.604.17-10.48-1.209-18.494-.356-2.077-.899-5.085-1.55-8.805 5.705-1.907 9.828-5.457 13.564-11.27 3.271-5.69 4.201-11.75 2.79-18.013m-33.949 26.012c-4.604-1.21-9.006-3.69-12.727-7.177-1.302-1.21-3.162-3.364-4.62-6.728-1.348-3.147-2.015-6.558-1.953-10.107.062-4.667 1.364-9.457 3.845-14.2 2.899-5.535 7.425-11.022 13.44-16.308a89.217 89.217 0 0 0 4.077-3.814c.76 4.232 1.581 8.883 2.45 13.72-3.814 1.255-8.527 4.386-11.612 9.998-3.519 6.511-3.38 11.999-2.65 15.456.93 4.418 3.44 8.154 6.867 10.231.93.558 5.022 2.666 6.852 2.093a1.16 1.16 0 0 0 .775-.667c.511-1.163-.512-1.798-2.046-2.744a27.278 27.278 0 0 1-1.985-1.317c-3.302-2.465-4.743-6.883-3.674-11.24a12.438 12.438 0 0 1 3.674-6.216c1.643-1.534 3.674-2.62 6.03-3.255 2.031 11.161 4.078 22.23 5.705 30.523.124.682.264 1.349.388 2.016-4.34.93-8.65.837-12.836-.264m11.24-32.942c10.261-.465 14.493 6.914 15.377 11.704.465 2.527.465 6.93-1.07 11.115-1.162 3.147-3.596 7.193-8.696 9.24-.062-.42-.14-.853-.217-1.272-1.535-8.712-3.457-19.625-5.395-30.787m-7.27-70.394c1.767-5.69 4.48-8.914 6.464-10.634 1.736-1.504 3.364-2.217 4.279-2.217.14 0 .263.03.356.062.465.14.992.697 1.457 1.565 2.295 4.248 1.55 10.914.217 15.316-1.612 5.364-4.51 10.93-13.238 20.463-.17-1.1-.326-2.14-.48-3.116-1.241-8.216-.916-15.44.945-21.44" style="stroke-width:.992126"/>
  <path class="KeySig" d="M271.255 83c.605-.109 1.101-.806 1.101-1.396v-5.86c0-.79-.604-1.379-1.395-1.379h-.202l-3.27.698v-14.79h-2.775v15.379l-8.837 1.782V63.452h-2.774v14.587l-3.876.79c-.589.094-1.085.791-1.085 1.38v5.953-.186c0 .79.59 1.38 1.395 1.38h.295l3.27-.698v16.37l-3.875.806c-.589.093-1.085.79-1.085 1.38v5.751c0 .806.59 1.395 1.395 1.395h.295l3.27-.697v14.789h2.775v-15.378l8.837-1.783v13.983h2.774v-14.588l3.767-.697c.605-.093 1.101-.79 1.101-1.38v-5.86c0-.79-.604-1.38-1.395-1.38h-.202l-3.27.683v-16.37l3.766-.682m-15.378 19.532V86.07l8.837-1.783v16.37l-8.837 1.876m-9.425 30.073c.605-.109 1.101-.806 1.101-1.396v-5.86c0-.79-.604-1.379-1.395-1.379h-.202l-3.27.698v-14.79h-2.775v15.379l-8.837 1.782v-13.982H228.3v14.587l-3.876.79c-.589.094-1.085.791-1.085 1.38v5.953-.186c0 .79.59 1.38 1.395 1.38h.295l3.27-.698v16.37l-3.875.806c-.589.093-1.085.79-1.085 1.38v5.751c0 .806.59 1.395 1.395 1.395h.295l3.27-.697v14.789h2.775V160.68l8.837-1.783v13.983h2.774v-14.588l3.767-.697c.605-.093 1.101-.79 1.101-1.38v-5.86c0-.79-.604-1.38-1.395-1.38h-.202l-3.27.683v-16.37l3.766-.682m-15.378 19.532v-16.463l8.837-1.783v16.37l-8.837 1.876m-9.424-56.736c.604-.109 1.1-.806 1.1-1.396v-5.86c0-.79-.604-1.379-1.395-1.379h-.202l-3.27.698v-14.79h-2.775v15.379l-8.837 1.782V75.854h-2.774V90.44l-3.876.79c-.589.094-1.085.791-1.085 1.38v5.953-.186c0 .79.59 1.38 1.395 1.38h.295l3.27-.698v16.37l-3.875.806c-.589.093-1.085.79-1.085 1.38v5.751c0 .806.59 1.395 1.395 1.395h.295l3.27-.697v14.789h2.775v-15.378l8.837-1.783v13.983h2.774v-14.588l3.767-.697c.605-.093 1.101-.79 1.101-1.38v-5.86c0-.79-.604-1.38-1.395-1.38h-.202l-3.27.683v-16.37l3.766-.682m-15.378 19.532V98.471l8.837-1.783v16.37l-8.837 1.876m-9.425-56.737c.605-.109 1.101-.806 1.101-1.396v-5.86c0-.79-.604-1.379-1.395-1.379h-.202l-3.27.698V35.47h-2.775v15.38l-8.837 1.782V38.65h-2.774v14.587l-3.876.79c-.589.094-1.085.791-1.085 1.38v5.953-.186c0 .79.59 1.38 1.395 1.38h.295l3.27-.698v16.37l-3.875.806c-.589.093-1.085.79-1.085 1.38v5.751c0 .806.59 1.395 1.395 1.395h.295l3.27-.697v14.789h2.775V86.27l8.837-1.783V98.47h2.774V83.883l3.767-.697c.605-.093 1.101-.79 1.101-1.38v-5.86c0-.79-.604-1.38-1.395-1.38h-.202l-3.27.683v-16.37l3.766-.682m-15.378 19.532V61.266l8.837-1.783v16.37l-8.837 1.876m-9.425 30.074c.605-.109 1.101-.806 1.101-1.396v-5.86c0-.79-.604-1.379-1.395-1.379h-.202l-3.27.698v-14.79h-2.775v15.379l-8.837 1.782V88.255h-2.774v14.587l-3.876.79c-.589.094-1.085.791-1.085 1.38v5.953-.186c0 .79.59 1.38 1.395 1.38h.295l3.27-.698v16.37l-3.875.806c-.589.093-1.085.79-1.085 1.38v5.751c0 .806.59 1.395 1.395 1.395h.295l3.27-.697v14.789h2.775v-15.378l8.837-1.783v13.983h2.774v-14.588l3.767-.697c.605-.093 1.101-.79 1.101-1.38v-5.86c0-.79-.604-1.38-1.395-1.38h-.202l-3.27.683v-16.37l3.766-.682m-15.378 19.532v-16.463l8.837-1.783v16.37l-8.837 1.876m-9.425-56.737c.604-.109 1.1-.806 1.1-1.396v-5.86c0-.79-.604-1.379-1.395-1.379h-.202l-3.27.698V47.87h-2.775v15.38l-8.837 1.782V51.05h-2.774v14.587l-3.876.79c-.589.094-1.085.791-1.085 1.38v5.953-.186c0 .79.59 1.38 1.395 1.38h.295l3.27-.698v16.37l-3.875.806c-.589.093-1.085.79-1.085 1.38v5.751c0 .806.59 1.395 1.395 1.395h.295l3.27-.697v14.789h2.775V98.672l8.837-1.783v13.983h2.774V96.284l3.767-.697c.605-.093 1.101-.79 1.101-1.38v-5.86c0-.79-.604-1.38-1.395-1.38h-.202l-3.27.683V71.28l3.766-.682M131.861 90.13V73.667l8.837-1.783v16.37l-8.837 1.876" style="stroke-width:.992126"/>
  <text xml:space="preserve" style="font-size:64px;line-height:1.25;font-family:FreeSerif,serif;-inkscape-font-specification:FreeSerif,serif" x="642.617" y="600.012" transform="translate(-311.847 -308.438)"><tspan x="642.617" y="600.012">I</tspan></text>
  <text xml:space="preserve" style="font-size:37.3333px;line-height:1.25;font-family:FreeSerif,serif;-inkscape-font-specification:FreeSerif,serif" x="670.132" y="566.059" transform="translate(-311.847 -308.438)"><tspan x="670.132" y="566.059" style="font-size:37.3333px">6</tspan></text>
  <text xml:space="preserve" style="font-size:37.3333px;line-height:1.25;font-family:FreeSerif,serif;-inkscape-font-specification:FreeSerif,serif" x="670.132" y="616.439" transform="translate(-311.847 -308.438)"><tspan x="670.132" y="616.439" style="font-size:37.3333px">4</tspan></text>
  <text xml:space="preserve" style="font-size:64px;line-height:1.25;font-family:FreeSerif,serif;-inkscape-font-specification:FreeSerif,serif" x="714.815" y="597.472" transform="translate(-305.088 -305.77)"><tspan x="714.815" y="597.472">vii°</tspan></text>
  <text xml:space="preserve" style="font-size:37.3333px;line-height:1.25;font-family:FreeSerif,serif;-inkscape-font-specification:FreeSerif,serif" x="805.132" y="563.326" transform="translate(-305.088 -305.77)"><tspan x="805.132" y="563.326" style="font-size:37.3333px">6</tspan></text>
  <text xml:space="preserve" style="font-size:64px;line-height:1.25;font-family:FreeSerif,serif;-inkscape-font-specification:FreeSerif,serif" x="499.879" y="350.234"><tspan x="499.879" y="350.234">♭III</tspan></text>
  <text xml:space="preserve" style="font-size:64px;line-height:1.25;font-family:FreeSerif,serif;-inkscape-font-specification:FreeSerif,serif" x="567.216" y="291.872"><tspan x="567.216" y="291.872">ii𝗌𝗎𝗌4</tspan></text>
  <text xml:space="preserve" style="font-size:64px;line-height:1.25;font-family:FreeSerif,serif;-inkscape-font-specification:FreeSerif,serif" x="760.489" y="291.866"><tspan x="760.489" y="291.866">iv9</tspan></text>
</svg>
