<svg width="2034.667" height="1109.333" viewBox="0 0 1526 832" xmlns="http://www.w3.org/2000/svg" version="1.2" baseProfile="tiny"><g fill="none" stroke="#000" fill-rule="evenodd" stroke-linecap="square" stroke-linejoin="bevel" font-weight="400"><path d="M33.544 796.542h6.008m1467.92 0h-6.008" stroke-width="1.001" stroke-linecap="round" stroke-linejoin="round" font-family="Noto Sans" font-size="10"/><text fill="#000" stroke="none" xml:space="preserve" transform="translate(17.022 801.551) scale(1.00131)" font-family="Sans" font-size="9"> 0</text><path d="M33.544 710.43h6.008m1467.92 0h-6.008" stroke-width="1.001" stroke-linecap="round" stroke-linejoin="round" font-family="Noto Sans" font-size="10"/><text fill="#000" stroke="none" xml:space="preserve" transform="translate(17.022 714.436) scale(1.00131)" font-family="Sans" font-size="9"> 2</text><path d="M33.544 623.315h6.008m1467.92 0h-6.008" stroke-width="1.001" stroke-linecap="round" stroke-linejoin="round" font-family="Noto Sans" font-size="10"/><text fill="#000" stroke="none" xml:space="preserve" transform="translate(17.022 628.323) scale(1.00131)" font-family="Sans" font-size="9"> 4</text><path d="M33.544 537.203h6.008m1467.92 0h-6.008" stroke-width="1.001" stroke-linecap="round" stroke-linejoin="round" font-family="Noto Sans" font-size="10"/><text fill="#000" stroke="none" xml:space="preserve" transform="translate(17.022 541.209) scale(1.00131)" font-family="Sans" font-size="9"> 6</text><path d="M33.544 450.089h6.008m1467.92 0h-6.008" stroke-width="1.001" stroke-linecap="round" stroke-linejoin="round" font-family="Noto Sans" font-size="10"/><text fill="#000" stroke="none" xml:space="preserve" transform="translate(17.022 455.096) scale(1.00131)" font-family="Sans" font-size="9"> 8</text><path d="M33.544 363.976h6.008m1467.92 0h-6.008" stroke-width="1.001" stroke-linecap="round" stroke-linejoin="round" font-family="Noto Sans" font-size="10"/><text fill="#000" stroke="none" xml:space="preserve" transform="translate(10.013 367.982) scale(1.00131)" font-family="Sans" font-size="9"> 10</text><path d="M33.544 276.862h6.008m1467.92 0h-6.008" stroke-width="1.001" stroke-linecap="round" stroke-linejoin="round" font-family="Noto Sans" font-size="10"/><text fill="#000" stroke="none" xml:space="preserve" transform="translate(10.013 281.869) scale(1.00131)" font-family="Sans" font-size="9"> 12</text><path d="M33.544 190.75h6.008m1467.92 0h-6.008" stroke-width="1.001" stroke-linecap="round" stroke-linejoin="round" font-family="Noto Sans" font-size="10"/><text fill="#000" stroke="none" xml:space="preserve" transform="translate(10.013 194.755) scale(1.00131)" font-family="Sans" font-size="9"> 14</text><path d="M33.544 103.636h6.008m1467.92 0h-6.008" stroke-width="1.001" stroke-linecap="round" stroke-linejoin="round" font-family="Noto Sans" font-size="10"/><text fill="#000" stroke="none" xml:space="preserve" transform="translate(10.013 108.642) scale(1.00131)" font-family="Sans" font-size="9"> 16</text><path d="M33.544 17.523h6.008m1467.92 0h-6.008" stroke-width="1.001" stroke-linecap="round" stroke-linejoin="round" font-family="Noto Sans" font-size="10"/><text fill="#000" stroke="none" xml:space="preserve" transform="translate(10.013 21.528) scale(1.00131)" font-family="Sans" font-size="9"> 18</text><path d="M33.544 796.542v-6.008m0-773.011v6.008" stroke-width="1.001" stroke-linecap="round" stroke-linejoin="round" font-family="Noto Sans" font-size="10"/><text fill="#000" stroke="none" xml:space="preserve" transform="translate(28.037 818.573) scale(1.00131)" font-family="Sans" font-size="9"> 0</text><path d="M327.929 796.542v-6.008m0-773.011v6.008" stroke-width="1.001" stroke-linecap="round" stroke-linejoin="round" font-family="Noto Sans" font-size="10"/><text fill="#000" stroke="none" xml:space="preserve" transform="translate(319.919 818.573) scale(1.00131)" font-family="Sans" font-size="9"> 50</text><path d="M623.315 796.542v-6.008m0-773.011v6.008" stroke-width="1.001" stroke-linecap="round" stroke-linejoin="round" font-family="Noto Sans" font-size="10"/><text fill="#000" stroke="none" xml:space="preserve" transform="translate(610.801 818.573) scale(1.00131)" font-family="Sans" font-size="9"> 100</text><path d="M917.7 796.542v-6.008m0-773.011v6.008" stroke-width="1.001" stroke-linecap="round" stroke-linejoin="round" font-family="Noto Sans" font-size="10"/><text fill="#000" stroke="none" xml:space="preserve" transform="translate(906.188 818.573) scale(1.00131)" font-family="Sans" font-size="9"> 150</text><path d="M1213.087 796.542v-6.008m0-773.011v6.008" stroke-width="1.001" stroke-linecap="round" stroke-linejoin="round" font-family="Noto Sans" font-size="10"/><text fill="#000" stroke="none" xml:space="preserve" transform="translate(1200.57 818.573) scale(1.00131)" font-family="Sans" font-size="9"> 200</text><path d="M1507.472 796.542v-6.008m0-773.011v6.008" stroke-width="1.001" stroke-linecap="round" stroke-linejoin="round" font-family="Noto Sans" font-size="10"/><text fill="#000" stroke="none" xml:space="preserve" transform="translate(1495.96 818.573) scale(1.00131)" font-family="Sans" font-size="9"> 250</text><path d="M33.544 17.523v779.02h1473.928V17.522H33.544" stroke-linecap="round" stroke-linejoin="round" font-family="Noto Sans" font-size="10" stroke-width="1.001"/><text fill="#000" stroke="none" xml:space="preserve" transform="translate(1392.83 36.548) scale(1.00131)" font-family="Sans" font-size="9">fubini (Rust)</text><path d="M1465.417 32.543h30.04M150.998 795.64h0l177.031-8.01 147.493-13.918 147.493-25.233 294.886-100.13 294.986-192.052L1507.873 53.37" stroke="#9400d3" stroke-linecap="round" stroke-linejoin="round" font-family="Noto Sans" font-size="10" stroke-width="1.001"/><text fill="#000" stroke="none" xml:space="preserve" transform="translate(1366.79 53.57) scale(1.00131)" font-family="Sans" font-size="9">fubini_gen (Rust)</text><path d="M1465.417 49.565h30.04M150.998 795.54h0l177.031-7.91 147.493-13.818 147.493-25.233 294.886-99.93 294.986-191.851L1507.873 54.47" stroke="#009e73" stroke-linecap="round" stroke-linejoin="round" font-family="Noto Sans" font-size="10" stroke-width="1.001"/><text fill="#000" stroke="none" xml:space="preserve" transform="translate(1368.79 70.593) scale(1.00131)" font-family="Sans" font-size="9">fubini_par (Rust)</text><path d="M1465.417 66.587h30.04M150.998 794.54h0l177.031-7.91 147.493-11.716 147.493-18.825 294.886-73.396 294.986-131.272 294.986-251.729" stroke="#56b4e9" stroke-linecap="round" stroke-linejoin="round" font-family="Noto Sans" font-size="10" stroke-width="1.001"/><text fill="#000" stroke="none" xml:space="preserve" transform="translate(1337.75 87.615) scale(1.00131)" font-family="Sans" font-size="9">fubini_par_hack (Rust)</text><path d="M1465.417 83.61h30.04M150.998 794.84h0l177.031-6.308 147.493-9.613 147.493-17.022 294.886-66.687 294.986-124.563 294.986-246.523" stroke="#e69f00" stroke-linecap="round" stroke-linejoin="round" font-family="Noto Sans" font-size="10" stroke-width="1.001"/><text fill="#000" stroke="none" xml:space="preserve" transform="translate(1369.8 104.637) scale(1.00131)" font-family="Sans" font-size="9">fubini_rec (Rust)</text><path d="M1465.417 100.632h30.04M150.998 796.041h0l177.031-4.906 147.493-8.31 147.493-15.521 294.886-57.275 294.986-99.63 294.986-156.205" stroke="#f0e442" stroke-linecap="round" stroke-linejoin="round" font-family="Noto Sans" font-size="10" stroke-width="1.001"/><path d="M33.544 17.523v779.02h1473.928V17.522H33.544" stroke-linecap="round" stroke-linejoin="round" font-family="Noto Sans" font-size="10" stroke-width="1.001"/></g></svg>
