<svg width="2034.667" height="1109.333" viewBox="0 0 1526 832" xmlns="http://www.w3.org/2000/svg" version="1.2" baseProfile="tiny"><g fill="none" stroke="#000" fill-rule="evenodd" stroke-linecap="square" stroke-linejoin="bevel" font-weight="400"><path d="M39.552 796.542h6.008m1461.912 0h-6.008" stroke-width="1.001" stroke-linecap="round" stroke-linejoin="round" font-family="Noto Sans" font-size="10"/><text fill="#000" stroke="none" xml:space="preserve" transform="translate(23.03 801.551) scale(1.00131)" font-family="Sans" font-size="9"> 0</text><path d="M39.552 641.34h6.008m1461.912 0h-6.008" stroke-width="1.001" stroke-linecap="round" stroke-linejoin="round" font-family="Noto Sans" font-size="10"/><text fill="#000" stroke="none" xml:space="preserve" transform="translate(16.021 645.346) scale(1.00131)" font-family="Sans" font-size="9"> 50</text><path d="M39.552 485.135h6.008m1461.912 0h-6.008" stroke-width="1.001" stroke-linecap="round" stroke-linejoin="round" font-family="Noto Sans" font-size="10"/><text fill="#000" stroke="none" xml:space="preserve" transform="translate(9.012 489.141) scale(1.00131)" font-family="Sans" font-size="9"> 100</text><path d="M39.552 328.93h6.008m1461.912 0h-6.008" stroke-width="1.001" stroke-linecap="round" stroke-linejoin="round" font-family="Noto Sans" font-size="10"/><text fill="#000" stroke="none" xml:space="preserve" transform="translate(9.012 333.938) scale(1.00131)" font-family="Sans" font-size="9"> 150</text><path d="M39.552 172.726h6.008m1461.912 0h-6.008" stroke-width="1.001" stroke-linecap="round" stroke-linejoin="round" font-family="Noto Sans" font-size="10"/><text fill="#000" stroke="none" xml:space="preserve" transform="translate(9.012 177.733) scale(1.00131)" font-family="Sans" font-size="9"> 200</text><path d="M39.552 17.523h6.008m1461.912 0h-6.008" stroke-width="1.001" stroke-linecap="round" stroke-linejoin="round" font-family="Noto Sans" font-size="10"/><text fill="#000" stroke="none" xml:space="preserve" transform="translate(9.012 21.528) scale(1.00131)" font-family="Sans" font-size="9"> 250</text><path d="M39.552 796.542v-6.008m0-773.011v6.008" stroke-width="1.001" stroke-linecap="round" stroke-linejoin="round" font-family="Noto Sans" font-size="10"/><text fill="#000" stroke="none" xml:space="preserve" transform="translate(34.045 818.573) scale(1.00131)" font-family="Sans" font-size="9"> 0</text><path d="M332.936 796.542v-6.008m0-773.011v6.008" stroke-width="1.001" stroke-linecap="round" stroke-linejoin="round" font-family="Noto Sans" font-size="10"/><text fill="#000" stroke="none" xml:space="preserve" transform="translate(323.925 818.573) scale(1.00131)" font-family="Sans" font-size="9"> 50</text><path d="M626.32 796.542v-6.008m0-773.011v6.008" stroke-width="1.001" stroke-linecap="round" stroke-linejoin="round" font-family="Noto Sans" font-size="10"/><text fill="#000" stroke="none" xml:space="preserve" transform="translate(614.806 818.573) scale(1.00131)" font-family="Sans" font-size="9"> 100</text><path d="M920.705 796.542v-6.008m0-773.011v6.008" stroke-width="1.001" stroke-linecap="round" stroke-linejoin="round" font-family="Noto Sans" font-size="10"/><text fill="#000" stroke="none" xml:space="preserve" transform="translate(908.19 818.573) scale(1.00131)" font-family="Sans" font-size="9"> 150</text><path d="M1214.088 796.542v-6.008m0-773.011v6.008" stroke-width="1.001" stroke-linecap="round" stroke-linejoin="round" font-family="Noto Sans" font-size="10"/><text fill="#000" stroke="none" xml:space="preserve" transform="translate(1202.58 818.573) scale(1.00131)" font-family="Sans" font-size="9"> 200</text><path d="M1507.472 796.542v-6.008m0-773.011v6.008" stroke-width="1.001" stroke-linecap="round" stroke-linejoin="round" font-family="Noto Sans" font-size="10"/><text fill="#000" stroke="none" xml:space="preserve" transform="translate(1495.96 818.573) scale(1.00131)" font-family="Sans" font-size="9"> 250</text><path d="M39.552 17.523v779.02h1467.92V17.522H39.552" stroke-linecap="round" stroke-linejoin="round" font-family="Noto Sans" font-size="10" stroke-width="1.001"/><text fill="#000" stroke="none" xml:space="preserve" transform="translate(1378.81 36.548) scale(1.00131)" font-family="Sans" font-size="9">fubini (Python)</text><path d="M1465.417 32.543h30.04M156.605 796.442h0l176.23-4.706 146.893-11.415 146.892-20.927 293.684-93.923 293.784-199.06 293.785-367.882" stroke="#9400d3" stroke-linecap="round" stroke-linejoin="round" font-family="Noto Sans" font-size="10" stroke-width="1.001"/><text fill="#000" stroke="none" xml:space="preserve" transform="translate(1350.77 53.57) scale(1.00131)" font-family="Sans" font-size="9">fubini_pow (Python)</text><path d="M1465.417 49.565h30.04M156.605 796.542h0l176.23-4.105 146.893-10.614 146.892-19.626 293.684-90.118 293.784-194.154 293.785-362.274" stroke="#009e73" stroke-linecap="round" stroke-linejoin="round" font-family="Noto Sans" font-size="10" stroke-width="1.001"/><text fill="#000" stroke="none" xml:space="preserve" transform="translate(1352.77 70.593) scale(1.00131)" font-family="Sans" font-size="9">fubini_gen (Python)</text><path d="M1465.417 66.587h30.04M156.605 796.342h0l176.23-4.706 146.893-11.515 146.892-21.028 293.684-94.524 293.784-201.163 293.785-357.067" stroke="#56b4e9" stroke-linecap="round" stroke-linejoin="round" font-family="Noto Sans" font-size="10" stroke-width="1.001"/><text fill="#000" stroke="none" xml:space="preserve" transform="translate(1355.78 87.615) scale(1.00131)" font-family="Sans" font-size="9">fubini_rec (Python)</text><path d="M1465.417 83.61h30.04M156.605 796.642h0l176.23-3.004 146.893-7.91 146.892-16.121 293.684-72.395 293.784-156.304 293.785-284.072" stroke="#e69f00" stroke-linecap="round" stroke-linejoin="round" font-family="Noto Sans" font-size="10" stroke-width="1.001"/><text fill="#000" stroke="none" xml:space="preserve" transform="translate(1392.83 104.637) scale(1.00131)" font-family="Sans" font-size="9">fubini (Rust)</text><path d="M1465.417 100.632h30.04M156.605 796.842h0l176.23-.6 146.893-1.002 146.892-1.802 293.684-7.21 293.784-13.817 293.785-29.038" stroke="#f0e442" stroke-linecap="round" stroke-linejoin="round" font-family="Noto Sans" font-size="10" stroke-width="1.001"/><text fill="#000" stroke="none" xml:space="preserve" transform="translate(1366.79 121.659) scale(1.00131)" font-family="Sans" font-size="9">fubini_gen (Rust)</text><path d="M1465.417 117.654h30.04M156.605 796.842h0l176.23-.6 146.893-1.002 146.892-1.802 293.684-7.21 293.784-13.817 293.785-28.938" stroke="#0072b2" stroke-linecap="round" stroke-linejoin="round" font-family="Noto Sans" font-size="10" stroke-width="1.001"/><text fill="#000" stroke="none" xml:space="preserve" transform="translate(1368.79 138.682) scale(1.00131)" font-family="Sans" font-size="9">fubini_par (Rust)</text><path d="M1465.417 134.676h30.04M156.605 796.742h0l176.23-.5 146.893-.901 146.892-1.302 293.684-5.307 293.784-9.513 293.785-18.123" stroke="#e51e10" stroke-linecap="round" stroke-linejoin="round" font-family="Noto Sans" font-size="10" stroke-width="1.001"/><text fill="#000" stroke="none" xml:space="preserve" transform="translate(1337.75 155.704) scale(1.00131)" font-family="Sans" font-size="9">fubini_par_hack (Rust)</text><path d="M1465.417 151.698h30.04M156.605 796.742h0l176.23-.4 146.893-.701 146.892-1.202 293.684-4.806 293.784-9.012 293.785-17.723" stroke-linecap="round" stroke-linejoin="round" font-family="Noto Sans" font-size="10" stroke-width="1.001"/><text fill="#000" stroke="none" xml:space="preserve" transform="translate(1369.8 172.726) scale(1.00131)" font-family="Sans" font-size="9">fubini_rec (Rust)</text><path d="M1465.417 168.72h30.04M156.605 796.842h0l176.23-.3 146.893-.6 146.892-1.102 293.684-4.206 293.784-7.109 293.785-11.215" stroke="#9400d3" stroke-linecap="round" stroke-linejoin="round" font-family="Noto Sans" font-size="10" stroke-width="1.001"/><path d="M39.552 17.523v779.02h1467.92V17.522H39.552" stroke-linecap="round" stroke-linejoin="round" font-family="Noto Sans" font-size="10" stroke-width="1.001"/></g></svg>
