<svg class="toyplot-canvas-Canvas" xmlns="http://www.w3.org/2000/svg" width="512" height="1024" style="background-color:transparent;border-color:#292724;border-style:none;border-width:1;fill:#292724;fill-opacity:1;font-family:Helvetica;font-size:12px;opacity:1;stroke:#292724;stroke-opacity:1;stroke-width:1">
  <g class="toyplot-coordinates-Cartesian">
    <clipPath id="a">
      <path d="M30 30h452v964H30z"/>
    </clipPath>
    <g class="toytree-mark-Toytree" clip-path="url(#a)">
      <g class="toytree-Edges" style="fill:none;stroke:#262626;stroke-linecap:round;stroke-opacity:1;stroke-width:2">
        <path d="M51.5 300.8v-229h100.4"/>
        <path d="M51.5 300.8V110.1h245.4"/>
        <path d="M51.5 300.8V153.2h111.6"/>
        <path d="M51.5 300.8v-85.4h234.2"/>
        <path d="M51.5 300.8v-8.9H230m-178.5 8.9V378h111.6"/>
        <path d="M51.5 300.8v189.7h111.6"/>
        <path d="M51.5 300.8v395h22.3m89.3-542.6v14.3h11.1M163.1 378v38.3h11.1m-11.1 74.2v26.3h11.1m-100.4 179v-79.1h22.3m-22.3 79.1V775h22.3m78.1-358.7v-19.1h11.2m-11.2 19.1v19.1h33.5m-33.5 81.4V512h167.3m-167.3 4.8v38.3h11.2m-89.3 61.6v18.5h11.2M96.1 775v-23.8h111.6M96.1 775v85.7h22.3m67-305.6v14.3h11.1m-89.2 65.8v17.9h11.1m0 207.6v-61.6h44.7"/>
        <path d="M118.4 860.7v-4.2h22.3m-22.3 4.2v65.9h55.8m-55.8-273.5v16.8h11.2m11.1 186.6v-19.2h11.2"/>
        <path d="M140.7 856.5v19.1h11.2m22.3 51v25.6h22.3m-66.9-282.3v14.3h55.8M151.9 71.8v-9.5h22.3m-22.3 9.5v9.6h55.8m89.2 28.7v-9.6h22.3m-22.3 9.6v9.6h66.9m-200.7 33.5v-14.4h200.7m-189.6 28.7V158H230m-55.8 9.5v9.6h145m-33.5 38.3v-19.2H308m-22.3 19.2H308m-22.3 0v19.1h33.5M230 291.9v-38.3h22.3"/>
        <path d="M230 291.9v-19.1h22.3M230 291.9h22.3m-22.3 0v19.2h22.3"/>
        <path d="M230 291.9v38.3h22.3M163.1 378v-28.7h89.2"/>
        <path d="M163.1 378v-9.5h89.2m-66.9 28.7v-9.6h22.3m-22.3 9.6v9.5h66.9m-44.6 28.7v-9.5H230m-22.3 9.5v9.6h133.8m-178.4 45.5v-26.3H308"/>
        <path d="M174.2 516.8v-33.5H308m33.5 28.7v-9.6h22.3m-22.3 9.6v9.6h22.3m-178.4 33.5v-14.4h66.9m-55.8 28.7v-9.6h11.2m-11.2 9.6v9.6h122.7M96.1 616.7v-18.6h67m-55.8 37.1v-17.9h22.3m-11.2 35.8v-16.7h22.3m-11.1 33.5v-14.4h22.3m33.5 28.7v-9.5h22.3m-22.3 9.5v9.6H230M96.1 775v-62.1h11.2m100.4 38.3v-19.1H230m-22.3 19.1h66.9m-66.9 0v19.2h89.2m-133.8 28.7v-9.6h22.3m-22.3 9.6v9.5h89.2m-100.4 28.7v-9.5h11.2m-11.2 9.5v9.6h122.7m-122.7 28.7V866h22.3m-22.3 9.6v9.6h111.5m-89.2 41.4v-22.3h11.2"/>
        <path d="M174.2 926.6v-3.1h22.3m0 28.7v-9.6h11.2m-11.2 9.6v9.5h11.2"/>
      </g>
      <g class="toytree-TipLabels" style="fill:#262626;fill-opacity:1;font-family:helvetica;font-size:11px;font-weight:400;stroke:none;white-space:pre">
        <text x="15" y="2.81" style="fill:#905f0a;fill-opacity:1" transform="translate(207.67 961.73)">carpenter</text>
        <text x="15" y="2.81" style="fill:#905f0a;fill-opacity:1" transform="translate(207.67 942.6)">grim reaper</text>
        <text x="15" y="2.81" style="fill:#905f0a;fill-opacity:1" transform="translate(196.51 923.46)">LUKless sin</text>
        <text x="15" y="2.81" style="fill:#905f0a;fill-opacity:1" transform="translate(185.36 904.32)">brigand</text>
        <text x="15" y="2.81" style="fill:#0d438c;fill-opacity:1" transform="translate(263.43 885.18)">gishlet</text>
        <text x="15" y="2.81" style="fill:#0d438c;fill-opacity:1" transform="translate(174.21 866.05)">gish</text>
        <text x="15" y="2.81" style="fill:#0d438c;fill-opacity:1" transform="translate(274.59 846.91)">DEX mage</text>
        <text x="15" y="2.81" style="fill:#0d438c;fill-opacity:1" transform="translate(163.05 827.77)">STR mage</text>
        <text x="15" y="2.81" style="fill:#9b59b6;fill-opacity:1" transform="translate(252.28 808.63)">swashbuckler</text>
        <text x="15" y="2.81" style="fill:#1f8040;fill-opacity:1" transform="translate(185.36 789.5)">woods(wo)man</text>
        <text x="15" y="2.81" style="fill:#080808;fill-opacity:1" transform="translate(296.89 770.36)">wandginner</text>
        <text x="15" y="2.81" style="fill:#080808;fill-opacity:1" transform="translate(274.59 751.22)">DEXginner</text>
        <text x="15" y="2.81" style="fill:#080808;fill-opacity:1" transform="translate(229.97 732.08)">LUKginner</text>
        <text x="15" y="2.81" style="fill:#080808;fill-opacity:1" transform="translate(107.28 712.95)">STRginner</text>
        <text x="15" y="2.81" style="fill:#383838;fill-opacity:1" transform="translate(229.97 693.81)">LUKlander</text>
        <text x="15" y="2.81" style="fill:#383838;fill-opacity:1" transform="translate(207.67 674.67)">magelander</text>
        <text x="15" y="2.81" style="fill:#383838;fill-opacity:1" transform="translate(151.9 655.53)">DEXlander</text>
        <text x="15" y="2.81" style="fill:#383838;fill-opacity:1" transform="translate(140.74 636.39)">hybridlander</text>
        <text x="15" y="2.81" style="fill:#383838;fill-opacity:1" transform="translate(129.59 617.26)">STRlander</text>
        <text x="15" y="2.81" style="fill:#686868;fill-opacity:1" transform="translate(163.05 598.12)">camper</text>
        <text x="15" y="2.81" style="fill:#905f0a;fill-opacity:1" transform="translate(319.2 578.98)">dagger sin</text>
        <text x="15" y="2.81" style="fill:#a8221d;fill-opacity:1" transform="translate(207.67 559.84)">dagger warrior</text>
        <text x="15" y="2.81" style="fill:#a8221d;fill-opacity:1" transform="translate(252.28 540.71)">wand warrior</text>
        <text x="15" y="2.81" style="fill:#9b59b6;fill-opacity:1" transform="translate(363.82 521.57)">punch slinger</text>
        <text x="15" y="2.81" style="fill:#9b59b6;fill-opacity:1" transform="translate(363.82 502.43)">bullet bucc</text>
        <text x="15" y="2.81" style="fill:#9b59b6;fill-opacity:1" transform="translate(308.05 483.29)">armed brawler</text>
        <text x="15" y="2.81" style="fill:#9b59b6;fill-opacity:1" transform="translate(308.05 464.16)">pugilist</text>
        <text x="15" y="2.81" style="fill:#9b59b6;fill-opacity:1" transform="translate(341.51 445.02)">LUK bucc</text>
        <text x="15" y="2.81" style="fill:#a8221d;fill-opacity:1" transform="translate(229.97 425.88)">LUK warrior</text>
        <text x="15" y="2.81" style="fill:#9b59b6;fill-opacity:1" transform="translate(252.28 406.74)">DEX brawler</text>
        <text x="15" y="2.81" style="fill:#a8221d;fill-opacity:1" transform="translate(207.67 387.61)">DEX warrior</text>
        <text x="15" y="2.81" style="fill:#0d438c;fill-opacity:1" transform="translate(252.28 368.47)">magelet</text>
        <text x="15" y="2.81" style="fill:#905f0a;fill-opacity:1" transform="translate(252.28 349.33)">LUKless dit</text>
        <text x="15" y="2.81" style="fill:#9b59b6;fill-opacity:1" transform="translate(252.28 330.19)">permapirate</text>
        <text x="15" y="2.81" style="fill:#905f0a;fill-opacity:1" transform="translate(252.28 311.05)">permarogue</text>
        <text x="15" y="2.81" style="fill:#1f8040;fill-opacity:1" transform="translate(252.28 291.92)">permarcher</text>
        <text x="15" y="2.81" style="fill:#0d438c;fill-opacity:1" transform="translate(252.28 272.78)">permamagician</text>
        <text x="15" y="2.81" style="fill:#a8221d;fill-opacity:1" transform="translate(252.28 253.64)">permawarrior</text>
        <text x="15" y="2.81" style="fill:#9b59b6;fill-opacity:1" transform="translate(319.2 234.5)">begunner</text>
        <text x="15" y="2.81" style="fill:#1f8040;fill-opacity:1" transform="translate(308.05 215.37)">bowginner</text>
        <text x="15" y="2.81" style="fill:#905f0a;fill-opacity:1" transform="translate(308.05 196.23)">clawginner</text>
        <text x="15" y="2.81" style="fill:#905f0a;fill-opacity:1" transform="translate(319.2 177.09)">claw-puncher</text>
        <text x="15" y="2.81" style="fill:#1f8040;fill-opacity:1" transform="translate(229.97 157.95)">bow-whacker</text>
        <text x="15" y="2.81" style="fill:#9b59b6;fill-opacity:1" transform="translate(363.82 138.82)">pistol-whipper</text>
        <text x="15" y="2.81" style="fill:#9b59b6;fill-opacity:1" transform="translate(363.82 119.68)">bombadier</text>
        <text x="15" y="2.81" style="fill:#9b59b6;fill-opacity:1" transform="translate(319.2 100.54)">summoner</text>
        <text x="15" y="2.81" style="fill:#905f0a;fill-opacity:1" transform="translate(207.67 81.4)">blood dit</text>
        <text x="15" y="2.81" style="fill:#a8221d;fill-opacity:1" transform="translate(174.21 62.27)">HP warrior</text>
      </g>
    </g>
  </g>
</svg>
